G04*
G04 #@! TF.GenerationSoftware,Altium Limited,Altium Designer,22.4.2 (48)*
G04*
G04 Layer_Physical_Order=2*
G04 Layer_Color=36540*
%FSLAX25Y25*%
%MOIN*%
G70*
G04*
G04 #@! TF.SameCoordinates,7E99259A-5992-410F-866F-3BC1187B2F82*
G04*
G04*
G04 #@! TF.FilePolarity,Positive*
G04*
G01*
G75*
%ADD60C,0.01968*%
%ADD64C,0.05906*%
%ADD66C,0.02362*%
G36*
X531496Y3937D02*
X11811D01*
Y111811D01*
X-55118D01*
Y183465D01*
X-31496D01*
Y196850D01*
X-55118D01*
Y281496D01*
X11811D01*
Y389764D01*
X531496D01*
Y3937D01*
D02*
G37*
%LPC*%
G36*
X257794Y388976D02*
X257167D01*
X256588Y388737D01*
X256145Y388294D01*
X255906Y387715D01*
Y387088D01*
X256145Y386509D01*
X256588Y386067D01*
X257167Y385827D01*
X257794D01*
X258372Y386067D01*
X258815Y386509D01*
X259055Y387088D01*
Y387715D01*
X258815Y388294D01*
X258372Y388737D01*
X257794Y388976D01*
D02*
G37*
G36*
X134959Y388976D02*
X134332D01*
X133754Y388737D01*
X133311Y388294D01*
X133071Y387715D01*
Y387088D01*
X133311Y386509D01*
X133754Y386067D01*
X134332Y385827D01*
X134959D01*
X135538Y386067D01*
X135981Y386509D01*
X136221Y387088D01*
Y387715D01*
X135981Y388294D01*
X135538Y388737D01*
X134959Y388976D01*
D02*
G37*
G36*
X329053Y383071D02*
X328427D01*
X327848Y382831D01*
X327405Y382388D01*
X327165Y381809D01*
Y381183D01*
X327405Y380604D01*
X327848Y380161D01*
X328427Y379921D01*
X329053D01*
X329632Y380161D01*
X330075Y380604D01*
X330315Y381183D01*
Y381809D01*
X330075Y382388D01*
X329632Y382831D01*
X329053Y383071D01*
D02*
G37*
G36*
X252676Y379134D02*
X252049D01*
X251470Y378894D01*
X251027Y378451D01*
X250787Y377872D01*
Y377246D01*
X251027Y376667D01*
X251470Y376224D01*
X252049Y375984D01*
X252676D01*
X253254Y376224D01*
X253697Y376667D01*
X253937Y377246D01*
Y377872D01*
X253697Y378451D01*
X253254Y378894D01*
X252676Y379134D01*
D02*
G37*
G36*
X269756Y378216D02*
X269129D01*
X268551Y377976D01*
X268108Y377533D01*
X267868Y376955D01*
Y376328D01*
X268108Y375749D01*
X268551Y375306D01*
X269129Y375067D01*
X269756D01*
X270335Y375306D01*
X270778Y375749D01*
X271018Y376328D01*
Y376955D01*
X270778Y377533D01*
X270335Y377976D01*
X269756Y378216D01*
D02*
G37*
G36*
X363797Y376476D02*
X363171D01*
X362592Y376237D01*
X362149Y375794D01*
X361910Y375215D01*
Y374588D01*
X362149Y374009D01*
X362592Y373567D01*
X363171Y373327D01*
X363797D01*
X364376Y373567D01*
X364819Y374009D01*
X365059Y374588D01*
Y375215D01*
X364819Y375794D01*
X364376Y376237D01*
X363797Y376476D01*
D02*
G37*
G36*
X149526Y372835D02*
X148899D01*
X148321Y372595D01*
X147878Y372152D01*
X147708Y371742D01*
X145481Y369515D01*
X139121D01*
X139043Y369909D01*
X139081Y369925D01*
X139524Y370368D01*
X139764Y370947D01*
Y371573D01*
X139524Y372152D01*
X139081Y372595D01*
X138502Y372835D01*
X137876D01*
X137297Y372595D01*
X136854Y372152D01*
X136614Y371573D01*
Y370947D01*
X136854Y370368D01*
X137297Y369925D01*
X137335Y369909D01*
X137257Y369515D01*
X108597D01*
X108187Y369685D01*
X107561D01*
X106982Y369445D01*
X106539Y369002D01*
X106299Y368424D01*
Y367797D01*
X106539Y367218D01*
X106982Y366775D01*
X107561Y366535D01*
X108187D01*
X108597Y366705D01*
X146063D01*
X146601Y366812D01*
X147056Y367117D01*
X149695Y369755D01*
X149936Y369855D01*
X182095D01*
X254146Y297804D01*
Y290920D01*
X253976Y290510D01*
Y289884D01*
X254216Y289305D01*
X254659Y288862D01*
X255238Y288622D01*
X255864D01*
X256443Y288862D01*
X256886Y289305D01*
X257126Y289884D01*
Y290510D01*
X256956Y290920D01*
Y298386D01*
X256849Y298923D01*
X256545Y299379D01*
X183671Y372253D01*
X183215Y372558D01*
X182677Y372665D01*
X149936D01*
X149526Y372835D01*
D02*
G37*
G36*
X31299Y367461D02*
Y364134D01*
X34626D01*
X34377Y365063D01*
X33859Y365961D01*
X33126Y366694D01*
X32228Y367212D01*
X31299Y367461D01*
D02*
G37*
G36*
X21299D02*
Y364134D01*
X24626D01*
X24377Y365063D01*
X23859Y365961D01*
X23126Y366694D01*
X22228Y367212D01*
X21299Y367461D01*
D02*
G37*
G36*
X30118Y367461D02*
X29189Y367212D01*
X28291Y366694D01*
X27558Y365961D01*
X27040Y365063D01*
X26791Y364134D01*
X30118D01*
Y367461D01*
D02*
G37*
G36*
X20118D02*
X19189Y367212D01*
X18291Y366694D01*
X17558Y365961D01*
X17040Y365063D01*
X16791Y364134D01*
X20118D01*
Y367461D01*
D02*
G37*
G36*
X171363Y366326D02*
X170737D01*
X170158Y366086D01*
X169715Y365643D01*
X169475Y365064D01*
Y364438D01*
X169715Y363859D01*
X170158Y363416D01*
X170737Y363176D01*
X171363D01*
X171942Y363416D01*
X172385Y363859D01*
X172625Y364438D01*
Y365064D01*
X172385Y365643D01*
X171942Y366086D01*
X171363Y366326D01*
D02*
G37*
G36*
X519072Y382185D02*
X517149D01*
X515262Y381810D01*
X513485Y381074D01*
X511886Y380005D01*
X510526Y378645D01*
X509458Y377046D01*
X508722Y375269D01*
X508347Y373383D01*
Y371460D01*
X508722Y369573D01*
X509458Y367796D01*
X510526Y366197D01*
X511886Y364837D01*
X513485Y363769D01*
X515262Y363033D01*
X517149Y362657D01*
X519072D01*
X520958Y363033D01*
X522735Y363769D01*
X524334Y364837D01*
X525694Y366197D01*
X526763Y367796D01*
X527499Y369573D01*
X527874Y371460D01*
Y373383D01*
X527499Y375269D01*
X526763Y377046D01*
X525694Y378645D01*
X524334Y380005D01*
X522735Y381074D01*
X520958Y381810D01*
X519072Y382185D01*
D02*
G37*
G36*
X286731Y364370D02*
X286104D01*
X285525Y364130D01*
X285082Y363687D01*
X284842Y363108D01*
Y362482D01*
X285082Y361903D01*
X285525Y361460D01*
X286104Y361221D01*
X286731D01*
X287309Y361460D01*
X287752Y361903D01*
X287992Y362482D01*
Y363108D01*
X287752Y363687D01*
X287309Y364130D01*
X286731Y364370D01*
D02*
G37*
G36*
X172949Y362793D02*
X172322D01*
X171743Y362553D01*
X171300Y362110D01*
X171060Y361531D01*
Y360905D01*
X171300Y360326D01*
X171743Y359883D01*
X172322Y359643D01*
X172949D01*
X173527Y359883D01*
X173970Y360326D01*
X174210Y360905D01*
Y361531D01*
X173970Y362110D01*
X173527Y362553D01*
X172949Y362793D01*
D02*
G37*
G36*
X30118Y362953D02*
X26791D01*
X27040Y362024D01*
X27558Y361126D01*
X28291Y360393D01*
X29189Y359875D01*
X30118Y359626D01*
Y362953D01*
D02*
G37*
G36*
X20118D02*
X16791D01*
X17040Y362024D01*
X17558Y361126D01*
X18291Y360393D01*
X19189Y359875D01*
X20118Y359626D01*
Y362953D01*
D02*
G37*
G36*
X34626D02*
X31299D01*
Y359626D01*
X32228Y359875D01*
X33126Y360393D01*
X33859Y361126D01*
X34377Y362024D01*
X34626Y362953D01*
D02*
G37*
G36*
X24626D02*
X21299D01*
Y359626D01*
X22228Y359875D01*
X23126Y360393D01*
X23859Y361126D01*
X24377Y362024D01*
X24626Y362953D01*
D02*
G37*
G36*
X213305Y361811D02*
X212679D01*
X212100Y361571D01*
X211657Y361128D01*
X211417Y360549D01*
Y359923D01*
X211657Y359344D01*
X212100Y358901D01*
X212679Y358661D01*
X213305D01*
X213884Y358901D01*
X214327Y359344D01*
X214567Y359923D01*
Y360549D01*
X214327Y361128D01*
X213884Y361571D01*
X213305Y361811D01*
D02*
G37*
G36*
X323148Y361024D02*
X322521D01*
X321943Y360784D01*
X321500Y360341D01*
X321260Y359762D01*
Y359136D01*
X321500Y358557D01*
X321943Y358114D01*
X322521Y357874D01*
X323148D01*
X323727Y358114D01*
X324170Y358557D01*
X324410Y359136D01*
Y359762D01*
X324170Y360341D01*
X323727Y360784D01*
X323148Y361024D01*
D02*
G37*
G36*
X283384Y357874D02*
X282758D01*
X282179Y357634D01*
X281736Y357191D01*
X281496Y356612D01*
Y355986D01*
X281736Y355407D01*
X282179Y354964D01*
X282758Y354724D01*
X283384D01*
X283963Y354964D01*
X284406Y355407D01*
X284646Y355986D01*
Y356612D01*
X284406Y357191D01*
X283963Y357634D01*
X283384Y357874D01*
D02*
G37*
G36*
X328266Y357087D02*
X327640D01*
X327061Y356847D01*
X326618Y356404D01*
X326378Y355825D01*
Y355199D01*
X326618Y354620D01*
X327061Y354177D01*
X327640Y353937D01*
X328266D01*
X328845Y354177D01*
X329288Y354620D01*
X329528Y355199D01*
Y355825D01*
X329288Y356404D01*
X328845Y356847D01*
X328266Y357087D01*
D02*
G37*
G36*
X31149Y356890D02*
X30268D01*
X29417Y356662D01*
X28654Y356221D01*
X28031Y355598D01*
X27590Y354835D01*
X27362Y353984D01*
Y353103D01*
X27590Y352252D01*
X28031Y351488D01*
X28654Y350866D01*
X29417Y350425D01*
X30268Y350197D01*
X31149D01*
X32000Y350425D01*
X32763Y350866D01*
X33386Y351488D01*
X33827Y352252D01*
X34055Y353103D01*
Y353984D01*
X33827Y354835D01*
X33386Y355598D01*
X32763Y356221D01*
X32000Y356662D01*
X31149Y356890D01*
D02*
G37*
G36*
X21149D02*
X20268D01*
X19417Y356662D01*
X18654Y356221D01*
X18031Y355598D01*
X17590Y354835D01*
X17362Y353984D01*
Y353103D01*
X17590Y352252D01*
X18031Y351488D01*
X18654Y350866D01*
X19417Y350425D01*
X20268Y350197D01*
X21149D01*
X22000Y350425D01*
X22763Y350866D01*
X23386Y351488D01*
X23827Y352252D01*
X24055Y353103D01*
Y353984D01*
X23827Y354835D01*
X23386Y355598D01*
X22763Y356221D01*
X22000Y356662D01*
X21149Y356890D01*
D02*
G37*
G36*
X362912Y352854D02*
X362285D01*
X361706Y352615D01*
X361263Y352172D01*
X361024Y351593D01*
Y350966D01*
X361263Y350388D01*
X361706Y349944D01*
X362285Y349705D01*
X362912D01*
X363491Y349944D01*
X363933Y350388D01*
X364173Y350966D01*
Y351593D01*
X363933Y352172D01*
X363491Y352615D01*
X362912Y352854D01*
D02*
G37*
G36*
X195983Y352362D02*
X195356D01*
X194777Y352122D01*
X194334Y351679D01*
X194095Y351101D01*
Y350474D01*
X194334Y349895D01*
X194777Y349452D01*
X195356Y349213D01*
X195983D01*
X196561Y349452D01*
X197004Y349895D01*
X197244Y350474D01*
Y351101D01*
X197004Y351679D01*
X196561Y352122D01*
X195983Y352362D01*
D02*
G37*
G36*
X119998D02*
X119372D01*
X118793Y352122D01*
X118350Y351679D01*
X118110Y351101D01*
Y350474D01*
X118350Y349895D01*
X118793Y349452D01*
X119372Y349213D01*
X119998D01*
X120577Y349452D01*
X121020Y349895D01*
X121260Y350474D01*
Y351101D01*
X121020Y351679D01*
X120577Y352122D01*
X119998Y352362D01*
D02*
G37*
G36*
X178842Y352151D02*
X178216D01*
X177637Y351911D01*
X177194Y351468D01*
X176954Y350889D01*
Y350263D01*
X177194Y349684D01*
X177637Y349241D01*
X178216Y349001D01*
X178842D01*
X179421Y349241D01*
X179864Y349684D01*
X180104Y350263D01*
Y350889D01*
X179864Y351468D01*
X179421Y351911D01*
X178842Y352151D01*
D02*
G37*
G36*
X138502Y350000D02*
X137876D01*
X137297Y349760D01*
X136854Y349317D01*
X136614Y348739D01*
Y348112D01*
X136854Y347533D01*
X137297Y347090D01*
X137876Y346850D01*
X138502D01*
X139081Y347090D01*
X139524Y347533D01*
X139764Y348112D01*
Y348739D01*
X139524Y349317D01*
X139081Y349760D01*
X138502Y350000D01*
D02*
G37*
G36*
X149526Y350000D02*
X148899D01*
X148321Y349760D01*
X147878Y349317D01*
X147638Y348739D01*
Y348112D01*
X147878Y347533D01*
X148321Y347090D01*
X148899Y346850D01*
X149526D01*
X150105Y347090D01*
X150548Y347533D01*
X150787Y348112D01*
Y348739D01*
X150548Y349317D01*
X150105Y349760D01*
X149526Y350000D01*
D02*
G37*
G36*
X180631Y348822D02*
X180005D01*
X179426Y348582D01*
X178983Y348139D01*
X178743Y347560D01*
Y346934D01*
X178983Y346355D01*
X179426Y345912D01*
X180005Y345672D01*
X180631D01*
X181210Y345912D01*
X181653Y346355D01*
X181893Y346934D01*
Y347560D01*
X181653Y348139D01*
X181210Y348582D01*
X180631Y348822D01*
D02*
G37*
G36*
X31299Y347461D02*
Y344134D01*
X34626D01*
X34377Y345063D01*
X33859Y345961D01*
X33126Y346694D01*
X32228Y347212D01*
X31299Y347461D01*
D02*
G37*
G36*
X21299D02*
Y344134D01*
X24626D01*
X24377Y345063D01*
X23859Y345961D01*
X23126Y346694D01*
X22228Y347212D01*
X21299Y347461D01*
D02*
G37*
G36*
X30118Y347461D02*
X29189Y347212D01*
X28291Y346694D01*
X27558Y345961D01*
X27040Y345063D01*
X26791Y344134D01*
X30118D01*
Y347461D01*
D02*
G37*
G36*
X20118D02*
X19189Y347212D01*
X18291Y346694D01*
X17558Y345961D01*
X17040Y345063D01*
X16791Y344134D01*
X20118D01*
Y347461D01*
D02*
G37*
G36*
X263699Y345669D02*
X263073D01*
X262494Y345429D01*
X262051Y344987D01*
X261811Y344408D01*
Y343781D01*
X262051Y343202D01*
X262494Y342759D01*
X263073Y342520D01*
X263699D01*
X264278Y342759D01*
X264721Y343202D01*
X264961Y343781D01*
Y344408D01*
X264721Y344987D01*
X264278Y345429D01*
X263699Y345669D01*
D02*
G37*
G36*
X182849Y345528D02*
X182223D01*
X181644Y345288D01*
X181201Y344845D01*
X180961Y344267D01*
Y343640D01*
X181201Y343061D01*
X181644Y342618D01*
X182223Y342378D01*
X182849D01*
X183428Y342618D01*
X183871Y343061D01*
X184111Y343640D01*
Y344267D01*
X183871Y344845D01*
X183428Y345288D01*
X182849Y345528D01*
D02*
G37*
G36*
X252676Y344882D02*
X252049D01*
X251470Y344642D01*
X251027Y344199D01*
X250787Y343620D01*
Y342994D01*
X251027Y342415D01*
X251470Y341972D01*
X252049Y341732D01*
X252676D01*
X253254Y341972D01*
X253697Y342415D01*
X253937Y342994D01*
Y343620D01*
X253697Y344199D01*
X253254Y344642D01*
X252676Y344882D01*
D02*
G37*
G36*
X516240Y348760D02*
X508799D01*
Y341319D01*
X516240D01*
Y348760D01*
D02*
G37*
G36*
X30118Y342953D02*
X26791D01*
X27040Y342024D01*
X27558Y341126D01*
X28291Y340393D01*
X29189Y339875D01*
X30118Y339626D01*
Y342953D01*
D02*
G37*
G36*
X20118D02*
X16791D01*
X17040Y342024D01*
X17558Y341126D01*
X18291Y340393D01*
X19189Y339875D01*
X20118Y339626D01*
Y342953D01*
D02*
G37*
G36*
X34626D02*
X31299D01*
Y339626D01*
X32228Y339875D01*
X33126Y340393D01*
X33859Y341126D01*
X34377Y342024D01*
X34626Y342953D01*
D02*
G37*
G36*
X24626D02*
X21299D01*
Y339626D01*
X22228Y339875D01*
X23126Y340393D01*
X23859Y341126D01*
X24377Y342024D01*
X24626Y342953D01*
D02*
G37*
G36*
X138502Y341339D02*
X137876D01*
X137297Y341099D01*
X136854Y340656D01*
X136614Y340077D01*
Y339451D01*
X136854Y338872D01*
X137297Y338429D01*
X137876Y338189D01*
X138502D01*
X139081Y338429D01*
X139524Y338872D01*
X139764Y339451D01*
Y340077D01*
X139524Y340656D01*
X139081Y341099D01*
X138502Y341339D01*
D02*
G37*
G36*
X182990Y340945D02*
X182364D01*
X181785Y340705D01*
X181342Y340262D01*
X181102Y339683D01*
Y339057D01*
X181342Y338478D01*
X181785Y338035D01*
X182364Y337795D01*
X182990D01*
X183569Y338035D01*
X184012Y338478D01*
X184252Y339057D01*
Y339683D01*
X184012Y340262D01*
X183569Y340705D01*
X182990Y340945D01*
D02*
G37*
G36*
X524191Y343307D02*
X523211D01*
X522265Y343054D01*
X521416Y342564D01*
X520724Y341871D01*
X520234Y341023D01*
X519980Y340076D01*
Y339097D01*
X520234Y338151D01*
X520724Y337302D01*
X521416Y336610D01*
X522265Y336120D01*
X523211Y335866D01*
X524191D01*
X525137Y336120D01*
X525985Y336610D01*
X526678Y337302D01*
X527168Y338151D01*
X527421Y339097D01*
Y340076D01*
X527168Y341023D01*
X526678Y341871D01*
X525985Y342564D01*
X525137Y343054D01*
X524191Y343307D01*
D02*
G37*
G36*
X414880Y334646D02*
X414254D01*
X413675Y334406D01*
X413232Y333963D01*
X412992Y333384D01*
Y332758D01*
X413232Y332179D01*
X413675Y331736D01*
X414254Y331496D01*
X414880D01*
X415459Y331736D01*
X415902Y332179D01*
X416142Y332758D01*
Y333384D01*
X415902Y333963D01*
X415459Y334406D01*
X414880Y334646D01*
D02*
G37*
G36*
X188502D02*
X187876D01*
X187297Y334406D01*
X186854Y333963D01*
X186614Y333384D01*
Y332758D01*
X186854Y332179D01*
X187297Y331736D01*
X187876Y331496D01*
X188502D01*
X189081Y331736D01*
X189524Y332179D01*
X189764Y332758D01*
Y333384D01*
X189524Y333963D01*
X189081Y334406D01*
X188502Y334646D01*
D02*
G37*
G36*
X513010Y337854D02*
X512030D01*
X511084Y337601D01*
X510235Y337111D01*
X509543Y336418D01*
X509053Y335570D01*
X508799Y334624D01*
Y333644D01*
X509053Y332698D01*
X509543Y331849D01*
X510235Y331157D01*
X511084Y330667D01*
X512030Y330413D01*
X513010D01*
X513956Y330667D01*
X514804Y331157D01*
X515497Y331849D01*
X515987Y332698D01*
X516240Y333644D01*
Y334624D01*
X515987Y335570D01*
X515497Y336418D01*
X514804Y337111D01*
X513956Y337601D01*
X513010Y337854D01*
D02*
G37*
G36*
X31149Y336890D02*
X30268D01*
X29417Y336662D01*
X28654Y336221D01*
X28031Y335598D01*
X27590Y334835D01*
X27362Y333984D01*
Y333103D01*
X27590Y332252D01*
X28031Y331488D01*
X28654Y330866D01*
X29417Y330425D01*
X30268Y330197D01*
X31149D01*
X32000Y330425D01*
X32763Y330866D01*
X33386Y331488D01*
X33827Y332252D01*
X34055Y333103D01*
Y333984D01*
X33827Y334835D01*
X33386Y335598D01*
X32763Y336221D01*
X32000Y336662D01*
X31149Y336890D01*
D02*
G37*
G36*
X21149D02*
X20268D01*
X19417Y336662D01*
X18654Y336221D01*
X18031Y335598D01*
X17590Y334835D01*
X17362Y333984D01*
Y333103D01*
X17590Y332252D01*
X18031Y331488D01*
X18654Y330866D01*
X19417Y330425D01*
X20268Y330197D01*
X21149D01*
X22000Y330425D01*
X22763Y330866D01*
X23386Y331488D01*
X23827Y332252D01*
X24055Y333103D01*
Y333984D01*
X23827Y334835D01*
X23386Y335598D01*
X22763Y336221D01*
X22000Y336662D01*
X21149Y336890D01*
D02*
G37*
G36*
X211466Y331367D02*
X210840D01*
X210261Y331127D01*
X209818Y330684D01*
X209578Y330105D01*
Y329479D01*
X209818Y328900D01*
X210261Y328457D01*
X210840Y328217D01*
X211466D01*
X212045Y328457D01*
X212488Y328900D01*
X212728Y329479D01*
Y330105D01*
X212488Y330684D01*
X212045Y331127D01*
X211466Y331367D01*
D02*
G37*
G36*
X364487Y328740D02*
X363860D01*
X363281Y328500D01*
X362838Y328057D01*
X362598Y327479D01*
Y326852D01*
X362838Y326273D01*
X363281Y325830D01*
X363860Y325590D01*
X364487D01*
X365065Y325830D01*
X365508Y326273D01*
X365748Y326852D01*
Y327479D01*
X365508Y328057D01*
X365065Y328500D01*
X364487Y328740D01*
D02*
G37*
G36*
X524191Y332402D02*
X523211D01*
X522265Y332148D01*
X521416Y331658D01*
X520724Y330965D01*
X520234Y330117D01*
X519980Y329171D01*
Y328191D01*
X520234Y327245D01*
X520724Y326397D01*
X521416Y325704D01*
X522265Y325214D01*
X523211Y324961D01*
X524191D01*
X525137Y325214D01*
X525985Y325704D01*
X526678Y326397D01*
X527168Y327245D01*
X527421Y328191D01*
Y329171D01*
X527168Y330117D01*
X526678Y330965D01*
X525985Y331658D01*
X525137Y332148D01*
X524191Y332402D01*
D02*
G37*
G36*
X31299Y327461D02*
Y324134D01*
X34626D01*
X34377Y325063D01*
X33859Y325961D01*
X33126Y326694D01*
X32228Y327212D01*
X31299Y327461D01*
D02*
G37*
G36*
X21299D02*
Y324134D01*
X24626D01*
X24377Y325063D01*
X23859Y325961D01*
X23126Y326694D01*
X22228Y327212D01*
X21299Y327461D01*
D02*
G37*
G36*
X30118Y327461D02*
X29189Y327212D01*
X28291Y326694D01*
X27558Y325961D01*
X27040Y325063D01*
X26791Y324134D01*
X30118D01*
Y327461D01*
D02*
G37*
G36*
X20118D02*
X19189Y327212D01*
X18291Y326694D01*
X17558Y325961D01*
X17040Y325063D01*
X16791Y324134D01*
X20118D01*
Y327461D01*
D02*
G37*
G36*
X30118Y322953D02*
X26791D01*
X27040Y322024D01*
X27558Y321126D01*
X28291Y320393D01*
X29189Y319875D01*
X30118Y319626D01*
Y322953D01*
D02*
G37*
G36*
X20118D02*
X16791D01*
X17040Y322024D01*
X17558Y321126D01*
X18291Y320393D01*
X19189Y319875D01*
X20118Y319626D01*
Y322953D01*
D02*
G37*
G36*
X34626D02*
X31299D01*
Y319626D01*
X32228Y319875D01*
X33126Y320393D01*
X33859Y321126D01*
X34377Y322024D01*
X34626Y322953D01*
D02*
G37*
G36*
X24626D02*
X21299D01*
Y319626D01*
X22228Y319875D01*
X23126Y320393D01*
X23859Y321126D01*
X24377Y322024D01*
X24626Y322953D01*
D02*
G37*
G36*
X513010Y326949D02*
X512030D01*
X511084Y326695D01*
X510235Y326205D01*
X509543Y325513D01*
X509053Y324664D01*
X508799Y323718D01*
Y322739D01*
X509053Y321792D01*
X509543Y320944D01*
X510235Y320251D01*
X511084Y319761D01*
X512030Y319508D01*
X513010D01*
X513956Y319761D01*
X514804Y320251D01*
X515497Y320944D01*
X515987Y321792D01*
X516240Y322739D01*
Y323718D01*
X515987Y324664D01*
X515497Y325513D01*
X514804Y326205D01*
X513956Y326695D01*
X513010Y326949D01*
D02*
G37*
G36*
X344014Y322047D02*
X343388D01*
X342809Y321808D01*
X342366Y321364D01*
X342126Y320786D01*
Y320159D01*
X342366Y319580D01*
X342809Y319137D01*
X343388Y318898D01*
X344014D01*
X344593Y319137D01*
X345036Y319580D01*
X345276Y320159D01*
Y320786D01*
X345036Y321364D01*
X344593Y321808D01*
X344014Y322047D01*
D02*
G37*
G36*
X315274D02*
X314647D01*
X314069Y321808D01*
X313626Y321364D01*
X313386Y320786D01*
Y320159D01*
X313626Y319580D01*
X314069Y319137D01*
X314647Y318898D01*
X315274D01*
X315853Y319137D01*
X316296Y319580D01*
X316535Y320159D01*
Y320786D01*
X316296Y321364D01*
X315853Y321808D01*
X315274Y322047D01*
D02*
G37*
G36*
X462124Y321260D02*
X461498D01*
X460919Y321020D01*
X460476Y320577D01*
X460236Y319998D01*
Y319372D01*
X460476Y318793D01*
X460919Y318350D01*
X461498Y318110D01*
X462124D01*
X462703Y318350D01*
X463146Y318793D01*
X463386Y319372D01*
Y319998D01*
X463146Y320577D01*
X462703Y321020D01*
X462124Y321260D01*
D02*
G37*
G36*
X413896Y320276D02*
X413269D01*
X412691Y320036D01*
X412248Y319593D01*
X412008Y319014D01*
Y318388D01*
X412248Y317809D01*
X412691Y317366D01*
X413269Y317126D01*
X413896D01*
X414475Y317366D01*
X414918Y317809D01*
X415158Y318388D01*
Y319014D01*
X414918Y319593D01*
X414475Y320036D01*
X413896Y320276D01*
D02*
G37*
G36*
X455825Y320079D02*
X455199D01*
X454620Y319839D01*
X454177Y319396D01*
X453937Y318817D01*
Y318191D01*
X454177Y317612D01*
X454620Y317169D01*
X455199Y316929D01*
X455825D01*
X456404Y317169D01*
X456847Y317612D01*
X457087Y318191D01*
Y318817D01*
X456847Y319396D01*
X456404Y319839D01*
X455825Y320079D01*
D02*
G37*
G36*
X382203Y318110D02*
X381576D01*
X380998Y317870D01*
X380555Y317427D01*
X380315Y316849D01*
Y316222D01*
X380555Y315643D01*
X380998Y315200D01*
X381576Y314961D01*
X382203D01*
X382782Y315200D01*
X383225Y315643D01*
X383465Y316222D01*
Y316849D01*
X383225Y317427D01*
X382782Y317870D01*
X382203Y318110D01*
D02*
G37*
G36*
X524191Y321496D02*
X523211D01*
X522265Y321242D01*
X521416Y320753D01*
X520724Y320060D01*
X520234Y319212D01*
X519980Y318265D01*
Y317286D01*
X520234Y316340D01*
X520724Y315491D01*
X521416Y314798D01*
X522265Y314309D01*
X523211Y314055D01*
X524191D01*
X525137Y314309D01*
X525985Y314798D01*
X526678Y315491D01*
X527168Y316340D01*
X527421Y317286D01*
Y318265D01*
X527168Y319212D01*
X526678Y320060D01*
X525985Y320753D01*
X525137Y321242D01*
X524191Y321496D01*
D02*
G37*
G36*
X131613Y313976D02*
X130986D01*
X130407Y313737D01*
X129964Y313294D01*
X129724Y312715D01*
Y312088D01*
X129964Y311509D01*
X130407Y311067D01*
X130986Y310827D01*
X131613D01*
X132191Y311067D01*
X132634Y311509D01*
X132874Y312088D01*
Y312715D01*
X132634Y313294D01*
X132191Y313737D01*
X131613Y313976D01*
D02*
G37*
G36*
X34055Y316890D02*
X27362D01*
Y310197D01*
X34055D01*
Y316890D01*
D02*
G37*
G36*
X21149D02*
X20268D01*
X19417Y316662D01*
X18654Y316221D01*
X18031Y315598D01*
X17590Y314835D01*
X17362Y313984D01*
Y313103D01*
X17590Y312252D01*
X18031Y311489D01*
X18654Y310865D01*
X19417Y310425D01*
X20268Y310197D01*
X21149D01*
X22000Y310425D01*
X22763Y310865D01*
X23386Y311489D01*
X23827Y312252D01*
X24055Y313103D01*
Y313984D01*
X23827Y314835D01*
X23386Y315598D01*
X22763Y316221D01*
X22000Y316662D01*
X21149Y316890D01*
D02*
G37*
G36*
X141652Y310236D02*
X141025D01*
X140446Y309997D01*
X140004Y309554D01*
X139977Y309489D01*
X139551D01*
X139524Y309554D01*
X139081Y309997D01*
X138502Y310236D01*
X137876D01*
X137297Y309997D01*
X136854Y309554D01*
X136614Y308975D01*
Y308348D01*
X136854Y307769D01*
X137297Y307326D01*
X137876Y307087D01*
X138502D01*
X139081Y307326D01*
X139524Y307769D01*
X139551Y307834D01*
X139977D01*
X140004Y307769D01*
X140446Y307326D01*
X141025Y307087D01*
X141652D01*
X142231Y307326D01*
X142674Y307769D01*
X142913Y308348D01*
Y308975D01*
X142674Y309554D01*
X142231Y309997D01*
X141652Y310236D01*
D02*
G37*
G36*
X513010Y316043D02*
X512030D01*
X511084Y315790D01*
X510235Y315300D01*
X509543Y314607D01*
X509053Y313759D01*
X508799Y312813D01*
Y311833D01*
X509053Y310887D01*
X509543Y310038D01*
X510235Y309346D01*
X511084Y308856D01*
X512030Y308602D01*
X513010D01*
X513956Y308856D01*
X514804Y309346D01*
X515497Y310038D01*
X515987Y310887D01*
X516240Y311833D01*
Y312813D01*
X515987Y313759D01*
X515497Y314607D01*
X514804Y315300D01*
X513956Y315790D01*
X513010Y316043D01*
D02*
G37*
G36*
X382203Y310236D02*
X381576D01*
X380998Y309997D01*
X380555Y309554D01*
X380315Y308975D01*
Y308348D01*
X380555Y307769D01*
X380998Y307326D01*
X381576Y307087D01*
X382203D01*
X382782Y307326D01*
X383225Y307769D01*
X383465Y308348D01*
Y308975D01*
X383225Y309554D01*
X382782Y309997D01*
X382203Y310236D01*
D02*
G37*
G36*
X201101Y308661D02*
X200474D01*
X199895Y308422D01*
X199452Y307979D01*
X199213Y307400D01*
Y306773D01*
X199452Y306195D01*
X199895Y305752D01*
X200474Y305512D01*
X201101D01*
X201679Y305752D01*
X202122Y306195D01*
X202362Y306773D01*
Y307400D01*
X202122Y307979D01*
X201679Y308422D01*
X201101Y308661D01*
D02*
G37*
G36*
X116455Y307874D02*
X115829D01*
X115250Y307634D01*
X114807Y307191D01*
X114567Y306612D01*
Y305986D01*
X114807Y305407D01*
X115250Y304964D01*
X115829Y304724D01*
X116455D01*
X117034Y304964D01*
X117477Y305407D01*
X117717Y305986D01*
Y306612D01*
X117477Y307191D01*
X117034Y307634D01*
X116455Y307874D01*
D02*
G37*
G36*
X197033Y306563D02*
X196407D01*
X195828Y306323D01*
X195385Y305880D01*
X195145Y305301D01*
Y304675D01*
X195385Y304096D01*
X195828Y303653D01*
X196407Y303413D01*
X197033D01*
X197612Y303653D01*
X198055Y304096D01*
X198295Y304675D01*
Y305301D01*
X198055Y305880D01*
X197612Y306323D01*
X197033Y306563D01*
D02*
G37*
G36*
X524191Y310591D02*
X523211D01*
X522265Y310337D01*
X521416Y309847D01*
X520724Y309155D01*
X520234Y308306D01*
X519980Y307360D01*
Y306380D01*
X520234Y305434D01*
X520724Y304586D01*
X521416Y303893D01*
X522265Y303403D01*
X523211Y303150D01*
X524191D01*
X525137Y303403D01*
X525985Y303893D01*
X526678Y304586D01*
X527168Y305434D01*
X527421Y306380D01*
Y307360D01*
X527168Y308306D01*
X526678Y309155D01*
X525985Y309847D01*
X525137Y310337D01*
X524191Y310591D01*
D02*
G37*
G36*
X414902Y305906D02*
X414276D01*
X413697Y305666D01*
X413254Y305223D01*
X413014Y304644D01*
Y304017D01*
X413254Y303439D01*
X413697Y302996D01*
X414276Y302756D01*
X414902D01*
X415481Y302996D01*
X415924Y303439D01*
X416164Y304017D01*
Y304644D01*
X415924Y305223D01*
X415481Y305666D01*
X414902Y305906D01*
D02*
G37*
G36*
X73148Y304634D02*
X72521D01*
X71943Y304394D01*
X71500Y303951D01*
X71260Y303372D01*
Y302746D01*
X71500Y302167D01*
X71943Y301724D01*
X72521Y301484D01*
X73148D01*
X73727Y301724D01*
X74170Y302167D01*
X74410Y302746D01*
Y303372D01*
X74170Y303951D01*
X73727Y304394D01*
X73148Y304634D01*
D02*
G37*
G36*
X441258Y302756D02*
X440632D01*
X440053Y302516D01*
X439610Y302073D01*
X439370Y301494D01*
Y300868D01*
X439610Y300289D01*
X440053Y299846D01*
X440632Y299606D01*
X441258D01*
X441837Y299846D01*
X442280Y300289D01*
X442520Y300868D01*
Y301494D01*
X442280Y302073D01*
X441837Y302516D01*
X441258Y302756D01*
D02*
G37*
G36*
X382203D02*
X381576D01*
X380998Y302516D01*
X380555Y302073D01*
X380315Y301494D01*
Y300868D01*
X380555Y300289D01*
X380998Y299846D01*
X381576Y299606D01*
X382203D01*
X382782Y299846D01*
X383225Y300289D01*
X383465Y300868D01*
Y301494D01*
X383225Y302073D01*
X382782Y302516D01*
X382203Y302756D01*
D02*
G37*
G36*
X455825Y302362D02*
X455199D01*
X454620Y302122D01*
X454177Y301679D01*
X453937Y301101D01*
Y300474D01*
X454177Y299895D01*
X454620Y299452D01*
X455199Y299213D01*
X455825D01*
X456404Y299452D01*
X456847Y299895D01*
X457087Y300474D01*
Y301101D01*
X456847Y301679D01*
X456404Y302122D01*
X455825Y302362D01*
D02*
G37*
G36*
X149526D02*
X148899D01*
X148321Y302122D01*
X147878Y301679D01*
X147638Y301101D01*
Y300474D01*
X147878Y299895D01*
X148321Y299452D01*
X148899Y299213D01*
X149526D01*
X150105Y299452D01*
X150548Y299895D01*
X150787Y300474D01*
Y301101D01*
X150548Y301679D01*
X150105Y302122D01*
X149526Y302362D01*
D02*
G37*
G36*
X145195D02*
X144569D01*
X143990Y302122D01*
X143547Y301679D01*
X143307Y301101D01*
Y300474D01*
X143547Y299895D01*
X143990Y299452D01*
X144569Y299213D01*
X145195D01*
X145774Y299452D01*
X146217Y299895D01*
X146457Y300474D01*
Y301101D01*
X146217Y301679D01*
X145774Y302122D01*
X145195Y302362D01*
D02*
G37*
G36*
X86534Y301181D02*
X85907D01*
X85328Y300941D01*
X84885Y300498D01*
X84646Y299920D01*
Y299293D01*
X84885Y298714D01*
X85328Y298271D01*
X85907Y298031D01*
X86534D01*
X87112Y298271D01*
X87555Y298714D01*
X87795Y299293D01*
Y299920D01*
X87555Y300498D01*
X87112Y300941D01*
X86534Y301181D01*
D02*
G37*
G36*
X513010Y305138D02*
X512030D01*
X511084Y304884D01*
X510235Y304395D01*
X509543Y303702D01*
X509053Y302853D01*
X508799Y301907D01*
Y300927D01*
X509053Y299981D01*
X509543Y299133D01*
X510235Y298440D01*
X511084Y297950D01*
X512030Y297697D01*
X513010D01*
X513956Y297950D01*
X514804Y298440D01*
X515497Y299133D01*
X515987Y299981D01*
X516240Y300927D01*
Y301907D01*
X515987Y302853D01*
X515497Y303702D01*
X514804Y304395D01*
X513956Y304884D01*
X513010Y305138D01*
D02*
G37*
G36*
X317144Y300295D02*
X316517D01*
X315939Y300056D01*
X315496Y299612D01*
X315256Y299034D01*
Y298407D01*
X315496Y297828D01*
X315939Y297385D01*
X316517Y297146D01*
X317144D01*
X317723Y297385D01*
X318166Y297828D01*
X318406Y298407D01*
Y299034D01*
X318166Y299612D01*
X317723Y300056D01*
X317144Y300295D01*
D02*
G37*
G36*
X365274Y298327D02*
X364647D01*
X364069Y298087D01*
X363626Y297644D01*
X363386Y297065D01*
Y296439D01*
X363626Y295860D01*
X364069Y295417D01*
X364647Y295177D01*
X365274D01*
X365853Y295417D01*
X366296Y295860D01*
X366535Y296439D01*
Y297065D01*
X366296Y297644D01*
X365853Y298087D01*
X365274Y298327D01*
D02*
G37*
G36*
X32990Y296063D02*
X32364D01*
X31785Y295823D01*
X31342Y295380D01*
X31102Y294801D01*
Y294175D01*
X31342Y293596D01*
X31785Y293153D01*
X32364Y292913D01*
X32990D01*
X33569Y293153D01*
X34012Y293596D01*
X34252Y294175D01*
Y294801D01*
X34012Y295380D01*
X33569Y295823D01*
X32990Y296063D01*
D02*
G37*
G36*
X338502Y295669D02*
X337876D01*
X337297Y295429D01*
X336854Y294987D01*
X336614Y294408D01*
Y293781D01*
X336854Y293202D01*
X337297Y292759D01*
X337876Y292520D01*
X338502D01*
X339081Y292759D01*
X339524Y293202D01*
X339764Y293781D01*
Y294408D01*
X339524Y294987D01*
X339081Y295429D01*
X338502Y295669D01*
D02*
G37*
G36*
X185353D02*
X184726D01*
X184147Y295429D01*
X183704Y294987D01*
X183465Y294408D01*
Y293781D01*
X183704Y293202D01*
X184147Y292759D01*
X184726Y292520D01*
X185353D01*
X185931Y292759D01*
X186374Y293202D01*
X186614Y293781D01*
Y294408D01*
X186374Y294987D01*
X185931Y295429D01*
X185353Y295669D01*
D02*
G37*
G36*
X113699Y295276D02*
X113073D01*
X112494Y295036D01*
X112051Y294593D01*
X111811Y294014D01*
Y293388D01*
X112051Y292809D01*
X112494Y292366D01*
X113073Y292126D01*
X113699D01*
X114278Y292366D01*
X114721Y292809D01*
X114961Y293388D01*
Y294014D01*
X114721Y294593D01*
X114278Y295036D01*
X113699Y295276D01*
D02*
G37*
G36*
X199132Y293701D02*
X198506D01*
X197927Y293461D01*
X197484Y293018D01*
X197244Y292439D01*
Y291813D01*
X197484Y291234D01*
X197927Y290791D01*
X198506Y290551D01*
X199132D01*
X199711Y290791D01*
X200154Y291234D01*
X200394Y291813D01*
Y292439D01*
X200154Y293018D01*
X199711Y293461D01*
X199132Y293701D01*
D02*
G37*
G36*
X333384Y293701D02*
X332758D01*
X332179Y293461D01*
X331736Y293018D01*
X331496Y292439D01*
Y291813D01*
X331736Y291234D01*
X332179Y290791D01*
X332758Y290551D01*
X333384D01*
X333963Y290791D01*
X334406Y291234D01*
X334646Y291813D01*
Y292439D01*
X334406Y293018D01*
X333963Y293461D01*
X333384Y293701D01*
D02*
G37*
G36*
X158975D02*
X158348D01*
X157769Y293461D01*
X157326Y293018D01*
X157087Y292439D01*
Y291813D01*
X157326Y291234D01*
X157769Y290791D01*
X158348Y290551D01*
X158975D01*
X159554Y290791D01*
X159996Y291234D01*
X160236Y291813D01*
Y292439D01*
X159996Y293018D01*
X159554Y293461D01*
X158975Y293701D01*
D02*
G37*
G36*
X127872D02*
X127246D01*
X126667Y293461D01*
X126224Y293018D01*
X125984Y292439D01*
Y291813D01*
X126224Y291234D01*
X126667Y290791D01*
X127246Y290551D01*
X127872D01*
X128451Y290791D01*
X128894Y291234D01*
X129134Y291813D01*
Y292439D01*
X128894Y293018D01*
X128451Y293461D01*
X127872Y293701D01*
D02*
G37*
G36*
X327479Y293307D02*
X326852D01*
X326273Y293067D01*
X325830Y292624D01*
X325590Y292045D01*
Y291419D01*
X325830Y290840D01*
X326273Y290397D01*
X326852Y290158D01*
X327479D01*
X328057Y290397D01*
X328500Y290840D01*
X328740Y291419D01*
Y292045D01*
X328500Y292624D01*
X328057Y293067D01*
X327479Y293307D01*
D02*
G37*
G36*
X177085Y290158D02*
X176458D01*
X175880Y289918D01*
X175437Y289475D01*
X175197Y288896D01*
Y288269D01*
X175437Y287691D01*
X175880Y287248D01*
X176458Y287008D01*
X177085D01*
X177664Y287248D01*
X178107Y287691D01*
X178347Y288269D01*
Y288896D01*
X178107Y289475D01*
X177664Y289918D01*
X177085Y290158D01*
D02*
G37*
G36*
X307794Y287795D02*
X307167D01*
X306588Y287556D01*
X306145Y287112D01*
X305906Y286534D01*
Y285907D01*
X306145Y285328D01*
X306588Y284885D01*
X307167Y284646D01*
X307794D01*
X308372Y284885D01*
X308815Y285328D01*
X309055Y285907D01*
Y286534D01*
X308815Y287112D01*
X308372Y287556D01*
X307794Y287795D01*
D02*
G37*
G36*
X84565Y286221D02*
X83939D01*
X83360Y285981D01*
X82917Y285538D01*
X82677Y284959D01*
Y284332D01*
X82917Y283754D01*
X83360Y283311D01*
X83939Y283071D01*
X84565D01*
X85144Y283311D01*
X85587Y283754D01*
X85827Y284332D01*
Y284959D01*
X85587Y285538D01*
X85144Y285981D01*
X84565Y286221D01*
D02*
G37*
G36*
X338502Y284252D02*
X337876D01*
X337297Y284012D01*
X336854Y283569D01*
X336614Y282990D01*
Y282364D01*
X336854Y281785D01*
X337297Y281342D01*
X337876Y281102D01*
X338502D01*
X339081Y281342D01*
X339524Y281785D01*
X339764Y282364D01*
Y282990D01*
X339524Y283569D01*
X339081Y284012D01*
X338502Y284252D01*
D02*
G37*
G36*
X185353Y283071D02*
X184726D01*
X184147Y282831D01*
X183704Y282388D01*
X183465Y281809D01*
Y281183D01*
X183704Y280604D01*
X184147Y280161D01*
X184726Y279921D01*
X185353D01*
X185931Y280161D01*
X186374Y280604D01*
X186614Y281183D01*
Y281809D01*
X186374Y282388D01*
X185931Y282831D01*
X185353Y283071D01*
D02*
G37*
G36*
X67242Y278346D02*
X66616D01*
X66037Y278107D01*
X65594Y277664D01*
X65354Y277085D01*
Y276458D01*
X65594Y275880D01*
X66037Y275437D01*
X66616Y275197D01*
X67242D01*
X67821Y275437D01*
X68264Y275880D01*
X68504Y276458D01*
Y277085D01*
X68264Y277664D01*
X67821Y278107D01*
X67242Y278346D01*
D02*
G37*
G36*
X519072Y283799D02*
X517149D01*
X515262Y283424D01*
X513485Y282688D01*
X511886Y281620D01*
X510526Y280259D01*
X509458Y278660D01*
X508722Y276883D01*
X508347Y274997D01*
Y273074D01*
X508722Y271187D01*
X509458Y269411D01*
X510526Y267811D01*
X511886Y266451D01*
X513485Y265383D01*
X515262Y264647D01*
X517149Y264272D01*
X519072D01*
X520958Y264647D01*
X522735Y265383D01*
X524334Y266451D01*
X525694Y267811D01*
X526763Y269411D01*
X527499Y271187D01*
X527874Y273074D01*
Y274997D01*
X527499Y276883D01*
X526763Y278660D01*
X525694Y280259D01*
X524334Y281620D01*
X522735Y282688D01*
X520958Y283424D01*
X519072Y283799D01*
D02*
G37*
G36*
X81416Y267323D02*
X80789D01*
X80210Y267083D01*
X79767Y266640D01*
X79528Y266061D01*
Y265435D01*
X79767Y264856D01*
X80210Y264413D01*
X80789Y264173D01*
X81416D01*
X81994Y264413D01*
X82437Y264856D01*
X82677Y265435D01*
Y266061D01*
X82437Y266640D01*
X81994Y267083D01*
X81416Y267323D01*
D02*
G37*
G36*
X105038Y264961D02*
X104411D01*
X103832Y264721D01*
X103389Y264278D01*
X103150Y263699D01*
Y263073D01*
X103389Y262494D01*
X103832Y262051D01*
X104411Y261811D01*
X105038D01*
X105616Y262051D01*
X106060Y262494D01*
X106299Y263073D01*
Y263699D01*
X106060Y264278D01*
X105616Y264721D01*
X105038Y264961D01*
D02*
G37*
G36*
X257794Y259055D02*
X257167D01*
X256588Y258815D01*
X256145Y258372D01*
X255906Y257794D01*
Y257167D01*
X256145Y256588D01*
X256588Y256145D01*
X257167Y255906D01*
X257794D01*
X258372Y256145D01*
X258815Y256588D01*
X259055Y257167D01*
Y257794D01*
X258815Y258372D01*
X258372Y258815D01*
X257794Y259055D01*
D02*
G37*
G36*
X134171D02*
X133545D01*
X132966Y258815D01*
X132523Y258372D01*
X132283Y257794D01*
Y257167D01*
X132523Y256588D01*
X132966Y256145D01*
X133545Y255906D01*
X134171D01*
X134750Y256145D01*
X135193Y256588D01*
X135433Y257167D01*
Y257794D01*
X135193Y258372D01*
X134750Y258815D01*
X134171Y259055D01*
D02*
G37*
G36*
X-37088Y256693D02*
X-37715D01*
X-38294Y256453D01*
X-38737Y256010D01*
X-38976Y255431D01*
Y254805D01*
X-38737Y254226D01*
X-38294Y253783D01*
X-37715Y253543D01*
X-37088D01*
X-36509Y253783D01*
X-36066Y254226D01*
X-35827Y254805D01*
Y255431D01*
X-36066Y256010D01*
X-36509Y256453D01*
X-37088Y256693D01*
D02*
G37*
G36*
X32990Y255118D02*
X32364D01*
X31785Y254878D01*
X31342Y254435D01*
X31102Y253857D01*
Y253230D01*
X31342Y252651D01*
X31785Y252208D01*
X32364Y251969D01*
X32990D01*
X33569Y252208D01*
X34012Y252651D01*
X34252Y253230D01*
Y253857D01*
X34012Y254435D01*
X33569Y254878D01*
X32990Y255118D01*
D02*
G37*
G36*
X329053Y253150D02*
X328427D01*
X327848Y252910D01*
X327405Y252467D01*
X327165Y251888D01*
Y251261D01*
X327405Y250683D01*
X327848Y250240D01*
X328427Y250000D01*
X329053D01*
X329632Y250240D01*
X330075Y250683D01*
X330315Y251261D01*
Y251888D01*
X330075Y252467D01*
X329632Y252910D01*
X329053Y253150D01*
D02*
G37*
G36*
X-37088Y250394D02*
X-37715D01*
X-38294Y250154D01*
X-38737Y249711D01*
X-38976Y249132D01*
Y248506D01*
X-38737Y247927D01*
X-38294Y247484D01*
X-37715Y247244D01*
X-37088D01*
X-36509Y247484D01*
X-36066Y247927D01*
X-35827Y248506D01*
Y249132D01*
X-36066Y249711D01*
X-36509Y250154D01*
X-37088Y250394D01*
D02*
G37*
G36*
X252676Y249213D02*
X252049D01*
X251470Y248973D01*
X251027Y248530D01*
X250787Y247951D01*
Y247324D01*
X251027Y246746D01*
X251470Y246303D01*
X252049Y246063D01*
X252676D01*
X253254Y246303D01*
X253697Y246746D01*
X253937Y247324D01*
Y247951D01*
X253697Y248530D01*
X253254Y248973D01*
X252676Y249213D01*
D02*
G37*
G36*
X269756Y248295D02*
X269129D01*
X268551Y248055D01*
X268108Y247612D01*
X267868Y247033D01*
Y246407D01*
X268108Y245828D01*
X268551Y245385D01*
X269129Y245145D01*
X269756D01*
X270335Y245385D01*
X270778Y245828D01*
X271018Y246407D01*
Y247033D01*
X270778Y247612D01*
X270335Y248055D01*
X269756Y248295D01*
D02*
G37*
G36*
X363797Y246555D02*
X363171D01*
X362592Y246315D01*
X362149Y245872D01*
X361910Y245294D01*
Y244667D01*
X362149Y244088D01*
X362592Y243645D01*
X363171Y243406D01*
X363797D01*
X364376Y243645D01*
X364819Y244088D01*
X365059Y244667D01*
Y245294D01*
X364819Y245872D01*
X364376Y246315D01*
X363797Y246555D01*
D02*
G37*
G36*
X-37088Y244094D02*
X-37715D01*
X-38294Y243855D01*
X-38737Y243412D01*
X-38976Y242833D01*
Y242206D01*
X-38737Y241628D01*
X-38294Y241185D01*
X-37715Y240945D01*
X-37088D01*
X-36509Y241185D01*
X-36066Y241628D01*
X-35827Y242206D01*
Y242833D01*
X-36066Y243412D01*
X-36509Y243855D01*
X-37088Y244094D01*
D02*
G37*
G36*
X149526Y242913D02*
X148899D01*
X148321Y242674D01*
X147878Y242231D01*
X147708Y241821D01*
X145481Y239594D01*
X139121D01*
X139043Y239988D01*
X139081Y240003D01*
X139524Y240446D01*
X139764Y241025D01*
Y241652D01*
X139524Y242231D01*
X139081Y242674D01*
X138502Y242913D01*
X137876D01*
X137297Y242674D01*
X136854Y242231D01*
X136614Y241652D01*
Y241025D01*
X136854Y240446D01*
X137297Y240003D01*
X137335Y239988D01*
X137257Y239594D01*
X108597D01*
X108187Y239764D01*
X107561D01*
X106982Y239524D01*
X106539Y239081D01*
X106299Y238502D01*
Y237876D01*
X106539Y237297D01*
X106982Y236854D01*
X107561Y236614D01*
X108187D01*
X108597Y236784D01*
X146063D01*
X146601Y236891D01*
X147056Y237195D01*
X149695Y239834D01*
X149936Y239934D01*
X182095D01*
X254146Y167883D01*
Y160999D01*
X253976Y160589D01*
Y159962D01*
X254216Y159383D01*
X254659Y158940D01*
X255238Y158701D01*
X255864D01*
X256443Y158940D01*
X256886Y159383D01*
X257126Y159962D01*
Y160589D01*
X256956Y160999D01*
Y168465D01*
X256849Y169002D01*
X256545Y169458D01*
X183671Y242332D01*
X183215Y242637D01*
X182677Y242743D01*
X149936D01*
X149526Y242913D01*
D02*
G37*
G36*
X519072Y255807D02*
X517149D01*
X515262Y255432D01*
X513485Y254696D01*
X511886Y253627D01*
X510526Y252267D01*
X509458Y250668D01*
X508722Y248891D01*
X508347Y247005D01*
Y245082D01*
X508722Y243195D01*
X509458Y241418D01*
X510526Y239819D01*
X511886Y238459D01*
X513485Y237391D01*
X515262Y236655D01*
X517149Y236280D01*
X519072D01*
X520958Y236655D01*
X522735Y237391D01*
X524334Y238459D01*
X525694Y239819D01*
X526763Y241418D01*
X527499Y243195D01*
X527874Y245082D01*
Y247005D01*
X527499Y248891D01*
X526763Y250668D01*
X525694Y252267D01*
X524334Y253627D01*
X522735Y254696D01*
X520958Y255432D01*
X519072Y255807D01*
D02*
G37*
G36*
X-37088Y237795D02*
X-37715D01*
X-38294Y237556D01*
X-38737Y237112D01*
X-38976Y236534D01*
Y235907D01*
X-38737Y235328D01*
X-38294Y234885D01*
X-37715Y234646D01*
X-37088D01*
X-36509Y234885D01*
X-36066Y235328D01*
X-35827Y235907D01*
Y236534D01*
X-36066Y237112D01*
X-36509Y237556D01*
X-37088Y237795D01*
D02*
G37*
G36*
X171363Y236404D02*
X170737D01*
X170158Y236165D01*
X169715Y235722D01*
X169475Y235143D01*
Y234516D01*
X169715Y233938D01*
X170158Y233494D01*
X170737Y233255D01*
X171363D01*
X171942Y233494D01*
X172385Y233938D01*
X172625Y234516D01*
Y235143D01*
X172385Y235722D01*
X171942Y236165D01*
X171363Y236404D01*
D02*
G37*
G36*
X286731Y234449D02*
X286104D01*
X285525Y234209D01*
X285082Y233766D01*
X284842Y233187D01*
Y232561D01*
X285082Y231982D01*
X285525Y231539D01*
X286104Y231299D01*
X286731D01*
X287309Y231539D01*
X287752Y231982D01*
X287992Y232561D01*
Y233187D01*
X287752Y233766D01*
X287309Y234209D01*
X286731Y234449D01*
D02*
G37*
G36*
X172949Y232872D02*
X172322D01*
X171743Y232632D01*
X171300Y232189D01*
X171060Y231610D01*
Y230983D01*
X171300Y230405D01*
X171743Y229962D01*
X172322Y229722D01*
X172949D01*
X173527Y229962D01*
X173970Y230405D01*
X174210Y230983D01*
Y231610D01*
X173970Y232189D01*
X173527Y232632D01*
X172949Y232872D01*
D02*
G37*
G36*
X213305Y231890D02*
X212679D01*
X212100Y231650D01*
X211657Y231207D01*
X211417Y230628D01*
Y230002D01*
X211657Y229423D01*
X212100Y228980D01*
X212679Y228740D01*
X213305D01*
X213884Y228980D01*
X214327Y229423D01*
X214567Y230002D01*
Y230628D01*
X214327Y231207D01*
X213884Y231650D01*
X213305Y231890D01*
D02*
G37*
G36*
X-37088Y231496D02*
X-37715D01*
X-38294Y231256D01*
X-38737Y230813D01*
X-38976Y230235D01*
Y229608D01*
X-38737Y229029D01*
X-38294Y228586D01*
X-37715Y228346D01*
X-37088D01*
X-36509Y228586D01*
X-36066Y229029D01*
X-35827Y229608D01*
Y230235D01*
X-36066Y230813D01*
X-36509Y231256D01*
X-37088Y231496D01*
D02*
G37*
G36*
X323148Y231102D02*
X322521D01*
X321943Y230863D01*
X321500Y230420D01*
X321260Y229841D01*
Y229214D01*
X321500Y228636D01*
X321943Y228192D01*
X322521Y227953D01*
X323148D01*
X323727Y228192D01*
X324170Y228636D01*
X324410Y229214D01*
Y229841D01*
X324170Y230420D01*
X323727Y230863D01*
X323148Y231102D01*
D02*
G37*
G36*
X283384Y227953D02*
X282758D01*
X282179Y227713D01*
X281736Y227270D01*
X281496Y226691D01*
Y226065D01*
X281736Y225486D01*
X282179Y225043D01*
X282758Y224803D01*
X283384D01*
X283963Y225043D01*
X284406Y225486D01*
X284646Y226065D01*
Y226691D01*
X284406Y227270D01*
X283963Y227713D01*
X283384Y227953D01*
D02*
G37*
G36*
X328266Y227165D02*
X327640D01*
X327061Y226926D01*
X326618Y226483D01*
X326378Y225904D01*
Y225277D01*
X326618Y224698D01*
X327061Y224255D01*
X327640Y224016D01*
X328266D01*
X328845Y224255D01*
X329288Y224698D01*
X329528Y225277D01*
Y225904D01*
X329288Y226483D01*
X328845Y226926D01*
X328266Y227165D01*
D02*
G37*
G36*
X83384Y225590D02*
X82758D01*
X82179Y225351D01*
X81736Y224908D01*
X81496Y224329D01*
Y223703D01*
X81736Y223124D01*
X82179Y222681D01*
X82758Y222441D01*
X83384D01*
X83963Y222681D01*
X84406Y223124D01*
X84646Y223703D01*
Y224329D01*
X84406Y224908D01*
X83963Y225351D01*
X83384Y225590D01*
D02*
G37*
G36*
X75510Y225197D02*
X74884D01*
X74305Y224957D01*
X73862Y224514D01*
X73622Y223935D01*
Y223309D01*
X73862Y222730D01*
X74305Y222287D01*
X74884Y222047D01*
X75510D01*
X76089Y222287D01*
X76532Y222730D01*
X76772Y223309D01*
Y223935D01*
X76532Y224514D01*
X76089Y224957D01*
X75510Y225197D01*
D02*
G37*
G36*
X-37088D02*
X-37715D01*
X-38294Y224957D01*
X-38737Y224514D01*
X-38976Y223935D01*
Y223309D01*
X-38737Y222730D01*
X-38294Y222287D01*
X-37715Y222047D01*
X-37088D01*
X-36509Y222287D01*
X-36066Y222730D01*
X-35827Y223309D01*
Y223935D01*
X-36066Y224514D01*
X-36509Y224957D01*
X-37088Y225197D01*
D02*
G37*
G36*
X362912Y222933D02*
X362285D01*
X361706Y222693D01*
X361263Y222250D01*
X361024Y221672D01*
Y221045D01*
X361263Y220466D01*
X361706Y220023D01*
X362285Y219783D01*
X362912D01*
X363491Y220023D01*
X363933Y220466D01*
X364173Y221045D01*
Y221672D01*
X363933Y222250D01*
X363491Y222693D01*
X362912Y222933D01*
D02*
G37*
G36*
X195983Y222441D02*
X195356D01*
X194777Y222201D01*
X194334Y221758D01*
X194095Y221179D01*
Y220553D01*
X194334Y219974D01*
X194777Y219531D01*
X195356Y219291D01*
X195983D01*
X196561Y219531D01*
X197004Y219974D01*
X197244Y220553D01*
Y221179D01*
X197004Y221758D01*
X196561Y222201D01*
X195983Y222441D01*
D02*
G37*
G36*
X119998D02*
X119372D01*
X118793Y222201D01*
X118350Y221758D01*
X118110Y221179D01*
Y220553D01*
X118350Y219974D01*
X118793Y219531D01*
X119372Y219291D01*
X119998D01*
X120577Y219531D01*
X121020Y219974D01*
X121260Y220553D01*
Y221179D01*
X121020Y221758D01*
X120577Y222201D01*
X119998Y222441D01*
D02*
G37*
G36*
X178842Y222230D02*
X178216D01*
X177637Y221990D01*
X177194Y221547D01*
X176954Y220968D01*
Y220342D01*
X177194Y219763D01*
X177637Y219320D01*
X178216Y219080D01*
X178842D01*
X179421Y219320D01*
X179864Y219763D01*
X180104Y220342D01*
Y220968D01*
X179864Y221547D01*
X179421Y221990D01*
X178842Y222230D01*
D02*
G37*
G36*
X138502Y220079D02*
X137876D01*
X137297Y219839D01*
X136854Y219396D01*
X136614Y218817D01*
Y218191D01*
X136854Y217612D01*
X137297Y217169D01*
X137876Y216929D01*
X138502D01*
X139081Y217169D01*
X139524Y217612D01*
X139764Y218191D01*
Y218817D01*
X139524Y219396D01*
X139081Y219839D01*
X138502Y220079D01*
D02*
G37*
G36*
X149526Y220079D02*
X148899D01*
X148321Y219839D01*
X147878Y219396D01*
X147638Y218817D01*
Y218191D01*
X147878Y217612D01*
X148321Y217169D01*
X148899Y216929D01*
X149526D01*
X150105Y217169D01*
X150548Y217612D01*
X150787Y218191D01*
Y218817D01*
X150548Y219396D01*
X150105Y219839D01*
X149526Y220079D01*
D02*
G37*
G36*
X180631Y218901D02*
X180005D01*
X179426Y218661D01*
X178983Y218218D01*
X178743Y217639D01*
Y217013D01*
X178983Y216434D01*
X179426Y215991D01*
X180005Y215751D01*
X180631D01*
X181210Y215991D01*
X181653Y216434D01*
X181893Y217013D01*
Y217639D01*
X181653Y218218D01*
X181210Y218661D01*
X180631Y218901D01*
D02*
G37*
G36*
X-37088Y218898D02*
X-37715D01*
X-38294Y218658D01*
X-38737Y218215D01*
X-38976Y217636D01*
Y217010D01*
X-38737Y216431D01*
X-38294Y215988D01*
X-37715Y215748D01*
X-37088D01*
X-36509Y215988D01*
X-36066Y216431D01*
X-35827Y217010D01*
Y217636D01*
X-36066Y218215D01*
X-36509Y218658D01*
X-37088Y218898D01*
D02*
G37*
G36*
X516240Y222382D02*
X508799D01*
Y214941D01*
X516240D01*
Y222382D01*
D02*
G37*
G36*
X263699Y215748D02*
X263073D01*
X262494Y215508D01*
X262051Y215065D01*
X261811Y214487D01*
Y213860D01*
X262051Y213281D01*
X262494Y212838D01*
X263073Y212598D01*
X263699D01*
X264278Y212838D01*
X264721Y213281D01*
X264961Y213860D01*
Y214487D01*
X264721Y215065D01*
X264278Y215508D01*
X263699Y215748D01*
D02*
G37*
G36*
X182849Y215607D02*
X182223D01*
X181644Y215367D01*
X181201Y214924D01*
X180961Y214345D01*
Y213719D01*
X181201Y213140D01*
X181644Y212697D01*
X182223Y212457D01*
X182849D01*
X183428Y212697D01*
X183871Y213140D01*
X184111Y213719D01*
Y214345D01*
X183871Y214924D01*
X183428Y215367D01*
X182849Y215607D01*
D02*
G37*
G36*
X252676Y214961D02*
X252049D01*
X251470Y214721D01*
X251027Y214278D01*
X250787Y213699D01*
Y213073D01*
X251027Y212494D01*
X251470Y212051D01*
X252049Y211811D01*
X252676D01*
X253254Y212051D01*
X253697Y212494D01*
X253937Y213073D01*
Y213699D01*
X253697Y214278D01*
X253254Y214721D01*
X252676Y214961D01*
D02*
G37*
G36*
X524191Y216929D02*
X523211D01*
X522265Y216676D01*
X521416Y216186D01*
X520724Y215493D01*
X520234Y214645D01*
X519980Y213699D01*
Y212719D01*
X520234Y211773D01*
X520724Y210924D01*
X521416Y210232D01*
X522265Y209742D01*
X523211Y209488D01*
X524191D01*
X525137Y209742D01*
X525985Y210232D01*
X526678Y210924D01*
X527168Y211773D01*
X527421Y212719D01*
Y213699D01*
X527168Y214645D01*
X526678Y215493D01*
X525985Y216186D01*
X525137Y216676D01*
X524191Y216929D01*
D02*
G37*
G36*
X24329Y212598D02*
X23702D01*
X23124Y212359D01*
X22681Y211916D01*
X22441Y211337D01*
Y210710D01*
X22681Y210132D01*
X23124Y209689D01*
X23702Y209449D01*
X24329D01*
X24908Y209689D01*
X25351Y210132D01*
X25591Y210710D01*
Y211337D01*
X25351Y211916D01*
X24908Y212359D01*
X24329Y212598D01*
D02*
G37*
G36*
X-37088D02*
X-37715D01*
X-38294Y212359D01*
X-38737Y211916D01*
X-38976Y211337D01*
Y210710D01*
X-38737Y210132D01*
X-38294Y209689D01*
X-37715Y209449D01*
X-37088D01*
X-36509Y209689D01*
X-36066Y210132D01*
X-35827Y210710D01*
Y211337D01*
X-36066Y211916D01*
X-36509Y212359D01*
X-37088Y212598D01*
D02*
G37*
G36*
X138502Y211417D02*
X137876D01*
X137297Y211178D01*
X136854Y210735D01*
X136614Y210156D01*
Y209529D01*
X136854Y208950D01*
X137297Y208507D01*
X137876Y208268D01*
X138502D01*
X139081Y208507D01*
X139524Y208950D01*
X139764Y209529D01*
Y210156D01*
X139524Y210735D01*
X139081Y211178D01*
X138502Y211417D01*
D02*
G37*
G36*
X182990Y211024D02*
X182364D01*
X181785Y210784D01*
X181342Y210341D01*
X181102Y209762D01*
Y209136D01*
X181342Y208557D01*
X181785Y208114D01*
X182364Y207874D01*
X182990D01*
X183569Y208114D01*
X184012Y208557D01*
X184252Y209136D01*
Y209762D01*
X184012Y210341D01*
X183569Y210784D01*
X182990Y211024D01*
D02*
G37*
G36*
X513010Y211476D02*
X512030D01*
X511084Y211223D01*
X510235Y210733D01*
X509543Y210040D01*
X509053Y209192D01*
X508799Y208246D01*
Y207266D01*
X509053Y206320D01*
X509543Y205471D01*
X510235Y204779D01*
X511084Y204289D01*
X512030Y204035D01*
X513010D01*
X513956Y204289D01*
X514804Y204779D01*
X515497Y205471D01*
X515987Y206320D01*
X516240Y207266D01*
Y208246D01*
X515987Y209192D01*
X515497Y210040D01*
X514804Y210733D01*
X513956Y211223D01*
X513010Y211476D01*
D02*
G37*
G36*
X27085Y206299D02*
X26458D01*
X25880Y206060D01*
X25437Y205616D01*
X25197Y205038D01*
Y204411D01*
X25437Y203832D01*
X25880Y203389D01*
X26458Y203150D01*
X27085D01*
X27664Y203389D01*
X28107Y203832D01*
X28346Y204411D01*
Y205038D01*
X28107Y205616D01*
X27664Y206060D01*
X27085Y206299D01*
D02*
G37*
G36*
X-37088D02*
X-37715D01*
X-38294Y206060D01*
X-38737Y205616D01*
X-38976Y205038D01*
Y204411D01*
X-38737Y203832D01*
X-38294Y203389D01*
X-37715Y203150D01*
X-37088D01*
X-36509Y203389D01*
X-36066Y203832D01*
X-35827Y204411D01*
Y205038D01*
X-36066Y205616D01*
X-36509Y206060D01*
X-37088Y206299D01*
D02*
G37*
G36*
X414880Y204724D02*
X414254D01*
X413675Y204485D01*
X413232Y204042D01*
X412992Y203463D01*
Y202836D01*
X413232Y202258D01*
X413675Y201815D01*
X414254Y201575D01*
X414880D01*
X415459Y201815D01*
X415902Y202258D01*
X416142Y202836D01*
Y203463D01*
X415902Y204042D01*
X415459Y204485D01*
X414880Y204724D01*
D02*
G37*
G36*
X188109Y203150D02*
X187482D01*
X186903Y202910D01*
X186460Y202467D01*
X186221Y201888D01*
Y201262D01*
X186460Y200683D01*
X186903Y200240D01*
X187482Y200000D01*
X188109D01*
X188687Y200240D01*
X189130Y200683D01*
X189370Y201262D01*
Y201888D01*
X189130Y202467D01*
X188687Y202910D01*
X188109Y203150D01*
D02*
G37*
G36*
X-30002Y200000D02*
X-30628D01*
X-31102Y199804D01*
X-31496Y199986D01*
Y199471D01*
X-31650Y199317D01*
X-31890Y198738D01*
Y198112D01*
X-31650Y197533D01*
X-31496Y197379D01*
Y196865D01*
X-31102Y197047D01*
X-30628Y196850D01*
X-30002D01*
X-29423Y197090D01*
X-28980Y197533D01*
X-28740Y198112D01*
Y198738D01*
X-28980Y199317D01*
X-29423Y199760D01*
X-30002Y200000D01*
D02*
G37*
G36*
X209623Y202362D02*
X208996D01*
X208417Y202122D01*
X207974Y201679D01*
X207734Y201101D01*
Y200474D01*
X207974Y199895D01*
X208417Y199452D01*
X208996Y199213D01*
X209623D01*
X210201Y199452D01*
X210644Y199895D01*
X210884Y200474D01*
Y201101D01*
X210644Y201679D01*
X210201Y202122D01*
X209623Y202362D01*
D02*
G37*
G36*
X524191Y206024D02*
X523211D01*
X522265Y205770D01*
X521416Y205280D01*
X520724Y204588D01*
X520234Y203739D01*
X519980Y202793D01*
Y201813D01*
X520234Y200867D01*
X520724Y200019D01*
X521416Y199326D01*
X522265Y198836D01*
X523211Y198583D01*
X524191D01*
X525137Y198836D01*
X525985Y199326D01*
X526678Y200019D01*
X527168Y200867D01*
X527421Y201813D01*
Y202793D01*
X527168Y203739D01*
X526678Y204588D01*
X525985Y205280D01*
X525137Y205770D01*
X524191Y206024D01*
D02*
G37*
G36*
X112124Y200000D02*
X111498D01*
X110919Y199760D01*
X110476Y199317D01*
X110236Y198738D01*
Y198112D01*
X110476Y197533D01*
X110919Y197090D01*
X111498Y196850D01*
X112124D01*
X112703Y197090D01*
X113146Y197533D01*
X113386Y198112D01*
Y198738D01*
X113146Y199317D01*
X112703Y199760D01*
X112124Y200000D01*
D02*
G37*
G36*
X364487Y198819D02*
X363860D01*
X363281Y198579D01*
X362838Y198136D01*
X362598Y197557D01*
Y196931D01*
X362838Y196352D01*
X363281Y195909D01*
X363860Y195669D01*
X364487D01*
X365065Y195909D01*
X365508Y196352D01*
X365748Y196931D01*
Y197557D01*
X365508Y198136D01*
X365065Y198579D01*
X364487Y198819D01*
D02*
G37*
G36*
X173542Y196457D02*
X172915D01*
X172336Y196217D01*
X171893Y195774D01*
X171653Y195195D01*
Y194569D01*
X171893Y193990D01*
X172336Y193547D01*
X172915Y193307D01*
X173542D01*
X174120Y193547D01*
X174563Y193990D01*
X174803Y194569D01*
Y195195D01*
X174563Y195774D01*
X174120Y196217D01*
X173542Y196457D01*
D02*
G37*
G36*
X513010Y200571D02*
X512030D01*
X511084Y200317D01*
X510235Y199828D01*
X509543Y199135D01*
X509053Y198286D01*
X508799Y197340D01*
Y196361D01*
X509053Y195414D01*
X509543Y194566D01*
X510235Y193873D01*
X511084Y193384D01*
X512030Y193130D01*
X513010D01*
X513956Y193384D01*
X514804Y193873D01*
X515497Y194566D01*
X515987Y195414D01*
X516240Y196361D01*
Y197340D01*
X515987Y198286D01*
X515497Y199135D01*
X514804Y199828D01*
X513956Y200317D01*
X513010Y200571D01*
D02*
G37*
G36*
X344014Y192126D02*
X343388D01*
X342809Y191886D01*
X342366Y191443D01*
X342126Y190864D01*
Y190238D01*
X342366Y189659D01*
X342809Y189216D01*
X343388Y188976D01*
X344014D01*
X344593Y189216D01*
X345036Y189659D01*
X345276Y190238D01*
Y190864D01*
X345036Y191443D01*
X344593Y191886D01*
X344014Y192126D01*
D02*
G37*
G36*
X315274D02*
X314647D01*
X314069Y191886D01*
X313626Y191443D01*
X313386Y190864D01*
Y190238D01*
X313626Y189659D01*
X314069Y189216D01*
X314647Y188976D01*
X315274D01*
X315853Y189216D01*
X316296Y189659D01*
X316535Y190238D01*
Y190864D01*
X316296Y191443D01*
X315853Y191886D01*
X315274Y192126D01*
D02*
G37*
G36*
X462124Y191339D02*
X461498D01*
X460919Y191099D01*
X460476Y190656D01*
X460236Y190077D01*
Y189451D01*
X460476Y188872D01*
X460919Y188429D01*
X461498Y188189D01*
X462124D01*
X462703Y188429D01*
X463146Y188872D01*
X463386Y189451D01*
Y190077D01*
X463146Y190656D01*
X462703Y191099D01*
X462124Y191339D01*
D02*
G37*
G36*
X524191Y195118D02*
X523211D01*
X522265Y194865D01*
X521416Y194375D01*
X520724Y193682D01*
X520234Y192834D01*
X519980Y191887D01*
Y190908D01*
X520234Y189962D01*
X520724Y189113D01*
X521416Y188420D01*
X522265Y187931D01*
X523211Y187677D01*
X524191D01*
X525137Y187931D01*
X525985Y188420D01*
X526678Y189113D01*
X527168Y189962D01*
X527421Y190908D01*
Y191887D01*
X527168Y192834D01*
X526678Y193682D01*
X525985Y194375D01*
X525137Y194865D01*
X524191Y195118D01*
D02*
G37*
G36*
X413896Y190354D02*
X413269D01*
X412691Y190115D01*
X412248Y189672D01*
X412008Y189093D01*
Y188466D01*
X412248Y187888D01*
X412691Y187444D01*
X413269Y187205D01*
X413896D01*
X414475Y187444D01*
X414918Y187888D01*
X415158Y188466D01*
Y189093D01*
X414918Y189672D01*
X414475Y190115D01*
X413896Y190354D01*
D02*
G37*
G36*
X455825Y190157D02*
X455199D01*
X454620Y189918D01*
X454177Y189475D01*
X453937Y188896D01*
Y188269D01*
X454177Y187691D01*
X454620Y187248D01*
X455199Y187008D01*
X455825D01*
X456404Y187248D01*
X456847Y187691D01*
X457087Y188269D01*
Y188896D01*
X456847Y189475D01*
X456404Y189918D01*
X455825Y190157D01*
D02*
G37*
G36*
X382203Y188189D02*
X381576D01*
X380998Y187949D01*
X380555Y187506D01*
X380315Y186927D01*
Y186301D01*
X380555Y185722D01*
X380998Y185279D01*
X381576Y185039D01*
X382203D01*
X382782Y185279D01*
X383225Y185722D01*
X383465Y186301D01*
Y186927D01*
X383225Y187506D01*
X382782Y187949D01*
X382203Y188189D01*
D02*
G37*
G36*
X178660Y186614D02*
X178033D01*
X177454Y186374D01*
X177011Y185931D01*
X176772Y185353D01*
Y184726D01*
X177011Y184147D01*
X177454Y183704D01*
X178033Y183465D01*
X178660D01*
X179238Y183704D01*
X179682Y184147D01*
X179921Y184726D01*
Y185353D01*
X179682Y185931D01*
X179238Y186374D01*
X178660Y186614D01*
D02*
G37*
G36*
X513010Y189665D02*
X512030D01*
X511084Y189412D01*
X510235Y188922D01*
X509543Y188229D01*
X509053Y187381D01*
X508799Y186435D01*
Y185455D01*
X509053Y184509D01*
X509543Y183660D01*
X510235Y182968D01*
X511084Y182478D01*
X512030Y182224D01*
X513010D01*
X513956Y182478D01*
X514804Y182968D01*
X515497Y183660D01*
X515987Y184509D01*
X516240Y185455D01*
Y186435D01*
X515987Y187381D01*
X515497Y188229D01*
X514804Y188922D01*
X513956Y189412D01*
X513010Y189665D01*
D02*
G37*
G36*
X131613Y184055D02*
X130986D01*
X130407Y183815D01*
X129964Y183372D01*
X129724Y182794D01*
Y182167D01*
X129964Y181588D01*
X130407Y181145D01*
X130986Y180905D01*
X131613D01*
X132191Y181145D01*
X132634Y181588D01*
X132874Y182167D01*
Y182794D01*
X132634Y183372D01*
X132191Y183815D01*
X131613Y184055D01*
D02*
G37*
G36*
X141652Y180315D02*
X141025D01*
X140446Y180075D01*
X140004Y179632D01*
X139977Y179568D01*
X139551D01*
X139524Y179632D01*
X139081Y180075D01*
X138502Y180315D01*
X137876D01*
X137297Y180075D01*
X136854Y179632D01*
X136614Y179053D01*
Y178427D01*
X136854Y177848D01*
X137297Y177405D01*
X137876Y177165D01*
X138502D01*
X139081Y177405D01*
X139524Y177848D01*
X139551Y177912D01*
X139977D01*
X140004Y177848D01*
X140446Y177405D01*
X141025Y177165D01*
X141652D01*
X142231Y177405D01*
X142674Y177848D01*
X142913Y178427D01*
Y179053D01*
X142674Y179632D01*
X142231Y180075D01*
X141652Y180315D01*
D02*
G37*
G36*
X-37088Y181102D02*
X-37715D01*
X-38294Y180863D01*
X-38737Y180420D01*
X-38976Y179841D01*
Y179214D01*
X-38737Y178636D01*
X-38294Y178192D01*
X-37715Y177953D01*
X-37088D01*
X-36509Y178192D01*
X-36066Y178636D01*
X-35827Y179214D01*
Y179841D01*
X-36066Y180420D01*
X-36509Y180863D01*
X-37088Y181102D01*
D02*
G37*
G36*
X382203Y180315D02*
X381576D01*
X380998Y180075D01*
X380555Y179632D01*
X380315Y179053D01*
Y178427D01*
X380555Y177848D01*
X380998Y177405D01*
X381576Y177165D01*
X382203D01*
X382782Y177405D01*
X383225Y177848D01*
X383465Y178427D01*
Y179053D01*
X383225Y179632D01*
X382782Y180075D01*
X382203Y180315D01*
D02*
G37*
G36*
X524191Y184213D02*
X523211D01*
X522265Y183959D01*
X521416Y183469D01*
X520724Y182776D01*
X520234Y181928D01*
X519980Y180982D01*
Y180002D01*
X520234Y179056D01*
X520724Y178208D01*
X521416Y177515D01*
X522265Y177025D01*
X523211Y176772D01*
X524191D01*
X525137Y177025D01*
X525985Y177515D01*
X526678Y178208D01*
X527168Y179056D01*
X527421Y180002D01*
Y180982D01*
X527168Y181928D01*
X526678Y182776D01*
X525985Y183469D01*
X525137Y183959D01*
X524191Y184213D01*
D02*
G37*
G36*
X147164Y178347D02*
X146537D01*
X145958Y178107D01*
X145515Y177664D01*
X145276Y177085D01*
Y176458D01*
X145515Y175880D01*
X145958Y175437D01*
X146537Y175197D01*
X147164D01*
X147742Y175437D01*
X148185Y175880D01*
X148425Y176458D01*
Y177085D01*
X148185Y177664D01*
X147742Y178107D01*
X147164Y178347D01*
D02*
G37*
G36*
X116455Y177953D02*
X115829D01*
X115250Y177713D01*
X114807Y177270D01*
X114567Y176691D01*
Y176065D01*
X114807Y175486D01*
X115250Y175043D01*
X115829Y174803D01*
X116455D01*
X117034Y175043D01*
X117477Y175486D01*
X117717Y176065D01*
Y176691D01*
X117477Y177270D01*
X117034Y177713D01*
X116455Y177953D01*
D02*
G37*
G36*
X414902Y175984D02*
X414276D01*
X413697Y175744D01*
X413254Y175302D01*
X413014Y174723D01*
Y174096D01*
X413254Y173517D01*
X413697Y173074D01*
X414276Y172835D01*
X414902D01*
X415481Y173074D01*
X415924Y173517D01*
X416164Y174096D01*
Y174723D01*
X415924Y175302D01*
X415481Y175744D01*
X414902Y175984D01*
D02*
G37*
G36*
X-37088Y174803D02*
X-37715D01*
X-38294Y174563D01*
X-38737Y174120D01*
X-38976Y173542D01*
Y172915D01*
X-38737Y172336D01*
X-38294Y171893D01*
X-37715Y171653D01*
X-37088D01*
X-36509Y171893D01*
X-36066Y172336D01*
X-35827Y172915D01*
Y173542D01*
X-36066Y174120D01*
X-36509Y174563D01*
X-37088Y174803D01*
D02*
G37*
G36*
X73148Y174713D02*
X72521D01*
X71943Y174473D01*
X71500Y174030D01*
X71260Y173451D01*
Y172825D01*
X71500Y172246D01*
X71943Y171803D01*
X72521Y171563D01*
X73148D01*
X73727Y171803D01*
X74170Y172246D01*
X74410Y172825D01*
Y173451D01*
X74170Y174030D01*
X73727Y174473D01*
X73148Y174713D01*
D02*
G37*
G36*
X513010Y178760D02*
X512030D01*
X511084Y178506D01*
X510235Y178016D01*
X509543Y177324D01*
X509053Y176475D01*
X508799Y175529D01*
Y174550D01*
X509053Y173603D01*
X509543Y172755D01*
X510235Y172062D01*
X511084Y171572D01*
X512030Y171319D01*
X513010D01*
X513956Y171572D01*
X514804Y172062D01*
X515497Y172755D01*
X515987Y173603D01*
X516240Y174550D01*
Y175529D01*
X515987Y176475D01*
X515497Y177324D01*
X514804Y178016D01*
X513956Y178506D01*
X513010Y178760D01*
D02*
G37*
G36*
X150707Y174409D02*
X150080D01*
X149502Y174170D01*
X149059Y173727D01*
X148819Y173148D01*
Y172521D01*
X149059Y171943D01*
X149502Y171500D01*
X150080Y171260D01*
X150707D01*
X151286Y171500D01*
X151729Y171943D01*
X151969Y172521D01*
Y173148D01*
X151729Y173727D01*
X151286Y174170D01*
X150707Y174409D01*
D02*
G37*
G36*
X146770Y174016D02*
X146143D01*
X145565Y173776D01*
X145122Y173333D01*
X144882Y172754D01*
Y172128D01*
X145122Y171549D01*
X145565Y171106D01*
X146143Y170866D01*
X146770D01*
X147349Y171106D01*
X147792Y171549D01*
X148031Y172128D01*
Y172754D01*
X147792Y173333D01*
X147349Y173776D01*
X146770Y174016D01*
D02*
G37*
G36*
X441258Y172835D02*
X440632D01*
X440053Y172595D01*
X439610Y172152D01*
X439370Y171573D01*
Y170947D01*
X439610Y170368D01*
X440053Y169925D01*
X440632Y169685D01*
X441258D01*
X441837Y169925D01*
X442280Y170368D01*
X442520Y170947D01*
Y171573D01*
X442280Y172152D01*
X441837Y172595D01*
X441258Y172835D01*
D02*
G37*
G36*
X382203D02*
X381576D01*
X380998Y172595D01*
X380555Y172152D01*
X380315Y171573D01*
Y170947D01*
X380555Y170368D01*
X380998Y169925D01*
X381576Y169685D01*
X382203D01*
X382782Y169925D01*
X383225Y170368D01*
X383465Y170947D01*
Y171573D01*
X383225Y172152D01*
X382782Y172595D01*
X382203Y172835D01*
D02*
G37*
G36*
X455825Y172441D02*
X455199D01*
X454620Y172201D01*
X454177Y171758D01*
X453937Y171179D01*
Y170553D01*
X454177Y169974D01*
X454620Y169531D01*
X455199Y169291D01*
X455825D01*
X456404Y169531D01*
X456847Y169974D01*
X457087Y170553D01*
Y171179D01*
X456847Y171758D01*
X456404Y172201D01*
X455825Y172441D01*
D02*
G37*
G36*
X86534Y171260D02*
X85907D01*
X85328Y171020D01*
X84885Y170577D01*
X84646Y169998D01*
Y169372D01*
X84885Y168793D01*
X85328Y168350D01*
X85907Y168110D01*
X86534D01*
X87112Y168350D01*
X87555Y168793D01*
X87795Y169372D01*
Y169998D01*
X87555Y170577D01*
X87112Y171020D01*
X86534Y171260D01*
D02*
G37*
G36*
X317144Y170374D02*
X316517D01*
X315939Y170134D01*
X315496Y169691D01*
X315256Y169113D01*
Y168486D01*
X315496Y167907D01*
X315939Y167464D01*
X316517Y167224D01*
X317144D01*
X317723Y167464D01*
X318166Y167907D01*
X318406Y168486D01*
Y169113D01*
X318166Y169691D01*
X317723Y170134D01*
X317144Y170374D01*
D02*
G37*
G36*
X146770Y169185D02*
X146143D01*
X145565Y168945D01*
X145122Y168502D01*
X144882Y167923D01*
Y167297D01*
X145122Y166718D01*
X145565Y166275D01*
X146143Y166035D01*
X146770D01*
X147349Y166275D01*
X147792Y166718D01*
X148031Y167297D01*
Y167923D01*
X147792Y168502D01*
X147349Y168945D01*
X146770Y169185D01*
D02*
G37*
G36*
X-37088Y168504D02*
X-37715D01*
X-38294Y168264D01*
X-38737Y167821D01*
X-38976Y167242D01*
Y166616D01*
X-38737Y166037D01*
X-38294Y165594D01*
X-37715Y165354D01*
X-37088D01*
X-36509Y165594D01*
X-36066Y166037D01*
X-35827Y166616D01*
Y167242D01*
X-36066Y167821D01*
X-36509Y168264D01*
X-37088Y168504D01*
D02*
G37*
G36*
X365274Y168405D02*
X364647D01*
X364069Y168166D01*
X363626Y167723D01*
X363386Y167144D01*
Y166517D01*
X363626Y165939D01*
X364069Y165496D01*
X364647Y165256D01*
X365274D01*
X365853Y165496D01*
X366296Y165939D01*
X366535Y166517D01*
Y167144D01*
X366296Y167723D01*
X365853Y168166D01*
X365274Y168405D01*
D02*
G37*
G36*
X155825Y166535D02*
X155199D01*
X154620Y166296D01*
X154177Y165853D01*
X153937Y165274D01*
Y164647D01*
X154177Y164069D01*
X154620Y163626D01*
X155199Y163386D01*
X155825D01*
X156404Y163626D01*
X156847Y164069D01*
X157087Y164647D01*
Y165274D01*
X156847Y165853D01*
X156404Y166296D01*
X155825Y166535D01*
D02*
G37*
G36*
X338502Y165748D02*
X337876D01*
X337297Y165508D01*
X336854Y165065D01*
X336614Y164487D01*
Y163860D01*
X336854Y163281D01*
X337297Y162838D01*
X337876Y162598D01*
X338502D01*
X339081Y162838D01*
X339524Y163281D01*
X339764Y163860D01*
Y164487D01*
X339524Y165065D01*
X339081Y165508D01*
X338502Y165748D01*
D02*
G37*
G36*
X199132Y163779D02*
X198506D01*
X197927Y163540D01*
X197484Y163097D01*
X197244Y162518D01*
Y161891D01*
X197484Y161313D01*
X197927Y160870D01*
X198506Y160630D01*
X199132D01*
X199711Y160870D01*
X200154Y161313D01*
X200394Y161891D01*
Y162518D01*
X200154Y163097D01*
X199711Y163540D01*
X199132Y163779D01*
D02*
G37*
G36*
X333384Y163779D02*
X332758D01*
X332179Y163540D01*
X331736Y163097D01*
X331496Y162518D01*
Y161891D01*
X331736Y161313D01*
X332179Y160870D01*
X332758Y160630D01*
X333384D01*
X333963Y160870D01*
X334406Y161313D01*
X334646Y161891D01*
Y162518D01*
X334406Y163097D01*
X333963Y163540D01*
X333384Y163779D01*
D02*
G37*
G36*
X327479Y163386D02*
X326852D01*
X326273Y163146D01*
X325830Y162703D01*
X325590Y162124D01*
Y161498D01*
X325830Y160919D01*
X326273Y160476D01*
X326852Y160236D01*
X327479D01*
X328057Y160476D01*
X328500Y160919D01*
X328740Y161498D01*
Y162124D01*
X328500Y162703D01*
X328057Y163146D01*
X327479Y163386D01*
D02*
G37*
G36*
X-38269Y162205D02*
X-38896D01*
X-39475Y161965D01*
X-39918Y161522D01*
X-40157Y160943D01*
Y160317D01*
X-39918Y159738D01*
X-39475Y159295D01*
X-38896Y159055D01*
X-38269D01*
X-37691Y159295D01*
X-37248Y159738D01*
X-37008Y160317D01*
Y160943D01*
X-37248Y161522D01*
X-37691Y161965D01*
X-38269Y162205D01*
D02*
G37*
G36*
X177085Y160236D02*
X176458D01*
X175880Y159996D01*
X175437Y159554D01*
X175197Y158975D01*
Y158348D01*
X175437Y157769D01*
X175880Y157326D01*
X176458Y157087D01*
X177085D01*
X177664Y157326D01*
X178107Y157769D01*
X178347Y158348D01*
Y158975D01*
X178107Y159554D01*
X177664Y159996D01*
X177085Y160236D01*
D02*
G37*
G36*
X146770Y159055D02*
X146143D01*
X145565Y158815D01*
X145122Y158372D01*
X144882Y157794D01*
Y157167D01*
X145122Y156588D01*
X145565Y156145D01*
X146143Y155905D01*
X146770D01*
X147349Y156145D01*
X147792Y156588D01*
X148031Y157167D01*
Y157794D01*
X147792Y158372D01*
X147349Y158815D01*
X146770Y159055D01*
D02*
G37*
G36*
X307794Y157874D02*
X307167D01*
X306588Y157634D01*
X306145Y157191D01*
X305906Y156613D01*
Y155986D01*
X306145Y155407D01*
X306588Y154964D01*
X307167Y154724D01*
X307794D01*
X308372Y154964D01*
X308815Y155407D01*
X309055Y155986D01*
Y156613D01*
X308815Y157191D01*
X308372Y157634D01*
X307794Y157874D01*
D02*
G37*
G36*
X-39057Y155905D02*
X-39683D01*
X-40262Y155666D01*
X-40705Y155223D01*
X-40945Y154644D01*
Y154017D01*
X-40705Y153439D01*
X-40262Y152996D01*
X-39683Y152756D01*
X-39057D01*
X-38478Y152996D01*
X-38035Y153439D01*
X-37795Y154017D01*
Y154644D01*
X-38035Y155223D01*
X-38478Y155666D01*
X-39057Y155905D01*
D02*
G37*
G36*
X338502Y154331D02*
X337876D01*
X337297Y154091D01*
X336854Y153648D01*
X336614Y153069D01*
Y152443D01*
X336854Y151864D01*
X337297Y151421D01*
X337876Y151181D01*
X338502D01*
X339081Y151421D01*
X339524Y151864D01*
X339764Y152443D01*
Y153069D01*
X339524Y153648D01*
X339081Y154091D01*
X338502Y154331D01*
D02*
G37*
G36*
X519072Y157421D02*
X517149D01*
X515262Y157046D01*
X513485Y156310D01*
X511886Y155242D01*
X510526Y153882D01*
X509458Y152282D01*
X508722Y150505D01*
X508347Y148619D01*
Y146696D01*
X508722Y144809D01*
X509458Y143033D01*
X510526Y141433D01*
X511886Y140074D01*
X513485Y139005D01*
X515262Y138269D01*
X517149Y137894D01*
X519072D01*
X520958Y138269D01*
X522735Y139005D01*
X524334Y140074D01*
X525694Y141433D01*
X526763Y143033D01*
X527499Y144809D01*
X527874Y146696D01*
Y148619D01*
X527499Y150505D01*
X526763Y152282D01*
X525694Y153882D01*
X524334Y155242D01*
X522735Y156310D01*
X520958Y157046D01*
X519072Y157421D01*
D02*
G37*
G36*
X257794Y129134D02*
X257167D01*
X256588Y128894D01*
X256145Y128451D01*
X255906Y127872D01*
Y127246D01*
X256145Y126667D01*
X256588Y126224D01*
X257167Y125984D01*
X257794D01*
X258372Y126224D01*
X258815Y126667D01*
X259055Y127246D01*
Y127872D01*
X258815Y128451D01*
X258372Y128894D01*
X257794Y129134D01*
D02*
G37*
G36*
X135353D02*
X134726D01*
X134147Y128894D01*
X133704Y128451D01*
X133465Y127872D01*
Y127246D01*
X133704Y126667D01*
X134147Y126224D01*
X134726Y125984D01*
X135353D01*
X135931Y126224D01*
X136374Y126667D01*
X136614Y127246D01*
Y127872D01*
X136374Y128451D01*
X135931Y128894D01*
X135353Y129134D01*
D02*
G37*
G36*
X88896Y125591D02*
X88269D01*
X87691Y125351D01*
X87248Y124908D01*
X87008Y124329D01*
Y123703D01*
X87248Y123124D01*
X87691Y122681D01*
X88269Y122441D01*
X88896D01*
X89475Y122681D01*
X89918Y123124D01*
X90158Y123703D01*
Y124329D01*
X89918Y124908D01*
X89475Y125351D01*
X88896Y125591D01*
D02*
G37*
G36*
X50313D02*
X49687D01*
X49108Y125351D01*
X48665Y124908D01*
X48425Y124329D01*
Y123703D01*
X48665Y123124D01*
X49108Y122681D01*
X49687Y122441D01*
X50313D01*
X50892Y122681D01*
X51335Y123124D01*
X51575Y123703D01*
Y124329D01*
X51335Y124908D01*
X50892Y125351D01*
X50313Y125591D01*
D02*
G37*
G36*
X329053Y123228D02*
X328427D01*
X327848Y122989D01*
X327405Y122546D01*
X327165Y121967D01*
Y121340D01*
X327405Y120762D01*
X327848Y120318D01*
X328427Y120079D01*
X329053D01*
X329632Y120318D01*
X330075Y120762D01*
X330315Y121340D01*
Y121967D01*
X330075Y122546D01*
X329632Y122989D01*
X329053Y123228D01*
D02*
G37*
G36*
X-16303Y119685D02*
X-16929D01*
X-17508Y119445D01*
X-17951Y119002D01*
X-18191Y118423D01*
Y117797D01*
X-17951Y117218D01*
X-17508Y116775D01*
X-16929Y116535D01*
X-16303D01*
X-15724Y116775D01*
X-15281Y117218D01*
X-15041Y117797D01*
Y118423D01*
X-15281Y119002D01*
X-15724Y119445D01*
X-16303Y119685D01*
D02*
G37*
G36*
X252676Y119291D02*
X252049D01*
X251470Y119052D01*
X251027Y118609D01*
X250787Y118030D01*
Y117403D01*
X251027Y116824D01*
X251470Y116382D01*
X252049Y116142D01*
X252676D01*
X253254Y116382D01*
X253697Y116824D01*
X253937Y117403D01*
Y118030D01*
X253697Y118609D01*
X253254Y119052D01*
X252676Y119291D01*
D02*
G37*
G36*
X48345D02*
X47718D01*
X47139Y119052D01*
X46696Y118609D01*
X46457Y118030D01*
Y117403D01*
X46696Y116824D01*
X47139Y116382D01*
X47718Y116142D01*
X48345D01*
X48924Y116382D01*
X49367Y116824D01*
X49606Y117403D01*
Y118030D01*
X49367Y118609D01*
X48924Y119052D01*
X48345Y119291D01*
D02*
G37*
G36*
X269756Y118374D02*
X269129D01*
X268551Y118134D01*
X268108Y117691D01*
X267868Y117112D01*
Y116486D01*
X268108Y115907D01*
X268551Y115464D01*
X269129Y115224D01*
X269756D01*
X270335Y115464D01*
X270778Y115907D01*
X271018Y116486D01*
Y117112D01*
X270778Y117691D01*
X270335Y118134D01*
X269756Y118374D01*
D02*
G37*
G36*
X363797Y116634D02*
X363171D01*
X362592Y116394D01*
X362149Y115951D01*
X361910Y115372D01*
Y114746D01*
X362149Y114167D01*
X362592Y113724D01*
X363171Y113484D01*
X363797D01*
X364376Y113724D01*
X364819Y114167D01*
X365059Y114746D01*
Y115372D01*
X364819Y115951D01*
X364376Y116394D01*
X363797Y116634D01*
D02*
G37*
G36*
X519072Y129429D02*
X517149D01*
X515262Y129054D01*
X513485Y128318D01*
X511886Y127249D01*
X510526Y125889D01*
X509458Y124290D01*
X508722Y122513D01*
X508347Y120627D01*
Y118704D01*
X508722Y116817D01*
X509458Y115041D01*
X510526Y113441D01*
X511886Y112081D01*
X513485Y111013D01*
X515262Y110277D01*
X517149Y109902D01*
X519072D01*
X520958Y110277D01*
X522735Y111013D01*
X524334Y112081D01*
X525694Y113441D01*
X526763Y115041D01*
X527499Y116817D01*
X527874Y118704D01*
Y120627D01*
X527499Y122513D01*
X526763Y124290D01*
X525694Y125889D01*
X524334Y127249D01*
X522735Y128318D01*
X520958Y129054D01*
X519072Y129429D01*
D02*
G37*
G36*
X149526Y112992D02*
X148899D01*
X148321Y112752D01*
X147878Y112309D01*
X147708Y111899D01*
X145481Y109673D01*
X139121D01*
X139043Y110066D01*
X139081Y110082D01*
X139524Y110525D01*
X139764Y111104D01*
Y111731D01*
X139524Y112309D01*
X139081Y112752D01*
X138502Y112992D01*
X137876D01*
X137297Y112752D01*
X136854Y112309D01*
X136614Y111731D01*
Y111104D01*
X136854Y110525D01*
X137297Y110082D01*
X137335Y110066D01*
X137257Y109673D01*
X108597D01*
X108187Y109843D01*
X107561D01*
X106982Y109603D01*
X106539Y109160D01*
X106299Y108581D01*
Y107955D01*
X106539Y107376D01*
X106982Y106933D01*
X107561Y106693D01*
X108187D01*
X108597Y106863D01*
X146063D01*
X146601Y106970D01*
X147056Y107274D01*
X149695Y109912D01*
X149936Y110012D01*
X182095D01*
X254146Y37961D01*
Y31078D01*
X253976Y30668D01*
Y30041D01*
X254216Y29462D01*
X254659Y29019D01*
X255238Y28780D01*
X255864D01*
X256443Y29019D01*
X256886Y29462D01*
X257126Y30041D01*
Y30668D01*
X256956Y31078D01*
Y38543D01*
X256849Y39081D01*
X256545Y39537D01*
X183671Y112411D01*
X183215Y112715D01*
X182677Y112822D01*
X149936D01*
X149526Y112992D01*
D02*
G37*
G36*
X171363Y106483D02*
X170737D01*
X170158Y106243D01*
X169715Y105800D01*
X169475Y105221D01*
Y104595D01*
X169715Y104016D01*
X170158Y103573D01*
X170737Y103333D01*
X171363D01*
X171942Y103573D01*
X172385Y104016D01*
X172625Y104595D01*
Y105221D01*
X172385Y105800D01*
X171942Y106243D01*
X171363Y106483D01*
D02*
G37*
G36*
X286731Y104527D02*
X286104D01*
X285525Y104288D01*
X285082Y103845D01*
X284842Y103266D01*
Y102639D01*
X285082Y102061D01*
X285525Y101618D01*
X286104Y101378D01*
X286731D01*
X287309Y101618D01*
X287752Y102061D01*
X287992Y102639D01*
Y103266D01*
X287752Y103845D01*
X287309Y104288D01*
X286731Y104527D01*
D02*
G37*
G36*
X172949Y102950D02*
X172322D01*
X171743Y102710D01*
X171300Y102268D01*
X171060Y101689D01*
Y101062D01*
X171300Y100483D01*
X171743Y100040D01*
X172322Y99801D01*
X172949D01*
X173527Y100040D01*
X173970Y100483D01*
X174210Y101062D01*
Y101689D01*
X173970Y102268D01*
X173527Y102710D01*
X172949Y102950D01*
D02*
G37*
G36*
X213305Y101969D02*
X212679D01*
X212100Y101729D01*
X211657Y101286D01*
X211417Y100707D01*
Y100080D01*
X211657Y99502D01*
X212100Y99059D01*
X212679Y98819D01*
X213305D01*
X213884Y99059D01*
X214327Y99502D01*
X214567Y100080D01*
Y100707D01*
X214327Y101286D01*
X213884Y101729D01*
X213305Y101969D01*
D02*
G37*
G36*
X323148Y101181D02*
X322521D01*
X321943Y100941D01*
X321500Y100498D01*
X321260Y99920D01*
Y99293D01*
X321500Y98714D01*
X321943Y98271D01*
X322521Y98032D01*
X323148D01*
X323727Y98271D01*
X324170Y98714D01*
X324410Y99293D01*
Y99920D01*
X324170Y100498D01*
X323727Y100941D01*
X323148Y101181D01*
D02*
G37*
G36*
X283384Y98032D02*
X282758D01*
X282179Y97792D01*
X281736Y97349D01*
X281496Y96770D01*
Y96143D01*
X281736Y95565D01*
X282179Y95122D01*
X282758Y94882D01*
X283384D01*
X283963Y95122D01*
X284406Y95565D01*
X284646Y96143D01*
Y96770D01*
X284406Y97349D01*
X283963Y97792D01*
X283384Y98032D01*
D02*
G37*
G36*
X328266Y97244D02*
X327640D01*
X327061Y97004D01*
X326618Y96561D01*
X326378Y95982D01*
Y95356D01*
X326618Y94777D01*
X327061Y94334D01*
X327640Y94095D01*
X328266D01*
X328845Y94334D01*
X329288Y94777D01*
X329528Y95356D01*
Y95982D01*
X329288Y96561D01*
X328845Y97004D01*
X328266Y97244D01*
D02*
G37*
G36*
X47557Y95669D02*
X46931D01*
X46352Y95429D01*
X45909Y94986D01*
X45669Y94408D01*
Y93781D01*
X45909Y93202D01*
X46352Y92759D01*
X46931Y92520D01*
X47557D01*
X48136Y92759D01*
X48579Y93202D01*
X48819Y93781D01*
Y94408D01*
X48579Y94986D01*
X48136Y95429D01*
X47557Y95669D01*
D02*
G37*
G36*
X362912Y93012D02*
X362285D01*
X361706Y92772D01*
X361263Y92329D01*
X361024Y91750D01*
Y91124D01*
X361263Y90545D01*
X361706Y90102D01*
X362285Y89862D01*
X362912D01*
X363491Y90102D01*
X363933Y90545D01*
X364173Y91124D01*
Y91750D01*
X363933Y92329D01*
X363491Y92772D01*
X362912Y93012D01*
D02*
G37*
G36*
X195983Y92520D02*
X195356D01*
X194777Y92280D01*
X194334Y91837D01*
X194095Y91258D01*
Y90632D01*
X194334Y90053D01*
X194777Y89610D01*
X195356Y89370D01*
X195983D01*
X196561Y89610D01*
X197004Y90053D01*
X197244Y90632D01*
Y91258D01*
X197004Y91837D01*
X196561Y92280D01*
X195983Y92520D01*
D02*
G37*
G36*
X119998D02*
X119372D01*
X118793Y92280D01*
X118350Y91837D01*
X118110Y91258D01*
Y90632D01*
X118350Y90053D01*
X118793Y89610D01*
X119372Y89370D01*
X119998D01*
X120577Y89610D01*
X121020Y90053D01*
X121260Y90632D01*
Y91258D01*
X121020Y91837D01*
X120577Y92280D01*
X119998Y92520D01*
D02*
G37*
G36*
X178842Y92308D02*
X178216D01*
X177637Y92069D01*
X177194Y91626D01*
X176954Y91047D01*
Y90420D01*
X177194Y89842D01*
X177637Y89399D01*
X178216Y89159D01*
X178842D01*
X179421Y89399D01*
X179864Y89842D01*
X180104Y90420D01*
Y91047D01*
X179864Y91626D01*
X179421Y92069D01*
X178842Y92308D01*
D02*
G37*
G36*
X516240Y96004D02*
X508799D01*
Y88563D01*
X516240D01*
Y96004D01*
D02*
G37*
G36*
X51888Y90551D02*
X51262D01*
X50683Y90311D01*
X50240Y89868D01*
X50000Y89290D01*
Y88663D01*
X50240Y88084D01*
X50683Y87641D01*
X51262Y87402D01*
X51888D01*
X52467Y87641D01*
X52910Y88084D01*
X53150Y88663D01*
Y89290D01*
X52910Y89868D01*
X52467Y90311D01*
X51888Y90551D01*
D02*
G37*
G36*
X138502Y90158D02*
X137876D01*
X137297Y89918D01*
X136854Y89475D01*
X136614Y88896D01*
Y88270D01*
X136854Y87691D01*
X137297Y87248D01*
X137876Y87008D01*
X138502D01*
X139081Y87248D01*
X139524Y87691D01*
X139764Y88270D01*
Y88896D01*
X139524Y89475D01*
X139081Y89918D01*
X138502Y90158D01*
D02*
G37*
G36*
X149526Y90158D02*
X148899D01*
X148321Y89918D01*
X147878Y89475D01*
X147638Y88896D01*
Y88269D01*
X147878Y87691D01*
X148321Y87248D01*
X148899Y87008D01*
X149526D01*
X150105Y87248D01*
X150548Y87691D01*
X150787Y88269D01*
Y88896D01*
X150548Y89475D01*
X150105Y89918D01*
X149526Y90158D01*
D02*
G37*
G36*
X180631Y88980D02*
X180005D01*
X179426Y88740D01*
X178983Y88297D01*
X178743Y87718D01*
Y87091D01*
X178983Y86513D01*
X179426Y86070D01*
X180005Y85830D01*
X180631D01*
X181210Y86070D01*
X181653Y86513D01*
X181893Y87091D01*
Y87718D01*
X181653Y88297D01*
X181210Y88740D01*
X180631Y88980D01*
D02*
G37*
G36*
X524191Y90551D02*
X523211D01*
X522265Y90298D01*
X521416Y89808D01*
X520724Y89115D01*
X520234Y88267D01*
X519980Y87321D01*
Y86341D01*
X520234Y85395D01*
X520724Y84546D01*
X521416Y83854D01*
X522265Y83364D01*
X523211Y83110D01*
X524191D01*
X525137Y83364D01*
X525985Y83854D01*
X526678Y84546D01*
X527168Y85395D01*
X527421Y86341D01*
Y87321D01*
X527168Y88267D01*
X526678Y89115D01*
X525985Y89808D01*
X525137Y90298D01*
X524191Y90551D01*
D02*
G37*
G36*
X263699Y85827D02*
X263073D01*
X262494Y85587D01*
X262051Y85144D01*
X261811Y84565D01*
Y83939D01*
X262051Y83360D01*
X262494Y82917D01*
X263073Y82677D01*
X263699D01*
X264278Y82917D01*
X264721Y83360D01*
X264961Y83939D01*
Y84565D01*
X264721Y85144D01*
X264278Y85587D01*
X263699Y85827D01*
D02*
G37*
G36*
X182849Y85686D02*
X182223D01*
X181644Y85446D01*
X181201Y85003D01*
X180961Y84424D01*
Y83798D01*
X181201Y83219D01*
X181644Y82776D01*
X182223Y82536D01*
X182849D01*
X183428Y82776D01*
X183871Y83219D01*
X184111Y83798D01*
Y84424D01*
X183871Y85003D01*
X183428Y85446D01*
X182849Y85686D01*
D02*
G37*
G36*
X252676Y85039D02*
X252049D01*
X251470Y84800D01*
X251027Y84357D01*
X250787Y83778D01*
Y83151D01*
X251027Y82573D01*
X251470Y82130D01*
X252049Y81890D01*
X252676D01*
X253254Y82130D01*
X253697Y82573D01*
X253937Y83151D01*
Y83778D01*
X253697Y84357D01*
X253254Y84800D01*
X252676Y85039D01*
D02*
G37*
G36*
X138502Y81496D02*
X137876D01*
X137297Y81256D01*
X136854Y80813D01*
X136614Y80234D01*
Y79608D01*
X136854Y79029D01*
X137297Y78586D01*
X137876Y78347D01*
X138502D01*
X139081Y78586D01*
X139524Y79029D01*
X139764Y79608D01*
Y80234D01*
X139524Y80813D01*
X139081Y81256D01*
X138502Y81496D01*
D02*
G37*
G36*
X20906Y81398D02*
Y78071D01*
X24233D01*
X23984Y79000D01*
X23465Y79898D01*
X22732Y80631D01*
X21835Y81149D01*
X20906Y81398D01*
D02*
G37*
G36*
X19724Y81398D02*
X18795Y81149D01*
X17898Y80631D01*
X17165Y79898D01*
X16646Y79000D01*
X16397Y78071D01*
X19724D01*
Y81398D01*
D02*
G37*
G36*
X182990Y81102D02*
X182364D01*
X181785Y80863D01*
X181342Y80420D01*
X181102Y79841D01*
Y79214D01*
X181342Y78636D01*
X181785Y78193D01*
X182364Y77953D01*
X182990D01*
X183569Y78193D01*
X184012Y78636D01*
X184252Y79214D01*
Y79841D01*
X184012Y80420D01*
X183569Y80863D01*
X182990Y81102D01*
D02*
G37*
G36*
X513010Y85098D02*
X512030D01*
X511084Y84845D01*
X510235Y84355D01*
X509543Y83662D01*
X509053Y82814D01*
X508799Y81868D01*
Y80888D01*
X509053Y79942D01*
X509543Y79093D01*
X510235Y78401D01*
X511084Y77911D01*
X512030Y77658D01*
X513010D01*
X513956Y77911D01*
X514804Y78401D01*
X515497Y79093D01*
X515987Y79942D01*
X516240Y80888D01*
Y81868D01*
X515987Y82814D01*
X515497Y83662D01*
X514804Y84355D01*
X513956Y84845D01*
X513010Y85098D01*
D02*
G37*
G36*
X30755Y80827D02*
X29874D01*
X29023Y80599D01*
X28260Y80158D01*
X27637Y79535D01*
X27197Y78772D01*
X26969Y77921D01*
Y77040D01*
X27197Y76189D01*
X27637Y75425D01*
X28260Y74803D01*
X29023Y74362D01*
X29874Y74134D01*
X30755D01*
X31607Y74362D01*
X32370Y74803D01*
X32993Y75425D01*
X33433Y76189D01*
X33661Y77040D01*
Y77921D01*
X33433Y78772D01*
X32993Y79535D01*
X32370Y80158D01*
X31607Y80599D01*
X30755Y80827D01*
D02*
G37*
G36*
X19724Y76890D02*
X16397D01*
X16646Y75961D01*
X17165Y75063D01*
X17898Y74330D01*
X18795Y73812D01*
X19724Y73563D01*
Y76890D01*
D02*
G37*
G36*
X24233D02*
X20906D01*
Y73563D01*
X21835Y73812D01*
X22732Y74330D01*
X23465Y75063D01*
X23984Y75961D01*
X24233Y76890D01*
D02*
G37*
G36*
X524191Y79646D02*
X523211D01*
X522265Y79392D01*
X521416Y78902D01*
X520724Y78210D01*
X520234Y77361D01*
X519980Y76415D01*
Y75435D01*
X520234Y74489D01*
X520724Y73641D01*
X521416Y72948D01*
X522265Y72458D01*
X523211Y72205D01*
X524191D01*
X525137Y72458D01*
X525985Y72948D01*
X526678Y73641D01*
X527168Y74489D01*
X527421Y75435D01*
Y76415D01*
X527168Y77361D01*
X526678Y78210D01*
X525985Y78902D01*
X525137Y79392D01*
X524191Y79646D01*
D02*
G37*
G36*
X414880Y74803D02*
X414254D01*
X413675Y74563D01*
X413232Y74120D01*
X412992Y73542D01*
Y72915D01*
X413232Y72336D01*
X413675Y71893D01*
X414254Y71653D01*
X414880D01*
X415459Y71893D01*
X415902Y72336D01*
X416142Y72915D01*
Y73542D01*
X415902Y74120D01*
X415459Y74563D01*
X414880Y74803D01*
D02*
G37*
G36*
X51888Y72047D02*
X51262D01*
X50683Y71807D01*
X50240Y71364D01*
X50000Y70786D01*
Y70159D01*
X50240Y69580D01*
X50683Y69137D01*
X51262Y68898D01*
X51888D01*
X52467Y69137D01*
X52910Y69580D01*
X53150Y70159D01*
Y70786D01*
X52910Y71364D01*
X52467Y71807D01*
X51888Y72047D01*
D02*
G37*
G36*
X209551Y71864D02*
X208925D01*
X208346Y71624D01*
X207903Y71181D01*
X207663Y70603D01*
Y69976D01*
X207903Y69397D01*
X208346Y68954D01*
X208925Y68715D01*
X209551D01*
X210130Y68954D01*
X210573Y69397D01*
X210813Y69976D01*
Y70603D01*
X210573Y71181D01*
X210130Y71624D01*
X209551Y71864D01*
D02*
G37*
G36*
X108581Y70866D02*
X107955D01*
X107376Y70626D01*
X106933Y70183D01*
X106693Y69605D01*
Y68978D01*
X106933Y68399D01*
X107376Y67956D01*
X107955Y67716D01*
X108581D01*
X109160Y67956D01*
X109603Y68399D01*
X109843Y68978D01*
Y69605D01*
X109603Y70183D01*
X109160Y70626D01*
X108581Y70866D01*
D02*
G37*
G36*
X513010Y74193D02*
X512030D01*
X511084Y73939D01*
X510235Y73450D01*
X509543Y72757D01*
X509053Y71908D01*
X508799Y70962D01*
Y69983D01*
X509053Y69036D01*
X509543Y68188D01*
X510235Y67495D01*
X511084Y67005D01*
X512030Y66752D01*
X513010D01*
X513956Y67005D01*
X514804Y67495D01*
X515497Y68188D01*
X515987Y69036D01*
X516240Y69983D01*
Y70962D01*
X515987Y71908D01*
X515497Y72757D01*
X514804Y73450D01*
X513956Y73939D01*
X513010Y74193D01*
D02*
G37*
G36*
X364487Y68898D02*
X363860D01*
X363281Y68658D01*
X362838Y68215D01*
X362598Y67636D01*
Y67010D01*
X362838Y66431D01*
X363281Y65988D01*
X363860Y65748D01*
X364487D01*
X365065Y65988D01*
X365508Y66431D01*
X365748Y67010D01*
Y67636D01*
X365508Y68215D01*
X365065Y68658D01*
X364487Y68898D01*
D02*
G37*
G36*
X81022D02*
X80395D01*
X79817Y68658D01*
X79374Y68215D01*
X79134Y67636D01*
Y67010D01*
X79374Y66431D01*
X79817Y65988D01*
X80395Y65748D01*
X81022D01*
X81601Y65988D01*
X82044Y66431D01*
X82284Y67010D01*
Y67636D01*
X82044Y68215D01*
X81601Y68658D01*
X81022Y68898D01*
D02*
G37*
G36*
X30755Y70827D02*
X29874D01*
X29023Y70599D01*
X28260Y70158D01*
X27637Y69535D01*
X27197Y68772D01*
X26969Y67921D01*
Y67040D01*
X27197Y66189D01*
X27637Y65425D01*
X28260Y64802D01*
X29023Y64362D01*
X29874Y64134D01*
X30755D01*
X31607Y64362D01*
X32370Y64802D01*
X32993Y65425D01*
X33433Y66189D01*
X33661Y67040D01*
Y67921D01*
X33433Y68772D01*
X32993Y69535D01*
X32370Y70158D01*
X31607Y70599D01*
X30755Y70827D01*
D02*
G37*
G36*
X20755D02*
X19874D01*
X19023Y70599D01*
X18260Y70158D01*
X17637Y69535D01*
X17197Y68772D01*
X16969Y67921D01*
Y67040D01*
X17197Y66189D01*
X17637Y65425D01*
X18260Y64802D01*
X19023Y64362D01*
X19874Y64134D01*
X20755D01*
X21607Y64362D01*
X22370Y64802D01*
X22993Y65425D01*
X23433Y66189D01*
X23661Y67040D01*
Y67921D01*
X23433Y68772D01*
X22993Y69535D01*
X22370Y70158D01*
X21607Y70599D01*
X20755Y70827D01*
D02*
G37*
G36*
X524191Y68740D02*
X523211D01*
X522265Y68487D01*
X521416Y67997D01*
X520724Y67304D01*
X520234Y66456D01*
X519980Y65509D01*
Y64530D01*
X520234Y63584D01*
X520724Y62735D01*
X521416Y62043D01*
X522265Y61553D01*
X523211Y61299D01*
X524191D01*
X525137Y61553D01*
X525985Y62043D01*
X526678Y62735D01*
X527168Y63584D01*
X527421Y64530D01*
Y65509D01*
X527168Y66456D01*
X526678Y67304D01*
X525985Y67997D01*
X525137Y68487D01*
X524191Y68740D01*
D02*
G37*
G36*
X182597Y62598D02*
X181970D01*
X181391Y62359D01*
X180948Y61916D01*
X180709Y61337D01*
Y60710D01*
X180948Y60132D01*
X181391Y59689D01*
X181970Y59449D01*
X182597D01*
X183176Y59689D01*
X183618Y60132D01*
X183858Y60710D01*
Y61337D01*
X183618Y61916D01*
X183176Y62359D01*
X182597Y62598D01*
D02*
G37*
G36*
X344014Y62205D02*
X343388D01*
X342809Y61965D01*
X342366Y61522D01*
X342126Y60943D01*
Y60317D01*
X342366Y59738D01*
X342809Y59295D01*
X343388Y59055D01*
X344014D01*
X344593Y59295D01*
X345036Y59738D01*
X345276Y60317D01*
Y60943D01*
X345036Y61522D01*
X344593Y61965D01*
X344014Y62205D01*
D02*
G37*
G36*
X315274D02*
X314647D01*
X314069Y61965D01*
X313626Y61522D01*
X313386Y60943D01*
Y60317D01*
X313626Y59738D01*
X314069Y59295D01*
X314647Y59055D01*
X315274D01*
X315853Y59295D01*
X316296Y59738D01*
X316535Y60317D01*
Y60943D01*
X316296Y61522D01*
X315853Y61965D01*
X315274Y62205D01*
D02*
G37*
G36*
X462124Y61417D02*
X461498D01*
X460919Y61178D01*
X460476Y60735D01*
X460236Y60156D01*
Y59529D01*
X460476Y58951D01*
X460919Y58508D01*
X461498Y58268D01*
X462124D01*
X462703Y58508D01*
X463146Y58951D01*
X463386Y59529D01*
Y60156D01*
X463146Y60735D01*
X462703Y61178D01*
X462124Y61417D01*
D02*
G37*
G36*
X20906Y61398D02*
Y58071D01*
X24233D01*
X23984Y59000D01*
X23465Y59898D01*
X22732Y60631D01*
X21835Y61149D01*
X20906Y61398D01*
D02*
G37*
G36*
X19724D02*
X18795Y61149D01*
X17898Y60631D01*
X17165Y59898D01*
X16646Y59000D01*
X16397Y58071D01*
X19724D01*
Y61398D01*
D02*
G37*
G36*
X128266Y61024D02*
X127639D01*
X127061Y60784D01*
X126618Y60341D01*
X126378Y59762D01*
Y59136D01*
X126618Y58557D01*
X127061Y58114D01*
X127639Y57874D01*
X128266D01*
X128845Y58114D01*
X129288Y58557D01*
X129528Y59136D01*
Y59762D01*
X129288Y60341D01*
X128845Y60784D01*
X128266Y61024D01*
D02*
G37*
G36*
X413896Y60433D02*
X413269D01*
X412691Y60193D01*
X412248Y59750D01*
X412008Y59171D01*
Y58545D01*
X412248Y57966D01*
X412691Y57523D01*
X413269Y57284D01*
X413896D01*
X414475Y57523D01*
X414918Y57966D01*
X415158Y58545D01*
Y59171D01*
X414918Y59750D01*
X414475Y60193D01*
X413896Y60433D01*
D02*
G37*
G36*
X455825Y60236D02*
X455199D01*
X454620Y59996D01*
X454177Y59553D01*
X453937Y58975D01*
Y58348D01*
X454177Y57769D01*
X454620Y57326D01*
X455199Y57087D01*
X455825D01*
X456404Y57326D01*
X456847Y57769D01*
X457087Y58348D01*
Y58975D01*
X456847Y59553D01*
X456404Y59996D01*
X455825Y60236D01*
D02*
G37*
G36*
X513010Y63287D02*
X512030D01*
X511084Y63034D01*
X510235Y62544D01*
X509543Y61851D01*
X509053Y61003D01*
X508799Y60057D01*
Y59077D01*
X509053Y58131D01*
X509543Y57283D01*
X510235Y56590D01*
X511084Y56100D01*
X512030Y55847D01*
X513010D01*
X513956Y56100D01*
X514804Y56590D01*
X515497Y57283D01*
X515987Y58131D01*
X516240Y59077D01*
Y60057D01*
X515987Y61003D01*
X515497Y61851D01*
X514804Y62544D01*
X513956Y63034D01*
X513010Y63287D01*
D02*
G37*
G36*
X179447Y58661D02*
X178821D01*
X178242Y58422D01*
X177799Y57979D01*
X177559Y57400D01*
Y56773D01*
X177799Y56195D01*
X178242Y55752D01*
X178821Y55512D01*
X179447D01*
X180026Y55752D01*
X180469Y56195D01*
X180709Y56773D01*
Y57400D01*
X180469Y57979D01*
X180026Y58422D01*
X179447Y58661D01*
D02*
G37*
G36*
X166061D02*
X165435D01*
X164856Y58422D01*
X164413Y57979D01*
X164173Y57400D01*
Y56773D01*
X164413Y56195D01*
X164856Y55752D01*
X165435Y55512D01*
X166061D01*
X166640Y55752D01*
X167083Y56195D01*
X167323Y56773D01*
Y57400D01*
X167083Y57979D01*
X166640Y58422D01*
X166061Y58661D01*
D02*
G37*
G36*
X382203Y58268D02*
X381576D01*
X380998Y58028D01*
X380555Y57585D01*
X380315Y57006D01*
Y56380D01*
X380555Y55801D01*
X380998Y55358D01*
X381576Y55118D01*
X382203D01*
X382782Y55358D01*
X383225Y55801D01*
X383465Y56380D01*
Y57006D01*
X383225Y57585D01*
X382782Y58028D01*
X382203Y58268D01*
D02*
G37*
G36*
X30755Y60827D02*
X29874D01*
X29023Y60599D01*
X28260Y60158D01*
X27637Y59535D01*
X27197Y58772D01*
X26969Y57921D01*
Y57040D01*
X27197Y56189D01*
X27637Y55426D01*
X28260Y54803D01*
X29023Y54362D01*
X29874Y54134D01*
X30755D01*
X31607Y54362D01*
X32370Y54803D01*
X32993Y55426D01*
X33433Y56189D01*
X33661Y57040D01*
Y57921D01*
X33433Y58772D01*
X32993Y59535D01*
X32370Y60158D01*
X31607Y60599D01*
X30755Y60827D01*
D02*
G37*
G36*
X24233Y56890D02*
X20906D01*
Y53563D01*
X21835Y53812D01*
X22732Y54330D01*
X23465Y55063D01*
X23984Y55961D01*
X24233Y56890D01*
D02*
G37*
G36*
X19724D02*
X16397D01*
X16646Y55961D01*
X17165Y55063D01*
X17898Y54330D01*
X18795Y53812D01*
X19724Y53563D01*
Y56890D01*
D02*
G37*
G36*
X524191Y57835D02*
X523211D01*
X522265Y57581D01*
X521416Y57091D01*
X520724Y56399D01*
X520234Y55550D01*
X519980Y54604D01*
Y53624D01*
X520234Y52678D01*
X520724Y51830D01*
X521416Y51137D01*
X522265Y50647D01*
X523211Y50394D01*
X524191D01*
X525137Y50647D01*
X525985Y51137D01*
X526678Y51830D01*
X527168Y52678D01*
X527421Y53624D01*
Y54604D01*
X527168Y55550D01*
X526678Y56399D01*
X525985Y57091D01*
X525137Y57581D01*
X524191Y57835D01*
D02*
G37*
G36*
X173542Y53543D02*
X172915D01*
X172336Y53303D01*
X171893Y52861D01*
X171653Y52282D01*
Y51655D01*
X171893Y51076D01*
X172336Y50633D01*
X172915Y50394D01*
X173542D01*
X174120Y50633D01*
X174563Y51076D01*
X174803Y51655D01*
Y52282D01*
X174563Y52861D01*
X174120Y53303D01*
X173542Y53543D01*
D02*
G37*
G36*
X141652Y50394D02*
X141025D01*
X140446Y50154D01*
X140004Y49711D01*
X139977Y49646D01*
X139551D01*
X139524Y49711D01*
X139081Y50154D01*
X138502Y50394D01*
X137876D01*
X137297Y50154D01*
X136854Y49711D01*
X136614Y49132D01*
Y48506D01*
X136854Y47927D01*
X137297Y47484D01*
X137876Y47244D01*
X138502D01*
X139081Y47484D01*
X139524Y47927D01*
X139551Y47991D01*
X139977D01*
X140004Y47927D01*
X140446Y47484D01*
X141025Y47244D01*
X141652D01*
X142231Y47484D01*
X142674Y47927D01*
X142913Y48506D01*
Y49132D01*
X142674Y49711D01*
X142231Y50154D01*
X141652Y50394D01*
D02*
G37*
G36*
X382203D02*
X381576D01*
X380998Y50154D01*
X380555Y49711D01*
X380315Y49132D01*
Y48506D01*
X380555Y47927D01*
X380998Y47484D01*
X381576Y47244D01*
X382203D01*
X382782Y47484D01*
X383225Y47927D01*
X383465Y48506D01*
Y49132D01*
X383225Y49711D01*
X382782Y50154D01*
X382203Y50394D01*
D02*
G37*
G36*
X513010Y52382D02*
X512030D01*
X511084Y52128D01*
X510235Y51639D01*
X509543Y50946D01*
X509053Y50098D01*
X508799Y49151D01*
Y48172D01*
X509053Y47225D01*
X509543Y46377D01*
X510235Y45684D01*
X511084Y45195D01*
X512030Y44941D01*
X513010D01*
X513956Y45195D01*
X514804Y45684D01*
X515497Y46377D01*
X515987Y47225D01*
X516240Y48172D01*
Y49151D01*
X515987Y50098D01*
X515497Y50946D01*
X514804Y51639D01*
X513956Y52128D01*
X513010Y52382D01*
D02*
G37*
G36*
X116455Y48031D02*
X115829D01*
X115250Y47792D01*
X114807Y47349D01*
X114567Y46770D01*
Y46143D01*
X114807Y45565D01*
X115250Y45122D01*
X115829Y44882D01*
X116455D01*
X117034Y45122D01*
X117477Y45565D01*
X117717Y46143D01*
Y46770D01*
X117477Y47349D01*
X117034Y47792D01*
X116455Y48031D01*
D02*
G37*
G36*
X30755Y50827D02*
X29874D01*
X29023Y50599D01*
X28260Y50158D01*
X27637Y49535D01*
X27197Y48772D01*
X26969Y47921D01*
Y47040D01*
X27197Y46189D01*
X27637Y45426D01*
X28260Y44802D01*
X29023Y44362D01*
X29874Y44134D01*
X30755D01*
X31607Y44362D01*
X32370Y44802D01*
X32993Y45426D01*
X33433Y46189D01*
X33661Y47040D01*
Y47921D01*
X33433Y48772D01*
X32993Y49535D01*
X32370Y50158D01*
X31607Y50599D01*
X30755Y50827D01*
D02*
G37*
G36*
X20755D02*
X19874D01*
X19023Y50599D01*
X18260Y50158D01*
X17637Y49535D01*
X17197Y48772D01*
X16969Y47921D01*
Y47040D01*
X17197Y46189D01*
X17637Y45426D01*
X18260Y44802D01*
X19023Y44362D01*
X19874Y44134D01*
X20755D01*
X21607Y44362D01*
X22370Y44802D01*
X22993Y45426D01*
X23433Y46189D01*
X23661Y47040D01*
Y47921D01*
X23433Y48772D01*
X22993Y49535D01*
X22370Y50158D01*
X21607Y50599D01*
X20755Y50827D01*
D02*
G37*
G36*
X414902Y46063D02*
X414276D01*
X413697Y45823D01*
X413254Y45380D01*
X413014Y44801D01*
Y44175D01*
X413254Y43596D01*
X413697Y43153D01*
X414276Y42913D01*
X414902D01*
X415481Y43153D01*
X415924Y43596D01*
X416164Y44175D01*
Y44801D01*
X415924Y45380D01*
X415481Y45823D01*
X414902Y46063D01*
D02*
G37*
G36*
X73148Y44791D02*
X72521D01*
X71943Y44552D01*
X71500Y44109D01*
X71260Y43530D01*
Y42903D01*
X71500Y42325D01*
X71943Y41881D01*
X72521Y41642D01*
X73148D01*
X73727Y41881D01*
X74170Y42325D01*
X74410Y42903D01*
Y43530D01*
X74170Y44109D01*
X73727Y44552D01*
X73148Y44791D01*
D02*
G37*
G36*
X151593Y44587D02*
X150966D01*
X150388Y44347D01*
X149944Y43904D01*
X149705Y43325D01*
Y42699D01*
X149944Y42120D01*
X150388Y41677D01*
X150966Y41437D01*
X151593D01*
X152172Y41677D01*
X152615Y42120D01*
X152854Y42699D01*
Y43325D01*
X152615Y43904D01*
X152172Y44347D01*
X151593Y44587D01*
D02*
G37*
G36*
X441258Y42913D02*
X440632D01*
X440053Y42674D01*
X439610Y42231D01*
X439370Y41652D01*
Y41025D01*
X439610Y40446D01*
X440053Y40003D01*
X440632Y39764D01*
X441258D01*
X441837Y40003D01*
X442280Y40446D01*
X442520Y41025D01*
Y41652D01*
X442280Y42231D01*
X441837Y42674D01*
X441258Y42913D01*
D02*
G37*
G36*
X382203D02*
X381576D01*
X380998Y42674D01*
X380555Y42231D01*
X380315Y41652D01*
Y41025D01*
X380555Y40446D01*
X380998Y40003D01*
X381576Y39764D01*
X382203D01*
X382782Y40003D01*
X383225Y40446D01*
X383465Y41025D01*
Y41652D01*
X383225Y42231D01*
X382782Y42674D01*
X382203Y42913D01*
D02*
G37*
G36*
X455825Y42520D02*
X455199D01*
X454620Y42280D01*
X454177Y41837D01*
X453937Y41258D01*
Y40632D01*
X454177Y40053D01*
X454620Y39610D01*
X455199Y39370D01*
X455825D01*
X456404Y39610D01*
X456847Y40053D01*
X457087Y40632D01*
Y41258D01*
X456847Y41837D01*
X456404Y42280D01*
X455825Y42520D01*
D02*
G37*
G36*
X146770Y41732D02*
X146143D01*
X145565Y41493D01*
X145122Y41050D01*
X144882Y40471D01*
Y39844D01*
X145122Y39265D01*
X145565Y38822D01*
X146143Y38583D01*
X146770D01*
X147349Y38822D01*
X147792Y39265D01*
X148031Y39844D01*
Y40471D01*
X147792Y41050D01*
X147349Y41493D01*
X146770Y41732D01*
D02*
G37*
G36*
X86534Y41339D02*
X85907D01*
X85328Y41099D01*
X84885Y40656D01*
X84646Y40077D01*
Y39450D01*
X84885Y38872D01*
X85328Y38429D01*
X85907Y38189D01*
X86534D01*
X87112Y38429D01*
X87555Y38872D01*
X87795Y39450D01*
Y40077D01*
X87555Y40656D01*
X87112Y41099D01*
X86534Y41339D01*
D02*
G37*
G36*
X20906Y41398D02*
Y38071D01*
X24233D01*
X23984Y39000D01*
X23465Y39898D01*
X22732Y40631D01*
X21835Y41149D01*
X20906Y41398D01*
D02*
G37*
G36*
X19724D02*
X18795Y41149D01*
X17898Y40631D01*
X17165Y39898D01*
X16646Y39000D01*
X16397Y38071D01*
X19724D01*
Y41398D01*
D02*
G37*
G36*
X317144Y40453D02*
X316517D01*
X315939Y40213D01*
X315496Y39770D01*
X315256Y39191D01*
Y38565D01*
X315496Y37986D01*
X315939Y37543D01*
X316517Y37303D01*
X317144D01*
X317723Y37543D01*
X318166Y37986D01*
X318406Y38565D01*
Y39191D01*
X318166Y39770D01*
X317723Y40213D01*
X317144Y40453D01*
D02*
G37*
G36*
X365274Y38484D02*
X364647D01*
X364069Y38245D01*
X363626Y37802D01*
X363386Y37223D01*
Y36596D01*
X363626Y36017D01*
X364069Y35574D01*
X364647Y35335D01*
X365274D01*
X365853Y35574D01*
X366296Y36017D01*
X366535Y36596D01*
Y37223D01*
X366296Y37802D01*
X365853Y38245D01*
X365274Y38484D01*
D02*
G37*
G36*
X30755Y40827D02*
X29874D01*
X29023Y40599D01*
X28260Y40158D01*
X27637Y39535D01*
X27197Y38772D01*
X26969Y37921D01*
Y37040D01*
X27197Y36189D01*
X27637Y35425D01*
X28260Y34802D01*
X29023Y34362D01*
X29874Y34134D01*
X30755D01*
X31607Y34362D01*
X32370Y34802D01*
X32993Y35425D01*
X33433Y36189D01*
X33661Y37040D01*
Y37921D01*
X33433Y38772D01*
X32993Y39535D01*
X32370Y40158D01*
X31607Y40599D01*
X30755Y40827D01*
D02*
G37*
G36*
X24233Y36890D02*
X20906D01*
Y33563D01*
X21835Y33812D01*
X22732Y34330D01*
X23465Y35063D01*
X23984Y35961D01*
X24233Y36890D01*
D02*
G37*
G36*
X19724D02*
X16397D01*
X16646Y35961D01*
X17165Y35063D01*
X17898Y34330D01*
X18795Y33812D01*
X19724Y33563D01*
Y36890D01*
D02*
G37*
G36*
X338502Y35827D02*
X337876D01*
X337297Y35587D01*
X336854Y35144D01*
X336614Y34565D01*
Y33939D01*
X336854Y33360D01*
X337297Y32917D01*
X337876Y32677D01*
X338502D01*
X339081Y32917D01*
X339524Y33360D01*
X339764Y33939D01*
Y34565D01*
X339524Y35144D01*
X339081Y35587D01*
X338502Y35827D01*
D02*
G37*
G36*
X333384Y33858D02*
X332758D01*
X332179Y33619D01*
X331736Y33176D01*
X331496Y32597D01*
Y31970D01*
X331736Y31391D01*
X332179Y30948D01*
X332758Y30709D01*
X333384D01*
X333963Y30948D01*
X334406Y31391D01*
X334646Y31970D01*
Y32597D01*
X334406Y33176D01*
X333963Y33619D01*
X333384Y33858D01*
D02*
G37*
G36*
X199132D02*
X198506D01*
X197927Y33619D01*
X197484Y33176D01*
X197244Y32597D01*
Y31970D01*
X197484Y31391D01*
X197927Y30948D01*
X198506Y30709D01*
X199132D01*
X199711Y30948D01*
X200154Y31391D01*
X200394Y31970D01*
Y32597D01*
X200154Y33176D01*
X199711Y33619D01*
X199132Y33858D01*
D02*
G37*
G36*
X327479Y33465D02*
X326852D01*
X326273Y33225D01*
X325830Y32782D01*
X325590Y32203D01*
Y31576D01*
X325830Y30998D01*
X326273Y30555D01*
X326852Y30315D01*
X327479D01*
X328057Y30555D01*
X328500Y30998D01*
X328740Y31576D01*
Y32203D01*
X328500Y32782D01*
X328057Y33225D01*
X327479Y33465D01*
D02*
G37*
G36*
X177085Y30315D02*
X176458D01*
X175880Y30075D01*
X175437Y29632D01*
X175197Y29053D01*
Y28427D01*
X175437Y27848D01*
X175880Y27405D01*
X176458Y27165D01*
X177085D01*
X177664Y27405D01*
X178107Y27848D01*
X178347Y28427D01*
Y29053D01*
X178107Y29632D01*
X177664Y30075D01*
X177085Y30315D01*
D02*
G37*
G36*
X307794Y27953D02*
X307167D01*
X306588Y27713D01*
X306145Y27270D01*
X305906Y26691D01*
Y26065D01*
X306145Y25486D01*
X306588Y25043D01*
X307167Y24803D01*
X307794D01*
X308372Y25043D01*
X308815Y25486D01*
X309055Y26065D01*
Y26691D01*
X308815Y27270D01*
X308372Y27713D01*
X307794Y27953D01*
D02*
G37*
G36*
X33661Y30827D02*
X26969D01*
Y24134D01*
X33661D01*
Y30827D01*
D02*
G37*
G36*
X20755D02*
X19874D01*
X19023Y30599D01*
X18260Y30158D01*
X17637Y29535D01*
X17197Y28772D01*
X16969Y27921D01*
Y27040D01*
X17197Y26189D01*
X17637Y25425D01*
X18260Y24803D01*
X19023Y24362D01*
X19874Y24134D01*
X20755D01*
X21607Y24362D01*
X22370Y24803D01*
X22993Y25425D01*
X23433Y26189D01*
X23661Y27040D01*
Y27921D01*
X23433Y28772D01*
X22993Y29535D01*
X22370Y30158D01*
X21607Y30599D01*
X20755Y30827D01*
D02*
G37*
G36*
X338502Y24409D02*
X337876D01*
X337297Y24170D01*
X336854Y23727D01*
X336614Y23148D01*
Y22521D01*
X336854Y21943D01*
X337297Y21500D01*
X337876Y21260D01*
X338502D01*
X339081Y21500D01*
X339524Y21943D01*
X339764Y22521D01*
Y23148D01*
X339524Y23727D01*
X339081Y24170D01*
X338502Y24409D01*
D02*
G37*
G36*
X519072Y31043D02*
X517149D01*
X515262Y30668D01*
X513485Y29932D01*
X511886Y28863D01*
X510526Y27504D01*
X509458Y25904D01*
X508722Y24127D01*
X508347Y22241D01*
Y20318D01*
X508722Y18431D01*
X509458Y16655D01*
X510526Y15055D01*
X511886Y13695D01*
X513485Y12627D01*
X515262Y11891D01*
X517149Y11516D01*
X519072D01*
X520958Y11891D01*
X522735Y12627D01*
X524334Y13695D01*
X525694Y15055D01*
X526763Y16655D01*
X527499Y18431D01*
X527874Y20318D01*
Y22241D01*
X527499Y24127D01*
X526763Y25904D01*
X525694Y27504D01*
X524334Y28863D01*
X522735Y29932D01*
X520958Y30668D01*
X519072Y31043D01*
D02*
G37*
%LPD*%
D60*
X255551Y160276D02*
Y168465D01*
X149213Y241339D02*
X182677D01*
X146063Y238189D02*
X149213Y241339D01*
X107874Y238189D02*
X146063D01*
X182677Y241339D02*
X255551Y168465D01*
Y30354D02*
Y38543D01*
X149213Y111417D02*
X182677D01*
X146063Y108268D02*
X149213Y111417D01*
X107874Y108268D02*
X146063D01*
X182677Y111417D02*
X255551Y38543D01*
X182677Y371260D02*
X255551Y298386D01*
Y290197D02*
Y298386D01*
X107874Y368110D02*
X146063D01*
X149213Y371260D01*
X182677D01*
D64*
X20315Y77480D02*
D03*
Y57480D02*
D03*
Y37480D02*
D03*
X30709Y323543D02*
D03*
X20709D02*
D03*
X30709Y343543D02*
D03*
X20709D02*
D03*
X30709Y363543D02*
D03*
X20709D02*
D03*
D66*
X114173Y374410D02*
D03*
X196850Y332677D02*
D03*
X210630Y350787D02*
D03*
X235039Y360630D02*
D03*
X257480Y344094D02*
D03*
X273228Y379134D02*
D03*
X279921Y360630D02*
D03*
X366142Y357087D02*
D03*
X344094Y361811D02*
D03*
X414173Y364567D02*
D03*
Y375590D02*
D03*
X366142Y381102D02*
D03*
X344094Y385433D02*
D03*
X414567Y353937D02*
D03*
X413675Y386067D02*
D03*
X364961Y97638D02*
D03*
Y121653D02*
D03*
X344094Y101575D02*
D03*
Y125984D02*
D03*
X364961Y227165D02*
D03*
X344094Y231496D02*
D03*
X364961Y251181D02*
D03*
X344094Y255118D02*
D03*
X200000Y20472D02*
D03*
Y150394D02*
D03*
X200394Y279921D02*
D03*
X176772Y292913D02*
D03*
X-37402Y280315D02*
D03*
X12992Y284252D02*
D03*
X20472Y181890D02*
D03*
X19685Y133858D02*
D03*
X15748Y196850D02*
D03*
X22835Y232677D02*
D03*
X15354Y260630D02*
D03*
X56299Y39370D02*
D03*
X85905Y59764D02*
D03*
X123721Y244980D02*
D03*
X85905Y189685D02*
D03*
X107874Y309842D02*
D03*
X-37402Y132283D02*
D03*
Y141732D02*
D03*
X131496Y48819D02*
D03*
X120571Y70374D02*
D03*
X176772Y33071D02*
D03*
X116142Y39370D02*
D03*
X107973Y104823D02*
D03*
X56299Y169291D02*
D03*
X116142D02*
D03*
X131496Y178740D02*
D03*
X120571Y200295D02*
D03*
X76772Y108268D02*
D03*
Y238189D02*
D03*
X107874D02*
D03*
X149213Y241339D02*
D03*
X414567Y127559D02*
D03*
X414173Y115748D02*
D03*
Y104724D02*
D03*
X414567Y94095D02*
D03*
X273228Y119291D02*
D03*
X279921Y100787D02*
D03*
X235039D02*
D03*
X257480Y84252D02*
D03*
X414567Y257480D02*
D03*
X414173Y245669D02*
D03*
Y234646D02*
D03*
X414567Y224016D02*
D03*
X273228Y249213D02*
D03*
X279921Y230709D02*
D03*
X235039D02*
D03*
X257480Y214173D02*
D03*
X149213Y111417D02*
D03*
X107874Y108268D02*
D03*
X123721Y115059D02*
D03*
X188189Y90945D02*
D03*
X210630D02*
D03*
X196850Y72835D02*
D03*
X255551Y160276D02*
D03*
X107973Y234744D02*
D03*
X188189Y220866D02*
D03*
X210630D02*
D03*
X196850Y202756D02*
D03*
X176772Y162992D02*
D03*
X255551Y30354D02*
D03*
X56299Y299213D02*
D03*
X85905Y319606D02*
D03*
X131496Y308661D02*
D03*
X188189Y350787D02*
D03*
X120571Y330217D02*
D03*
X107973Y364665D02*
D03*
X255551Y290197D02*
D03*
X107874Y368110D02*
D03*
X149213Y371260D02*
D03*
X76772Y368110D02*
D03*
X218504Y280315D02*
D03*
M02*
