G04*
G04 #@! TF.GenerationSoftware,Altium Limited,Altium Designer,22.4.2 (48)*
G04*
G04 Layer_Physical_Order=4*
G04 Layer_Color=16711680*
%FSLAX25Y25*%
%MOIN*%
G70*
G04*
G04 #@! TF.SameCoordinates,7E99259A-5992-410F-866F-3BC1187B2F82*
G04*
G04*
G04 #@! TF.FilePolarity,Positive*
G04*
G01*
G75*
%ADD16C,0.01000*%
%ADD18R,0.11024X0.02165*%
%ADD59C,0.01181*%
%ADD60C,0.01968*%
%ADD61C,0.18740*%
%ADD62R,0.06653X0.06653*%
%ADD63C,0.06653*%
%ADD64C,0.05906*%
%ADD65R,0.05906X0.05906*%
%ADD66C,0.02362*%
D16*
X-28473Y118110D02*
X-16616D01*
X-16616Y118110D01*
X-33232Y113350D02*
X-28473Y118110D01*
X201575Y339370D02*
X211153Y329792D01*
X252362Y343307D02*
X254724Y340945D01*
X212010Y361218D02*
X212992Y360236D01*
X252362Y377559D02*
X256299Y381496D01*
X314961Y320472D02*
X327559Y333071D01*
X254724Y340945D02*
X291732D01*
X264748Y342339D02*
X291155D01*
X263386Y343701D02*
X264748Y342339D01*
X263386Y343701D02*
Y344094D01*
X291732Y340945D02*
X302067Y351279D01*
X291155Y342339D02*
X301490Y352673D01*
X302067Y351279D02*
X362598D01*
X301490Y352673D02*
X325114D01*
X327953Y355512D01*
X280709Y353937D02*
X283071Y356299D01*
X284462Y364751D02*
X286417Y362795D01*
X361614Y376772D02*
X363484Y374902D01*
X269443Y376641D02*
X269499Y376585D01*
X269443Y376641D02*
Y376641D01*
X269499Y376585D02*
X269685Y376772D01*
X361614D01*
X256299Y381496D02*
X328740D01*
X381890Y316535D02*
X411417D01*
X413583Y318701D01*
X455512Y318504D02*
X456693Y319685D01*
X461811D01*
X486614D01*
X489764Y322835D01*
Y337008D01*
X364173Y327165D02*
X364961Y326378D01*
X327559Y333071D02*
X414567D01*
X489764Y337008D02*
X492343Y339587D01*
X523701D01*
X489764Y207087D02*
X495886Y213209D01*
X523701D01*
X523878Y86614D02*
X524094Y86831D01*
X523484Y86614D02*
X523701Y86831D01*
X499213Y86614D02*
X523484D01*
X489764Y77165D02*
X499213Y86614D01*
X181890Y281496D02*
X185039D01*
X168504Y268110D02*
X181890Y281496D01*
X83071Y224016D02*
X118504Y188583D01*
X181890Y94095D02*
X280709D01*
X182677Y79528D02*
X200000D01*
X172619Y61024D02*
X182283D01*
X182536Y84111D02*
X202110D01*
X170079Y77165D02*
X180318Y87405D01*
X200000Y79528D02*
X209238Y70289D01*
X138189Y339764D02*
Y348425D01*
X-37402Y204724D02*
X26772D01*
X-37402Y211024D02*
X24016D01*
X31496Y201575D02*
X75591Y157480D01*
X-37795Y201575D02*
X31496D01*
X75591Y157480D02*
X146457D01*
X27953Y207874D02*
X75984Y159843D01*
X-38583Y207874D02*
X27953D01*
X75984Y159843D02*
X159449D01*
X24803Y214173D02*
X76378Y162598D01*
X159449D01*
X-37402Y214173D02*
X24803D01*
X-37402Y217323D02*
X24409D01*
X76772Y164961D02*
X155512D01*
X24409Y217323D02*
X76772Y164961D01*
X58661Y67323D02*
X80709D01*
X-40945Y166929D02*
X58661Y67323D01*
X-34252Y198425D02*
X-31102Y195276D01*
X-30315Y198425D02*
X-24409D01*
X-31102Y195276D02*
X-25591D01*
X-48819Y198425D02*
X-34252D01*
X-24409Y198425D02*
X50000Y124016D01*
X-37402Y220079D02*
X80315D01*
X-37795Y226772D02*
X12598D01*
X-37402Y223622D02*
X75197D01*
X-39370Y154331D02*
X5906Y109055D01*
Y55118D02*
Y109055D01*
X-42126Y160630D02*
X7874Y110630D01*
X13543Y47480D02*
X20315D01*
X5906Y55118D02*
X13543Y47480D01*
X13465Y27480D02*
X20315D01*
X3937Y37008D02*
X13465Y27480D01*
X3937Y37008D02*
Y107087D01*
X-43307Y154331D02*
X3937Y107087D01*
X7874Y72835D02*
Y110630D01*
Y72835D02*
X13228Y67480D01*
X20315D01*
X-38583Y160630D02*
X49213Y72835D01*
X-40945Y223622D02*
X-37402Y220079D01*
X-41732Y211024D02*
X-38583Y207874D01*
X-48819Y211024D02*
X-41732D01*
X-40945Y204724D02*
X-37795Y201575D01*
X-48819Y204724D02*
X-40945D01*
X80315Y220079D02*
X117323Y183071D01*
X118504Y188583D02*
X142126D01*
X117717Y185827D02*
X141732D01*
X76772Y226772D02*
X117717Y185827D01*
X-48819Y223622D02*
X-40945D01*
X12598Y226772D02*
X76772D01*
X-3937Y263386D02*
X104724D01*
X-37402Y229921D02*
X-3937Y263386D01*
X-40945Y229921D02*
X-37795Y226772D01*
X-48819Y229921D02*
X-40945D01*
X-4724Y265748D02*
X81102D01*
X-37402Y233071D02*
X-4724Y265748D01*
X-9449Y276772D02*
X66929D01*
X-37402Y236221D02*
X-5512Y268110D01*
X168504D01*
X-7874Y272047D02*
X166929D01*
X125591Y274016D02*
X143701Y292126D01*
X-37402Y239370D02*
X-6693Y270079D01*
X-37402Y242520D02*
X-7874Y272047D01*
X-8661Y274016D02*
X125591D01*
X-40551Y248819D02*
X-37205Y245472D01*
X-6693Y270079D02*
X167717D01*
X166929Y272047D02*
X196720Y301838D01*
X-37205Y245472D02*
X-8661Y274016D01*
X-40551Y242520D02*
X-37402Y239370D01*
X167717Y270079D02*
X200787Y303150D01*
Y307087D01*
X196720Y301838D02*
Y304988D01*
X-40551Y255118D02*
X-37402Y251969D01*
X-37402D02*
X-9843Y279528D01*
X127953D01*
X149213Y300787D01*
X-10630Y281890D02*
X117323D01*
X127559Y292126D01*
X-37402Y248819D02*
X-9449Y276772D01*
X-37402Y255118D02*
X-10630Y281890D01*
X132587Y303059D02*
X138189Y308661D01*
X113386Y293701D02*
X114961Y295276D01*
X139370D01*
X144882Y300787D01*
X-48819Y255118D02*
X-40551D01*
X-37795Y176378D02*
X-14567D01*
X-48819Y179528D02*
X-40945D01*
X-37795Y176378D01*
X-37402Y179528D02*
X-13780D01*
X48031Y117717D01*
X-14567Y176378D02*
X47244Y114567D01*
X-37402Y173228D02*
X62205Y73622D01*
X-25591Y195276D02*
X51575Y118110D01*
Y88976D02*
Y118110D01*
X90945Y301575D02*
X134252D01*
X141339Y308661D01*
X-48819Y160630D02*
X-42126D01*
X-48819Y154331D02*
X-43307D01*
X146457Y167610D02*
Y172441D01*
X142126Y188583D02*
X150394Y180315D01*
Y172835D02*
Y180315D01*
X173228Y57087D02*
X179134D01*
X111811Y53543D02*
X169685D01*
X173228Y57087D01*
X111024Y51968D02*
X173228D01*
X164889Y55012D02*
X166607D01*
X172619Y61024D01*
X164782Y55118D02*
X164889Y55012D01*
X112992Y55118D02*
X164782D01*
X94488Y73622D02*
X112992Y55118D01*
X93701Y71653D02*
X111811Y53543D01*
X93307Y69685D02*
X111024Y51968D01*
X134252Y41732D02*
X141339Y48819D01*
X147244Y75590D02*
X165748Y57087D01*
X114370Y75590D02*
X147244D01*
X62205Y73622D02*
X94488D01*
X61024Y71653D02*
X93701D01*
X59842Y69685D02*
X93307D01*
X108268Y69291D02*
X118110D01*
X127953Y59449D01*
X51575Y38189D02*
Y70472D01*
X-40551Y173228D02*
X61024Y71653D01*
X-37402Y166929D02*
X59842Y69685D01*
X49213Y37402D02*
Y72835D01*
X47244Y94095D02*
Y114567D01*
X51575Y38189D02*
X62205Y27559D01*
X122835D01*
X138287Y43012D01*
X151279D01*
X90945Y41732D02*
X134252D01*
X141339Y25591D02*
X146457Y30709D01*
X61024Y25591D02*
X141339D01*
X49213Y37402D02*
X61024Y25591D01*
X102362Y87598D02*
X114370Y75590D01*
X102362Y87598D02*
Y120079D01*
X146457Y30709D02*
Y40157D01*
X72835Y43216D02*
X132587D01*
X138189Y48819D01*
X88976Y39764D02*
X90945Y41732D01*
X88583Y124016D02*
X98425D01*
Y124016D02*
X102362Y120079D01*
X98425Y124016D02*
Y124016D01*
X160630Y77165D02*
X170079D01*
X149213Y88583D02*
X160630Y77165D01*
X-48819Y173228D02*
X-40551D01*
X-48819Y166929D02*
X-40945D01*
X178347Y181496D02*
Y185039D01*
X187795Y188189D02*
Y201575D01*
X159449Y159843D02*
X187795Y188189D01*
X119711Y198221D02*
X121430D01*
X121635Y198425D01*
X169685D02*
X173228Y194882D01*
X111811Y198425D02*
X119507D01*
X119711Y198221D01*
X121635Y198425D02*
X169685D01*
X159449Y162598D02*
X178347Y181496D01*
X72835Y173138D02*
X132587D01*
X90945Y171653D02*
X134252D01*
X141339Y178740D01*
X132587Y173138D02*
X138189Y178740D01*
X146850Y176772D02*
Y180709D01*
X141732Y185827D02*
X146850Y180709D01*
X117323Y183071D02*
X130709D01*
X131299Y182480D01*
X88976Y169685D02*
X90945Y171653D01*
X-40551Y217323D02*
X-37402Y214173D01*
X-48819Y217323D02*
X-40551D01*
X209055Y200787D02*
X209563D01*
X200394Y209449D02*
X209055Y200787D01*
X182677Y209449D02*
X200394D01*
X182677Y339370D02*
X201575D01*
X202110Y343953D02*
X247244Y298819D01*
X316732D01*
X185039Y294094D02*
X188189Y297244D01*
Y333071D01*
X72835Y303059D02*
X132587D01*
X158661Y292126D02*
X158661Y292126D01*
X143701Y292126D02*
X158661D01*
X86221Y299606D02*
X88976D01*
X90945Y301575D01*
X-48819Y248819D02*
X-40551D01*
X-48819Y242520D02*
X-40551D01*
Y236221D02*
X-37402Y233071D01*
X-48819Y236221D02*
X-40551D01*
X-48976Y113350D02*
X-33232D01*
X461811Y59842D02*
X486614D01*
X456693D02*
X461811D01*
X316831Y38878D02*
X320177D01*
X327165Y31890D01*
X316732Y38976D02*
X316831Y38878D01*
X247244Y38976D02*
X316732D01*
X202110Y84111D02*
X247244Y38976D01*
X381890Y56693D02*
X411417D01*
X413583Y58858D01*
X411417Y44488D02*
X414589D01*
X407087Y48819D02*
X411417Y44488D01*
X381890Y48819D02*
X407087D01*
X364961Y36909D02*
Y66535D01*
X364173Y67323D02*
X364961Y66535D01*
X381890Y41339D02*
X440945D01*
X489764Y62992D02*
Y77165D01*
X486614Y59842D02*
X489764Y62992D01*
X455512Y58661D02*
X456693Y59842D01*
X455512Y40945D02*
Y58661D01*
X327559Y73228D02*
X414567D01*
X314961Y60630D02*
X327559Y73228D01*
X333071Y50000D02*
X343701Y60630D01*
X333071Y32283D02*
Y50000D01*
X327165Y26378D02*
X333071Y32283D01*
X307480Y26378D02*
X327165D01*
X316831Y168799D02*
X320177D01*
X327165Y161811D01*
X316732Y168898D02*
X316831Y168799D01*
X247244Y168898D02*
X316732D01*
X202110Y214032D02*
X247244Y168898D01*
X381890Y186614D02*
X411417D01*
X413583Y188779D01*
X411417Y174409D02*
X414589D01*
X407087Y178740D02*
X411417Y174409D01*
X381890Y178740D02*
X407087D01*
X364961Y166831D02*
Y196457D01*
X364173Y197244D02*
X364961Y196457D01*
X381890Y171260D02*
X440945D01*
X489764Y192913D02*
Y207087D01*
X456693Y189764D02*
X461811D01*
X486614D01*
X489764Y192913D01*
X455512Y188583D02*
X456693Y189764D01*
X455512Y170866D02*
Y188583D01*
X327559Y203150D02*
X414567D01*
X314961Y190551D02*
X327559Y203150D01*
X338189Y152756D02*
Y164173D01*
X333071Y179921D02*
X343701Y190551D01*
X333071Y162205D02*
Y179921D01*
X327165Y156299D02*
X333071Y162205D01*
X307480Y156299D02*
X327165D01*
X280709Y94095D02*
X283071Y96457D01*
X284462Y104908D02*
X286417Y102953D01*
X302067Y91437D02*
X362598D01*
X291732Y81102D02*
X302067Y91437D01*
X254724Y81102D02*
X291732D01*
X252362Y83465D02*
X254724Y81102D01*
X325114Y92831D02*
X327953Y95669D01*
X301490Y92831D02*
X325114D01*
X291155Y82496D02*
X301490Y92831D01*
X263386Y83858D02*
X264748Y82496D01*
X291155D01*
X263386Y83858D02*
Y84252D01*
X256299Y121653D02*
X328740D01*
X252362Y117717D02*
X256299Y121653D01*
X269685Y116929D02*
X361614D01*
X269499Y116743D02*
X269685Y116929D01*
X269443Y116799D02*
X269499Y116743D01*
X269443Y116799D02*
Y116799D01*
X361614Y116929D02*
X363484Y115059D01*
X280709Y224016D02*
X283071Y226378D01*
X284462Y234830D02*
X286417Y232874D01*
X302067Y221358D02*
X362598D01*
X291732Y211024D02*
X302067Y221358D01*
X254724Y211024D02*
X291732D01*
X252362Y213386D02*
X254724Y211024D01*
X325114Y222752D02*
X327953Y225590D01*
X301490Y222752D02*
X325114D01*
X291155Y212417D02*
X301490Y222752D01*
X263386Y213779D02*
X264748Y212417D01*
X291155D01*
X263386Y213779D02*
Y214173D01*
X256299Y251575D02*
X328740D01*
X252362Y247638D02*
X256299Y251575D01*
X269685Y246850D02*
X361614D01*
X269499Y246664D02*
X269685Y246850D01*
X269443Y246720D02*
X269499Y246664D01*
X269443Y246720D02*
Y246720D01*
X361614Y246850D02*
X363484Y244980D01*
X178529Y90734D02*
X181890Y94095D01*
X138189Y79921D02*
Y88583D01*
X172635Y101375D02*
X212010D01*
X212992Y100394D01*
X171050Y104908D02*
X284462D01*
X86221Y39764D02*
X88976D01*
X182536Y214032D02*
X202110D01*
X170079Y207087D02*
X180318Y217326D01*
X160630Y207087D02*
X170079D01*
X149213Y218504D02*
X160630Y207087D01*
X178529Y220655D02*
X181890Y224016D01*
X280709D01*
X138189Y209842D02*
Y218504D01*
X172635Y231297D02*
X212010D01*
X212992Y230315D01*
X171050Y234830D02*
X284462D01*
X86221Y169685D02*
X88976D01*
X338189Y22835D02*
Y34252D01*
X455512Y300787D02*
Y318504D01*
X171050Y364751D02*
X284462D01*
X172635Y361218D02*
X212010D01*
X181890Y353937D02*
X280709D01*
X178529Y350576D02*
X181890Y353937D01*
X149213Y348425D02*
X160630Y337008D01*
X170079D01*
X180318Y347247D01*
X182536Y343953D02*
X202110D01*
X316732Y298819D02*
X316831Y298721D01*
X320177D02*
X327165Y291732D01*
X316831Y298721D02*
X320177D01*
X381890Y301181D02*
X440945D01*
X407087Y308661D02*
X411417Y304331D01*
X381890Y308661D02*
X407087D01*
X411417Y304331D02*
X414589D01*
X364961Y296752D02*
Y326378D01*
X333071Y292126D02*
Y309842D01*
X343701Y320472D01*
X307480Y286221D02*
X327165D01*
X333071Y292126D01*
X338189Y282677D02*
Y294094D01*
D18*
X-48819Y113386D02*
D03*
Y116535D02*
D03*
Y119685D02*
D03*
Y122835D02*
D03*
Y125984D02*
D03*
Y129134D02*
D03*
Y132283D02*
D03*
Y135433D02*
D03*
Y138583D02*
D03*
Y141732D02*
D03*
Y144882D02*
D03*
Y148031D02*
D03*
Y151181D02*
D03*
Y154331D02*
D03*
Y157480D02*
D03*
Y160630D02*
D03*
Y163779D02*
D03*
Y166929D02*
D03*
Y170079D02*
D03*
Y173228D02*
D03*
Y176378D02*
D03*
Y179528D02*
D03*
Y182677D02*
D03*
Y198425D02*
D03*
Y201575D02*
D03*
Y204724D02*
D03*
Y207874D02*
D03*
Y211024D02*
D03*
Y214173D02*
D03*
Y217323D02*
D03*
Y220472D02*
D03*
Y223622D02*
D03*
Y226772D02*
D03*
Y229921D02*
D03*
Y233071D02*
D03*
Y236221D02*
D03*
Y239370D02*
D03*
Y242520D02*
D03*
Y245669D02*
D03*
Y248819D02*
D03*
Y251969D02*
D03*
Y255118D02*
D03*
Y258268D02*
D03*
Y261417D02*
D03*
Y264567D02*
D03*
Y267717D02*
D03*
Y270866D02*
D03*
Y274016D02*
D03*
Y277165D02*
D03*
Y280315D02*
D03*
D59*
X131299Y312402D02*
X144685D01*
X146850Y310236D01*
X136614Y300000D02*
X146850Y310236D01*
X99606Y300000D02*
X136614D01*
X84252Y284646D02*
X99606Y300000D01*
D60*
X30709Y313543D02*
X32677Y311575D01*
Y294488D02*
Y311575D01*
D61*
X518110Y21280D02*
D03*
Y119665D02*
D03*
Y246043D02*
D03*
Y147658D02*
D03*
Y372421D02*
D03*
Y274035D02*
D03*
D62*
X512520Y92283D02*
D03*
Y218661D02*
D03*
Y345039D02*
D03*
D63*
X523701Y86831D02*
D03*
X512520Y81378D02*
D03*
X523701Y75925D02*
D03*
X512520Y70473D02*
D03*
X523701Y65020D02*
D03*
X512520Y59567D02*
D03*
X523701Y54114D02*
D03*
X512520Y48661D02*
D03*
Y175039D02*
D03*
X523701Y180492D02*
D03*
X512520Y185945D02*
D03*
X523701Y191398D02*
D03*
X512520Y196850D02*
D03*
X523701Y202303D02*
D03*
X512520Y207756D02*
D03*
X523701Y213209D02*
D03*
X512520Y301417D02*
D03*
X523701Y306870D02*
D03*
X512520Y312323D02*
D03*
X523701Y317776D02*
D03*
X512520Y323228D02*
D03*
X523701Y328681D02*
D03*
X512520Y334134D02*
D03*
X523701Y339587D02*
D03*
D64*
X20315Y77480D02*
D03*
X30315D02*
D03*
X20315Y67480D02*
D03*
X30315D02*
D03*
X20315Y57480D02*
D03*
X30315D02*
D03*
X20315Y47480D02*
D03*
X30315D02*
D03*
X20315Y37480D02*
D03*
X30315D02*
D03*
X20315Y27480D02*
D03*
X20709Y313543D02*
D03*
X30709Y323543D02*
D03*
X20709D02*
D03*
X30709Y333543D02*
D03*
X20709D02*
D03*
X30709Y343543D02*
D03*
X20709D02*
D03*
X30709Y353543D02*
D03*
X20709D02*
D03*
X30709Y363543D02*
D03*
X20709D02*
D03*
D65*
X30315Y27480D02*
D03*
X30709Y313543D02*
D03*
D66*
X-16616Y118110D02*
D03*
X114173Y374410D02*
D03*
X196850Y332677D02*
D03*
X210630Y350787D02*
D03*
X211153Y329792D02*
D03*
X212992Y360236D02*
D03*
X235039Y360630D02*
D03*
X252362Y343307D02*
D03*
Y377559D02*
D03*
X257480Y344094D02*
D03*
Y387402D02*
D03*
X263386Y344094D02*
D03*
X269443Y376641D02*
D03*
X273228Y379134D02*
D03*
X279921Y360630D02*
D03*
X283071Y356299D02*
D03*
X286417Y362795D02*
D03*
X314961Y320472D02*
D03*
X381890Y316535D02*
D03*
X413583Y318701D02*
D03*
X343701Y320472D02*
D03*
X364173Y327165D02*
D03*
X362598Y351279D02*
D03*
X327953Y355512D02*
D03*
X366142Y357087D02*
D03*
X322835Y359449D02*
D03*
X344094Y361811D02*
D03*
X414173Y364567D02*
D03*
X363484Y374902D02*
D03*
X414173Y375590D02*
D03*
X366142Y381102D02*
D03*
X328740Y381496D02*
D03*
X344094Y385433D02*
D03*
X414567Y333071D02*
D03*
Y353937D02*
D03*
X455512Y318504D02*
D03*
X461811Y319685D02*
D03*
X413675Y386067D02*
D03*
X149213Y300787D02*
D03*
X364961Y97638D02*
D03*
Y121653D02*
D03*
X344094Y101575D02*
D03*
Y125984D02*
D03*
X364961Y227165D02*
D03*
X344094Y231496D02*
D03*
X364961Y251181D02*
D03*
X344094Y255118D02*
D03*
X200000Y20472D02*
D03*
Y150394D02*
D03*
X200394Y279921D02*
D03*
X185039Y281496D02*
D03*
X176772Y292913D02*
D03*
X-37402Y280315D02*
D03*
X12992Y284252D02*
D03*
X20472Y181890D02*
D03*
X19685Y133858D02*
D03*
X15748Y196850D02*
D03*
X22835Y232677D02*
D03*
X15354Y260630D02*
D03*
X32677Y253543D02*
D03*
X83071Y224016D02*
D03*
X75197Y223622D02*
D03*
X32677Y294488D02*
D03*
X212992Y230315D02*
D03*
Y100394D02*
D03*
X198819Y162205D02*
D03*
X196720Y304988D02*
D03*
X200787Y307087D02*
D03*
X176772Y288583D02*
D03*
X182677Y79528D02*
D03*
X182283Y61024D02*
D03*
X195669Y90945D02*
D03*
X176772Y28740D02*
D03*
X180318Y87405D02*
D03*
X182536Y84111D02*
D03*
X209238Y70289D02*
D03*
X198819Y292126D02*
D03*
X198819Y32283D02*
D03*
X138189Y339764D02*
D03*
X56299Y39370D02*
D03*
X85905Y59764D02*
D03*
X123721Y244980D02*
D03*
X26772Y204724D02*
D03*
X24016Y211024D02*
D03*
X51575Y70472D02*
D03*
X138189Y88583D02*
D03*
X-30315Y198425D02*
D03*
X-39370Y154331D02*
D03*
X-37402Y211024D02*
D03*
X85905Y189685D02*
D03*
X-37402Y204724D02*
D03*
Y217323D02*
D03*
Y223622D02*
D03*
X104724Y263386D02*
D03*
X-37402Y229921D02*
D03*
X81102Y265748D02*
D03*
X66929Y276772D02*
D03*
X138189Y308661D02*
D03*
X107874Y309842D02*
D03*
X144882Y300787D02*
D03*
X84252Y284646D02*
D03*
X-37402Y179528D02*
D03*
X50000Y124016D02*
D03*
X48031Y117717D02*
D03*
X-37402Y132283D02*
D03*
Y141732D02*
D03*
X127559Y292126D02*
D03*
X113386Y293701D02*
D03*
X-38583Y160630D02*
D03*
X146457Y167610D02*
D03*
X150394Y172835D02*
D03*
X146457Y172441D02*
D03*
Y157480D02*
D03*
X179134Y57087D02*
D03*
X173228Y51968D02*
D03*
X131496Y48819D02*
D03*
X141339D02*
D03*
X165748Y57087D02*
D03*
X51575Y88976D02*
D03*
X47244Y94095D02*
D03*
X120571Y70374D02*
D03*
X80709Y67323D02*
D03*
X-37402Y173228D02*
D03*
Y166929D02*
D03*
X176772Y33071D02*
D03*
X127953Y59449D02*
D03*
X116142Y39370D02*
D03*
Y46457D02*
D03*
X108268Y69291D02*
D03*
X88583Y124016D02*
D03*
X151279Y43012D02*
D03*
X146457Y40157D02*
D03*
X107973Y104823D02*
D03*
X138189Y79921D02*
D03*
X56299Y169291D02*
D03*
X178347Y185039D02*
D03*
X187795Y201575D02*
D03*
X173228Y194882D02*
D03*
X155512Y164961D02*
D03*
X116142Y169291D02*
D03*
Y176378D02*
D03*
X138189Y178740D02*
D03*
X131299Y182480D02*
D03*
X131496Y178740D02*
D03*
X111811Y198425D02*
D03*
X120571Y200295D02*
D03*
X146850Y176772D02*
D03*
X-37402Y236221D02*
D03*
X209309Y200787D02*
D03*
X185039Y294094D02*
D03*
X188189Y333071D02*
D03*
X116142Y306299D02*
D03*
X158661Y292126D02*
D03*
X86221Y299606D02*
D03*
X-37402Y242520D02*
D03*
Y248819D02*
D03*
Y255118D02*
D03*
X76772Y108268D02*
D03*
Y238189D02*
D03*
X133858Y257480D02*
D03*
X135039Y127559D02*
D03*
X107874Y238189D02*
D03*
X149213Y241339D02*
D03*
X138189D02*
D03*
X461811Y59842D02*
D03*
X455512Y58661D02*
D03*
X338189Y22835D02*
D03*
X316831Y38878D02*
D03*
X327165Y31890D02*
D03*
X413583Y58858D02*
D03*
X381890Y56693D02*
D03*
X414589Y44488D02*
D03*
X381890Y48819D02*
D03*
X364961Y36909D02*
D03*
X364173Y67323D02*
D03*
X440945Y41339D02*
D03*
X381890D02*
D03*
X455512Y40945D02*
D03*
X414567Y73228D02*
D03*
X314961Y60630D02*
D03*
X343701D02*
D03*
X333071Y32283D02*
D03*
X307480Y26378D02*
D03*
X316831Y168799D02*
D03*
X327165Y161811D02*
D03*
X413583Y188779D02*
D03*
X381890Y186614D02*
D03*
X414589Y174409D02*
D03*
X381890Y178740D02*
D03*
X364961Y166831D02*
D03*
X364173Y197244D02*
D03*
X440945Y171260D02*
D03*
X381890D02*
D03*
X461811Y189764D02*
D03*
X455512Y188583D02*
D03*
Y170866D02*
D03*
X414567Y203150D02*
D03*
X314961Y190551D02*
D03*
X338189Y164173D02*
D03*
Y152756D02*
D03*
X343701Y190551D02*
D03*
X333071Y162205D02*
D03*
X307480Y156299D02*
D03*
X414567Y127559D02*
D03*
X414173Y115748D02*
D03*
Y104724D02*
D03*
X414567Y94095D02*
D03*
X273228Y119291D02*
D03*
X283071Y96457D02*
D03*
X279921Y100787D02*
D03*
X286417Y102953D02*
D03*
X235039Y100787D02*
D03*
X362598Y91437D02*
D03*
X252362Y83465D02*
D03*
X257480Y84252D02*
D03*
X327953Y95669D02*
D03*
X263386Y84252D02*
D03*
X328740Y121653D02*
D03*
X252362Y117717D02*
D03*
X322835Y99606D02*
D03*
X257480Y127559D02*
D03*
X363484Y115059D02*
D03*
X269443Y116799D02*
D03*
X414567Y257480D02*
D03*
X414173Y245669D02*
D03*
Y234646D02*
D03*
X414567Y224016D02*
D03*
X273228Y249213D02*
D03*
X283071Y226378D02*
D03*
X279921Y230709D02*
D03*
X286417Y232874D02*
D03*
X235039Y230709D02*
D03*
X252362Y213386D02*
D03*
X257480Y214173D02*
D03*
X327953Y225590D02*
D03*
X263386Y214173D02*
D03*
X328740Y251575D02*
D03*
X252362Y247638D02*
D03*
X322835Y229528D02*
D03*
X257480Y257480D02*
D03*
X363484Y244980D02*
D03*
X269443Y246720D02*
D03*
X149213Y111417D02*
D03*
X107874Y108268D02*
D03*
X138189Y111417D02*
D03*
X123721Y115059D02*
D03*
X119685Y90945D02*
D03*
X188189D02*
D03*
X210630D02*
D03*
X196850Y72835D02*
D03*
X149213Y88583D02*
D03*
X178529Y90734D02*
D03*
X172635Y101375D02*
D03*
X171050Y104908D02*
D03*
X138189Y48819D02*
D03*
X72835Y43216D02*
D03*
X86221Y39764D02*
D03*
X255551Y160276D02*
D03*
X119685Y220866D02*
D03*
X107973Y234744D02*
D03*
X195669Y220866D02*
D03*
X188189D02*
D03*
X210630D02*
D03*
X196850Y202756D02*
D03*
X176772Y158661D02*
D03*
Y162992D02*
D03*
X182677Y209449D02*
D03*
X182536Y214032D02*
D03*
X180318Y217326D02*
D03*
X149213Y218504D02*
D03*
X178529Y220655D02*
D03*
X138189Y218504D02*
D03*
Y209842D02*
D03*
X172635Y231297D02*
D03*
X171050Y234830D02*
D03*
X72835Y173138D02*
D03*
X141339Y178740D02*
D03*
X86221Y169685D02*
D03*
X255551Y30354D02*
D03*
X338189Y34252D02*
D03*
X362598Y221358D02*
D03*
X455512Y300787D02*
D03*
X141339Y308661D02*
D03*
X56299Y299213D02*
D03*
X85905Y319606D02*
D03*
X72835Y303059D02*
D03*
X171050Y364751D02*
D03*
X172635Y361218D02*
D03*
X138189Y348425D02*
D03*
X178529Y350576D02*
D03*
X149213Y348425D02*
D03*
X180318Y347247D02*
D03*
X182536Y343953D02*
D03*
X327165Y291732D02*
D03*
X316831Y298721D02*
D03*
X182677Y339370D02*
D03*
X131496Y308661D02*
D03*
X131299Y312402D02*
D03*
X188189Y350787D02*
D03*
X195669D02*
D03*
X120571Y330217D02*
D03*
X107973Y364665D02*
D03*
X119685Y350787D02*
D03*
X138189Y371260D02*
D03*
X255551Y290197D02*
D03*
X107874Y368110D02*
D03*
X149213Y371260D02*
D03*
X134646Y387402D02*
D03*
X76772Y368110D02*
D03*
X414589Y304331D02*
D03*
X381890Y308661D02*
D03*
X364961Y296752D02*
D03*
X440945Y301181D02*
D03*
X381890D02*
D03*
X338189Y282677D02*
D03*
X218504Y280315D02*
D03*
X338189Y294094D02*
D03*
X333071Y292126D02*
D03*
X307480Y286221D02*
D03*
M02*
