G04*
G04 #@! TF.GenerationSoftware,Altium Limited,Altium Designer,22.4.2 (48)*
G04*
G04 Layer_Color=8421504*
%FSLAX25Y25*%
%MOIN*%
G70*
G04*
G04 #@! TF.SameCoordinates,7E99259A-5992-410F-866F-3BC1187B2F82*
G04*
G04*
G04 #@! TF.FilePolarity,Positive*
G04*
G01*
G75*
%ADD18R,0.11024X0.02165*%
%ADD19O,0.02362X0.08661*%
%ADD20R,0.03347X0.03543*%
%ADD21R,0.05118X0.02362*%
%ADD22R,0.02756X0.03937*%
%ADD23R,0.03937X0.02756*%
%ADD24R,0.03150X0.03150*%
%ADD25R,0.03543X0.03347*%
%ADD26R,0.06614X0.12362*%
%ADD27R,0.03740X0.03740*%
%ADD28R,0.07874X0.07087*%
G04:AMPARAMS|DCode=29|XSize=9.84mil|YSize=49.21mil|CornerRadius=1.97mil|HoleSize=0mil|Usage=FLASHONLY|Rotation=0.000|XOffset=0mil|YOffset=0mil|HoleType=Round|Shape=RoundedRectangle|*
%AMROUNDEDRECTD29*
21,1,0.00984,0.04528,0,0,0.0*
21,1,0.00591,0.04921,0,0,0.0*
1,1,0.00394,0.00295,-0.02264*
1,1,0.00394,-0.00295,-0.02264*
1,1,0.00394,-0.00295,0.02264*
1,1,0.00394,0.00295,0.02264*
%
%ADD29ROUNDEDRECTD29*%
G04:AMPARAMS|DCode=30|XSize=9.84mil|YSize=49.21mil|CornerRadius=1.97mil|HoleSize=0mil|Usage=FLASHONLY|Rotation=90.000|XOffset=0mil|YOffset=0mil|HoleType=Round|Shape=RoundedRectangle|*
%AMROUNDEDRECTD30*
21,1,0.00984,0.04528,0,0,90.0*
21,1,0.00591,0.04921,0,0,90.0*
1,1,0.00394,0.02264,0.00295*
1,1,0.00394,0.02264,-0.00295*
1,1,0.00394,-0.02264,-0.00295*
1,1,0.00394,-0.02264,0.00295*
%
%ADD30ROUNDEDRECTD30*%
%ADD31R,0.08268X0.04724*%
%ADD32R,0.02362X0.05118*%
%ADD33R,0.03937X0.08268*%
%ADD34R,0.03347X0.03740*%
D18*
X-48819Y113386D02*
D03*
Y116535D02*
D03*
Y119685D02*
D03*
Y122835D02*
D03*
Y125984D02*
D03*
Y129134D02*
D03*
Y132283D02*
D03*
Y135433D02*
D03*
Y138583D02*
D03*
Y141732D02*
D03*
Y144882D02*
D03*
Y148031D02*
D03*
Y151181D02*
D03*
Y154331D02*
D03*
Y157480D02*
D03*
Y160630D02*
D03*
Y163779D02*
D03*
Y166929D02*
D03*
Y170079D02*
D03*
Y173228D02*
D03*
Y176378D02*
D03*
Y179528D02*
D03*
Y182677D02*
D03*
Y198425D02*
D03*
Y201575D02*
D03*
Y204724D02*
D03*
Y207874D02*
D03*
Y211024D02*
D03*
Y214173D02*
D03*
Y217323D02*
D03*
Y220472D02*
D03*
Y223622D02*
D03*
Y226772D02*
D03*
Y229921D02*
D03*
Y233071D02*
D03*
Y236221D02*
D03*
Y239370D02*
D03*
Y242520D02*
D03*
Y245669D02*
D03*
Y248819D02*
D03*
Y251969D02*
D03*
Y255118D02*
D03*
Y258268D02*
D03*
Y261417D02*
D03*
Y264567D02*
D03*
Y267717D02*
D03*
Y270866D02*
D03*
Y274016D02*
D03*
Y277165D02*
D03*
Y280315D02*
D03*
D19*
X272480Y370079D02*
D03*
X267480D02*
D03*
X262480D02*
D03*
X257480D02*
D03*
X252480D02*
D03*
X247480D02*
D03*
X242480D02*
D03*
X272480Y351181D02*
D03*
X267480D02*
D03*
X262480D02*
D03*
X257480D02*
D03*
X252480D02*
D03*
X247480D02*
D03*
X242480D02*
D03*
X272480Y110236D02*
D03*
X267480D02*
D03*
X262480D02*
D03*
X257480D02*
D03*
X252480D02*
D03*
X247480D02*
D03*
X242480D02*
D03*
X272480Y91339D02*
D03*
X267480D02*
D03*
X262480D02*
D03*
X257480D02*
D03*
X252480D02*
D03*
X247480D02*
D03*
X242480D02*
D03*
X272480Y240158D02*
D03*
X267480D02*
D03*
X262480D02*
D03*
X257480D02*
D03*
X252480D02*
D03*
X247480D02*
D03*
X242480D02*
D03*
X272480Y221260D02*
D03*
X267480D02*
D03*
X262480D02*
D03*
X257480D02*
D03*
X252480D02*
D03*
X247480D02*
D03*
X242480D02*
D03*
X323209Y171653D02*
D03*
X328209D02*
D03*
X333209D02*
D03*
X338209D02*
D03*
X323209Y190551D02*
D03*
X328209D02*
D03*
X333209D02*
D03*
X338209D02*
D03*
X323209Y41732D02*
D03*
X328209D02*
D03*
X333209D02*
D03*
X338209D02*
D03*
X323209Y60630D02*
D03*
X328209D02*
D03*
X333209D02*
D03*
X338209D02*
D03*
X323209Y301575D02*
D03*
X328209D02*
D03*
X333209D02*
D03*
X338209D02*
D03*
X323209Y320472D02*
D03*
X328209D02*
D03*
X333209D02*
D03*
X338209D02*
D03*
D20*
X234941Y341339D02*
D03*
X228839D02*
D03*
X280413Y341732D02*
D03*
X286516D02*
D03*
X280020Y379921D02*
D03*
X286122D02*
D03*
X234941Y380315D02*
D03*
X228839D02*
D03*
X442815Y353937D02*
D03*
X436713D02*
D03*
X442815Y364567D02*
D03*
X436713D02*
D03*
X442815Y375590D02*
D03*
X436713D02*
D03*
X442815Y385433D02*
D03*
X436713D02*
D03*
X234941Y81496D02*
D03*
X228839D02*
D03*
X280413Y81890D02*
D03*
X286516D02*
D03*
X280020Y120079D02*
D03*
X286122D02*
D03*
X234941Y120472D02*
D03*
X228839D02*
D03*
X442815Y94095D02*
D03*
X436713D02*
D03*
X442815Y104724D02*
D03*
X436713D02*
D03*
X442815Y115748D02*
D03*
X436713D02*
D03*
X442815Y127559D02*
D03*
X436713D02*
D03*
X234941Y211417D02*
D03*
X228839D02*
D03*
X280413Y211811D02*
D03*
X286516D02*
D03*
X280020Y250000D02*
D03*
X286122D02*
D03*
X234941Y250394D02*
D03*
X228839D02*
D03*
X442815Y224016D02*
D03*
X436713D02*
D03*
X442815Y234646D02*
D03*
X436713D02*
D03*
X442815Y245669D02*
D03*
X436713D02*
D03*
X442815Y257480D02*
D03*
X436713D02*
D03*
X126673Y83071D02*
D03*
X120571D02*
D03*
Y75590D02*
D03*
X126673D02*
D03*
X107973Y83071D02*
D03*
X114075D02*
D03*
X120965Y39370D02*
D03*
X127067D02*
D03*
Y46457D02*
D03*
X120965D02*
D03*
X114075Y75590D02*
D03*
X107973D02*
D03*
X126673Y212992D02*
D03*
X120571D02*
D03*
Y205512D02*
D03*
X126673D02*
D03*
X107973Y212992D02*
D03*
X114075D02*
D03*
X120965Y169291D02*
D03*
X127067D02*
D03*
Y176378D02*
D03*
X120965D02*
D03*
X114075Y205512D02*
D03*
X107973D02*
D03*
X120571Y342913D02*
D03*
X126673D02*
D03*
Y335433D02*
D03*
X120571D02*
D03*
X114075Y342913D02*
D03*
X107973D02*
D03*
X127067Y299213D02*
D03*
X120965D02*
D03*
Y306299D02*
D03*
X127067D02*
D03*
X107973Y335433D02*
D03*
X114075D02*
D03*
X300689Y164173D02*
D03*
X294587D02*
D03*
Y156299D02*
D03*
X300689D02*
D03*
X307382Y200000D02*
D03*
X301279D02*
D03*
X313878D02*
D03*
X319980D02*
D03*
X369390Y186614D02*
D03*
X375492D02*
D03*
X369390Y178740D02*
D03*
X375492D02*
D03*
X369390Y194488D02*
D03*
X375492D02*
D03*
X369390Y171260D02*
D03*
X375492D02*
D03*
X444193Y204331D02*
D03*
X450295D02*
D03*
Y188583D02*
D03*
X444193D02*
D03*
Y196457D02*
D03*
X450295D02*
D03*
Y180709D02*
D03*
X444193D02*
D03*
X300689Y34252D02*
D03*
X294587D02*
D03*
Y26378D02*
D03*
X300689D02*
D03*
X307382Y70079D02*
D03*
X301279D02*
D03*
X313878D02*
D03*
X319980D02*
D03*
X369390Y56693D02*
D03*
X375492D02*
D03*
X369390Y48819D02*
D03*
X375492D02*
D03*
X369390Y64567D02*
D03*
X375492D02*
D03*
X369390Y41339D02*
D03*
X375492D02*
D03*
X444193Y74410D02*
D03*
X450295D02*
D03*
Y58661D02*
D03*
X444193D02*
D03*
Y66535D02*
D03*
X450295D02*
D03*
Y50787D02*
D03*
X444193D02*
D03*
X300689Y294094D02*
D03*
X294587D02*
D03*
X307382Y329921D02*
D03*
X301279D02*
D03*
X369390Y301181D02*
D03*
X375492D02*
D03*
X369390Y308661D02*
D03*
X375492D02*
D03*
X369390Y316535D02*
D03*
X375492D02*
D03*
X369390Y324410D02*
D03*
X375492D02*
D03*
X294587Y286221D02*
D03*
X300689D02*
D03*
X450295Y310630D02*
D03*
X444193D02*
D03*
Y334252D02*
D03*
X450295D02*
D03*
X444193Y326378D02*
D03*
X450295D02*
D03*
X313878Y329921D02*
D03*
X319980D02*
D03*
X450295Y318504D02*
D03*
X444193D02*
D03*
D21*
X387717Y351220D02*
D03*
X379449Y347480D02*
D03*
Y354961D02*
D03*
X344016Y355748D02*
D03*
Y348268D02*
D03*
X352284Y352008D02*
D03*
X387323Y374843D02*
D03*
X379055Y371102D02*
D03*
Y378583D02*
D03*
X352284Y374843D02*
D03*
X344016Y371102D02*
D03*
Y378583D02*
D03*
X387717Y91378D02*
D03*
X379449Y87638D02*
D03*
Y95118D02*
D03*
X352284Y91378D02*
D03*
X344016Y87638D02*
D03*
Y95118D02*
D03*
X387323Y115000D02*
D03*
X379055Y111260D02*
D03*
Y118740D02*
D03*
X352284Y115000D02*
D03*
X344016Y111260D02*
D03*
Y118740D02*
D03*
X387717Y221299D02*
D03*
X379449Y217559D02*
D03*
Y225039D02*
D03*
X352362Y221457D02*
D03*
X344094Y217717D02*
D03*
Y225197D02*
D03*
X387323Y244921D02*
D03*
X379055Y241181D02*
D03*
Y248661D02*
D03*
X352284Y244921D02*
D03*
X344016Y241181D02*
D03*
Y248661D02*
D03*
X358268Y173031D02*
D03*
X350000Y169291D02*
D03*
Y176772D02*
D03*
X350472Y190512D02*
D03*
X358740Y194252D02*
D03*
Y186772D02*
D03*
X358268Y43110D02*
D03*
X350000Y39370D02*
D03*
Y46850D02*
D03*
X350472Y60590D02*
D03*
X358740Y64331D02*
D03*
Y56850D02*
D03*
X350472Y320433D02*
D03*
X358740Y324173D02*
D03*
Y316693D02*
D03*
X358268Y302953D02*
D03*
X350000Y299213D02*
D03*
Y306693D02*
D03*
D22*
X228839Y348819D02*
D03*
X234941D02*
D03*
X286417Y348819D02*
D03*
X280315D02*
D03*
X286122Y372835D02*
D03*
X280020D02*
D03*
X228839D02*
D03*
X234941D02*
D03*
X257579Y380315D02*
D03*
X263681D02*
D03*
X427461Y353937D02*
D03*
X421358D02*
D03*
X427559Y364567D02*
D03*
X421457D02*
D03*
X427461Y375590D02*
D03*
X421358D02*
D03*
X425886Y385827D02*
D03*
X419783D02*
D03*
X228839Y88976D02*
D03*
X234941D02*
D03*
X286417Y88976D02*
D03*
X280315D02*
D03*
X286122Y112992D02*
D03*
X280020D02*
D03*
X228839D02*
D03*
X234941D02*
D03*
X257579Y120472D02*
D03*
X263681D02*
D03*
X427461Y94095D02*
D03*
X421358D02*
D03*
X427559Y104724D02*
D03*
X421457D02*
D03*
X427461Y115748D02*
D03*
X421358D02*
D03*
X427362Y127559D02*
D03*
X421260D02*
D03*
X228839Y218898D02*
D03*
X234941D02*
D03*
X286417Y218898D02*
D03*
X280315D02*
D03*
X286122Y242913D02*
D03*
X280020D02*
D03*
X228839D02*
D03*
X234941D02*
D03*
X257579Y250394D02*
D03*
X263681D02*
D03*
X427461Y224016D02*
D03*
X421358D02*
D03*
X427559Y234646D02*
D03*
X421457D02*
D03*
X427461Y245669D02*
D03*
X421358D02*
D03*
X427362Y257480D02*
D03*
X421260D02*
D03*
X107973Y99213D02*
D03*
X114075D02*
D03*
X157185Y127559D02*
D03*
X163287D02*
D03*
X157185Y120079D02*
D03*
X163287D02*
D03*
X107973Y90945D02*
D03*
X114075D02*
D03*
X176279Y127559D02*
D03*
X170177D02*
D03*
Y120079D02*
D03*
X176279D02*
D03*
X123721Y120472D02*
D03*
X129823D02*
D03*
X123721Y127559D02*
D03*
X129823D02*
D03*
X107973Y229134D02*
D03*
X114075D02*
D03*
X157185Y257480D02*
D03*
X163287D02*
D03*
X157185Y250000D02*
D03*
X163287D02*
D03*
X107973Y220866D02*
D03*
X114075D02*
D03*
X176279Y257480D02*
D03*
X170177D02*
D03*
Y250000D02*
D03*
X176279D02*
D03*
X123721Y250394D02*
D03*
X129823D02*
D03*
X123721Y257480D02*
D03*
X129823D02*
D03*
X114075Y359055D02*
D03*
X107973D02*
D03*
X163287Y385827D02*
D03*
X157185D02*
D03*
X163287Y378740D02*
D03*
X157185D02*
D03*
X114075Y350787D02*
D03*
X107973D02*
D03*
X170177Y385827D02*
D03*
X176279D02*
D03*
Y378740D02*
D03*
X170177D02*
D03*
X129823Y377559D02*
D03*
X123721D02*
D03*
X129823Y384646D02*
D03*
X123721D02*
D03*
X313878Y206299D02*
D03*
X319980D02*
D03*
X313878Y76378D02*
D03*
X319980D02*
D03*
X313878Y336221D02*
D03*
X319980D02*
D03*
D23*
X371260Y351279D02*
D03*
Y357382D02*
D03*
X335433Y351279D02*
D03*
Y357382D02*
D03*
X371260Y374902D02*
D03*
Y381004D02*
D03*
X335827Y374803D02*
D03*
Y380906D02*
D03*
X371260Y91437D02*
D03*
Y97539D02*
D03*
X335433Y91437D02*
D03*
Y97539D02*
D03*
X371260Y115059D02*
D03*
Y121161D02*
D03*
X335827Y114961D02*
D03*
Y121063D02*
D03*
X371260Y221358D02*
D03*
Y227461D02*
D03*
X335433Y221358D02*
D03*
Y227461D02*
D03*
X371260Y244980D02*
D03*
Y251083D02*
D03*
X335827Y244882D02*
D03*
Y250984D02*
D03*
X88189Y46949D02*
D03*
Y53051D02*
D03*
X54331Y52658D02*
D03*
Y46555D02*
D03*
X88189Y176870D02*
D03*
Y182972D02*
D03*
X54331Y182579D02*
D03*
Y176476D02*
D03*
X88189Y312894D02*
D03*
Y306791D02*
D03*
X54331Y306398D02*
D03*
Y312500D02*
D03*
X281102Y188484D02*
D03*
Y182382D02*
D03*
X314961Y162008D02*
D03*
Y155905D02*
D03*
X281102Y58563D02*
D03*
Y52461D02*
D03*
X314961Y32087D02*
D03*
Y25984D02*
D03*
X281102Y318406D02*
D03*
Y312303D02*
D03*
X314961Y291929D02*
D03*
Y285827D02*
D03*
D24*
X14567Y137795D02*
D03*
Y131496D02*
D03*
X14173Y161024D02*
D03*
Y154724D02*
D03*
X14567Y184646D02*
D03*
Y178347D02*
D03*
X14173Y208268D02*
D03*
Y201969D02*
D03*
X14567Y230709D02*
D03*
Y224410D02*
D03*
X15354Y255512D02*
D03*
Y249213D02*
D03*
X14173Y279134D02*
D03*
Y272835D02*
D03*
D25*
X6693Y137303D02*
D03*
Y131201D02*
D03*
Y160138D02*
D03*
Y154035D02*
D03*
Y184153D02*
D03*
Y178051D02*
D03*
Y207776D02*
D03*
Y201673D02*
D03*
X7087Y230610D02*
D03*
Y224508D02*
D03*
X8268Y255413D02*
D03*
Y249311D02*
D03*
X6693Y278642D02*
D03*
Y272539D02*
D03*
X196850Y60728D02*
D03*
Y66831D02*
D03*
X210630Y86221D02*
D03*
Y80118D02*
D03*
X203150Y80020D02*
D03*
Y86122D02*
D03*
X188189Y86221D02*
D03*
Y80118D02*
D03*
X195669Y80020D02*
D03*
Y86122D02*
D03*
X140157Y42028D02*
D03*
Y35925D02*
D03*
X97244Y61319D02*
D03*
Y55216D02*
D03*
X112992Y61319D02*
D03*
Y55216D02*
D03*
X105118D02*
D03*
Y61319D02*
D03*
X196850Y190650D02*
D03*
Y196752D02*
D03*
X210630Y216142D02*
D03*
Y210039D02*
D03*
X203150Y209941D02*
D03*
Y216043D02*
D03*
X188189Y216142D02*
D03*
Y210039D02*
D03*
X195669Y209941D02*
D03*
Y216043D02*
D03*
X140157Y171949D02*
D03*
Y165847D02*
D03*
X97244Y191240D02*
D03*
Y185138D02*
D03*
X112992Y191240D02*
D03*
Y185138D02*
D03*
X105118D02*
D03*
Y191240D02*
D03*
X196850Y326673D02*
D03*
Y320571D02*
D03*
X210630Y339961D02*
D03*
Y346063D02*
D03*
X203150Y345965D02*
D03*
Y339862D02*
D03*
X188189Y339961D02*
D03*
Y346063D02*
D03*
X195669Y345965D02*
D03*
Y339862D02*
D03*
X140157Y295768D02*
D03*
Y301870D02*
D03*
X97244Y315059D02*
D03*
Y321161D02*
D03*
X112992Y315059D02*
D03*
Y321161D02*
D03*
X105118D02*
D03*
Y315059D02*
D03*
X307480Y162697D02*
D03*
Y168799D02*
D03*
X321654Y162008D02*
D03*
Y155905D02*
D03*
X435394Y192933D02*
D03*
Y199035D02*
D03*
X409803Y171476D02*
D03*
Y165374D02*
D03*
X409842Y192913D02*
D03*
Y199016D02*
D03*
X435787Y171378D02*
D03*
Y165276D02*
D03*
X307480Y32776D02*
D03*
Y38878D02*
D03*
X321654Y32087D02*
D03*
Y25984D02*
D03*
X435394Y63012D02*
D03*
Y69114D02*
D03*
X409803Y41555D02*
D03*
Y35453D02*
D03*
X409842Y62992D02*
D03*
Y69095D02*
D03*
X435787Y41457D02*
D03*
Y35354D02*
D03*
X409842Y322835D02*
D03*
Y328937D02*
D03*
X409803Y301398D02*
D03*
Y295295D02*
D03*
X435394Y322854D02*
D03*
Y328957D02*
D03*
X435787Y301299D02*
D03*
Y295197D02*
D03*
X307480Y292618D02*
D03*
Y298721D02*
D03*
X321654Y291929D02*
D03*
Y285827D02*
D03*
D26*
X-2402Y158268D02*
D03*
X-21220D02*
D03*
X-2402Y181890D02*
D03*
X-21220D02*
D03*
X-2402Y134252D02*
D03*
X-21220D02*
D03*
X-2402Y205118D02*
D03*
X-21220D02*
D03*
X-2008Y228740D02*
D03*
X-20827D02*
D03*
X-2008Y252362D02*
D03*
X-20827D02*
D03*
X-1614Y276378D02*
D03*
X-20433D02*
D03*
D27*
X-16535Y107283D02*
D03*
Y113189D02*
D03*
X-24803Y113189D02*
D03*
Y107283D02*
D03*
D28*
X63071Y59764D02*
D03*
X79606D02*
D03*
X63071Y39764D02*
D03*
X79528D02*
D03*
X63071Y189685D02*
D03*
X79606D02*
D03*
X63071Y169685D02*
D03*
X79528D02*
D03*
X63071Y319606D02*
D03*
X79606D02*
D03*
X63071Y299606D02*
D03*
X79528D02*
D03*
D29*
X161221Y72146D02*
D03*
X163189D02*
D03*
X165157D02*
D03*
X167126D02*
D03*
X169095D02*
D03*
X171063D02*
D03*
X173031D02*
D03*
X175000D02*
D03*
X176969D02*
D03*
X178937D02*
D03*
X180905D02*
D03*
X182874D02*
D03*
Y39665D02*
D03*
X180905D02*
D03*
X178937D02*
D03*
X176969D02*
D03*
X175000D02*
D03*
X173031D02*
D03*
X171063D02*
D03*
X169095D02*
D03*
X167126D02*
D03*
X165157D02*
D03*
X163189D02*
D03*
X161221D02*
D03*
Y202067D02*
D03*
X163189D02*
D03*
X165157D02*
D03*
X167126D02*
D03*
X169095D02*
D03*
X171063D02*
D03*
X173031D02*
D03*
X175000D02*
D03*
X176969D02*
D03*
X178937D02*
D03*
X180905D02*
D03*
X182874D02*
D03*
Y169587D02*
D03*
X180905D02*
D03*
X178937D02*
D03*
X176969D02*
D03*
X175000D02*
D03*
X173031D02*
D03*
X171063D02*
D03*
X169095D02*
D03*
X167126D02*
D03*
X165157D02*
D03*
X163189D02*
D03*
X161221D02*
D03*
Y299508D02*
D03*
X163189D02*
D03*
X165157D02*
D03*
X167126D02*
D03*
X169095D02*
D03*
X171063D02*
D03*
X173031D02*
D03*
X175000D02*
D03*
X176969D02*
D03*
X178937D02*
D03*
X180905D02*
D03*
X182874D02*
D03*
Y331988D02*
D03*
X180905D02*
D03*
X178937D02*
D03*
X176969D02*
D03*
X175000D02*
D03*
X173031D02*
D03*
X171063D02*
D03*
X169095D02*
D03*
X167126D02*
D03*
X165157D02*
D03*
X163189D02*
D03*
X161221D02*
D03*
D30*
X188287Y66732D02*
D03*
Y64764D02*
D03*
Y62795D02*
D03*
Y60827D02*
D03*
Y58858D02*
D03*
Y56890D02*
D03*
Y54921D02*
D03*
Y52953D02*
D03*
Y50984D02*
D03*
Y49016D02*
D03*
Y47047D02*
D03*
Y45079D02*
D03*
X155807D02*
D03*
Y47047D02*
D03*
Y49016D02*
D03*
Y50984D02*
D03*
Y52953D02*
D03*
Y54921D02*
D03*
Y56890D02*
D03*
Y58858D02*
D03*
Y60827D02*
D03*
Y62795D02*
D03*
Y64764D02*
D03*
Y66732D02*
D03*
X188287Y196653D02*
D03*
Y194685D02*
D03*
Y192717D02*
D03*
Y190748D02*
D03*
Y188779D02*
D03*
Y186811D02*
D03*
Y184843D02*
D03*
Y182874D02*
D03*
Y180905D02*
D03*
Y178937D02*
D03*
Y176969D02*
D03*
Y175000D02*
D03*
X155807D02*
D03*
Y176969D02*
D03*
Y178937D02*
D03*
Y180905D02*
D03*
Y182874D02*
D03*
Y184843D02*
D03*
Y186811D02*
D03*
Y188779D02*
D03*
Y190748D02*
D03*
Y192717D02*
D03*
Y194685D02*
D03*
Y196653D02*
D03*
Y326575D02*
D03*
Y324606D02*
D03*
Y322638D02*
D03*
Y320669D02*
D03*
Y318701D02*
D03*
Y316732D02*
D03*
Y314764D02*
D03*
Y312795D02*
D03*
Y310827D02*
D03*
Y308858D02*
D03*
Y306890D02*
D03*
Y304921D02*
D03*
X188287D02*
D03*
Y306890D02*
D03*
Y308858D02*
D03*
Y310827D02*
D03*
Y312795D02*
D03*
Y314764D02*
D03*
Y316732D02*
D03*
Y318701D02*
D03*
Y320669D02*
D03*
Y322638D02*
D03*
Y324606D02*
D03*
Y326575D02*
D03*
D31*
X138189Y93307D02*
D03*
Y105118D02*
D03*
X149213Y93307D02*
D03*
Y105118D02*
D03*
X138189Y223228D02*
D03*
Y235039D02*
D03*
X149213Y223228D02*
D03*
Y235039D02*
D03*
X138189Y364961D02*
D03*
Y353150D02*
D03*
X149213Y364961D02*
D03*
Y353150D02*
D03*
X208661Y162205D02*
D03*
Y150394D02*
D03*
X272047Y188583D02*
D03*
Y176772D02*
D03*
X208661Y32283D02*
D03*
Y20472D02*
D03*
X272047Y58661D02*
D03*
Y46850D02*
D03*
Y318504D02*
D03*
Y306693D02*
D03*
X208661Y292126D02*
D03*
Y280315D02*
D03*
D32*
X423937Y197874D02*
D03*
X427677Y189606D02*
D03*
X420197D02*
D03*
X398819Y162697D02*
D03*
X395079Y170965D02*
D03*
X402559D02*
D03*
X398386Y197854D02*
D03*
X402126Y189587D02*
D03*
X394646D02*
D03*
X424409Y162697D02*
D03*
X420669Y170965D02*
D03*
X428150D02*
D03*
X423937Y67953D02*
D03*
X427677Y59685D02*
D03*
X420197D02*
D03*
X398819Y32776D02*
D03*
X395079Y41043D02*
D03*
X402559D02*
D03*
X398386Y67933D02*
D03*
X402126Y59665D02*
D03*
X394646D02*
D03*
X424409Y32776D02*
D03*
X420669Y41043D02*
D03*
X428150D02*
D03*
X398819Y292618D02*
D03*
X395079Y300886D02*
D03*
X402559D02*
D03*
X398386Y327776D02*
D03*
X402126Y319508D02*
D03*
X394646D02*
D03*
X423937Y327795D02*
D03*
X427677Y319528D02*
D03*
X420197D02*
D03*
X424409Y292618D02*
D03*
X420669Y300886D02*
D03*
X428150D02*
D03*
D33*
X225551Y149409D02*
D03*
X235551D02*
D03*
X255551D02*
D03*
Y189173D02*
D03*
X225551D02*
D03*
Y19488D02*
D03*
X235551D02*
D03*
X255551D02*
D03*
Y59252D02*
D03*
X225551D02*
D03*
Y279331D02*
D03*
X235551D02*
D03*
X255551D02*
D03*
Y319094D02*
D03*
X225551D02*
D03*
D34*
X96260Y238189D02*
D03*
X91142D02*
D03*
X95473Y108268D02*
D03*
X90354D02*
D03*
X97441Y368110D02*
D03*
X92323D02*
D03*
M02*
