G04*
G04 #@! TF.GenerationSoftware,Altium Limited,Altium Designer,22.4.2 (48)*
G04*
G04 Layer_Color=65535*
%FSLAX25Y25*%
%MOIN*%
G70*
G04*
G04 #@! TF.SameCoordinates,7E99259A-5992-410F-866F-3BC1187B2F82*
G04*
G04*
G04 #@! TF.FilePolarity,Positive*
G04*
G01*
G75*
%ADD10C,0.00984*%
%ADD11C,0.00500*%
%ADD12C,0.00787*%
%ADD13C,0.02362*%
%ADD14C,0.00394*%
%ADD15C,0.00591*%
%ADD16C,0.01000*%
%ADD17C,0.00800*%
G36*
X14567Y135563D02*
X13583Y133858D01*
X15551D01*
X14567Y135563D01*
D02*
G37*
G36*
X14173Y158791D02*
X13189Y157087D01*
X15157D01*
X14173Y158791D01*
D02*
G37*
G36*
X14567Y182413D02*
X13583Y180709D01*
X15551D01*
X14567Y182413D01*
D02*
G37*
G36*
X14173Y206035D02*
X13189Y204331D01*
X15157D01*
X14173Y206035D01*
D02*
G37*
G36*
X14567Y228476D02*
X13583Y226772D01*
X15551D01*
X14567Y228476D01*
D02*
G37*
G36*
X15354Y253280D02*
X14370Y251575D01*
X16339D01*
X15354Y253280D01*
D02*
G37*
G36*
X14173Y276902D02*
X13189Y275197D01*
X15157D01*
X14173Y276902D01*
D02*
G37*
G36*
X62609Y66328D02*
X62696Y66317D01*
X62904Y66273D01*
X62991Y66240D01*
X63057Y66186D01*
X63068Y66175D01*
X63079Y66153D01*
X63101Y66120D01*
X63134Y66054D01*
X63166Y65989D01*
X63188Y65890D01*
X63199Y65770D01*
X63210Y65639D01*
Y65574D01*
X63199Y65508D01*
X63188Y65421D01*
X63144Y65246D01*
X63112Y65158D01*
X63057Y65093D01*
X63046Y65082D01*
X63024Y65071D01*
X62991Y65049D01*
X62926Y65016D01*
X62849Y64983D01*
X62751Y64961D01*
X62631Y64951D01*
X62489Y64939D01*
X62467D01*
X62412D01*
X62336Y64951D01*
X62248Y64961D01*
X62051Y65005D01*
X61953Y65038D01*
X61888Y65093D01*
X61877Y65104D01*
X61866Y65125D01*
X61844Y65158D01*
X61822Y65224D01*
X61789Y65300D01*
X61767Y65388D01*
X61756Y65508D01*
X61745Y65650D01*
Y65716D01*
X61756Y65781D01*
X61767Y65869D01*
X61811Y66044D01*
X61844Y66131D01*
X61888Y66197D01*
X61898Y66207D01*
X61920Y66218D01*
X61953Y66240D01*
X62019Y66262D01*
X62095Y66295D01*
X62194Y66317D01*
X62314Y66328D01*
X62456Y66339D01*
X62478D01*
X62532D01*
X62609Y66328D01*
D02*
G37*
G36*
Y196249D02*
X62696Y196238D01*
X62904Y196194D01*
X62991Y196161D01*
X63057Y196107D01*
X63068Y196096D01*
X63079Y196074D01*
X63101Y196041D01*
X63134Y195976D01*
X63166Y195910D01*
X63188Y195812D01*
X63199Y195692D01*
X63210Y195560D01*
Y195495D01*
X63199Y195429D01*
X63188Y195342D01*
X63144Y195167D01*
X63112Y195079D01*
X63057Y195014D01*
X63046Y195003D01*
X63024Y194992D01*
X62991Y194970D01*
X62926Y194937D01*
X62849Y194904D01*
X62751Y194883D01*
X62631Y194872D01*
X62489Y194861D01*
X62467D01*
X62412D01*
X62336Y194872D01*
X62248Y194883D01*
X62051Y194926D01*
X61953Y194959D01*
X61888Y195014D01*
X61877Y195025D01*
X61866Y195047D01*
X61844Y195079D01*
X61822Y195145D01*
X61789Y195221D01*
X61767Y195309D01*
X61756Y195429D01*
X61745Y195571D01*
Y195637D01*
X61756Y195702D01*
X61767Y195790D01*
X61811Y195965D01*
X61844Y196052D01*
X61888Y196118D01*
X61898Y196129D01*
X61920Y196140D01*
X61953Y196161D01*
X62019Y196183D01*
X62095Y196216D01*
X62194Y196238D01*
X62314Y196249D01*
X62456Y196260D01*
X62478D01*
X62532D01*
X62609Y196249D01*
D02*
G37*
G36*
Y326170D02*
X62696Y326159D01*
X62904Y326115D01*
X62991Y326083D01*
X63057Y326028D01*
X63068Y326017D01*
X63079Y325995D01*
X63101Y325962D01*
X63134Y325897D01*
X63166Y325831D01*
X63188Y325733D01*
X63199Y325613D01*
X63210Y325482D01*
Y325416D01*
X63199Y325350D01*
X63188Y325263D01*
X63144Y325088D01*
X63112Y325001D01*
X63057Y324935D01*
X63046Y324924D01*
X63024Y324913D01*
X62991Y324891D01*
X62926Y324859D01*
X62849Y324826D01*
X62751Y324804D01*
X62631Y324793D01*
X62489Y324782D01*
X62467D01*
X62412D01*
X62336Y324793D01*
X62248Y324804D01*
X62051Y324848D01*
X61953Y324880D01*
X61888Y324935D01*
X61877Y324946D01*
X61866Y324968D01*
X61844Y325001D01*
X61822Y325066D01*
X61789Y325143D01*
X61767Y325230D01*
X61756Y325350D01*
X61745Y325493D01*
Y325558D01*
X61756Y325624D01*
X61767Y325711D01*
X61811Y325886D01*
X61844Y325973D01*
X61888Y326039D01*
X61898Y326050D01*
X61920Y326061D01*
X61953Y326083D01*
X62019Y326105D01*
X62095Y326137D01*
X62194Y326159D01*
X62314Y326170D01*
X62456Y326181D01*
X62478D01*
X62532D01*
X62609Y326170D01*
D02*
G37*
D10*
X276319Y370079D02*
G03*
X276319Y370079I-492J0D01*
G01*
X379941Y358307D02*
G03*
X379941Y358307I-492J0D01*
G01*
X344508Y359095D02*
G03*
X344508Y359095I-492J0D01*
G01*
X379547Y381929D02*
G03*
X379547Y381929I-492J0D01*
G01*
X344508Y381929D02*
G03*
X344508Y381929I-492J0D01*
G01*
X276319Y110236D02*
G03*
X276319Y110236I-492J0D01*
G01*
X379941Y98465D02*
G03*
X379941Y98465I-492J0D01*
G01*
X344508D02*
G03*
X344508Y98465I-492J0D01*
G01*
X379547Y122087D02*
G03*
X379547Y122087I-492J0D01*
G01*
X344508Y122087D02*
G03*
X344508Y122087I-492J0D01*
G01*
X276319Y240158D02*
G03*
X276319Y240158I-492J0D01*
G01*
X379941Y228386D02*
G03*
X379941Y228386I-492J0D01*
G01*
X344587Y228543D02*
G03*
X344587Y228543I-492J0D01*
G01*
X379547Y252008D02*
G03*
X379547Y252008I-492J0D01*
G01*
X344508Y252008D02*
G03*
X344508Y252008I-492J0D01*
G01*
X156299Y69390D02*
G03*
X156299Y69390I-492J0D01*
G01*
Y199311D02*
G03*
X156299Y199311I-492J0D01*
G01*
Y329232D02*
G03*
X156299Y329232I-492J0D01*
G01*
X350492Y180118D02*
G03*
X350492Y180118I-492J0D01*
G01*
X359232Y183425D02*
G03*
X359232Y183425I-492J0D01*
G01*
X417343Y189606D02*
G03*
X417343Y189606I-492J0D01*
G01*
X406398Y170965D02*
G03*
X406398Y170965I-492J0D01*
G01*
X391791Y189587D02*
G03*
X391791Y189587I-492J0D01*
G01*
X431988Y170965D02*
G03*
X431988Y170965I-492J0D01*
G01*
X320354Y171653D02*
G03*
X320354Y171653I-492J0D01*
G01*
X350492Y50197D02*
G03*
X350492Y50197I-492J0D01*
G01*
X359232Y53504D02*
G03*
X359232Y53504I-492J0D01*
G01*
X417343Y59685D02*
G03*
X417343Y59685I-492J0D01*
G01*
X406398Y41043D02*
G03*
X406398Y41043I-492J0D01*
G01*
X391791Y59665D02*
G03*
X391791Y59665I-492J0D01*
G01*
X431988Y41043D02*
G03*
X431988Y41043I-492J0D01*
G01*
X320354Y41732D02*
G03*
X320354Y41732I-492J0D01*
G01*
Y301575D02*
G03*
X320354Y301575I-492J0D01*
G01*
X359232Y313347D02*
G03*
X359232Y313347I-492J0D01*
G01*
X350492Y310039D02*
G03*
X350492Y310039I-492J0D01*
G01*
X406398Y300886D02*
G03*
X406398Y300886I-492J0D01*
G01*
X391791Y319508D02*
G03*
X391791Y319508I-492J0D01*
G01*
X417343Y319528D02*
G03*
X417343Y319528I-492J0D01*
G01*
X431988Y300886D02*
G03*
X431988Y300886I-492J0D01*
G01*
D11*
X17679Y140422D02*
G03*
X17567Y140396I-112J224D01*
G01*
X17285Y163650D02*
G03*
X17173Y163624I-112J224D01*
G01*
X17679Y187273D02*
G03*
X17567Y187246I-112J224D01*
G01*
X17285Y210894D02*
G03*
X17173Y210868I-112J224D01*
G01*
X17679Y233335D02*
G03*
X17567Y233309I-112J224D01*
G01*
X18466Y258139D02*
G03*
X18354Y258112I-112J224D01*
G01*
X17285Y281761D02*
G03*
X17173Y281734I-112J224D01*
G01*
X231390Y343339D02*
X232390D01*
X231390Y339339D02*
X232390D01*
X282965Y339732D02*
X283965D01*
X282965Y343732D02*
X283965D01*
X282571Y377921D02*
X283571D01*
X282571Y381921D02*
X283571D01*
X231390Y382315D02*
X232390D01*
X231390Y378315D02*
X232390D01*
X439264Y355937D02*
X440264D01*
X439264Y351937D02*
X440264D01*
X439264Y366567D02*
X440264D01*
X439264Y362567D02*
X440264D01*
X439264Y377590D02*
X440264D01*
X439264Y373590D02*
X440264D01*
X439264Y387433D02*
X440264D01*
X439264Y383433D02*
X440264D01*
X231390Y350819D02*
X232390D01*
X231390Y346819D02*
X232390D01*
X282866Y346819D02*
X283866D01*
X282866Y350819D02*
X283866D01*
X282571Y370835D02*
X283571D01*
X282571Y374835D02*
X283571D01*
X231390D02*
X232390D01*
X231390Y370835D02*
X232390D01*
X260130Y382315D02*
X261130D01*
X260130Y378315D02*
X261130D01*
X369260Y353831D02*
Y354831D01*
X373260Y353831D02*
Y354831D01*
X333433Y353831D02*
Y354831D01*
X337433Y353831D02*
Y354831D01*
X369260Y377453D02*
Y378453D01*
X373260Y377453D02*
Y378453D01*
X333827Y377354D02*
Y378354D01*
X337827Y377354D02*
Y378354D01*
X423910Y351937D02*
X424909D01*
X423910Y355937D02*
X424909D01*
X424008Y362567D02*
X425008D01*
X424008Y366567D02*
X425008D01*
X423910Y373590D02*
X424909D01*
X423910Y377590D02*
X424909D01*
X422335Y383827D02*
X423335D01*
X422335Y387827D02*
X423335D01*
X4693Y133752D02*
Y134752D01*
X8693Y133752D02*
Y134752D01*
X4693Y156587D02*
Y157587D01*
X8693Y156587D02*
Y157587D01*
X4693Y180602D02*
Y181602D01*
X8693Y180602D02*
Y181602D01*
X4693Y204224D02*
Y205224D01*
X8693Y204224D02*
Y205224D01*
X5087Y227059D02*
Y228059D01*
X9087Y227059D02*
Y228059D01*
X6268Y251862D02*
Y252862D01*
X10268Y251862D02*
Y252862D01*
X4693Y275091D02*
Y276091D01*
X8693Y275091D02*
Y276091D01*
X231390Y83496D02*
X232390D01*
X231390Y79496D02*
X232390D01*
X282965Y79890D02*
X283965D01*
X282965Y83890D02*
X283965D01*
X282571Y118079D02*
X283571D01*
X282571Y122079D02*
X283571D01*
X231390Y122472D02*
X232390D01*
X231390Y118472D02*
X232390D01*
X439264Y96095D02*
X440264D01*
X439264Y92094D02*
X440264D01*
X439264Y106724D02*
X440264D01*
X439264Y102724D02*
X440264D01*
X439264Y117748D02*
X440264D01*
X439264Y113748D02*
X440264D01*
X439264Y129559D02*
X440264D01*
X439264Y125559D02*
X440264D01*
X231390Y90976D02*
X232390D01*
X231390Y86976D02*
X232390D01*
X282866Y86976D02*
X283866D01*
X282866Y90976D02*
X283866D01*
X282571Y110992D02*
X283571D01*
X282571Y114992D02*
X283571D01*
X231390D02*
X232390D01*
X231390Y110992D02*
X232390D01*
X260130Y122472D02*
X261130D01*
X260130Y118472D02*
X261130D01*
X369260Y93988D02*
Y94988D01*
X373260Y93988D02*
Y94988D01*
X333433Y93988D02*
Y94988D01*
X337433Y93988D02*
Y94988D01*
X369260Y117610D02*
Y118610D01*
X373260Y117610D02*
Y118610D01*
X333827Y117512D02*
Y118512D01*
X337827Y117512D02*
Y118512D01*
X423910Y92094D02*
X424909D01*
X423910Y96095D02*
X424909D01*
X424008Y102724D02*
X425008D01*
X424008Y106724D02*
X425008D01*
X423910Y113748D02*
X424909D01*
X423910Y117748D02*
X424909D01*
X423811Y125559D02*
X424811D01*
X423811Y129559D02*
X424811D01*
X231390Y213417D02*
X232390D01*
X231390Y209417D02*
X232390D01*
X282965Y209811D02*
X283965D01*
X282965Y213811D02*
X283965D01*
X282571Y248000D02*
X283571D01*
X282571Y252000D02*
X283571D01*
X231390Y252394D02*
X232390D01*
X231390Y248394D02*
X232390D01*
X439264Y226016D02*
X440264D01*
X439264Y222016D02*
X440264D01*
X439264Y236646D02*
X440264D01*
X439264Y232646D02*
X440264D01*
X439264Y247669D02*
X440264D01*
X439264Y243669D02*
X440264D01*
X439264Y259480D02*
X440264D01*
X439264Y255480D02*
X440264D01*
X231390Y220898D02*
X232390D01*
X231390Y216898D02*
X232390D01*
X282866Y216898D02*
X283866D01*
X282866Y220898D02*
X283866D01*
X282571Y240913D02*
X283571D01*
X282571Y244913D02*
X283571D01*
X231390D02*
X232390D01*
X231390Y240913D02*
X232390D01*
X260130Y252394D02*
X261130D01*
X260130Y248394D02*
X261130D01*
X369260Y223909D02*
Y224909D01*
X373260Y223909D02*
Y224909D01*
X333433Y223909D02*
Y224909D01*
X337433Y223909D02*
Y224909D01*
X369260Y247532D02*
Y248532D01*
X373260Y247532D02*
Y248532D01*
X333827Y247433D02*
Y248433D01*
X337827Y247433D02*
Y248433D01*
X423910Y222016D02*
X424909D01*
X423910Y226016D02*
X424909D01*
X424008Y232646D02*
X425008D01*
X424008Y236646D02*
X425008D01*
X423910Y243669D02*
X424909D01*
X423910Y247669D02*
X424909D01*
X423811Y255480D02*
X424811D01*
X423811Y259480D02*
X424811D01*
X84291Y35157D02*
Y64370D01*
X58268Y35157D02*
X84291D01*
X58268D02*
Y64370D01*
X84291D01*
X198850Y63279D02*
Y64280D01*
X194850Y63279D02*
Y64280D01*
X208630Y82669D02*
Y83669D01*
X212630Y82669D02*
Y83669D01*
X205150Y82571D02*
Y83571D01*
X201150Y82571D02*
Y83571D01*
X186189Y82669D02*
Y83669D01*
X190189Y82669D02*
Y83669D01*
X197669Y82571D02*
Y83571D01*
X193669Y82571D02*
Y83571D01*
X123122Y85071D02*
X124122D01*
X123122Y81071D02*
X124122D01*
X123122Y73590D02*
X124122D01*
X123122Y77591D02*
X124122D01*
X138157Y38476D02*
Y39476D01*
X142157Y38476D02*
Y39476D01*
X110524Y81071D02*
X111524D01*
X110524Y85071D02*
X111524D01*
X123516Y37370D02*
X124516D01*
X123516Y41370D02*
X124516D01*
X123516Y48457D02*
X124516D01*
X123516Y44457D02*
X124516D01*
X110524Y77591D02*
X111524D01*
X110524Y73590D02*
X111524D01*
X95244Y57768D02*
Y58768D01*
X99244Y57768D02*
Y58768D01*
X110992Y57768D02*
Y58768D01*
X114992Y57768D02*
Y58768D01*
X107118Y57768D02*
Y58768D01*
X103118Y57768D02*
Y58768D01*
X110524Y101213D02*
X111524D01*
X110524Y97213D02*
X111524D01*
X159736Y129559D02*
X160736D01*
X159736Y125559D02*
X160736D01*
X159736Y122079D02*
X160736D01*
X159736Y118079D02*
X160736D01*
X110524Y92945D02*
X111524D01*
X110524Y88945D02*
X111524D01*
X172728Y125559D02*
X173728D01*
X172728Y129559D02*
X173728D01*
X172728Y122079D02*
X173728D01*
X172728Y118079D02*
X173728D01*
X86189Y49500D02*
Y50500D01*
X90189Y49500D02*
Y50500D01*
X56331Y49106D02*
Y50106D01*
X52331Y49106D02*
Y50106D01*
X126272Y122472D02*
X127272D01*
X126272Y118472D02*
X127272D01*
X126272Y129559D02*
X127272D01*
X126272Y125559D02*
X127272D01*
X142992Y90315D02*
Y108110D01*
X133386D02*
X142992D01*
X133386Y90315D02*
X142992D01*
X133386D02*
Y108110D01*
X154016Y90315D02*
Y108110D01*
X144409D02*
X154016D01*
X144409Y90315D02*
X154016D01*
X144409D02*
Y108110D01*
X84291Y165079D02*
Y194291D01*
X58268Y165079D02*
X84291D01*
X58268D02*
Y194291D01*
X84291D01*
X198850Y193201D02*
Y194201D01*
X194850Y193201D02*
Y194201D01*
X208630Y212591D02*
Y213591D01*
X212630Y212591D02*
Y213591D01*
X205150Y212492D02*
Y213492D01*
X201150Y212492D02*
Y213492D01*
X186189Y212591D02*
Y213591D01*
X190189Y212591D02*
Y213591D01*
X197669Y212492D02*
Y213492D01*
X193669Y212492D02*
Y213492D01*
X123122Y214992D02*
X124122D01*
X123122Y210992D02*
X124122D01*
X123122Y203512D02*
X124122D01*
X123122Y207512D02*
X124122D01*
X138157Y168398D02*
Y169398D01*
X142157Y168398D02*
Y169398D01*
X110524Y210992D02*
X111524D01*
X110524Y214992D02*
X111524D01*
X123516Y167291D02*
X124516D01*
X123516Y171291D02*
X124516D01*
X123516Y178378D02*
X124516D01*
X123516Y174378D02*
X124516D01*
X110524Y207512D02*
X111524D01*
X110524Y203512D02*
X111524D01*
X95244Y187689D02*
Y188689D01*
X99244Y187689D02*
Y188689D01*
X110992Y187689D02*
Y188689D01*
X114992Y187689D02*
Y188689D01*
X107118Y187689D02*
Y188689D01*
X103118Y187689D02*
Y188689D01*
X110524Y231134D02*
X111524D01*
X110524Y227134D02*
X111524D01*
X159736Y259480D02*
X160736D01*
X159736Y255480D02*
X160736D01*
X159736Y252000D02*
X160736D01*
X159736Y248000D02*
X160736D01*
X110524Y222866D02*
X111524D01*
X110524Y218866D02*
X111524D01*
X172728Y255480D02*
X173728D01*
X172728Y259480D02*
X173728D01*
X172728Y252000D02*
X173728D01*
X172728Y248000D02*
X173728D01*
X86189Y179421D02*
Y180421D01*
X90189Y179421D02*
Y180421D01*
X56331Y179028D02*
Y180028D01*
X52331Y179028D02*
Y180028D01*
X126272Y252394D02*
X127272D01*
X126272Y248394D02*
X127272D01*
X126272Y259480D02*
X127272D01*
X126272Y255480D02*
X127272D01*
X142992Y220236D02*
Y238032D01*
X133386D02*
X142992D01*
X133386Y220236D02*
X142992D01*
X133386D02*
Y238032D01*
X154016Y220236D02*
Y238032D01*
X144409D02*
X154016D01*
X144409Y220236D02*
X154016D01*
X144409D02*
Y238032D01*
X84291Y295000D02*
Y324213D01*
X58268Y295000D02*
X84291D01*
X58268D02*
Y324213D01*
X84291D01*
X194850Y323122D02*
Y324122D01*
X198850Y323122D02*
Y324122D01*
X212630Y342512D02*
Y343512D01*
X208630Y342512D02*
Y343512D01*
X201150Y342413D02*
Y343413D01*
X205150Y342413D02*
Y343413D01*
X190189Y342512D02*
Y343512D01*
X186189Y342512D02*
Y343512D01*
X193669Y342413D02*
Y343413D01*
X197669Y342413D02*
Y343413D01*
X123122Y340913D02*
X124122D01*
X123122Y344913D02*
X124122D01*
X123122Y337433D02*
X124122D01*
X123122Y333433D02*
X124122D01*
X142157Y298319D02*
Y299319D01*
X138157Y298319D02*
Y299319D01*
X110524Y344913D02*
X111524D01*
X110524Y340913D02*
X111524D01*
X123516Y301213D02*
X124516D01*
X123516Y297213D02*
X124516D01*
X123516Y304299D02*
X124516D01*
X123516Y308299D02*
X124516D01*
X110524Y333433D02*
X111524D01*
X110524Y337433D02*
X111524D01*
X99244Y317610D02*
Y318610D01*
X95244Y317610D02*
Y318610D01*
X114992Y317610D02*
Y318610D01*
X110992Y317610D02*
Y318610D01*
X103118Y317610D02*
Y318610D01*
X107118Y317610D02*
Y318610D01*
X110524Y357055D02*
X111524D01*
X110524Y361055D02*
X111524D01*
X159736Y383827D02*
X160736D01*
X159736Y387827D02*
X160736D01*
X159736Y376740D02*
X160736D01*
X159736Y380740D02*
X160736D01*
X110524Y348787D02*
X111524D01*
X110524Y352787D02*
X111524D01*
X172728Y387827D02*
X173728D01*
X172728Y383827D02*
X173728D01*
X172728Y376740D02*
X173728D01*
X172728Y380740D02*
X173728D01*
X90189Y309343D02*
Y310343D01*
X86189Y309343D02*
Y310343D01*
X52331Y308949D02*
Y309949D01*
X56331Y308949D02*
Y309949D01*
X126272Y375559D02*
X127272D01*
X126272Y379559D02*
X127272D01*
X126272Y382646D02*
X127272D01*
X126272Y386646D02*
X127272D01*
X133386Y350157D02*
Y367953D01*
Y350157D02*
X142992D01*
X133386Y367953D02*
X142992D01*
Y350157D02*
Y367953D01*
X144409Y350157D02*
Y367953D01*
Y350157D02*
X154016D01*
X144409Y367953D02*
X154016D01*
Y350157D02*
Y367953D01*
X203858Y147402D02*
Y165197D01*
Y147402D02*
X213465D01*
X203858Y165197D02*
X213465D01*
Y147402D02*
Y165197D01*
X283102Y184933D02*
Y185933D01*
X279102Y184933D02*
Y185933D01*
X267244Y173779D02*
Y191575D01*
Y173779D02*
X276851D01*
X267244Y191575D02*
X276851D01*
Y173779D02*
Y191575D01*
X316961Y158457D02*
Y159457D01*
X312961Y158457D02*
Y159457D01*
X316429Y208299D02*
X317429D01*
X316429Y204299D02*
X317429D01*
X297138Y166173D02*
X298138D01*
X297138Y162173D02*
X298138D01*
X297138Y154299D02*
X298138D01*
X297138Y158299D02*
X298138D01*
X309480Y165248D02*
Y166248D01*
X305480Y165248D02*
Y166248D01*
X303831Y202000D02*
X304831D01*
X303831Y198000D02*
X304831D01*
X319654Y158457D02*
Y159457D01*
X323654Y158457D02*
Y159457D01*
X316429Y198000D02*
X317429D01*
X316429Y202000D02*
X317429D01*
X437394Y195484D02*
Y196484D01*
X433394Y195484D02*
Y196484D01*
X371941Y184614D02*
X372941D01*
X371941Y188614D02*
X372941D01*
X371941Y176740D02*
X372941D01*
X371941Y180740D02*
X372941D01*
X407803Y167925D02*
Y168925D01*
X411803Y167925D02*
Y168925D01*
X411842Y195465D02*
Y196465D01*
X407842Y195465D02*
Y196465D01*
X371941Y192488D02*
X372941D01*
X371941Y196488D02*
X372941D01*
X371941Y169260D02*
X372941D01*
X371941Y173260D02*
X372941D01*
X433787Y167827D02*
Y168827D01*
X437787Y167827D02*
Y168827D01*
X446744Y202331D02*
X447744D01*
X446744Y206331D02*
X447744D01*
X446744Y190583D02*
X447744D01*
X446744Y186583D02*
X447744D01*
X446744Y194457D02*
X447744D01*
X446744Y198457D02*
X447744D01*
X446744Y182709D02*
X447744D01*
X446744Y178709D02*
X447744D01*
X203858Y17480D02*
Y35276D01*
Y17480D02*
X213465D01*
X203858Y35276D02*
X213465D01*
Y17480D02*
Y35276D01*
X283102Y55012D02*
Y56012D01*
X279102Y55012D02*
Y56012D01*
X267244Y43858D02*
Y61654D01*
Y43858D02*
X276851D01*
X267244Y61654D02*
X276851D01*
Y43858D02*
Y61654D01*
X316961Y28535D02*
Y29535D01*
X312961Y28535D02*
Y29535D01*
X316429Y78378D02*
X317429D01*
X316429Y74378D02*
X317429D01*
X297138Y36252D02*
X298138D01*
X297138Y32252D02*
X298138D01*
X297138Y24378D02*
X298138D01*
X297138Y28378D02*
X298138D01*
X309480Y35327D02*
Y36327D01*
X305480Y35327D02*
Y36327D01*
X303831Y72079D02*
X304831D01*
X303831Y68079D02*
X304831D01*
X319654Y28535D02*
Y29535D01*
X323654Y28535D02*
Y29535D01*
X316429Y68079D02*
X317429D01*
X316429Y72079D02*
X317429D01*
X437394Y65563D02*
Y66563D01*
X433394Y65563D02*
Y66563D01*
X371941Y54693D02*
X372941D01*
X371941Y58693D02*
X372941D01*
X371941Y46819D02*
X372941D01*
X371941Y50819D02*
X372941D01*
X407803Y38004D02*
Y39004D01*
X411803Y38004D02*
Y39004D01*
X411842Y65543D02*
Y66543D01*
X407842Y65543D02*
Y66543D01*
X371941Y62567D02*
X372941D01*
X371941Y66567D02*
X372941D01*
X371941Y39339D02*
X372941D01*
X371941Y43339D02*
X372941D01*
X433787Y37905D02*
Y38906D01*
X437787Y37905D02*
Y38906D01*
X446744Y72409D02*
X447744D01*
X446744Y76410D02*
X447744D01*
X446744Y60661D02*
X447744D01*
X446744Y56661D02*
X447744D01*
X446744Y64535D02*
X447744D01*
X446744Y68535D02*
X447744D01*
X446744Y52787D02*
X447744D01*
X446744Y48787D02*
X447744D01*
X297138Y296094D02*
X298138D01*
X297138Y292094D02*
X298138D01*
X303831Y331921D02*
X304831D01*
X303831Y327921D02*
X304831D01*
X316429Y338221D02*
X317429D01*
X316429Y334221D02*
X317429D01*
X371941Y299181D02*
X372941D01*
X371941Y303181D02*
X372941D01*
X371941Y306661D02*
X372941D01*
X371941Y310661D02*
X372941D01*
X371941Y314535D02*
X372941D01*
X371941Y318535D02*
X372941D01*
X371941Y322410D02*
X372941D01*
X371941Y326410D02*
X372941D01*
X411842Y325386D02*
Y326386D01*
X407842Y325386D02*
Y326386D01*
X407803Y297846D02*
Y298846D01*
X411803Y297846D02*
Y298846D01*
X437394Y325406D02*
Y326406D01*
X433394Y325406D02*
Y326406D01*
X433787Y297748D02*
Y298748D01*
X437787Y297748D02*
Y298748D01*
X267244Y303701D02*
Y321496D01*
Y303701D02*
X276851D01*
X267244Y321496D02*
X276851D01*
Y303701D02*
Y321496D01*
X203858Y277323D02*
Y295118D01*
Y277323D02*
X213465D01*
X203858Y295118D02*
X213465D01*
Y277323D02*
Y295118D01*
X283102Y314854D02*
Y315854D01*
X279102Y314854D02*
Y315854D01*
X297138Y284221D02*
X298138D01*
X297138Y288221D02*
X298138D01*
X316961Y288378D02*
Y289378D01*
X312961Y288378D02*
Y289378D01*
X309480Y295169D02*
Y296169D01*
X305480Y295169D02*
Y296169D01*
X446744Y312630D02*
X447744D01*
X446744Y308630D02*
X447744D01*
X446744Y332252D02*
X447744D01*
X446744Y336252D02*
X447744D01*
X446744Y324378D02*
X447744D01*
X446744Y328378D02*
X447744D01*
X319654Y288378D02*
Y289378D01*
X323654Y288378D02*
Y289378D01*
X316429Y327921D02*
X317429D01*
X316429Y331921D02*
X317429D01*
X446744Y320504D02*
X447744D01*
X446744Y316504D02*
X447744D01*
D12*
X576398Y35591D02*
G03*
X579134Y38327I0J2736D01*
G01*
X558268Y35571D02*
G03*
X555532Y32835I0J-2736D01*
G01*
X579134Y102618D02*
G03*
X576398Y105354I-2736J0D01*
G01*
X555532Y108110D02*
G03*
X558268Y105374I2736J0D01*
G01*
X555532Y234488D02*
G03*
X558268Y231752I2736J0D01*
G01*
X579134Y228996D02*
G03*
X576398Y231732I-2736J0D01*
G01*
X558268Y161949D02*
G03*
X555532Y159213I0J-2736D01*
G01*
X576398Y161969D02*
G03*
X579134Y164705I0J2736D01*
G01*
X555532Y360866D02*
G03*
X558268Y358130I2736J0D01*
G01*
X579134Y355374D02*
G03*
X576398Y358110I-2736J0D01*
G01*
X558268Y288327D02*
G03*
X555532Y285591I0J-2736D01*
G01*
X576398Y288347D02*
G03*
X579134Y291083I0J2736D01*
G01*
X215472Y163189D02*
G03*
X215472Y175000I0J5906D01*
G01*
Y33268D02*
G03*
X215472Y45079I0J5906D01*
G01*
Y293110D02*
G03*
X215472Y304921I0J5906D01*
G01*
X240158Y364173D02*
X274803D01*
X240158Y357087D02*
X274803D01*
Y364173D01*
X240158Y357087D02*
Y364173D01*
X386634Y345315D02*
Y348465D01*
X383090Y345315D02*
X386634D01*
Y353976D02*
Y357126D01*
X383090D02*
X386634D01*
X347657Y357913D02*
X351201D01*
Y354764D02*
Y357913D01*
X347657Y346102D02*
X351201D01*
Y349252D01*
X386240Y368937D02*
Y372087D01*
X382697Y368937D02*
X386240D01*
Y377598D02*
Y380748D01*
X382697D02*
X386240D01*
X351201Y368937D02*
Y372087D01*
X347657Y368937D02*
X351201D01*
Y377598D02*
Y380748D01*
X347657D02*
X351201D01*
X-16339Y151890D02*
X-7283D01*
X-16339Y164646D02*
X-7283D01*
X-16339Y175512D02*
X-7283D01*
X-16339Y188268D02*
X-7283D01*
X-16339Y127874D02*
X-7283D01*
X-16339Y140630D02*
X-7283D01*
X-16339Y198740D02*
X-7283D01*
X-16339Y211496D02*
X-7283D01*
X-15945Y222362D02*
X-6890D01*
X-15945Y235118D02*
X-6890D01*
X-15945Y245984D02*
X-6890D01*
X-15945Y258740D02*
X-6890D01*
X28346Y175197D02*
Y212205D01*
Y128347D02*
Y166535D01*
Y222047D02*
Y261417D01*
X-15551Y270000D02*
X-6496D01*
X-15551Y282756D02*
X-6496D01*
X558268Y35571D02*
X576378D01*
X558268Y105374D02*
X576378D01*
X506693Y98032D02*
X543701D01*
X555512Y9843D02*
Y131102D01*
X506693Y42913D02*
X543701D01*
X506693Y9843D02*
Y131102D01*
X579134Y38327D02*
Y102618D01*
X506693Y131102D02*
X555512D01*
X506693Y9843D02*
X555512D01*
X543701D02*
Y131102D01*
X35315Y22480D02*
Y82480D01*
X15315D02*
X35315D01*
X15315Y22480D02*
Y82480D01*
Y22480D02*
X35315D01*
X100000Y103543D02*
Y112992D01*
X72047Y103543D02*
X100000D01*
X72047D02*
Y112992D01*
X100000D01*
X100276Y233465D02*
Y242913D01*
X72323Y233465D02*
X100276D01*
X72323D02*
Y242913D01*
X100276D01*
X74016Y372835D02*
X101969D01*
X74016Y363386D02*
Y372835D01*
Y363386D02*
X101969D01*
Y372835D01*
X240158Y104331D02*
X274803D01*
X240158Y97244D02*
X274803D01*
Y104331D01*
X240158Y97244D02*
Y104331D01*
X386634Y85472D02*
Y88622D01*
X383090Y85472D02*
X386634D01*
Y94134D02*
Y97284D01*
X383090D02*
X386634D01*
X351201Y85472D02*
Y88622D01*
X347657Y85472D02*
X351201D01*
Y94134D02*
Y97284D01*
X347657D02*
X351201D01*
X386240Y109095D02*
Y112244D01*
X382697Y109095D02*
X386240D01*
Y117756D02*
Y120905D01*
X382697D02*
X386240D01*
X351201Y109095D02*
Y112244D01*
X347657Y109095D02*
X351201D01*
Y117756D02*
Y120905D01*
X347657D02*
X351201D01*
X240158Y234252D02*
X274803D01*
X240158Y227165D02*
X274803D01*
Y234252D01*
X240158Y227165D02*
Y234252D01*
X386634Y215394D02*
Y218543D01*
X383090Y215394D02*
X386634D01*
Y224055D02*
Y227205D01*
X383090D02*
X386634D01*
X351279Y215551D02*
Y218701D01*
X347736Y215551D02*
X351279D01*
Y224213D02*
Y227362D01*
X347736D02*
X351279D01*
X386240Y239016D02*
Y242165D01*
X382697Y239016D02*
X386240D01*
Y247677D02*
Y250827D01*
X382697D02*
X386240D01*
X351201Y239016D02*
Y242165D01*
X347657Y239016D02*
X351201D01*
Y247677D02*
Y250827D01*
X347657D02*
X351201D01*
X159843Y43701D02*
X184252D01*
X159843Y68110D02*
X184252D01*
Y43701D02*
Y68110D01*
X159843Y43701D02*
Y68110D01*
X543701Y136221D02*
Y257480D01*
X506693Y136221D02*
X555512D01*
X506693Y257480D02*
X555512D01*
X579134Y164705D02*
Y228996D01*
X506693Y136221D02*
Y257480D01*
X506693Y169291D02*
X543701D01*
X555512Y136221D02*
Y257480D01*
X506693Y224410D02*
X543701D01*
X558268Y231752D02*
X576378D01*
X558268Y161949D02*
X576378D01*
X159843Y173622D02*
X184252D01*
X159843Y198031D02*
X184252D01*
Y173622D02*
Y198031D01*
X159843Y173622D02*
Y198031D01*
X543701Y262598D02*
Y383858D01*
X506693Y262598D02*
X555512D01*
X506693Y383858D02*
X555512D01*
X579134Y291083D02*
Y355374D01*
X506693Y262598D02*
Y383858D01*
X506693Y295669D02*
X543701D01*
X555512Y262598D02*
Y383858D01*
X506693Y350787D02*
X543701D01*
X558268Y358130D02*
X576378D01*
X558268Y288327D02*
X576378D01*
X159843Y303543D02*
Y327953D01*
X184252Y303543D02*
Y327953D01*
X159843D02*
X184252D01*
X159843Y303543D02*
X184252D01*
X15709Y308543D02*
X35709D01*
X15709D02*
Y368543D01*
X35709D01*
Y308543D02*
Y368543D01*
X357185Y167126D02*
Y170276D01*
X353642Y167126D02*
X357185D01*
Y175787D02*
Y178937D01*
X353642D02*
X357185D01*
X351555Y193268D02*
Y196417D01*
X355098D01*
X351555Y184606D02*
Y187756D01*
Y184606D02*
X355098D01*
X426693Y196791D02*
X429843D01*
Y193248D02*
Y196791D01*
X418032D02*
X421181D01*
X418032Y193248D02*
Y196791D01*
X392913Y163779D02*
X396063D01*
X392913D02*
Y167323D01*
X401575Y163779D02*
X404724D01*
Y167323D01*
X401142Y196772D02*
X404291D01*
Y193228D02*
Y196772D01*
X392480D02*
X395630D01*
X392480Y193228D02*
Y196772D01*
X418504Y163779D02*
X421654D01*
X418504D02*
Y167323D01*
X427165Y163779D02*
X430315D01*
Y167323D01*
X215394Y147159D02*
Y191417D01*
Y147159D02*
X265552D01*
Y191417D01*
X215394D02*
X265552D01*
X320866Y177559D02*
X340551D01*
X320866Y184646D02*
X340551D01*
X320866Y177559D02*
Y184646D01*
X340551Y177559D02*
Y184646D01*
X357185Y37205D02*
Y40354D01*
X353642Y37205D02*
X357185D01*
Y45866D02*
Y49016D01*
X353642D02*
X357185D01*
X351555Y63346D02*
Y66496D01*
X355098D01*
X351555Y54685D02*
Y57835D01*
Y54685D02*
X355098D01*
X426693Y66870D02*
X429843D01*
Y63327D02*
Y66870D01*
X418032D02*
X421181D01*
X418032Y63327D02*
Y66870D01*
X392913Y33858D02*
X396063D01*
X392913D02*
Y37402D01*
X401575Y33858D02*
X404724D01*
Y37402D01*
X401142Y66850D02*
X404291D01*
Y63307D02*
Y66850D01*
X392480D02*
X395630D01*
X392480Y63307D02*
Y66850D01*
X418504Y33858D02*
X421654D01*
X418504D02*
Y37402D01*
X427165Y33858D02*
X430315D01*
Y37402D01*
X215394Y17238D02*
Y61496D01*
Y17238D02*
X265552D01*
Y61496D01*
X215394D02*
X265552D01*
X320866Y47638D02*
X340551D01*
X320866Y54724D02*
X340551D01*
X320866Y47638D02*
Y54724D01*
X340551Y47638D02*
Y54724D01*
X320866Y307480D02*
X340551D01*
X320866Y314567D02*
X340551D01*
X320866Y307480D02*
Y314567D01*
X340551Y307480D02*
Y314567D01*
X351555Y323189D02*
Y326339D01*
X355098D01*
X351555Y314528D02*
Y317677D01*
Y314528D02*
X355098D01*
X357185Y297047D02*
Y300197D01*
X353642Y297047D02*
X357185D01*
Y305709D02*
Y308858D01*
X353642D02*
X357185D01*
X215394Y277080D02*
Y321339D01*
Y277080D02*
X265552D01*
Y321339D01*
X215394D02*
X265552D01*
X392913Y293701D02*
X396063D01*
X392913D02*
Y297244D01*
X401575Y293701D02*
X404724D01*
Y297244D01*
X401142Y326693D02*
X404291D01*
Y323150D02*
Y326693D01*
X392480D02*
X395630D01*
X392480Y323150D02*
Y326693D01*
X426693Y326713D02*
X429843D01*
Y323169D02*
Y326713D01*
X418032D02*
X421181D01*
X418032Y323169D02*
Y326713D01*
X418504Y293701D02*
X421654D01*
X418504D02*
Y297244D01*
X427165Y293701D02*
X430315D01*
Y297244D01*
X31420Y228345D02*
X30633Y227558D01*
Y225984D01*
X31420Y225197D01*
X34569D01*
X35356Y225984D01*
Y227558D01*
X34569Y228345D01*
X30633Y229920D02*
X35356D01*
X32995D01*
X32208Y230707D01*
Y232281D01*
X32995Y233068D01*
X35356D01*
X32208Y235430D02*
Y237004D01*
X32995Y237791D01*
X35356D01*
Y235430D01*
X34569Y234643D01*
X33782Y235430D01*
Y237791D01*
X35356Y239366D02*
X32208D01*
Y241727D01*
X32995Y242514D01*
X35356D01*
Y244088D02*
X32208D01*
Y246450D01*
X32995Y247237D01*
X35356D01*
Y251173D02*
Y249598D01*
X34569Y248811D01*
X32995D01*
X32208Y249598D01*
Y251173D01*
X32995Y251960D01*
X33782D01*
Y248811D01*
X35356Y253534D02*
Y255108D01*
Y254321D01*
X30633D01*
Y253534D01*
X42913Y225197D02*
X39765D01*
X38190Y226771D01*
X39765Y228345D01*
X42913D01*
X40552D01*
Y225197D01*
X42913Y229920D02*
X39765Y233068D01*
X42913Y234643D02*
Y236217D01*
Y235430D01*
X38190D01*
X38978Y234643D01*
X31420Y181889D02*
X30633Y181102D01*
Y179527D01*
X31420Y178740D01*
X34569D01*
X35356Y179527D01*
Y181102D01*
X34569Y181889D01*
X30633Y183463D02*
X35356D01*
X32995D01*
X32208Y184250D01*
Y185825D01*
X32995Y186612D01*
X35356D01*
X32208Y188973D02*
Y190547D01*
X32995Y191334D01*
X35356D01*
Y188973D01*
X34569Y188186D01*
X33782Y188973D01*
Y191334D01*
X35356Y192909D02*
X32208D01*
Y195270D01*
X32995Y196057D01*
X35356D01*
Y197632D02*
X32208D01*
Y199993D01*
X32995Y200780D01*
X35356D01*
Y204716D02*
Y203142D01*
X34569Y202355D01*
X32995D01*
X32208Y203142D01*
Y204716D01*
X32995Y205503D01*
X33782D01*
Y202355D01*
X35356Y207078D02*
Y208652D01*
Y207865D01*
X30633D01*
Y207078D01*
X38190Y178740D02*
X42913D01*
Y181102D01*
X42126Y181889D01*
X41339D01*
X40552Y181102D01*
Y178740D01*
Y181102D01*
X39765Y181889D01*
X38978D01*
X38190Y181102D01*
Y178740D01*
X42913Y183463D02*
X39765Y186612D01*
X42913Y191334D02*
Y188186D01*
X39765Y191334D01*
X38978D01*
X38190Y190547D01*
Y188973D01*
X38978Y188186D01*
X57405Y105511D02*
Y102362D01*
X62128D01*
Y105511D01*
X59766Y102362D02*
Y103937D01*
X57405Y107085D02*
X62128Y110234D01*
X57405D02*
X62128Y107085D01*
X58192Y114957D02*
X57405Y114169D01*
Y112595D01*
X58192Y111808D01*
X61341D01*
X62128Y112595D01*
Y114169D01*
X61341Y114957D01*
X64962Y105511D02*
Y103937D01*
Y104724D01*
X68898D01*
X69685Y103937D01*
Y103149D01*
X68898Y102362D01*
X64962Y107085D02*
X68898D01*
X69685Y107872D01*
Y109447D01*
X68898Y110234D01*
X64962D01*
X69685Y111808D02*
X64962D01*
X66536Y113382D01*
X64962Y114957D01*
X69685D01*
Y116531D02*
X64962D01*
Y118892D01*
X65749Y119679D01*
X67324D01*
X68111Y118892D01*
Y116531D01*
X64962Y124402D02*
Y121254D01*
X69685D01*
Y124402D01*
X67324Y121254D02*
Y122828D01*
X69685Y125977D02*
X64962D01*
Y128338D01*
X65749Y129125D01*
X67324D01*
X68111Y128338D01*
Y125977D01*
Y127551D02*
X69685Y129125D01*
X57680Y235432D02*
Y232283D01*
X62403D01*
Y235432D01*
X60042Y232283D02*
Y233858D01*
X57680Y237006D02*
X62403Y240155D01*
X57680D02*
X62403Y237006D01*
X58468Y244878D02*
X57680Y244091D01*
Y242516D01*
X58468Y241729D01*
X61616D01*
X62403Y242516D01*
Y244091D01*
X61616Y244878D01*
X65238Y235432D02*
Y233858D01*
Y234645D01*
X69173D01*
X69961Y233858D01*
Y233071D01*
X69173Y232283D01*
X65238Y237006D02*
X69173D01*
X69961Y237793D01*
Y239368D01*
X69173Y240155D01*
X65238D01*
X69961Y241729D02*
X65238D01*
X66812Y243303D01*
X65238Y244878D01*
X69961D01*
Y246452D02*
X65238D01*
Y248814D01*
X66025Y249601D01*
X67599D01*
X68386Y248814D01*
Y246452D01*
X65238Y254324D02*
Y251175D01*
X69961D01*
Y254324D01*
X67599Y251175D02*
Y252749D01*
X69961Y255898D02*
X65238D01*
Y258259D01*
X66025Y259047D01*
X67599D01*
X68386Y258259D01*
Y255898D01*
Y257472D02*
X69961Y259047D01*
X30239Y134645D02*
X29452Y133858D01*
Y132283D01*
X30239Y131496D01*
X33388D01*
X34175Y132283D01*
Y133858D01*
X33388Y134645D01*
X29452Y136219D02*
X34175D01*
X31814D01*
X31027Y137006D01*
Y138580D01*
X31814Y139368D01*
X34175D01*
X31027Y141729D02*
Y143303D01*
X31814Y144090D01*
X34175D01*
Y141729D01*
X33388Y140942D01*
X32601Y141729D01*
Y144090D01*
X34175Y145665D02*
X31027D01*
Y148026D01*
X31814Y148813D01*
X34175D01*
Y150388D02*
X31027D01*
Y152749D01*
X31814Y153536D01*
X34175D01*
Y157472D02*
Y155898D01*
X33388Y155111D01*
X31814D01*
X31027Y155898D01*
Y157472D01*
X31814Y158259D01*
X32601D01*
Y155111D01*
X34175Y159833D02*
Y161408D01*
Y160620D01*
X29452D01*
Y159833D01*
X37797Y134645D02*
X37009Y133858D01*
Y132283D01*
X37797Y131496D01*
X40945D01*
X41732Y132283D01*
Y133858D01*
X40945Y134645D01*
X41732Y136219D02*
X38584Y139368D01*
X37797Y140942D02*
X37009Y141729D01*
Y143303D01*
X37797Y144090D01*
X38584D01*
X39371Y143303D01*
Y142516D01*
Y143303D01*
X40158Y144090D01*
X40945D01*
X41732Y143303D01*
Y141729D01*
X40945Y140942D01*
X59373Y365353D02*
Y362205D01*
X64096D01*
Y365353D01*
X61735Y362205D02*
Y363779D01*
X59373Y366928D02*
X64096Y370076D01*
X59373D02*
X64096Y366928D01*
X60161Y374799D02*
X59373Y374012D01*
Y372438D01*
X60161Y371651D01*
X63309D01*
X64096Y372438D01*
Y374012D01*
X63309Y374799D01*
X66931Y365353D02*
Y363779D01*
Y364566D01*
X70866D01*
X71653Y363779D01*
Y362992D01*
X70866Y362205D01*
X66931Y366928D02*
X70866D01*
X71653Y367715D01*
Y369289D01*
X70866Y370076D01*
X66931D01*
X71653Y371651D02*
X66931D01*
X68505Y373225D01*
X66931Y374799D01*
X71653D01*
Y376373D02*
X66931D01*
Y378735D01*
X67718Y379522D01*
X69292D01*
X70079Y378735D01*
Y376373D01*
X66931Y384245D02*
Y381096D01*
X71653D01*
Y384245D01*
X69292Y381096D02*
Y382671D01*
X71653Y385819D02*
X66931D01*
Y388181D01*
X67718Y388968D01*
X69292D01*
X70079Y388181D01*
Y385819D01*
Y387393D02*
X71653Y388968D01*
X-31891Y160628D02*
X-35039D01*
Y158267D01*
X-33465Y159054D01*
X-32678D01*
X-31891Y158267D01*
Y156693D01*
X-32678Y155905D01*
X-34252D01*
X-35039Y156693D01*
X-30316Y160628D02*
Y157480D01*
X-28742Y155905D01*
X-27168Y157480D01*
Y160628D01*
X-39764Y135432D02*
X-38977Y136219D01*
X-37402D01*
X-36615Y135432D01*
Y134645D01*
X-37402Y133858D01*
X-38190D01*
X-37402D01*
X-36615Y133070D01*
Y132283D01*
X-37402Y131496D01*
X-38977D01*
X-39764Y132283D01*
X-35041Y136219D02*
Y133070D01*
X-33467Y131496D01*
X-31892Y133070D01*
Y136219D01*
X-30318Y135432D02*
X-29531Y136219D01*
X-27957D01*
X-27169Y135432D01*
Y134645D01*
X-27957Y133858D01*
X-28744D01*
X-27957D01*
X-27169Y133070D01*
Y132283D01*
X-27957Y131496D01*
X-29531D01*
X-30318Y132283D01*
X-31497Y207479D02*
X-34646D01*
Y205117D01*
X-33071Y205905D01*
X-32284D01*
X-31497Y205117D01*
Y203543D01*
X-32284Y202756D01*
X-33858D01*
X-34646Y203543D01*
X-29923Y207479D02*
Y204330D01*
X-28348Y202756D01*
X-26774Y204330D01*
Y207479D01*
X-39370Y183463D02*
X-38583Y184250D01*
X-37009D01*
X-36222Y183463D01*
Y182676D01*
X-37009Y181889D01*
X-37796D01*
X-37009D01*
X-36222Y181102D01*
Y180315D01*
X-37009Y179528D01*
X-38583D01*
X-39370Y180315D01*
X-34647Y184250D02*
Y181102D01*
X-33073Y179528D01*
X-31499Y181102D01*
Y184250D01*
X-29924Y183463D02*
X-29137Y184250D01*
X-27563D01*
X-26776Y183463D01*
Y182676D01*
X-27563Y181889D01*
X-28350D01*
X-27563D01*
X-26776Y181102D01*
Y180315D01*
X-27563Y179528D01*
X-29137D01*
X-29924Y180315D01*
X-38976Y230314D02*
X-38189Y231101D01*
X-36615D01*
X-35828Y230314D01*
Y229526D01*
X-36615Y228739D01*
X-37402D01*
X-36615D01*
X-35828Y227952D01*
Y227165D01*
X-36615Y226378D01*
X-38189D01*
X-38976Y227165D01*
X-34253Y231101D02*
Y227952D01*
X-32679Y226378D01*
X-31105Y227952D01*
Y231101D01*
X-29531Y230314D02*
X-28743Y231101D01*
X-27169D01*
X-26382Y230314D01*
Y229526D01*
X-27169Y228739D01*
X-27956D01*
X-27169D01*
X-26382Y227952D01*
Y227165D01*
X-27169Y226378D01*
X-28743D01*
X-29531Y227165D01*
X-31891Y254642D02*
X-35039D01*
Y252281D01*
X-33465Y253068D01*
X-32678D01*
X-31891Y252281D01*
Y250707D01*
X-32678Y249920D01*
X-34252D01*
X-35039Y250707D01*
X-30316Y254642D02*
Y251494D01*
X-28742Y249920D01*
X-27168Y251494D01*
Y254642D01*
X-38976Y277164D02*
Y274015D01*
X-37402Y272441D01*
X-35828Y274015D01*
Y277164D01*
X-34253D02*
X-32679D01*
X-33466D01*
Y272441D01*
X-34253D01*
X-32679D01*
X-30318D02*
Y277164D01*
X-27169Y272441D01*
Y277164D01*
X227299Y69684D02*
X229923D01*
X228611D01*
Y65749D01*
X231235D02*
Y69684D01*
X233203D01*
X233859Y69028D01*
Y67716D01*
X233203Y67061D01*
X231235D01*
X235171Y65749D02*
X236483D01*
X235827D01*
Y69684D01*
X235171Y69028D01*
X238451Y65749D02*
X239762D01*
X239107D01*
Y69684D01*
X238451Y69028D01*
X244354D02*
X243698Y69684D01*
X242386D01*
X241730Y69028D01*
Y66405D01*
X242386Y65749D01*
X243698D01*
X244354Y66405D01*
X227299Y199606D02*
X229923D01*
X228611D01*
Y195670D01*
X231235D02*
Y199606D01*
X233203D01*
X233859Y198950D01*
Y197638D01*
X233203Y196982D01*
X231235D01*
X235171Y195670D02*
X236483D01*
X235827D01*
Y199606D01*
X235171Y198950D01*
X238451Y195670D02*
X239762D01*
X239107D01*
Y199606D01*
X238451Y198950D01*
X241730Y199606D02*
Y195670D01*
X243698D01*
X244354Y196326D01*
Y196982D01*
X243698Y197638D01*
X241730D01*
X243698D01*
X244354Y198294D01*
Y198950D01*
X243698Y199606D01*
X241730D01*
X227299Y329527D02*
X229923D01*
X228611D01*
Y325591D01*
X231235D02*
Y329527D01*
X233203D01*
X233859Y328871D01*
Y327559D01*
X233203Y326903D01*
X231235D01*
X235171Y325591D02*
X236483D01*
X235827D01*
Y329527D01*
X235171Y328871D01*
X238451Y325591D02*
X239762D01*
X239107D01*
Y329527D01*
X238451Y328871D01*
X241730Y325591D02*
Y328215D01*
X243042Y329527D01*
X244354Y328215D01*
Y325591D01*
Y327559D01*
X241730D01*
X344294Y24015D02*
X346918D01*
X345606D01*
Y20079D01*
X348230D02*
Y24015D01*
X350198D01*
X350854Y23359D01*
Y22047D01*
X350198Y21391D01*
X348230D01*
X352166Y20079D02*
X353478D01*
X352822D01*
Y24015D01*
X352166Y23359D01*
X355446D02*
X356101Y24015D01*
X357413D01*
X358069Y23359D01*
Y20735D01*
X357413Y20079D01*
X356101D01*
X355446Y20735D01*
Y23359D01*
X362005D02*
X361349Y24015D01*
X360037D01*
X359381Y23359D01*
Y20735D01*
X360037Y20079D01*
X361349D01*
X362005Y20735D01*
X344294Y153936D02*
X346918D01*
X345606D01*
Y150001D01*
X348230D02*
Y153936D01*
X350198D01*
X350854Y153280D01*
Y151969D01*
X350198Y151312D01*
X348230D01*
X352166Y150001D02*
X353478D01*
X352822D01*
Y153936D01*
X352166Y153280D01*
X355446D02*
X356101Y153936D01*
X357413D01*
X358069Y153280D01*
Y150657D01*
X357413Y150001D01*
X356101D01*
X355446Y150657D01*
Y153280D01*
X359381Y153936D02*
Y150001D01*
X361349D01*
X362005Y150657D01*
Y151312D01*
X361349Y151969D01*
X359381D01*
X361349D01*
X362005Y152624D01*
Y153280D01*
X361349Y153936D01*
X359381D01*
X344294Y283858D02*
X346918D01*
X345606D01*
Y279922D01*
X348230D02*
Y283858D01*
X350198D01*
X350854Y283202D01*
Y281890D01*
X350198Y281234D01*
X348230D01*
X352166Y279922D02*
X353478D01*
X352822D01*
Y283858D01*
X352166Y283202D01*
X355446D02*
X356101Y283858D01*
X357413D01*
X358069Y283202D01*
Y280578D01*
X357413Y279922D01*
X356101D01*
X355446Y280578D01*
Y283202D01*
X359381Y279922D02*
Y282546D01*
X360693Y283858D01*
X362005Y282546D01*
Y279922D01*
Y281890D01*
X359381D01*
X293701Y57351D02*
Y59975D01*
Y58663D01*
X297637D01*
Y61287D02*
X293701D01*
Y63255D01*
X294357Y63911D01*
X295669D01*
X296325Y63255D01*
Y61287D01*
X296981Y65223D02*
X297637Y65879D01*
Y67191D01*
X296981Y67847D01*
X294357D01*
X293701Y67191D01*
Y65879D01*
X294357Y65223D01*
X295013D01*
X295669Y65879D01*
Y67847D01*
X294357Y71782D02*
X293701Y71127D01*
Y69815D01*
X294357Y69159D01*
X296981D01*
X297637Y69815D01*
Y71127D01*
X296981Y71782D01*
X293701Y187273D02*
Y189897D01*
Y188585D01*
X297637D01*
Y191208D02*
X293701D01*
Y193176D01*
X294357Y193832D01*
X295669D01*
X296325Y193176D01*
Y191208D01*
X296981Y195144D02*
X297637Y195800D01*
Y197112D01*
X296981Y197768D01*
X294357D01*
X293701Y197112D01*
Y195800D01*
X294357Y195144D01*
X295013D01*
X295669Y195800D01*
Y197768D01*
X293701Y199080D02*
X297637D01*
Y201048D01*
X296981Y201704D01*
X296325D01*
X295669Y201048D01*
Y199080D01*
Y201048D01*
X295013Y201704D01*
X294357D01*
X293701Y201048D01*
Y199080D01*
Y317194D02*
Y319818D01*
Y318506D01*
X297637D01*
Y321130D02*
X293701D01*
Y323098D01*
X294357Y323753D01*
X295669D01*
X296325Y323098D01*
Y321130D01*
X296981Y325065D02*
X297637Y325721D01*
Y327033D01*
X296981Y327689D01*
X294357D01*
X293701Y327033D01*
Y325721D01*
X294357Y325065D01*
X295013D01*
X295669Y325721D01*
Y327689D01*
X297637Y329001D02*
X295013D01*
X293701Y330313D01*
X295013Y331625D01*
X297637D01*
X295669D01*
Y329001D01*
X221260Y110107D02*
Y112731D01*
Y111419D01*
X225196D01*
Y114043D02*
X221260D01*
Y116011D01*
X221916Y116667D01*
X223228D01*
X223884Y116011D01*
Y114043D01*
X221916Y117979D02*
X221260Y118635D01*
Y119947D01*
X221916Y120603D01*
X222572D01*
X223228Y119947D01*
X223884Y120603D01*
X224540D01*
X225196Y119947D01*
Y118635D01*
X224540Y117979D01*
X223884D01*
X223228Y118635D01*
X222572Y117979D01*
X221916D01*
X223228Y118635D02*
Y119947D01*
X221916Y124538D02*
X221260Y123882D01*
Y122571D01*
X221916Y121915D01*
X224540D01*
X225196Y122571D01*
Y123882D01*
X224540Y124538D01*
X221260Y240029D02*
Y242652D01*
Y241340D01*
X225196D01*
Y243964D02*
X221260D01*
Y245932D01*
X221916Y246588D01*
X223228D01*
X223884Y245932D01*
Y243964D01*
X221916Y247900D02*
X221260Y248556D01*
Y249868D01*
X221916Y250524D01*
X222572D01*
X223228Y249868D01*
X223884Y250524D01*
X224540D01*
X225196Y249868D01*
Y248556D01*
X224540Y247900D01*
X223884D01*
X223228Y248556D01*
X222572Y247900D01*
X221916D01*
X223228Y248556D02*
Y249868D01*
X221260Y251836D02*
X225196D01*
Y253804D01*
X224540Y254460D01*
X223884D01*
X223228Y253804D01*
Y251836D01*
Y253804D01*
X222572Y254460D01*
X221916D01*
X221260Y253804D01*
Y251836D01*
X221260Y366406D02*
Y369030D01*
Y367718D01*
X225196D01*
Y370342D02*
X221260D01*
Y372310D01*
X221916Y372966D01*
X223228D01*
X223884Y372310D01*
Y370342D01*
X221916Y374278D02*
X221260Y374934D01*
Y376246D01*
X221916Y376902D01*
X222572D01*
X223228Y376246D01*
X223884Y376902D01*
X224540D01*
X225196Y376246D01*
Y374934D01*
X224540Y374278D01*
X223884D01*
X223228Y374934D01*
X222572Y374278D01*
X221916D01*
X223228Y374934D02*
Y376246D01*
X225196Y378214D02*
X222572D01*
X221260Y379526D01*
X222572Y380838D01*
X225196D01*
X223228D01*
Y378214D01*
X300265Y122047D02*
X302889D01*
X301577D01*
Y118111D01*
X304201D02*
Y122047D01*
X306168D01*
X306824Y121391D01*
Y120079D01*
X306168Y119423D01*
X304201D01*
X308136Y122047D02*
X310760D01*
Y121391D01*
X308136Y118767D01*
Y118111D01*
X314696Y121391D02*
X314040Y122047D01*
X312728D01*
X312072Y121391D01*
Y118767D01*
X312728Y118111D01*
X314040D01*
X314696Y118767D01*
X300265Y251968D02*
X302889D01*
X301577D01*
Y248032D01*
X304201D02*
Y251968D01*
X306168D01*
X306824Y251312D01*
Y250000D01*
X306168Y249344D01*
X304201D01*
X308136Y251968D02*
X310760D01*
Y251312D01*
X308136Y248688D01*
Y248032D01*
X312072Y251968D02*
Y248032D01*
X314040D01*
X314696Y248688D01*
Y249344D01*
X314040Y250000D01*
X312072D01*
X314040D01*
X314696Y250656D01*
Y251312D01*
X314040Y251968D01*
X312072D01*
X300265Y381889D02*
X302889D01*
X301577D01*
Y377953D01*
X304201D02*
Y381889D01*
X306168D01*
X306824Y381233D01*
Y379921D01*
X306168Y379265D01*
X304201D01*
X308136Y381889D02*
X310760D01*
Y381233D01*
X308136Y378609D01*
Y377953D01*
X312072D02*
Y380577D01*
X313384Y381889D01*
X314696Y380577D01*
Y377953D01*
Y379921D01*
X312072D01*
X300265Y114960D02*
X302889D01*
X301577D01*
Y111024D01*
X304201D02*
Y114960D01*
X306168D01*
X306824Y114304D01*
Y112992D01*
X306168Y112336D01*
X304201D01*
X310760Y114960D02*
X308136D01*
Y112992D01*
X309448Y113648D01*
X310104D01*
X310760Y112992D01*
Y111680D01*
X310104Y111024D01*
X308792D01*
X308136Y111680D01*
X314696Y114304D02*
X314040Y114960D01*
X312728D01*
X312072Y114304D01*
Y111680D01*
X312728Y111024D01*
X314040D01*
X314696Y111680D01*
X300265Y244881D02*
X302889D01*
X301577D01*
Y240946D01*
X304201D02*
Y244881D01*
X306168D01*
X306824Y244225D01*
Y242913D01*
X306168Y242257D01*
X304201D01*
X310760Y244881D02*
X308136D01*
Y242913D01*
X309448Y243569D01*
X310104D01*
X310760Y242913D01*
Y241601D01*
X310104Y240946D01*
X308792D01*
X308136Y241601D01*
X312072Y244881D02*
Y240946D01*
X314040D01*
X314696Y241601D01*
Y242257D01*
X314040Y242913D01*
X312072D01*
X314040D01*
X314696Y243569D01*
Y244225D01*
X314040Y244881D01*
X312072D01*
X300265Y374802D02*
X302889D01*
X301577D01*
Y370867D01*
X304201D02*
Y374802D01*
X306168D01*
X306824Y374147D01*
Y372835D01*
X306168Y372179D01*
X304201D01*
X310760Y374802D02*
X308136D01*
Y372835D01*
X309448Y373491D01*
X310104D01*
X310760Y372835D01*
Y371523D01*
X310104Y370867D01*
X308792D01*
X308136Y371523D01*
X312072Y370867D02*
Y373491D01*
X313384Y374802D01*
X314696Y373491D01*
Y370867D01*
Y372835D01*
X312072D01*
X211206Y133070D02*
X213830D01*
X212518D01*
Y129135D01*
X215142D02*
Y133070D01*
X217110D01*
X217766Y132414D01*
Y131102D01*
X217110Y130446D01*
X215142D01*
X221045Y129135D02*
Y133070D01*
X219078Y131102D01*
X221701D01*
X225637Y132414D02*
X224981Y133070D01*
X223669D01*
X223013Y132414D01*
Y129790D01*
X223669Y129135D01*
X224981D01*
X225637Y129790D01*
X211206Y262991D02*
X213830D01*
X212518D01*
Y259056D01*
X215142D02*
Y262991D01*
X217110D01*
X217766Y262335D01*
Y261024D01*
X217110Y260368D01*
X215142D01*
X221045Y259056D02*
Y262991D01*
X219078Y261024D01*
X221701D01*
X223013Y262991D02*
Y259056D01*
X224981D01*
X225637Y259712D01*
Y260368D01*
X224981Y261024D01*
X223013D01*
X224981D01*
X225637Y261680D01*
Y262335D01*
X224981Y262991D01*
X223013D01*
X212076Y386220D02*
X214700D01*
X213388D01*
Y382284D01*
X216012D02*
Y386220D01*
X217979D01*
X218635Y385564D01*
Y384252D01*
X217979Y383596D01*
X216012D01*
X221915Y382284D02*
Y386220D01*
X219947Y384252D01*
X222571D01*
X223883Y382284D02*
Y384908D01*
X225195Y386220D01*
X226507Y384908D01*
Y382284D01*
Y384252D01*
X223883D01*
X199871Y127558D02*
X202495D01*
X201183D01*
Y123623D01*
X203807D02*
Y127558D01*
X205775D01*
X206431Y126902D01*
Y125591D01*
X205775Y124935D01*
X203807D01*
X207743Y126902D02*
X208399Y127558D01*
X209710D01*
X210366Y126902D01*
Y126247D01*
X209710Y125591D01*
X209054D01*
X209710D01*
X210366Y124935D01*
Y124279D01*
X209710Y123623D01*
X208399D01*
X207743Y124279D01*
X214302Y126902D02*
X213646Y127558D01*
X212334D01*
X211678Y126902D01*
Y124279D01*
X212334Y123623D01*
X213646D01*
X214302Y124279D01*
X199871Y257480D02*
X202495D01*
X201183D01*
Y253544D01*
X203807D02*
Y257480D01*
X205775D01*
X206431Y256824D01*
Y255512D01*
X205775Y254856D01*
X203807D01*
X207743Y256824D02*
X208399Y257480D01*
X209710D01*
X210366Y256824D01*
Y256168D01*
X209710Y255512D01*
X209054D01*
X209710D01*
X210366Y254856D01*
Y254200D01*
X209710Y253544D01*
X208399D01*
X207743Y254200D01*
X211678Y257480D02*
Y253544D01*
X213646D01*
X214302Y254200D01*
Y254856D01*
X213646Y255512D01*
X211678D01*
X213646D01*
X214302Y256168D01*
Y256824D01*
X213646Y257480D01*
X211678D01*
X197115Y386220D02*
X199739D01*
X198427D01*
Y382284D01*
X201051D02*
Y386220D01*
X203019D01*
X203675Y385564D01*
Y384252D01*
X203019Y383596D01*
X201051D01*
X204987Y385564D02*
X205643Y386220D01*
X206955D01*
X207611Y385564D01*
Y384908D01*
X206955Y384252D01*
X206299D01*
X206955D01*
X207611Y383596D01*
Y382940D01*
X206955Y382284D01*
X205643D01*
X204987Y382940D01*
X208922Y382284D02*
Y384908D01*
X210234Y386220D01*
X211546Y384908D01*
Y382284D01*
Y384252D01*
X208922D01*
X83729Y31495D02*
X86353D01*
X85041D01*
Y27560D01*
X87665D02*
Y31495D01*
X89633D01*
X90289Y30839D01*
Y29528D01*
X89633Y28872D01*
X87665D01*
X94225Y27560D02*
X91601D01*
X94225Y30184D01*
Y30839D01*
X93569Y31495D01*
X92257D01*
X91601Y30839D01*
X98160D02*
X97504Y31495D01*
X96193D01*
X95537Y30839D01*
Y28216D01*
X96193Y27560D01*
X97504D01*
X98160Y28216D01*
X83729Y161417D02*
X86353D01*
X85041D01*
Y157481D01*
X87665D02*
Y161417D01*
X89633D01*
X90289Y160761D01*
Y159449D01*
X89633Y158793D01*
X87665D01*
X94225Y157481D02*
X91601D01*
X94225Y160105D01*
Y160761D01*
X93569Y161417D01*
X92257D01*
X91601Y160761D01*
X95537Y161417D02*
Y157481D01*
X97504D01*
X98160Y158137D01*
Y158793D01*
X97504Y159449D01*
X95537D01*
X97504D01*
X98160Y160105D01*
Y160761D01*
X97504Y161417D01*
X95537D01*
X83729Y291338D02*
X86353D01*
X85041D01*
Y287402D01*
X87665D02*
Y291338D01*
X89633D01*
X90289Y290682D01*
Y289370D01*
X89633Y288714D01*
X87665D01*
X94225Y287402D02*
X91601D01*
X94225Y290026D01*
Y290682D01*
X93569Y291338D01*
X92257D01*
X91601Y290682D01*
X95537Y287402D02*
Y290026D01*
X96848Y291338D01*
X98160Y290026D01*
Y287402D01*
Y289370D01*
X95537D01*
X66341Y82283D02*
X68965D01*
X67653D01*
Y78347D01*
X70276D02*
Y82283D01*
X72244D01*
X72900Y81627D01*
Y80315D01*
X72244Y79659D01*
X70276D01*
X74212Y78347D02*
X75524D01*
X74868D01*
Y82283D01*
X74212Y81627D01*
X80116D02*
X79460Y82283D01*
X78148D01*
X77492Y81627D01*
Y79003D01*
X78148Y78347D01*
X79460D01*
X80116Y79003D01*
X66341Y212204D02*
X68965D01*
X67653D01*
Y208268D01*
X70276D02*
Y212204D01*
X72244D01*
X72900Y211548D01*
Y210236D01*
X72244Y209580D01*
X70276D01*
X74212Y208268D02*
X75524D01*
X74868D01*
Y212204D01*
X74212Y211548D01*
X77492Y212204D02*
Y208268D01*
X79460D01*
X80116Y208924D01*
Y209580D01*
X79460Y210236D01*
X77492D01*
X79460D01*
X80116Y210892D01*
Y211548D01*
X79460Y212204D01*
X77492D01*
X66341Y342125D02*
X68965D01*
X67653D01*
Y338190D01*
X70276D02*
Y342125D01*
X72244D01*
X72900Y341469D01*
Y340158D01*
X72244Y339502D01*
X70276D01*
X74212Y338190D02*
X75524D01*
X74868D01*
Y342125D01*
X74212Y341469D01*
X77492Y338190D02*
Y340813D01*
X78804Y342125D01*
X80116Y340813D01*
Y338190D01*
Y340158D01*
X77492D01*
D13*
X164961Y64173D02*
G03*
X164961Y64173I-1181J0D01*
G01*
Y194095D02*
G03*
X164961Y194095I-1181J0D01*
G01*
Y324016D02*
G03*
X164961Y324016I-1181J0D01*
G01*
D14*
X344685Y29921D02*
G03*
X344685Y29921I-2953J0D01*
G01*
X298622Y53937D02*
G03*
X298622Y53937I-2953J0D01*
G01*
X220276Y116142D02*
G03*
X220276Y116142I-2953J0D01*
G01*
X299410Y120079D02*
G03*
X299410Y120079I-2953J0D01*
G01*
X245079Y75197D02*
G03*
X245079Y75197I-2953J0D01*
G01*
X299410Y112992D02*
G03*
X299410Y112992I-2953J0D01*
G01*
X211221Y118504D02*
G03*
X211221Y118504I-2953J0D01*
G01*
X203346D02*
G03*
X203346Y118504I-2953J0D01*
G01*
X82480Y29921D02*
G03*
X82480Y29921I-2953J0D01*
G01*
X65551Y80315D02*
G03*
X65551Y80315I-2953J0D01*
G01*
X344685Y159843D02*
G03*
X344685Y159843I-2953J0D01*
G01*
X298622Y183858D02*
G03*
X298622Y183858I-2953J0D01*
G01*
X220276Y246063D02*
G03*
X220276Y246063I-2953J0D01*
G01*
X299410Y250000D02*
G03*
X299410Y250000I-2953J0D01*
G01*
X245079Y205118D02*
G03*
X245079Y205118I-2953J0D01*
G01*
X299410Y242913D02*
G03*
X299410Y242913I-2953J0D01*
G01*
X211221Y248425D02*
G03*
X211221Y248425I-2953J0D01*
G01*
X203346D02*
G03*
X203346Y248425I-2953J0D01*
G01*
X82480Y159843D02*
G03*
X82480Y159843I-2953J0D01*
G01*
X65551Y210236D02*
G03*
X65551Y210236I-2953J0D01*
G01*
X344685Y289764D02*
G03*
X344685Y289764I-2953J0D01*
G01*
X298622Y313779D02*
G03*
X298622Y313779I-2953J0D01*
G01*
X220276Y375984D02*
G03*
X220276Y375984I-2953J0D01*
G01*
X299410Y379921D02*
G03*
X299410Y379921I-2953J0D01*
G01*
X245079Y335039D02*
G03*
X245079Y335039I-2953J0D01*
G01*
X299410Y372835D02*
G03*
X299410Y372835I-2953J0D01*
G01*
X211221Y378346D02*
G03*
X211221Y378346I-2953J0D01*
G01*
X203346D02*
G03*
X203346Y378346I-2953J0D01*
G01*
X82480Y289764D02*
G03*
X82480Y289764I-2953J0D01*
G01*
X65551Y340158D02*
G03*
X65551Y340158I-2953J0D01*
G01*
X252165Y196850D02*
G03*
X252165Y196850I-2953J0D01*
G01*
Y66929D02*
G03*
X252165Y66929I-2953J0D01*
G01*
Y326772D02*
G03*
X252165Y326772I-2953J0D01*
G01*
D15*
X11992Y136221D02*
Y139157D01*
X13205Y140370D01*
X16126D01*
X17142Y136221D02*
Y139354D01*
X16126Y140370D02*
X17142Y139354D01*
X11992Y128921D02*
Y133071D01*
Y128921D02*
X17142D01*
Y133071D01*
X11598Y159449D02*
Y162386D01*
X12811Y163598D01*
X15732D01*
X16748Y159449D02*
Y162583D01*
X15732Y163598D02*
X16748Y162583D01*
X11598Y152150D02*
Y156299D01*
Y152150D02*
X16748D01*
Y156299D01*
X11992Y183071D02*
Y186008D01*
X13205Y187221D01*
X16126D01*
X17142Y183071D02*
Y186205D01*
X16126Y187221D02*
X17142Y186205D01*
X11992Y175772D02*
Y179921D01*
Y175772D02*
X17142D01*
Y179921D01*
X11598Y206693D02*
Y209630D01*
X12811Y210842D01*
X15732D01*
X16748Y206693D02*
Y209827D01*
X15732Y210842D02*
X16748Y209827D01*
X11598Y199394D02*
Y203543D01*
Y199394D02*
X16748D01*
Y203543D01*
X11992Y229134D02*
Y232071D01*
X13205Y233283D01*
X16126D01*
X17142Y229134D02*
Y232268D01*
X16126Y233283D02*
X17142Y232268D01*
X11992Y221835D02*
Y225984D01*
Y221835D02*
X17142D01*
Y225984D01*
X12779Y253937D02*
Y256874D01*
X13992Y258087D01*
X16913D01*
X17929Y253937D02*
Y257071D01*
X16913Y258087D02*
X17929Y257071D01*
X12779Y246638D02*
Y250787D01*
Y246638D02*
X17929D01*
Y250787D01*
X11598Y277559D02*
Y280496D01*
X12811Y281709D01*
X15732D01*
X16748Y277559D02*
Y280693D01*
X15732Y281709D02*
X16748Y280693D01*
X11598Y270260D02*
Y274410D01*
Y270260D02*
X16748D01*
Y274410D01*
X93701Y235433D02*
Y240945D01*
X98701Y235433D02*
Y236189D01*
X88701Y235433D02*
X98701D01*
X88701D02*
Y236189D01*
Y240189D02*
Y240945D01*
X98701D01*
Y240189D02*
Y240945D01*
X92913Y105512D02*
Y111024D01*
X97913Y105512D02*
Y106268D01*
X87913Y105512D02*
X97913D01*
X87913D02*
Y106268D01*
Y110268D02*
Y111024D01*
X97913D01*
Y110268D02*
Y111024D01*
X94882Y365354D02*
Y370866D01*
X99882Y365354D02*
Y366110D01*
X89882Y365354D02*
X99882D01*
X89882D02*
Y366110D01*
Y370110D02*
Y370866D01*
X99882D01*
Y370110D02*
Y370866D01*
X541829Y84864D02*
X540845Y86831D01*
X538877Y88799D01*
X536909D01*
X535925Y87815D01*
Y85847D01*
X536909Y84864D01*
X537893D01*
X538877Y85847D01*
Y88799D01*
X536909Y56083D02*
X535925Y55099D01*
Y53131D01*
X536909Y52147D01*
X540845D01*
X541829Y53131D01*
Y55099D01*
X540845Y56083D01*
X539861D01*
X538877Y55099D01*
Y52147D01*
X504821Y46694D02*
Y50630D01*
X501869D01*
X502853Y48662D01*
Y47678D01*
X501869Y46694D01*
X499901D01*
X498917Y47678D01*
Y49646D01*
X499901Y50630D01*
X498917Y93268D02*
Y91300D01*
Y92284D01*
X504821D01*
X503837Y93268D01*
X498917Y219646D02*
Y217678D01*
Y218662D01*
X504821D01*
X503837Y219646D01*
X504821Y173072D02*
Y177008D01*
X501869D01*
X502853Y175040D01*
Y174056D01*
X501869Y173072D01*
X499901D01*
X498917Y174056D01*
Y176024D01*
X499901Y177008D01*
X536909Y182461D02*
X535925Y181477D01*
Y179509D01*
X536909Y178525D01*
X540845D01*
X541829Y179509D01*
Y181477D01*
X540845Y182461D01*
X539861D01*
X538877Y181477D01*
Y178525D01*
X541829Y211241D02*
X540845Y213209D01*
X538877Y215177D01*
X536909D01*
X535925Y214193D01*
Y212225D01*
X536909Y211241D01*
X537893D01*
X538877Y212225D01*
Y215177D01*
X498917Y346024D02*
Y344056D01*
Y345040D01*
X504821D01*
X503837Y346024D01*
X504821Y299450D02*
Y303386D01*
X501869D01*
X502853Y301418D01*
Y300434D01*
X501869Y299450D01*
X499901D01*
X498917Y300434D01*
Y302402D01*
X499901Y303386D01*
X536909Y308839D02*
X535925Y307855D01*
Y305887D01*
X536909Y304903D01*
X540845D01*
X541829Y305887D01*
Y307855D01*
X540845Y308839D01*
X539861D01*
X538877Y307855D01*
Y304903D01*
X541829Y337619D02*
X540845Y339587D01*
X538877Y341555D01*
X536909D01*
X535925Y340571D01*
Y338603D01*
X536909Y337619D01*
X537893D01*
X538877Y338603D01*
Y341555D01*
D16*
X255388Y344731D02*
Y339733D01*
X256388Y338733D01*
X258387D01*
X259387Y339733D01*
Y344731D01*
X264386Y338733D02*
Y344731D01*
X261386Y341732D01*
X265385D01*
X267385Y338733D02*
Y342732D01*
X269384Y344731D01*
X271383Y342732D01*
Y338733D01*
Y341732D01*
X267385D01*
X214988Y331253D02*
Y337251D01*
X217987D01*
X218987Y336251D01*
Y334252D01*
X217987Y333252D01*
X214988D01*
X216987D02*
X218987Y331253D01*
X223985D02*
Y337251D01*
X220986Y334252D01*
X224985D01*
X226984Y332253D02*
X227984Y331253D01*
X229983D01*
X230983Y332253D01*
Y336251D01*
X229983Y337251D01*
X227984D01*
X226984Y336251D01*
Y335252D01*
X227984Y334252D01*
X230983D01*
X232982Y331253D02*
Y335252D01*
X234981Y337251D01*
X236981Y335252D01*
Y331253D01*
Y334252D01*
X232982D01*
X273255Y332040D02*
Y338038D01*
X276255D01*
X277254Y337039D01*
Y335039D01*
X276255Y334040D01*
X273255D01*
X275255D02*
X277254Y332040D01*
X282253D02*
Y338038D01*
X279254Y335039D01*
X283252D01*
X285252Y337039D02*
X286251Y338038D01*
X288251D01*
X289250Y337039D01*
Y336039D01*
X288251Y335039D01*
X289250Y334040D01*
Y333040D01*
X288251Y332040D01*
X286251D01*
X285252Y333040D01*
Y334040D01*
X286251Y335039D01*
X285252Y336039D01*
Y337039D01*
X286251Y335039D02*
X288251D01*
X291250Y332040D02*
Y336039D01*
X293249Y338038D01*
X295248Y336039D01*
Y332040D01*
Y335039D01*
X291250D01*
X280342Y383221D02*
Y389219D01*
X283341D01*
X284341Y388220D01*
Y386221D01*
X283341Y385221D01*
X280342D01*
X282342D02*
X284341Y383221D01*
X289339D02*
Y389219D01*
X286340Y386221D01*
X290339D01*
X292338Y389219D02*
X296337D01*
Y388220D01*
X292338Y384221D01*
Y383221D01*
X298336D02*
Y387220D01*
X300336Y389219D01*
X302335Y387220D01*
Y383221D01*
Y386221D01*
X298336D01*
X228374Y383615D02*
Y389613D01*
X231373D01*
X232372Y388614D01*
Y386614D01*
X231373Y385614D01*
X228374D01*
X230373D02*
X232372Y383615D01*
X237371D02*
Y389613D01*
X234372Y386614D01*
X238370D01*
X244369Y389613D02*
X242369Y388614D01*
X240370Y386614D01*
Y384615D01*
X241369Y383615D01*
X243369D01*
X244369Y384615D01*
Y385614D01*
X243369Y386614D01*
X240370D01*
X246368Y383615D02*
Y387614D01*
X248367Y389613D01*
X250366Y387614D01*
Y383615D01*
Y386614D01*
X246368D01*
X446484Y350938D02*
Y356936D01*
X449483D01*
X450483Y355936D01*
Y353937D01*
X449483Y352937D01*
X446484D01*
X448483D02*
X450483Y350938D01*
X455481D02*
Y356936D01*
X452482Y353937D01*
X456481D01*
X462479Y356936D02*
X458480D01*
Y353937D01*
X460479Y354937D01*
X461479D01*
X462479Y353937D01*
Y351938D01*
X461479Y350938D01*
X459480D01*
X458480Y351938D01*
X464478Y350938D02*
Y354937D01*
X466477Y356936D01*
X468477Y354937D01*
Y350938D01*
Y353937D01*
X464478D01*
X445992Y361568D02*
Y367566D01*
X448991D01*
X449991Y366566D01*
Y364567D01*
X448991Y363567D01*
X445992D01*
X447991D02*
X449991Y361568D01*
X454989D02*
Y367566D01*
X451990Y364567D01*
X455989D01*
X460987Y361568D02*
Y367566D01*
X457988Y364567D01*
X461987D01*
X463986Y361568D02*
Y365567D01*
X465985Y367566D01*
X467985Y365567D01*
Y361568D01*
Y364567D01*
X463986D01*
X446484Y372591D02*
Y378590D01*
X449483D01*
X450483Y377590D01*
Y375590D01*
X449483Y374591D01*
X446484D01*
X448483D02*
X450483Y372591D01*
X455481D02*
Y378590D01*
X452482Y375590D01*
X456481D01*
X458480Y377590D02*
X459480Y378590D01*
X461479D01*
X462479Y377590D01*
Y376590D01*
X461479Y375590D01*
X460479D01*
X461479D01*
X462479Y374591D01*
Y373591D01*
X461479Y372591D01*
X459480D01*
X458480Y373591D01*
X464478Y372591D02*
Y376590D01*
X466477Y378590D01*
X468477Y376590D01*
Y372591D01*
Y375590D01*
X464478D01*
X446484Y382434D02*
Y388432D01*
X449483D01*
X450483Y387432D01*
Y385433D01*
X449483Y384433D01*
X446484D01*
X448483D02*
X450483Y382434D01*
X455481D02*
Y388432D01*
X452482Y385433D01*
X456481D01*
X462479Y382434D02*
X458480D01*
X462479Y386433D01*
Y387432D01*
X461479Y388432D01*
X459480D01*
X458480Y387432D01*
X464478Y382434D02*
Y386433D01*
X466477Y388432D01*
X468477Y386433D01*
Y382434D01*
Y385433D01*
X464478D01*
X376648Y366385D02*
Y360387D01*
X379647D01*
X380647Y361386D01*
Y365385D01*
X379647Y366385D01*
X376648D01*
X382646Y361386D02*
X383646Y360387D01*
X385645D01*
X386645Y361386D01*
Y365385D01*
X385645Y366385D01*
X383646D01*
X382646Y365385D01*
Y364386D01*
X383646Y363386D01*
X386645D01*
X388644Y360387D02*
Y364386D01*
X390644Y366385D01*
X392643Y364386D01*
Y360387D01*
Y363386D01*
X388644D01*
X341137Y367015D02*
Y361017D01*
X344135D01*
X345135Y362016D01*
Y366015D01*
X344135Y367015D01*
X341137D01*
X347134Y366015D02*
X348134Y367015D01*
X350133D01*
X351133Y366015D01*
Y365015D01*
X350133Y364016D01*
X351133Y363016D01*
Y362016D01*
X350133Y361017D01*
X348134D01*
X347134Y362016D01*
Y363016D01*
X348134Y364016D01*
X347134Y365015D01*
Y366015D01*
X348134Y364016D02*
X350133D01*
X353133Y361017D02*
Y365015D01*
X355132Y367015D01*
X357131Y365015D01*
Y361017D01*
Y364016D01*
X353133D01*
X376255Y389613D02*
Y383615D01*
X379254D01*
X380253Y384615D01*
Y388614D01*
X379254Y389613D01*
X376255D01*
X382253D02*
X386251D01*
Y388614D01*
X382253Y384615D01*
Y383615D01*
X388251D02*
Y387614D01*
X390250Y389613D01*
X392249Y387614D01*
Y383615D01*
Y386614D01*
X388251D01*
X341215Y389613D02*
Y383615D01*
X344214D01*
X345214Y384615D01*
Y388614D01*
X344214Y389613D01*
X341215D01*
X351212D02*
X349213Y388614D01*
X347213Y386614D01*
Y384615D01*
X348213Y383615D01*
X350212D01*
X351212Y384615D01*
Y385614D01*
X350212Y386614D01*
X347213D01*
X353211Y383615D02*
Y387614D01*
X355211Y389613D01*
X357210Y387614D01*
Y383615D01*
Y386614D01*
X353211D01*
X219774Y357118D02*
X218774Y358117D01*
X216775D01*
X215775Y357118D01*
Y353119D01*
X216775Y352119D01*
X218774D01*
X219774Y353119D01*
X225772Y352119D02*
X221773D01*
X225772Y356118D01*
Y357118D01*
X224772Y358117D01*
X222773D01*
X221773Y357118D01*
X227771D02*
X228771Y358117D01*
X230770D01*
X231770Y357118D01*
Y356118D01*
X230770Y355118D01*
X231770Y354118D01*
Y353119D01*
X230770Y352119D01*
X228771D01*
X227771Y353119D01*
Y354118D01*
X228771Y355118D01*
X227771Y356118D01*
Y357118D01*
X228771Y355118D02*
X230770D01*
X233769Y352119D02*
Y356118D01*
X235769Y358117D01*
X237768Y356118D01*
Y352119D01*
Y355118D01*
X233769D01*
X281585Y358298D02*
X280585Y359298D01*
X278586D01*
X277586Y358298D01*
Y354300D01*
X278586Y353300D01*
X280585D01*
X281585Y354300D01*
X287583Y353300D02*
X283584D01*
X287583Y357299D01*
Y358298D01*
X286583Y359298D01*
X284584D01*
X283584Y358298D01*
X289582Y359298D02*
X293581D01*
Y358298D01*
X289582Y354300D01*
Y353300D01*
X295580D02*
Y357299D01*
X297580Y359298D01*
X299579Y357299D01*
Y353300D01*
Y356299D01*
X295580D01*
X281585Y367354D02*
X280585Y368353D01*
X278586D01*
X277586Y367354D01*
Y363355D01*
X278586Y362355D01*
X280585D01*
X281585Y363355D01*
X287583Y362355D02*
X283584D01*
X287583Y366354D01*
Y367354D01*
X286583Y368353D01*
X284584D01*
X283584Y367354D01*
X293581Y368353D02*
X291582Y367354D01*
X289582Y365354D01*
Y363355D01*
X290582Y362355D01*
X292581D01*
X293581Y363355D01*
Y364355D01*
X292581Y365354D01*
X289582D01*
X295580Y362355D02*
Y366354D01*
X297580Y368353D01*
X299579Y366354D01*
Y362355D01*
Y365354D01*
X295580D01*
X219774Y364991D02*
X218774Y365991D01*
X216775D01*
X215775Y364991D01*
Y360993D01*
X216775Y359993D01*
X218774D01*
X219774Y360993D01*
X225772Y359993D02*
X221773D01*
X225772Y363992D01*
Y364991D01*
X224772Y365991D01*
X222773D01*
X221773Y364991D01*
X231770Y365991D02*
X227771D01*
Y362992D01*
X229771Y363992D01*
X230770D01*
X231770Y362992D01*
Y360993D01*
X230770Y359993D01*
X228771D01*
X227771Y360993D01*
X233769Y359993D02*
Y363992D01*
X235769Y365991D01*
X237768Y363992D01*
Y359993D01*
Y362992D01*
X233769D01*
X257963Y388614D02*
X256963Y389613D01*
X254964D01*
X253964Y388614D01*
Y384615D01*
X254964Y383615D01*
X256963D01*
X257963Y384615D01*
X263961Y383615D02*
X259962D01*
X263961Y387614D01*
Y388614D01*
X262961Y389613D01*
X260962D01*
X259962Y388614D01*
X268959Y383615D02*
Y389613D01*
X265960Y386614D01*
X269959D01*
X271958Y383615D02*
Y387614D01*
X273958Y389613D01*
X275957Y387614D01*
Y383615D01*
Y386614D01*
X271958D01*
X361780Y347333D02*
X360781Y346333D01*
Y344334D01*
X361780Y343334D01*
X365779D01*
X366778Y344334D01*
Y346333D01*
X365779Y347333D01*
X366778Y353331D02*
Y349332D01*
X362780Y353331D01*
X361780D01*
X360781Y352331D01*
Y350332D01*
X361780Y349332D01*
Y355330D02*
X360781Y356330D01*
Y358329D01*
X361780Y359329D01*
X362780D01*
X363779Y358329D01*
Y357330D01*
Y358329D01*
X364779Y359329D01*
X365779D01*
X366778Y358329D01*
Y356330D01*
X365779Y355330D01*
X366778Y361328D02*
X362780D01*
X360781Y363328D01*
X362780Y365327D01*
X366778D01*
X363779D01*
Y361328D01*
X326347Y346546D02*
X325347Y345546D01*
Y343547D01*
X326347Y342547D01*
X330346D01*
X331346Y343547D01*
Y345546D01*
X330346Y346546D01*
X331346Y352544D02*
Y348545D01*
X327347Y352544D01*
X326347D01*
X325347Y351544D01*
Y349545D01*
X326347Y348545D01*
X331346Y358542D02*
Y354543D01*
X327347Y358542D01*
X326347D01*
X325347Y357542D01*
Y355543D01*
X326347Y354543D01*
X331346Y360541D02*
X327347D01*
X325347Y362540D01*
X327347Y364540D01*
X331346D01*
X328346D01*
Y360541D01*
X361780Y372242D02*
X360781Y371243D01*
Y369243D01*
X361780Y368244D01*
X365779D01*
X366778Y369243D01*
Y371243D01*
X365779Y372242D01*
X366778Y378240D02*
Y374242D01*
X362780Y378240D01*
X361780D01*
X360781Y377241D01*
Y375241D01*
X361780Y374242D01*
X366778Y380240D02*
Y382239D01*
Y381239D01*
X360781D01*
X361780Y380240D01*
X366778Y385238D02*
X362780D01*
X360781Y387237D01*
X362780Y389237D01*
X366778D01*
X363779D01*
Y385238D01*
X326741Y371349D02*
X325741Y370349D01*
Y368350D01*
X326741Y367350D01*
X330739D01*
X331739Y368350D01*
Y370349D01*
X330739Y371349D01*
X331739Y377347D02*
Y373348D01*
X327741Y377347D01*
X326741D01*
X325741Y376347D01*
Y374348D01*
X326741Y373348D01*
Y379346D02*
X325741Y380346D01*
Y382345D01*
X326741Y383345D01*
X330739D01*
X331739Y382345D01*
Y380346D01*
X330739Y379346D01*
X326741D01*
X331739Y385344D02*
X327741D01*
X325741Y387344D01*
X327741Y389343D01*
X331739D01*
X328740D01*
Y385344D01*
X400589Y356330D02*
X399589Y357330D01*
X397590D01*
X396590Y356330D01*
Y352331D01*
X397590Y351332D01*
X399589D01*
X400589Y352331D01*
X402588Y351332D02*
X404587D01*
X403588D01*
Y357330D01*
X402588Y356330D01*
X407586Y352331D02*
X408586Y351332D01*
X410585D01*
X411585Y352331D01*
Y356330D01*
X410585Y357330D01*
X408586D01*
X407586Y356330D01*
Y355330D01*
X408586Y354331D01*
X411585D01*
X413585Y351332D02*
Y355330D01*
X415584Y357330D01*
X417583Y355330D01*
Y351332D01*
Y354331D01*
X413585D01*
X400589Y366960D02*
X399589Y367960D01*
X397590D01*
X396590Y366960D01*
Y362961D01*
X397590Y361962D01*
X399589D01*
X400589Y362961D01*
X402588Y361962D02*
X404587D01*
X403588D01*
Y367960D01*
X402588Y366960D01*
X407586D02*
X408586Y367960D01*
X410585D01*
X411585Y366960D01*
Y365960D01*
X410585Y364961D01*
X411585Y363961D01*
Y362961D01*
X410585Y361962D01*
X408586D01*
X407586Y362961D01*
Y363961D01*
X408586Y364961D01*
X407586Y365960D01*
Y366960D01*
X408586Y364961D02*
X410585D01*
X413585Y361962D02*
Y365960D01*
X415584Y367960D01*
X417583Y365960D01*
Y361962D01*
Y364961D01*
X413585D01*
X400589Y377590D02*
X399589Y378590D01*
X397590D01*
X396590Y377590D01*
Y373591D01*
X397590Y372591D01*
X399589D01*
X400589Y373591D01*
X402588Y372591D02*
X404587D01*
X403588D01*
Y378590D01*
X402588Y377590D01*
X407586Y378590D02*
X411585D01*
Y377590D01*
X407586Y373591D01*
Y372591D01*
X413585D02*
Y376590D01*
X415584Y378590D01*
X417583Y376590D01*
Y372591D01*
Y375590D01*
X413585D01*
X398620Y387826D02*
X397621Y388826D01*
X395621D01*
X394621Y387826D01*
Y383827D01*
X395621Y382828D01*
X397621D01*
X398620Y383827D01*
X400620Y382828D02*
X402619D01*
X401619D01*
Y388826D01*
X400620Y387826D01*
X409617Y388826D02*
X407617Y387826D01*
X405618Y385827D01*
Y383827D01*
X406618Y382828D01*
X408617D01*
X409617Y383827D01*
Y384827D01*
X408617Y385827D01*
X405618D01*
X411616Y382828D02*
Y386826D01*
X413615Y388826D01*
X415615Y386826D01*
Y382828D01*
Y385827D01*
X411616D01*
X-4697Y143064D02*
Y149062D01*
X-1698D01*
X-698Y148062D01*
Y146063D01*
X-1698Y145063D01*
X-4697D01*
X-2698D02*
X-698Y143064D01*
X5300D02*
X1301D01*
X5300Y147063D01*
Y148062D01*
X4300Y149062D01*
X2300D01*
X1301Y148062D01*
X7299D02*
X8299Y149062D01*
X10298D01*
X11298Y148062D01*
Y147063D01*
X10298Y146063D01*
X9298D01*
X10298D01*
X11298Y145063D01*
Y144064D01*
X10298Y143064D01*
X8299D01*
X7299Y144064D01*
X17296Y148062D02*
X16296Y149062D01*
X14297D01*
X13297Y148062D01*
Y144064D01*
X14297Y143064D01*
X16296D01*
X17296Y144064D01*
X-5091Y189914D02*
Y195912D01*
X-2092D01*
X-1092Y194913D01*
Y192913D01*
X-2092Y191914D01*
X-5091D01*
X-3092D02*
X-1092Y189914D01*
X4906D02*
X907D01*
X4906Y193913D01*
Y194913D01*
X3906Y195912D01*
X1907D01*
X907Y194913D01*
X6905D02*
X7905Y195912D01*
X9904D01*
X10904Y194913D01*
Y193913D01*
X9904Y192913D01*
X8905D01*
X9904D01*
X10904Y191914D01*
Y190914D01*
X9904Y189914D01*
X7905D01*
X6905Y190914D01*
X12903Y195912D02*
Y189914D01*
X15902D01*
X16902Y190914D01*
Y191914D01*
X15902Y192913D01*
X12903D01*
X15902D01*
X16902Y193913D01*
Y194913D01*
X15902Y195912D01*
X12903D01*
X-4304Y237552D02*
Y243550D01*
X-1304D01*
X-305Y242550D01*
Y240551D01*
X-1304Y239551D01*
X-4304D01*
X-2304D02*
X-305Y237552D01*
X5693D02*
X1695D01*
X5693Y241551D01*
Y242550D01*
X4694Y243550D01*
X2694D01*
X1695Y242550D01*
X7693D02*
X8692Y243550D01*
X10692D01*
X11691Y242550D01*
Y241551D01*
X10692Y240551D01*
X9692D01*
X10692D01*
X11691Y239551D01*
Y238552D01*
X10692Y237552D01*
X8692D01*
X7693Y238552D01*
X13691Y237552D02*
Y241551D01*
X15690Y243550D01*
X17689Y241551D01*
Y237552D01*
Y240551D01*
X13691D01*
X-5091Y166686D02*
Y172684D01*
X-2092D01*
X-1092Y171684D01*
Y169685D01*
X-2092Y168685D01*
X-5091D01*
X-3092D02*
X-1092Y166686D01*
X4906D02*
X907D01*
X4906Y170685D01*
Y171684D01*
X3906Y172684D01*
X1907D01*
X907Y171684D01*
X10904Y166686D02*
X6905D01*
X10904Y170685D01*
Y171684D01*
X9904Y172684D01*
X7905D01*
X6905Y171684D01*
X16902D02*
X15902Y172684D01*
X13903D01*
X12903Y171684D01*
Y167686D01*
X13903Y166686D01*
X15902D01*
X16902Y167686D01*
X-5091Y213930D02*
Y219928D01*
X-2092D01*
X-1092Y218929D01*
Y216929D01*
X-2092Y215929D01*
X-5091D01*
X-3092D02*
X-1092Y213930D01*
X4906D02*
X907D01*
X4906Y217929D01*
Y218929D01*
X3906Y219928D01*
X1907D01*
X907Y218929D01*
X10904Y213930D02*
X6905D01*
X10904Y217929D01*
Y218929D01*
X9904Y219928D01*
X7905D01*
X6905Y218929D01*
X12903Y219928D02*
Y213930D01*
X15902D01*
X16902Y214930D01*
Y215929D01*
X15902Y216929D01*
X12903D01*
X15902D01*
X16902Y217929D01*
Y218929D01*
X15902Y219928D01*
X12903D01*
X-4697Y261568D02*
Y267566D01*
X-1698D01*
X-698Y266566D01*
Y264567D01*
X-1698Y263567D01*
X-4697D01*
X-2698D02*
X-698Y261568D01*
X5300D02*
X1301D01*
X5300Y265567D01*
Y266566D01*
X4300Y267566D01*
X2300D01*
X1301Y266566D01*
X11298Y261568D02*
X7299D01*
X11298Y265567D01*
Y266566D01*
X10298Y267566D01*
X8299D01*
X7299Y266566D01*
X13297Y261568D02*
Y265567D01*
X15296Y267566D01*
X17296Y265567D01*
Y261568D01*
Y264567D01*
X13297D01*
X-19973Y150147D02*
X-23972D01*
Y147148D01*
X-21972D01*
X-23972D01*
Y144149D01*
X-17974Y149147D02*
X-16974Y150147D01*
X-14975D01*
X-13975Y149147D01*
Y148147D01*
X-14975Y147148D01*
X-15974D01*
X-14975D01*
X-13975Y146148D01*
Y145149D01*
X-14975Y144149D01*
X-16974D01*
X-17974Y145149D01*
X-7977Y149147D02*
X-8977Y150147D01*
X-10976D01*
X-11976Y149147D01*
Y145149D01*
X-10976Y144149D01*
X-8977D01*
X-7977Y145149D01*
X-19973Y197747D02*
X-23972D01*
Y194748D01*
X-21972D01*
X-23972D01*
Y191749D01*
X-17974Y196747D02*
X-16974Y197747D01*
X-14975D01*
X-13975Y196747D01*
Y195747D01*
X-14975Y194748D01*
X-15974D01*
X-14975D01*
X-13975Y193748D01*
Y192748D01*
X-14975Y191749D01*
X-16974D01*
X-17974Y192748D01*
X-11976Y197747D02*
Y191749D01*
X-8977D01*
X-7977Y192748D01*
Y193748D01*
X-8977Y194748D01*
X-11976D01*
X-8977D01*
X-7977Y195747D01*
Y196747D01*
X-8977Y197747D01*
X-11976D01*
X-19673Y244647D02*
X-23672D01*
Y241648D01*
X-21673D01*
X-23672D01*
Y238649D01*
X-17674Y243647D02*
X-16674Y244647D01*
X-14675D01*
X-13675Y243647D01*
Y242648D01*
X-14675Y241648D01*
X-15674D01*
X-14675D01*
X-13675Y240648D01*
Y239649D01*
X-14675Y238649D01*
X-16674D01*
X-17674Y239649D01*
X-11676Y238649D02*
Y242648D01*
X-9676Y244647D01*
X-7677Y242648D01*
Y238649D01*
Y241648D01*
X-11676D01*
X-19973Y174147D02*
X-23972D01*
Y171148D01*
X-21972D01*
X-23972D01*
Y168149D01*
X-13975D02*
X-17974D01*
X-13975Y172148D01*
Y173147D01*
X-14975Y174147D01*
X-16974D01*
X-17974Y173147D01*
X-7977D02*
X-8977Y174147D01*
X-10976D01*
X-11976Y173147D01*
Y169149D01*
X-10976Y168149D01*
X-8977D01*
X-7977Y169149D01*
X-19973Y220947D02*
X-23972D01*
Y217948D01*
X-21972D01*
X-23972D01*
Y214949D01*
X-13975D02*
X-17974D01*
X-13975Y218948D01*
Y219947D01*
X-14975Y220947D01*
X-16974D01*
X-17974Y219947D01*
X-11976Y220947D02*
Y214949D01*
X-8977D01*
X-7977Y215949D01*
Y216948D01*
X-8977Y217948D01*
X-11976D01*
X-8977D01*
X-7977Y218948D01*
Y219947D01*
X-8977Y220947D01*
X-11976D01*
X-19673Y268247D02*
X-23672D01*
Y265248D01*
X-21673D01*
X-23672D01*
Y262249D01*
X-13675D02*
X-17674D01*
X-13675Y266248D01*
Y267247D01*
X-14675Y268247D01*
X-16674D01*
X-17674Y267247D01*
X-11676Y262249D02*
Y266248D01*
X-9676Y268247D01*
X-7677Y266248D01*
Y262249D01*
Y265248D01*
X-11676D01*
X18654Y129010D02*
X24653D01*
Y132009D01*
X23653Y133009D01*
X19654D01*
X18654Y132009D01*
Y129010D01*
X19654Y135009D02*
X18654Y136008D01*
Y138007D01*
X19654Y139007D01*
X20654D01*
X21654Y138007D01*
Y137008D01*
Y138007D01*
X22653Y139007D01*
X23653D01*
X24653Y138007D01*
Y136008D01*
X23653Y135009D01*
X19654Y145005D02*
X18654Y144006D01*
Y142006D01*
X19654Y141007D01*
X23653D01*
X24653Y142006D01*
Y144006D01*
X23653Y145005D01*
X18654Y176255D02*
X24653D01*
Y179254D01*
X23653Y180253D01*
X19654D01*
X18654Y179254D01*
Y176255D01*
X19654Y182253D02*
X18654Y183252D01*
Y185252D01*
X19654Y186251D01*
X20654D01*
X21654Y185252D01*
Y184252D01*
Y185252D01*
X22653Y186251D01*
X23653D01*
X24653Y185252D01*
Y183252D01*
X23653Y182253D01*
X18654Y188251D02*
X24653D01*
Y191250D01*
X23653Y192249D01*
X22653D01*
X21654Y191250D01*
Y188251D01*
Y191250D01*
X20654Y192249D01*
X19654D01*
X18654Y191250D01*
Y188251D01*
Y222318D02*
X24653D01*
Y225317D01*
X23653Y226316D01*
X19654D01*
X18654Y225317D01*
Y222318D01*
X19654Y228316D02*
X18654Y229315D01*
Y231315D01*
X19654Y232314D01*
X20654D01*
X21654Y231315D01*
Y230315D01*
Y231315D01*
X22653Y232314D01*
X23653D01*
X24653Y231315D01*
Y229315D01*
X23653Y228316D01*
X24653Y234314D02*
X20654D01*
X18654Y236313D01*
X20654Y238312D01*
X24653D01*
X21654D01*
Y234314D01*
X18261Y152239D02*
X24259D01*
Y155238D01*
X23259Y156237D01*
X19261D01*
X18261Y155238D01*
Y152239D01*
X24259Y162236D02*
Y158237D01*
X20260Y162236D01*
X19261D01*
X18261Y161236D01*
Y159237D01*
X19261Y158237D01*
Y168234D02*
X18261Y167234D01*
Y165235D01*
X19261Y164235D01*
X23259D01*
X24259Y165235D01*
Y167234D01*
X23259Y168234D01*
X18261Y199089D02*
X24259D01*
Y202088D01*
X23259Y203088D01*
X19261D01*
X18261Y202088D01*
Y199089D01*
X24259Y209086D02*
Y205087D01*
X20260Y209086D01*
X19261D01*
X18261Y208086D01*
Y206087D01*
X19261Y205087D01*
X18261Y211085D02*
X24259D01*
Y214084D01*
X23259Y215084D01*
X22260D01*
X21260Y214084D01*
Y211085D01*
Y214084D01*
X20260Y215084D01*
X19261D01*
X18261Y214084D01*
Y211085D01*
X19442Y244759D02*
X25440D01*
Y247758D01*
X24440Y248757D01*
X20442D01*
X19442Y247758D01*
Y244759D01*
X25440Y254755D02*
Y250757D01*
X21441Y254755D01*
X20442D01*
X19442Y253756D01*
Y251756D01*
X20442Y250757D01*
X25440Y256755D02*
X21441D01*
X19442Y258754D01*
X21441Y260753D01*
X25440D01*
X22441D01*
Y256755D01*
X15928Y102747D02*
X19927Y96749D01*
Y102747D02*
X15928Y96749D01*
X25925D02*
X21926D01*
X25925Y100748D01*
Y101747D01*
X24925Y102747D01*
X22926D01*
X21926Y101747D01*
X80041Y114717D02*
Y120716D01*
X83040D01*
X84040Y119716D01*
Y117717D01*
X83040Y116717D01*
X80041D01*
X82040D02*
X84040Y114717D01*
X90038Y120716D02*
X88038Y119716D01*
X86039Y117717D01*
Y115717D01*
X87039Y114717D01*
X89038D01*
X90038Y115717D01*
Y116717D01*
X89038Y117717D01*
X86039D01*
X78073Y245033D02*
Y251030D01*
X81072D01*
X82071Y250031D01*
Y248031D01*
X81072Y247032D01*
X78073D01*
X80072D02*
X82071Y245033D01*
X88069Y251030D02*
X84071D01*
Y248031D01*
X86070Y249031D01*
X87070D01*
X88069Y248031D01*
Y246032D01*
X87070Y245033D01*
X85070D01*
X84071Y246032D01*
X77285Y374954D02*
Y380952D01*
X80284D01*
X81284Y379952D01*
Y377953D01*
X80284Y376953D01*
X77285D01*
X79284D02*
X81284Y374954D01*
X86282D02*
Y380952D01*
X83283Y377953D01*
X87282D01*
X18654Y270411D02*
X24653D01*
Y273410D01*
X23653Y274410D01*
X19654D01*
X18654Y273410D01*
Y270411D01*
X24653Y276409D02*
Y278408D01*
Y277409D01*
X18654D01*
X19654Y276409D01*
X493352Y131345D02*
X491352D01*
X492352D01*
Y126347D01*
X491352Y125347D01*
X490352D01*
X489353Y126347D01*
X495351Y125347D02*
X497350D01*
X496351D01*
Y131345D01*
X495351Y130346D01*
X504348D02*
X503348Y131345D01*
X501349D01*
X500349Y130346D01*
Y126347D01*
X501349Y125347D01*
X503348D01*
X504348Y126347D01*
X492958Y257723D02*
X490958D01*
X491958D01*
Y252725D01*
X490958Y251725D01*
X489959D01*
X488959Y252725D01*
X494957Y251725D02*
X496956D01*
X495957D01*
Y257723D01*
X494957Y256724D01*
X499956Y257723D02*
Y251725D01*
X502955D01*
X503954Y252725D01*
Y253725D01*
X502955Y254724D01*
X499956D01*
X502955D01*
X503954Y255724D01*
Y256724D01*
X502955Y257723D01*
X499956D01*
X492170Y383314D02*
X490171D01*
X491171D01*
Y378316D01*
X490171Y377316D01*
X489171D01*
X488172Y378316D01*
X494170Y377316D02*
X496169D01*
X495169D01*
Y383314D01*
X494170Y382314D01*
X499168Y377316D02*
Y381315D01*
X501167Y383314D01*
X503167Y381315D01*
Y377316D01*
Y380315D01*
X499168D01*
X59028Y75347D02*
X63027Y69349D01*
Y75347D02*
X59028Y69349D01*
X65026Y75347D02*
X69025D01*
X67026D01*
Y69349D01*
X71024D02*
X73024D01*
X72024D01*
Y75347D01*
X71024Y74347D01*
X80021D02*
X79022Y75347D01*
X77022D01*
X76023Y74347D01*
Y70349D01*
X77022Y69349D01*
X79022D01*
X80021Y70349D01*
X59028Y205247D02*
X63027Y199249D01*
Y205247D02*
X59028Y199249D01*
X65026Y205247D02*
X69025D01*
X67026D01*
Y199249D01*
X71024D02*
X73024D01*
X72024D01*
Y205247D01*
X71024Y204247D01*
X76023Y205247D02*
Y199249D01*
X79022D01*
X80021Y200249D01*
Y201248D01*
X79022Y202248D01*
X76023D01*
X79022D01*
X80021Y203247D01*
Y204247D01*
X79022Y205247D01*
X76023D01*
X59028Y335147D02*
X63027Y329149D01*
Y335147D02*
X59028Y329149D01*
X65026Y335147D02*
X69025D01*
X67026D01*
Y329149D01*
X71024D02*
X73024D01*
X72024D01*
Y335147D01*
X71024Y334147D01*
X76023Y329149D02*
Y333148D01*
X78022Y335147D01*
X80021Y333148D01*
Y329149D01*
Y332148D01*
X76023D01*
X255388Y84889D02*
Y79890D01*
X256388Y78891D01*
X258387D01*
X259387Y79890D01*
Y84889D01*
X264386Y78891D02*
Y84889D01*
X261386Y81890D01*
X265385D01*
X271383Y83889D02*
X270384Y84889D01*
X268384D01*
X267385Y83889D01*
Y79890D01*
X268384Y78891D01*
X270384D01*
X271383Y79890D01*
X255388Y214810D02*
Y209812D01*
X256388Y208812D01*
X258387D01*
X259387Y209812D01*
Y214810D01*
X264386Y208812D02*
Y214810D01*
X261386Y211811D01*
X265385D01*
X267385Y214810D02*
Y208812D01*
X270384D01*
X271383Y209812D01*
Y210811D01*
X270384Y211811D01*
X267385D01*
X270384D01*
X271383Y212811D01*
Y213810D01*
X270384Y214810D01*
X267385D01*
X312355Y42790D02*
X317354D01*
X318353Y43790D01*
Y45789D01*
X317354Y46789D01*
X312355D01*
X313355Y48788D02*
X312355Y49788D01*
Y51787D01*
X313355Y52787D01*
X314355D01*
X315354Y51787D01*
Y50787D01*
Y51787D01*
X316354Y52787D01*
X317354D01*
X318353Y51787D01*
Y49788D01*
X317354Y48788D01*
X313355Y58785D02*
X312355Y57785D01*
Y55786D01*
X313355Y54786D01*
X317354D01*
X318353Y55786D01*
Y57785D01*
X317354Y58785D01*
X312355Y172711D02*
X317354D01*
X318353Y173711D01*
Y175710D01*
X317354Y176710D01*
X312355D01*
X313355Y178709D02*
X312355Y179709D01*
Y181708D01*
X313355Y182708D01*
X314355D01*
X315354Y181708D01*
Y180709D01*
Y181708D01*
X316354Y182708D01*
X317354D01*
X318353Y181708D01*
Y179709D01*
X317354Y178709D01*
X312355Y184707D02*
X318353D01*
Y187706D01*
X317354Y188706D01*
X316354D01*
X315354Y187706D01*
Y184707D01*
Y187706D01*
X314355Y188706D01*
X313355D01*
X312355Y187706D01*
Y184707D01*
X312355Y302632D02*
X317354D01*
X318353Y303632D01*
Y305631D01*
X317354Y306631D01*
X312355D01*
X313355Y308631D02*
X312355Y309630D01*
Y311630D01*
X313355Y312629D01*
X314355D01*
X315354Y311630D01*
Y310630D01*
Y311630D01*
X316354Y312629D01*
X317354D01*
X318353Y311630D01*
Y309630D01*
X317354Y308631D01*
X318353Y314629D02*
X314355D01*
X312355Y316628D01*
X314355Y318627D01*
X318353D01*
X315354D01*
Y314629D01*
X204207Y14810D02*
Y9812D01*
X205207Y8812D01*
X207206D01*
X208206Y9812D01*
Y14810D01*
X214204Y8812D02*
X210205D01*
X214204Y12811D01*
Y13810D01*
X213204Y14810D01*
X211205D01*
X210205Y13810D01*
X220202D02*
X219202Y14810D01*
X217203D01*
X216203Y13810D01*
Y9812D01*
X217203Y8812D01*
X219202D01*
X220202Y9812D01*
X204207Y144731D02*
Y139733D01*
X205207Y138733D01*
X207206D01*
X208206Y139733D01*
Y144731D01*
X214204Y138733D02*
X210205D01*
X214204Y142732D01*
Y143732D01*
X213204Y144731D01*
X211205D01*
X210205Y143732D01*
X216203Y144731D02*
Y138733D01*
X219202D01*
X220202Y139733D01*
Y140733D01*
X219202Y141732D01*
X216203D01*
X219202D01*
X220202Y142732D01*
Y143732D01*
X219202Y144731D01*
X216203D01*
X204207Y274653D02*
Y269654D01*
X205207Y268654D01*
X207206D01*
X208206Y269654D01*
Y274653D01*
X214204Y268654D02*
X210205D01*
X214204Y272653D01*
Y273653D01*
X213204Y274653D01*
X211205D01*
X210205Y273653D01*
X216203Y268654D02*
Y272653D01*
X218203Y274653D01*
X220202Y272653D01*
Y268654D01*
Y271654D01*
X216203D01*
X153300Y71243D02*
X158299D01*
X159298Y72242D01*
Y74242D01*
X158299Y75241D01*
X153300D01*
X159298Y77241D02*
Y79240D01*
Y78240D01*
X153300D01*
X154300Y77241D01*
Y86238D02*
X153300Y85238D01*
Y83239D01*
X154300Y82239D01*
X158299D01*
X159298Y83239D01*
Y85238D01*
X158299Y86238D01*
X153300Y201164D02*
X158299D01*
X159298Y202164D01*
Y204163D01*
X158299Y205163D01*
X153300D01*
X159298Y207162D02*
Y209161D01*
Y208162D01*
X153300D01*
X154300Y207162D01*
X153300Y212160D02*
X159298D01*
Y215159D01*
X158299Y216159D01*
X157299D01*
X156299Y215159D01*
Y212160D01*
Y215159D01*
X155299Y216159D01*
X154300D01*
X153300Y215159D01*
Y212160D01*
X153300Y331085D02*
X158299D01*
X159298Y332085D01*
Y334084D01*
X158299Y335084D01*
X153300D01*
X159298Y337083D02*
Y339083D01*
Y338083D01*
X153300D01*
X154300Y337083D01*
X159298Y342082D02*
X155299D01*
X153300Y344081D01*
X155299Y346080D01*
X159298D01*
X156299D01*
Y342082D01*
X214988Y71410D02*
Y77408D01*
X217987D01*
X218987Y76409D01*
Y74410D01*
X217987Y73410D01*
X214988D01*
X216987D02*
X218987Y71410D01*
X223985D02*
Y77408D01*
X220986Y74410D01*
X224985D01*
X226984Y72410D02*
X227984Y71410D01*
X229983D01*
X230983Y72410D01*
Y76409D01*
X229983Y77408D01*
X227984D01*
X226984Y76409D01*
Y75409D01*
X227984Y74410D01*
X230983D01*
X236981Y76409D02*
X235981Y77408D01*
X233982D01*
X232982Y76409D01*
Y72410D01*
X233982Y71410D01*
X235981D01*
X236981Y72410D01*
X214988Y201332D02*
Y207330D01*
X217987D01*
X218987Y206330D01*
Y204331D01*
X217987Y203331D01*
X214988D01*
X216987D02*
X218987Y201332D01*
X223985D02*
Y207330D01*
X220986Y204331D01*
X224985D01*
X226984Y202331D02*
X227984Y201332D01*
X229983D01*
X230983Y202331D01*
Y206330D01*
X229983Y207330D01*
X227984D01*
X226984Y206330D01*
Y205330D01*
X227984Y204331D01*
X230983D01*
X232982Y207330D02*
Y201332D01*
X235981D01*
X236981Y202331D01*
Y203331D01*
X235981Y204331D01*
X232982D01*
X235981D01*
X236981Y205330D01*
Y206330D01*
X235981Y207330D01*
X232982D01*
X273255Y72198D02*
Y78196D01*
X276255D01*
X277254Y77196D01*
Y75197D01*
X276255Y74197D01*
X273255D01*
X275255D02*
X277254Y72198D01*
X282253D02*
Y78196D01*
X279254Y75197D01*
X283252D01*
X285252Y77196D02*
X286251Y78196D01*
X288251D01*
X289250Y77196D01*
Y76196D01*
X288251Y75197D01*
X289250Y74197D01*
Y73198D01*
X288251Y72198D01*
X286251D01*
X285252Y73198D01*
Y74197D01*
X286251Y75197D01*
X285252Y76196D01*
Y77196D01*
X286251Y75197D02*
X288251D01*
X295248Y77196D02*
X294249Y78196D01*
X292249D01*
X291250Y77196D01*
Y73198D01*
X292249Y72198D01*
X294249D01*
X295248Y73198D01*
X273255Y202119D02*
Y208117D01*
X276255D01*
X277254Y207118D01*
Y205118D01*
X276255Y204118D01*
X273255D01*
X275255D02*
X277254Y202119D01*
X282253D02*
Y208117D01*
X279254Y205118D01*
X283252D01*
X285252Y207118D02*
X286251Y208117D01*
X288251D01*
X289250Y207118D01*
Y206118D01*
X288251Y205118D01*
X289250Y204118D01*
Y203119D01*
X288251Y202119D01*
X286251D01*
X285252Y203119D01*
Y204118D01*
X286251Y205118D01*
X285252Y206118D01*
Y207118D01*
X286251Y205118D02*
X288251D01*
X291250Y208117D02*
Y202119D01*
X294249D01*
X295248Y203119D01*
Y204118D01*
X294249Y205118D01*
X291250D01*
X294249D01*
X295248Y206118D01*
Y207118D01*
X294249Y208117D01*
X291250D01*
X280342Y124560D02*
Y130558D01*
X283341D01*
X284341Y129558D01*
Y127559D01*
X283341Y126559D01*
X280342D01*
X282342D02*
X284341Y124560D01*
X289339D02*
Y130558D01*
X286340Y127559D01*
X290339D01*
X292338Y130558D02*
X296337D01*
Y129558D01*
X292338Y125560D01*
Y124560D01*
X302335Y129558D02*
X301335Y130558D01*
X299336D01*
X298336Y129558D01*
Y125560D01*
X299336Y124560D01*
X301335D01*
X302335Y125560D01*
X280342Y254481D02*
Y260479D01*
X283341D01*
X284341Y259480D01*
Y257480D01*
X283341Y256481D01*
X280342D01*
X282342D02*
X284341Y254481D01*
X289339D02*
Y260479D01*
X286340Y257480D01*
X290339D01*
X292338Y260479D02*
X296337D01*
Y259480D01*
X292338Y255481D01*
Y254481D01*
X298336Y260479D02*
Y254481D01*
X301335D01*
X302335Y255481D01*
Y256481D01*
X301335Y257480D01*
X298336D01*
X301335D01*
X302335Y258480D01*
Y259480D01*
X301335Y260479D01*
X298336D01*
X227980Y124560D02*
Y130558D01*
X230979D01*
X231979Y129558D01*
Y127559D01*
X230979Y126559D01*
X227980D01*
X229979D02*
X231979Y124560D01*
X236977D02*
Y130558D01*
X233978Y127559D01*
X237977D01*
X243975Y130558D02*
X241975Y129558D01*
X239976Y127559D01*
Y125560D01*
X240976Y124560D01*
X242975D01*
X243975Y125560D01*
Y126559D01*
X242975Y127559D01*
X239976D01*
X249973Y129558D02*
X248973Y130558D01*
X246974D01*
X245974Y129558D01*
Y125560D01*
X246974Y124560D01*
X248973D01*
X249973Y125560D01*
X227980Y254481D02*
Y260479D01*
X230979D01*
X231979Y259480D01*
Y257480D01*
X230979Y256481D01*
X227980D01*
X229979D02*
X231979Y254481D01*
X236977D02*
Y260479D01*
X233978Y257480D01*
X237977D01*
X243975Y260479D02*
X241975Y259480D01*
X239976Y257480D01*
Y255481D01*
X240976Y254481D01*
X242975D01*
X243975Y255481D01*
Y256481D01*
X242975Y257480D01*
X239976D01*
X245974Y260479D02*
Y254481D01*
X248973D01*
X249973Y255481D01*
Y256481D01*
X248973Y257480D01*
X245974D01*
X248973D01*
X249973Y258480D01*
Y259480D01*
X248973Y260479D01*
X245974D01*
X446484Y91096D02*
Y97093D01*
X449483D01*
X450483Y96094D01*
Y94095D01*
X449483Y93095D01*
X446484D01*
X448483D02*
X450483Y91096D01*
X455481D02*
Y97093D01*
X452482Y94095D01*
X456481D01*
X462479Y97093D02*
X458480D01*
Y94095D01*
X460479Y95094D01*
X461479D01*
X462479Y94095D01*
Y92095D01*
X461479Y91096D01*
X459480D01*
X458480Y92095D01*
X468477Y96094D02*
X467477Y97093D01*
X465478D01*
X464478Y96094D01*
Y92095D01*
X465478Y91096D01*
X467477D01*
X468477Y92095D01*
X446484Y221017D02*
Y227015D01*
X449483D01*
X450483Y226015D01*
Y224016D01*
X449483Y223016D01*
X446484D01*
X448483D02*
X450483Y221017D01*
X455481D02*
Y227015D01*
X452482Y224016D01*
X456481D01*
X462479Y227015D02*
X458480D01*
Y224016D01*
X460479Y225015D01*
X461479D01*
X462479Y224016D01*
Y222016D01*
X461479Y221017D01*
X459480D01*
X458480Y222016D01*
X464478Y227015D02*
Y221017D01*
X467477D01*
X468477Y222016D01*
Y223016D01*
X467477Y224016D01*
X464478D01*
X467477D01*
X468477Y225015D01*
Y226015D01*
X467477Y227015D01*
X464478D01*
X445992Y101725D02*
Y107723D01*
X448991D01*
X449991Y106724D01*
Y104724D01*
X448991Y103725D01*
X445992D01*
X447991D02*
X449991Y101725D01*
X454989D02*
Y107723D01*
X451990Y104724D01*
X455989D01*
X460987Y101725D02*
Y107723D01*
X457988Y104724D01*
X461987D01*
X467985Y106724D02*
X466985Y107723D01*
X464986D01*
X463986Y106724D01*
Y102725D01*
X464986Y101725D01*
X466985D01*
X467985Y102725D01*
X445992Y231647D02*
Y237645D01*
X448991D01*
X449991Y236645D01*
Y234646D01*
X448991Y233646D01*
X445992D01*
X447991D02*
X449991Y231647D01*
X454989D02*
Y237645D01*
X451990Y234646D01*
X455989D01*
X460987Y231647D02*
Y237645D01*
X457988Y234646D01*
X461987D01*
X463986Y237645D02*
Y231647D01*
X466985D01*
X467985Y232646D01*
Y233646D01*
X466985Y234646D01*
X463986D01*
X466985D01*
X467985Y235645D01*
Y236645D01*
X466985Y237645D01*
X463986D01*
X446484Y112749D02*
Y118747D01*
X449483D01*
X450483Y117747D01*
Y115748D01*
X449483Y114748D01*
X446484D01*
X448483D02*
X450483Y112749D01*
X455481D02*
Y118747D01*
X452482Y115748D01*
X456481D01*
X458480Y117747D02*
X459480Y118747D01*
X461479D01*
X462479Y117747D01*
Y116748D01*
X461479Y115748D01*
X460479D01*
X461479D01*
X462479Y114748D01*
Y113749D01*
X461479Y112749D01*
X459480D01*
X458480Y113749D01*
X468477Y117747D02*
X467477Y118747D01*
X465478D01*
X464478Y117747D01*
Y113749D01*
X465478Y112749D01*
X467477D01*
X468477Y113749D01*
X446484Y242670D02*
Y248668D01*
X449483D01*
X450483Y247669D01*
Y245669D01*
X449483Y244670D01*
X446484D01*
X448483D02*
X450483Y242670D01*
X455481D02*
Y248668D01*
X452482Y245669D01*
X456481D01*
X458480Y247669D02*
X459480Y248668D01*
X461479D01*
X462479Y247669D01*
Y246669D01*
X461479Y245669D01*
X460479D01*
X461479D01*
X462479Y244670D01*
Y243670D01*
X461479Y242670D01*
X459480D01*
X458480Y243670D01*
X464478Y248668D02*
Y242670D01*
X467477D01*
X468477Y243670D01*
Y244670D01*
X467477Y245669D01*
X464478D01*
X467477D01*
X468477Y246669D01*
Y247669D01*
X467477Y248668D01*
X464478D01*
X446484Y124560D02*
Y130558D01*
X449483D01*
X450483Y129558D01*
Y127559D01*
X449483Y126559D01*
X446484D01*
X448483D02*
X450483Y124560D01*
X455481D02*
Y130558D01*
X452482Y127559D01*
X456481D01*
X462479Y124560D02*
X458480D01*
X462479Y128559D01*
Y129558D01*
X461479Y130558D01*
X459480D01*
X458480Y129558D01*
X468477D02*
X467477Y130558D01*
X465478D01*
X464478Y129558D01*
Y125560D01*
X465478Y124560D01*
X467477D01*
X468477Y125560D01*
X446484Y254481D02*
Y260479D01*
X449483D01*
X450483Y259480D01*
Y257480D01*
X449483Y256481D01*
X446484D01*
X448483D02*
X450483Y254481D01*
X455481D02*
Y260479D01*
X452482Y257480D01*
X456481D01*
X462479Y254481D02*
X458480D01*
X462479Y258480D01*
Y259480D01*
X461479Y260479D01*
X459480D01*
X458480Y259480D01*
X464478Y260479D02*
Y254481D01*
X467477D01*
X468477Y255481D01*
Y256481D01*
X467477Y257480D01*
X464478D01*
X467477D01*
X468477Y258480D01*
Y259480D01*
X467477Y260479D01*
X464478D01*
X454464Y47788D02*
Y53786D01*
X457463D01*
X458463Y52787D01*
Y50787D01*
X457463Y49788D01*
X454464D01*
X456463D02*
X458463Y47788D01*
X463461D02*
Y53786D01*
X460462Y50787D01*
X464461D01*
X466460Y47788D02*
X468460D01*
X467460D01*
Y53786D01*
X466460Y52787D01*
X475457D02*
X474458Y53786D01*
X472458D01*
X471458Y52787D01*
Y48788D01*
X472458Y47788D01*
X474458D01*
X475457Y48788D01*
X454464Y177710D02*
Y183708D01*
X457463D01*
X458463Y182708D01*
Y180709D01*
X457463Y179709D01*
X454464D01*
X456463D02*
X458463Y177710D01*
X463461D02*
Y183708D01*
X460462Y180709D01*
X464461D01*
X466460Y177710D02*
X468460D01*
X467460D01*
Y183708D01*
X466460Y182708D01*
X471458Y183708D02*
Y177710D01*
X474458D01*
X475457Y178709D01*
Y179709D01*
X474458Y180709D01*
X471458D01*
X474458D01*
X475457Y181708D01*
Y182708D01*
X474458Y183708D01*
X471458D01*
X454464Y307631D02*
Y313629D01*
X457463D01*
X458463Y312629D01*
Y310630D01*
X457463Y309630D01*
X454464D01*
X456463D02*
X458463Y307631D01*
X463461D02*
Y313629D01*
X460462Y310630D01*
X464461D01*
X466460Y307631D02*
X468460D01*
X467460D01*
Y313629D01*
X466460Y312629D01*
X471458Y307631D02*
Y311630D01*
X473458Y313629D01*
X475457Y311630D01*
Y307631D01*
Y310630D01*
X471458D01*
X453964Y63536D02*
Y69534D01*
X456963D01*
X457963Y68535D01*
Y66535D01*
X456963Y65536D01*
X453964D01*
X455964D02*
X457963Y63536D01*
X462961D02*
Y69534D01*
X459962Y66535D01*
X463961D01*
X465960Y68535D02*
X466960Y69534D01*
X468959D01*
X469959Y68535D01*
Y64536D01*
X468959Y63536D01*
X466960D01*
X465960Y64536D01*
Y68535D01*
X475957D02*
X474957Y69534D01*
X472958D01*
X471958Y68535D01*
Y64536D01*
X472958Y63536D01*
X474957D01*
X475957Y64536D01*
X453964Y193458D02*
Y199456D01*
X456963D01*
X457963Y198456D01*
Y196457D01*
X456963Y195457D01*
X453964D01*
X455964D02*
X457963Y193458D01*
X462961D02*
Y199456D01*
X459962Y196457D01*
X463961D01*
X465960Y198456D02*
X466960Y199456D01*
X468959D01*
X469959Y198456D01*
Y194457D01*
X468959Y193458D01*
X466960D01*
X465960Y194457D01*
Y198456D01*
X471958Y199456D02*
Y193458D01*
X474957D01*
X475957Y194457D01*
Y195457D01*
X474957Y196457D01*
X471958D01*
X474957D01*
X475957Y197456D01*
Y198456D01*
X474957Y199456D01*
X471958D01*
X453964Y323379D02*
Y329377D01*
X456963D01*
X457963Y328377D01*
Y326378D01*
X456963Y325378D01*
X453964D01*
X455964D02*
X457963Y323379D01*
X462961D02*
Y329377D01*
X459962Y326378D01*
X463961D01*
X465960Y328377D02*
X466960Y329377D01*
X468959D01*
X469959Y328377D01*
Y324379D01*
X468959Y323379D01*
X466960D01*
X465960Y324379D01*
Y328377D01*
X471958Y323379D02*
Y327378D01*
X473958Y329377D01*
X475957Y327378D01*
Y323379D01*
Y326378D01*
X471958D01*
X453964Y55662D02*
Y61660D01*
X456963D01*
X457963Y60661D01*
Y58661D01*
X456963Y57662D01*
X453964D01*
X455964D02*
X457963Y55662D01*
X459962Y60661D02*
X460962Y61660D01*
X462961D01*
X463961Y60661D01*
Y59661D01*
X462961Y58661D01*
X461962D01*
X462961D01*
X463961Y57662D01*
Y56662D01*
X462961Y55662D01*
X460962D01*
X459962Y56662D01*
X465960D02*
X466960Y55662D01*
X468959D01*
X469959Y56662D01*
Y60661D01*
X468959Y61660D01*
X466960D01*
X465960Y60661D01*
Y59661D01*
X466960Y58661D01*
X469959D01*
X475957Y60661D02*
X474957Y61660D01*
X472958D01*
X471958Y60661D01*
Y56662D01*
X472958Y55662D01*
X474957D01*
X475957Y56662D01*
X453964Y185584D02*
Y191582D01*
X456963D01*
X457963Y190582D01*
Y188583D01*
X456963Y187583D01*
X453964D01*
X455964D02*
X457963Y185584D01*
X459962Y190582D02*
X460962Y191582D01*
X462961D01*
X463961Y190582D01*
Y189582D01*
X462961Y188583D01*
X461962D01*
X462961D01*
X463961Y187583D01*
Y186583D01*
X462961Y185584D01*
X460962D01*
X459962Y186583D01*
X465960D02*
X466960Y185584D01*
X468959D01*
X469959Y186583D01*
Y190582D01*
X468959Y191582D01*
X466960D01*
X465960Y190582D01*
Y189582D01*
X466960Y188583D01*
X469959D01*
X471958Y191582D02*
Y185584D01*
X474957D01*
X475957Y186583D01*
Y187583D01*
X474957Y188583D01*
X471958D01*
X474957D01*
X475957Y189582D01*
Y190582D01*
X474957Y191582D01*
X471958D01*
X453964Y315505D02*
Y321503D01*
X456963D01*
X457963Y320503D01*
Y318504D01*
X456963Y317504D01*
X453964D01*
X455964D02*
X457963Y315505D01*
X459962Y320503D02*
X460962Y321503D01*
X462961D01*
X463961Y320503D01*
Y319504D01*
X462961Y318504D01*
X461962D01*
X462961D01*
X463961Y317504D01*
Y316505D01*
X462961Y315505D01*
X460962D01*
X459962Y316505D01*
X465960D02*
X466960Y315505D01*
X468959D01*
X469959Y316505D01*
Y320503D01*
X468959Y321503D01*
X466960D01*
X465960Y320503D01*
Y319504D01*
X466960Y318504D01*
X469959D01*
X471958Y315505D02*
Y319504D01*
X473958Y321503D01*
X475957Y319504D01*
Y315505D01*
Y318504D01*
X471958D01*
X453866Y71410D02*
Y77408D01*
X456865D01*
X457865Y76409D01*
Y74410D01*
X456865Y73410D01*
X453866D01*
X455865D02*
X457865Y71410D01*
X459864Y76409D02*
X460863Y77408D01*
X462863D01*
X463863Y76409D01*
Y75409D01*
X462863Y74410D01*
X461863D01*
X462863D01*
X463863Y73410D01*
Y72410D01*
X462863Y71410D01*
X460863D01*
X459864Y72410D01*
X465862Y76409D02*
X466862Y77408D01*
X468861D01*
X469861Y76409D01*
Y75409D01*
X468861Y74410D01*
X469861Y73410D01*
Y72410D01*
X468861Y71410D01*
X466862D01*
X465862Y72410D01*
Y73410D01*
X466862Y74410D01*
X465862Y75409D01*
Y76409D01*
X466862Y74410D02*
X468861D01*
X475859Y76409D02*
X474859Y77408D01*
X472860D01*
X471860Y76409D01*
Y72410D01*
X472860Y71410D01*
X474859D01*
X475859Y72410D01*
X453866Y201332D02*
Y207330D01*
X456865D01*
X457865Y206330D01*
Y204331D01*
X456865Y203331D01*
X453866D01*
X455865D02*
X457865Y201332D01*
X459864Y206330D02*
X460863Y207330D01*
X462863D01*
X463863Y206330D01*
Y205330D01*
X462863Y204331D01*
X461863D01*
X462863D01*
X463863Y203331D01*
Y202331D01*
X462863Y201332D01*
X460863D01*
X459864Y202331D01*
X465862Y206330D02*
X466862Y207330D01*
X468861D01*
X469861Y206330D01*
Y205330D01*
X468861Y204331D01*
X469861Y203331D01*
Y202331D01*
X468861Y201332D01*
X466862D01*
X465862Y202331D01*
Y203331D01*
X466862Y204331D01*
X465862Y205330D01*
Y206330D01*
X466862Y204331D02*
X468861D01*
X471860Y207330D02*
Y201332D01*
X474859D01*
X475859Y202331D01*
Y203331D01*
X474859Y204331D01*
X471860D01*
X474859D01*
X475859Y205330D01*
Y206330D01*
X474859Y207330D01*
X471860D01*
X453866Y331253D02*
Y337251D01*
X456865D01*
X457865Y336251D01*
Y334252D01*
X456865Y333252D01*
X453866D01*
X455865D02*
X457865Y331253D01*
X459864Y336251D02*
X460863Y337251D01*
X462863D01*
X463863Y336251D01*
Y335252D01*
X462863Y334252D01*
X461863D01*
X462863D01*
X463863Y333252D01*
Y332253D01*
X462863Y331253D01*
X460863D01*
X459864Y332253D01*
X465862Y336251D02*
X466862Y337251D01*
X468861D01*
X469861Y336251D01*
Y335252D01*
X468861Y334252D01*
X469861Y333252D01*
Y332253D01*
X468861Y331253D01*
X466862D01*
X465862Y332253D01*
Y333252D01*
X466862Y334252D01*
X465862Y335252D01*
Y336251D01*
X466862Y334252D02*
X468861D01*
X471860Y331253D02*
Y335252D01*
X473859Y337251D01*
X475859Y335252D01*
Y331253D01*
Y334252D01*
X471860D01*
X418098Y13851D02*
Y19849D01*
X421097D01*
X422097Y18850D01*
Y16850D01*
X421097Y15851D01*
X418098D01*
X420097D02*
X422097Y13851D01*
X424096Y18850D02*
X425096Y19849D01*
X427095D01*
X428095Y18850D01*
Y17850D01*
X427095Y16850D01*
X426095D01*
X427095D01*
X428095Y15851D01*
Y14851D01*
X427095Y13851D01*
X425096D01*
X424096Y14851D01*
X430094Y19849D02*
X434093D01*
Y18850D01*
X430094Y14851D01*
Y13851D01*
X440091Y18850D02*
X439091Y19849D01*
X437092D01*
X436092Y18850D01*
Y14851D01*
X437092Y13851D01*
X439091D01*
X440091Y14851D01*
X418098Y143773D02*
Y149771D01*
X421097D01*
X422097Y148771D01*
Y146772D01*
X421097Y145772D01*
X418098D01*
X420097D02*
X422097Y143773D01*
X424096Y148771D02*
X425096Y149771D01*
X427095D01*
X428095Y148771D01*
Y147771D01*
X427095Y146772D01*
X426095D01*
X427095D01*
X428095Y145772D01*
Y144772D01*
X427095Y143773D01*
X425096D01*
X424096Y144772D01*
X430094Y149771D02*
X434093D01*
Y148771D01*
X430094Y144772D01*
Y143773D01*
X436092Y149771D02*
Y143773D01*
X439091D01*
X440091Y144772D01*
Y145772D01*
X439091Y146772D01*
X436092D01*
X439091D01*
X440091Y147771D01*
Y148771D01*
X439091Y149771D01*
X436092D01*
X418098Y273694D02*
Y279692D01*
X421097D01*
X422097Y278692D01*
Y276693D01*
X421097Y275693D01*
X418098D01*
X420097D02*
X422097Y273694D01*
X424096Y278692D02*
X425096Y279692D01*
X427095D01*
X428095Y278692D01*
Y277693D01*
X427095Y276693D01*
X426095D01*
X427095D01*
X428095Y275693D01*
Y274694D01*
X427095Y273694D01*
X425096D01*
X424096Y274694D01*
X430094Y279692D02*
X434093D01*
Y278692D01*
X430094Y274694D01*
Y273694D01*
X436092D02*
Y277693D01*
X438092Y279692D01*
X440091Y277693D01*
Y273694D01*
Y276693D01*
X436092D01*
X367350Y23379D02*
Y29377D01*
X370349D01*
X371349Y28377D01*
Y26378D01*
X370349Y25378D01*
X367350D01*
X369349D02*
X371349Y23379D01*
X373348Y28377D02*
X374348Y29377D01*
X376347D01*
X377347Y28377D01*
Y27378D01*
X376347Y26378D01*
X375347D01*
X376347D01*
X377347Y25378D01*
Y24379D01*
X376347Y23379D01*
X374348D01*
X373348Y24379D01*
X383345Y29377D02*
X381346Y28377D01*
X379346Y26378D01*
Y24379D01*
X380346Y23379D01*
X382345D01*
X383345Y24379D01*
Y25378D01*
X382345Y26378D01*
X379346D01*
X389343Y28377D02*
X388343Y29377D01*
X386344D01*
X385344Y28377D01*
Y24379D01*
X386344Y23379D01*
X388343D01*
X389343Y24379D01*
X367350Y153300D02*
Y159298D01*
X370349D01*
X371349Y158299D01*
Y156299D01*
X370349Y155299D01*
X367350D01*
X369349D02*
X371349Y153300D01*
X373348Y158299D02*
X374348Y159298D01*
X376347D01*
X377347Y158299D01*
Y157299D01*
X376347Y156299D01*
X375347D01*
X376347D01*
X377347Y155299D01*
Y154300D01*
X376347Y153300D01*
X374348D01*
X373348Y154300D01*
X383345Y159298D02*
X381346Y158299D01*
X379346Y156299D01*
Y154300D01*
X380346Y153300D01*
X382345D01*
X383345Y154300D01*
Y155299D01*
X382345Y156299D01*
X379346D01*
X385344Y159298D02*
Y153300D01*
X388343D01*
X389343Y154300D01*
Y155299D01*
X388343Y156299D01*
X385344D01*
X388343D01*
X389343Y157299D01*
Y158299D01*
X388343Y159298D01*
X385344D01*
X367350Y283221D02*
Y289219D01*
X370349D01*
X371349Y288220D01*
Y286221D01*
X370349Y285221D01*
X367350D01*
X369349D02*
X371349Y283221D01*
X373348Y288220D02*
X374348Y289219D01*
X376347D01*
X377347Y288220D01*
Y287220D01*
X376347Y286221D01*
X375347D01*
X376347D01*
X377347Y285221D01*
Y284221D01*
X376347Y283221D01*
X374348D01*
X373348Y284221D01*
X383345Y289219D02*
X381346Y288220D01*
X379346Y286221D01*
Y284221D01*
X380346Y283221D01*
X382345D01*
X383345Y284221D01*
Y285221D01*
X382345Y286221D01*
X379346D01*
X385344Y283221D02*
Y287220D01*
X387344Y289219D01*
X389343Y287220D01*
Y283221D01*
Y286221D01*
X385344D01*
X367350Y76135D02*
Y82133D01*
X370349D01*
X371349Y81133D01*
Y79134D01*
X370349Y78134D01*
X367350D01*
X369349D02*
X371349Y76135D01*
X373348Y81133D02*
X374348Y82133D01*
X376347D01*
X377347Y81133D01*
Y80133D01*
X376347Y79134D01*
X375347D01*
X376347D01*
X377347Y78134D01*
Y77135D01*
X376347Y76135D01*
X374348D01*
X373348Y77135D01*
X383345Y82133D02*
X379346D01*
Y79134D01*
X381346Y80133D01*
X382345D01*
X383345Y79134D01*
Y77135D01*
X382345Y76135D01*
X380346D01*
X379346Y77135D01*
X389343Y81133D02*
X388343Y82133D01*
X386344D01*
X385344Y81133D01*
Y77135D01*
X386344Y76135D01*
X388343D01*
X389343Y77135D01*
X367350Y206056D02*
Y212054D01*
X370349D01*
X371349Y211054D01*
Y209055D01*
X370349Y208055D01*
X367350D01*
X369349D02*
X371349Y206056D01*
X373348Y211054D02*
X374348Y212054D01*
X376347D01*
X377347Y211054D01*
Y210055D01*
X376347Y209055D01*
X375347D01*
X376347D01*
X377347Y208055D01*
Y207056D01*
X376347Y206056D01*
X374348D01*
X373348Y207056D01*
X383345Y212054D02*
X379346D01*
Y209055D01*
X381346Y210055D01*
X382345D01*
X383345Y209055D01*
Y207056D01*
X382345Y206056D01*
X380346D01*
X379346Y207056D01*
X385344Y212054D02*
Y206056D01*
X388343D01*
X389343Y207056D01*
Y208055D01*
X388343Y209055D01*
X385344D01*
X388343D01*
X389343Y210055D01*
Y211054D01*
X388343Y212054D01*
X385344D01*
X367350Y335977D02*
Y341975D01*
X370349D01*
X371349Y340976D01*
Y338976D01*
X370349Y337977D01*
X367350D01*
X369349D02*
X371349Y335977D01*
X373348Y340976D02*
X374348Y341975D01*
X376347D01*
X377347Y340976D01*
Y339976D01*
X376347Y338976D01*
X375347D01*
X376347D01*
X377347Y337977D01*
Y336977D01*
X376347Y335977D01*
X374348D01*
X373348Y336977D01*
X383345Y341975D02*
X379346D01*
Y338976D01*
X381346Y339976D01*
X382345D01*
X383345Y338976D01*
Y336977D01*
X382345Y335977D01*
X380346D01*
X379346Y336977D01*
X385344Y335977D02*
Y339976D01*
X387344Y341975D01*
X389343Y339976D01*
Y335977D01*
Y338976D01*
X385344D01*
X390933Y80781D02*
Y86778D01*
X393932D01*
X394931Y85779D01*
Y83780D01*
X393932Y82780D01*
X390933D01*
X392932D02*
X394931Y80781D01*
X396931Y85779D02*
X397930Y86778D01*
X399930D01*
X400929Y85779D01*
Y84779D01*
X399930Y83780D01*
X398930D01*
X399930D01*
X400929Y82780D01*
Y81780D01*
X399930Y80781D01*
X397930D01*
X396931Y81780D01*
X405928Y80781D02*
Y86778D01*
X402929Y83780D01*
X406927D01*
X412926Y85779D02*
X411926Y86778D01*
X409927D01*
X408927Y85779D01*
Y81780D01*
X409927Y80781D01*
X411926D01*
X412926Y81780D01*
X390933Y210702D02*
Y216700D01*
X393932D01*
X394931Y215700D01*
Y213701D01*
X393932Y212701D01*
X390933D01*
X392932D02*
X394931Y210702D01*
X396931Y215700D02*
X397930Y216700D01*
X399930D01*
X400929Y215700D01*
Y214701D01*
X399930Y213701D01*
X398930D01*
X399930D01*
X400929Y212701D01*
Y211701D01*
X399930Y210702D01*
X397930D01*
X396931Y211701D01*
X405928Y210702D02*
Y216700D01*
X402929Y213701D01*
X406927D01*
X408927Y216700D02*
Y210702D01*
X411926D01*
X412926Y211701D01*
Y212701D01*
X411926Y213701D01*
X408927D01*
X411926D01*
X412926Y214701D01*
Y215700D01*
X411926Y216700D01*
X408927D01*
X390933Y340623D02*
Y346621D01*
X393932D01*
X394931Y345621D01*
Y343622D01*
X393932Y342622D01*
X390933D01*
X392932D02*
X394931Y340623D01*
X396931Y345621D02*
X397930Y346621D01*
X399930D01*
X400929Y345621D01*
Y344622D01*
X399930Y343622D01*
X398930D01*
X399930D01*
X400929Y342622D01*
Y341623D01*
X399930Y340623D01*
X397930D01*
X396931Y341623D01*
X405928Y340623D02*
Y346621D01*
X402929Y343622D01*
X406927D01*
X408927Y340623D02*
Y344622D01*
X410926Y346621D01*
X412926Y344622D01*
Y340623D01*
Y343622D01*
X408927D01*
X392114Y13851D02*
Y19849D01*
X395113D01*
X396112Y18850D01*
Y16850D01*
X395113Y15851D01*
X392114D01*
X394113D02*
X396112Y13851D01*
X398112Y18850D02*
X399112Y19849D01*
X401111D01*
X402111Y18850D01*
Y17850D01*
X401111Y16850D01*
X400111D01*
X401111D01*
X402111Y15851D01*
Y14851D01*
X401111Y13851D01*
X399112D01*
X398112Y14851D01*
X404110Y18850D02*
X405110Y19849D01*
X407109D01*
X408109Y18850D01*
Y17850D01*
X407109Y16850D01*
X406109D01*
X407109D01*
X408109Y15851D01*
Y14851D01*
X407109Y13851D01*
X405110D01*
X404110Y14851D01*
X414107Y18850D02*
X413107Y19849D01*
X411108D01*
X410108Y18850D01*
Y14851D01*
X411108Y13851D01*
X413107D01*
X414107Y14851D01*
X392114Y143773D02*
Y149771D01*
X395113D01*
X396112Y148771D01*
Y146772D01*
X395113Y145772D01*
X392114D01*
X394113D02*
X396112Y143773D01*
X398112Y148771D02*
X399112Y149771D01*
X401111D01*
X402111Y148771D01*
Y147771D01*
X401111Y146772D01*
X400111D01*
X401111D01*
X402111Y145772D01*
Y144772D01*
X401111Y143773D01*
X399112D01*
X398112Y144772D01*
X404110Y148771D02*
X405110Y149771D01*
X407109D01*
X408109Y148771D01*
Y147771D01*
X407109Y146772D01*
X406109D01*
X407109D01*
X408109Y145772D01*
Y144772D01*
X407109Y143773D01*
X405110D01*
X404110Y144772D01*
X410108Y149771D02*
Y143773D01*
X413107D01*
X414107Y144772D01*
Y145772D01*
X413107Y146772D01*
X410108D01*
X413107D01*
X414107Y147771D01*
Y148771D01*
X413107Y149771D01*
X410108D01*
X392114Y273694D02*
Y279692D01*
X395113D01*
X396112Y278692D01*
Y276693D01*
X395113Y275693D01*
X392114D01*
X394113D02*
X396112Y273694D01*
X398112Y278692D02*
X399112Y279692D01*
X401111D01*
X402111Y278692D01*
Y277693D01*
X401111Y276693D01*
X400111D01*
X401111D01*
X402111Y275693D01*
Y274694D01*
X401111Y273694D01*
X399112D01*
X398112Y274694D01*
X404110Y278692D02*
X405110Y279692D01*
X407109D01*
X408109Y278692D01*
Y277693D01*
X407109Y276693D01*
X406109D01*
X407109D01*
X408109Y275693D01*
Y274694D01*
X407109Y273694D01*
X405110D01*
X404110Y274694D01*
X410108Y273694D02*
Y277693D01*
X412107Y279692D01*
X414107Y277693D01*
Y273694D01*
Y276693D01*
X410108D01*
X367350Y31253D02*
Y37251D01*
X370349D01*
X371349Y36251D01*
Y34252D01*
X370349Y33252D01*
X367350D01*
X369349D02*
X371349Y31253D01*
X373348Y36251D02*
X374348Y37251D01*
X376347D01*
X377347Y36251D01*
Y35252D01*
X376347Y34252D01*
X375347D01*
X376347D01*
X377347Y33252D01*
Y32253D01*
X376347Y31253D01*
X374348D01*
X373348Y32253D01*
X383345Y31253D02*
X379346D01*
X383345Y35252D01*
Y36251D01*
X382345Y37251D01*
X380346D01*
X379346Y36251D01*
X389343D02*
X388343Y37251D01*
X386344D01*
X385344Y36251D01*
Y32253D01*
X386344Y31253D01*
X388343D01*
X389343Y32253D01*
X367350Y161174D02*
Y167172D01*
X370349D01*
X371349Y166173D01*
Y164173D01*
X370349Y163173D01*
X367350D01*
X369349D02*
X371349Y161174D01*
X373348Y166173D02*
X374348Y167172D01*
X376347D01*
X377347Y166173D01*
Y165173D01*
X376347Y164173D01*
X375347D01*
X376347D01*
X377347Y163173D01*
Y162174D01*
X376347Y161174D01*
X374348D01*
X373348Y162174D01*
X383345Y161174D02*
X379346D01*
X383345Y165173D01*
Y166173D01*
X382345Y167172D01*
X380346D01*
X379346Y166173D01*
X385344Y167172D02*
Y161174D01*
X388343D01*
X389343Y162174D01*
Y163173D01*
X388343Y164173D01*
X385344D01*
X388343D01*
X389343Y165173D01*
Y166173D01*
X388343Y167172D01*
X385344D01*
X367350Y291095D02*
Y297094D01*
X370349D01*
X371349Y296094D01*
Y294094D01*
X370349Y293095D01*
X367350D01*
X369349D02*
X371349Y291095D01*
X373348Y296094D02*
X374348Y297094D01*
X376347D01*
X377347Y296094D01*
Y295094D01*
X376347Y294094D01*
X375347D01*
X376347D01*
X377347Y293095D01*
Y292095D01*
X376347Y291095D01*
X374348D01*
X373348Y292095D01*
X383345Y291095D02*
X379346D01*
X383345Y295094D01*
Y296094D01*
X382345Y297094D01*
X380346D01*
X379346Y296094D01*
X385344Y291095D02*
Y295094D01*
X387344Y297094D01*
X389343Y295094D01*
Y291095D01*
Y294094D01*
X385344D01*
X367850Y68261D02*
Y74259D01*
X370849D01*
X371849Y73259D01*
Y71260D01*
X370849Y70260D01*
X367850D01*
X369849D02*
X371849Y68261D01*
X373848Y73259D02*
X374848Y74259D01*
X376847D01*
X377847Y73259D01*
Y72259D01*
X376847Y71260D01*
X375847D01*
X376847D01*
X377847Y70260D01*
Y69261D01*
X376847Y68261D01*
X374848D01*
X373848Y69261D01*
X379846Y68261D02*
X381845D01*
X380846D01*
Y74259D01*
X379846Y73259D01*
X388843D02*
X387843Y74259D01*
X385844D01*
X384844Y73259D01*
Y69261D01*
X385844Y68261D01*
X387843D01*
X388843Y69261D01*
X367850Y198182D02*
Y204180D01*
X370849D01*
X371849Y203180D01*
Y201181D01*
X370849Y200181D01*
X367850D01*
X369849D02*
X371849Y198182D01*
X373848Y203180D02*
X374848Y204180D01*
X376847D01*
X377847Y203180D01*
Y202181D01*
X376847Y201181D01*
X375847D01*
X376847D01*
X377847Y200181D01*
Y199182D01*
X376847Y198182D01*
X374848D01*
X373848Y199182D01*
X379846Y198182D02*
X381845D01*
X380846D01*
Y204180D01*
X379846Y203180D01*
X384844Y204180D02*
Y198182D01*
X387843D01*
X388843Y199182D01*
Y200181D01*
X387843Y201181D01*
X384844D01*
X387843D01*
X388843Y202181D01*
Y203180D01*
X387843Y204180D01*
X384844D01*
X367850Y328103D02*
Y334101D01*
X370849D01*
X371849Y333102D01*
Y331102D01*
X370849Y330103D01*
X367850D01*
X369849D02*
X371849Y328103D01*
X373848Y333102D02*
X374848Y334101D01*
X376847D01*
X377847Y333102D01*
Y332102D01*
X376847Y331102D01*
X375847D01*
X376847D01*
X377847Y330103D01*
Y329103D01*
X376847Y328103D01*
X374848D01*
X373848Y329103D01*
X379846Y328103D02*
X381845D01*
X380846D01*
Y334101D01*
X379846Y333102D01*
X384844Y328103D02*
Y332102D01*
X386844Y334101D01*
X388843Y332102D01*
Y328103D01*
Y331102D01*
X384844D01*
X417704Y80781D02*
Y86778D01*
X420703D01*
X421703Y85779D01*
Y83780D01*
X420703Y82780D01*
X417704D01*
X419704D02*
X421703Y80781D01*
X423702Y85779D02*
X424702Y86778D01*
X426701D01*
X427701Y85779D01*
Y84779D01*
X426701Y83780D01*
X425702D01*
X426701D01*
X427701Y82780D01*
Y81780D01*
X426701Y80781D01*
X424702D01*
X423702Y81780D01*
X429701Y85779D02*
X430700Y86778D01*
X432699D01*
X433699Y85779D01*
Y81780D01*
X432699Y80781D01*
X430700D01*
X429701Y81780D01*
Y85779D01*
X439697D02*
X438697Y86778D01*
X436698D01*
X435699Y85779D01*
Y81780D01*
X436698Y80781D01*
X438697D01*
X439697Y81780D01*
X417704Y210702D02*
Y216700D01*
X420703D01*
X421703Y215700D01*
Y213701D01*
X420703Y212701D01*
X417704D01*
X419704D02*
X421703Y210702D01*
X423702Y215700D02*
X424702Y216700D01*
X426701D01*
X427701Y215700D01*
Y214701D01*
X426701Y213701D01*
X425702D01*
X426701D01*
X427701Y212701D01*
Y211701D01*
X426701Y210702D01*
X424702D01*
X423702Y211701D01*
X429701Y215700D02*
X430700Y216700D01*
X432699D01*
X433699Y215700D01*
Y211701D01*
X432699Y210702D01*
X430700D01*
X429701Y211701D01*
Y215700D01*
X435699Y216700D02*
Y210702D01*
X438697D01*
X439697Y211701D01*
Y212701D01*
X438697Y213701D01*
X435699D01*
X438697D01*
X439697Y214701D01*
Y215700D01*
X438697Y216700D01*
X435699D01*
X417704Y340623D02*
Y346621D01*
X420703D01*
X421703Y345621D01*
Y343622D01*
X420703Y342622D01*
X417704D01*
X419704D02*
X421703Y340623D01*
X423702Y345621D02*
X424702Y346621D01*
X426701D01*
X427701Y345621D01*
Y344622D01*
X426701Y343622D01*
X425702D01*
X426701D01*
X427701Y342622D01*
Y341623D01*
X426701Y340623D01*
X424702D01*
X423702Y341623D01*
X429701Y345621D02*
X430700Y346621D01*
X432699D01*
X433699Y345621D01*
Y341623D01*
X432699Y340623D01*
X430700D01*
X429701Y341623D01*
Y345621D01*
X435699Y340623D02*
Y344622D01*
X437698Y346621D01*
X439697Y344622D01*
Y340623D01*
Y343622D01*
X435699D01*
X324043Y67473D02*
Y73471D01*
X327042D01*
X328042Y72472D01*
Y70472D01*
X327042Y69473D01*
X324043D01*
X326042D02*
X328042Y67473D01*
X334040D02*
X330041D01*
X334040Y71472D01*
Y72472D01*
X333040Y73471D01*
X331041D01*
X330041Y72472D01*
X336039Y68473D02*
X337039Y67473D01*
X339038D01*
X340038Y68473D01*
Y72472D01*
X339038Y73471D01*
X337039D01*
X336039Y72472D01*
Y71472D01*
X337039Y70472D01*
X340038D01*
X346036Y72472D02*
X345036Y73471D01*
X343037D01*
X342037Y72472D01*
Y68473D01*
X343037Y67473D01*
X345036D01*
X346036Y68473D01*
X324043Y197395D02*
Y203393D01*
X327042D01*
X328042Y202393D01*
Y200394D01*
X327042Y199394D01*
X324043D01*
X326042D02*
X328042Y197395D01*
X334040D02*
X330041D01*
X334040Y201393D01*
Y202393D01*
X333040Y203393D01*
X331041D01*
X330041Y202393D01*
X336039Y198394D02*
X337039Y197395D01*
X339038D01*
X340038Y198394D01*
Y202393D01*
X339038Y203393D01*
X337039D01*
X336039Y202393D01*
Y201393D01*
X337039Y200394D01*
X340038D01*
X342037Y203393D02*
Y197395D01*
X345036D01*
X346036Y198394D01*
Y199394D01*
X345036Y200394D01*
X342037D01*
X345036D01*
X346036Y201393D01*
Y202393D01*
X345036Y203393D01*
X342037D01*
X324043Y327316D02*
Y333314D01*
X327042D01*
X328042Y332314D01*
Y330315D01*
X327042Y329315D01*
X324043D01*
X326042D02*
X328042Y327316D01*
X334040D02*
X330041D01*
X334040Y331315D01*
Y332314D01*
X333040Y333314D01*
X331041D01*
X330041Y332314D01*
X336039Y328316D02*
X337039Y327316D01*
X339038D01*
X340038Y328316D01*
Y332314D01*
X339038Y333314D01*
X337039D01*
X336039Y332314D01*
Y331315D01*
X337039Y330315D01*
X340038D01*
X342037Y327316D02*
Y331315D01*
X344037Y333314D01*
X346036Y331315D01*
Y327316D01*
Y330315D01*
X342037D01*
X319712Y15505D02*
Y21503D01*
X322711D01*
X323711Y20503D01*
Y18504D01*
X322711Y17504D01*
X319712D01*
X321712D02*
X323711Y15505D01*
X329709D02*
X325710D01*
X329709Y19504D01*
Y20503D01*
X328709Y21503D01*
X326710D01*
X325710Y20503D01*
X331708D02*
X332708Y21503D01*
X334707D01*
X335707Y20503D01*
Y19504D01*
X334707Y18504D01*
X335707Y17504D01*
Y16505D01*
X334707Y15505D01*
X332708D01*
X331708Y16505D01*
Y17504D01*
X332708Y18504D01*
X331708Y19504D01*
Y20503D01*
X332708Y18504D02*
X334707D01*
X341705Y20503D02*
X340705Y21503D01*
X338706D01*
X337706Y20503D01*
Y16505D01*
X338706Y15505D01*
X340705D01*
X341705Y16505D01*
X319712Y145426D02*
Y151424D01*
X322711D01*
X323711Y150425D01*
Y148425D01*
X322711Y147425D01*
X319712D01*
X321712D02*
X323711Y145426D01*
X329709D02*
X325710D01*
X329709Y149425D01*
Y150425D01*
X328709Y151424D01*
X326710D01*
X325710Y150425D01*
X331708D02*
X332708Y151424D01*
X334707D01*
X335707Y150425D01*
Y149425D01*
X334707Y148425D01*
X335707Y147425D01*
Y146426D01*
X334707Y145426D01*
X332708D01*
X331708Y146426D01*
Y147425D01*
X332708Y148425D01*
X331708Y149425D01*
Y150425D01*
X332708Y148425D02*
X334707D01*
X337706Y151424D02*
Y145426D01*
X340705D01*
X341705Y146426D01*
Y147425D01*
X340705Y148425D01*
X337706D01*
X340705D01*
X341705Y149425D01*
Y150425D01*
X340705Y151424D01*
X337706D01*
X319712Y275347D02*
Y281346D01*
X322711D01*
X323711Y280346D01*
Y278346D01*
X322711Y277347D01*
X319712D01*
X321712D02*
X323711Y275347D01*
X329709D02*
X325710D01*
X329709Y279346D01*
Y280346D01*
X328709Y281346D01*
X326710D01*
X325710Y280346D01*
X331708D02*
X332708Y281346D01*
X334707D01*
X335707Y280346D01*
Y279346D01*
X334707Y278346D01*
X335707Y277347D01*
Y276347D01*
X334707Y275347D01*
X332708D01*
X331708Y276347D01*
Y277347D01*
X332708Y278346D01*
X331708Y279346D01*
Y280346D01*
X332708Y278346D02*
X334707D01*
X337706Y275347D02*
Y279346D01*
X339706Y281346D01*
X341705Y279346D01*
Y275347D01*
Y278346D01*
X337706D01*
X298846Y81647D02*
Y87645D01*
X301845D01*
X302845Y86645D01*
Y84646D01*
X301845Y83646D01*
X298846D01*
X300845D02*
X302845Y81647D01*
X308843D02*
X304844D01*
X308843Y85645D01*
Y86645D01*
X307843Y87645D01*
X305844D01*
X304844Y86645D01*
X310842Y87645D02*
X314841D01*
Y86645D01*
X310842Y82646D01*
Y81647D01*
X320839Y86645D02*
X319839Y87645D01*
X317840D01*
X316840Y86645D01*
Y82646D01*
X317840Y81647D01*
X319839D01*
X320839Y82646D01*
X298846Y211568D02*
Y217566D01*
X301845D01*
X302845Y216566D01*
Y214567D01*
X301845Y213567D01*
X298846D01*
X300845D02*
X302845Y211568D01*
X308843D02*
X304844D01*
X308843Y215567D01*
Y216566D01*
X307843Y217566D01*
X305844D01*
X304844Y216566D01*
X310842Y217566D02*
X314841D01*
Y216566D01*
X310842Y212568D01*
Y211568D01*
X316840Y217566D02*
Y211568D01*
X319839D01*
X320839Y212568D01*
Y213567D01*
X319839Y214567D01*
X316840D01*
X319839D01*
X320839Y215567D01*
Y216566D01*
X319839Y217566D01*
X316840D01*
X298846Y341489D02*
Y347487D01*
X301845D01*
X302845Y346487D01*
Y344488D01*
X301845Y343489D01*
X298846D01*
X300845D02*
X302845Y341489D01*
X308843D02*
X304844D01*
X308843Y345488D01*
Y346487D01*
X307843Y347487D01*
X305844D01*
X304844Y346487D01*
X310842Y347487D02*
X314841D01*
Y346487D01*
X310842Y342489D01*
Y341489D01*
X316840D02*
Y345488D01*
X318840Y347487D01*
X320839Y345488D01*
Y341489D01*
Y344488D01*
X316840D01*
X310086Y42941D02*
X304088D01*
Y45940D01*
X305087Y46939D01*
X307087D01*
X308086Y45940D01*
Y42941D01*
Y44940D02*
X310086Y46939D01*
Y52937D02*
Y48939D01*
X306087Y52937D01*
X305087D01*
X304088Y51938D01*
Y49938D01*
X305087Y48939D01*
X304088Y58935D02*
X305087Y56936D01*
X307087Y54937D01*
X309086D01*
X310086Y55936D01*
Y57936D01*
X309086Y58935D01*
X308086D01*
X307087Y57936D01*
Y54937D01*
X305087Y64934D02*
X304088Y63934D01*
Y61934D01*
X305087Y60935D01*
X309086D01*
X310086Y61934D01*
Y63934D01*
X309086Y64934D01*
X310086Y172862D02*
X304088D01*
Y175861D01*
X305087Y176860D01*
X307087D01*
X308086Y175861D01*
Y172862D01*
Y174861D02*
X310086Y176860D01*
Y182859D02*
Y178860D01*
X306087Y182859D01*
X305087D01*
X304088Y181859D01*
Y179859D01*
X305087Y178860D01*
X304088Y188857D02*
X305087Y186857D01*
X307087Y184858D01*
X309086D01*
X310086Y185858D01*
Y187857D01*
X309086Y188857D01*
X308086D01*
X307087Y187857D01*
Y184858D01*
X304088Y190856D02*
X310086D01*
Y193855D01*
X309086Y194855D01*
X308086D01*
X307087Y193855D01*
Y190856D01*
Y193855D01*
X306087Y194855D01*
X305087D01*
X304088Y193855D01*
Y190856D01*
X310086Y302783D02*
X304088D01*
Y305782D01*
X305087Y306782D01*
X307087D01*
X308086Y305782D01*
Y302783D01*
Y304782D02*
X310086Y306782D01*
Y312780D02*
Y308781D01*
X306087Y312780D01*
X305087D01*
X304088Y311780D01*
Y309781D01*
X305087Y308781D01*
X304088Y318778D02*
X305087Y316778D01*
X307087Y314779D01*
X309086D01*
X310086Y315779D01*
Y317778D01*
X309086Y318778D01*
X308086D01*
X307087Y317778D01*
Y314779D01*
X310086Y320777D02*
X306087D01*
X304088Y322777D01*
X306087Y324776D01*
X310086D01*
X307087D01*
Y320777D01*
X268826Y23379D02*
Y29377D01*
X271825D01*
X272825Y28377D01*
Y26378D01*
X271825Y25378D01*
X268826D01*
X270826D02*
X272825Y23379D01*
X278823D02*
X274825D01*
X278823Y27378D01*
Y28377D01*
X277823Y29377D01*
X275824D01*
X274825Y28377D01*
X284821Y29377D02*
X280822D01*
Y26378D01*
X282822Y27378D01*
X283822D01*
X284821Y26378D01*
Y24379D01*
X283822Y23379D01*
X281822D01*
X280822Y24379D01*
X290819Y28377D02*
X289820Y29377D01*
X287820D01*
X286821Y28377D01*
Y24379D01*
X287820Y23379D01*
X289820D01*
X290819Y24379D01*
X268826Y153300D02*
Y159298D01*
X271825D01*
X272825Y158299D01*
Y156299D01*
X271825Y155299D01*
X268826D01*
X270826D02*
X272825Y153300D01*
X278823D02*
X274825D01*
X278823Y157299D01*
Y158299D01*
X277823Y159298D01*
X275824D01*
X274825Y158299D01*
X284821Y159298D02*
X280822D01*
Y156299D01*
X282822Y157299D01*
X283822D01*
X284821Y156299D01*
Y154300D01*
X283822Y153300D01*
X281822D01*
X280822Y154300D01*
X286821Y159298D02*
Y153300D01*
X289820D01*
X290819Y154300D01*
Y155299D01*
X289820Y156299D01*
X286821D01*
X289820D01*
X290819Y157299D01*
Y158299D01*
X289820Y159298D01*
X286821D01*
X268826Y283221D02*
Y289219D01*
X271825D01*
X272825Y288220D01*
Y286221D01*
X271825Y285221D01*
X268826D01*
X270826D02*
X272825Y283221D01*
X278823D02*
X274825D01*
X278823Y287220D01*
Y288220D01*
X277823Y289219D01*
X275824D01*
X274825Y288220D01*
X284821Y289219D02*
X280822D01*
Y286221D01*
X282822Y287220D01*
X283822D01*
X284821Y286221D01*
Y284221D01*
X283822Y283221D01*
X281822D01*
X280822Y284221D01*
X286821Y283221D02*
Y287220D01*
X288820Y289219D01*
X290819Y287220D01*
Y283221D01*
Y286221D01*
X286821D01*
X268531Y31253D02*
Y37251D01*
X271530D01*
X272530Y36251D01*
Y34252D01*
X271530Y33252D01*
X268531D01*
X270531D02*
X272530Y31253D01*
X278528D02*
X274529D01*
X278528Y35252D01*
Y36251D01*
X277528Y37251D01*
X275529D01*
X274529Y36251D01*
X283526Y31253D02*
Y37251D01*
X280527Y34252D01*
X284526D01*
X290524Y36251D02*
X289524Y37251D01*
X287525D01*
X286525Y36251D01*
Y32253D01*
X287525Y31253D01*
X289524D01*
X290524Y32253D01*
X268531Y161174D02*
Y167172D01*
X271530D01*
X272530Y166173D01*
Y164173D01*
X271530Y163174D01*
X268531D01*
X270531D02*
X272530Y161174D01*
X278528D02*
X274529D01*
X278528Y165173D01*
Y166173D01*
X277528Y167172D01*
X275529D01*
X274529Y166173D01*
X283526Y161174D02*
Y167172D01*
X280527Y164173D01*
X284526D01*
X286525Y167172D02*
Y161174D01*
X289524D01*
X290524Y162174D01*
Y163174D01*
X289524Y164173D01*
X286525D01*
X289524D01*
X290524Y165173D01*
Y166173D01*
X289524Y167172D01*
X286525D01*
X268531Y291095D02*
Y297094D01*
X271530D01*
X272530Y296094D01*
Y294094D01*
X271530Y293095D01*
X268531D01*
X270531D02*
X272530Y291095D01*
X278528D02*
X274529D01*
X278528Y295094D01*
Y296094D01*
X277528Y297094D01*
X275529D01*
X274529Y296094D01*
X283526Y291095D02*
Y297094D01*
X280527Y294094D01*
X284526D01*
X286525Y291095D02*
Y295094D01*
X288525Y297094D01*
X290524Y295094D01*
Y291095D01*
Y294094D01*
X286525D01*
X206542Y54070D02*
X200544D01*
Y57069D01*
X201544Y58069D01*
X203543D01*
X204543Y57069D01*
Y54070D01*
Y56070D02*
X206542Y58069D01*
Y64067D02*
Y60068D01*
X202544Y64067D01*
X201544D01*
X200544Y63067D01*
Y61068D01*
X201544Y60068D01*
X206542Y66066D02*
Y68066D01*
Y67066D01*
X200544D01*
X201544Y66066D01*
Y75064D02*
X200544Y74064D01*
Y72065D01*
X201544Y71065D01*
X205543D01*
X206542Y72065D01*
Y74064D01*
X205543Y75064D01*
X206542Y183992D02*
X200544D01*
Y186991D01*
X201544Y187990D01*
X203543D01*
X204543Y186991D01*
Y183992D01*
Y185991D02*
X206542Y187990D01*
Y193988D02*
Y189990D01*
X202544Y193988D01*
X201544D01*
X200544Y192989D01*
Y190989D01*
X201544Y189990D01*
X206542Y195988D02*
Y197987D01*
Y196987D01*
X200544D01*
X201544Y195988D01*
X200544Y200986D02*
X206542D01*
Y203985D01*
X205543Y204985D01*
X204543D01*
X203543Y203985D01*
Y200986D01*
Y203985D01*
X202544Y204985D01*
X201544D01*
X200544Y203985D01*
Y200986D01*
X206542Y313913D02*
X200544D01*
Y316912D01*
X201544Y317912D01*
X203543D01*
X204543Y316912D01*
Y313913D01*
Y315912D02*
X206542Y317912D01*
Y323910D02*
Y319911D01*
X202544Y323910D01*
X201544D01*
X200544Y322910D01*
Y320911D01*
X201544Y319911D01*
X206542Y325909D02*
Y327908D01*
Y326909D01*
X200544D01*
X201544Y325909D01*
X206542Y330907D02*
X202544D01*
X200544Y332907D01*
X202544Y334906D01*
X206542D01*
X203543D01*
Y330907D01*
X213629Y92153D02*
X207631D01*
Y95152D01*
X208631Y96152D01*
X210630D01*
X211630Y95152D01*
Y92153D01*
Y94152D02*
X213629Y96152D01*
Y102150D02*
Y98151D01*
X209630Y102150D01*
X208631D01*
X207631Y101150D01*
Y99151D01*
X208631Y98151D01*
Y104149D02*
X207631Y105149D01*
Y107148D01*
X208631Y108148D01*
X212629D01*
X213629Y107148D01*
Y105149D01*
X212629Y104149D01*
X208631D01*
Y114146D02*
X207631Y113146D01*
Y111147D01*
X208631Y110147D01*
X212629D01*
X213629Y111147D01*
Y113146D01*
X212629Y114146D01*
X213629Y222074D02*
X207631D01*
Y225074D01*
X208631Y226073D01*
X210630D01*
X211630Y225074D01*
Y222074D01*
Y224074D02*
X213629Y226073D01*
Y232071D02*
Y228073D01*
X209630Y232071D01*
X208631D01*
X207631Y231071D01*
Y229072D01*
X208631Y228073D01*
Y234070D02*
X207631Y235070D01*
Y237070D01*
X208631Y238069D01*
X212629D01*
X213629Y237070D01*
Y235070D01*
X212629Y234070D01*
X208631D01*
X207631Y240069D02*
X213629D01*
Y243068D01*
X212629Y244067D01*
X211630D01*
X210630Y243068D01*
Y240069D01*
Y243068D01*
X209630Y244067D01*
X208631D01*
X207631Y243068D01*
Y240069D01*
X213629Y351996D02*
X207631D01*
Y354995D01*
X208631Y355994D01*
X210630D01*
X211630Y354995D01*
Y351996D01*
Y353995D02*
X213629Y355994D01*
Y361993D02*
Y357994D01*
X209630Y361993D01*
X208631D01*
X207631Y360993D01*
Y358993D01*
X208631Y357994D01*
Y363992D02*
X207631Y364991D01*
Y366991D01*
X208631Y367990D01*
X212629D01*
X213629Y366991D01*
Y364991D01*
X212629Y363992D01*
X208631D01*
X213629Y369990D02*
X209630D01*
X207631Y371989D01*
X209630Y373989D01*
X213629D01*
X210630D01*
Y369990D01*
X206149Y92653D02*
X200151D01*
Y95652D01*
X201150Y96652D01*
X203150D01*
X204149Y95652D01*
Y92653D01*
Y94652D02*
X206149Y96652D01*
Y98651D02*
Y100650D01*
Y99651D01*
X200151D01*
X201150Y98651D01*
X205149Y103649D02*
X206149Y104649D01*
Y106649D01*
X205149Y107648D01*
X201150D01*
X200151Y106649D01*
Y104649D01*
X201150Y103649D01*
X202150D01*
X203150Y104649D01*
Y107648D01*
X201150Y113646D02*
X200151Y112646D01*
Y110647D01*
X201150Y109648D01*
X205149D01*
X206149Y110647D01*
Y112646D01*
X205149Y113646D01*
X206149Y222574D02*
X200151D01*
Y225573D01*
X201150Y226573D01*
X203150D01*
X204149Y225573D01*
Y222574D01*
Y224574D02*
X206149Y226573D01*
Y228572D02*
Y230572D01*
Y229572D01*
X200151D01*
X201150Y228572D01*
X205149Y233571D02*
X206149Y234570D01*
Y236570D01*
X205149Y237569D01*
X201150D01*
X200151Y236570D01*
Y234570D01*
X201150Y233571D01*
X202150D01*
X203150Y234570D01*
Y237569D01*
X200151Y239569D02*
X206149D01*
Y242568D01*
X205149Y243567D01*
X204149D01*
X203150Y242568D01*
Y239569D01*
Y242568D01*
X202150Y243567D01*
X201150D01*
X200151Y242568D01*
Y239569D01*
X206149Y352496D02*
X200151D01*
Y355494D01*
X201150Y356494D01*
X203150D01*
X204149Y355494D01*
Y352496D01*
Y354495D02*
X206149Y356494D01*
Y358494D02*
Y360493D01*
Y359493D01*
X200151D01*
X201150Y358494D01*
X205149Y363492D02*
X206149Y364492D01*
Y366491D01*
X205149Y367491D01*
X201150D01*
X200151Y366491D01*
Y364492D01*
X201150Y363492D01*
X202150D01*
X203150Y364492D01*
Y367491D01*
X206149Y369490D02*
X202150D01*
X200151Y371489D01*
X202150Y373489D01*
X206149D01*
X203150D01*
Y369490D01*
X190794Y92653D02*
X184796D01*
Y95652D01*
X185796Y96652D01*
X187795D01*
X188795Y95652D01*
Y92653D01*
Y94652D02*
X190794Y96652D01*
Y98651D02*
Y100650D01*
Y99651D01*
X184796D01*
X185796Y98651D01*
Y103649D02*
X184796Y104649D01*
Y106649D01*
X185796Y107648D01*
X186796D01*
X187795Y106649D01*
X188795Y107648D01*
X189795D01*
X190794Y106649D01*
Y104649D01*
X189795Y103649D01*
X188795D01*
X187795Y104649D01*
X186796Y103649D01*
X185796D01*
X187795Y104649D02*
Y106649D01*
X185796Y113646D02*
X184796Y112646D01*
Y110647D01*
X185796Y109648D01*
X189795D01*
X190794Y110647D01*
Y112646D01*
X189795Y113646D01*
X190794Y222574D02*
X184796D01*
Y225573D01*
X185796Y226573D01*
X187795D01*
X188795Y225573D01*
Y222574D01*
Y224574D02*
X190794Y226573D01*
Y228572D02*
Y230572D01*
Y229572D01*
X184796D01*
X185796Y228572D01*
Y233571D02*
X184796Y234570D01*
Y236570D01*
X185796Y237569D01*
X186796D01*
X187795Y236570D01*
X188795Y237569D01*
X189795D01*
X190794Y236570D01*
Y234570D01*
X189795Y233571D01*
X188795D01*
X187795Y234570D01*
X186796Y233571D01*
X185796D01*
X187795Y234570D02*
Y236570D01*
X184796Y239569D02*
X190794D01*
Y242568D01*
X189795Y243567D01*
X188795D01*
X187795Y242568D01*
Y239569D01*
Y242568D01*
X186796Y243567D01*
X185796D01*
X184796Y242568D01*
Y239569D01*
X190794Y352496D02*
X184796D01*
Y355495D01*
X185796Y356494D01*
X187795D01*
X188795Y355495D01*
Y352496D01*
Y354495D02*
X190794Y356494D01*
Y358494D02*
Y360493D01*
Y359493D01*
X184796D01*
X185796Y358494D01*
Y363492D02*
X184796Y364492D01*
Y366491D01*
X185796Y367491D01*
X186796D01*
X187795Y366491D01*
X188795Y367491D01*
X189795D01*
X190794Y366491D01*
Y364492D01*
X189795Y363492D01*
X188795D01*
X187795Y364492D01*
X186796Y363492D01*
X185796D01*
X187795Y364492D02*
Y366491D01*
X190794Y369490D02*
X186796D01*
X184796Y371489D01*
X186796Y373489D01*
X190794D01*
X187795D01*
Y369490D01*
X198668Y92653D02*
X192670D01*
Y95652D01*
X193670Y96652D01*
X195669D01*
X196669Y95652D01*
Y92653D01*
Y94652D02*
X198668Y96652D01*
Y98651D02*
Y100650D01*
Y99651D01*
X192670D01*
X193670Y98651D01*
X192670Y103649D02*
Y107648D01*
X193670D01*
X197669Y103649D01*
X198668D01*
X193670Y113646D02*
X192670Y112646D01*
Y110647D01*
X193670Y109648D01*
X197669D01*
X198668Y110647D01*
Y112646D01*
X197669Y113646D01*
X198668Y222574D02*
X192670D01*
Y225573D01*
X193670Y226573D01*
X195669D01*
X196669Y225573D01*
Y222574D01*
Y224574D02*
X198668Y226573D01*
Y228572D02*
Y230572D01*
Y229572D01*
X192670D01*
X193670Y228572D01*
X192670Y233571D02*
Y237569D01*
X193670D01*
X197669Y233571D01*
X198668D01*
X192670Y239569D02*
X198668D01*
Y242568D01*
X197669Y243567D01*
X196669D01*
X195669Y242568D01*
Y239569D01*
Y242568D01*
X194670Y243567D01*
X193670D01*
X192670Y242568D01*
Y239569D01*
X198668Y352496D02*
X192670D01*
Y355495D01*
X193670Y356494D01*
X195669D01*
X196669Y355495D01*
Y352496D01*
Y354495D02*
X198668Y356494D01*
Y358494D02*
Y360493D01*
Y359493D01*
X192670D01*
X193670Y358494D01*
X192670Y363492D02*
Y367491D01*
X193670D01*
X197669Y363492D01*
X198668D01*
Y369490D02*
X194670D01*
X192670Y371489D01*
X194670Y373489D01*
X198668D01*
X195669D01*
Y369490D01*
X130448Y80072D02*
Y86070D01*
X133447D01*
X134447Y85070D01*
Y83071D01*
X133447Y82071D01*
X130448D01*
X132448D02*
X134447Y80072D01*
X136446D02*
X138446D01*
X137446D01*
Y86070D01*
X136446Y85070D01*
X145443Y86070D02*
X143444Y85070D01*
X141445Y83071D01*
Y81072D01*
X142444Y80072D01*
X144444D01*
X145443Y81072D01*
Y82071D01*
X144444Y83071D01*
X141445D01*
X151442Y85070D02*
X150442Y86070D01*
X148442D01*
X147443Y85070D01*
Y81072D01*
X148442Y80072D01*
X150442D01*
X151442Y81072D01*
X130448Y209993D02*
Y215991D01*
X133447D01*
X134447Y214991D01*
Y212992D01*
X133447Y211993D01*
X130448D01*
X132448D02*
X134447Y209993D01*
X136446D02*
X138446D01*
X137446D01*
Y215991D01*
X136446Y214991D01*
X145443Y215991D02*
X143444Y214991D01*
X141445Y212992D01*
Y210993D01*
X142444Y209993D01*
X144444D01*
X145443Y210993D01*
Y211993D01*
X144444Y212992D01*
X141445D01*
X147443Y215991D02*
Y209993D01*
X150442D01*
X151442Y210993D01*
Y211993D01*
X150442Y212992D01*
X147443D01*
X150442D01*
X151442Y213992D01*
Y214991D01*
X150442Y215991D01*
X147443D01*
X130448Y339914D02*
Y345912D01*
X133447D01*
X134447Y344913D01*
Y342913D01*
X133447Y341914D01*
X130448D01*
X132448D02*
X134447Y339914D01*
X136446D02*
X138446D01*
X137446D01*
Y345912D01*
X136446Y344913D01*
X145443Y345912D02*
X143444Y344913D01*
X141445Y342913D01*
Y340914D01*
X142444Y339914D01*
X144444D01*
X145443Y340914D01*
Y341914D01*
X144444Y342913D01*
X141445D01*
X147443Y339914D02*
Y343913D01*
X149442Y345912D01*
X151442Y343913D01*
Y339914D01*
Y342913D01*
X147443D01*
X130448Y72592D02*
Y78590D01*
X133447D01*
X134447Y77590D01*
Y75590D01*
X133447Y74591D01*
X130448D01*
X132448D02*
X134447Y72592D01*
X136446D02*
X138446D01*
X137446D01*
Y78590D01*
X136446Y77590D01*
X145443Y78590D02*
X141445D01*
Y75590D01*
X143444Y76590D01*
X144444D01*
X145443Y75590D01*
Y73591D01*
X144444Y72592D01*
X142444D01*
X141445Y73591D01*
X151442Y77590D02*
X150442Y78590D01*
X148442D01*
X147443Y77590D01*
Y73591D01*
X148442Y72592D01*
X150442D01*
X151442Y73591D01*
X130448Y202513D02*
Y208511D01*
X133447D01*
X134447Y207511D01*
Y205512D01*
X133447Y204512D01*
X130448D01*
X132448D02*
X134447Y202513D01*
X136446D02*
X138446D01*
X137446D01*
Y208511D01*
X136446Y207511D01*
X145443Y208511D02*
X141445D01*
Y205512D01*
X143444Y206511D01*
X144444D01*
X145443Y205512D01*
Y203513D01*
X144444Y202513D01*
X142444D01*
X141445Y203513D01*
X147443Y208511D02*
Y202513D01*
X150442D01*
X151442Y203513D01*
Y204512D01*
X150442Y205512D01*
X147443D01*
X150442D01*
X151442Y206511D01*
Y207511D01*
X150442Y208511D01*
X147443D01*
X130448Y332434D02*
Y338432D01*
X133447D01*
X134447Y337432D01*
Y335433D01*
X133447Y334433D01*
X130448D01*
X132448D02*
X134447Y332434D01*
X136446D02*
X138446D01*
X137446D01*
Y338432D01*
X136446Y337432D01*
X145443Y338432D02*
X141445D01*
Y335433D01*
X143444Y336433D01*
X144444D01*
X145443Y335433D01*
Y333434D01*
X144444Y332434D01*
X142444D01*
X141445Y333434D01*
X147443Y332434D02*
Y336433D01*
X149442Y338432D01*
X151442Y336433D01*
Y332434D01*
Y335433D01*
X147443D01*
X122574Y25741D02*
Y31739D01*
X125573D01*
X126573Y30740D01*
Y28740D01*
X125573Y27740D01*
X122574D01*
X124574D02*
X126573Y25741D01*
X128572D02*
X130572D01*
X129572D01*
Y31739D01*
X128572Y30740D01*
X136570Y25741D02*
Y31739D01*
X133571Y28740D01*
X137569D01*
X143568Y30740D02*
X142568Y31739D01*
X140568D01*
X139569Y30740D01*
Y26741D01*
X140568Y25741D01*
X142568D01*
X143568Y26741D01*
X122574Y155662D02*
Y161660D01*
X125573D01*
X126573Y160661D01*
Y158661D01*
X125573Y157662D01*
X122574D01*
X124574D02*
X126573Y155662D01*
X128572D02*
X130572D01*
X129572D01*
Y161660D01*
X128572Y160661D01*
X136570Y155662D02*
Y161660D01*
X133571Y158661D01*
X137569D01*
X139569Y161660D02*
Y155662D01*
X142568D01*
X143568Y156662D01*
Y157662D01*
X142568Y158661D01*
X139569D01*
X142568D01*
X143568Y159661D01*
Y160661D01*
X142568Y161660D01*
X139569D01*
X122574Y285584D02*
Y291582D01*
X125573D01*
X126573Y290582D01*
Y288583D01*
X125573Y287583D01*
X122574D01*
X124574D02*
X126573Y285584D01*
X128572D02*
X130572D01*
X129572D01*
Y291582D01*
X128572Y290582D01*
X136570Y285584D02*
Y291582D01*
X133571Y288583D01*
X137569D01*
X139569Y285584D02*
Y289582D01*
X141568Y291582D01*
X143568Y289582D01*
Y285584D01*
Y288583D01*
X139569D01*
X82417Y80072D02*
Y86070D01*
X85416D01*
X86415Y85070D01*
Y83071D01*
X85416Y82071D01*
X82417D01*
X84416D02*
X86415Y80072D01*
X88415D02*
X90414D01*
X89415D01*
Y86070D01*
X88415Y85070D01*
X93413D02*
X94413Y86070D01*
X96412D01*
X97412Y85070D01*
Y84071D01*
X96412Y83071D01*
X95413D01*
X96412D01*
X97412Y82071D01*
Y81072D01*
X96412Y80072D01*
X94413D01*
X93413Y81072D01*
X103410Y85070D02*
X102410Y86070D01*
X100411D01*
X99411Y85070D01*
Y81072D01*
X100411Y80072D01*
X102410D01*
X103410Y81072D01*
X82417Y209993D02*
Y215991D01*
X85416D01*
X86415Y214991D01*
Y212992D01*
X85416Y211993D01*
X82417D01*
X84416D02*
X86415Y209993D01*
X88415D02*
X90414D01*
X89415D01*
Y215991D01*
X88415Y214991D01*
X93413D02*
X94413Y215991D01*
X96412D01*
X97412Y214991D01*
Y213992D01*
X96412Y212992D01*
X95413D01*
X96412D01*
X97412Y211993D01*
Y210993D01*
X96412Y209993D01*
X94413D01*
X93413Y210993D01*
X99411Y215991D02*
Y209993D01*
X102410D01*
X103410Y210993D01*
Y211993D01*
X102410Y212992D01*
X99411D01*
X102410D01*
X103410Y213992D01*
Y214991D01*
X102410Y215991D01*
X99411D01*
X82417Y339914D02*
Y345912D01*
X85416D01*
X86415Y344913D01*
Y342913D01*
X85416Y341914D01*
X82417D01*
X84416D02*
X86415Y339914D01*
X88415D02*
X90414D01*
X89415D01*
Y345912D01*
X88415Y344913D01*
X93413D02*
X94413Y345912D01*
X96412D01*
X97412Y344913D01*
Y343913D01*
X96412Y342913D01*
X95413D01*
X96412D01*
X97412Y341914D01*
Y340914D01*
X96412Y339914D01*
X94413D01*
X93413Y340914D01*
X99411Y339914D02*
Y343913D01*
X101411Y345912D01*
X103410Y343913D01*
Y339914D01*
Y342913D01*
X99411D01*
X93047Y36371D02*
Y42369D01*
X96046D01*
X97045Y41369D01*
Y39370D01*
X96046Y38370D01*
X93047D01*
X95046D02*
X97045Y36371D01*
X99045D02*
X101044D01*
X100044D01*
Y42369D01*
X99045Y41369D01*
X108042Y36371D02*
X104043D01*
X108042Y40370D01*
Y41369D01*
X107042Y42369D01*
X105043D01*
X104043Y41369D01*
X114040D02*
X113040Y42369D01*
X111041D01*
X110041Y41369D01*
Y37371D01*
X111041Y36371D01*
X113040D01*
X114040Y37371D01*
X93047Y166292D02*
Y172290D01*
X96046D01*
X97045Y171291D01*
Y169291D01*
X96046Y168292D01*
X93047D01*
X95046D02*
X97045Y166292D01*
X99045D02*
X101044D01*
X100044D01*
Y172290D01*
X99045Y171291D01*
X108042Y166292D02*
X104043D01*
X108042Y170291D01*
Y171291D01*
X107042Y172290D01*
X105043D01*
X104043Y171291D01*
X110041Y172290D02*
Y166292D01*
X113040D01*
X114040Y167292D01*
Y168292D01*
X113040Y169291D01*
X110041D01*
X113040D01*
X114040Y170291D01*
Y171291D01*
X113040Y172290D01*
X110041D01*
X93047Y296214D02*
Y302212D01*
X96046D01*
X97045Y301212D01*
Y299213D01*
X96046Y298213D01*
X93047D01*
X95046D02*
X97045Y296214D01*
X99045D02*
X101044D01*
X100044D01*
Y302212D01*
X99045Y301212D01*
X108042Y296214D02*
X104043D01*
X108042Y300212D01*
Y301212D01*
X107042Y302212D01*
X105043D01*
X104043Y301212D01*
X110041Y296214D02*
Y300212D01*
X112041Y302212D01*
X114040Y300212D01*
Y296214D01*
Y299213D01*
X110041D01*
X93153Y44245D02*
Y50243D01*
X96152D01*
X97152Y49243D01*
Y47244D01*
X96152Y46244D01*
X93153D01*
X95152D02*
X97152Y44245D01*
X99151D02*
X101150D01*
X100151D01*
Y50243D01*
X99151Y49243D01*
X104149Y44245D02*
X106149D01*
X105149D01*
Y50243D01*
X104149Y49243D01*
X113146D02*
X112147Y50243D01*
X110147D01*
X109148Y49243D01*
Y45245D01*
X110147Y44245D01*
X112147D01*
X113146Y45245D01*
X93153Y174166D02*
Y180164D01*
X96152D01*
X97152Y179165D01*
Y177165D01*
X96152Y176166D01*
X93153D01*
X95152D02*
X97152Y174166D01*
X99151D02*
X101150D01*
X100151D01*
Y180164D01*
X99151Y179165D01*
X104149Y174166D02*
X106149D01*
X105149D01*
Y180164D01*
X104149Y179165D01*
X109148Y180164D02*
Y174166D01*
X112147D01*
X113146Y175166D01*
Y176166D01*
X112147Y177165D01*
X109148D01*
X112147D01*
X113146Y178165D01*
Y179165D01*
X112147Y180164D01*
X109148D01*
X93153Y304088D02*
Y310086D01*
X96152D01*
X97152Y309086D01*
Y307087D01*
X96152Y306087D01*
X93153D01*
X95152D02*
X97152Y304088D01*
X99151D02*
X101150D01*
X100151D01*
Y310086D01*
X99151Y309086D01*
X104149Y304088D02*
X106149D01*
X105149D01*
Y310086D01*
X104149Y309086D01*
X109148Y304088D02*
Y308086D01*
X111147Y310086D01*
X113146Y308086D01*
Y304088D01*
Y307087D01*
X109148D01*
X85173Y72592D02*
Y78590D01*
X88172D01*
X89171Y77590D01*
Y75590D01*
X88172Y74591D01*
X85173D01*
X87172D02*
X89171Y72592D01*
X91171D02*
X93170D01*
X92171D01*
Y78590D01*
X91171Y77590D01*
X96169D02*
X97169Y78590D01*
X99168D01*
X100168Y77590D01*
Y73591D01*
X99168Y72592D01*
X97169D01*
X96169Y73591D01*
Y77590D01*
X106166D02*
X105166Y78590D01*
X103167D01*
X102167Y77590D01*
Y73591D01*
X103167Y72592D01*
X105166D01*
X106166Y73591D01*
X85173Y202513D02*
Y208511D01*
X88172D01*
X89171Y207511D01*
Y205512D01*
X88172Y204512D01*
X85173D01*
X87172D02*
X89171Y202513D01*
X91171D02*
X93170D01*
X92171D01*
Y208511D01*
X91171Y207511D01*
X96169D02*
X97169Y208511D01*
X99168D01*
X100168Y207511D01*
Y203513D01*
X99168Y202513D01*
X97169D01*
X96169Y203513D01*
Y207511D01*
X102167Y208511D02*
Y202513D01*
X105166D01*
X106166Y203513D01*
Y204512D01*
X105166Y205512D01*
X102167D01*
X105166D01*
X106166Y206511D01*
Y207511D01*
X105166Y208511D01*
X102167D01*
X85173Y332434D02*
Y338432D01*
X88172D01*
X89171Y337432D01*
Y335433D01*
X88172Y334433D01*
X85173D01*
X87172D02*
X89171Y332434D01*
X91171D02*
X93170D01*
X92171D01*
Y338432D01*
X91171Y337432D01*
X96169D02*
X97169Y338432D01*
X99168D01*
X100168Y337432D01*
Y333434D01*
X99168Y332434D01*
X97169D01*
X96169Y333434D01*
Y337432D01*
X102167Y332434D02*
Y336433D01*
X104167Y338432D01*
X106166Y336433D01*
Y332434D01*
Y335433D01*
X102167D01*
X125046Y51451D02*
X119048D01*
Y54450D01*
X120048Y55450D01*
X122047D01*
X123047Y54450D01*
Y51451D01*
Y53451D02*
X125046Y55450D01*
X124047Y57450D02*
X125046Y58449D01*
Y60448D01*
X124047Y61448D01*
X120048D01*
X119048Y60448D01*
Y58449D01*
X120048Y57450D01*
X121048D01*
X122047Y58449D01*
Y61448D01*
X120048Y67446D02*
X119048Y66447D01*
Y64447D01*
X120048Y63447D01*
X124047D01*
X125046Y64447D01*
Y66447D01*
X124047Y67446D01*
X125046Y181373D02*
X119048D01*
Y184372D01*
X120048Y185371D01*
X122047D01*
X123047Y184372D01*
Y181373D01*
Y183372D02*
X125046Y185371D01*
X124047Y187371D02*
X125046Y188370D01*
Y190370D01*
X124047Y191369D01*
X120048D01*
X119048Y190370D01*
Y188370D01*
X120048Y187371D01*
X121048D01*
X122047Y188370D01*
Y191369D01*
X119048Y193369D02*
X125046D01*
Y196368D01*
X124047Y197368D01*
X123047D01*
X122047Y196368D01*
Y193369D01*
Y196368D01*
X121048Y197368D01*
X120048D01*
X119048Y196368D01*
Y193369D01*
X125046Y311294D02*
X119048D01*
Y314293D01*
X120048Y315293D01*
X122047D01*
X123047Y314293D01*
Y311294D01*
Y313293D02*
X125046Y315293D01*
X124047Y317292D02*
X125046Y318292D01*
Y320291D01*
X124047Y321291D01*
X120048D01*
X119048Y320291D01*
Y318292D01*
X120048Y317292D01*
X121048D01*
X122047Y318292D01*
Y321291D01*
X125046Y323290D02*
X121048D01*
X119048Y325289D01*
X121048Y327289D01*
X125046D01*
X122047D01*
Y323290D01*
X140401Y51451D02*
X134403D01*
Y54450D01*
X135402Y55450D01*
X137402D01*
X138401Y54450D01*
Y51451D01*
Y53451D02*
X140401Y55450D01*
X135402Y57450D02*
X134403Y58449D01*
Y60448D01*
X135402Y61448D01*
X136402D01*
X137402Y60448D01*
X138401Y61448D01*
X139401D01*
X140401Y60448D01*
Y58449D01*
X139401Y57450D01*
X138401D01*
X137402Y58449D01*
X136402Y57450D01*
X135402D01*
X137402Y58449D02*
Y60448D01*
X135402Y67446D02*
X134403Y66447D01*
Y64447D01*
X135402Y63447D01*
X139401D01*
X140401Y64447D01*
Y66447D01*
X139401Y67446D01*
X140401Y181373D02*
X134403D01*
Y184372D01*
X135402Y185371D01*
X137402D01*
X138401Y184372D01*
Y181373D01*
Y183372D02*
X140401Y185371D01*
X135402Y187371D02*
X134403Y188370D01*
Y190370D01*
X135402Y191369D01*
X136402D01*
X137402Y190370D01*
X138401Y191369D01*
X139401D01*
X140401Y190370D01*
Y188370D01*
X139401Y187371D01*
X138401D01*
X137402Y188370D01*
X136402Y187371D01*
X135402D01*
X137402Y188370D02*
Y190370D01*
X134403Y193369D02*
X140401D01*
Y196368D01*
X139401Y197368D01*
X138401D01*
X137402Y196368D01*
Y193369D01*
Y196368D01*
X136402Y197368D01*
X135402D01*
X134403Y196368D01*
Y193369D01*
X140401Y311294D02*
X134403D01*
Y314293D01*
X135402Y315293D01*
X137402D01*
X138401Y314293D01*
Y311294D01*
Y313293D02*
X140401Y315293D01*
X135402Y317292D02*
X134403Y318292D01*
Y320291D01*
X135402Y321291D01*
X136402D01*
X137402Y320291D01*
X138401Y321291D01*
X139401D01*
X140401Y320291D01*
Y318292D01*
X139401Y317292D01*
X138401D01*
X137402Y318292D01*
X136402Y317292D01*
X135402D01*
X137402Y318292D02*
Y320291D01*
X140401Y323290D02*
X136402D01*
X134403Y325289D01*
X136402Y327289D01*
X140401D01*
X137402D01*
Y323290D01*
X132527Y51451D02*
X126529D01*
Y54450D01*
X127528Y55450D01*
X129528D01*
X130527Y54450D01*
Y51451D01*
Y53451D02*
X132527Y55450D01*
X126529Y57450D02*
Y61448D01*
X127528D01*
X131527Y57450D01*
X132527D01*
X127528Y67446D02*
X126529Y66447D01*
Y64447D01*
X127528Y63447D01*
X131527D01*
X132527Y64447D01*
Y66447D01*
X131527Y67446D01*
X132527Y181373D02*
X126529D01*
Y184372D01*
X127528Y185371D01*
X129527D01*
X130527Y184372D01*
Y181373D01*
Y183372D02*
X132527Y185371D01*
X126529Y187371D02*
Y191369D01*
X127528D01*
X131527Y187371D01*
X132527D01*
X126529Y193369D02*
X132527D01*
Y196368D01*
X131527Y197368D01*
X130527D01*
X129527Y196368D01*
Y193369D01*
Y196368D01*
X128528Y197368D01*
X127528D01*
X126529Y196368D01*
Y193369D01*
X132527Y311294D02*
X126529D01*
Y314293D01*
X127528Y315293D01*
X129527D01*
X130527Y314293D01*
Y311294D01*
Y313293D02*
X132527Y315293D01*
X126529Y317292D02*
Y321291D01*
X127528D01*
X131527Y317292D01*
X132527D01*
Y323290D02*
X128528D01*
X126529Y325289D01*
X128528Y327289D01*
X132527D01*
X129527D01*
Y323290D01*
X-3424Y284402D02*
Y290401D01*
X-424D01*
X575Y289401D01*
Y287402D01*
X-424Y286402D01*
X-3424D01*
X-1424D02*
X575Y284402D01*
X2575Y289401D02*
X3574Y290401D01*
X5573D01*
X6573Y289401D01*
Y288401D01*
X5573Y287402D01*
X4574D01*
X5573D01*
X6573Y286402D01*
Y285402D01*
X5573Y284402D01*
X3574D01*
X2575Y285402D01*
X421946Y22824D02*
Y26822D01*
X420947Y27822D01*
X418947D01*
X417947Y26822D01*
Y22824D01*
X418947Y21824D01*
X420947D01*
X419947Y23823D02*
X421946Y21824D01*
X420947D02*
X421946Y22824D01*
X426944Y21824D02*
Y27822D01*
X423946Y24823D01*
X427944D01*
X433942Y26822D02*
X432943Y27822D01*
X430943D01*
X429944Y26822D01*
Y22824D01*
X430943Y21824D01*
X432943D01*
X433942Y22824D01*
X421946Y152745D02*
Y156743D01*
X420947Y157743D01*
X418947D01*
X417947Y156743D01*
Y152745D01*
X418947Y151745D01*
X420947D01*
X419947Y153744D02*
X421946Y151745D01*
X420947D02*
X421946Y152745D01*
X426944Y151745D02*
Y157743D01*
X423946Y154744D01*
X427944D01*
X429944Y157743D02*
Y151745D01*
X432943D01*
X433942Y152745D01*
Y153744D01*
X432943Y154744D01*
X429944D01*
X432943D01*
X433942Y155744D01*
Y156743D01*
X432943Y157743D01*
X429944D01*
X421946Y282666D02*
Y286665D01*
X420947Y287664D01*
X418947D01*
X417947Y286665D01*
Y282666D01*
X418947Y281666D01*
X420947D01*
X419947Y283666D02*
X421946Y281666D01*
X420947D02*
X421946Y282666D01*
X426944Y281666D02*
Y287664D01*
X423946Y284665D01*
X427944D01*
X429944Y281666D02*
Y285665D01*
X431943Y287664D01*
X433942Y285665D01*
Y281666D01*
Y284665D01*
X429944D01*
X395608Y73887D02*
Y77885D01*
X394608Y78885D01*
X392609D01*
X391609Y77885D01*
Y73887D01*
X392609Y72887D01*
X394608D01*
X393608Y74886D02*
X395608Y72887D01*
X394608D02*
X395608Y73887D01*
X397607Y77885D02*
X398607Y78885D01*
X400606D01*
X401606Y77885D01*
Y76885D01*
X400606Y75886D01*
X399606D01*
X400606D01*
X401606Y74886D01*
Y73887D01*
X400606Y72887D01*
X398607D01*
X397607Y73887D01*
X407604Y77885D02*
X406604Y78885D01*
X404605D01*
X403605Y77885D01*
Y73887D01*
X404605Y72887D01*
X406604D01*
X407604Y73887D01*
X395608Y203808D02*
Y207806D01*
X394608Y208806D01*
X392609D01*
X391609Y207806D01*
Y203808D01*
X392609Y202808D01*
X394608D01*
X393608Y204807D02*
X395608Y202808D01*
X394608D02*
X395608Y203808D01*
X397607Y207806D02*
X398607Y208806D01*
X400606D01*
X401606Y207806D01*
Y206807D01*
X400606Y205807D01*
X399606D01*
X400606D01*
X401606Y204807D01*
Y203808D01*
X400606Y202808D01*
X398607D01*
X397607Y203808D01*
X403605Y208806D02*
Y202808D01*
X406604D01*
X407604Y203808D01*
Y204807D01*
X406604Y205807D01*
X403605D01*
X406604D01*
X407604Y206807D01*
Y207806D01*
X406604Y208806D01*
X403605D01*
X395608Y333729D02*
Y337728D01*
X394608Y338727D01*
X392609D01*
X391609Y337728D01*
Y333729D01*
X392609Y332729D01*
X394608D01*
X393608Y334729D02*
X395608Y332729D01*
X394608D02*
X395608Y333729D01*
X397607Y337728D02*
X398607Y338727D01*
X400606D01*
X401606Y337728D01*
Y336728D01*
X400606Y335728D01*
X399606D01*
X400606D01*
X401606Y334729D01*
Y333729D01*
X400606Y332729D01*
X398607D01*
X397607Y333729D01*
X403605Y332729D02*
Y336728D01*
X405604Y338727D01*
X407604Y336728D01*
Y332729D01*
Y335728D01*
X403605D01*
X396091Y22654D02*
Y26653D01*
X395092Y27653D01*
X393092D01*
X392092Y26653D01*
Y22654D01*
X393092Y21655D01*
X395092D01*
X394092Y23654D02*
X396091Y21655D01*
X395092D02*
X396091Y22654D01*
X402089Y21655D02*
X398091D01*
X402089Y25653D01*
Y26653D01*
X401090Y27653D01*
X399090D01*
X398091Y26653D01*
X408087D02*
X407088Y27653D01*
X405088D01*
X404089Y26653D01*
Y22654D01*
X405088Y21655D01*
X407088D01*
X408087Y22654D01*
X396091Y152575D02*
Y156574D01*
X395092Y157574D01*
X393092D01*
X392092Y156574D01*
Y152575D01*
X393092Y151576D01*
X395092D01*
X394092Y153575D02*
X396091Y151576D01*
X395092D02*
X396091Y152575D01*
X402089Y151576D02*
X398091D01*
X402089Y155575D01*
Y156574D01*
X401090Y157574D01*
X399090D01*
X398091Y156574D01*
X404089Y157574D02*
Y151576D01*
X407088D01*
X408087Y152575D01*
Y153575D01*
X407088Y154575D01*
X404089D01*
X407088D01*
X408087Y155575D01*
Y156574D01*
X407088Y157574D01*
X404089D01*
X396091Y282497D02*
Y286495D01*
X395092Y287495D01*
X393092D01*
X392092Y286495D01*
Y282497D01*
X393092Y281497D01*
X395092D01*
X394092Y283496D02*
X396091Y281497D01*
X395092D02*
X396091Y282497D01*
X402089Y281497D02*
X398091D01*
X402089Y285496D01*
Y286495D01*
X401090Y287495D01*
X399090D01*
X398091Y286495D01*
X404089Y281497D02*
Y285496D01*
X406088Y287495D01*
X408087Y285496D01*
Y281497D01*
Y284496D01*
X404089D01*
X421265Y73906D02*
Y77905D01*
X420265Y78904D01*
X418266D01*
X417266Y77905D01*
Y73906D01*
X418266Y72907D01*
X420265D01*
X419266Y74906D02*
X421265Y72907D01*
X420265D02*
X421265Y73906D01*
X423264Y72907D02*
X425264D01*
X424264D01*
Y78904D01*
X423264Y77905D01*
X432261D02*
X431262Y78904D01*
X429262D01*
X428263Y77905D01*
Y73906D01*
X429262Y72907D01*
X431262D01*
X432261Y73906D01*
X421265Y203827D02*
Y207826D01*
X420265Y208826D01*
X418266D01*
X417266Y207826D01*
Y203827D01*
X418266Y202828D01*
X420265D01*
X419266Y204827D02*
X421265Y202828D01*
X420265D02*
X421265Y203827D01*
X423264Y202828D02*
X425264D01*
X424264D01*
Y208826D01*
X423264Y207826D01*
X428263Y208826D02*
Y202828D01*
X431262D01*
X432261Y203827D01*
Y204827D01*
X431262Y205827D01*
X428263D01*
X431262D01*
X432261Y206826D01*
Y207826D01*
X431262Y208826D01*
X428263D01*
X421265Y333749D02*
Y337747D01*
X420265Y338747D01*
X418266D01*
X417266Y337747D01*
Y333749D01*
X418266Y332749D01*
X420265D01*
X419266Y334748D02*
X421265Y332749D01*
X420265D02*
X421265Y333749D01*
X423264Y332749D02*
X425264D01*
X424264D01*
Y338747D01*
X423264Y337747D01*
X428263Y332749D02*
Y336748D01*
X430262Y338747D01*
X432261Y336748D01*
Y332749D01*
Y335748D01*
X428263D01*
X376648Y106542D02*
Y100544D01*
X379647D01*
X380647Y101544D01*
Y105543D01*
X379647Y106542D01*
X376648D01*
X382646Y101544D02*
X383646Y100544D01*
X385645D01*
X386645Y101544D01*
Y105543D01*
X385645Y106542D01*
X383646D01*
X382646Y105543D01*
Y104543D01*
X383646Y103543D01*
X386645D01*
X392643Y105543D02*
X391643Y106542D01*
X389644D01*
X388644Y105543D01*
Y101544D01*
X389644Y100544D01*
X391643D01*
X392643Y101544D01*
X376648Y236464D02*
Y230466D01*
X379647D01*
X380647Y231465D01*
Y235464D01*
X379647Y236464D01*
X376648D01*
X382646Y231465D02*
X383646Y230466D01*
X385645D01*
X386645Y231465D01*
Y235464D01*
X385645Y236464D01*
X383646D01*
X382646Y235464D01*
Y234464D01*
X383646Y233465D01*
X386645D01*
X388644Y236464D02*
Y230466D01*
X391643D01*
X392643Y231465D01*
Y232465D01*
X391643Y233465D01*
X388644D01*
X391643D01*
X392643Y234464D01*
Y235464D01*
X391643Y236464D01*
X388644D01*
X341137Y106385D02*
Y100387D01*
X344135D01*
X345135Y101386D01*
Y105385D01*
X344135Y106385D01*
X341137D01*
X347134Y105385D02*
X348134Y106385D01*
X350133D01*
X351133Y105385D01*
Y104385D01*
X350133Y103386D01*
X351133Y102386D01*
Y101386D01*
X350133Y100387D01*
X348134D01*
X347134Y101386D01*
Y102386D01*
X348134Y103386D01*
X347134Y104385D01*
Y105385D01*
X348134Y103386D02*
X350133D01*
X357131Y105385D02*
X356132Y106385D01*
X354132D01*
X353133Y105385D01*
Y101386D01*
X354132Y100387D01*
X356132D01*
X357131Y101386D01*
X341215Y236464D02*
Y230466D01*
X344214D01*
X345214Y231465D01*
Y235464D01*
X344214Y236464D01*
X341215D01*
X347213Y235464D02*
X348213Y236464D01*
X350212D01*
X351212Y235464D01*
Y234464D01*
X350212Y233465D01*
X351212Y232465D01*
Y231465D01*
X350212Y230466D01*
X348213D01*
X347213Y231465D01*
Y232465D01*
X348213Y233465D01*
X347213Y234464D01*
Y235464D01*
X348213Y233465D02*
X350212D01*
X353211Y236464D02*
Y230466D01*
X356210D01*
X357210Y231465D01*
Y232465D01*
X356210Y233465D01*
X353211D01*
X356210D01*
X357210Y234464D01*
Y235464D01*
X356210Y236464D01*
X353211D01*
X376255Y130164D02*
Y124166D01*
X379254D01*
X380253Y125166D01*
Y129165D01*
X379254Y130164D01*
X376255D01*
X382253D02*
X386251D01*
Y129165D01*
X382253Y125166D01*
Y124166D01*
X392249Y129165D02*
X391250Y130164D01*
X389250D01*
X388251Y129165D01*
Y125166D01*
X389250Y124166D01*
X391250D01*
X392249Y125166D01*
X376255Y260086D02*
Y254088D01*
X379254D01*
X380253Y255087D01*
Y259086D01*
X379254Y260086D01*
X376255D01*
X382253D02*
X386251D01*
Y259086D01*
X382253Y255087D01*
Y254088D01*
X388251Y260086D02*
Y254088D01*
X391250D01*
X392249Y255087D01*
Y256087D01*
X391250Y257087D01*
X388251D01*
X391250D01*
X392249Y258086D01*
Y259086D01*
X391250Y260086D01*
X388251D01*
X341215Y130164D02*
Y124166D01*
X344214D01*
X345214Y125166D01*
Y129165D01*
X344214Y130164D01*
X341215D01*
X351212D02*
X349213Y129165D01*
X347213Y127165D01*
Y125166D01*
X348213Y124166D01*
X350212D01*
X351212Y125166D01*
Y126166D01*
X350212Y127165D01*
X347213D01*
X357210Y129165D02*
X356210Y130164D01*
X354211D01*
X353211Y129165D01*
Y125166D01*
X354211Y124166D01*
X356210D01*
X357210Y125166D01*
X341215Y260086D02*
Y254088D01*
X344214D01*
X345214Y255087D01*
Y259086D01*
X344214Y260086D01*
X341215D01*
X351212D02*
X349213Y259086D01*
X347213Y257087D01*
Y255087D01*
X348213Y254088D01*
X350212D01*
X351212Y255087D01*
Y256087D01*
X350212Y257087D01*
X347213D01*
X353211Y260086D02*
Y254088D01*
X356210D01*
X357210Y255087D01*
Y256087D01*
X356210Y257087D01*
X353211D01*
X356210D01*
X357210Y258086D01*
Y259086D01*
X356210Y260086D01*
X353211D01*
X348302Y75834D02*
Y69836D01*
X351301D01*
X352301Y70835D01*
Y74834D01*
X351301Y75834D01*
X348302D01*
X358299D02*
X354300D01*
Y72835D01*
X356299Y73834D01*
X357299D01*
X358299Y72835D01*
Y70835D01*
X357299Y69836D01*
X355299D01*
X354300Y70835D01*
X364297Y74834D02*
X363297Y75834D01*
X361298D01*
X360298Y74834D01*
Y70835D01*
X361298Y69836D01*
X363297D01*
X364297Y70835D01*
X348302Y205755D02*
Y199757D01*
X351301D01*
X352301Y200757D01*
Y204755D01*
X351301Y205755D01*
X348302D01*
X358299D02*
X354300D01*
Y202756D01*
X356299Y203756D01*
X357299D01*
X358299Y202756D01*
Y200757D01*
X357299Y199757D01*
X355299D01*
X354300Y200757D01*
X360298Y205755D02*
Y199757D01*
X363297D01*
X364297Y200757D01*
Y201756D01*
X363297Y202756D01*
X360298D01*
X363297D01*
X364297Y203756D01*
Y204755D01*
X363297Y205755D01*
X360298D01*
X348302Y335676D02*
Y329678D01*
X351301D01*
X352301Y330678D01*
Y334677D01*
X351301Y335676D01*
X348302D01*
X358299D02*
X354300D01*
Y332677D01*
X356299Y333677D01*
X357299D01*
X358299Y332677D01*
Y330678D01*
X357299Y329678D01*
X355299D01*
X354300Y330678D01*
X360298Y329678D02*
Y333677D01*
X362297Y335676D01*
X364297Y333677D01*
Y329678D01*
Y332677D01*
X360298D01*
X348302Y34101D02*
Y28103D01*
X351301D01*
X352301Y29103D01*
Y33102D01*
X351301Y34101D01*
X348302D01*
X357299Y28103D02*
Y34101D01*
X354300Y31102D01*
X358299D01*
X364297Y33102D02*
X363297Y34101D01*
X361298D01*
X360298Y33102D01*
Y29103D01*
X361298Y28103D01*
X363297D01*
X364297Y29103D01*
X348302Y164023D02*
Y158025D01*
X351301D01*
X352301Y159024D01*
Y163023D01*
X351301Y164023D01*
X348302D01*
X357299Y158025D02*
Y164023D01*
X354300Y161024D01*
X358299D01*
X360298Y164023D02*
Y158025D01*
X363297D01*
X364297Y159024D01*
Y160024D01*
X363297Y161024D01*
X360298D01*
X363297D01*
X364297Y162023D01*
Y163023D01*
X363297Y164023D01*
X360298D01*
X348302Y293944D02*
Y287946D01*
X351301D01*
X352301Y288946D01*
Y292944D01*
X351301Y293944D01*
X348302D01*
X357299Y287946D02*
Y293944D01*
X354300Y290945D01*
X358299D01*
X360298Y287946D02*
Y291945D01*
X362297Y293944D01*
X364297Y291945D01*
Y287946D01*
Y290945D01*
X360298D01*
X219380Y98456D02*
X218380Y99456D01*
X216381D01*
X215382Y98456D01*
Y94457D01*
X216381Y93458D01*
X218380D01*
X219380Y94457D01*
X225378Y93458D02*
X221380D01*
X225378Y97456D01*
Y98456D01*
X224379Y99456D01*
X222379D01*
X221380Y98456D01*
X227378D02*
X228377Y99456D01*
X230377D01*
X231376Y98456D01*
Y97456D01*
X230377Y96457D01*
X231376Y95457D01*
Y94457D01*
X230377Y93458D01*
X228377D01*
X227378Y94457D01*
Y95457D01*
X228377Y96457D01*
X227378Y97456D01*
Y98456D01*
X228377Y96457D02*
X230377D01*
X237374Y98456D02*
X236375Y99456D01*
X234375D01*
X233376Y98456D01*
Y94457D01*
X234375Y93458D01*
X236375D01*
X237374Y94457D01*
X219380Y228377D02*
X218380Y229377D01*
X216381D01*
X215382Y228377D01*
Y224379D01*
X216381Y223379D01*
X218380D01*
X219380Y224379D01*
X225378Y223379D02*
X221380D01*
X225378Y227378D01*
Y228377D01*
X224379Y229377D01*
X222379D01*
X221380Y228377D01*
X227378D02*
X228377Y229377D01*
X230377D01*
X231376Y228377D01*
Y227378D01*
X230377Y226378D01*
X231376Y225378D01*
Y224379D01*
X230377Y223379D01*
X228377D01*
X227378Y224379D01*
Y225378D01*
X228377Y226378D01*
X227378Y227378D01*
Y228377D01*
X228377Y226378D02*
X230377D01*
X233376Y229377D02*
Y223379D01*
X236375D01*
X237374Y224379D01*
Y225378D01*
X236375Y226378D01*
X233376D01*
X236375D01*
X237374Y227378D01*
Y228377D01*
X236375Y229377D01*
X233376D01*
X281585Y98456D02*
X280585Y99456D01*
X278586D01*
X277586Y98456D01*
Y94457D01*
X278586Y93458D01*
X280585D01*
X281585Y94457D01*
X287583Y93458D02*
X283584D01*
X287583Y97456D01*
Y98456D01*
X286583Y99456D01*
X284584D01*
X283584Y98456D01*
X289582Y99456D02*
X293581D01*
Y98456D01*
X289582Y94457D01*
Y93458D01*
X299579Y98456D02*
X298579Y99456D01*
X296580D01*
X295580Y98456D01*
Y94457D01*
X296580Y93458D01*
X298579D01*
X299579Y94457D01*
X281585Y228377D02*
X280585Y229377D01*
X278586D01*
X277586Y228377D01*
Y224379D01*
X278586Y223379D01*
X280585D01*
X281585Y224379D01*
X287583Y223379D02*
X283584D01*
X287583Y227378D01*
Y228377D01*
X286583Y229377D01*
X284584D01*
X283584Y228377D01*
X289582Y229377D02*
X293581D01*
Y228377D01*
X289582Y224379D01*
Y223379D01*
X295580Y229377D02*
Y223379D01*
X298579D01*
X299579Y224379D01*
Y225378D01*
X298579Y226378D01*
X295580D01*
X298579D01*
X299579Y227378D01*
Y228377D01*
X298579Y229377D01*
X295580D01*
X281585Y107511D02*
X280585Y108511D01*
X278586D01*
X277586Y107511D01*
Y103512D01*
X278586Y102513D01*
X280585D01*
X281585Y103512D01*
X287583Y102513D02*
X283584D01*
X287583Y106511D01*
Y107511D01*
X286583Y108511D01*
X284584D01*
X283584Y107511D01*
X293581Y108511D02*
X291582Y107511D01*
X289582Y105512D01*
Y103512D01*
X290582Y102513D01*
X292581D01*
X293581Y103512D01*
Y104512D01*
X292581Y105512D01*
X289582D01*
X299579Y107511D02*
X298579Y108511D01*
X296580D01*
X295580Y107511D01*
Y103512D01*
X296580Y102513D01*
X298579D01*
X299579Y103512D01*
X281585Y237432D02*
X280585Y238432D01*
X278586D01*
X277586Y237432D01*
Y233434D01*
X278586Y232434D01*
X280585D01*
X281585Y233434D01*
X287583Y232434D02*
X283584D01*
X287583Y236433D01*
Y237432D01*
X286583Y238432D01*
X284584D01*
X283584Y237432D01*
X293581Y238432D02*
X291582Y237432D01*
X289582Y235433D01*
Y233434D01*
X290582Y232434D01*
X292581D01*
X293581Y233434D01*
Y234433D01*
X292581Y235433D01*
X289582D01*
X295580Y238432D02*
Y232434D01*
X298579D01*
X299579Y233434D01*
Y234433D01*
X298579Y235433D01*
X295580D01*
X298579D01*
X299579Y236433D01*
Y237432D01*
X298579Y238432D01*
X295580D01*
X219380Y107117D02*
X218380Y108117D01*
X216381D01*
X215382Y107117D01*
Y103119D01*
X216381Y102119D01*
X218380D01*
X219380Y103119D01*
X225378Y102119D02*
X221380D01*
X225378Y106118D01*
Y107117D01*
X224379Y108117D01*
X222379D01*
X221380Y107117D01*
X231376Y108117D02*
X227378D01*
Y105118D01*
X229377Y106118D01*
X230377D01*
X231376Y105118D01*
Y103119D01*
X230377Y102119D01*
X228377D01*
X227378Y103119D01*
X237374Y107117D02*
X236375Y108117D01*
X234375D01*
X233376Y107117D01*
Y103119D01*
X234375Y102119D01*
X236375D01*
X237374Y103119D01*
X219380Y237039D02*
X218380Y238038D01*
X216381D01*
X215382Y237039D01*
Y233040D01*
X216381Y232040D01*
X218380D01*
X219380Y233040D01*
X225378Y232040D02*
X221380D01*
X225378Y236039D01*
Y237039D01*
X224379Y238038D01*
X222379D01*
X221380Y237039D01*
X231376Y238038D02*
X227378D01*
Y235039D01*
X229377Y236039D01*
X230377D01*
X231376Y235039D01*
Y233040D01*
X230377Y232040D01*
X228377D01*
X227378Y233040D01*
X233376Y238038D02*
Y232040D01*
X236375D01*
X237374Y233040D01*
Y234040D01*
X236375Y235039D01*
X233376D01*
X236375D01*
X237374Y236039D01*
Y237039D01*
X236375Y238038D01*
X233376D01*
X257963Y129558D02*
X256963Y130558D01*
X254964D01*
X253964Y129558D01*
Y125560D01*
X254964Y124560D01*
X256963D01*
X257963Y125560D01*
X263961Y124560D02*
X259962D01*
X263961Y128559D01*
Y129558D01*
X262961Y130558D01*
X260962D01*
X259962Y129558D01*
X268959Y124560D02*
Y130558D01*
X265960Y127559D01*
X269959D01*
X275957Y129558D02*
X274957Y130558D01*
X272958D01*
X271958Y129558D01*
Y125560D01*
X272958Y124560D01*
X274957D01*
X275957Y125560D01*
X257963Y259480D02*
X256963Y260479D01*
X254964D01*
X253964Y259480D01*
Y255481D01*
X254964Y254481D01*
X256963D01*
X257963Y255481D01*
X263961Y254481D02*
X259962D01*
X263961Y258480D01*
Y259480D01*
X262961Y260479D01*
X260962D01*
X259962Y259480D01*
X268959Y254481D02*
Y260479D01*
X265960Y257480D01*
X269959D01*
X271958Y260479D02*
Y254481D01*
X274957D01*
X275957Y255481D01*
Y256481D01*
X274957Y257480D01*
X271958D01*
X274957D01*
X275957Y258480D01*
Y259480D01*
X274957Y260479D01*
X271958D01*
X361780Y87490D02*
X360781Y86491D01*
Y84491D01*
X361780Y83492D01*
X365779D01*
X366779Y84491D01*
Y86491D01*
X365779Y87490D01*
X366779Y93489D02*
Y89490D01*
X362780Y93489D01*
X361780D01*
X360781Y92489D01*
Y90490D01*
X361780Y89490D01*
Y95488D02*
X360781Y96487D01*
Y98487D01*
X361780Y99487D01*
X362780D01*
X363779Y98487D01*
Y97487D01*
Y98487D01*
X364779Y99487D01*
X365779D01*
X366779Y98487D01*
Y96487D01*
X365779Y95488D01*
X361780Y105485D02*
X360781Y104485D01*
Y102486D01*
X361780Y101486D01*
X365779D01*
X366779Y102486D01*
Y104485D01*
X365779Y105485D01*
X361780Y217412D02*
X360781Y216412D01*
Y214413D01*
X361780Y213413D01*
X365779D01*
X366779Y214413D01*
Y216412D01*
X365779Y217412D01*
X366779Y223410D02*
Y219411D01*
X362780Y223410D01*
X361780D01*
X360781Y222410D01*
Y220411D01*
X361780Y219411D01*
Y225409D02*
X360781Y226409D01*
Y228408D01*
X361780Y229408D01*
X362780D01*
X363779Y228408D01*
Y227409D01*
Y228408D01*
X364779Y229408D01*
X365779D01*
X366779Y228408D01*
Y226409D01*
X365779Y225409D01*
X360781Y231407D02*
X366779D01*
Y234406D01*
X365779Y235406D01*
X364779D01*
X363779Y234406D01*
Y231407D01*
Y234406D01*
X362780Y235406D01*
X361780D01*
X360781Y234406D01*
Y231407D01*
X326347Y86703D02*
X325347Y85703D01*
Y83704D01*
X326347Y82704D01*
X330346D01*
X331346Y83704D01*
Y85703D01*
X330346Y86703D01*
X331346Y92701D02*
Y88702D01*
X327347Y92701D01*
X326347D01*
X325347Y91701D01*
Y89702D01*
X326347Y88702D01*
X331346Y98699D02*
Y94700D01*
X327347Y98699D01*
X326347D01*
X325347Y97699D01*
Y95700D01*
X326347Y94700D01*
Y104697D02*
X325347Y103698D01*
Y101698D01*
X326347Y100698D01*
X330346D01*
X331346Y101698D01*
Y103698D01*
X330346Y104697D01*
X326347Y216624D02*
X325347Y215625D01*
Y213625D01*
X326347Y212626D01*
X330346D01*
X331346Y213625D01*
Y215625D01*
X330346Y216624D01*
X331346Y222622D02*
Y218624D01*
X327347Y222622D01*
X326347D01*
X325347Y221623D01*
Y219623D01*
X326347Y218624D01*
X331346Y228620D02*
Y224622D01*
X327347Y228620D01*
X326347D01*
X325347Y227621D01*
Y225621D01*
X326347Y224622D01*
X325347Y230620D02*
X331346D01*
Y233619D01*
X330346Y234618D01*
X329346D01*
X328346Y233619D01*
Y230620D01*
Y233619D01*
X327347Y234618D01*
X326347D01*
X325347Y233619D01*
Y230620D01*
X361780Y112400D02*
X360781Y111400D01*
Y109401D01*
X361780Y108401D01*
X365779D01*
X366779Y109401D01*
Y111400D01*
X365779Y112400D01*
X366779Y118398D02*
Y114399D01*
X362780Y118398D01*
X361780D01*
X360781Y117398D01*
Y115399D01*
X361780Y114399D01*
X366779Y120397D02*
Y122397D01*
Y121397D01*
X360781D01*
X361780Y120397D01*
Y129394D02*
X360781Y128395D01*
Y126395D01*
X361780Y125396D01*
X365779D01*
X366779Y126395D01*
Y128395D01*
X365779Y129394D01*
X361780Y242321D02*
X360781Y241321D01*
Y239322D01*
X361780Y238322D01*
X365779D01*
X366779Y239322D01*
Y241321D01*
X365779Y242321D01*
X366779Y248319D02*
Y244320D01*
X362780Y248319D01*
X361780D01*
X360781Y247319D01*
Y245320D01*
X361780Y244320D01*
X366779Y250318D02*
Y252318D01*
Y251318D01*
X360781D01*
X361780Y250318D01*
X360781Y255317D02*
X366779D01*
Y258316D01*
X365779Y259315D01*
X364779D01*
X363779Y258316D01*
Y255317D01*
Y258316D01*
X362780Y259315D01*
X361780D01*
X360781Y258316D01*
Y255317D01*
X326741Y111506D02*
X325741Y110506D01*
Y108507D01*
X326741Y107508D01*
X330739D01*
X331739Y108507D01*
Y110506D01*
X330739Y111506D01*
X331739Y117504D02*
Y113506D01*
X327741Y117504D01*
X326741D01*
X325741Y116505D01*
Y114505D01*
X326741Y113506D01*
Y119504D02*
X325741Y120503D01*
Y122503D01*
X326741Y123502D01*
X330739D01*
X331739Y122503D01*
Y120503D01*
X330739Y119504D01*
X326741D01*
Y129500D02*
X325741Y128501D01*
Y126501D01*
X326741Y125502D01*
X330739D01*
X331739Y126501D01*
Y128501D01*
X330739Y129500D01*
X326741Y241427D02*
X325741Y240428D01*
Y238428D01*
X326741Y237429D01*
X330739D01*
X331739Y238428D01*
Y240428D01*
X330739Y241427D01*
X331739Y247426D02*
Y243427D01*
X327741Y247426D01*
X326741D01*
X325741Y246426D01*
Y244426D01*
X326741Y243427D01*
Y249425D02*
X325741Y250425D01*
Y252424D01*
X326741Y253424D01*
X330739D01*
X331739Y252424D01*
Y250425D01*
X330739Y249425D01*
X326741D01*
X325741Y255423D02*
X331739D01*
Y258422D01*
X330739Y259422D01*
X329740D01*
X328740Y258422D01*
Y255423D01*
Y258422D01*
X327741Y259422D01*
X326741D01*
X325741Y258422D01*
Y255423D01*
X400589Y96487D02*
X399589Y97487D01*
X397590D01*
X396590Y96487D01*
Y92489D01*
X397590Y91489D01*
X399589D01*
X400589Y92489D01*
X402588Y91489D02*
X404587D01*
X403588D01*
Y97487D01*
X402588Y96487D01*
X407586Y92489D02*
X408586Y91489D01*
X410585D01*
X411585Y92489D01*
Y96487D01*
X410585Y97487D01*
X408586D01*
X407586Y96487D01*
Y95488D01*
X408586Y94488D01*
X411585D01*
X417583Y96487D02*
X416584Y97487D01*
X414584D01*
X413585Y96487D01*
Y92489D01*
X414584Y91489D01*
X416584D01*
X417583Y92489D01*
X400589Y226409D02*
X399589Y227409D01*
X397590D01*
X396590Y226409D01*
Y222410D01*
X397590Y221410D01*
X399589D01*
X400589Y222410D01*
X402588Y221410D02*
X404587D01*
X403588D01*
Y227409D01*
X402588Y226409D01*
X407586Y222410D02*
X408586Y221410D01*
X410585D01*
X411585Y222410D01*
Y226409D01*
X410585Y227409D01*
X408586D01*
X407586Y226409D01*
Y225409D01*
X408586Y224410D01*
X411585D01*
X413585Y227409D02*
Y221410D01*
X416584D01*
X417583Y222410D01*
Y223410D01*
X416584Y224410D01*
X413585D01*
X416584D01*
X417583Y225409D01*
Y226409D01*
X416584Y227409D01*
X413585D01*
X400589Y107117D02*
X399589Y108117D01*
X397590D01*
X396590Y107117D01*
Y103119D01*
X397590Y102119D01*
X399589D01*
X400589Y103119D01*
X402588Y102119D02*
X404587D01*
X403588D01*
Y108117D01*
X402588Y107117D01*
X407586D02*
X408586Y108117D01*
X410585D01*
X411585Y107117D01*
Y106118D01*
X410585Y105118D01*
X411585Y104118D01*
Y103119D01*
X410585Y102119D01*
X408586D01*
X407586Y103119D01*
Y104118D01*
X408586Y105118D01*
X407586Y106118D01*
Y107117D01*
X408586Y105118D02*
X410585D01*
X417583Y107117D02*
X416584Y108117D01*
X414584D01*
X413585Y107117D01*
Y103119D01*
X414584Y102119D01*
X416584D01*
X417583Y103119D01*
X400589Y237039D02*
X399589Y238038D01*
X397590D01*
X396590Y237039D01*
Y233040D01*
X397590Y232040D01*
X399589D01*
X400589Y233040D01*
X402588Y232040D02*
X404587D01*
X403588D01*
Y238038D01*
X402588Y237039D01*
X407586D02*
X408586Y238038D01*
X410585D01*
X411585Y237039D01*
Y236039D01*
X410585Y235039D01*
X411585Y234040D01*
Y233040D01*
X410585Y232040D01*
X408586D01*
X407586Y233040D01*
Y234040D01*
X408586Y235039D01*
X407586Y236039D01*
Y237039D01*
X408586Y235039D02*
X410585D01*
X413585Y238038D02*
Y232040D01*
X416584D01*
X417583Y233040D01*
Y234040D01*
X416584Y235039D01*
X413585D01*
X416584D01*
X417583Y236039D01*
Y237039D01*
X416584Y238038D01*
X413585D01*
X400589Y117747D02*
X399589Y118747D01*
X397590D01*
X396590Y117747D01*
Y113749D01*
X397590Y112749D01*
X399589D01*
X400589Y113749D01*
X402588Y112749D02*
X404587D01*
X403588D01*
Y118747D01*
X402588Y117747D01*
X407586Y118747D02*
X411585D01*
Y117747D01*
X407586Y113749D01*
Y112749D01*
X417583Y117747D02*
X416584Y118747D01*
X414584D01*
X413585Y117747D01*
Y113749D01*
X414584Y112749D01*
X416584D01*
X417583Y113749D01*
X400589Y247669D02*
X399589Y248668D01*
X397590D01*
X396590Y247669D01*
Y243670D01*
X397590Y242670D01*
X399589D01*
X400589Y243670D01*
X402588Y242670D02*
X404587D01*
X403588D01*
Y248668D01*
X402588Y247669D01*
X407586Y248668D02*
X411585D01*
Y247669D01*
X407586Y243670D01*
Y242670D01*
X413585Y248668D02*
Y242670D01*
X416584D01*
X417583Y243670D01*
Y244670D01*
X416584Y245669D01*
X413585D01*
X416584D01*
X417583Y246669D01*
Y247669D01*
X416584Y248668D01*
X413585D01*
X400097Y129558D02*
X399097Y130558D01*
X397098D01*
X396098Y129558D01*
Y125560D01*
X397098Y124560D01*
X399097D01*
X400097Y125560D01*
X402096Y124560D02*
X404095D01*
X403096D01*
Y130558D01*
X402096Y129558D01*
X411093Y130558D02*
X409094Y129558D01*
X407094Y127559D01*
Y125560D01*
X408094Y124560D01*
X410093D01*
X411093Y125560D01*
Y126559D01*
X410093Y127559D01*
X407094D01*
X417091Y129558D02*
X416091Y130558D01*
X414092D01*
X413092Y129558D01*
Y125560D01*
X414092Y124560D01*
X416091D01*
X417091Y125560D01*
X400097Y259480D02*
X399097Y260479D01*
X397098D01*
X396098Y259480D01*
Y255481D01*
X397098Y254481D01*
X399097D01*
X400097Y255481D01*
X402096Y254481D02*
X404095D01*
X403096D01*
Y260479D01*
X402096Y259480D01*
X411093Y260479D02*
X409094Y259480D01*
X407094Y257480D01*
Y255481D01*
X408094Y254481D01*
X410093D01*
X411093Y255481D01*
Y256481D01*
X410093Y257480D01*
X407094D01*
X413092Y260479D02*
Y254481D01*
X416091D01*
X417091Y255481D01*
Y256481D01*
X416091Y257480D01*
X413092D01*
X416091D01*
X417091Y258480D01*
Y259480D01*
X416091Y260479D01*
X413092D01*
X328148Y79952D02*
X327148Y80952D01*
X325149D01*
X324149Y79952D01*
Y75953D01*
X325149Y74954D01*
X327148D01*
X328148Y75953D01*
X330147Y74954D02*
X332147D01*
X331147D01*
Y80952D01*
X330147Y79952D01*
X339144Y80952D02*
X335145D01*
Y77953D01*
X337145Y78952D01*
X338144D01*
X339144Y77953D01*
Y75953D01*
X338144Y74954D01*
X336145D01*
X335145Y75953D01*
X345142Y79952D02*
X344143Y80952D01*
X342143D01*
X341144Y79952D01*
Y75953D01*
X342143Y74954D01*
X344143D01*
X345142Y75953D01*
X328148Y209873D02*
X327148Y210873D01*
X325149D01*
X324149Y209873D01*
Y205875D01*
X325149Y204875D01*
X327148D01*
X328148Y205875D01*
X330147Y204875D02*
X332147D01*
X331147D01*
Y210873D01*
X330147Y209873D01*
X339144Y210873D02*
X335145D01*
Y207874D01*
X337145Y208874D01*
X338144D01*
X339144Y207874D01*
Y205875D01*
X338144Y204875D01*
X336145D01*
X335145Y205875D01*
X341144Y210873D02*
Y204875D01*
X344143D01*
X345142Y205875D01*
Y206874D01*
X344143Y207874D01*
X341144D01*
X344143D01*
X345142Y208874D01*
Y209873D01*
X344143Y210873D01*
X341144D01*
X328148Y339795D02*
X327148Y340794D01*
X325149D01*
X324149Y339795D01*
Y335796D01*
X325149Y334796D01*
X327148D01*
X328148Y335796D01*
X330147Y334796D02*
X332147D01*
X331147D01*
Y340794D01*
X330147Y339795D01*
X339144Y340794D02*
X335145D01*
Y337795D01*
X337145Y338795D01*
X338144D01*
X339144Y337795D01*
Y335796D01*
X338144Y334796D01*
X336145D01*
X335145Y335796D01*
X341144Y334796D02*
Y338795D01*
X343143Y340794D01*
X345142Y338795D01*
Y334796D01*
Y337795D01*
X341144D01*
X299801Y20503D02*
X298802Y21503D01*
X296802D01*
X295803Y20503D01*
Y16505D01*
X296802Y15505D01*
X298802D01*
X299801Y16505D01*
X301801Y15505D02*
X303800D01*
X302800D01*
Y21503D01*
X301801Y20503D01*
X309798Y15505D02*
Y21503D01*
X306799Y18504D01*
X310798D01*
X316796Y20503D02*
X315796Y21503D01*
X313797D01*
X312797Y20503D01*
Y16505D01*
X313797Y15505D01*
X315796D01*
X316796Y16505D01*
X299801Y150425D02*
X298802Y151424D01*
X296802D01*
X295803Y150425D01*
Y146426D01*
X296802Y145426D01*
X298802D01*
X299801Y146426D01*
X301801Y145426D02*
X303800D01*
X302800D01*
Y151424D01*
X301801Y150425D01*
X309798Y145426D02*
Y151424D01*
X306799Y148425D01*
X310798D01*
X312797Y151424D02*
Y145426D01*
X315796D01*
X316796Y146426D01*
Y147425D01*
X315796Y148425D01*
X312797D01*
X315796D01*
X316796Y149425D01*
Y150425D01*
X315796Y151424D01*
X312797D01*
X299801Y280346D02*
X298802Y281346D01*
X296802D01*
X295803Y280346D01*
Y276347D01*
X296802Y275347D01*
X298802D01*
X299801Y276347D01*
X301801Y275347D02*
X303800D01*
X302800D01*
Y281346D01*
X301801Y280346D01*
X309798Y275347D02*
Y281346D01*
X306799Y278346D01*
X310798D01*
X312797Y275347D02*
Y279346D01*
X314796Y281346D01*
X316796Y279346D01*
Y275347D01*
Y278346D01*
X312797D01*
X265943Y68535D02*
X264943Y69534D01*
X262944D01*
X261944Y68535D01*
Y64536D01*
X262944Y63536D01*
X264943D01*
X265943Y64536D01*
X267942Y63536D02*
X269942D01*
X268942D01*
Y69534D01*
X267942Y68535D01*
X272941D02*
X273940Y69534D01*
X275940D01*
X276940Y68535D01*
Y67535D01*
X275940Y66535D01*
X274940D01*
X275940D01*
X276940Y65536D01*
Y64536D01*
X275940Y63536D01*
X273940D01*
X272941Y64536D01*
X282938Y68535D02*
X281938Y69534D01*
X279939D01*
X278939Y68535D01*
Y64536D01*
X279939Y63536D01*
X281938D01*
X282938Y64536D01*
X265943Y198456D02*
X264943Y199456D01*
X262944D01*
X261944Y198456D01*
Y194457D01*
X262944Y193458D01*
X264943D01*
X265943Y194457D01*
X267942Y193458D02*
X269942D01*
X268942D01*
Y199456D01*
X267942Y198456D01*
X272941D02*
X273940Y199456D01*
X275940D01*
X276940Y198456D01*
Y197456D01*
X275940Y196457D01*
X274940D01*
X275940D01*
X276940Y195457D01*
Y194457D01*
X275940Y193458D01*
X273940D01*
X272941Y194457D01*
X278939Y199456D02*
Y193458D01*
X281938D01*
X282938Y194457D01*
Y195457D01*
X281938Y196457D01*
X278939D01*
X281938D01*
X282938Y197456D01*
Y198456D01*
X281938Y199456D01*
X278939D01*
X265943Y328377D02*
X264943Y329377D01*
X262944D01*
X261944Y328377D01*
Y324379D01*
X262944Y323379D01*
X264943D01*
X265943Y324379D01*
X267942Y323379D02*
X269942D01*
X268942D01*
Y329377D01*
X267942Y328377D01*
X272941D02*
X273940Y329377D01*
X275940D01*
X276940Y328377D01*
Y327378D01*
X275940Y326378D01*
X274940D01*
X275940D01*
X276940Y325378D01*
Y324379D01*
X275940Y323379D01*
X273940D01*
X272941Y324379D01*
X278939Y323379D02*
Y327378D01*
X280938Y329377D01*
X282938Y327378D01*
Y323379D01*
Y326378D01*
X278939D01*
X286190Y43108D02*
X285190Y42109D01*
Y40109D01*
X286190Y39110D01*
X290188D01*
X291188Y40109D01*
Y42109D01*
X290188Y43108D01*
X291188Y45108D02*
Y47107D01*
Y46107D01*
X285190D01*
X286190Y45108D01*
X291188Y54105D02*
Y50106D01*
X287189Y54105D01*
X286190D01*
X285190Y53105D01*
Y51106D01*
X286190Y50106D01*
Y60103D02*
X285190Y59103D01*
Y57104D01*
X286190Y56104D01*
X290188D01*
X291188Y57104D01*
Y59103D01*
X290188Y60103D01*
X286190Y173030D02*
X285190Y172030D01*
Y170031D01*
X286190Y169031D01*
X290188D01*
X291188Y170031D01*
Y172030D01*
X290188Y173030D01*
X291188Y175029D02*
Y177028D01*
Y176029D01*
X285190D01*
X286190Y175029D01*
X291188Y184026D02*
Y180027D01*
X287189Y184026D01*
X286190D01*
X285190Y183026D01*
Y181027D01*
X286190Y180027D01*
X285190Y186026D02*
X291188D01*
Y189024D01*
X290188Y190024D01*
X289189D01*
X288189Y189024D01*
Y186026D01*
Y189024D01*
X287189Y190024D01*
X286190D01*
X285190Y189024D01*
Y186026D01*
X286190Y302951D02*
X285190Y301951D01*
Y299952D01*
X286190Y298952D01*
X290188D01*
X291188Y299952D01*
Y301951D01*
X290188Y302951D01*
X291188Y304950D02*
Y306950D01*
Y305950D01*
X285190D01*
X286190Y304950D01*
X291188Y313947D02*
Y309949D01*
X287189Y313947D01*
X286190D01*
X285190Y312948D01*
Y310948D01*
X286190Y309949D01*
X291188Y315947D02*
X287189D01*
X285190Y317946D01*
X287189Y319945D01*
X291188D01*
X288189D01*
Y315947D01*
X208631Y41246D02*
X207631Y40246D01*
Y38247D01*
X208631Y37247D01*
X212629D01*
X213629Y38247D01*
Y40246D01*
X212629Y41246D01*
X213629Y43245D02*
Y45245D01*
Y44245D01*
X207631D01*
X208631Y43245D01*
X213629Y48244D02*
Y50243D01*
Y49244D01*
X207631D01*
X208631Y48244D01*
Y57241D02*
X207631Y56241D01*
Y54242D01*
X208631Y53242D01*
X212629D01*
X213629Y54242D01*
Y56241D01*
X212629Y57241D01*
X208631Y171167D02*
X207631Y170168D01*
Y168168D01*
X208631Y167169D01*
X212629D01*
X213629Y168168D01*
Y170168D01*
X212629Y171167D01*
X213629Y173167D02*
Y175166D01*
Y174166D01*
X207631D01*
X208631Y173167D01*
X213629Y178165D02*
Y180164D01*
Y179165D01*
X207631D01*
X208631Y178165D01*
X207631Y183163D02*
X213629D01*
Y186162D01*
X212629Y187162D01*
X211630D01*
X210630Y186162D01*
Y183163D01*
Y186162D01*
X209630Y187162D01*
X208631D01*
X207631Y186162D01*
Y183163D01*
X208631Y301089D02*
X207631Y300089D01*
Y298090D01*
X208631Y297090D01*
X212629D01*
X213629Y298090D01*
Y300089D01*
X212629Y301089D01*
X213629Y303088D02*
Y305087D01*
Y304088D01*
X207631D01*
X208631Y303088D01*
X213629Y308086D02*
Y310086D01*
Y309086D01*
X207631D01*
X208631Y308086D01*
X213629Y313085D02*
X209630D01*
X207631Y315084D01*
X209630Y317083D01*
X213629D01*
X210630D01*
Y313085D01*
X85628Y101212D02*
X84628Y102212D01*
X82629D01*
X81629Y101212D01*
Y97213D01*
X82629Y96214D01*
X84628D01*
X85628Y97213D01*
X87628Y96214D02*
X89627D01*
X88627D01*
Y102212D01*
X87628Y101212D01*
X92626D02*
X93625Y102212D01*
X95625D01*
X96624Y101212D01*
Y97213D01*
X95625Y96214D01*
X93625D01*
X92626Y97213D01*
Y101212D01*
X102623D02*
X101623Y102212D01*
X99624D01*
X98624Y101212D01*
Y97213D01*
X99624Y96214D01*
X101623D01*
X102623Y97213D01*
X85628Y231133D02*
X84628Y232133D01*
X82629D01*
X81629Y231133D01*
Y227134D01*
X82629Y226135D01*
X84628D01*
X85628Y227134D01*
X87628Y226135D02*
X89627D01*
X88627D01*
Y232133D01*
X87628Y231133D01*
X92626D02*
X93625Y232133D01*
X95625D01*
X96624Y231133D01*
Y227134D01*
X95625Y226135D01*
X93625D01*
X92626Y227134D01*
Y231133D01*
X98624Y232133D02*
Y226135D01*
X101623D01*
X102623Y227134D01*
Y228134D01*
X101623Y229134D01*
X98624D01*
X101623D01*
X102623Y230134D01*
Y231133D01*
X101623Y232133D01*
X98624D01*
X85628Y361054D02*
X84628Y362054D01*
X82629D01*
X81629Y361054D01*
Y357056D01*
X82629Y356056D01*
X84628D01*
X85628Y357056D01*
X87628Y356056D02*
X89627D01*
X88627D01*
Y362054D01*
X87628Y361054D01*
X92626D02*
X93625Y362054D01*
X95625D01*
X96624Y361054D01*
Y357056D01*
X95625Y356056D01*
X93625D01*
X92626Y357056D01*
Y361054D01*
X98624Y356056D02*
Y360055D01*
X100623Y362054D01*
X102623Y360055D01*
Y356056D01*
Y359055D01*
X98624D01*
X141277Y129558D02*
X140277Y130558D01*
X138278D01*
X137278Y129558D01*
Y125560D01*
X138278Y124560D01*
X140277D01*
X141277Y125560D01*
X143276D02*
X144276Y124560D01*
X146275D01*
X147275Y125560D01*
Y129558D01*
X146275Y130558D01*
X144276D01*
X143276Y129558D01*
Y128559D01*
X144276Y127559D01*
X147275D01*
X153273Y129558D02*
X152273Y130558D01*
X150274D01*
X149274Y129558D01*
Y125560D01*
X150274Y124560D01*
X152273D01*
X153273Y125560D01*
X141277Y259480D02*
X140277Y260479D01*
X138278D01*
X137278Y259480D01*
Y255481D01*
X138278Y254481D01*
X140277D01*
X141277Y255481D01*
X143276D02*
X144276Y254481D01*
X146275D01*
X147275Y255481D01*
Y259480D01*
X146275Y260479D01*
X144276D01*
X143276Y259480D01*
Y258480D01*
X144276Y257480D01*
X147275D01*
X149274Y260479D02*
Y254481D01*
X152273D01*
X153273Y255481D01*
Y256481D01*
X152273Y257480D01*
X149274D01*
X152273D01*
X153273Y258480D01*
Y259480D01*
X152273Y260479D01*
X149274D01*
X141277Y387826D02*
X140277Y388826D01*
X138278D01*
X137278Y387826D01*
Y383827D01*
X138278Y382828D01*
X140277D01*
X141277Y383827D01*
X143276D02*
X144276Y382828D01*
X146275D01*
X147275Y383827D01*
Y387826D01*
X146275Y388826D01*
X144276D01*
X143276Y387826D01*
Y386826D01*
X144276Y385827D01*
X147275D01*
X149274Y382828D02*
Y386826D01*
X151274Y388826D01*
X153273Y386826D01*
Y382828D01*
Y385827D01*
X149274D01*
X141277Y122078D02*
X140277Y123078D01*
X138278D01*
X137278Y122078D01*
Y118079D01*
X138278Y117080D01*
X140277D01*
X141277Y118079D01*
X143276Y122078D02*
X144276Y123078D01*
X146275D01*
X147275Y122078D01*
Y121078D01*
X146275Y120079D01*
X147275Y119079D01*
Y118079D01*
X146275Y117080D01*
X144276D01*
X143276Y118079D01*
Y119079D01*
X144276Y120079D01*
X143276Y121078D01*
Y122078D01*
X144276Y120079D02*
X146275D01*
X153273Y122078D02*
X152273Y123078D01*
X150274D01*
X149274Y122078D01*
Y118079D01*
X150274Y117080D01*
X152273D01*
X153273Y118079D01*
X141277Y251999D02*
X140277Y252999D01*
X138278D01*
X137278Y251999D01*
Y248001D01*
X138278Y247001D01*
X140277D01*
X141277Y248001D01*
X143276Y251999D02*
X144276Y252999D01*
X146275D01*
X147275Y251999D01*
Y251000D01*
X146275Y250000D01*
X147275Y249000D01*
Y248001D01*
X146275Y247001D01*
X144276D01*
X143276Y248001D01*
Y249000D01*
X144276Y250000D01*
X143276Y251000D01*
Y251999D01*
X144276Y250000D02*
X146275D01*
X149274Y252999D02*
Y247001D01*
X152273D01*
X153273Y248001D01*
Y249000D01*
X152273Y250000D01*
X149274D01*
X152273D01*
X153273Y251000D01*
Y251999D01*
X152273Y252999D01*
X149274D01*
X141277Y380739D02*
X140277Y381739D01*
X138278D01*
X137278Y380739D01*
Y376741D01*
X138278Y375741D01*
X140277D01*
X141277Y376741D01*
X143276Y380739D02*
X144276Y381739D01*
X146275D01*
X147275Y380739D01*
Y379740D01*
X146275Y378740D01*
X147275Y377741D01*
Y376741D01*
X146275Y375741D01*
X144276D01*
X143276Y376741D01*
Y377741D01*
X144276Y378740D01*
X143276Y379740D01*
Y380739D01*
X144276Y378740D02*
X146275D01*
X149274Y375741D02*
Y379740D01*
X151274Y381739D01*
X153273Y379740D01*
Y375741D01*
Y378740D01*
X149274D01*
X90883Y92944D02*
X89884Y93944D01*
X87884D01*
X86884Y92944D01*
Y88946D01*
X87884Y87946D01*
X89884D01*
X90883Y88946D01*
X92883Y93944D02*
X96881D01*
Y92944D01*
X92883Y88946D01*
Y87946D01*
X102879Y92944D02*
X101880Y93944D01*
X99880D01*
X98881Y92944D01*
Y88946D01*
X99880Y87946D01*
X101880D01*
X102879Y88946D01*
X90883Y222866D02*
X89884Y223865D01*
X87884D01*
X86884Y222866D01*
Y218867D01*
X87884Y217867D01*
X89884D01*
X90883Y218867D01*
X92883Y223865D02*
X96881D01*
Y222866D01*
X92883Y218867D01*
Y217867D01*
X98881Y223865D02*
Y217867D01*
X101880D01*
X102879Y218867D01*
Y219866D01*
X101880Y220866D01*
X98881D01*
X101880D01*
X102879Y221866D01*
Y222866D01*
X101880Y223865D01*
X98881D01*
X90883Y352787D02*
X89884Y353786D01*
X87884D01*
X86884Y352787D01*
Y348788D01*
X87884Y347788D01*
X89884D01*
X90883Y348788D01*
X92883Y353786D02*
X96881D01*
Y352787D01*
X92883Y348788D01*
Y347788D01*
X98881D02*
Y351787D01*
X100880Y353786D01*
X102879Y351787D01*
Y347788D01*
Y350787D01*
X98881D01*
X184190Y129952D02*
X183191Y130952D01*
X181191D01*
X180192Y129952D01*
Y125953D01*
X181191Y124954D01*
X183191D01*
X184190Y125953D01*
X190188Y130952D02*
X188189Y129952D01*
X186190Y127953D01*
Y125953D01*
X187189Y124954D01*
X189189D01*
X190188Y125953D01*
Y126953D01*
X189189Y127953D01*
X186190D01*
X196186Y129952D02*
X195187Y130952D01*
X193187D01*
X192188Y129952D01*
Y125953D01*
X193187Y124954D01*
X195187D01*
X196186Y125953D01*
X184190Y259873D02*
X183191Y260873D01*
X181191D01*
X180192Y259873D01*
Y255875D01*
X181191Y254875D01*
X183191D01*
X184190Y255875D01*
X190188Y260873D02*
X188189Y259873D01*
X186190Y257874D01*
Y255875D01*
X187189Y254875D01*
X189189D01*
X190188Y255875D01*
Y256874D01*
X189189Y257874D01*
X186190D01*
X192188Y260873D02*
Y254875D01*
X195187D01*
X196186Y255875D01*
Y256874D01*
X195187Y257874D01*
X192188D01*
X195187D01*
X196186Y258874D01*
Y259873D01*
X195187Y260873D01*
X192188D01*
X183797Y388220D02*
X182797Y389219D01*
X180798D01*
X179798Y388220D01*
Y384221D01*
X180798Y383221D01*
X182797D01*
X183797Y384221D01*
X189795Y389219D02*
X187795Y388220D01*
X185796Y386221D01*
Y384221D01*
X186796Y383221D01*
X188795D01*
X189795Y384221D01*
Y385221D01*
X188795Y386221D01*
X185796D01*
X191794Y383221D02*
Y387220D01*
X193793Y389219D01*
X195793Y387220D01*
Y383221D01*
Y386221D01*
X191794D01*
X184190Y122078D02*
X183191Y123078D01*
X181191D01*
X180192Y122078D01*
Y118079D01*
X181191Y117080D01*
X183191D01*
X184190Y118079D01*
X190188Y123078D02*
X186190D01*
Y120079D01*
X188189Y121078D01*
X189189D01*
X190188Y120079D01*
Y118079D01*
X189189Y117080D01*
X187189D01*
X186190Y118079D01*
X196186Y122078D02*
X195187Y123078D01*
X193187D01*
X192188Y122078D01*
Y118079D01*
X193187Y117080D01*
X195187D01*
X196186Y118079D01*
X184190Y251999D02*
X183191Y252999D01*
X181191D01*
X180192Y251999D01*
Y248001D01*
X181191Y247001D01*
X183191D01*
X184190Y248001D01*
X190188Y252999D02*
X186190D01*
Y250000D01*
X188189Y251000D01*
X189189D01*
X190188Y250000D01*
Y248001D01*
X189189Y247001D01*
X187189D01*
X186190Y248001D01*
X192188Y252999D02*
Y247001D01*
X195187D01*
X196186Y248001D01*
Y249000D01*
X195187Y250000D01*
X192188D01*
X195187D01*
X196186Y251000D01*
Y251999D01*
X195187Y252999D01*
X192188D01*
X183797Y380739D02*
X182797Y381739D01*
X180798D01*
X179798Y380739D01*
Y376741D01*
X180798Y375741D01*
X182797D01*
X183797Y376741D01*
X189795Y381739D02*
X185796D01*
Y378740D01*
X187795Y379740D01*
X188795D01*
X189795Y378740D01*
Y376741D01*
X188795Y375741D01*
X186796D01*
X185796Y376741D01*
X191794Y375741D02*
Y379740D01*
X193793Y381739D01*
X195793Y379740D01*
Y375741D01*
Y378740D01*
X191794D01*
X88158Y60962D02*
X87159Y59962D01*
Y57963D01*
X88158Y56963D01*
X92157D01*
X93156Y57963D01*
Y59962D01*
X92157Y60962D01*
X93156Y65960D02*
X87159D01*
X90158Y62961D01*
Y66960D01*
X88158Y72958D02*
X87159Y71958D01*
Y69959D01*
X88158Y68959D01*
X92157D01*
X93156Y69959D01*
Y71958D01*
X92157Y72958D01*
X88158Y190883D02*
X87159Y189883D01*
Y187884D01*
X88158Y186884D01*
X92157D01*
X93156Y187884D01*
Y189883D01*
X92157Y190883D01*
X93156Y195882D02*
X87159D01*
X90158Y192883D01*
Y196881D01*
X87159Y198881D02*
X93156D01*
Y201880D01*
X92157Y202879D01*
X91157D01*
X90158Y201880D01*
Y198881D01*
Y201880D01*
X89158Y202879D01*
X88158D01*
X87159Y201880D01*
Y198881D01*
X88158Y320804D02*
X87159Y319805D01*
Y317805D01*
X88158Y316806D01*
X92157D01*
X93156Y317805D01*
Y319805D01*
X92157Y320804D01*
X93156Y325803D02*
X87159D01*
X90158Y322804D01*
Y326802D01*
X93156Y328802D02*
X89158D01*
X87159Y330801D01*
X89158Y332801D01*
X93156D01*
X90158D01*
Y328802D01*
X49575Y60568D02*
X48576Y59569D01*
Y57569D01*
X49575Y56569D01*
X53574D01*
X54574Y57569D01*
Y59569D01*
X53574Y60568D01*
X49575Y62568D02*
X48576Y63567D01*
Y65567D01*
X49575Y66566D01*
X50575D01*
X51575Y65567D01*
Y64567D01*
Y65567D01*
X52574Y66566D01*
X53574D01*
X54574Y65567D01*
Y63567D01*
X53574Y62568D01*
X49575Y72564D02*
X48576Y71565D01*
Y69565D01*
X49575Y68566D01*
X53574D01*
X54574Y69565D01*
Y71565D01*
X53574Y72564D01*
X49575Y190489D02*
X48576Y189490D01*
Y187490D01*
X49575Y186491D01*
X53574D01*
X54574Y187490D01*
Y189490D01*
X53574Y190489D01*
X49575Y192489D02*
X48576Y193489D01*
Y195488D01*
X49575Y196488D01*
X50575D01*
X51575Y195488D01*
Y194488D01*
Y195488D01*
X52574Y196488D01*
X53574D01*
X54574Y195488D01*
Y193489D01*
X53574Y192489D01*
X48576Y198487D02*
X54574D01*
Y201486D01*
X53574Y202486D01*
X52574D01*
X51575Y201486D01*
Y198487D01*
Y201486D01*
X50575Y202486D01*
X49575D01*
X48576Y201486D01*
Y198487D01*
X49575Y320411D02*
X48576Y319411D01*
Y317412D01*
X49575Y316412D01*
X53574D01*
X54574Y317412D01*
Y319411D01*
X53574Y320411D01*
X49575Y322410D02*
X48576Y323410D01*
Y325409D01*
X49575Y326409D01*
X50575D01*
X51575Y325409D01*
Y324410D01*
Y325409D01*
X52574Y326409D01*
X53574D01*
X54574Y325409D01*
Y323410D01*
X53574Y322410D01*
X54574Y328408D02*
X50575D01*
X48576Y330408D01*
X50575Y332407D01*
X54574D01*
X51575D01*
Y328408D01*
X107419Y122472D02*
X106419Y123471D01*
X104420D01*
X103420Y122472D01*
Y118473D01*
X104420Y117473D01*
X106419D01*
X107419Y118473D01*
X113417Y117473D02*
X109418D01*
X113417Y121472D01*
Y122472D01*
X112417Y123471D01*
X110418D01*
X109418Y122472D01*
X119415D02*
X118415Y123471D01*
X116416D01*
X115416Y122472D01*
Y118473D01*
X116416Y117473D01*
X118415D01*
X119415Y118473D01*
X107419Y252393D02*
X106419Y253393D01*
X104420D01*
X103420Y252393D01*
Y248394D01*
X104420Y247395D01*
X106419D01*
X107419Y248394D01*
X113417Y247395D02*
X109418D01*
X113417Y251393D01*
Y252393D01*
X112417Y253393D01*
X110418D01*
X109418Y252393D01*
X115416Y253393D02*
Y247395D01*
X118415D01*
X119415Y248394D01*
Y249394D01*
X118415Y250394D01*
X115416D01*
X118415D01*
X119415Y251393D01*
Y252393D01*
X118415Y253393D01*
X115416D01*
X107419Y379558D02*
X106419Y380558D01*
X104420D01*
X103420Y379558D01*
Y375560D01*
X104420Y374560D01*
X106419D01*
X107419Y375560D01*
X113417Y374560D02*
X109418D01*
X113417Y378559D01*
Y379558D01*
X112417Y380558D01*
X110418D01*
X109418Y379558D01*
X115416Y374560D02*
Y378559D01*
X117415Y380558D01*
X119415Y378559D01*
Y374560D01*
Y377559D01*
X115416D01*
X108706Y130346D02*
X107706Y131345D01*
X105707D01*
X104707Y130346D01*
Y126347D01*
X105707Y125347D01*
X107706D01*
X108706Y126347D01*
X110705Y125347D02*
X112705D01*
X111705D01*
Y131345D01*
X110705Y130346D01*
X119702D02*
X118703Y131345D01*
X116703D01*
X115704Y130346D01*
Y126347D01*
X116703Y125347D01*
X118703D01*
X119702Y126347D01*
X108706Y260267D02*
X107706Y261267D01*
X105707D01*
X104707Y260267D01*
Y256268D01*
X105707Y255269D01*
X107706D01*
X108706Y256268D01*
X110705Y255269D02*
X112705D01*
X111705D01*
Y261267D01*
X110705Y260267D01*
X115704Y261267D02*
Y255269D01*
X118703D01*
X119702Y256268D01*
Y257268D01*
X118703Y258268D01*
X115704D01*
X118703D01*
X119702Y259267D01*
Y260267D01*
X118703Y261267D01*
X115704D01*
X108706Y387432D02*
X107706Y388432D01*
X105707D01*
X104707Y387432D01*
Y383434D01*
X105707Y382434D01*
X107706D01*
X108706Y383434D01*
X110705Y382434D02*
X112705D01*
X111705D01*
Y388432D01*
X110705Y387432D01*
X115704Y382434D02*
Y386433D01*
X117703Y388432D01*
X119702Y386433D01*
Y382434D01*
Y385433D01*
X115704D01*
X126135Y90578D02*
X132133D01*
Y93577D01*
X131133Y94577D01*
X130133D01*
X129134Y93577D01*
Y90578D01*
Y93577D01*
X128134Y94577D01*
X127135D01*
X126135Y93577D01*
Y90578D01*
X127135Y100575D02*
X126135Y99575D01*
Y97576D01*
X127135Y96576D01*
X128134D01*
X129134Y97576D01*
Y99575D01*
X130133Y100575D01*
X131133D01*
X132133Y99575D01*
Y97576D01*
X131133Y96576D01*
X132133Y106573D02*
Y102575D01*
X128134Y106573D01*
X127135D01*
X126135Y105573D01*
Y103574D01*
X127135Y102575D01*
Y112571D02*
X126135Y111572D01*
Y109572D01*
X127135Y108572D01*
X131133D01*
X132133Y109572D01*
Y111572D01*
X131133Y112571D01*
X126135Y220500D02*
X132133D01*
Y223499D01*
X131133Y224498D01*
X130133D01*
X129134Y223499D01*
Y220500D01*
Y223499D01*
X128134Y224498D01*
X127135D01*
X126135Y223499D01*
Y220500D01*
X127135Y230496D02*
X126135Y229497D01*
Y227497D01*
X127135Y226498D01*
X128134D01*
X129134Y227497D01*
Y229497D01*
X130133Y230496D01*
X131133D01*
X132133Y229497D01*
Y227497D01*
X131133Y226498D01*
X132133Y236494D02*
Y232496D01*
X128134Y236494D01*
X127135D01*
X126135Y235495D01*
Y233495D01*
X127135Y232496D01*
X126135Y238494D02*
X132133D01*
Y241493D01*
X131133Y242493D01*
X130133D01*
X129134Y241493D01*
Y238494D01*
Y241493D01*
X128134Y242493D01*
X127135D01*
X126135Y241493D01*
Y238494D01*
Y350421D02*
X132133D01*
Y353420D01*
X131133Y354420D01*
X130133D01*
X129134Y353420D01*
Y350421D01*
Y353420D01*
X128134Y354420D01*
X127135D01*
X126135Y353420D01*
Y350421D01*
X127135Y360418D02*
X126135Y359418D01*
Y357419D01*
X127135Y356419D01*
X128134D01*
X129134Y357419D01*
Y359418D01*
X130133Y360418D01*
X131133D01*
X132133Y359418D01*
Y357419D01*
X131133Y356419D01*
X132133Y366416D02*
Y362417D01*
X128134Y366416D01*
X127135D01*
X126135Y365416D01*
Y363417D01*
X127135Y362417D01*
X132133Y368415D02*
X128134D01*
X126135Y370414D01*
X128134Y372414D01*
X132133D01*
X129134D01*
Y368415D01*
X155269Y90684D02*
X161267D01*
Y93683D01*
X160267Y94683D01*
X159267D01*
X158268Y93683D01*
Y90684D01*
Y93683D01*
X157268Y94683D01*
X156268D01*
X155269Y93683D01*
Y90684D01*
X156268Y100681D02*
X155269Y99682D01*
Y97682D01*
X156268Y96683D01*
X157268D01*
X158268Y97682D01*
Y99682D01*
X159267Y100681D01*
X160267D01*
X161267Y99682D01*
Y97682D01*
X160267Y96683D01*
X161267Y102681D02*
Y104680D01*
Y103680D01*
X155269D01*
X156268Y102681D01*
Y111678D02*
X155269Y110678D01*
Y108679D01*
X156268Y107679D01*
X160267D01*
X161267Y108679D01*
Y110678D01*
X160267Y111678D01*
X155269Y220606D02*
X161267D01*
Y223605D01*
X160267Y224605D01*
X159267D01*
X158268Y223605D01*
Y220606D01*
Y223605D01*
X157268Y224605D01*
X156268D01*
X155269Y223605D01*
Y220606D01*
X156268Y230603D02*
X155269Y229603D01*
Y227604D01*
X156268Y226604D01*
X157268D01*
X158268Y227604D01*
Y229603D01*
X159267Y230603D01*
X160267D01*
X161267Y229603D01*
Y227604D01*
X160267Y226604D01*
X161267Y232602D02*
Y234601D01*
Y233602D01*
X155269D01*
X156268Y232602D01*
X155269Y237600D02*
X161267D01*
Y240599D01*
X160267Y241599D01*
X159267D01*
X158268Y240599D01*
Y237600D01*
Y240599D01*
X157268Y241599D01*
X156268D01*
X155269Y240599D01*
Y237600D01*
X155269Y350527D02*
X161267D01*
Y353526D01*
X160267Y354526D01*
X159267D01*
X158268Y353526D01*
Y350527D01*
Y353526D01*
X157268Y354526D01*
X156268D01*
X155269Y353526D01*
Y350527D01*
X156268Y360524D02*
X155269Y359524D01*
Y357525D01*
X156268Y356525D01*
X157268D01*
X158268Y357525D01*
Y359524D01*
X159267Y360524D01*
X160267D01*
X161267Y359524D01*
Y357525D01*
X160267Y356525D01*
X161267Y362523D02*
Y364523D01*
Y363523D01*
X155269D01*
X156268Y362523D01*
X161267Y367522D02*
X157268D01*
X155269Y369521D01*
X157268Y371520D01*
X161267D01*
X158268D01*
Y367522D01*
X16328Y388847D02*
X20327Y382849D01*
Y388847D02*
X16328Y382849D01*
X22326Y387847D02*
X23326Y388847D01*
X25325D01*
X26325Y387847D01*
Y386847D01*
X25325Y385848D01*
X24326D01*
X25325D01*
X26325Y384848D01*
Y383849D01*
X25325Y382849D01*
X23326D01*
X22326Y383849D01*
X246484Y77408D02*
X250483D01*
X248483D01*
Y71410D01*
X252482D02*
Y77408D01*
X255481D01*
X256481Y76409D01*
Y74410D01*
X255481Y73410D01*
X252482D01*
X262479Y77408D02*
X260479Y76409D01*
X258480Y74410D01*
Y72410D01*
X259480Y71410D01*
X261479D01*
X262479Y72410D01*
Y73410D01*
X261479Y74410D01*
X258480D01*
X268477Y76409D02*
X267477Y77408D01*
X265478D01*
X264478Y76409D01*
Y72410D01*
X265478Y71410D01*
X267477D01*
X268477Y72410D01*
X246484Y207330D02*
X250483D01*
X248483D01*
Y201332D01*
X252482D02*
Y207330D01*
X255481D01*
X256481Y206330D01*
Y204331D01*
X255481Y203331D01*
X252482D01*
X262479Y207330D02*
X260479Y206330D01*
X258480Y204331D01*
Y202331D01*
X259480Y201332D01*
X261479D01*
X262479Y202331D01*
Y203331D01*
X261479Y204331D01*
X258480D01*
X264478Y207330D02*
Y201332D01*
X267477D01*
X268477Y202331D01*
Y203331D01*
X267477Y204331D01*
X264478D01*
X267477D01*
X268477Y205330D01*
Y206330D01*
X267477Y207330D01*
X264478D01*
X246484Y337251D02*
X250483D01*
X248483D01*
Y331253D01*
X252482D02*
Y337251D01*
X255481D01*
X256481Y336251D01*
Y334252D01*
X255481Y333252D01*
X252482D01*
X262479Y337251D02*
X260479Y336251D01*
X258480Y334252D01*
Y332253D01*
X259480Y331253D01*
X261479D01*
X262479Y332253D01*
Y333252D01*
X261479Y334252D01*
X258480D01*
X264478Y331253D02*
Y335252D01*
X266477Y337251D01*
X268477Y335252D01*
Y331253D01*
Y334252D01*
X264478D01*
X-19291Y290401D02*
X-23290D01*
Y287402D01*
X-21291D01*
X-23290D01*
Y284403D01*
X-17292D02*
X-15293D01*
X-16292D01*
Y290401D01*
X-17292Y289401D01*
X-20866Y121260D02*
Y127258D01*
X-17867D01*
X-16867Y126258D01*
Y124259D01*
X-17867Y123259D01*
X-20866D01*
X-18867D02*
X-16867Y121260D01*
X-10869D02*
X-14868D01*
X-10869Y125259D01*
Y126258D01*
X-11869Y127258D01*
X-13868D01*
X-14868Y126258D01*
X-32677Y121260D02*
Y127258D01*
X-29678D01*
X-28679Y126258D01*
Y124259D01*
X-29678Y123259D01*
X-32677D01*
X-30678D02*
X-28679Y121260D01*
X-26679D02*
X-24680D01*
X-25679D01*
Y127258D01*
X-26679Y126258D01*
D17*
X22315Y85480D02*
Y87146D01*
Y86313D01*
X17317D01*
X18150Y85480D01*
X22315Y92978D02*
Y89646D01*
X18983Y92978D01*
X18150D01*
X17317Y92145D01*
Y90479D01*
X18150Y89646D01*
X32315Y89480D02*
Y91146D01*
Y90313D01*
X27317D01*
X28150Y89480D01*
X32315Y85480D02*
Y87146D01*
Y86313D01*
X27317D01*
X28150Y85480D01*
X32315Y17480D02*
Y19146D01*
Y18313D01*
X27317D01*
X28150Y17480D01*
X22315Y20813D02*
Y17480D01*
X18983Y20813D01*
X18150D01*
X17317Y19979D01*
Y18313D01*
X18150Y17480D01*
X22709Y306876D02*
Y303543D01*
X19376Y306876D01*
X18543D01*
X17710Y306043D01*
Y304376D01*
X18543Y303543D01*
X32709D02*
Y305209D01*
Y304376D01*
X27710D01*
X28543Y303543D01*
X32709Y371543D02*
Y373209D01*
Y372376D01*
X27710D01*
X28543Y371543D01*
X32709Y375543D02*
Y377209D01*
Y376376D01*
X27710D01*
X28543Y375543D01*
X22709Y371543D02*
Y373209D01*
Y372376D01*
X17710D01*
X18543Y371543D01*
X22709Y379041D02*
Y375709D01*
X19376Y379041D01*
X18543D01*
X17710Y378208D01*
Y376542D01*
X18543Y375709D01*
M02*
