G04*
G04 #@! TF.GenerationSoftware,Altium Limited,Altium Designer,22.4.2 (48)*
G04*
G04 Layer_Physical_Order=3*
G04 Layer_Color=16440176*
%FSLAX25Y25*%
%MOIN*%
G70*
G04*
G04 #@! TF.SameCoordinates,7E99259A-5992-410F-866F-3BC1187B2F82*
G04*
G04*
G04 #@! TF.FilePolarity,Positive*
G04*
G01*
G75*
%ADD60C,0.01968*%
%ADD64C,0.05906*%
%ADD65R,0.05906X0.05906*%
%ADD66C,0.02362*%
G36*
X511811Y379930D02*
X510526Y378645D01*
X509458Y377046D01*
X508722Y375269D01*
X508347Y373383D01*
Y371460D01*
X508722Y369573D01*
X509458Y367796D01*
X510526Y366197D01*
X511811Y364912D01*
Y348760D01*
X508799D01*
Y341319D01*
X511811D01*
Y337796D01*
X511084Y337601D01*
X510235Y337111D01*
X509543Y336418D01*
X509053Y335570D01*
X508799Y334624D01*
Y333644D01*
X509053Y332698D01*
X509543Y331849D01*
X510235Y331157D01*
X511084Y330667D01*
X511811Y330472D01*
Y326890D01*
X511084Y326695D01*
X510235Y326205D01*
X509543Y325513D01*
X509053Y324664D01*
X508799Y323718D01*
Y322739D01*
X509053Y321792D01*
X509543Y320944D01*
X510235Y320251D01*
X511084Y319761D01*
X511811Y319566D01*
Y315985D01*
X511084Y315790D01*
X510235Y315300D01*
X509543Y314607D01*
X509053Y313759D01*
X508799Y312813D01*
Y311833D01*
X509053Y310887D01*
X509543Y310038D01*
X510235Y309346D01*
X511084Y308856D01*
X511811Y308661D01*
Y305079D01*
X511084Y304884D01*
X510235Y304395D01*
X509543Y303702D01*
X509053Y302853D01*
X508799Y301907D01*
Y300927D01*
X509053Y299981D01*
X509543Y299133D01*
X510235Y298440D01*
X511084Y297950D01*
X511811Y297756D01*
Y281544D01*
X510526Y280259D01*
X509458Y278660D01*
X508722Y276883D01*
X508347Y274997D01*
Y273074D01*
X508722Y271187D01*
X509458Y269411D01*
X510526Y267811D01*
X511811Y266527D01*
Y263779D01*
X106266D01*
X106060Y264278D01*
X105616Y264721D01*
X105038Y264961D01*
X104411D01*
X103832Y264721D01*
X103389Y264278D01*
X103183Y263779D01*
X37232D01*
Y328425D01*
X37125Y328963D01*
X36820Y329419D01*
X33861Y332378D01*
X34055Y333103D01*
Y333984D01*
X33827Y334835D01*
X33386Y335598D01*
X32763Y336221D01*
X32000Y336662D01*
X31149Y336890D01*
X30268D01*
X29417Y336662D01*
X28654Y336221D01*
X28031Y335598D01*
X27590Y334835D01*
X27362Y333984D01*
Y333103D01*
X27590Y332252D01*
X28031Y331488D01*
X28654Y330866D01*
X29417Y330425D01*
X30268Y330197D01*
X31149D01*
X31874Y330391D01*
X34422Y327843D01*
Y324136D01*
X34028Y324085D01*
X33827Y324835D01*
X33386Y325598D01*
X32763Y326221D01*
X32000Y326662D01*
X31149Y326890D01*
X30268D01*
X29417Y326662D01*
X28654Y326221D01*
X28031Y325598D01*
X27590Y324835D01*
X27362Y323984D01*
Y323103D01*
X27590Y322252D01*
X28031Y321488D01*
X28654Y320866D01*
X29417Y320425D01*
X30268Y320197D01*
X31149D01*
X32000Y320425D01*
X32763Y320866D01*
X33386Y321488D01*
X33827Y322252D01*
X34028Y323002D01*
X34422Y322950D01*
Y316955D01*
X34055Y316890D01*
X34028Y316890D01*
X27362D01*
Y310197D01*
X34028D01*
X34055Y310197D01*
X34422Y310132D01*
Y295420D01*
X34028Y295342D01*
X34012Y295380D01*
X33569Y295823D01*
X32990Y296063D01*
X32364D01*
X31785Y295823D01*
X31342Y295380D01*
X31102Y294801D01*
Y294175D01*
X31342Y293596D01*
X31785Y293153D01*
X32364Y292913D01*
X32990D01*
X33569Y293153D01*
X34012Y293596D01*
X34028Y293635D01*
X34422Y293556D01*
Y263779D01*
X19685D01*
Y309418D01*
X19997Y309658D01*
X20118Y309626D01*
Y313543D01*
Y317461D01*
X19997Y317429D01*
X19685Y317668D01*
Y320030D01*
X19997Y320269D01*
X20268Y320197D01*
X21149D01*
X22000Y320425D01*
X22763Y320866D01*
X23386Y321488D01*
X23827Y322252D01*
X24055Y323103D01*
Y323984D01*
X23827Y324835D01*
X23386Y325598D01*
X22763Y326221D01*
X22000Y326662D01*
X21149Y326890D01*
X20268D01*
X19997Y326817D01*
X19685Y327057D01*
Y330030D01*
X19997Y330269D01*
X20268Y330197D01*
X21149D01*
X22000Y330425D01*
X22763Y330866D01*
X23386Y331488D01*
X23827Y332252D01*
X24055Y333103D01*
Y333984D01*
X23827Y334835D01*
X23386Y335598D01*
X22763Y336221D01*
X22000Y336662D01*
X21149Y336890D01*
X20268D01*
X19997Y336817D01*
X19685Y337057D01*
Y340030D01*
X19997Y340269D01*
X20268Y340197D01*
X21149D01*
X22000Y340425D01*
X22763Y340865D01*
X23386Y341489D01*
X23827Y342252D01*
X24055Y343103D01*
Y343984D01*
X23827Y344835D01*
X23386Y345598D01*
X22763Y346221D01*
X22000Y346662D01*
X21149Y346890D01*
X20268D01*
X19997Y346817D01*
X19685Y347057D01*
Y350030D01*
X19997Y350269D01*
X20268Y350197D01*
X21149D01*
X22000Y350425D01*
X22763Y350866D01*
X23386Y351488D01*
X23827Y352252D01*
X24055Y353103D01*
Y353984D01*
X23827Y354835D01*
X23386Y355598D01*
X22763Y356221D01*
X22000Y356662D01*
X21149Y356890D01*
X20268D01*
X19997Y356817D01*
X19685Y357057D01*
Y360030D01*
X19997Y360269D01*
X20268Y360197D01*
X21149D01*
X22000Y360425D01*
X22763Y360865D01*
X23386Y361489D01*
X23827Y362252D01*
X24055Y363103D01*
Y363984D01*
X23827Y364835D01*
X23386Y365598D01*
X22763Y366221D01*
X22000Y366662D01*
X21149Y366890D01*
X20268D01*
X19997Y366817D01*
X19685Y367057D01*
Y369855D01*
X75840D01*
X75918Y369461D01*
X75880Y369445D01*
X75437Y369002D01*
X75197Y368424D01*
Y367797D01*
X75437Y367218D01*
X75880Y366775D01*
X76458Y366535D01*
X77085D01*
X77664Y366775D01*
X78107Y367218D01*
X78347Y367797D01*
Y368424D01*
X78107Y369002D01*
X77664Y369445D01*
X77625Y369461D01*
X77704Y369855D01*
X106942D01*
X107020Y369461D01*
X106982Y369445D01*
X106539Y369002D01*
X106299Y368424D01*
Y367797D01*
X106539Y367218D01*
X106982Y366775D01*
X107452Y366581D01*
X107493Y366180D01*
X107491Y366171D01*
X107080Y366000D01*
X106637Y365557D01*
X106398Y364979D01*
Y364352D01*
X106637Y363773D01*
X107080Y363330D01*
X107659Y363091D01*
X108286D01*
X108864Y363330D01*
X109308Y363773D01*
X109547Y364352D01*
Y364979D01*
X109308Y365557D01*
X108864Y366000D01*
X108395Y366195D01*
X108353Y366595D01*
X108355Y366605D01*
X108766Y366775D01*
X109209Y367218D01*
X109449Y367797D01*
Y368424D01*
X109209Y369002D01*
X108766Y369445D01*
X108728Y369461D01*
X108806Y369855D01*
X137466D01*
X137876Y369685D01*
X138502D01*
X139081Y369925D01*
X139524Y370368D01*
X139764Y370947D01*
Y371573D01*
X139524Y372152D01*
X139081Y372595D01*
X138502Y372835D01*
X137876D01*
X137466Y372665D01*
X115105D01*
X115027Y373059D01*
X115065Y373074D01*
X115508Y373517D01*
X115748Y374096D01*
Y374723D01*
X115508Y375302D01*
X115065Y375745D01*
X114487Y375984D01*
X113860D01*
X113281Y375745D01*
X112838Y375302D01*
X112598Y374723D01*
Y374096D01*
X112838Y373517D01*
X113281Y373074D01*
X113320Y373059D01*
X113241Y372665D01*
X19685D01*
Y389764D01*
X511811D01*
Y379930D01*
D02*
G37*
G36*
Y253552D02*
X510526Y252267D01*
X509458Y250668D01*
X508722Y248891D01*
X508347Y247005D01*
Y245082D01*
X508722Y243195D01*
X509458Y241418D01*
X510526Y239819D01*
X511811Y238534D01*
Y222382D01*
X508799D01*
Y214941D01*
X511811D01*
Y211418D01*
X511084Y211223D01*
X510235Y210733D01*
X509543Y210040D01*
X509053Y209192D01*
X508799Y208246D01*
Y207266D01*
X509053Y206320D01*
X509543Y205471D01*
X510235Y204779D01*
X511084Y204289D01*
X511811Y204094D01*
Y200512D01*
X511084Y200317D01*
X510235Y199828D01*
X509543Y199135D01*
X509053Y198286D01*
X508799Y197340D01*
Y196361D01*
X509053Y195414D01*
X509543Y194566D01*
X510235Y193873D01*
X511084Y193384D01*
X511811Y193189D01*
Y189607D01*
X511084Y189412D01*
X510235Y188922D01*
X509543Y188229D01*
X509053Y187381D01*
X508799Y186435D01*
Y185455D01*
X509053Y184509D01*
X509543Y183660D01*
X510235Y182968D01*
X511084Y182478D01*
X511811Y182283D01*
Y178701D01*
X511084Y178506D01*
X510235Y178016D01*
X509543Y177324D01*
X509053Y176475D01*
X508799Y175529D01*
Y174550D01*
X509053Y173603D01*
X509543Y172755D01*
X510235Y172062D01*
X511084Y171572D01*
X511811Y171378D01*
Y155166D01*
X510526Y153882D01*
X509458Y152282D01*
X508722Y150505D01*
X508347Y148619D01*
Y146696D01*
X508722Y144809D01*
X509458Y143033D01*
X510526Y141433D01*
X511811Y140149D01*
Y133858D01*
X122459D01*
X119534Y136784D01*
X174803D01*
X175341Y136891D01*
X175797Y137196D01*
X199301Y160700D01*
X199711Y160870D01*
X200154Y161313D01*
X200394Y161891D01*
Y162518D01*
X200154Y163097D01*
X199711Y163540D01*
X199132Y163779D01*
X198506D01*
X197927Y163540D01*
X197484Y163097D01*
X197314Y162687D01*
X174221Y139594D01*
X44488D01*
X43951Y139487D01*
X43495Y139182D01*
X38171Y133858D01*
X21260D01*
Y134171D01*
X21020Y134750D01*
X20577Y135193D01*
X19998Y135433D01*
X19685D01*
Y180511D01*
X20159Y180315D01*
X20786D01*
X21364Y180555D01*
X21808Y180998D01*
X22047Y181577D01*
Y182203D01*
X21808Y182782D01*
X21364Y183225D01*
X20786Y183465D01*
X20159D01*
X19685Y183268D01*
Y255906D01*
X40533D01*
X56093Y240345D01*
X56549Y240041D01*
X57087Y239934D01*
X137466D01*
X137876Y239764D01*
X138502D01*
X139081Y240003D01*
X139524Y240446D01*
X139764Y241025D01*
Y241652D01*
X139524Y242231D01*
X139081Y242674D01*
X138502Y242913D01*
X137876D01*
X137466Y242743D01*
X57669D01*
X44507Y255906D01*
X294470D01*
X321330Y229046D01*
X321500Y228636D01*
X321943Y228192D01*
X322521Y227953D01*
X323148D01*
X323727Y228192D01*
X324170Y228636D01*
X324410Y229214D01*
Y229841D01*
X324170Y230420D01*
X323727Y230863D01*
X323317Y231032D01*
X298444Y255906D01*
X342716D01*
X342520Y255431D01*
Y254805D01*
X342759Y254226D01*
X343202Y253783D01*
X343781Y253543D01*
X344408D01*
X344987Y253783D01*
X345429Y254226D01*
X345669Y254805D01*
Y255431D01*
X345473Y255906D01*
X511811D01*
Y253552D01*
D02*
G37*
G36*
X118485Y133858D02*
X42144D01*
X45070Y136784D01*
X115560D01*
X118485Y133858D01*
D02*
G37*
G36*
X510326Y125591D02*
X509458Y124290D01*
X508722Y122513D01*
X508347Y120627D01*
Y118704D01*
X508722Y116817D01*
X509458Y115041D01*
X510526Y113441D01*
X511811Y112156D01*
Y96004D01*
X508799D01*
Y88563D01*
X511811D01*
Y85040D01*
X511084Y84845D01*
X510235Y84355D01*
X509543Y83662D01*
X509053Y82814D01*
X508799Y81868D01*
Y80888D01*
X509053Y79942D01*
X509543Y79093D01*
X510235Y78401D01*
X511084Y77911D01*
X511811Y77716D01*
Y74134D01*
X511084Y73939D01*
X510235Y73450D01*
X509543Y72757D01*
X509053Y71908D01*
X508799Y70962D01*
Y69983D01*
X509053Y69036D01*
X509543Y68188D01*
X510235Y67495D01*
X511084Y67005D01*
X511811Y66811D01*
Y63229D01*
X511084Y63034D01*
X510235Y62544D01*
X509543Y61851D01*
X509053Y61003D01*
X508799Y60057D01*
Y59077D01*
X509053Y58131D01*
X509543Y57283D01*
X510235Y56590D01*
X511084Y56100D01*
X511811Y55905D01*
Y52323D01*
X511084Y52128D01*
X510235Y51639D01*
X509543Y50946D01*
X509053Y50098D01*
X508799Y49151D01*
Y48172D01*
X509053Y47225D01*
X509543Y46377D01*
X510235Y45684D01*
X511084Y45195D01*
X511811Y45000D01*
Y28788D01*
X510526Y27504D01*
X509458Y25904D01*
X508722Y24127D01*
X508347Y22241D01*
Y20318D01*
X508722Y18431D01*
X509458Y16655D01*
X510526Y15055D01*
X511811Y13771D01*
Y3937D01*
X19685D01*
Y23989D01*
X19874Y24134D01*
X20755D01*
X21607Y24362D01*
X22370Y24803D01*
X22993Y25425D01*
X23433Y26189D01*
X23661Y27040D01*
Y27921D01*
X23433Y28772D01*
X22993Y29535D01*
X22370Y30158D01*
X21607Y30599D01*
X20755Y30827D01*
X19874D01*
X19685Y30972D01*
Y33989D01*
X19874Y34134D01*
X20755D01*
X21607Y34362D01*
X22370Y34802D01*
X22993Y35425D01*
X23433Y36189D01*
X23661Y37040D01*
Y37921D01*
X23433Y38772D01*
X22993Y39535D01*
X22370Y40158D01*
X21607Y40599D01*
X20755Y40827D01*
X19874D01*
X19685Y40972D01*
Y43989D01*
X19874Y44134D01*
X20755D01*
X21607Y44362D01*
X22370Y44802D01*
X22993Y45426D01*
X23433Y46189D01*
X23661Y47040D01*
Y47921D01*
X23433Y48772D01*
X22993Y49535D01*
X22370Y50158D01*
X21607Y50599D01*
X20755Y50827D01*
X19874D01*
X19685Y50972D01*
Y53989D01*
X19874Y54134D01*
X20755D01*
X21607Y54362D01*
X22370Y54803D01*
X22993Y55426D01*
X23433Y56189D01*
X23661Y57040D01*
Y57921D01*
X23433Y58772D01*
X22993Y59535D01*
X22370Y60158D01*
X21607Y60599D01*
X20755Y60827D01*
X19874D01*
X19685Y60972D01*
Y63989D01*
X19874Y64134D01*
X20755D01*
X21607Y64362D01*
X22370Y64802D01*
X22993Y65425D01*
X23433Y66189D01*
X23661Y67040D01*
Y67921D01*
X23433Y68772D01*
X22993Y69535D01*
X22370Y70158D01*
X21607Y70599D01*
X20755Y70827D01*
X19874D01*
X19685Y70972D01*
Y73989D01*
X19874Y74134D01*
X20755D01*
X21607Y74362D01*
X22370Y74803D01*
X22993Y75425D01*
X23433Y76189D01*
X23661Y77040D01*
Y77921D01*
X23433Y78772D01*
X22993Y79535D01*
X22370Y80158D01*
X21607Y80599D01*
X20755Y80827D01*
X19874D01*
X19685Y80972D01*
Y125984D01*
X37571D01*
Y70267D01*
X36190Y68885D01*
X33368D01*
X32993Y69535D01*
X32370Y70158D01*
X31607Y70599D01*
X30755Y70827D01*
X29874D01*
X29023Y70599D01*
X28260Y70158D01*
X27637Y69535D01*
X27197Y68772D01*
X26969Y67921D01*
Y67040D01*
X27197Y66189D01*
X27637Y65425D01*
X28260Y64802D01*
X29023Y64362D01*
X29874Y64134D01*
X30755D01*
X31607Y64362D01*
X32370Y64802D01*
X32993Y65425D01*
X33368Y66075D01*
X36772D01*
X37309Y66182D01*
X37765Y66487D01*
X39970Y68692D01*
X40274Y69147D01*
X40381Y69685D01*
Y125984D01*
X126360D01*
X139225Y113119D01*
X139002Y112785D01*
X138502Y112992D01*
X137876D01*
X137297Y112752D01*
X136854Y112309D01*
X136684Y111899D01*
X131290Y106505D01*
X130985Y106050D01*
X130878Y105512D01*
Y74598D01*
X105166Y48885D01*
X33368D01*
X32993Y49535D01*
X32370Y50158D01*
X31607Y50599D01*
X30755Y50827D01*
X29874D01*
X29023Y50599D01*
X28260Y50158D01*
X27637Y49535D01*
X27197Y48772D01*
X26969Y47921D01*
Y47040D01*
X27197Y46189D01*
X27637Y45426D01*
X28260Y44802D01*
X29023Y44362D01*
X29874Y44134D01*
X30755D01*
X31607Y44362D01*
X32370Y44802D01*
X32993Y45426D01*
X33368Y46075D01*
X105748D01*
X106286Y46182D01*
X106741Y46487D01*
X133277Y73022D01*
X133581Y73478D01*
X133688Y74016D01*
Y104930D01*
X138671Y109912D01*
X139081Y110082D01*
X139524Y110525D01*
X139764Y111104D01*
Y111731D01*
X139557Y112230D01*
X139891Y112453D01*
X197414Y54930D01*
Y33007D01*
X197244Y32597D01*
Y31970D01*
X197484Y31391D01*
X197927Y30948D01*
X198506Y30709D01*
X199132D01*
X199711Y30948D01*
X200154Y31391D01*
X200394Y31970D01*
Y32597D01*
X200224Y33007D01*
Y55512D01*
X200117Y56050D01*
X199812Y56505D01*
X130697Y125620D01*
X130848Y125984D01*
X294470D01*
X321330Y99124D01*
X321500Y98714D01*
X321943Y98271D01*
X322521Y98032D01*
X323148D01*
X323727Y98271D01*
X324170Y98714D01*
X324410Y99293D01*
Y99920D01*
X324170Y100498D01*
X323727Y100941D01*
X323317Y101111D01*
X298807Y125620D01*
X298958Y125984D01*
X342520D01*
Y125671D01*
X342759Y125092D01*
X343202Y124649D01*
X343781Y124409D01*
X344408D01*
X344987Y124649D01*
X345429Y125092D01*
X345669Y125671D01*
Y125984D01*
X510116D01*
X510326Y125591D01*
D02*
G37*
%LPC*%
G36*
X257794Y388976D02*
X257167D01*
X256757Y388807D01*
X135369Y388807D01*
X134959Y388976D01*
X134332D01*
X133754Y388737D01*
X133311Y388294D01*
X133071Y387715D01*
Y387088D01*
X133311Y386509D01*
X133754Y386067D01*
X134332Y385827D01*
X134959D01*
X135369Y385997D01*
X256757Y385997D01*
X257167Y385827D01*
X257794D01*
X258204Y385997D01*
X294300D01*
X321330Y358967D01*
X321500Y358557D01*
X321943Y358114D01*
X322521Y357874D01*
X323148D01*
X323727Y358114D01*
X324170Y358557D01*
X324410Y359136D01*
Y359762D01*
X324170Y360341D01*
X323727Y360784D01*
X323317Y360954D01*
X295875Y388395D01*
X295420Y388700D01*
X294882Y388807D01*
X258204D01*
X257794Y388976D01*
D02*
G37*
G36*
X413988Y387641D02*
X413362D01*
X412783Y387402D01*
X412340Y386959D01*
X412100Y386380D01*
Y385753D01*
X412340Y385174D01*
X412783Y384732D01*
X413362Y384492D01*
X413988D01*
X414567Y384732D01*
X415010Y385174D01*
X415250Y385753D01*
Y386380D01*
X415010Y386959D01*
X414567Y387402D01*
X413988Y387641D01*
D02*
G37*
G36*
X344408Y387008D02*
X343781D01*
X343202Y386768D01*
X342759Y386325D01*
X342520Y385746D01*
Y385120D01*
X342759Y384541D01*
X343202Y384098D01*
X343781Y383858D01*
X344408D01*
X344987Y384098D01*
X345429Y384541D01*
X345669Y385120D01*
Y385746D01*
X345429Y386325D01*
X344987Y386768D01*
X344408Y387008D01*
D02*
G37*
G36*
X329053Y383071D02*
X328427D01*
X327848Y382831D01*
X327405Y382388D01*
X327165Y381809D01*
Y381183D01*
X327405Y380604D01*
X327848Y380161D01*
X328427Y379921D01*
X329053D01*
X329632Y380161D01*
X330075Y380604D01*
X330315Y381183D01*
Y381809D01*
X330075Y382388D01*
X329632Y382831D01*
X329053Y383071D01*
D02*
G37*
G36*
X366455Y382677D02*
X365828D01*
X365250Y382437D01*
X364807Y381994D01*
X364567Y381416D01*
Y380789D01*
X364807Y380210D01*
X365250Y379767D01*
X365828Y379528D01*
X366455D01*
X367034Y379767D01*
X367477Y380210D01*
X367717Y380789D01*
Y381416D01*
X367477Y381994D01*
X367034Y382437D01*
X366455Y382677D01*
D02*
G37*
G36*
X273542Y380709D02*
X272915D01*
X272336Y380469D01*
X271893Y380026D01*
X271654Y379447D01*
Y378821D01*
X271893Y378242D01*
X272336Y377799D01*
X272915Y377559D01*
X273542D01*
X274120Y377799D01*
X274563Y378242D01*
X274803Y378821D01*
Y379447D01*
X274563Y380026D01*
X274120Y380469D01*
X273542Y380709D01*
D02*
G37*
G36*
X252676Y379134D02*
X252049D01*
X251470Y378894D01*
X251027Y378451D01*
X250787Y377872D01*
Y377246D01*
X251027Y376667D01*
X251470Y376224D01*
X252049Y375984D01*
X252676D01*
X253254Y376224D01*
X253697Y376667D01*
X253937Y377246D01*
Y377872D01*
X253697Y378451D01*
X253254Y378894D01*
X252676Y379134D01*
D02*
G37*
G36*
X269756Y378216D02*
X269129D01*
X268551Y377976D01*
X268108Y377533D01*
X267868Y376955D01*
Y376328D01*
X268108Y375749D01*
X268551Y375306D01*
X269129Y375067D01*
X269756D01*
X270335Y375306D01*
X270778Y375749D01*
X271018Y376328D01*
Y376955D01*
X270778Y377533D01*
X270335Y377976D01*
X269756Y378216D01*
D02*
G37*
G36*
X414487Y377165D02*
X413860D01*
X413281Y376926D01*
X412838Y376483D01*
X412598Y375904D01*
Y375277D01*
X412838Y374698D01*
X413281Y374255D01*
X413860Y374016D01*
X414487D01*
X415065Y374255D01*
X415508Y374698D01*
X415748Y375277D01*
Y375904D01*
X415508Y376483D01*
X415065Y376926D01*
X414487Y377165D01*
D02*
G37*
G36*
X363797Y376476D02*
X363171D01*
X362592Y376237D01*
X362149Y375794D01*
X361910Y375215D01*
Y374588D01*
X362149Y374009D01*
X362592Y373567D01*
X363171Y373327D01*
X363797D01*
X364376Y373567D01*
X364819Y374009D01*
X365059Y374588D01*
Y375215D01*
X364819Y375794D01*
X364376Y376237D01*
X363797Y376476D01*
D02*
G37*
G36*
X149526Y372835D02*
X148899D01*
X148321Y372595D01*
X147878Y372152D01*
X147638Y371573D01*
Y370947D01*
X147878Y370368D01*
X148321Y369925D01*
X148899Y369685D01*
X149526D01*
X150105Y369925D01*
X150548Y370368D01*
X150787Y370947D01*
Y371573D01*
X150548Y372152D01*
X150105Y372595D01*
X149526Y372835D01*
D02*
G37*
G36*
X171363Y366326D02*
X170737D01*
X170158Y366086D01*
X169715Y365643D01*
X169475Y365064D01*
Y364438D01*
X169715Y363859D01*
X170158Y363416D01*
X170737Y363176D01*
X171363D01*
X171942Y363416D01*
X172385Y363859D01*
X172625Y364438D01*
Y365064D01*
X172385Y365643D01*
X171942Y366086D01*
X171363Y366326D01*
D02*
G37*
G36*
X414487Y366142D02*
X413860D01*
X413281Y365902D01*
X412838Y365459D01*
X412598Y364880D01*
Y364254D01*
X412838Y363675D01*
X413281Y363232D01*
X413860Y362992D01*
X414487D01*
X415065Y363232D01*
X415508Y363675D01*
X415748Y364254D01*
Y364880D01*
X415508Y365459D01*
X415065Y365902D01*
X414487Y366142D01*
D02*
G37*
G36*
X286731Y364370D02*
X286104D01*
X285525Y364130D01*
X285082Y363687D01*
X284842Y363108D01*
Y362482D01*
X285082Y361903D01*
X285525Y361460D01*
X286104Y361221D01*
X286731D01*
X287309Y361460D01*
X287752Y361903D01*
X287992Y362482D01*
Y363108D01*
X287752Y363687D01*
X287309Y364130D01*
X286731Y364370D01*
D02*
G37*
G36*
X344408Y363386D02*
X343781D01*
X343202Y363146D01*
X342759Y362703D01*
X342520Y362124D01*
Y361498D01*
X342759Y360919D01*
X343202Y360476D01*
X343781Y360236D01*
X344408D01*
X344987Y360476D01*
X345429Y360919D01*
X345669Y361498D01*
Y362124D01*
X345429Y362703D01*
X344987Y363146D01*
X344408Y363386D01*
D02*
G37*
G36*
X31149Y366890D02*
X30268D01*
X29417Y366662D01*
X28654Y366221D01*
X28031Y365598D01*
X27590Y364835D01*
X27362Y363984D01*
Y363103D01*
X27590Y362252D01*
X28031Y361489D01*
X28654Y360865D01*
X29417Y360425D01*
X30268Y360197D01*
X31149D01*
X32000Y360425D01*
X32763Y360865D01*
X33386Y361489D01*
X33827Y362252D01*
X34055Y363103D01*
Y363984D01*
X33827Y364835D01*
X33386Y365598D01*
X32763Y366221D01*
X32000Y366662D01*
X31149Y366890D01*
D02*
G37*
G36*
X172949Y362793D02*
X172322D01*
X171743Y362553D01*
X171300Y362110D01*
X171060Y361531D01*
Y360905D01*
X171300Y360326D01*
X171743Y359883D01*
X172322Y359643D01*
X172949D01*
X173527Y359883D01*
X173970Y360326D01*
X174210Y360905D01*
Y361531D01*
X173970Y362110D01*
X173527Y362553D01*
X172949Y362793D01*
D02*
G37*
G36*
X280235Y362205D02*
X279608D01*
X279029Y361965D01*
X278586Y361522D01*
X278346Y360943D01*
Y360317D01*
X278586Y359738D01*
X279029Y359295D01*
X279608Y359055D01*
X280235D01*
X280813Y359295D01*
X281256Y359738D01*
X281496Y360317D01*
Y360943D01*
X281256Y361522D01*
X280813Y361965D01*
X280235Y362205D01*
D02*
G37*
G36*
X235353D02*
X234726D01*
X234147Y361965D01*
X233704Y361522D01*
X233465Y360943D01*
Y360317D01*
X233704Y359738D01*
X234147Y359295D01*
X234726Y359055D01*
X235353D01*
X235931Y359295D01*
X236374Y359738D01*
X236614Y360317D01*
Y360943D01*
X236374Y361522D01*
X235931Y361965D01*
X235353Y362205D01*
D02*
G37*
G36*
X213305Y361811D02*
X212679D01*
X212100Y361571D01*
X211657Y361128D01*
X211417Y360549D01*
Y359923D01*
X211657Y359344D01*
X212100Y358901D01*
X212679Y358661D01*
X213305D01*
X213884Y358901D01*
X214327Y359344D01*
X214567Y359923D01*
Y360549D01*
X214327Y361128D01*
X213884Y361571D01*
X213305Y361811D01*
D02*
G37*
G36*
X366455Y358661D02*
X365828D01*
X365250Y358422D01*
X364807Y357979D01*
X364567Y357400D01*
Y356773D01*
X364807Y356195D01*
X365250Y355752D01*
X365828Y355512D01*
X366455D01*
X367034Y355752D01*
X367477Y356195D01*
X367717Y356773D01*
Y357400D01*
X367477Y357979D01*
X367034Y358422D01*
X366455Y358661D01*
D02*
G37*
G36*
X283384Y357874D02*
X282758D01*
X282179Y357634D01*
X281736Y357191D01*
X281496Y356612D01*
Y355986D01*
X281736Y355407D01*
X282179Y354964D01*
X282758Y354724D01*
X283384D01*
X283963Y354964D01*
X284406Y355407D01*
X284646Y355986D01*
Y356612D01*
X284406Y357191D01*
X283963Y357634D01*
X283384Y357874D01*
D02*
G37*
G36*
X328266Y357087D02*
X327640D01*
X327061Y356847D01*
X326618Y356404D01*
X326378Y355825D01*
Y355199D01*
X326618Y354620D01*
X327061Y354177D01*
X327640Y353937D01*
X328266D01*
X328845Y354177D01*
X329288Y354620D01*
X329528Y355199D01*
Y355825D01*
X329288Y356404D01*
X328845Y356847D01*
X328266Y357087D01*
D02*
G37*
G36*
X414880Y355512D02*
X414254D01*
X413675Y355272D01*
X413232Y354829D01*
X412992Y354250D01*
Y353624D01*
X413232Y353045D01*
X413675Y352602D01*
X414254Y352362D01*
X414880D01*
X415459Y352602D01*
X415902Y353045D01*
X416142Y353624D01*
Y354250D01*
X415902Y354829D01*
X415459Y355272D01*
X414880Y355512D01*
D02*
G37*
G36*
X362912Y352854D02*
X362285D01*
X361706Y352615D01*
X361263Y352172D01*
X361024Y351593D01*
Y350966D01*
X361263Y350388D01*
X361706Y349944D01*
X362285Y349705D01*
X362912D01*
X363491Y349944D01*
X363933Y350388D01*
X364173Y350966D01*
Y351593D01*
X363933Y352172D01*
X363491Y352615D01*
X362912Y352854D01*
D02*
G37*
G36*
X210943Y352362D02*
X210317D01*
X209738Y352122D01*
X209295Y351679D01*
X209055Y351101D01*
Y350474D01*
X209295Y349895D01*
X209738Y349452D01*
X210317Y349213D01*
X210943D01*
X211522Y349452D01*
X211965Y349895D01*
X212205Y350474D01*
Y351101D01*
X211965Y351679D01*
X211522Y352122D01*
X210943Y352362D01*
D02*
G37*
G36*
X188502D02*
X187876D01*
X187297Y352122D01*
X186854Y351679D01*
X186614Y351101D01*
Y350474D01*
X186854Y349895D01*
X187297Y349452D01*
X187876Y349213D01*
X188502D01*
X189081Y349452D01*
X189524Y349895D01*
X189764Y350474D01*
Y351101D01*
X189524Y351679D01*
X189081Y352122D01*
X188502Y352362D01*
D02*
G37*
G36*
X178842Y352151D02*
X178216D01*
X177637Y351911D01*
X177194Y351468D01*
X176954Y350889D01*
Y350263D01*
X177194Y349684D01*
X177637Y349241D01*
X178216Y349001D01*
X178842D01*
X179421Y349241D01*
X179864Y349684D01*
X180104Y350263D01*
Y350889D01*
X179864Y351468D01*
X179421Y351911D01*
X178842Y352151D01*
D02*
G37*
G36*
X149526Y350000D02*
X148899D01*
X148321Y349760D01*
X147878Y349317D01*
X147638Y348739D01*
Y348112D01*
X147878Y347533D01*
X148321Y347090D01*
X148899Y346850D01*
X149526D01*
X150105Y347090D01*
X150548Y347533D01*
X150787Y348112D01*
Y348739D01*
X150548Y349317D01*
X150105Y349760D01*
X149526Y350000D01*
D02*
G37*
G36*
X180631Y348822D02*
X180005D01*
X179426Y348582D01*
X178983Y348139D01*
X178743Y347560D01*
Y346934D01*
X178983Y346355D01*
X179426Y345912D01*
X180005Y345672D01*
X180631D01*
X181210Y345912D01*
X181653Y346355D01*
X181893Y346934D01*
Y347560D01*
X181653Y348139D01*
X181210Y348582D01*
X180631Y348822D01*
D02*
G37*
G36*
X263699Y345669D02*
X263073D01*
X262494Y345429D01*
X262051Y344987D01*
X261811Y344408D01*
Y343781D01*
X262051Y343202D01*
X262494Y342759D01*
X263073Y342520D01*
X263699D01*
X264278Y342759D01*
X264721Y343202D01*
X264961Y343781D01*
Y344408D01*
X264721Y344987D01*
X264278Y345429D01*
X263699Y345669D01*
D02*
G37*
G36*
X257794D02*
X257167D01*
X256588Y345429D01*
X256145Y344987D01*
X255906Y344408D01*
Y343781D01*
X256145Y343202D01*
X256588Y342759D01*
X257167Y342520D01*
X257794D01*
X258372Y342759D01*
X258815Y343202D01*
X259055Y343781D01*
Y344408D01*
X258815Y344987D01*
X258372Y345429D01*
X257794Y345669D01*
D02*
G37*
G36*
X182849Y345528D02*
X182223D01*
X181644Y345288D01*
X181201Y344845D01*
X180961Y344267D01*
Y343640D01*
X181201Y343061D01*
X181644Y342618D01*
X182223Y342378D01*
X182849D01*
X183428Y342618D01*
X183871Y343061D01*
X184111Y343640D01*
Y344267D01*
X183871Y344845D01*
X183428Y345288D01*
X182849Y345528D01*
D02*
G37*
G36*
X252676Y344882D02*
X252049D01*
X251470Y344642D01*
X251027Y344199D01*
X250787Y343620D01*
Y342994D01*
X251027Y342415D01*
X251470Y341972D01*
X252049Y341732D01*
X252676D01*
X253254Y341972D01*
X253697Y342415D01*
X253937Y342994D01*
Y343620D01*
X253697Y344199D01*
X253254Y344642D01*
X252676Y344882D01*
D02*
G37*
G36*
X31149Y346890D02*
X30268D01*
X29417Y346662D01*
X28654Y346221D01*
X28031Y345598D01*
X27590Y344835D01*
X27362Y343984D01*
Y343103D01*
X27590Y342252D01*
X28031Y341489D01*
X28654Y340865D01*
X29417Y340425D01*
X30268Y340197D01*
X31149D01*
X32000Y340425D01*
X32763Y340865D01*
X33386Y341489D01*
X33827Y342252D01*
X34055Y343103D01*
Y343984D01*
X33827Y344835D01*
X33386Y345598D01*
X32763Y346221D01*
X32000Y346662D01*
X31149Y346890D01*
D02*
G37*
G36*
X138502Y341339D02*
X137876D01*
X137297Y341099D01*
X136854Y340656D01*
X136614Y340077D01*
Y339451D01*
X136854Y338872D01*
X137297Y338429D01*
X137876Y338189D01*
X138502D01*
X139081Y338429D01*
X139524Y338872D01*
X139764Y339451D01*
Y340077D01*
X139524Y340656D01*
X139081Y341099D01*
X138502Y341339D01*
D02*
G37*
G36*
X182990Y340945D02*
X182364D01*
X181785Y340705D01*
X181342Y340262D01*
X181102Y339683D01*
Y339057D01*
X181342Y338478D01*
X181785Y338035D01*
X182364Y337795D01*
X182990D01*
X183569Y338035D01*
X184012Y338478D01*
X184252Y339057D01*
Y339683D01*
X184012Y340262D01*
X183569Y340705D01*
X182990Y340945D01*
D02*
G37*
G36*
X414880Y334646D02*
X414254D01*
X413675Y334406D01*
X413232Y333963D01*
X412992Y333384D01*
Y332758D01*
X413232Y332179D01*
X413675Y331736D01*
X414254Y331496D01*
X414880D01*
X415459Y331736D01*
X415902Y332179D01*
X416142Y332758D01*
Y333384D01*
X415902Y333963D01*
X415459Y334406D01*
X414880Y334646D01*
D02*
G37*
G36*
X188502D02*
X187876D01*
X187297Y334406D01*
X186854Y333963D01*
X186614Y333384D01*
Y332758D01*
X186854Y332179D01*
X187297Y331736D01*
X187876Y331496D01*
X188502D01*
X189081Y331736D01*
X189524Y332179D01*
X189764Y332758D01*
Y333384D01*
X189524Y333963D01*
X189081Y334406D01*
X188502Y334646D01*
D02*
G37*
G36*
X197164Y334252D02*
X196537D01*
X195958Y334012D01*
X195515Y333569D01*
X195276Y332990D01*
Y332364D01*
X195515Y331785D01*
X195958Y331342D01*
X196537Y331102D01*
X197164D01*
X197742Y331342D01*
X198185Y331785D01*
X198425Y332364D01*
Y332990D01*
X198185Y333569D01*
X197742Y334012D01*
X197164Y334252D01*
D02*
G37*
G36*
X120884Y331791D02*
X120258D01*
X119679Y331552D01*
X119236Y331109D01*
X118996Y330530D01*
Y329903D01*
X119236Y329325D01*
X119679Y328882D01*
X120258Y328642D01*
X120884D01*
X121463Y328882D01*
X121906Y329325D01*
X122146Y329903D01*
Y330530D01*
X121906Y331109D01*
X121463Y331552D01*
X120884Y331791D01*
D02*
G37*
G36*
X211466Y331367D02*
X210840D01*
X210261Y331127D01*
X209818Y330684D01*
X209578Y330105D01*
Y329479D01*
X209818Y328900D01*
X210261Y328457D01*
X210840Y328217D01*
X211466D01*
X212045Y328457D01*
X212488Y328900D01*
X212728Y329479D01*
Y330105D01*
X212488Y330684D01*
X212045Y331127D01*
X211466Y331367D01*
D02*
G37*
G36*
X364487Y328740D02*
X363860D01*
X363281Y328500D01*
X362838Y328057D01*
X362598Y327479D01*
Y326852D01*
X362838Y326273D01*
X363281Y325830D01*
X363860Y325590D01*
X364487D01*
X365065Y325830D01*
X365508Y326273D01*
X365748Y326852D01*
Y327479D01*
X365508Y328057D01*
X365065Y328500D01*
X364487Y328740D01*
D02*
G37*
G36*
X344014Y322047D02*
X343388D01*
X342809Y321808D01*
X342366Y321364D01*
X342126Y320786D01*
Y320159D01*
X342366Y319580D01*
X342809Y319137D01*
X343388Y318898D01*
X344014D01*
X344593Y319137D01*
X345036Y319580D01*
X345276Y320159D01*
Y320786D01*
X345036Y321364D01*
X344593Y321808D01*
X344014Y322047D01*
D02*
G37*
G36*
X315274D02*
X314647D01*
X314069Y321808D01*
X313626Y321364D01*
X313386Y320786D01*
Y320159D01*
X313626Y319580D01*
X314069Y319137D01*
X314647Y318898D01*
X315274D01*
X315853Y319137D01*
X316296Y319580D01*
X316535Y320159D01*
Y320786D01*
X316296Y321364D01*
X315853Y321808D01*
X315274Y322047D01*
D02*
G37*
G36*
X462124Y321260D02*
X461498D01*
X460919Y321020D01*
X460476Y320577D01*
X460236Y319998D01*
Y319372D01*
X460476Y318793D01*
X460919Y318350D01*
X461498Y318110D01*
X462124D01*
X462703Y318350D01*
X463146Y318793D01*
X463386Y319372D01*
Y319998D01*
X463146Y320577D01*
X462703Y321020D01*
X462124Y321260D01*
D02*
G37*
G36*
X86219Y321181D02*
X85592D01*
X85014Y320941D01*
X84570Y320498D01*
X84331Y319919D01*
Y319293D01*
X84570Y318714D01*
X85014Y318271D01*
X85592Y318032D01*
X86219D01*
X86798Y318271D01*
X87241Y318714D01*
X87480Y319293D01*
Y319919D01*
X87241Y320498D01*
X86798Y320941D01*
X86219Y321181D01*
D02*
G37*
G36*
X413896Y320276D02*
X413269D01*
X412691Y320036D01*
X412248Y319593D01*
X412008Y319014D01*
Y318388D01*
X412248Y317809D01*
X412691Y317366D01*
X413269Y317126D01*
X413896D01*
X414475Y317366D01*
X414918Y317809D01*
X415158Y318388D01*
Y319014D01*
X414918Y319593D01*
X414475Y320036D01*
X413896Y320276D01*
D02*
G37*
G36*
X455825Y320079D02*
X455199D01*
X454620Y319839D01*
X454177Y319396D01*
X453937Y318817D01*
Y318191D01*
X454177Y317612D01*
X454620Y317169D01*
X455199Y316929D01*
X455825D01*
X456404Y317169D01*
X456847Y317612D01*
X457087Y318191D01*
Y318817D01*
X456847Y319396D01*
X456404Y319839D01*
X455825Y320079D01*
D02*
G37*
G36*
X382203Y318110D02*
X381576D01*
X380998Y317870D01*
X380555Y317427D01*
X380315Y316849D01*
Y316222D01*
X380555Y315643D01*
X380998Y315200D01*
X381576Y314961D01*
X382203D01*
X382782Y315200D01*
X383225Y315643D01*
X383465Y316222D01*
Y316849D01*
X383225Y317427D01*
X382782Y317870D01*
X382203Y318110D01*
D02*
G37*
G36*
X21299Y317461D02*
Y314134D01*
X24626D01*
X24377Y315063D01*
X23859Y315961D01*
X23126Y316694D01*
X22228Y317212D01*
X21299Y317461D01*
D02*
G37*
G36*
X131613Y313976D02*
X130986D01*
X130407Y313737D01*
X129964Y313294D01*
X129724Y312715D01*
Y312088D01*
X129964Y311509D01*
X130407Y311067D01*
X130986Y310827D01*
X131613D01*
X132191Y311067D01*
X132634Y311509D01*
X132874Y312088D01*
Y312715D01*
X132634Y313294D01*
X132191Y313737D01*
X131613Y313976D01*
D02*
G37*
G36*
X24626Y312953D02*
X21299D01*
Y309626D01*
X22228Y309875D01*
X23126Y310393D01*
X23859Y311126D01*
X24377Y312024D01*
X24626Y312953D01*
D02*
G37*
G36*
X141652Y310236D02*
X141025D01*
X140446Y309997D01*
X140004Y309554D01*
X139977Y309489D01*
X139551D01*
X139524Y309554D01*
X139081Y309997D01*
X138502Y310236D01*
X137876D01*
X137297Y309997D01*
X136854Y309554D01*
X136614Y308975D01*
Y308348D01*
X136854Y307769D01*
X137297Y307326D01*
X137876Y307087D01*
X138502D01*
X139081Y307326D01*
X139524Y307769D01*
X139551Y307834D01*
X139977D01*
X140004Y307769D01*
X140446Y307326D01*
X141025Y307087D01*
X141652D01*
X142231Y307326D01*
X142674Y307769D01*
X142913Y308348D01*
Y308975D01*
X142674Y309554D01*
X142231Y309997D01*
X141652Y310236D01*
D02*
G37*
G36*
X108187Y311417D02*
X107561D01*
X106982Y311178D01*
X106539Y310735D01*
X106299Y310156D01*
Y309529D01*
X106539Y308950D01*
X106982Y308507D01*
X107561Y308268D01*
X108187D01*
X108766Y308507D01*
X109209Y308950D01*
X109449Y309529D01*
Y310156D01*
X109209Y310735D01*
X108766Y311178D01*
X108187Y311417D01*
D02*
G37*
G36*
X382203Y310236D02*
X381576D01*
X380998Y309997D01*
X380555Y309554D01*
X380315Y308975D01*
Y308348D01*
X380555Y307769D01*
X380998Y307326D01*
X381576Y307087D01*
X382203D01*
X382782Y307326D01*
X383225Y307769D01*
X383465Y308348D01*
Y308975D01*
X383225Y309554D01*
X382782Y309997D01*
X382203Y310236D01*
D02*
G37*
G36*
X131809D02*
X131183D01*
X130604Y309997D01*
X130161Y309554D01*
X129921Y308975D01*
Y308348D01*
X130161Y307769D01*
X130604Y307326D01*
X131183Y307087D01*
X131809D01*
X132388Y307326D01*
X132831Y307769D01*
X133071Y308348D01*
Y308975D01*
X132831Y309554D01*
X132388Y309997D01*
X131809Y310236D01*
D02*
G37*
G36*
X201101Y308661D02*
X200474D01*
X199895Y308422D01*
X199452Y307979D01*
X199213Y307400D01*
Y306773D01*
X199452Y306195D01*
X199895Y305752D01*
X200474Y305512D01*
X201101D01*
X201679Y305752D01*
X202122Y306195D01*
X202362Y306773D01*
Y307400D01*
X202122Y307979D01*
X201679Y308422D01*
X201101Y308661D01*
D02*
G37*
G36*
X197033Y306563D02*
X196407D01*
X195828Y306323D01*
X195385Y305880D01*
X195145Y305301D01*
Y304675D01*
X195385Y304096D01*
X195828Y303653D01*
X196407Y303413D01*
X197033D01*
X197612Y303653D01*
X198055Y304096D01*
X198295Y304675D01*
Y305301D01*
X198055Y305880D01*
X197612Y306323D01*
X197033Y306563D01*
D02*
G37*
G36*
X414902Y305906D02*
X414276D01*
X413697Y305666D01*
X413254Y305223D01*
X413014Y304644D01*
Y304017D01*
X413254Y303439D01*
X413697Y302996D01*
X414276Y302756D01*
X414902D01*
X415481Y302996D01*
X415924Y303439D01*
X416164Y304017D01*
Y304644D01*
X415924Y305223D01*
X415481Y305666D01*
X414902Y305906D01*
D02*
G37*
G36*
X73148Y304634D02*
X72521D01*
X71943Y304394D01*
X71500Y303951D01*
X71260Y303372D01*
Y302746D01*
X71500Y302167D01*
X71943Y301724D01*
X72521Y301484D01*
X73148D01*
X73727Y301724D01*
X74170Y302167D01*
X74410Y302746D01*
Y303372D01*
X74170Y303951D01*
X73727Y304394D01*
X73148Y304634D01*
D02*
G37*
G36*
X441258Y302756D02*
X440632D01*
X440053Y302516D01*
X439610Y302073D01*
X439370Y301494D01*
Y300868D01*
X439610Y300289D01*
X440053Y299846D01*
X440632Y299606D01*
X441258D01*
X441837Y299846D01*
X442280Y300289D01*
X442520Y300868D01*
Y301494D01*
X442280Y302073D01*
X441837Y302516D01*
X441258Y302756D01*
D02*
G37*
G36*
X382203D02*
X381576D01*
X380998Y302516D01*
X380555Y302073D01*
X380315Y301494D01*
Y300868D01*
X380555Y300289D01*
X380998Y299846D01*
X381576Y299606D01*
X382203D01*
X382782Y299846D01*
X383225Y300289D01*
X383465Y300868D01*
Y301494D01*
X383225Y302073D01*
X382782Y302516D01*
X382203Y302756D01*
D02*
G37*
G36*
X455825Y302362D02*
X455199D01*
X454620Y302122D01*
X454177Y301679D01*
X453937Y301101D01*
Y300474D01*
X454177Y299895D01*
X454620Y299452D01*
X455199Y299213D01*
X455825D01*
X456404Y299452D01*
X456847Y299895D01*
X457087Y300474D01*
Y301101D01*
X456847Y301679D01*
X456404Y302122D01*
X455825Y302362D01*
D02*
G37*
G36*
X149526D02*
X148899D01*
X148321Y302122D01*
X147878Y301679D01*
X147638Y301101D01*
Y300474D01*
X147878Y299895D01*
X148321Y299452D01*
X148899Y299213D01*
X149526D01*
X150105Y299452D01*
X150548Y299895D01*
X150787Y300474D01*
Y301101D01*
X150548Y301679D01*
X150105Y302122D01*
X149526Y302362D01*
D02*
G37*
G36*
X145195D02*
X144569D01*
X143990Y302122D01*
X143547Y301679D01*
X143307Y301101D01*
Y300474D01*
X143547Y299895D01*
X143990Y299452D01*
X144569Y299213D01*
X145195D01*
X145774Y299452D01*
X146217Y299895D01*
X146457Y300474D01*
Y301101D01*
X146217Y301679D01*
X145774Y302122D01*
X145195Y302362D01*
D02*
G37*
G36*
X86534Y301181D02*
X85907D01*
X85328Y300941D01*
X84885Y300498D01*
X84646Y299920D01*
Y299293D01*
X84885Y298714D01*
X85328Y298271D01*
X85907Y298031D01*
X86534D01*
X87112Y298271D01*
X87555Y298714D01*
X87795Y299293D01*
Y299920D01*
X87555Y300498D01*
X87112Y300941D01*
X86534Y301181D01*
D02*
G37*
G36*
X56612Y300787D02*
X55986D01*
X55407Y300548D01*
X54964Y300105D01*
X54724Y299526D01*
Y298899D01*
X54964Y298321D01*
X55407Y297878D01*
X55986Y297638D01*
X56612D01*
X57191Y297878D01*
X57634Y298321D01*
X57874Y298899D01*
Y299526D01*
X57634Y300105D01*
X57191Y300548D01*
X56612Y300787D01*
D02*
G37*
G36*
X317144Y300295D02*
X316517D01*
X315939Y300056D01*
X315496Y299612D01*
X315256Y299034D01*
Y298407D01*
X315496Y297828D01*
X315939Y297385D01*
X316517Y297146D01*
X317144D01*
X317723Y297385D01*
X318166Y297828D01*
X318406Y298407D01*
Y299034D01*
X318166Y299612D01*
X317723Y300056D01*
X317144Y300295D01*
D02*
G37*
G36*
X365274Y298327D02*
X364647D01*
X364069Y298087D01*
X363626Y297644D01*
X363386Y297065D01*
Y296439D01*
X363626Y295860D01*
X364069Y295417D01*
X364647Y295177D01*
X365274D01*
X365853Y295417D01*
X366296Y295860D01*
X366535Y296439D01*
Y297065D01*
X366296Y297644D01*
X365853Y298087D01*
X365274Y298327D01*
D02*
G37*
G36*
X338502Y295669D02*
X337876D01*
X337297Y295429D01*
X336854Y294987D01*
X336614Y294408D01*
Y293781D01*
X336854Y293202D01*
X337297Y292759D01*
X337876Y292520D01*
X338502D01*
X339081Y292759D01*
X339524Y293202D01*
X339764Y293781D01*
Y294408D01*
X339524Y294987D01*
X339081Y295429D01*
X338502Y295669D01*
D02*
G37*
G36*
X185353D02*
X184726D01*
X184147Y295429D01*
X183704Y294987D01*
X183465Y294408D01*
Y293781D01*
X183704Y293202D01*
X184147Y292759D01*
X184726Y292520D01*
X185353D01*
X185931Y292759D01*
X186374Y293202D01*
X186614Y293781D01*
Y294408D01*
X186374Y294987D01*
X185931Y295429D01*
X185353Y295669D01*
D02*
G37*
G36*
X113699Y295276D02*
X113073D01*
X112494Y295036D01*
X112051Y294593D01*
X111811Y294014D01*
Y293388D01*
X112051Y292809D01*
X112494Y292366D01*
X113073Y292126D01*
X113699D01*
X114278Y292366D01*
X114721Y292809D01*
X114961Y293388D01*
Y294014D01*
X114721Y294593D01*
X114278Y295036D01*
X113699Y295276D01*
D02*
G37*
G36*
X177085Y294488D02*
X176458D01*
X175880Y294248D01*
X175437Y293805D01*
X175197Y293227D01*
Y292600D01*
X175437Y292021D01*
X175880Y291578D01*
X176458Y291339D01*
X177085D01*
X177664Y291578D01*
X178107Y292021D01*
X178347Y292600D01*
Y293227D01*
X178107Y293805D01*
X177664Y294248D01*
X177085Y294488D01*
D02*
G37*
G36*
X31149Y356890D02*
X30268D01*
X29417Y356662D01*
X28654Y356221D01*
X28031Y355598D01*
X27590Y354835D01*
X27362Y353984D01*
Y353103D01*
X27590Y352252D01*
X28031Y351488D01*
X28654Y350866D01*
X29417Y350425D01*
X30268Y350197D01*
X31149D01*
X32000Y350425D01*
X32763Y350866D01*
X33386Y351488D01*
X33762Y352138D01*
X136820D01*
X138594Y350364D01*
X138578Y350299D01*
X138401Y350000D01*
X137876D01*
X137297Y349760D01*
X136854Y349317D01*
X136614Y348739D01*
Y348112D01*
X136854Y347533D01*
X137297Y347090D01*
X137876Y346850D01*
X138502D01*
X139081Y347090D01*
X139524Y347533D01*
X139764Y348112D01*
Y348637D01*
X140063Y348814D01*
X140128Y348830D01*
X197314Y291644D01*
X197484Y291234D01*
X197927Y290791D01*
X198506Y290551D01*
X199132D01*
X199711Y290791D01*
X200154Y291234D01*
X200394Y291813D01*
Y292439D01*
X200154Y293018D01*
X199711Y293461D01*
X199301Y293631D01*
X138395Y354537D01*
X137939Y354841D01*
X137402Y354948D01*
X33762D01*
X33386Y355598D01*
X32763Y356221D01*
X32000Y356662D01*
X31149Y356890D01*
D02*
G37*
G36*
X333384Y293701D02*
X332758D01*
X332179Y293461D01*
X331736Y293018D01*
X331496Y292439D01*
Y291813D01*
X331736Y291234D01*
X332179Y290791D01*
X332758Y290551D01*
X333384D01*
X333963Y290791D01*
X334406Y291234D01*
X334646Y291813D01*
Y292439D01*
X334406Y293018D01*
X333963Y293461D01*
X333384Y293701D01*
D02*
G37*
G36*
X158975D02*
X158348D01*
X157769Y293461D01*
X157326Y293018D01*
X157087Y292439D01*
Y291813D01*
X157326Y291234D01*
X157769Y290791D01*
X158348Y290551D01*
X158975D01*
X159554Y290791D01*
X159996Y291234D01*
X160236Y291813D01*
Y292439D01*
X159996Y293018D01*
X159554Y293461D01*
X158975Y293701D01*
D02*
G37*
G36*
X127872D02*
X127246D01*
X126667Y293461D01*
X126224Y293018D01*
X125984Y292439D01*
Y291813D01*
X126224Y291234D01*
X126667Y290791D01*
X127246Y290551D01*
X127872D01*
X128451Y290791D01*
X128894Y291234D01*
X129134Y291813D01*
Y292439D01*
X128894Y293018D01*
X128451Y293461D01*
X127872Y293701D01*
D02*
G37*
G36*
X327479Y293307D02*
X326852D01*
X326273Y293067D01*
X325830Y292624D01*
X325590Y292045D01*
Y291419D01*
X325830Y290840D01*
X326273Y290397D01*
X326852Y290158D01*
X327479D01*
X328057Y290397D01*
X328500Y290840D01*
X328740Y291419D01*
Y292045D01*
X328500Y292624D01*
X328057Y293067D01*
X327479Y293307D01*
D02*
G37*
G36*
X255864Y291772D02*
X255238D01*
X254659Y291532D01*
X254216Y291089D01*
X253976Y290510D01*
Y289884D01*
X254216Y289305D01*
X254659Y288862D01*
X255238Y288622D01*
X255864D01*
X256443Y288862D01*
X256886Y289305D01*
X257126Y289884D01*
Y290510D01*
X256886Y291089D01*
X256443Y291532D01*
X255864Y291772D01*
D02*
G37*
G36*
X307794Y287795D02*
X307167D01*
X306588Y287556D01*
X306145Y287112D01*
X305906Y286534D01*
Y285907D01*
X306145Y285328D01*
X306588Y284885D01*
X307167Y284646D01*
X307794D01*
X308372Y284885D01*
X308815Y285328D01*
X309055Y285907D01*
Y286534D01*
X308815Y287112D01*
X308372Y287556D01*
X307794Y287795D01*
D02*
G37*
G36*
X84565Y286221D02*
X83939D01*
X83360Y285981D01*
X82917Y285538D01*
X82677Y284959D01*
Y284332D01*
X82917Y283754D01*
X83360Y283311D01*
X83939Y283071D01*
X84565D01*
X85144Y283311D01*
X85587Y283754D01*
X85827Y284332D01*
Y284959D01*
X85587Y285538D01*
X85144Y285981D01*
X84565Y286221D01*
D02*
G37*
G36*
X338502Y284252D02*
X337876D01*
X337297Y284012D01*
X336854Y283569D01*
X336614Y282990D01*
Y282364D01*
X336854Y281785D01*
X337297Y281342D01*
X337876Y281102D01*
X338502D01*
X339081Y281342D01*
X339524Y281785D01*
X339764Y282364D01*
Y282990D01*
X339524Y283569D01*
X339081Y284012D01*
X338502Y284252D01*
D02*
G37*
G36*
X185353Y283071D02*
X184726D01*
X184147Y282831D01*
X183704Y282388D01*
X183465Y281809D01*
Y281183D01*
X183704Y280604D01*
X184147Y280161D01*
X184726Y279921D01*
X185353D01*
X185931Y280161D01*
X186374Y280604D01*
X186614Y281183D01*
Y281809D01*
X186374Y282388D01*
X185931Y282831D01*
X185353Y283071D01*
D02*
G37*
G36*
X218817Y281890D02*
X218191D01*
X217612Y281650D01*
X217169Y281207D01*
X216929Y280628D01*
Y280002D01*
X217169Y279423D01*
X217612Y278980D01*
X218191Y278740D01*
X218817D01*
X219396Y278980D01*
X219839Y279423D01*
X220079Y280002D01*
Y280628D01*
X219839Y281207D01*
X219396Y281650D01*
X218817Y281890D01*
D02*
G37*
G36*
X200707Y281496D02*
X200080D01*
X199502Y281256D01*
X199059Y280813D01*
X198819Y280235D01*
Y279608D01*
X199059Y279029D01*
X199502Y278586D01*
X200080Y278346D01*
X200707D01*
X201286Y278586D01*
X201729Y279029D01*
X201969Y279608D01*
Y280235D01*
X201729Y280813D01*
X201286Y281256D01*
X200707Y281496D01*
D02*
G37*
G36*
X67242Y278346D02*
X66616D01*
X66037Y278107D01*
X65594Y277664D01*
X65354Y277085D01*
Y276458D01*
X65594Y275880D01*
X66037Y275437D01*
X66616Y275197D01*
X67242D01*
X67821Y275437D01*
X68264Y275880D01*
X68504Y276458D01*
Y277085D01*
X68264Y277664D01*
X67821Y278107D01*
X67242Y278346D01*
D02*
G37*
G36*
X81416Y267323D02*
X80789D01*
X80210Y267083D01*
X79767Y266640D01*
X79528Y266061D01*
Y265435D01*
X79767Y264856D01*
X80210Y264413D01*
X80789Y264173D01*
X81416D01*
X81994Y264413D01*
X82437Y264856D01*
X82677Y265435D01*
Y266061D01*
X82437Y266640D01*
X81994Y267083D01*
X81416Y267323D01*
D02*
G37*
G36*
X329053Y253150D02*
X328427D01*
X327848Y252910D01*
X327405Y252467D01*
X327165Y251888D01*
Y251261D01*
X327405Y250683D01*
X327848Y250240D01*
X328427Y250000D01*
X329053D01*
X329632Y250240D01*
X330075Y250683D01*
X330315Y251261D01*
Y251888D01*
X330075Y252467D01*
X329632Y252910D01*
X329053Y253150D01*
D02*
G37*
G36*
X365274Y252756D02*
X364647D01*
X364069Y252516D01*
X363626Y252073D01*
X363386Y251494D01*
Y250868D01*
X363626Y250289D01*
X364069Y249846D01*
X364647Y249606D01*
X365274D01*
X365853Y249846D01*
X366296Y250289D01*
X366535Y250868D01*
Y251494D01*
X366296Y252073D01*
X365853Y252516D01*
X365274Y252756D01*
D02*
G37*
G36*
X273542Y250787D02*
X272915D01*
X272336Y250548D01*
X271893Y250105D01*
X271654Y249526D01*
Y248899D01*
X271893Y248321D01*
X272336Y247878D01*
X272915Y247638D01*
X273542D01*
X274120Y247878D01*
X274563Y248321D01*
X274803Y248899D01*
Y249526D01*
X274563Y250105D01*
X274120Y250548D01*
X273542Y250787D01*
D02*
G37*
G36*
X252676Y249213D02*
X252049D01*
X251470Y248973D01*
X251027Y248530D01*
X250787Y247951D01*
Y247324D01*
X251027Y246746D01*
X251470Y246303D01*
X252049Y246063D01*
X252676D01*
X253254Y246303D01*
X253697Y246746D01*
X253937Y247324D01*
Y247951D01*
X253697Y248530D01*
X253254Y248973D01*
X252676Y249213D01*
D02*
G37*
G36*
X269756Y248295D02*
X269129D01*
X268551Y248055D01*
X268108Y247612D01*
X267868Y247033D01*
Y246407D01*
X268108Y245828D01*
X268551Y245385D01*
X269129Y245145D01*
X269756D01*
X270335Y245385D01*
X270778Y245828D01*
X271018Y246407D01*
Y247033D01*
X270778Y247612D01*
X270335Y248055D01*
X269756Y248295D01*
D02*
G37*
G36*
X414487Y247244D02*
X413860D01*
X413281Y247004D01*
X412838Y246561D01*
X412598Y245983D01*
Y245356D01*
X412838Y244777D01*
X413281Y244334D01*
X413860Y244094D01*
X414487D01*
X415065Y244334D01*
X415508Y244777D01*
X415748Y245356D01*
Y245983D01*
X415508Y246561D01*
X415065Y247004D01*
X414487Y247244D01*
D02*
G37*
G36*
X363797Y246555D02*
X363171D01*
X362592Y246315D01*
X362149Y245872D01*
X361910Y245294D01*
Y244667D01*
X362149Y244088D01*
X362592Y243645D01*
X363171Y243406D01*
X363797D01*
X364376Y243645D01*
X364819Y244088D01*
X365059Y244667D01*
Y245294D01*
X364819Y245872D01*
X364376Y246315D01*
X363797Y246555D01*
D02*
G37*
G36*
X124034D02*
X123407D01*
X122828Y246315D01*
X122385Y245872D01*
X122146Y245294D01*
Y244667D01*
X122385Y244088D01*
X122828Y243645D01*
X123407Y243406D01*
X124034D01*
X124612Y243645D01*
X125056Y244088D01*
X125295Y244667D01*
Y245294D01*
X125056Y245872D01*
X124612Y246315D01*
X124034Y246555D01*
D02*
G37*
G36*
X149526Y242913D02*
X148899D01*
X148321Y242674D01*
X147878Y242231D01*
X147638Y241652D01*
Y241025D01*
X147878Y240446D01*
X148321Y240003D01*
X148899Y239764D01*
X149526D01*
X150105Y240003D01*
X150548Y240446D01*
X150787Y241025D01*
Y241652D01*
X150548Y242231D01*
X150105Y242674D01*
X149526Y242913D01*
D02*
G37*
G36*
X108187Y239764D02*
X107561D01*
X106982Y239524D01*
X106539Y239081D01*
X106299Y238502D01*
Y237876D01*
X106539Y237297D01*
X106982Y236854D01*
X107561Y236614D01*
X108187D01*
X108766Y236854D01*
X109209Y237297D01*
X109449Y237876D01*
Y238502D01*
X109209Y239081D01*
X108766Y239524D01*
X108187Y239764D01*
D02*
G37*
G36*
X77085D02*
X76458D01*
X75880Y239524D01*
X75437Y239081D01*
X75197Y238502D01*
Y237876D01*
X75437Y237297D01*
X75880Y236854D01*
X76458Y236614D01*
X77085D01*
X77664Y236854D01*
X78107Y237297D01*
X78347Y237876D01*
Y238502D01*
X78107Y239081D01*
X77664Y239524D01*
X77085Y239764D01*
D02*
G37*
G36*
X171363Y236404D02*
X170737D01*
X170158Y236165D01*
X169715Y235722D01*
X169475Y235143D01*
Y234516D01*
X169715Y233938D01*
X170158Y233494D01*
X170737Y233255D01*
X171363D01*
X171942Y233494D01*
X172385Y233938D01*
X172625Y234516D01*
Y235143D01*
X172385Y235722D01*
X171942Y236165D01*
X171363Y236404D01*
D02*
G37*
G36*
X108286Y236319D02*
X107659D01*
X107080Y236079D01*
X106637Y235636D01*
X106398Y235057D01*
Y234431D01*
X106637Y233852D01*
X107080Y233409D01*
X107659Y233169D01*
X108286D01*
X108864Y233409D01*
X109308Y233852D01*
X109547Y234431D01*
Y235057D01*
X109308Y235636D01*
X108864Y236079D01*
X108286Y236319D01*
D02*
G37*
G36*
X414487Y236221D02*
X413860D01*
X413281Y235981D01*
X412838Y235538D01*
X412598Y234959D01*
Y234332D01*
X412838Y233754D01*
X413281Y233311D01*
X413860Y233071D01*
X414487D01*
X415065Y233311D01*
X415508Y233754D01*
X415748Y234332D01*
Y234959D01*
X415508Y235538D01*
X415065Y235981D01*
X414487Y236221D01*
D02*
G37*
G36*
X286731Y234449D02*
X286104D01*
X285525Y234209D01*
X285082Y233766D01*
X284842Y233187D01*
Y232561D01*
X285082Y231982D01*
X285525Y231539D01*
X286104Y231299D01*
X286731D01*
X287309Y231539D01*
X287752Y231982D01*
X287992Y232561D01*
Y233187D01*
X287752Y233766D01*
X287309Y234209D01*
X286731Y234449D01*
D02*
G37*
G36*
X23148Y234252D02*
X22521D01*
X21943Y234012D01*
X21500Y233569D01*
X21260Y232990D01*
Y232364D01*
X21500Y231785D01*
X21943Y231342D01*
X22521Y231102D01*
X23148D01*
X23727Y231342D01*
X24170Y231785D01*
X24409Y232364D01*
Y232990D01*
X24170Y233569D01*
X23727Y234012D01*
X23148Y234252D01*
D02*
G37*
G36*
X344408Y233071D02*
X343781D01*
X343202Y232831D01*
X342759Y232388D01*
X342520Y231809D01*
Y231183D01*
X342759Y230604D01*
X343202Y230161D01*
X343781Y229921D01*
X344408D01*
X344987Y230161D01*
X345429Y230604D01*
X345669Y231183D01*
Y231809D01*
X345429Y232388D01*
X344987Y232831D01*
X344408Y233071D01*
D02*
G37*
G36*
X172949Y232872D02*
X172322D01*
X171743Y232632D01*
X171300Y232189D01*
X171060Y231610D01*
Y230983D01*
X171300Y230405D01*
X171743Y229962D01*
X172322Y229722D01*
X172949D01*
X173527Y229962D01*
X173970Y230405D01*
X174210Y230983D01*
Y231610D01*
X173970Y232189D01*
X173527Y232632D01*
X172949Y232872D01*
D02*
G37*
G36*
X280235Y232283D02*
X279608D01*
X279029Y232044D01*
X278586Y231601D01*
X278346Y231022D01*
Y230395D01*
X278586Y229817D01*
X279029Y229374D01*
X279608Y229134D01*
X280235D01*
X280813Y229374D01*
X281256Y229817D01*
X281496Y230395D01*
Y231022D01*
X281256Y231601D01*
X280813Y232044D01*
X280235Y232283D01*
D02*
G37*
G36*
X235353D02*
X234726D01*
X234147Y232044D01*
X233704Y231601D01*
X233465Y231022D01*
Y230395D01*
X233704Y229817D01*
X234147Y229374D01*
X234726Y229134D01*
X235353D01*
X235931Y229374D01*
X236374Y229817D01*
X236614Y230395D01*
Y231022D01*
X236374Y231601D01*
X235931Y232044D01*
X235353Y232283D01*
D02*
G37*
G36*
X213305Y231890D02*
X212679D01*
X212100Y231650D01*
X211657Y231207D01*
X211417Y230628D01*
Y230002D01*
X211657Y229423D01*
X212100Y228980D01*
X212679Y228740D01*
X213305D01*
X213884Y228980D01*
X214327Y229423D01*
X214567Y230002D01*
Y230628D01*
X214327Y231207D01*
X213884Y231650D01*
X213305Y231890D01*
D02*
G37*
G36*
X365274Y228740D02*
X364647D01*
X364069Y228500D01*
X363626Y228057D01*
X363386Y227479D01*
Y226852D01*
X363626Y226273D01*
X364069Y225830D01*
X364647Y225590D01*
X365274D01*
X365853Y225830D01*
X366296Y226273D01*
X366535Y226852D01*
Y227479D01*
X366296Y228057D01*
X365853Y228500D01*
X365274Y228740D01*
D02*
G37*
G36*
X283384Y227953D02*
X282758D01*
X282179Y227713D01*
X281736Y227270D01*
X281496Y226691D01*
Y226065D01*
X281736Y225486D01*
X282179Y225043D01*
X282758Y224803D01*
X283384D01*
X283963Y225043D01*
X284406Y225486D01*
X284646Y226065D01*
Y226691D01*
X284406Y227270D01*
X283963Y227713D01*
X283384Y227953D01*
D02*
G37*
G36*
X328266Y227165D02*
X327640D01*
X327061Y226926D01*
X326618Y226483D01*
X326378Y225904D01*
Y225277D01*
X326618Y224698D01*
X327061Y224255D01*
X327640Y224016D01*
X328266D01*
X328845Y224255D01*
X329288Y224698D01*
X329528Y225277D01*
Y225904D01*
X329288Y226483D01*
X328845Y226926D01*
X328266Y227165D01*
D02*
G37*
G36*
X414880Y225590D02*
X414254D01*
X413675Y225351D01*
X413232Y224908D01*
X412992Y224329D01*
Y223703D01*
X413232Y223124D01*
X413675Y222681D01*
X414254Y222441D01*
X414880D01*
X415459Y222681D01*
X415902Y223124D01*
X416142Y223703D01*
Y224329D01*
X415902Y224908D01*
X415459Y225351D01*
X414880Y225590D01*
D02*
G37*
G36*
X83384D02*
X82758D01*
X82179Y225351D01*
X81736Y224908D01*
X81496Y224329D01*
Y223703D01*
X81736Y223124D01*
X82179Y222681D01*
X82758Y222441D01*
X83384D01*
X83963Y222681D01*
X84406Y223124D01*
X84646Y223703D01*
Y224329D01*
X84406Y224908D01*
X83963Y225351D01*
X83384Y225590D01*
D02*
G37*
G36*
X75510Y225197D02*
X74884D01*
X74305Y224957D01*
X73862Y224514D01*
X73622Y223935D01*
Y223309D01*
X73862Y222730D01*
X74305Y222287D01*
X74884Y222047D01*
X75510D01*
X76089Y222287D01*
X76532Y222730D01*
X76772Y223309D01*
Y223935D01*
X76532Y224514D01*
X76089Y224957D01*
X75510Y225197D01*
D02*
G37*
G36*
X362912Y222933D02*
X362285D01*
X361706Y222693D01*
X361263Y222250D01*
X361024Y221672D01*
Y221045D01*
X361263Y220466D01*
X361706Y220023D01*
X362285Y219783D01*
X362912D01*
X363491Y220023D01*
X363933Y220466D01*
X364173Y221045D01*
Y221672D01*
X363933Y222250D01*
X363491Y222693D01*
X362912Y222933D01*
D02*
G37*
G36*
X210943Y222441D02*
X210317D01*
X209738Y222201D01*
X209295Y221758D01*
X209055Y221179D01*
Y220553D01*
X209295Y219974D01*
X209738Y219531D01*
X210317Y219291D01*
X210943D01*
X211522Y219531D01*
X211965Y219974D01*
X212205Y220553D01*
Y221179D01*
X211965Y221758D01*
X211522Y222201D01*
X210943Y222441D01*
D02*
G37*
G36*
X188502D02*
X187876D01*
X187297Y222201D01*
X186854Y221758D01*
X186614Y221179D01*
Y220553D01*
X186854Y219974D01*
X187297Y219531D01*
X187876Y219291D01*
X188502D01*
X189081Y219531D01*
X189524Y219974D01*
X189764Y220553D01*
Y221179D01*
X189524Y221758D01*
X189081Y222201D01*
X188502Y222441D01*
D02*
G37*
G36*
X178842Y222230D02*
X178216D01*
X177637Y221990D01*
X177194Y221547D01*
X176954Y220968D01*
Y220342D01*
X177194Y219763D01*
X177637Y219320D01*
X178216Y219080D01*
X178842D01*
X179421Y219320D01*
X179864Y219763D01*
X180104Y220342D01*
Y220968D01*
X179864Y221547D01*
X179421Y221990D01*
X178842Y222230D01*
D02*
G37*
G36*
X138502Y220079D02*
X137876D01*
X137297Y219839D01*
X136854Y219396D01*
X136614Y218817D01*
Y218191D01*
X136854Y217612D01*
X137297Y217169D01*
X137876Y216929D01*
X138502D01*
X139081Y217169D01*
X139524Y217612D01*
X139764Y218191D01*
Y218817D01*
X139524Y219396D01*
X139081Y219839D01*
X138502Y220079D01*
D02*
G37*
G36*
X149526Y220079D02*
X148899D01*
X148321Y219839D01*
X147878Y219396D01*
X147638Y218817D01*
Y218191D01*
X147878Y217612D01*
X148321Y217169D01*
X148899Y216929D01*
X149526D01*
X150105Y217169D01*
X150548Y217612D01*
X150787Y218191D01*
Y218817D01*
X150548Y219396D01*
X150105Y219839D01*
X149526Y220079D01*
D02*
G37*
G36*
X180631Y218901D02*
X180005D01*
X179426Y218661D01*
X178983Y218218D01*
X178743Y217639D01*
Y217013D01*
X178983Y216434D01*
X179426Y215991D01*
X180005Y215751D01*
X180631D01*
X181210Y215991D01*
X181653Y216434D01*
X181893Y217013D01*
Y217639D01*
X181653Y218218D01*
X181210Y218661D01*
X180631Y218901D01*
D02*
G37*
G36*
X263699Y215748D02*
X263073D01*
X262494Y215508D01*
X262051Y215065D01*
X261811Y214487D01*
Y213860D01*
X262051Y213281D01*
X262494Y212838D01*
X263073Y212598D01*
X263699D01*
X264278Y212838D01*
X264721Y213281D01*
X264961Y213860D01*
Y214487D01*
X264721Y215065D01*
X264278Y215508D01*
X263699Y215748D01*
D02*
G37*
G36*
X257794D02*
X257167D01*
X256588Y215508D01*
X256145Y215065D01*
X255906Y214487D01*
Y213860D01*
X256145Y213281D01*
X256588Y212838D01*
X257167Y212598D01*
X257794D01*
X258372Y212838D01*
X258815Y213281D01*
X259055Y213860D01*
Y214487D01*
X258815Y215065D01*
X258372Y215508D01*
X257794Y215748D01*
D02*
G37*
G36*
X182849Y215607D02*
X182223D01*
X181644Y215367D01*
X181201Y214924D01*
X180961Y214345D01*
Y213719D01*
X181201Y213140D01*
X181644Y212697D01*
X182223Y212457D01*
X182849D01*
X183428Y212697D01*
X183871Y213140D01*
X184111Y213719D01*
Y214345D01*
X183871Y214924D01*
X183428Y215367D01*
X182849Y215607D01*
D02*
G37*
G36*
X252676Y214961D02*
X252049D01*
X251470Y214721D01*
X251027Y214278D01*
X250787Y213699D01*
Y213073D01*
X251027Y212494D01*
X251470Y212051D01*
X252049Y211811D01*
X252676D01*
X253254Y212051D01*
X253697Y212494D01*
X253937Y213073D01*
Y213699D01*
X253697Y214278D01*
X253254Y214721D01*
X252676Y214961D01*
D02*
G37*
G36*
X24329Y212598D02*
X23702D01*
X23124Y212359D01*
X22681Y211916D01*
X22441Y211337D01*
Y210710D01*
X22681Y210132D01*
X23124Y209689D01*
X23702Y209449D01*
X24329D01*
X24908Y209689D01*
X25351Y210132D01*
X25591Y210710D01*
Y211337D01*
X25351Y211916D01*
X24908Y212359D01*
X24329Y212598D01*
D02*
G37*
G36*
X138502Y211417D02*
X137876D01*
X137297Y211178D01*
X136854Y210735D01*
X136614Y210156D01*
Y209529D01*
X136854Y208950D01*
X137297Y208507D01*
X137876Y208268D01*
X138502D01*
X139081Y208507D01*
X139524Y208950D01*
X139764Y209529D01*
Y210156D01*
X139524Y210735D01*
X139081Y211178D01*
X138502Y211417D01*
D02*
G37*
G36*
X182990Y211024D02*
X182364D01*
X181785Y210784D01*
X181342Y210341D01*
X181102Y209762D01*
Y209136D01*
X181342Y208557D01*
X181785Y208114D01*
X182364Y207874D01*
X182990D01*
X183569Y208114D01*
X184012Y208557D01*
X184252Y209136D01*
Y209762D01*
X184012Y210341D01*
X183569Y210784D01*
X182990Y211024D01*
D02*
G37*
G36*
X27085Y206299D02*
X26458D01*
X25880Y206060D01*
X25437Y205616D01*
X25197Y205038D01*
Y204411D01*
X25437Y203832D01*
X25880Y203389D01*
X26458Y203150D01*
X27085D01*
X27664Y203389D01*
X28107Y203832D01*
X28346Y204411D01*
Y205038D01*
X28107Y205616D01*
X27664Y206060D01*
X27085Y206299D01*
D02*
G37*
G36*
X414880Y204724D02*
X414254D01*
X413675Y204485D01*
X413232Y204042D01*
X412992Y203463D01*
Y202836D01*
X413232Y202258D01*
X413675Y201815D01*
X414254Y201575D01*
X414880D01*
X415459Y201815D01*
X415902Y202258D01*
X416142Y202836D01*
Y203463D01*
X415902Y204042D01*
X415459Y204485D01*
X414880Y204724D01*
D02*
G37*
G36*
X197164Y204331D02*
X196537D01*
X195958Y204091D01*
X195515Y203648D01*
X195276Y203069D01*
Y202443D01*
X195515Y201864D01*
X195958Y201421D01*
X196537Y201181D01*
X197164D01*
X197742Y201421D01*
X198185Y201864D01*
X198425Y202443D01*
Y203069D01*
X198185Y203648D01*
X197742Y204091D01*
X197164Y204331D01*
D02*
G37*
G36*
X188109Y203150D02*
X187482D01*
X186903Y202910D01*
X186460Y202467D01*
X186221Y201888D01*
Y201262D01*
X186460Y200683D01*
X186903Y200240D01*
X187482Y200000D01*
X188109D01*
X188687Y200240D01*
X189130Y200683D01*
X189370Y201262D01*
Y201888D01*
X189130Y202467D01*
X188687Y202910D01*
X188109Y203150D01*
D02*
G37*
G36*
X209623Y202362D02*
X208996D01*
X208417Y202122D01*
X207974Y201679D01*
X207734Y201101D01*
Y200474D01*
X207974Y199895D01*
X208417Y199452D01*
X208996Y199213D01*
X209623D01*
X210201Y199452D01*
X210644Y199895D01*
X210884Y200474D01*
Y201101D01*
X210644Y201679D01*
X210201Y202122D01*
X209623Y202362D01*
D02*
G37*
G36*
X120884Y201870D02*
X120258D01*
X119679Y201630D01*
X119236Y201187D01*
X118996Y200608D01*
Y199982D01*
X119236Y199403D01*
X119679Y198960D01*
X120258Y198721D01*
X120884D01*
X121463Y198960D01*
X121906Y199403D01*
X122146Y199982D01*
Y200608D01*
X121906Y201187D01*
X121463Y201630D01*
X120884Y201870D01*
D02*
G37*
G36*
X112124Y200000D02*
X111498D01*
X110919Y199760D01*
X110476Y199317D01*
X110236Y198738D01*
Y198112D01*
X110476Y197533D01*
X110919Y197090D01*
X111498Y196850D01*
X112124D01*
X112703Y197090D01*
X113146Y197533D01*
X113386Y198112D01*
Y198738D01*
X113146Y199317D01*
X112703Y199760D01*
X112124Y200000D01*
D02*
G37*
G36*
X364487Y198819D02*
X363860D01*
X363281Y198579D01*
X362838Y198136D01*
X362598Y197557D01*
Y196931D01*
X362838Y196352D01*
X363281Y195909D01*
X363860Y195669D01*
X364487D01*
X365065Y195909D01*
X365508Y196352D01*
X365748Y196931D01*
Y197557D01*
X365508Y198136D01*
X365065Y198579D01*
X364487Y198819D01*
D02*
G37*
G36*
X173542Y196457D02*
X172915D01*
X172336Y196217D01*
X171893Y195774D01*
X171653Y195195D01*
Y194569D01*
X171893Y193990D01*
X172336Y193547D01*
X172915Y193307D01*
X173542D01*
X174120Y193547D01*
X174563Y193990D01*
X174803Y194569D01*
Y195195D01*
X174563Y195774D01*
X174120Y196217D01*
X173542Y196457D01*
D02*
G37*
G36*
X344014Y192126D02*
X343388D01*
X342809Y191886D01*
X342366Y191443D01*
X342126Y190864D01*
Y190238D01*
X342366Y189659D01*
X342809Y189216D01*
X343388Y188976D01*
X344014D01*
X344593Y189216D01*
X345036Y189659D01*
X345276Y190238D01*
Y190864D01*
X345036Y191443D01*
X344593Y191886D01*
X344014Y192126D01*
D02*
G37*
G36*
X315274D02*
X314647D01*
X314069Y191886D01*
X313626Y191443D01*
X313386Y190864D01*
Y190238D01*
X313626Y189659D01*
X314069Y189216D01*
X314647Y188976D01*
X315274D01*
X315853Y189216D01*
X316296Y189659D01*
X316535Y190238D01*
Y190864D01*
X316296Y191443D01*
X315853Y191886D01*
X315274Y192126D01*
D02*
G37*
G36*
X462124Y191339D02*
X461498D01*
X460919Y191099D01*
X460476Y190656D01*
X460236Y190077D01*
Y189451D01*
X460476Y188872D01*
X460919Y188429D01*
X461498Y188189D01*
X462124D01*
X462703Y188429D01*
X463146Y188872D01*
X463386Y189451D01*
Y190077D01*
X463146Y190656D01*
X462703Y191099D01*
X462124Y191339D01*
D02*
G37*
G36*
X86219Y191260D02*
X85592D01*
X85014Y191020D01*
X84570Y190577D01*
X84331Y189998D01*
Y189372D01*
X84570Y188793D01*
X85014Y188350D01*
X85592Y188110D01*
X86219D01*
X86798Y188350D01*
X87241Y188793D01*
X87480Y189372D01*
Y189998D01*
X87241Y190577D01*
X86798Y191020D01*
X86219Y191260D01*
D02*
G37*
G36*
X413896Y190354D02*
X413269D01*
X412691Y190115D01*
X412248Y189672D01*
X412008Y189093D01*
Y188466D01*
X412248Y187888D01*
X412691Y187444D01*
X413269Y187205D01*
X413896D01*
X414475Y187444D01*
X414918Y187888D01*
X415158Y188466D01*
Y189093D01*
X414918Y189672D01*
X414475Y190115D01*
X413896Y190354D01*
D02*
G37*
G36*
X455825Y190157D02*
X455199D01*
X454620Y189918D01*
X454177Y189475D01*
X453937Y188896D01*
Y188269D01*
X454177Y187691D01*
X454620Y187248D01*
X455199Y187008D01*
X455825D01*
X456404Y187248D01*
X456847Y187691D01*
X457087Y188269D01*
Y188896D01*
X456847Y189475D01*
X456404Y189918D01*
X455825Y190157D01*
D02*
G37*
G36*
X382203Y188189D02*
X381576D01*
X380998Y187949D01*
X380555Y187506D01*
X380315Y186927D01*
Y186301D01*
X380555Y185722D01*
X380998Y185279D01*
X381576Y185039D01*
X382203D01*
X382782Y185279D01*
X383225Y185722D01*
X383465Y186301D01*
Y186927D01*
X383225Y187506D01*
X382782Y187949D01*
X382203Y188189D01*
D02*
G37*
G36*
X178660Y186614D02*
X178033D01*
X177454Y186374D01*
X177011Y185931D01*
X176772Y185353D01*
Y184726D01*
X177011Y184147D01*
X177454Y183704D01*
X178033Y183465D01*
X178660D01*
X179238Y183704D01*
X179682Y184147D01*
X179921Y184726D01*
Y185353D01*
X179682Y185931D01*
X179238Y186374D01*
X178660Y186614D01*
D02*
G37*
G36*
X131613Y184055D02*
X130986D01*
X130407Y183815D01*
X129964Y183372D01*
X129724Y182794D01*
Y182167D01*
X129964Y181588D01*
X130407Y181145D01*
X130986Y180905D01*
X131613D01*
X132191Y181145D01*
X132634Y181588D01*
X132874Y182167D01*
Y182794D01*
X132634Y183372D01*
X132191Y183815D01*
X131613Y184055D01*
D02*
G37*
G36*
X382203Y180315D02*
X381576D01*
X380998Y180075D01*
X380555Y179632D01*
X380315Y179053D01*
Y178427D01*
X380555Y177848D01*
X380998Y177405D01*
X381576Y177165D01*
X382203D01*
X382782Y177405D01*
X383225Y177848D01*
X383465Y178427D01*
Y179053D01*
X383225Y179632D01*
X382782Y180075D01*
X382203Y180315D01*
D02*
G37*
G36*
X141652D02*
X141025D01*
X140446Y180075D01*
X140004Y179632D01*
X139764Y179053D01*
Y178427D01*
X140004Y177848D01*
X140446Y177405D01*
X141025Y177165D01*
X141652D01*
X142231Y177405D01*
X142674Y177848D01*
X142913Y178427D01*
Y179053D01*
X142674Y179632D01*
X142231Y180075D01*
X141652Y180315D01*
D02*
G37*
G36*
X138502D02*
X137876D01*
X137297Y180075D01*
X136854Y179632D01*
X136614Y179053D01*
Y178427D01*
X136854Y177848D01*
X137297Y177405D01*
X137876Y177165D01*
X138502D01*
X139081Y177405D01*
X139524Y177848D01*
X139764Y178427D01*
Y179053D01*
X139524Y179632D01*
X139081Y180075D01*
X138502Y180315D01*
D02*
G37*
G36*
X131809D02*
X131183D01*
X130604Y180075D01*
X130161Y179632D01*
X129921Y179053D01*
Y178427D01*
X130161Y177848D01*
X130604Y177405D01*
X131183Y177165D01*
X131809D01*
X132388Y177405D01*
X132831Y177848D01*
X133071Y178427D01*
Y179053D01*
X132831Y179632D01*
X132388Y180075D01*
X131809Y180315D01*
D02*
G37*
G36*
X147164Y178347D02*
X146537D01*
X145958Y178107D01*
X145515Y177664D01*
X145276Y177085D01*
Y176458D01*
X145515Y175880D01*
X145958Y175437D01*
X146537Y175197D01*
X147164D01*
X147742Y175437D01*
X148185Y175880D01*
X148425Y176458D01*
Y177085D01*
X148185Y177664D01*
X147742Y178107D01*
X147164Y178347D01*
D02*
G37*
G36*
X414902Y175984D02*
X414276D01*
X413697Y175744D01*
X413254Y175302D01*
X413014Y174723D01*
Y174096D01*
X413254Y173517D01*
X413697Y173074D01*
X414276Y172835D01*
X414902D01*
X415481Y173074D01*
X415924Y173517D01*
X416164Y174096D01*
Y174723D01*
X415924Y175302D01*
X415481Y175744D01*
X414902Y175984D01*
D02*
G37*
G36*
X73148Y174713D02*
X72521D01*
X71943Y174473D01*
X71500Y174030D01*
X71260Y173451D01*
Y172825D01*
X71500Y172246D01*
X71943Y171803D01*
X72521Y171563D01*
X73148D01*
X73727Y171803D01*
X74170Y172246D01*
X74410Y172825D01*
Y173451D01*
X74170Y174030D01*
X73727Y174473D01*
X73148Y174713D01*
D02*
G37*
G36*
X150707Y174409D02*
X150080D01*
X149502Y174170D01*
X149059Y173727D01*
X148819Y173148D01*
Y172521D01*
X149059Y171943D01*
X149502Y171500D01*
X150080Y171260D01*
X150707D01*
X151286Y171500D01*
X151729Y171943D01*
X151969Y172521D01*
Y173148D01*
X151729Y173727D01*
X151286Y174170D01*
X150707Y174409D01*
D02*
G37*
G36*
X146770Y174016D02*
X146143D01*
X145565Y173776D01*
X145122Y173333D01*
X144882Y172754D01*
Y172128D01*
X145122Y171549D01*
X145565Y171106D01*
X146143Y170866D01*
X146770D01*
X147349Y171106D01*
X147792Y171549D01*
X148031Y172128D01*
Y172754D01*
X147792Y173333D01*
X147349Y173776D01*
X146770Y174016D01*
D02*
G37*
G36*
X441258Y172835D02*
X440632D01*
X440053Y172595D01*
X439610Y172152D01*
X439370Y171573D01*
Y170947D01*
X439610Y170368D01*
X440053Y169925D01*
X440632Y169685D01*
X441258D01*
X441837Y169925D01*
X442280Y170368D01*
X442520Y170947D01*
Y171573D01*
X442280Y172152D01*
X441837Y172595D01*
X441258Y172835D01*
D02*
G37*
G36*
X382203D02*
X381576D01*
X380998Y172595D01*
X380555Y172152D01*
X380315Y171573D01*
Y170947D01*
X380555Y170368D01*
X380998Y169925D01*
X381576Y169685D01*
X382203D01*
X382782Y169925D01*
X383225Y170368D01*
X383465Y170947D01*
Y171573D01*
X383225Y172152D01*
X382782Y172595D01*
X382203Y172835D01*
D02*
G37*
G36*
X455825Y172441D02*
X455199D01*
X454620Y172201D01*
X454177Y171758D01*
X453937Y171179D01*
Y170553D01*
X454177Y169974D01*
X454620Y169531D01*
X455199Y169291D01*
X455825D01*
X456404Y169531D01*
X456847Y169974D01*
X457087Y170553D01*
Y171179D01*
X456847Y171758D01*
X456404Y172201D01*
X455825Y172441D01*
D02*
G37*
G36*
X86534Y171260D02*
X85907D01*
X85328Y171020D01*
X84885Y170577D01*
X84646Y169998D01*
Y169372D01*
X84885Y168793D01*
X85328Y168350D01*
X85907Y168110D01*
X86534D01*
X87112Y168350D01*
X87555Y168793D01*
X87795Y169372D01*
Y169998D01*
X87555Y170577D01*
X87112Y171020D01*
X86534Y171260D01*
D02*
G37*
G36*
X116455Y170866D02*
X115829D01*
X115250Y170626D01*
X114807Y170183D01*
X114567Y169605D01*
Y168978D01*
X114807Y168399D01*
X115250Y167956D01*
X115829Y167717D01*
X116455D01*
X117034Y167956D01*
X117477Y168399D01*
X117717Y168978D01*
Y169605D01*
X117477Y170183D01*
X117034Y170626D01*
X116455Y170866D01*
D02*
G37*
G36*
X56612D02*
X55986D01*
X55407Y170626D01*
X54964Y170183D01*
X54724Y169605D01*
Y168978D01*
X54964Y168399D01*
X55407Y167956D01*
X55986Y167717D01*
X56612D01*
X57191Y167956D01*
X57634Y168399D01*
X57874Y168978D01*
Y169605D01*
X57634Y170183D01*
X57191Y170626D01*
X56612Y170866D01*
D02*
G37*
G36*
X317144Y170374D02*
X316517D01*
X315939Y170134D01*
X315496Y169691D01*
X315256Y169113D01*
Y168486D01*
X315496Y167907D01*
X315939Y167464D01*
X316517Y167224D01*
X317144D01*
X317723Y167464D01*
X318166Y167907D01*
X318406Y168486D01*
Y169113D01*
X318166Y169691D01*
X317723Y170134D01*
X317144Y170374D01*
D02*
G37*
G36*
X146770Y169185D02*
X146143D01*
X145565Y168945D01*
X145122Y168502D01*
X144882Y167923D01*
Y167297D01*
X145122Y166718D01*
X145565Y166275D01*
X146143Y166035D01*
X146770D01*
X147349Y166275D01*
X147792Y166718D01*
X148031Y167297D01*
Y167923D01*
X147792Y168502D01*
X147349Y168945D01*
X146770Y169185D01*
D02*
G37*
G36*
X365274Y168405D02*
X364647D01*
X364069Y168166D01*
X363626Y167723D01*
X363386Y167144D01*
Y166517D01*
X363626Y165939D01*
X364069Y165496D01*
X364647Y165256D01*
X365274D01*
X365853Y165496D01*
X366296Y165939D01*
X366535Y166517D01*
Y167144D01*
X366296Y167723D01*
X365853Y168166D01*
X365274Y168405D01*
D02*
G37*
G36*
X155825Y166535D02*
X155199D01*
X154620Y166296D01*
X154177Y165853D01*
X153937Y165274D01*
Y164647D01*
X154177Y164069D01*
X154620Y163626D01*
X155199Y163386D01*
X155825D01*
X156404Y163626D01*
X156847Y164069D01*
X157087Y164647D01*
Y165274D01*
X156847Y165853D01*
X156404Y166296D01*
X155825Y166535D01*
D02*
G37*
G36*
X338502Y165748D02*
X337876D01*
X337297Y165508D01*
X336854Y165065D01*
X336614Y164487D01*
Y163860D01*
X336854Y163281D01*
X337297Y162838D01*
X337876Y162598D01*
X338502D01*
X339081Y162838D01*
X339524Y163281D01*
X339764Y163860D01*
Y164487D01*
X339524Y165065D01*
X339081Y165508D01*
X338502Y165748D01*
D02*
G37*
G36*
X177085Y164567D02*
X176458D01*
X175880Y164327D01*
X175437Y163884D01*
X175197Y163305D01*
Y162679D01*
X175437Y162100D01*
X175880Y161657D01*
X176458Y161417D01*
X177085D01*
X177664Y161657D01*
X178107Y162100D01*
X178347Y162679D01*
Y163305D01*
X178107Y163884D01*
X177664Y164327D01*
X177085Y164567D01*
D02*
G37*
G36*
X333384Y163779D02*
X332758D01*
X332179Y163540D01*
X331736Y163097D01*
X331496Y162518D01*
Y161891D01*
X331736Y161313D01*
X332179Y160870D01*
X332758Y160630D01*
X333384D01*
X333963Y160870D01*
X334406Y161313D01*
X334646Y161891D01*
Y162518D01*
X334406Y163097D01*
X333963Y163540D01*
X333384Y163779D01*
D02*
G37*
G36*
X327479Y163386D02*
X326852D01*
X326273Y163146D01*
X325830Y162703D01*
X325590Y162124D01*
Y161498D01*
X325830Y160919D01*
X326273Y160476D01*
X326852Y160236D01*
X327479D01*
X328057Y160476D01*
X328500Y160919D01*
X328740Y161498D01*
Y162124D01*
X328500Y162703D01*
X328057Y163146D01*
X327479Y163386D01*
D02*
G37*
G36*
X255864Y161850D02*
X255238D01*
X254659Y161611D01*
X254216Y161168D01*
X253976Y160589D01*
Y159962D01*
X254216Y159383D01*
X254659Y158940D01*
X255238Y158701D01*
X255864D01*
X256443Y158940D01*
X256886Y159383D01*
X257126Y159962D01*
Y160589D01*
X256886Y161168D01*
X256443Y161611D01*
X255864Y161850D01*
D02*
G37*
G36*
X146770Y159055D02*
X146143D01*
X145565Y158815D01*
X145122Y158372D01*
X144882Y157794D01*
Y157167D01*
X145122Y156588D01*
X145565Y156145D01*
X146143Y155905D01*
X146770D01*
X147349Y156145D01*
X147792Y156588D01*
X148031Y157167D01*
Y157794D01*
X147792Y158372D01*
X147349Y158815D01*
X146770Y159055D01*
D02*
G37*
G36*
X307794Y157874D02*
X307167D01*
X306588Y157634D01*
X306145Y157191D01*
X305906Y156613D01*
Y155986D01*
X306145Y155407D01*
X306588Y154964D01*
X307167Y154724D01*
X307794D01*
X308372Y154964D01*
X308815Y155407D01*
X309055Y155986D01*
Y156613D01*
X308815Y157191D01*
X308372Y157634D01*
X307794Y157874D01*
D02*
G37*
G36*
X338502Y154331D02*
X337876D01*
X337297Y154091D01*
X336854Y153648D01*
X336614Y153069D01*
Y152443D01*
X336854Y151864D01*
X337297Y151421D01*
X337876Y151181D01*
X338502D01*
X339081Y151421D01*
X339524Y151864D01*
X339764Y152443D01*
Y153069D01*
X339524Y153648D01*
X339081Y154091D01*
X338502Y154331D01*
D02*
G37*
G36*
X200313Y151969D02*
X199687D01*
X199108Y151729D01*
X198665Y151286D01*
X198425Y150707D01*
Y150080D01*
X198665Y149502D01*
X199108Y149059D01*
X199687Y148819D01*
X200313D01*
X200892Y149059D01*
X201335Y149502D01*
X201575Y150080D01*
Y150707D01*
X201335Y151286D01*
X200892Y151729D01*
X200313Y151969D01*
D02*
G37*
G36*
X88896Y125591D02*
X88269D01*
X87691Y125351D01*
X87248Y124908D01*
X87008Y124329D01*
Y123703D01*
X87248Y123124D01*
X87691Y122681D01*
X88269Y122441D01*
X88896D01*
X89475Y122681D01*
X89918Y123124D01*
X90158Y123703D01*
Y124329D01*
X89918Y124908D01*
X89475Y125351D01*
X88896Y125591D01*
D02*
G37*
G36*
X50313D02*
X49687D01*
X49108Y125351D01*
X48665Y124908D01*
X48425Y124329D01*
Y123703D01*
X48665Y123124D01*
X49108Y122681D01*
X49687Y122441D01*
X50313D01*
X50892Y122681D01*
X51335Y123124D01*
X51575Y123703D01*
Y124329D01*
X51335Y124908D01*
X50892Y125351D01*
X50313Y125591D01*
D02*
G37*
G36*
X365274Y123228D02*
X364647D01*
X364069Y122989D01*
X363626Y122546D01*
X363386Y121967D01*
Y121340D01*
X363626Y120762D01*
X364069Y120318D01*
X364647Y120079D01*
X365274D01*
X365853Y120318D01*
X366296Y120762D01*
X366535Y121340D01*
Y121967D01*
X366296Y122546D01*
X365853Y122989D01*
X365274Y123228D01*
D02*
G37*
G36*
X329053D02*
X328427D01*
X327848Y122989D01*
X327405Y122546D01*
X327165Y121967D01*
Y121340D01*
X327405Y120762D01*
X327848Y120318D01*
X328427Y120079D01*
X329053D01*
X329632Y120318D01*
X330075Y120762D01*
X330315Y121340D01*
Y121967D01*
X330075Y122546D01*
X329632Y122989D01*
X329053Y123228D01*
D02*
G37*
G36*
X273542Y120866D02*
X272915D01*
X272336Y120626D01*
X271893Y120183D01*
X271654Y119605D01*
Y118978D01*
X271893Y118399D01*
X272336Y117956D01*
X272915Y117717D01*
X273542D01*
X274120Y117956D01*
X274563Y118399D01*
X274803Y118978D01*
Y119605D01*
X274563Y120183D01*
X274120Y120626D01*
X273542Y120866D01*
D02*
G37*
G36*
X252676Y119291D02*
X252049D01*
X251470Y119052D01*
X251027Y118609D01*
X250787Y118030D01*
Y117403D01*
X251027Y116824D01*
X251470Y116382D01*
X252049Y116142D01*
X252676D01*
X253254Y116382D01*
X253697Y116824D01*
X253937Y117403D01*
Y118030D01*
X253697Y118609D01*
X253254Y119052D01*
X252676Y119291D01*
D02*
G37*
G36*
X48345D02*
X47718D01*
X47139Y119052D01*
X46696Y118609D01*
X46457Y118030D01*
Y117403D01*
X46696Y116824D01*
X47139Y116382D01*
X47718Y116142D01*
X48345D01*
X48924Y116382D01*
X49367Y116824D01*
X49606Y117403D01*
Y118030D01*
X49367Y118609D01*
X48924Y119052D01*
X48345Y119291D01*
D02*
G37*
G36*
X269756Y118374D02*
X269129D01*
X268551Y118134D01*
X268108Y117691D01*
X267868Y117112D01*
Y116486D01*
X268108Y115907D01*
X268551Y115464D01*
X269129Y115224D01*
X269756D01*
X270335Y115464D01*
X270778Y115907D01*
X271018Y116486D01*
Y117112D01*
X270778Y117691D01*
X270335Y118134D01*
X269756Y118374D01*
D02*
G37*
G36*
X414487Y117323D02*
X413860D01*
X413281Y117083D01*
X412838Y116640D01*
X412598Y116061D01*
Y115435D01*
X412838Y114856D01*
X413281Y114413D01*
X413860Y114173D01*
X414487D01*
X415065Y114413D01*
X415508Y114856D01*
X415748Y115435D01*
Y116061D01*
X415508Y116640D01*
X415065Y117083D01*
X414487Y117323D01*
D02*
G37*
G36*
X363797Y116634D02*
X363171D01*
X362592Y116394D01*
X362149Y115951D01*
X361910Y115372D01*
Y114746D01*
X362149Y114167D01*
X362592Y113724D01*
X363171Y113484D01*
X363797D01*
X364376Y113724D01*
X364819Y114167D01*
X365059Y114746D01*
Y115372D01*
X364819Y115951D01*
X364376Y116394D01*
X363797Y116634D01*
D02*
G37*
G36*
X124034D02*
X123407D01*
X122828Y116394D01*
X122385Y115951D01*
X122146Y115372D01*
Y114746D01*
X122385Y114167D01*
X122828Y113724D01*
X123407Y113484D01*
X124034D01*
X124612Y113724D01*
X125056Y114167D01*
X125295Y114746D01*
Y115372D01*
X125056Y115951D01*
X124612Y116394D01*
X124034Y116634D01*
D02*
G37*
G36*
X149526Y112992D02*
X148899D01*
X148321Y112752D01*
X147878Y112309D01*
X147638Y111731D01*
Y111104D01*
X147878Y110525D01*
X148321Y110082D01*
X148899Y109843D01*
X149526D01*
X150105Y110082D01*
X150548Y110525D01*
X150787Y111104D01*
Y111731D01*
X150548Y112309D01*
X150105Y112752D01*
X149526Y112992D01*
D02*
G37*
G36*
X77085Y109843D02*
X76458D01*
X75880Y109603D01*
X75437Y109160D01*
X75197Y108581D01*
Y107955D01*
X75437Y107376D01*
X75880Y106933D01*
X76458Y106693D01*
X77085D01*
X77664Y106933D01*
X78107Y107376D01*
X78347Y107955D01*
Y108581D01*
X78107Y109160D01*
X77664Y109603D01*
X77085Y109843D01*
D02*
G37*
G36*
X171363Y106483D02*
X170737D01*
X170158Y106243D01*
X169715Y105800D01*
X169475Y105221D01*
Y104595D01*
X169715Y104016D01*
X170158Y103573D01*
X170737Y103333D01*
X171363D01*
X171942Y103573D01*
X172385Y104016D01*
X172625Y104595D01*
Y105221D01*
X172385Y105800D01*
X171942Y106243D01*
X171363Y106483D01*
D02*
G37*
G36*
X108187Y109843D02*
X107561D01*
X106982Y109603D01*
X106539Y109160D01*
X106299Y108581D01*
Y107955D01*
X106539Y107376D01*
X106982Y106933D01*
X107452Y106738D01*
X107493Y106338D01*
X107491Y106328D01*
X107080Y106158D01*
X106637Y105715D01*
X106398Y105136D01*
Y104510D01*
X106637Y103931D01*
X107080Y103488D01*
X107659Y103248D01*
X108286D01*
X108864Y103488D01*
X109308Y103931D01*
X109547Y104510D01*
Y105136D01*
X109308Y105715D01*
X108864Y106158D01*
X108395Y106353D01*
X108353Y106753D01*
X108355Y106763D01*
X108766Y106933D01*
X109209Y107376D01*
X109449Y107955D01*
Y108581D01*
X109209Y109160D01*
X108766Y109603D01*
X108187Y109843D01*
D02*
G37*
G36*
X414487Y106299D02*
X413860D01*
X413281Y106060D01*
X412838Y105616D01*
X412598Y105038D01*
Y104411D01*
X412838Y103832D01*
X413281Y103389D01*
X413860Y103150D01*
X414487D01*
X415065Y103389D01*
X415508Y103832D01*
X415748Y104411D01*
Y105038D01*
X415508Y105616D01*
X415065Y106060D01*
X414487Y106299D01*
D02*
G37*
G36*
X286731Y104527D02*
X286104D01*
X285525Y104288D01*
X285082Y103845D01*
X284842Y103266D01*
Y102639D01*
X285082Y102061D01*
X285525Y101618D01*
X286104Y101378D01*
X286731D01*
X287309Y101618D01*
X287752Y102061D01*
X287992Y102639D01*
Y103266D01*
X287752Y103845D01*
X287309Y104288D01*
X286731Y104527D01*
D02*
G37*
G36*
X344408Y103150D02*
X343781D01*
X343202Y102910D01*
X342759Y102467D01*
X342520Y101888D01*
Y101261D01*
X342759Y100683D01*
X343202Y100240D01*
X343781Y100000D01*
X344408D01*
X344987Y100240D01*
X345429Y100683D01*
X345669Y101261D01*
Y101888D01*
X345429Y102467D01*
X344987Y102910D01*
X344408Y103150D01*
D02*
G37*
G36*
X172949Y102950D02*
X172322D01*
X171743Y102710D01*
X171300Y102268D01*
X171060Y101689D01*
Y101062D01*
X171300Y100483D01*
X171743Y100040D01*
X172322Y99801D01*
X172949D01*
X173527Y100040D01*
X173970Y100483D01*
X174210Y101062D01*
Y101689D01*
X173970Y102268D01*
X173527Y102710D01*
X172949Y102950D01*
D02*
G37*
G36*
X280235Y102362D02*
X279608D01*
X279029Y102122D01*
X278586Y101679D01*
X278346Y101101D01*
Y100474D01*
X278586Y99895D01*
X279029Y99452D01*
X279608Y99213D01*
X280235D01*
X280813Y99452D01*
X281256Y99895D01*
X281496Y100474D01*
Y101101D01*
X281256Y101679D01*
X280813Y102122D01*
X280235Y102362D01*
D02*
G37*
G36*
X235353D02*
X234726D01*
X234147Y102122D01*
X233704Y101679D01*
X233465Y101101D01*
Y100474D01*
X233704Y99895D01*
X234147Y99452D01*
X234726Y99213D01*
X235353D01*
X235931Y99452D01*
X236374Y99895D01*
X236614Y100474D01*
Y101101D01*
X236374Y101679D01*
X235931Y102122D01*
X235353Y102362D01*
D02*
G37*
G36*
X213305Y101969D02*
X212679D01*
X212100Y101729D01*
X211657Y101286D01*
X211417Y100707D01*
Y100080D01*
X211657Y99502D01*
X212100Y99059D01*
X212679Y98819D01*
X213305D01*
X213884Y99059D01*
X214327Y99502D01*
X214567Y100080D01*
Y100707D01*
X214327Y101286D01*
X213884Y101729D01*
X213305Y101969D01*
D02*
G37*
G36*
X365274Y99213D02*
X364647D01*
X364069Y98973D01*
X363626Y98530D01*
X363386Y97951D01*
Y97325D01*
X363626Y96746D01*
X364069Y96303D01*
X364647Y96063D01*
X365274D01*
X365853Y96303D01*
X366296Y96746D01*
X366535Y97325D01*
Y97951D01*
X366296Y98530D01*
X365853Y98973D01*
X365274Y99213D01*
D02*
G37*
G36*
X283384Y98032D02*
X282758D01*
X282179Y97792D01*
X281736Y97349D01*
X281496Y96770D01*
Y96143D01*
X281736Y95565D01*
X282179Y95122D01*
X282758Y94882D01*
X283384D01*
X283963Y95122D01*
X284406Y95565D01*
X284646Y96143D01*
Y96770D01*
X284406Y97349D01*
X283963Y97792D01*
X283384Y98032D01*
D02*
G37*
G36*
X328266Y97244D02*
X327640D01*
X327061Y97004D01*
X326618Y96561D01*
X326378Y95982D01*
Y95356D01*
X326618Y94777D01*
X327061Y94334D01*
X327640Y94095D01*
X328266D01*
X328845Y94334D01*
X329288Y94777D01*
X329528Y95356D01*
Y95982D01*
X329288Y96561D01*
X328845Y97004D01*
X328266Y97244D01*
D02*
G37*
G36*
X414880Y95669D02*
X414254D01*
X413675Y95429D01*
X413232Y94986D01*
X412992Y94408D01*
Y93781D01*
X413232Y93202D01*
X413675Y92759D01*
X414254Y92520D01*
X414880D01*
X415459Y92759D01*
X415902Y93202D01*
X416142Y93781D01*
Y94408D01*
X415902Y94986D01*
X415459Y95429D01*
X414880Y95669D01*
D02*
G37*
G36*
X47557D02*
X46931D01*
X46352Y95429D01*
X45909Y94986D01*
X45669Y94408D01*
Y93781D01*
X45909Y93202D01*
X46352Y92759D01*
X46931Y92520D01*
X47557D01*
X48136Y92759D01*
X48579Y93202D01*
X48819Y93781D01*
Y94408D01*
X48579Y94986D01*
X48136Y95429D01*
X47557Y95669D01*
D02*
G37*
G36*
X362912Y93012D02*
X362285D01*
X361706Y92772D01*
X361263Y92329D01*
X361024Y91750D01*
Y91124D01*
X361263Y90545D01*
X361706Y90102D01*
X362285Y89862D01*
X362912D01*
X363491Y90102D01*
X363933Y90545D01*
X364173Y91124D01*
Y91750D01*
X363933Y92329D01*
X363491Y92772D01*
X362912Y93012D01*
D02*
G37*
G36*
X210943Y92520D02*
X210317D01*
X209738Y92280D01*
X209295Y91837D01*
X209055Y91258D01*
Y90632D01*
X209295Y90053D01*
X209738Y89610D01*
X210317Y89370D01*
X210943D01*
X211522Y89610D01*
X211965Y90053D01*
X212205Y90632D01*
Y91258D01*
X211965Y91837D01*
X211522Y92280D01*
X210943Y92520D01*
D02*
G37*
G36*
X188502D02*
X187876D01*
X187297Y92280D01*
X186854Y91837D01*
X186614Y91258D01*
Y90632D01*
X186854Y90053D01*
X187297Y89610D01*
X187876Y89370D01*
X188502D01*
X189081Y89610D01*
X189524Y90053D01*
X189764Y90632D01*
Y91258D01*
X189524Y91837D01*
X189081Y92280D01*
X188502Y92520D01*
D02*
G37*
G36*
X178842Y92308D02*
X178216D01*
X177637Y92069D01*
X177194Y91626D01*
X176954Y91047D01*
Y90420D01*
X177194Y89842D01*
X177637Y89399D01*
X178216Y89159D01*
X178842D01*
X179421Y89399D01*
X179864Y89842D01*
X180104Y90420D01*
Y91047D01*
X179864Y91626D01*
X179421Y92069D01*
X178842Y92308D01*
D02*
G37*
G36*
X51888Y90551D02*
X51262D01*
X50683Y90311D01*
X50240Y89868D01*
X50000Y89290D01*
Y88663D01*
X50240Y88084D01*
X50683Y87641D01*
X51262Y87402D01*
X51888D01*
X52467Y87641D01*
X52910Y88084D01*
X53150Y88663D01*
Y89290D01*
X52910Y89868D01*
X52467Y90311D01*
X51888Y90551D01*
D02*
G37*
G36*
X138502Y90158D02*
X137876D01*
X137297Y89918D01*
X136854Y89475D01*
X136614Y88896D01*
Y88270D01*
X136854Y87691D01*
X137297Y87248D01*
X137876Y87008D01*
X138502D01*
X139081Y87248D01*
X139524Y87691D01*
X139764Y88270D01*
Y88896D01*
X139524Y89475D01*
X139081Y89918D01*
X138502Y90158D01*
D02*
G37*
G36*
X149526Y90158D02*
X148899D01*
X148321Y89918D01*
X147878Y89475D01*
X147638Y88896D01*
Y88269D01*
X147878Y87691D01*
X148321Y87248D01*
X148899Y87008D01*
X149526D01*
X150105Y87248D01*
X150548Y87691D01*
X150787Y88269D01*
Y88896D01*
X150548Y89475D01*
X150105Y89918D01*
X149526Y90158D01*
D02*
G37*
G36*
X180631Y88980D02*
X180005D01*
X179426Y88740D01*
X178983Y88297D01*
X178743Y87718D01*
Y87091D01*
X178983Y86513D01*
X179426Y86070D01*
X180005Y85830D01*
X180631D01*
X181210Y86070D01*
X181653Y86513D01*
X181893Y87091D01*
Y87718D01*
X181653Y88297D01*
X181210Y88740D01*
X180631Y88980D01*
D02*
G37*
G36*
X263699Y85827D02*
X263073D01*
X262494Y85587D01*
X262051Y85144D01*
X261811Y84565D01*
Y83939D01*
X262051Y83360D01*
X262494Y82917D01*
X263073Y82677D01*
X263699D01*
X264278Y82917D01*
X264721Y83360D01*
X264961Y83939D01*
Y84565D01*
X264721Y85144D01*
X264278Y85587D01*
X263699Y85827D01*
D02*
G37*
G36*
X257794D02*
X257167D01*
X256588Y85587D01*
X256145Y85144D01*
X255906Y84565D01*
Y83939D01*
X256145Y83360D01*
X256588Y82917D01*
X257167Y82677D01*
X257794D01*
X258372Y82917D01*
X258815Y83360D01*
X259055Y83939D01*
Y84565D01*
X258815Y85144D01*
X258372Y85587D01*
X257794Y85827D01*
D02*
G37*
G36*
X182849Y85686D02*
X182223D01*
X181644Y85446D01*
X181201Y85003D01*
X180961Y84424D01*
Y83798D01*
X181201Y83219D01*
X181644Y82776D01*
X182223Y82536D01*
X182849D01*
X183428Y82776D01*
X183871Y83219D01*
X184111Y83798D01*
Y84424D01*
X183871Y85003D01*
X183428Y85446D01*
X182849Y85686D01*
D02*
G37*
G36*
X252676Y85039D02*
X252049D01*
X251470Y84800D01*
X251027Y84357D01*
X250787Y83778D01*
Y83151D01*
X251027Y82573D01*
X251470Y82130D01*
X252049Y81890D01*
X252676D01*
X253254Y82130D01*
X253697Y82573D01*
X253937Y83151D01*
Y83778D01*
X253697Y84357D01*
X253254Y84800D01*
X252676Y85039D01*
D02*
G37*
G36*
X138502Y81496D02*
X137876D01*
X137297Y81256D01*
X136854Y80813D01*
X136614Y80234D01*
Y79608D01*
X136854Y79029D01*
X137297Y78586D01*
X137876Y78347D01*
X138502D01*
X139081Y78586D01*
X139524Y79029D01*
X139764Y79608D01*
Y80234D01*
X139524Y80813D01*
X139081Y81256D01*
X138502Y81496D01*
D02*
G37*
G36*
X182990Y81102D02*
X182364D01*
X181785Y80863D01*
X181342Y80420D01*
X181102Y79841D01*
Y79214D01*
X181342Y78636D01*
X181785Y78193D01*
X182364Y77953D01*
X182990D01*
X183569Y78193D01*
X184012Y78636D01*
X184252Y79214D01*
Y79841D01*
X184012Y80420D01*
X183569Y80863D01*
X182990Y81102D01*
D02*
G37*
G36*
X30755Y80827D02*
X29874D01*
X29023Y80599D01*
X28260Y80158D01*
X27637Y79535D01*
X27197Y78772D01*
X26969Y77921D01*
Y77040D01*
X27197Y76189D01*
X27637Y75425D01*
X28260Y74803D01*
X29023Y74362D01*
X29874Y74134D01*
X30755D01*
X31607Y74362D01*
X32370Y74803D01*
X32993Y75425D01*
X33433Y76189D01*
X33661Y77040D01*
Y77921D01*
X33433Y78772D01*
X32993Y79535D01*
X32370Y80158D01*
X31607Y80599D01*
X30755Y80827D01*
D02*
G37*
G36*
X414880Y74803D02*
X414254D01*
X413675Y74563D01*
X413232Y74120D01*
X412992Y73542D01*
Y72915D01*
X413232Y72336D01*
X413675Y71893D01*
X414254Y71653D01*
X414880D01*
X415459Y71893D01*
X415902Y72336D01*
X416142Y72915D01*
Y73542D01*
X415902Y74120D01*
X415459Y74563D01*
X414880Y74803D01*
D02*
G37*
G36*
X197164Y74410D02*
X196537D01*
X195958Y74170D01*
X195515Y73727D01*
X195276Y73148D01*
Y72521D01*
X195515Y71943D01*
X195958Y71500D01*
X196537Y71260D01*
X197164D01*
X197742Y71500D01*
X198185Y71943D01*
X198425Y72521D01*
Y73148D01*
X198185Y73727D01*
X197742Y74170D01*
X197164Y74410D01*
D02*
G37*
G36*
X51888Y72047D02*
X51262D01*
X50683Y71807D01*
X50240Y71364D01*
X50000Y70786D01*
Y70159D01*
X50240Y69580D01*
X50683Y69137D01*
X51262Y68898D01*
X51888D01*
X52467Y69137D01*
X52910Y69580D01*
X53150Y70159D01*
Y70786D01*
X52910Y71364D01*
X52467Y71807D01*
X51888Y72047D01*
D02*
G37*
G36*
X120884Y71949D02*
X120258D01*
X119679Y71709D01*
X119236Y71266D01*
X118996Y70687D01*
Y70061D01*
X119236Y69482D01*
X119679Y69039D01*
X120258Y68799D01*
X120884D01*
X121463Y69039D01*
X121906Y69482D01*
X122146Y70061D01*
Y70687D01*
X121906Y71266D01*
X121463Y71709D01*
X120884Y71949D01*
D02*
G37*
G36*
X209551Y71864D02*
X208925D01*
X208346Y71624D01*
X207903Y71181D01*
X207663Y70603D01*
Y69976D01*
X207903Y69397D01*
X208346Y68954D01*
X208925Y68715D01*
X209551D01*
X210130Y68954D01*
X210573Y69397D01*
X210813Y69976D01*
Y70603D01*
X210573Y71181D01*
X210130Y71624D01*
X209551Y71864D01*
D02*
G37*
G36*
X108581Y70866D02*
X107955D01*
X107376Y70626D01*
X106933Y70183D01*
X106693Y69605D01*
Y68978D01*
X106933Y68399D01*
X107376Y67956D01*
X107955Y67716D01*
X108581D01*
X109160Y67956D01*
X109603Y68399D01*
X109843Y68978D01*
Y69605D01*
X109603Y70183D01*
X109160Y70626D01*
X108581Y70866D01*
D02*
G37*
G36*
X364487Y68898D02*
X363860D01*
X363281Y68658D01*
X362838Y68215D01*
X362598Y67636D01*
Y67010D01*
X362838Y66431D01*
X363281Y65988D01*
X363860Y65748D01*
X364487D01*
X365065Y65988D01*
X365508Y66431D01*
X365748Y67010D01*
Y67636D01*
X365508Y68215D01*
X365065Y68658D01*
X364487Y68898D01*
D02*
G37*
G36*
X81022D02*
X80395D01*
X79817Y68658D01*
X79374Y68215D01*
X79134Y67636D01*
Y67010D01*
X79374Y66431D01*
X79817Y65988D01*
X80395Y65748D01*
X81022D01*
X81601Y65988D01*
X82044Y66431D01*
X82284Y67010D01*
Y67636D01*
X82044Y68215D01*
X81601Y68658D01*
X81022Y68898D01*
D02*
G37*
G36*
X182597Y62598D02*
X181970D01*
X181391Y62359D01*
X180948Y61916D01*
X180709Y61337D01*
Y60710D01*
X180948Y60132D01*
X181391Y59689D01*
X181970Y59449D01*
X182597D01*
X183176Y59689D01*
X183618Y60132D01*
X183858Y60710D01*
Y61337D01*
X183618Y61916D01*
X183176Y62359D01*
X182597Y62598D01*
D02*
G37*
G36*
X344014Y62205D02*
X343388D01*
X342809Y61965D01*
X342366Y61522D01*
X342126Y60943D01*
Y60317D01*
X342366Y59738D01*
X342809Y59295D01*
X343388Y59055D01*
X344014D01*
X344593Y59295D01*
X345036Y59738D01*
X345276Y60317D01*
Y60943D01*
X345036Y61522D01*
X344593Y61965D01*
X344014Y62205D01*
D02*
G37*
G36*
X315274D02*
X314647D01*
X314069Y61965D01*
X313626Y61522D01*
X313386Y60943D01*
Y60317D01*
X313626Y59738D01*
X314069Y59295D01*
X314647Y59055D01*
X315274D01*
X315853Y59295D01*
X316296Y59738D01*
X316535Y60317D01*
Y60943D01*
X316296Y61522D01*
X315853Y61965D01*
X315274Y62205D01*
D02*
G37*
G36*
X462124Y61417D02*
X461498D01*
X460919Y61178D01*
X460476Y60735D01*
X460236Y60156D01*
Y59529D01*
X460476Y58951D01*
X460919Y58508D01*
X461498Y58268D01*
X462124D01*
X462703Y58508D01*
X463146Y58951D01*
X463386Y59529D01*
Y60156D01*
X463146Y60735D01*
X462703Y61178D01*
X462124Y61417D01*
D02*
G37*
G36*
X86219Y61339D02*
X85592D01*
X85014Y61099D01*
X84570Y60656D01*
X84331Y60077D01*
Y59451D01*
X84570Y58872D01*
X85014Y58429D01*
X85592Y58189D01*
X86219D01*
X86798Y58429D01*
X87241Y58872D01*
X87480Y59451D01*
Y60077D01*
X87241Y60656D01*
X86798Y61099D01*
X86219Y61339D01*
D02*
G37*
G36*
X128266Y61024D02*
X127639D01*
X127061Y60784D01*
X126618Y60341D01*
X126378Y59762D01*
Y59136D01*
X126618Y58557D01*
X127061Y58114D01*
X127639Y57874D01*
X128266D01*
X128845Y58114D01*
X129288Y58557D01*
X129528Y59136D01*
Y59762D01*
X129288Y60341D01*
X128845Y60784D01*
X128266Y61024D01*
D02*
G37*
G36*
X413896Y60433D02*
X413269D01*
X412691Y60193D01*
X412248Y59750D01*
X412008Y59171D01*
Y58545D01*
X412248Y57966D01*
X412691Y57523D01*
X413269Y57284D01*
X413896D01*
X414475Y57523D01*
X414918Y57966D01*
X415158Y58545D01*
Y59171D01*
X414918Y59750D01*
X414475Y60193D01*
X413896Y60433D01*
D02*
G37*
G36*
X455825Y60236D02*
X455199D01*
X454620Y59996D01*
X454177Y59553D01*
X453937Y58975D01*
Y58348D01*
X454177Y57769D01*
X454620Y57326D01*
X455199Y57087D01*
X455825D01*
X456404Y57326D01*
X456847Y57769D01*
X457087Y58348D01*
Y58975D01*
X456847Y59553D01*
X456404Y59996D01*
X455825Y60236D01*
D02*
G37*
G36*
X179447Y58661D02*
X178821D01*
X178242Y58422D01*
X177799Y57979D01*
X177559Y57400D01*
Y56773D01*
X177799Y56195D01*
X178242Y55752D01*
X178821Y55512D01*
X179447D01*
X180026Y55752D01*
X180469Y56195D01*
X180709Y56773D01*
Y57400D01*
X180469Y57979D01*
X180026Y58422D01*
X179447Y58661D01*
D02*
G37*
G36*
X166061D02*
X165435D01*
X164856Y58422D01*
X164413Y57979D01*
X164173Y57400D01*
Y56773D01*
X164413Y56195D01*
X164856Y55752D01*
X165435Y55512D01*
X166061D01*
X166640Y55752D01*
X167083Y56195D01*
X167323Y56773D01*
Y57400D01*
X167083Y57979D01*
X166640Y58422D01*
X166061Y58661D01*
D02*
G37*
G36*
X382203Y58268D02*
X381576D01*
X380998Y58028D01*
X380555Y57585D01*
X380315Y57006D01*
Y56380D01*
X380555Y55801D01*
X380998Y55358D01*
X381576Y55118D01*
X382203D01*
X382782Y55358D01*
X383225Y55801D01*
X383465Y56380D01*
Y57006D01*
X383225Y57585D01*
X382782Y58028D01*
X382203Y58268D01*
D02*
G37*
G36*
X30755Y60827D02*
X29874D01*
X29023Y60599D01*
X28260Y60158D01*
X27637Y59535D01*
X27197Y58772D01*
X26969Y57921D01*
Y57040D01*
X27197Y56189D01*
X27637Y55426D01*
X28260Y54803D01*
X29023Y54362D01*
X29874Y54134D01*
X30755D01*
X31607Y54362D01*
X32370Y54803D01*
X32993Y55426D01*
X33433Y56189D01*
X33661Y57040D01*
Y57921D01*
X33433Y58772D01*
X32993Y59535D01*
X32370Y60158D01*
X31607Y60599D01*
X30755Y60827D01*
D02*
G37*
G36*
X173542Y53543D02*
X172915D01*
X172336Y53303D01*
X171893Y52861D01*
X171653Y52282D01*
Y51655D01*
X171893Y51076D01*
X172336Y50633D01*
X172915Y50394D01*
X173542D01*
X174120Y50633D01*
X174563Y51076D01*
X174803Y51655D01*
Y52282D01*
X174563Y52861D01*
X174120Y53303D01*
X173542Y53543D01*
D02*
G37*
G36*
X141652Y50394D02*
X141025D01*
X140446Y50154D01*
X140004Y49711D01*
X139977Y49646D01*
X139551D01*
X139524Y49711D01*
X139081Y50154D01*
X138502Y50394D01*
X137876D01*
X137297Y50154D01*
X136854Y49711D01*
X136614Y49132D01*
Y48506D01*
X136854Y47927D01*
X137297Y47484D01*
X137876Y47244D01*
X138502D01*
X139081Y47484D01*
X139524Y47927D01*
X139551Y47991D01*
X139977D01*
X140004Y47927D01*
X140446Y47484D01*
X141025Y47244D01*
X141652D01*
X142231Y47484D01*
X142674Y47927D01*
X142913Y48506D01*
Y49132D01*
X142674Y49711D01*
X142231Y50154D01*
X141652Y50394D01*
D02*
G37*
G36*
X382203D02*
X381576D01*
X380998Y50154D01*
X380555Y49711D01*
X380315Y49132D01*
Y48506D01*
X380555Y47927D01*
X380998Y47484D01*
X381576Y47244D01*
X382203D01*
X382782Y47484D01*
X383225Y47927D01*
X383465Y48506D01*
Y49132D01*
X383225Y49711D01*
X382782Y50154D01*
X382203Y50394D01*
D02*
G37*
G36*
X131809D02*
X131183D01*
X130604Y50154D01*
X130161Y49711D01*
X129921Y49132D01*
Y48506D01*
X130161Y47927D01*
X130604Y47484D01*
X131183Y47244D01*
X131809D01*
X132388Y47484D01*
X132831Y47927D01*
X133071Y48506D01*
Y49132D01*
X132831Y49711D01*
X132388Y50154D01*
X131809Y50394D01*
D02*
G37*
G36*
X414902Y46063D02*
X414276D01*
X413697Y45823D01*
X413254Y45380D01*
X413014Y44801D01*
Y44175D01*
X413254Y43596D01*
X413697Y43153D01*
X414276Y42913D01*
X414902D01*
X415481Y43153D01*
X415924Y43596D01*
X416164Y44175D01*
Y44801D01*
X415924Y45380D01*
X415481Y45823D01*
X414902Y46063D01*
D02*
G37*
G36*
X73148Y44791D02*
X72521D01*
X71943Y44552D01*
X71500Y44109D01*
X71260Y43530D01*
Y42903D01*
X71500Y42325D01*
X71943Y41881D01*
X72521Y41642D01*
X73148D01*
X73727Y41881D01*
X74170Y42325D01*
X74410Y42903D01*
Y43530D01*
X74170Y44109D01*
X73727Y44552D01*
X73148Y44791D01*
D02*
G37*
G36*
X151593Y44587D02*
X150966D01*
X150388Y44347D01*
X149944Y43904D01*
X149705Y43325D01*
Y42699D01*
X149944Y42120D01*
X150388Y41677D01*
X150966Y41437D01*
X151593D01*
X152172Y41677D01*
X152615Y42120D01*
X152854Y42699D01*
Y43325D01*
X152615Y43904D01*
X152172Y44347D01*
X151593Y44587D01*
D02*
G37*
G36*
X441258Y42913D02*
X440632D01*
X440053Y42674D01*
X439610Y42231D01*
X439370Y41652D01*
Y41025D01*
X439610Y40446D01*
X440053Y40003D01*
X440632Y39764D01*
X441258D01*
X441837Y40003D01*
X442280Y40446D01*
X442520Y41025D01*
Y41652D01*
X442280Y42231D01*
X441837Y42674D01*
X441258Y42913D01*
D02*
G37*
G36*
X382203D02*
X381576D01*
X380998Y42674D01*
X380555Y42231D01*
X380315Y41652D01*
Y41025D01*
X380555Y40446D01*
X380998Y40003D01*
X381576Y39764D01*
X382203D01*
X382782Y40003D01*
X383225Y40446D01*
X383465Y41025D01*
Y41652D01*
X383225Y42231D01*
X382782Y42674D01*
X382203Y42913D01*
D02*
G37*
G36*
X455825Y42520D02*
X455199D01*
X454620Y42280D01*
X454177Y41837D01*
X453937Y41258D01*
Y40632D01*
X454177Y40053D01*
X454620Y39610D01*
X455199Y39370D01*
X455825D01*
X456404Y39610D01*
X456847Y40053D01*
X457087Y40632D01*
Y41258D01*
X456847Y41837D01*
X456404Y42280D01*
X455825Y42520D01*
D02*
G37*
G36*
X146770Y41732D02*
X146143D01*
X145565Y41493D01*
X145122Y41050D01*
X144882Y40471D01*
Y39844D01*
X145122Y39265D01*
X145565Y38822D01*
X146143Y38583D01*
X146770D01*
X147349Y38822D01*
X147792Y39265D01*
X148031Y39844D01*
Y40471D01*
X147792Y41050D01*
X147349Y41493D01*
X146770Y41732D01*
D02*
G37*
G36*
X86534Y41339D02*
X85907D01*
X85328Y41099D01*
X84885Y40656D01*
X84646Y40077D01*
Y39450D01*
X84885Y38872D01*
X85328Y38429D01*
X85907Y38189D01*
X86534D01*
X87112Y38429D01*
X87555Y38872D01*
X87795Y39450D01*
Y40077D01*
X87555Y40656D01*
X87112Y41099D01*
X86534Y41339D01*
D02*
G37*
G36*
X116455Y40945D02*
X115829D01*
X115250Y40705D01*
X114807Y40262D01*
X114567Y39683D01*
Y39057D01*
X114807Y38478D01*
X115250Y38035D01*
X115829Y37795D01*
X116455D01*
X117034Y38035D01*
X117477Y38478D01*
X117717Y39057D01*
Y39683D01*
X117477Y40262D01*
X117034Y40705D01*
X116455Y40945D01*
D02*
G37*
G36*
X56612D02*
X55986D01*
X55407Y40705D01*
X54964Y40262D01*
X54724Y39683D01*
Y39057D01*
X54964Y38478D01*
X55407Y38035D01*
X55986Y37795D01*
X56612D01*
X57191Y38035D01*
X57634Y38478D01*
X57874Y39057D01*
Y39683D01*
X57634Y40262D01*
X57191Y40705D01*
X56612Y40945D01*
D02*
G37*
G36*
X317144Y40453D02*
X316517D01*
X315939Y40213D01*
X315496Y39770D01*
X315256Y39191D01*
Y38565D01*
X315496Y37986D01*
X315939Y37543D01*
X316517Y37303D01*
X317144D01*
X317723Y37543D01*
X318166Y37986D01*
X318406Y38565D01*
Y39191D01*
X318166Y39770D01*
X317723Y40213D01*
X317144Y40453D01*
D02*
G37*
G36*
X365274Y38484D02*
X364647D01*
X364069Y38245D01*
X363626Y37802D01*
X363386Y37223D01*
Y36596D01*
X363626Y36017D01*
X364069Y35574D01*
X364647Y35335D01*
X365274D01*
X365853Y35574D01*
X366296Y36017D01*
X366535Y36596D01*
Y37223D01*
X366296Y37802D01*
X365853Y38245D01*
X365274Y38484D01*
D02*
G37*
G36*
X30755Y40827D02*
X29874D01*
X29023Y40599D01*
X28260Y40158D01*
X27637Y39535D01*
X27197Y38772D01*
X26969Y37921D01*
Y37040D01*
X27197Y36189D01*
X27637Y35425D01*
X28260Y34802D01*
X29023Y34362D01*
X29874Y34134D01*
X30755D01*
X31607Y34362D01*
X32370Y34802D01*
X32993Y35425D01*
X33433Y36189D01*
X33661Y37040D01*
Y37921D01*
X33433Y38772D01*
X32993Y39535D01*
X32370Y40158D01*
X31607Y40599D01*
X30755Y40827D01*
D02*
G37*
G36*
X338502Y35827D02*
X337876D01*
X337297Y35587D01*
X336854Y35144D01*
X336614Y34565D01*
Y33939D01*
X336854Y33360D01*
X337297Y32917D01*
X337876Y32677D01*
X338502D01*
X339081Y32917D01*
X339524Y33360D01*
X339764Y33939D01*
Y34565D01*
X339524Y35144D01*
X339081Y35587D01*
X338502Y35827D01*
D02*
G37*
G36*
X177085Y34646D02*
X176458D01*
X175880Y34406D01*
X175437Y33963D01*
X175197Y33384D01*
Y32758D01*
X175437Y32179D01*
X175880Y31736D01*
X176458Y31496D01*
X177085D01*
X177664Y31736D01*
X178107Y32179D01*
X178347Y32758D01*
Y33384D01*
X178107Y33963D01*
X177664Y34406D01*
X177085Y34646D01*
D02*
G37*
G36*
X333384Y33858D02*
X332758D01*
X332179Y33619D01*
X331736Y33176D01*
X331496Y32597D01*
Y31970D01*
X331736Y31391D01*
X332179Y30948D01*
X332758Y30709D01*
X333384D01*
X333963Y30948D01*
X334406Y31391D01*
X334646Y31970D01*
Y32597D01*
X334406Y33176D01*
X333963Y33619D01*
X333384Y33858D01*
D02*
G37*
G36*
X327479Y33465D02*
X326852D01*
X326273Y33225D01*
X325830Y32782D01*
X325590Y32203D01*
Y31576D01*
X325830Y30998D01*
X326273Y30555D01*
X326852Y30315D01*
X327479D01*
X328057Y30555D01*
X328500Y30998D01*
X328740Y31576D01*
Y32203D01*
X328500Y32782D01*
X328057Y33225D01*
X327479Y33465D01*
D02*
G37*
G36*
X255864Y31929D02*
X255238D01*
X254659Y31689D01*
X254216Y31246D01*
X253976Y30668D01*
Y30041D01*
X254216Y29462D01*
X254659Y29019D01*
X255238Y28780D01*
X255864D01*
X256443Y29019D01*
X256886Y29462D01*
X257126Y30041D01*
Y30668D01*
X256886Y31246D01*
X256443Y31689D01*
X255864Y31929D01*
D02*
G37*
G36*
X34252Y31417D02*
X30906D01*
Y28071D01*
X34252D01*
Y31417D01*
D02*
G37*
G36*
X29724D02*
X26378D01*
Y28071D01*
X29724D01*
Y31417D01*
D02*
G37*
G36*
X307794Y27953D02*
X307167D01*
X306588Y27713D01*
X306145Y27270D01*
X305906Y26691D01*
Y26065D01*
X306145Y25486D01*
X306588Y25043D01*
X307167Y24803D01*
X307794D01*
X308372Y25043D01*
X308815Y25486D01*
X309055Y26065D01*
Y26691D01*
X308815Y27270D01*
X308372Y27713D01*
X307794Y27953D01*
D02*
G37*
G36*
X34252Y26890D02*
X30906D01*
Y23543D01*
X34252D01*
Y26890D01*
D02*
G37*
G36*
X29724D02*
X26378D01*
Y23543D01*
X29724D01*
Y26890D01*
D02*
G37*
G36*
X338502Y24409D02*
X337876D01*
X337297Y24170D01*
X336854Y23727D01*
X336614Y23148D01*
Y22521D01*
X336854Y21943D01*
X337297Y21500D01*
X337876Y21260D01*
X338502D01*
X339081Y21500D01*
X339524Y21943D01*
X339764Y22521D01*
Y23148D01*
X339524Y23727D01*
X339081Y24170D01*
X338502Y24409D01*
D02*
G37*
G36*
X200313Y22047D02*
X199687D01*
X199108Y21808D01*
X198665Y21364D01*
X198425Y20786D01*
Y20159D01*
X198665Y19580D01*
X199108Y19137D01*
X199687Y18898D01*
X200313D01*
X200892Y19137D01*
X201335Y19580D01*
X201575Y20159D01*
Y20786D01*
X201335Y21364D01*
X200892Y21808D01*
X200313Y22047D01*
D02*
G37*
%LPD*%
D60*
X257480Y387402D02*
X294882D01*
X322835Y359449D01*
X35827Y262598D02*
Y328425D01*
Y262598D02*
X57087Y241339D01*
X138189D01*
X116142Y138189D02*
X174803D01*
X198819Y162205D01*
X30709Y353543D02*
X137402D01*
X198819Y292126D01*
X257480Y257480D02*
X294882D01*
X133858D02*
X257480D01*
X44488Y138189D02*
X116142D01*
X198819Y55512D01*
Y32283D02*
Y55512D01*
X38976Y69685D02*
Y132677D01*
X44488Y138189D01*
X135039Y127559D02*
X257480D01*
X135039Y127559D02*
X135039Y127559D01*
X257480D02*
X294882D01*
X30315Y67480D02*
X36772D01*
X38976Y69685D01*
X132283Y105512D02*
X138189Y111417D01*
X132283Y74016D02*
Y105512D01*
X105748Y47480D02*
X132283Y74016D01*
X30315Y47480D02*
X105748D01*
X30709Y333543D02*
X35827Y328425D01*
X13780Y340472D02*
X20709Y333543D01*
X13780Y340472D02*
Y366929D01*
X18110Y371260D01*
X138189D01*
X294882Y127559D02*
X322835Y99606D01*
X294882Y257480D02*
X322835Y229528D01*
X134646Y387402D02*
X257480Y387402D01*
D64*
X30315Y67480D02*
D03*
Y47480D02*
D03*
X20709Y313543D02*
D03*
X30709Y333543D02*
D03*
X20709D02*
D03*
X30709Y353543D02*
D03*
D65*
X30315Y27480D02*
D03*
D66*
X257480Y387402D02*
D03*
X322835Y359449D02*
D03*
X32677Y253543D02*
D03*
X198819Y162205D02*
D03*
X176772Y288583D02*
D03*
X195669Y90945D02*
D03*
X176772Y28740D02*
D03*
X198819Y292126D02*
D03*
X198819Y32283D02*
D03*
X116142Y46457D02*
D03*
Y176378D02*
D03*
Y306299D02*
D03*
X133858Y257480D02*
D03*
X135039Y127559D02*
D03*
X138189Y241339D02*
D03*
X322835Y99606D02*
D03*
X257480Y127559D02*
D03*
X322835Y229528D02*
D03*
X257480Y257480D02*
D03*
X138189Y111417D02*
D03*
X119685Y90945D02*
D03*
Y220866D02*
D03*
X195669D02*
D03*
X176772Y158661D02*
D03*
X195669Y350787D02*
D03*
X119685D02*
D03*
X138189Y371260D02*
D03*
X134646Y387402D02*
D03*
M02*
