G04*
G04 #@! TF.GenerationSoftware,Altium Limited,Altium Designer,23.0.1 (38)*
G04*
G04 Layer_Color=16711935*
%FSLAX25Y25*%
%MOIN*%
G70*
G04*
G04 #@! TF.SameCoordinates,D7386A5F-B448-423F-B892-EA341EDDE74D*
G04*
G04*
G04 #@! TF.FilePolarity,Negative*
G04*
G01*
G75*
%ADD49R,0.11417X0.02559*%
%ADD52R,0.06706X0.06706*%
%ADD53C,0.06706*%
%ADD54R,0.06706X0.06706*%
%ADD55C,0.19540*%
%ADD56R,0.07453X0.07453*%
%ADD57C,0.07453*%
%ADD58C,0.02572*%
D49*
X-48819Y113386D02*
D03*
Y116535D02*
D03*
Y119685D02*
D03*
Y122835D02*
D03*
Y125984D02*
D03*
Y129134D02*
D03*
Y132283D02*
D03*
Y135433D02*
D03*
Y138583D02*
D03*
Y141732D02*
D03*
Y144882D02*
D03*
Y148031D02*
D03*
Y151181D02*
D03*
Y154331D02*
D03*
Y157480D02*
D03*
Y160630D02*
D03*
Y163779D02*
D03*
Y166929D02*
D03*
Y170079D02*
D03*
Y173228D02*
D03*
Y176378D02*
D03*
Y179528D02*
D03*
Y182677D02*
D03*
Y198425D02*
D03*
Y201575D02*
D03*
Y204724D02*
D03*
Y207874D02*
D03*
Y211024D02*
D03*
Y214173D02*
D03*
Y217323D02*
D03*
Y220472D02*
D03*
Y223622D02*
D03*
Y226772D02*
D03*
Y229921D02*
D03*
Y233071D02*
D03*
Y236221D02*
D03*
Y239370D02*
D03*
Y242520D02*
D03*
Y245669D02*
D03*
Y248819D02*
D03*
Y251969D02*
D03*
Y255118D02*
D03*
Y258268D02*
D03*
Y261417D02*
D03*
Y264567D02*
D03*
Y267717D02*
D03*
Y270866D02*
D03*
Y274016D02*
D03*
Y277165D02*
D03*
Y280315D02*
D03*
D52*
X15354Y113425D02*
D03*
X492126Y342520D02*
D03*
X233858Y71260D02*
D03*
X492126Y61417D02*
D03*
X233858Y201181D02*
D03*
X492126Y191339D02*
D03*
X233858Y331102D02*
D03*
X492126Y321260D02*
D03*
Y82677D02*
D03*
Y212598D02*
D03*
D53*
X15354Y103425D02*
D03*
Y93425D02*
D03*
Y83425D02*
D03*
X492126Y352520D02*
D03*
Y362520D02*
D03*
Y372520D02*
D03*
X302992Y10472D02*
D03*
Y20472D02*
D03*
X312992Y10472D02*
D03*
X233858Y81260D02*
D03*
X492126Y51417D02*
D03*
X233858Y211181D02*
D03*
X492126Y181339D02*
D03*
X312992Y140394D02*
D03*
X302992Y150394D02*
D03*
Y140394D02*
D03*
X150787Y16535D02*
D03*
Y146457D02*
D03*
X99764Y200000D02*
D03*
X89764Y210000D02*
D03*
Y200000D02*
D03*
X99764Y70079D02*
D03*
X89764Y80079D02*
D03*
Y70079D02*
D03*
X302992Y270315D02*
D03*
Y280315D02*
D03*
X312992Y270315D02*
D03*
X233858Y341102D02*
D03*
X492126Y311260D02*
D03*
X150787Y276378D02*
D03*
X492126Y112677D02*
D03*
Y102677D02*
D03*
Y92677D02*
D03*
Y242598D02*
D03*
Y232598D02*
D03*
Y222598D02*
D03*
X89764Y329921D02*
D03*
Y339921D02*
D03*
X99764Y329921D02*
D03*
D54*
X312992Y20472D02*
D03*
Y150394D02*
D03*
X140787Y16535D02*
D03*
Y146457D02*
D03*
X99764Y210000D02*
D03*
Y80079D02*
D03*
X312992Y280315D02*
D03*
X140787Y276378D02*
D03*
X99764Y339921D02*
D03*
D55*
X518110Y147658D02*
D03*
Y246043D02*
D03*
Y119665D02*
D03*
Y21280D02*
D03*
Y372421D02*
D03*
Y274035D02*
D03*
D56*
X512520Y218661D02*
D03*
Y92283D02*
D03*
Y345039D02*
D03*
D57*
X523701Y213209D02*
D03*
X512520Y207756D02*
D03*
X523701Y202303D02*
D03*
X512520Y196850D02*
D03*
X523701Y191398D02*
D03*
X512520Y185945D02*
D03*
X523701Y180492D02*
D03*
X512520Y175039D02*
D03*
Y48661D02*
D03*
X523701Y54114D02*
D03*
X512520Y59567D02*
D03*
X523701Y65020D02*
D03*
X512520Y70473D02*
D03*
X523701Y75925D02*
D03*
X512520Y81378D02*
D03*
X523701Y86831D02*
D03*
X512520Y301417D02*
D03*
X523701Y306870D02*
D03*
X512520Y312323D02*
D03*
X523701Y317776D02*
D03*
X512520Y323228D02*
D03*
X523701Y328681D02*
D03*
X512520Y334134D02*
D03*
X523701Y339587D02*
D03*
D58*
X141106Y94569D02*
D03*
X153320Y89109D02*
D03*
X141106Y354411D02*
D03*
X153320Y348952D02*
D03*
Y219030D02*
D03*
X141106Y224490D02*
D03*
M02*
