M48
;Layer_Color=9474304
;FILE_FORMAT=2:5
INCH,TZ
;TYPE=PLATED
T1F00S00C0.00787
T2F00S00C0.01181
T3F00S00C0.03543
T4F00S00C0.04291
T5F00S00C0.12835
%
T01
X153150Y23622
Y36614
X165354Y35827
X168110Y38976
X178740
X179134Y51968
X144390Y49467
X146850Y46850
X164961Y25197
X206299Y24409
X208661
X211024
X217717Y20472
X244882Y9843
X255551Y30354
X268504Y33071
X279528
X311024Y46850
X338888Y47686
X351320Y48236
X354331Y46457
X377165Y49213
X401575Y40945
X409055Y47638
X478346Y34646
X478740Y26378
X478346Y18504
X478740Y10236
X469291Y112598
X478740Y140157
X478346Y148425
X478740Y156299
X478346Y164567
X419291Y184587
X409055Y189370
Y177559
X401575Y170866
X377165Y179134
X372205Y184095
X356299Y184252
X354331Y176378
X351320Y178157
X338888Y177607
X332087Y186417
X311024Y176772
X299213Y188976
X288445Y114961
Y101181
X304386Y92058
X311247Y91338
X307087Y111024
X327559Y111811
Y103937
X361811Y98819
Y88189
Y109843
Y120472
X389289Y122375
X384252Y111811
X379134Y106693
X389316Y102434
X384252Y91732
X390551Y85433
X401921Y92724
X401968Y112992
X409055Y59449
X419291Y54665
X372205Y54173
X356299Y54331
X332087Y56496
X299213Y59055
X194488Y57087
X198031Y53150
X182972Y54724
X182027Y56672
X181592Y59118
X179813Y66142
X159812Y56672
X159786Y54312
X152756Y53937
X149213Y55905
X139173Y69392
X130709Y74410
X132187Y78837
X133858Y83071
X143012Y82423
X149781Y88601
X153320Y89109
X158268Y87795
X167717Y89370
X188297Y94223
X192520Y105307
Y110006
Y120472
X206299Y154331
X208661
X211024
X198031Y183071
X194488Y187008
X182027Y186594
X181592Y189039
X182972Y184646
X179134Y181890
X178740Y168898
X168110
X165354Y165748
X164961Y155118
X153150Y153543
Y166535
X146850Y176772
X144390Y179388
X149213Y185827
X152756Y183858
X159786Y184234
X159812Y186593
X179813Y196063
X139173Y199313
X130709Y204331
X141106Y94569
X138878Y91240
X153543Y104331
X153431Y106493
X244882Y139764
X255551Y160276
X268504Y162992
X279528
X115748Y184236
Y190559
X126378Y194882
X125000Y198228
X125984Y104724
X125000Y68307
X126378Y64961
X113779Y60630
X115748Y54315
X33071Y124016
X29528
X25984
X14567Y143307
X18898Y153150
X22441Y193307
X26378
X30315
X-16535Y118110
X-34252Y114961
X-41339Y116535
X-41732Y132283
Y141732
X-40850Y149237
X-41972Y157480
X-41732Y163779
X-41972Y170079
X-41972Y176378
X-41732Y182677
X-41972Y201575
X-41972Y207874
X-30709Y198425
X-41972Y214173
Y220472
X-41972Y226772
X-41972Y233071
Y239370
Y245669
X-41972Y251969
X-41972Y258268
X-40945Y261417
X-41972Y264567
X-40945Y267717
X-41972Y270866
X-40945Y274016
X-41888Y277109
X-41732Y280315
X24409Y266142
X28346
X32283
X125984Y234646
X115748Y314158
Y320480
X126378Y324803
X125000Y328150
X125984Y364567
X141106Y354411
X138878Y351083
X143012Y342265
X133858Y342913
X132187Y338679
X130709Y334252
X139173Y329235
X149213Y315748
X152756Y313779
X159786Y314155
X159812Y316515
X182027Y316515
X181592Y318960
X182972Y314567
X179134Y311811
X178740Y298819
X168110
X165354Y295669
X164961Y285039
X153150Y283465
Y296457
X146850Y306693
X144390Y309310
X149781Y348444
X153320Y348952
X158268Y347638
X167717Y349213
X188297Y354065
X179813Y325984
X194488Y316929
X198031Y312992
X206299Y284252
X208661
X211024
X217717Y280315
X244882Y269685
X255551Y290197
X268504Y292913
X279528
X192520Y250394
Y239928
Y235228
X188297Y224144
X167717Y219291
X158268Y217717
X153320Y219030
X149781Y218523
X143012Y212344
X133858Y212992
X132187Y208758
X138878Y221161
X141106Y224490
X153543Y234252
X153431Y236414
X153543Y364173
X288445Y361024
X304386Y351901
X311247Y351181
X327559Y363779
X361811Y358661
Y348031
X384252Y351575
X390551Y345276
X389316Y362277
X401921Y352567
X409055Y319291
Y307480
X401575Y300787
X419291Y314508
X377165Y309055
X372205Y314016
X356299Y314173
X354331Y306299
X351320Y308079
X338888Y307528
X332087Y316339
X311024Y306693
X299213Y318898
X288445Y244882
Y231102
X304386Y221979
X311247Y221259
X307087Y240945
X327559Y241732
Y233858
X361811Y228740
Y218110
Y239764
Y250394
X389289Y252296
X384252Y241732
X379134Y236614
X389316Y232355
X384252Y221654
X390551Y215354
X401921Y222645
X401968Y242913
X469291Y242520
X478740Y270079
X478346Y278346
X478740Y286221
X478346Y294488
X469291Y372441
X401968Y372835
X384252Y371654
X379134Y366535
X361811Y369685
Y380315
X389289Y382217
X327559Y371654
X307087Y370866
X288445Y374803
X192520Y369849
Y365150
Y380315
X153431Y366336
T02
X242520Y7480
X261811Y36614
X279921Y50787
X286614
X416535Y35433
X428740Y91339
Y102048
Y112758
Y123468
X416535Y165354
X286614Y180709
X279921
X261811Y166535
X242913Y137008
X14567Y190157
X15748Y196850
X-37402Y204724
Y179528
Y173228
Y166929
X-38583Y160630
X-39370Y154331
X-37402Y211024
Y217323
Y223622
Y229921
Y236221
Y242520
Y248819
Y255118
X15748Y261024
X18898Y279134
X14567Y235827
X242913Y266929
X261811Y296457
X279921Y310630
X286614
X416929Y295276
X428740Y253389
Y242680
Y231970
Y221260
Y351181
Y361891
Y372601
Y383311
T03
X140787Y16535
X150787
X302992Y20472
Y10472
X312992
Y20472
X492126Y51417
Y61417
Y82677
Y92677
Y102677
Y112677
Y181339
Y191339
X312992Y150394
Y140394
X302992
Y150394
X233858Y201181
Y81260
Y71260
X150787Y146457
X140787
X99764Y200000
X89764
Y80079
X99764
Y70079
X89764
X15354Y83425
Y93425
Y103425
Y113425
X89764Y210000
X99764
Y329921
X89764
Y339921
X99764
X140787Y276378
X150787
X233858Y331102
Y341102
Y211181
X302992Y270315
Y280315
X312992
Y270315
X492126Y242598
Y232598
Y222598
Y212598
Y311260
Y321260
Y342520
Y352520
Y362520
Y372520
T04
X512520Y48661
Y59567
Y70473
Y81378
Y92283
X523701Y86831
Y75925
Y65020
Y54114
Y180492
Y191398
Y202303
X512520Y207756
Y196850
Y185945
Y175039
Y218661
X523701Y213209
Y306870
Y317776
Y328681
Y339587
X512520Y345039
Y334134
Y323228
Y312323
Y301417
T05
X518110Y21280
Y119665
Y147658
Y246043
Y274035
Y372421
M30
