G04*
G04 #@! TF.GenerationSoftware,Altium Limited,Altium Designer,24.0.1 (36)*
G04*
G04 Layer_Physical_Order=2*
G04 Layer_Color=36540*
%FSLAX25Y25*%
%MOIN*%
G70*
G04*
G04 #@! TF.SameCoordinates,B301E655-177B-44F9-B968-0684169C9831*
G04*
G04*
G04 #@! TF.FilePolarity,Positive*
G04*
G01*
G75*
%ADD69R,0.05906X0.05906*%
%ADD70C,0.05906*%
%ADD75C,0.02362*%
%ADD77C,0.01772*%
G36*
X545779Y391565D02*
X547020Y391232D01*
X548208Y390740D01*
X549321Y390097D01*
X550340Y389315D01*
X551249Y388406D01*
X552031Y387387D01*
X552674Y386274D01*
X553166Y385086D01*
X553498Y383845D01*
X553666Y382571D01*
Y381928D01*
X553666Y11811D01*
X553666Y11168D01*
X553499Y9894D01*
X553166Y8653D01*
X552674Y7465D01*
X552032Y6352D01*
X551249Y5333D01*
X550340Y4424D01*
X549321Y3642D01*
X548208Y2999D01*
X547020Y2507D01*
X545779Y2175D01*
X544505Y2007D01*
X543862D01*
X11811Y2007D01*
X11168D01*
X9894Y2175D01*
X8653Y2507D01*
X7465Y2999D01*
X6352Y3642D01*
X5333Y4424D01*
X4424Y5333D01*
X3642Y6353D01*
X2999Y7465D01*
X2507Y8653D01*
X2175Y9894D01*
X2007Y11168D01*
X2007Y11811D01*
X2007Y99508D01*
X1854Y100276D01*
X1419Y100927D01*
X768Y101362D01*
X-0Y101515D01*
X-23910D01*
X-23959Y101505D01*
X-24008Y101513D01*
X-24394Y101494D01*
X-24538Y101457D01*
X-24687D01*
X-25444Y101307D01*
X-25627Y101231D01*
X-25820Y101193D01*
X-26533Y100897D01*
X-26698Y100787D01*
X-26880Y100712D01*
X-27522Y100283D01*
X-27662Y100143D01*
X-27826Y100033D01*
X-28372Y99488D01*
X-28482Y99323D01*
X-28622Y99183D01*
X-29050Y98542D01*
X-29126Y98359D01*
X-29236Y98195D01*
X-29531Y97482D01*
X-29570Y97288D01*
X-29645Y97105D01*
X-29796Y96348D01*
Y96200D01*
X-29832Y96055D01*
X-29851Y95669D01*
X-29844Y95620D01*
X-29853Y95571D01*
Y93641D01*
X-32847D01*
Y105413D01*
X-32857Y105463D01*
X-32849Y105513D01*
X-32868Y105899D01*
X-32904Y106042D01*
X-32904Y106191D01*
X-33055Y106948D01*
X-33131Y107130D01*
X-33169Y107324D01*
X-33464Y108037D01*
X-33574Y108201D01*
X-33650Y108384D01*
X-34079Y109026D01*
X-34218Y109166D01*
X-34328Y109330D01*
X-34874Y109876D01*
X-35038Y109986D01*
X-35178Y110125D01*
X-35820Y110554D01*
X-36002Y110630D01*
X-36167Y110740D01*
X-36880Y111035D01*
X-37074Y111074D01*
X-37256Y111149D01*
X-38013Y111300D01*
X-38162D01*
X-38306Y111336D01*
X-38692Y111355D01*
X-38742Y111348D01*
X-38791Y111357D01*
X-53150D01*
Y183820D01*
X-38004Y183820D01*
X-37939Y183833D01*
X-37873Y183824D01*
X-37256Y183864D01*
X-37065Y183916D01*
X-36868Y183929D01*
X-35677Y184248D01*
X-35441Y184364D01*
X-35192Y184448D01*
X-34124Y185065D01*
X-33927Y185238D01*
X-33709Y185384D01*
X-32837Y186256D01*
X-32691Y186474D01*
X-32518Y186672D01*
X-31901Y187740D01*
X-31817Y187988D01*
X-31701Y188224D01*
X-31381Y189415D01*
X-31364Y189677D01*
X-31313Y189935D01*
Y191168D01*
X-31364Y191425D01*
X-31381Y191687D01*
X-31701Y192879D01*
X-31817Y193114D01*
X-31901Y193363D01*
X-32518Y194431D01*
X-32691Y194628D01*
X-32837Y194846D01*
X-33709Y195719D01*
X-33927Y195864D01*
X-34124Y196037D01*
X-35192Y196654D01*
X-35441Y196739D01*
X-35677Y196855D01*
X-36868Y197174D01*
X-37065Y197187D01*
X-37256Y197238D01*
X-37873Y197278D01*
X-37939Y197270D01*
X-38004Y197283D01*
X-53150D01*
Y282343D01*
X-38791D01*
X-38742Y282353D01*
X-38693Y282346D01*
X-38307Y282365D01*
X-38162Y282401D01*
X-38013Y282401D01*
X-37257Y282551D01*
X-37074Y282627D01*
X-36880Y282665D01*
X-36167Y282961D01*
X-36002Y283071D01*
X-35820Y283146D01*
X-35178Y283575D01*
X-35038Y283715D01*
X-34874Y283825D01*
X-34328Y284370D01*
X-34218Y284535D01*
X-34078Y284675D01*
X-33650Y285316D01*
X-33574Y285499D01*
X-33464Y285664D01*
X-33169Y286377D01*
X-33130Y286570D01*
X-33055Y286753D01*
X-32904Y287510D01*
X-32904Y287659D01*
X-32868Y287803D01*
X-32849Y288189D01*
X-32857Y288238D01*
X-32847Y288287D01*
Y300060D01*
X-29853D01*
Y298130D01*
X-29844Y298081D01*
X-29851Y298031D01*
X-29832Y297646D01*
X-29796Y297501D01*
X-29796Y297353D01*
X-29645Y296596D01*
X-29570Y296413D01*
X-29531Y296219D01*
X-29236Y295506D01*
X-29126Y295342D01*
X-29050Y295159D01*
X-28622Y294517D01*
X-28482Y294377D01*
X-28372Y294213D01*
X-27826Y293667D01*
X-27662Y293558D01*
X-27522Y293418D01*
X-26880Y292989D01*
X-26698Y292913D01*
X-26533Y292804D01*
X-25820Y292508D01*
X-25626Y292470D01*
X-25444Y292394D01*
X-24687Y292243D01*
X-24538Y292243D01*
X-24394Y292207D01*
X-24008Y292188D01*
X-23958Y292196D01*
X-23910Y292186D01*
X-0D01*
X768Y292339D01*
X1419Y292774D01*
X1854Y293425D01*
X2007Y294193D01*
Y381890D01*
X2007Y382532D01*
X2175Y383806D01*
X2507Y385048D01*
X2999Y386235D01*
X3642Y387348D01*
X4424Y388368D01*
X5333Y389277D01*
X6352Y390059D01*
X7466Y390702D01*
X8653Y391193D01*
X9894Y391526D01*
X11168Y391694D01*
X11811Y391694D01*
X11811Y391694D01*
X11811Y391694D01*
X543862Y391732D01*
X544505D01*
X545779Y391565D01*
D02*
G37*
%LPC*%
G36*
X469546Y373721D02*
X469037D01*
X468567Y373526D01*
X468207Y373166D01*
X468012Y372695D01*
Y372186D01*
X468207Y371716D01*
X468567Y371356D01*
X469037Y371161D01*
X469546D01*
X470016Y371356D01*
X470376Y371716D01*
X470571Y372186D01*
Y372695D01*
X470376Y373166D01*
X470016Y373526D01*
X469546Y373721D01*
D02*
G37*
G36*
X384507Y372933D02*
X383998D01*
X383527Y372738D01*
X383167Y372378D01*
X382972Y371908D01*
Y371399D01*
X383167Y370929D01*
X383527Y370569D01*
X383998Y370374D01*
X384507D01*
X384977Y370569D01*
X385337Y370929D01*
X385531Y371399D01*
Y371908D01*
X385337Y372378D01*
X384977Y372738D01*
X384507Y372933D01*
D02*
G37*
G36*
X492567Y375866D02*
X491685D01*
X490834Y375638D01*
X490071Y375198D01*
X489448Y374574D01*
X489008Y373811D01*
X488779Y372960D01*
Y372079D01*
X489008Y371228D01*
X489448Y370465D01*
X490071Y369842D01*
X490834Y369401D01*
X491685Y369173D01*
X492567D01*
X493418Y369401D01*
X494181Y369842D01*
X494804Y370465D01*
X495244Y371228D01*
X495472Y372079D01*
Y372960D01*
X495244Y373811D01*
X494804Y374574D01*
X494181Y375198D01*
X493418Y375638D01*
X492567Y375866D01*
D02*
G37*
G36*
X192774Y371129D02*
X192265D01*
X191795Y370934D01*
X191435Y370574D01*
X191240Y370104D01*
Y369595D01*
X191435Y369124D01*
X191795Y368764D01*
X192265Y368569D01*
X192774D01*
X193245Y368764D01*
X193604Y369124D01*
X193799Y369595D01*
Y370104D01*
X193604Y370574D01*
X193245Y370934D01*
X192774Y371129D01*
D02*
G37*
G36*
X379388Y367815D02*
X378879D01*
X378409Y367620D01*
X378049Y367260D01*
X377854Y366790D01*
Y366281D01*
X378049Y365811D01*
X378409Y365451D01*
X378879Y365256D01*
X379388D01*
X379859Y365451D01*
X380219Y365811D01*
X380413Y366281D01*
Y366790D01*
X380219Y367260D01*
X379859Y367620D01*
X379388Y367815D01*
D02*
G37*
G36*
X153685Y367615D02*
X153176D01*
X152706Y367420D01*
X152346Y367060D01*
X152151Y366590D01*
Y366081D01*
X152346Y365611D01*
X152706Y365251D01*
X153176Y365056D01*
X153685D01*
X154156Y365251D01*
X154516Y365611D01*
X154710Y366081D01*
Y366590D01*
X154516Y367060D01*
X154156Y367420D01*
X153685Y367615D01*
D02*
G37*
G36*
X192774Y366429D02*
X192265D01*
X191795Y366234D01*
X191435Y365874D01*
X191240Y365404D01*
Y364895D01*
X191435Y364425D01*
X191795Y364065D01*
X192265Y363870D01*
X192774D01*
X193245Y364065D01*
X193604Y364425D01*
X193799Y364895D01*
Y365404D01*
X193604Y365874D01*
X193245Y366234D01*
X192774Y366429D01*
D02*
G37*
G36*
X126239Y365846D02*
X125730D01*
X125259Y365652D01*
X124899Y365292D01*
X124705Y364821D01*
Y364312D01*
X124899Y363842D01*
X125259Y363482D01*
X125730Y363287D01*
X126239D01*
X126709Y363482D01*
X127069Y363842D01*
X127264Y364312D01*
Y364821D01*
X127069Y365292D01*
X126709Y365652D01*
X126239Y365846D01*
D02*
G37*
G36*
X519072Y382185D02*
X517149D01*
X515262Y381810D01*
X513485Y381074D01*
X511886Y380005D01*
X510526Y378645D01*
X509458Y377046D01*
X508722Y375269D01*
X508347Y373383D01*
Y371460D01*
X508722Y369573D01*
X509458Y367796D01*
X510526Y366197D01*
X511886Y364837D01*
X513485Y363769D01*
X515262Y363033D01*
X517149Y362657D01*
X519072D01*
X520958Y363033D01*
X522735Y363769D01*
X524334Y364837D01*
X525694Y366197D01*
X526763Y367796D01*
X527499Y369573D01*
X527874Y371460D01*
Y373383D01*
X527499Y375269D01*
X526763Y377046D01*
X525694Y378645D01*
X524334Y380005D01*
X522735Y381074D01*
X520958Y381810D01*
X519072Y382185D01*
D02*
G37*
G36*
X492567Y365866D02*
X491685D01*
X490834Y365638D01*
X490071Y365197D01*
X489448Y364575D01*
X489008Y363811D01*
X488779Y362960D01*
Y362079D01*
X489008Y361228D01*
X489448Y360465D01*
X490071Y359842D01*
X490834Y359401D01*
X491685Y359173D01*
X492567D01*
X493418Y359401D01*
X494181Y359842D01*
X494804Y360465D01*
X495244Y361228D01*
X495472Y362079D01*
Y362960D01*
X495244Y363811D01*
X494804Y364575D01*
X494181Y365197D01*
X493418Y365638D01*
X492567Y365866D01*
D02*
G37*
G36*
X304641Y353180D02*
X304132D01*
X303661Y352985D01*
X303301Y352625D01*
X303107Y352155D01*
Y351646D01*
X303301Y351176D01*
X303661Y350816D01*
X304132Y350621D01*
X304641D01*
X305111Y350816D01*
X305471Y351176D01*
X305666Y351646D01*
Y352155D01*
X305471Y352625D01*
X305111Y352985D01*
X304641Y353180D01*
D02*
G37*
G36*
X384507Y352854D02*
X383998D01*
X383527Y352660D01*
X383167Y352300D01*
X382972Y351829D01*
Y351320D01*
X383167Y350850D01*
X383527Y350490D01*
X383998Y350295D01*
X384507D01*
X384977Y350490D01*
X385337Y350850D01*
X385531Y351320D01*
Y351829D01*
X385337Y352300D01*
X384977Y352660D01*
X384507Y352854D01*
D02*
G37*
G36*
X138837Y352461D02*
X138328D01*
X137858Y352266D01*
X137498Y351906D01*
X137303Y351436D01*
Y350927D01*
X137498Y350456D01*
X137858Y350096D01*
X138328Y349902D01*
X138837D01*
X139307Y350096D01*
X139667Y350456D01*
X139862Y350927D01*
Y351436D01*
X139667Y351906D01*
X139307Y352266D01*
X138837Y352461D01*
D02*
G37*
G36*
X492567Y355866D02*
X491685D01*
X490834Y355638D01*
X490071Y355198D01*
X489448Y354574D01*
X489008Y353811D01*
X488779Y352960D01*
Y352079D01*
X489008Y351228D01*
X489448Y350465D01*
X490071Y349842D01*
X490834Y349401D01*
X491685Y349173D01*
X492567D01*
X493418Y349401D01*
X494181Y349842D01*
X494804Y350465D01*
X495244Y351228D01*
X495472Y352079D01*
Y352960D01*
X495244Y353811D01*
X494804Y354574D01*
X494181Y355198D01*
X493418Y355638D01*
X492567Y355866D01*
D02*
G37*
G36*
X167971Y350492D02*
X167462D01*
X166992Y350297D01*
X166632Y349937D01*
X166437Y349467D01*
Y348958D01*
X166632Y348488D01*
X166992Y348128D01*
X167462Y347933D01*
X167971D01*
X168441Y348128D01*
X168801Y348488D01*
X168996Y348958D01*
Y349467D01*
X168801Y349937D01*
X168441Y350297D01*
X167971Y350492D01*
D02*
G37*
G36*
X150036Y349724D02*
X149527D01*
X149056Y349529D01*
X148696Y349169D01*
X148502Y348699D01*
Y348189D01*
X148696Y347719D01*
X149056Y347359D01*
X149527Y347165D01*
X150036D01*
X150506Y347359D01*
X150866Y347719D01*
X151061Y348189D01*
Y348699D01*
X150866Y349169D01*
X150506Y349529D01*
X150036Y349724D01*
D02*
G37*
G36*
X141593Y348130D02*
X141084D01*
X140614Y347935D01*
X140254Y347575D01*
X140059Y347105D01*
Y346596D01*
X140254Y346126D01*
X140614Y345766D01*
X141084Y345571D01*
X141593D01*
X142063Y345766D01*
X142423Y346126D01*
X142618Y346596D01*
Y347105D01*
X142423Y347575D01*
X142063Y347935D01*
X141593Y348130D01*
D02*
G37*
G36*
X390806Y346555D02*
X390297D01*
X389826Y346360D01*
X389466Y346000D01*
X389272Y345530D01*
Y345021D01*
X389466Y344551D01*
X389826Y344191D01*
X390297Y343996D01*
X390806D01*
X391276Y344191D01*
X391636Y344551D01*
X391831Y345021D01*
Y345530D01*
X391636Y346000D01*
X391276Y346360D01*
X390806Y346555D01*
D02*
G37*
G36*
X134113Y344193D02*
X133604D01*
X133133Y343998D01*
X132773Y343638D01*
X132579Y343168D01*
Y342659D01*
X132773Y342189D01*
X133133Y341829D01*
X133604Y341634D01*
X134113D01*
X134583Y341829D01*
X134943Y342189D01*
X135138Y342659D01*
Y343168D01*
X134943Y343638D01*
X134583Y343998D01*
X134113Y344193D01*
D02*
G37*
G36*
X516240Y348760D02*
X508799D01*
Y341319D01*
X516240D01*
Y348760D01*
D02*
G37*
G36*
X143266Y343545D02*
X142757D01*
X142287Y343350D01*
X141927Y342990D01*
X141732Y342520D01*
Y342011D01*
X141927Y341540D01*
X142287Y341180D01*
X142757Y340986D01*
X143266D01*
X143737Y341180D01*
X144097Y341540D01*
X144291Y342011D01*
Y342520D01*
X144097Y342990D01*
X143737Y343350D01*
X143266Y343545D01*
D02*
G37*
G36*
X495472Y345866D02*
X488779D01*
Y339173D01*
X495472D01*
Y345866D01*
D02*
G37*
G36*
X234299Y344449D02*
X233418D01*
X232567Y344221D01*
X231803Y343780D01*
X231180Y343157D01*
X230740Y342394D01*
X230512Y341543D01*
Y340662D01*
X230740Y339811D01*
X231180Y339048D01*
X231803Y338424D01*
X232567Y337984D01*
X233418Y337756D01*
X234299D01*
X235150Y337984D01*
X235913Y338424D01*
X236536Y339048D01*
X236977Y339811D01*
X237205Y340662D01*
Y341543D01*
X236977Y342394D01*
X236536Y343157D01*
X235913Y343780D01*
X235150Y344221D01*
X234299Y344449D01*
D02*
G37*
G36*
X132442Y339959D02*
X131933D01*
X131462Y339764D01*
X131102Y339404D01*
X130908Y338934D01*
Y338424D01*
X131102Y337954D01*
X131462Y337594D01*
X131933Y337400D01*
X132442D01*
X132912Y337594D01*
X133272Y337954D01*
X133467Y338424D01*
Y338934D01*
X133272Y339404D01*
X132912Y339764D01*
X132442Y339959D01*
D02*
G37*
G36*
X103110Y343268D02*
X96417D01*
Y336575D01*
X103110D01*
Y343268D01*
D02*
G37*
G36*
X90204D02*
X89323D01*
X88472Y343040D01*
X87709Y342599D01*
X87086Y341976D01*
X86645Y341213D01*
X86417Y340362D01*
Y339481D01*
X86645Y338630D01*
X87086Y337866D01*
X87709Y337243D01*
X88472Y336803D01*
X89323Y336575D01*
X90204D01*
X91056Y336803D01*
X91819Y337243D01*
X92442Y337866D01*
X92882Y338630D01*
X93110Y339481D01*
Y340362D01*
X92882Y341213D01*
X92442Y341976D01*
X91819Y342599D01*
X91056Y343040D01*
X90204Y343268D01*
D02*
G37*
G36*
X524191Y343307D02*
X523211D01*
X522265Y343054D01*
X521416Y342564D01*
X520724Y341871D01*
X520234Y341023D01*
X519980Y340076D01*
Y339097D01*
X520234Y338151D01*
X520724Y337302D01*
X521416Y336610D01*
X522265Y336120D01*
X523211Y335866D01*
X524191D01*
X525137Y336120D01*
X525985Y336610D01*
X526678Y337302D01*
X527168Y338151D01*
X527421Y339097D01*
Y340076D01*
X527168Y341023D01*
X526678Y341871D01*
X525985Y342564D01*
X525137Y343054D01*
X524191Y343307D01*
D02*
G37*
G36*
X130963Y335531D02*
X130454D01*
X129984Y335337D01*
X129624Y334977D01*
X129429Y334507D01*
Y333998D01*
X129624Y333527D01*
X129984Y333167D01*
X130454Y332972D01*
X130963D01*
X131433Y333167D01*
X131793Y333527D01*
X131988Y333998D01*
Y334507D01*
X131793Y334977D01*
X131433Y335337D01*
X130963Y335531D01*
D02*
G37*
G36*
X90354Y333839D02*
Y330512D01*
X93681D01*
X93432Y331441D01*
X92914Y332339D01*
X92181Y333072D01*
X91283Y333590D01*
X90354Y333839D01*
D02*
G37*
G36*
X89173D02*
X88244Y333590D01*
X87346Y333072D01*
X86613Y332339D01*
X86095Y331441D01*
X85846Y330512D01*
X89173D01*
Y333839D01*
D02*
G37*
G36*
X513010Y337854D02*
X512030D01*
X511084Y337601D01*
X510235Y337111D01*
X509543Y336418D01*
X509053Y335570D01*
X508799Y334624D01*
Y333644D01*
X509053Y332698D01*
X509543Y331849D01*
X510235Y331157D01*
X511084Y330667D01*
X512030Y330413D01*
X513010D01*
X513956Y330667D01*
X514804Y331157D01*
X515497Y331849D01*
X515987Y332698D01*
X516240Y333644D01*
Y334624D01*
X515987Y335570D01*
X515497Y336418D01*
X514804Y337111D01*
X513956Y337601D01*
X513010Y337854D01*
D02*
G37*
G36*
X139428Y330514D02*
X138919D01*
X138448Y330319D01*
X138089Y329959D01*
X137894Y329489D01*
Y328980D01*
X138089Y328510D01*
X138448Y328150D01*
X138919Y327955D01*
X139428D01*
X139898Y328150D01*
X140258Y328510D01*
X140453Y328980D01*
Y329489D01*
X140258Y329959D01*
X139898Y330319D01*
X139428Y330514D01*
D02*
G37*
G36*
X237205Y334449D02*
X230512D01*
Y327756D01*
X237205D01*
Y334449D01*
D02*
G37*
G36*
X125254Y329429D02*
X124746D01*
X124275Y329234D01*
X123915Y328874D01*
X123721Y328404D01*
Y327895D01*
X123915Y327425D01*
X124275Y327065D01*
X124746Y326870D01*
X125254D01*
X125725Y327065D01*
X126085Y327425D01*
X126279Y327895D01*
Y328404D01*
X126085Y328874D01*
X125725Y329234D01*
X125254Y329429D01*
D02*
G37*
G36*
X100204Y333268D02*
X99323D01*
X98472Y333040D01*
X97709Y332599D01*
X97086Y331976D01*
X96645Y331213D01*
X96417Y330362D01*
Y329481D01*
X96645Y328630D01*
X97086Y327867D01*
X97709Y327243D01*
X98472Y326803D01*
X99323Y326575D01*
X100204D01*
X101056Y326803D01*
X101819Y327243D01*
X102442Y327867D01*
X102882Y328630D01*
X103110Y329481D01*
Y330362D01*
X102882Y331213D01*
X102442Y331976D01*
X101819Y332599D01*
X101056Y333040D01*
X100204Y333268D01*
D02*
G37*
G36*
X93681Y329331D02*
X90354D01*
Y326004D01*
X91283Y326253D01*
X92181Y326771D01*
X92914Y327504D01*
X93432Y328402D01*
X93681Y329331D01*
D02*
G37*
G36*
X89173D02*
X85846D01*
X86095Y328402D01*
X86613Y327504D01*
X87346Y326771D01*
X88244Y326253D01*
X89173Y326004D01*
Y329331D01*
D02*
G37*
G36*
X524191Y332402D02*
X523211D01*
X522265Y332148D01*
X521416Y331658D01*
X520724Y330965D01*
X520234Y330117D01*
X519980Y329171D01*
Y328191D01*
X520234Y327245D01*
X520724Y326397D01*
X521416Y325704D01*
X522265Y325214D01*
X523211Y324961D01*
X524191D01*
X525137Y325214D01*
X525985Y325704D01*
X526678Y326397D01*
X527168Y327245D01*
X527421Y328191D01*
Y329171D01*
X527168Y330117D01*
X526678Y330965D01*
X525985Y331658D01*
X525137Y332148D01*
X524191Y332402D01*
D02*
G37*
G36*
X180067Y327264D02*
X179558D01*
X179088Y327069D01*
X178728Y326709D01*
X178533Y326239D01*
Y325730D01*
X178728Y325259D01*
X179088Y324900D01*
X179558Y324705D01*
X180067D01*
X180538Y324900D01*
X180898Y325259D01*
X181092Y325730D01*
Y326239D01*
X180898Y326709D01*
X180538Y327069D01*
X180067Y327264D01*
D02*
G37*
G36*
X126632Y326083D02*
X126123D01*
X125653Y325888D01*
X125293Y325528D01*
X125098Y325058D01*
Y324549D01*
X125293Y324078D01*
X125653Y323718D01*
X126123Y323524D01*
X126632D01*
X127103Y323718D01*
X127463Y324078D01*
X127657Y324549D01*
Y325058D01*
X127463Y325528D01*
X127103Y325888D01*
X126632Y326083D01*
D02*
G37*
G36*
X513010Y326949D02*
X512030D01*
X511084Y326695D01*
X510235Y326205D01*
X509543Y325513D01*
X509053Y324664D01*
X508799Y323718D01*
Y322739D01*
X509053Y321792D01*
X509543Y320944D01*
X510235Y320251D01*
X511084Y319761D01*
X512030Y319508D01*
X513010D01*
X513956Y319761D01*
X514804Y320251D01*
X515497Y320944D01*
X515987Y321792D01*
X516240Y322739D01*
Y323718D01*
X515987Y324664D01*
X515497Y325513D01*
X514804Y326205D01*
X513956Y326695D01*
X513010Y326949D01*
D02*
G37*
G36*
X116003Y321760D02*
X115494D01*
X115023Y321565D01*
X114663Y321205D01*
X114469Y320735D01*
Y320226D01*
X114663Y319756D01*
X115023Y319396D01*
X115494Y319201D01*
X116003D01*
X116473Y319396D01*
X116833Y319756D01*
X117027Y320226D01*
Y320735D01*
X116833Y321205D01*
X116473Y321565D01*
X116003Y321760D01*
D02*
G37*
G36*
X409310Y320571D02*
X408801D01*
X408330Y320376D01*
X407970Y320016D01*
X407776Y319546D01*
Y319037D01*
X407970Y318567D01*
X408330Y318207D01*
X408801Y318012D01*
X409310D01*
X409780Y318207D01*
X410140Y318567D01*
X410335Y319037D01*
Y319546D01*
X410140Y320016D01*
X409780Y320376D01*
X409310Y320571D01*
D02*
G37*
G36*
X495472Y324606D02*
X488779D01*
Y317913D01*
X495472D01*
Y324606D01*
D02*
G37*
G36*
X299467Y320177D02*
X298958D01*
X298488Y319982D01*
X298128Y319622D01*
X297933Y319152D01*
Y318643D01*
X298128Y318173D01*
X298488Y317813D01*
X298958Y317618D01*
X299467D01*
X299937Y317813D01*
X300297Y318173D01*
X300492Y318643D01*
Y319152D01*
X300297Y319622D01*
X299937Y319982D01*
X299467Y320177D01*
D02*
G37*
G36*
X332341Y317618D02*
X331832D01*
X331362Y317423D01*
X331002Y317063D01*
X330807Y316593D01*
Y316084D01*
X331002Y315614D01*
X331362Y315254D01*
X331832Y315059D01*
X332341D01*
X332811Y315254D01*
X333171Y315614D01*
X333366Y316084D01*
Y316593D01*
X333171Y317063D01*
X332811Y317423D01*
X332341Y317618D01*
D02*
G37*
G36*
X149467Y317028D02*
X148958D01*
X148488Y316833D01*
X148128Y316473D01*
X147933Y316002D01*
Y315493D01*
X148128Y315023D01*
X148488Y314663D01*
X148958Y314469D01*
X149467D01*
X149937Y314663D01*
X150297Y315023D01*
X150492Y315493D01*
Y316002D01*
X150297Y316473D01*
X149937Y316833D01*
X149467Y317028D01*
D02*
G37*
G36*
X524191Y321496D02*
X523211D01*
X522265Y321242D01*
X521416Y320753D01*
X520724Y320060D01*
X520234Y319212D01*
X519980Y318265D01*
Y317286D01*
X520234Y316340D01*
X520724Y315491D01*
X521416Y314798D01*
X522265Y314309D01*
X523211Y314055D01*
X524191D01*
X525137Y314309D01*
X525985Y314798D01*
X526678Y315491D01*
X527168Y316340D01*
X527421Y317286D01*
Y318265D01*
X527168Y319212D01*
X526678Y320060D01*
X525985Y320753D01*
X525137Y321242D01*
X524191Y321496D01*
D02*
G37*
G36*
X181847Y320240D02*
X181338D01*
X180868Y320045D01*
X180508Y319685D01*
X180313Y319215D01*
Y318706D01*
X180508Y318235D01*
X180868Y317876D01*
X180976Y317831D01*
X181069Y317366D01*
X180942Y317240D01*
X180747Y316769D01*
Y316260D01*
X180942Y315790D01*
X181302Y315430D01*
X181487Y315353D01*
X181714Y314872D01*
X181693Y314821D01*
Y314312D01*
X181888Y313842D01*
X182248Y313482D01*
X182718Y313287D01*
X183227D01*
X183697Y313482D01*
X184057Y313842D01*
X184252Y314312D01*
Y314821D01*
X184057Y315292D01*
X183697Y315652D01*
X183512Y315728D01*
X183285Y316210D01*
X183306Y316260D01*
Y316769D01*
X183112Y317240D01*
X182752Y317600D01*
X182643Y317645D01*
X182551Y318109D01*
X182677Y318235D01*
X182872Y318706D01*
Y319215D01*
X182677Y319685D01*
X182317Y320045D01*
X181847Y320240D01*
D02*
G37*
G36*
X419546Y315787D02*
X419037D01*
X418567Y315593D01*
X418207Y315233D01*
X418012Y314762D01*
Y314253D01*
X418207Y313783D01*
X418567Y313423D01*
X419037Y313228D01*
X419546D01*
X420016Y313423D01*
X420376Y313783D01*
X420571Y314253D01*
Y314762D01*
X420376Y315233D01*
X420016Y315593D01*
X419546Y315787D01*
D02*
G37*
G36*
X356554Y315453D02*
X356045D01*
X355574Y315258D01*
X355215Y314898D01*
X355020Y314428D01*
Y313919D01*
X355215Y313448D01*
X355574Y313088D01*
X356045Y312894D01*
X356554D01*
X357024Y313088D01*
X357384Y313448D01*
X357579Y313919D01*
Y314428D01*
X357384Y314898D01*
X357024Y315258D01*
X356554Y315453D01*
D02*
G37*
G36*
X160067Y317794D02*
X159558D01*
X159087Y317600D01*
X158727Y317239D01*
X158533Y316769D01*
Y316260D01*
X158727Y315790D01*
X158913Y315604D01*
X159029Y315318D01*
X158912Y315091D01*
X158701Y314880D01*
X158507Y314409D01*
Y313900D01*
X158701Y313430D01*
X159061Y313070D01*
X159532Y312875D01*
X160041D01*
X160511Y313070D01*
X160871Y313430D01*
X161066Y313900D01*
Y314409D01*
X160871Y314880D01*
X160685Y315065D01*
X160569Y315352D01*
X160686Y315579D01*
X160897Y315790D01*
X161092Y316260D01*
Y316769D01*
X160897Y317239D01*
X160537Y317600D01*
X160067Y317794D01*
D02*
G37*
G36*
X372459Y315295D02*
X371950D01*
X371480Y315101D01*
X371120Y314740D01*
X370925Y314270D01*
Y313761D01*
X371120Y313291D01*
X371480Y312931D01*
X371950Y312736D01*
X372459D01*
X372930Y312931D01*
X373289Y313291D01*
X373484Y313761D01*
Y314270D01*
X373289Y314740D01*
X372930Y315101D01*
X372459Y315295D01*
D02*
G37*
G36*
X153010Y315059D02*
X152501D01*
X152031Y314864D01*
X151671Y314504D01*
X151476Y314034D01*
Y313525D01*
X151671Y313055D01*
X152031Y312695D01*
X152501Y312500D01*
X153010D01*
X153481Y312695D01*
X153841Y313055D01*
X154035Y313525D01*
Y314034D01*
X153841Y314504D01*
X153481Y314864D01*
X153010Y315059D01*
D02*
G37*
G36*
X179388Y313090D02*
X178879D01*
X178409Y312896D01*
X178049Y312536D01*
X177854Y312066D01*
Y311557D01*
X178049Y311086D01*
X178409Y310726D01*
X178879Y310531D01*
X179388D01*
X179859Y310726D01*
X180219Y311086D01*
X180413Y311557D01*
Y312066D01*
X180219Y312536D01*
X179859Y312896D01*
X179388Y313090D01*
D02*
G37*
G36*
X286927Y312205D02*
X286301D01*
X285722Y311965D01*
X285279Y311522D01*
X285039Y310943D01*
Y310317D01*
X285279Y309738D01*
X285722Y309295D01*
X286301Y309055D01*
X286927D01*
X287506Y309295D01*
X287949Y309738D01*
X288189Y310317D01*
Y310943D01*
X287949Y311522D01*
X287506Y311965D01*
X286927Y312205D01*
D02*
G37*
G36*
X280235D02*
X279608D01*
X279029Y311965D01*
X278586Y311522D01*
X278346Y310943D01*
Y310317D01*
X278586Y309738D01*
X279029Y309295D01*
X279608Y309055D01*
X280235D01*
X280813Y309295D01*
X281256Y309738D01*
X281496Y310317D01*
Y310943D01*
X281256Y311522D01*
X280813Y311965D01*
X280235Y312205D01*
D02*
G37*
G36*
X513010Y316043D02*
X512030D01*
X511084Y315790D01*
X510235Y315300D01*
X509543Y314607D01*
X509053Y313759D01*
X508799Y312813D01*
Y311833D01*
X509053Y310887D01*
X509543Y310038D01*
X510235Y309346D01*
X511084Y308856D01*
X512030Y308602D01*
X513010D01*
X513956Y308856D01*
X514804Y309346D01*
X515497Y310038D01*
X515987Y310887D01*
X516240Y311833D01*
Y312813D01*
X515987Y313759D01*
X515497Y314607D01*
X514804Y315300D01*
X513956Y315790D01*
X513010Y316043D01*
D02*
G37*
G36*
X144644Y310589D02*
X144135D01*
X143665Y310394D01*
X143305Y310034D01*
X143110Y309564D01*
Y309055D01*
X143305Y308585D01*
X143665Y308225D01*
X144135Y308030D01*
X144644D01*
X145115Y308225D01*
X145475Y308585D01*
X145669Y309055D01*
Y309564D01*
X145475Y310034D01*
X145115Y310394D01*
X144644Y310589D01*
D02*
G37*
G36*
X492567Y314606D02*
X491685D01*
X490834Y314378D01*
X490071Y313938D01*
X489448Y313315D01*
X489008Y312551D01*
X488779Y311700D01*
Y310819D01*
X489008Y309968D01*
X489448Y309205D01*
X490071Y308582D01*
X490834Y308141D01*
X491685Y307913D01*
X492567D01*
X493418Y308141D01*
X494181Y308582D01*
X494804Y309205D01*
X495244Y309968D01*
X495472Y310819D01*
Y311700D01*
X495244Y312551D01*
X494804Y313315D01*
X494181Y313938D01*
X493418Y314378D01*
X492567Y314606D01*
D02*
G37*
G36*
X377420Y310335D02*
X376911D01*
X376441Y310140D01*
X376081Y309780D01*
X375886Y309310D01*
Y308801D01*
X376081Y308330D01*
X376441Y307970D01*
X376911Y307776D01*
X377420D01*
X377890Y307970D01*
X378250Y308330D01*
X378445Y308801D01*
Y309310D01*
X378250Y309780D01*
X377890Y310140D01*
X377420Y310335D01*
D02*
G37*
G36*
X351575Y309358D02*
X351066D01*
X350595Y309163D01*
X350236Y308804D01*
X350041Y308333D01*
Y307824D01*
X350236Y307354D01*
X350595Y306994D01*
X351066Y306799D01*
X351575D01*
X352045Y306994D01*
X352405Y307354D01*
X352600Y307824D01*
Y308333D01*
X352405Y308804D01*
X352045Y309163D01*
X351575Y309358D01*
D02*
G37*
G36*
X339142Y308807D02*
X338633D01*
X338163Y308613D01*
X337803Y308253D01*
X337608Y307783D01*
Y307274D01*
X337803Y306803D01*
X338163Y306443D01*
X338633Y306248D01*
X339142D01*
X339613Y306443D01*
X339973Y306803D01*
X340167Y307274D01*
Y307783D01*
X339973Y308253D01*
X339613Y308613D01*
X339142Y308807D01*
D02*
G37*
G36*
X409310Y308760D02*
X408801D01*
X408330Y308565D01*
X407970Y308205D01*
X407776Y307735D01*
Y307226D01*
X407970Y306755D01*
X408330Y306396D01*
X408801Y306201D01*
X409310D01*
X409780Y306396D01*
X410140Y306755D01*
X410335Y307226D01*
Y307735D01*
X410140Y308205D01*
X409780Y308565D01*
X409310Y308760D01*
D02*
G37*
G36*
X311278Y307972D02*
X310769D01*
X310299Y307778D01*
X309939Y307418D01*
X309744Y306947D01*
Y306438D01*
X309939Y305968D01*
X310299Y305608D01*
X310769Y305413D01*
X311278D01*
X311748Y305608D01*
X312108Y305968D01*
X312303Y306438D01*
Y306947D01*
X312108Y307418D01*
X311748Y307778D01*
X311278Y307972D01*
D02*
G37*
G36*
X147105D02*
X146596D01*
X146126Y307778D01*
X145766Y307418D01*
X145571Y306947D01*
Y306438D01*
X145766Y305968D01*
X146126Y305608D01*
X146596Y305413D01*
X147105D01*
X147575Y305608D01*
X147935Y305968D01*
X148130Y306438D01*
Y306947D01*
X147935Y307418D01*
X147575Y307778D01*
X147105Y307972D01*
D02*
G37*
G36*
X354585Y307579D02*
X354076D01*
X353606Y307384D01*
X353246Y307024D01*
X353051Y306554D01*
Y306045D01*
X353246Y305574D01*
X353606Y305215D01*
X354076Y305020D01*
X354585D01*
X355055Y305215D01*
X355415Y305574D01*
X355610Y306045D01*
Y306554D01*
X355415Y307024D01*
X355055Y307384D01*
X354585Y307579D01*
D02*
G37*
G36*
X524191Y310591D02*
X523211D01*
X522265Y310337D01*
X521416Y309847D01*
X520724Y309155D01*
X520234Y308306D01*
X519980Y307360D01*
Y306380D01*
X520234Y305434D01*
X520724Y304586D01*
X521416Y303893D01*
X522265Y303403D01*
X523211Y303150D01*
X524191D01*
X525137Y303403D01*
X525985Y303893D01*
X526678Y304586D01*
X527168Y305434D01*
X527421Y306380D01*
Y307360D01*
X527168Y308306D01*
X526678Y309155D01*
X525985Y309847D01*
X525137Y310337D01*
X524191Y310591D01*
D02*
G37*
G36*
X401829Y302067D02*
X401320D01*
X400850Y301872D01*
X400490Y301512D01*
X400295Y301042D01*
Y300533D01*
X400490Y300063D01*
X400850Y299703D01*
X401320Y299508D01*
X401829D01*
X402300Y299703D01*
X402660Y300063D01*
X402854Y300533D01*
Y301042D01*
X402660Y301512D01*
X402300Y301872D01*
X401829Y302067D01*
D02*
G37*
G36*
X513010Y305138D02*
X512030D01*
X511084Y304884D01*
X510235Y304395D01*
X509543Y303702D01*
X509053Y302853D01*
X508799Y301907D01*
Y300927D01*
X509053Y299981D01*
X509543Y299133D01*
X510235Y298440D01*
X511084Y297950D01*
X512030Y297697D01*
X513010D01*
X513956Y297950D01*
X514804Y298440D01*
X515497Y299133D01*
X515987Y299981D01*
X516240Y300927D01*
Y301907D01*
X515987Y302853D01*
X515497Y303702D01*
X514804Y304395D01*
X513956Y304884D01*
X513010Y305138D01*
D02*
G37*
G36*
X178995Y300098D02*
X178486D01*
X178015Y299904D01*
X177655Y299544D01*
X177461Y299073D01*
Y298564D01*
X177655Y298094D01*
X178015Y297734D01*
X178486Y297539D01*
X178995D01*
X179465Y297734D01*
X179825Y298094D01*
X180020Y298564D01*
Y299073D01*
X179825Y299544D01*
X179465Y299904D01*
X178995Y300098D01*
D02*
G37*
G36*
X153404Y297736D02*
X152895D01*
X152425Y297541D01*
X152065Y297182D01*
X151870Y296711D01*
Y296202D01*
X152065Y295732D01*
X152425Y295372D01*
X152895Y295177D01*
X153404D01*
X153874Y295372D01*
X154234Y295732D01*
X154429Y296202D01*
Y296711D01*
X154234Y297182D01*
X153874Y297541D01*
X153404Y297736D01*
D02*
G37*
G36*
X262124Y298031D02*
X261498D01*
X260919Y297792D01*
X260476Y297349D01*
X260236Y296770D01*
Y296143D01*
X260476Y295565D01*
X260919Y295122D01*
X261498Y294882D01*
X262124D01*
X262703Y295122D01*
X263146Y295565D01*
X263386Y296143D01*
Y296770D01*
X263146Y297349D01*
X262703Y297792D01*
X262124Y298031D01*
D02*
G37*
G36*
X417242Y296850D02*
X416616D01*
X416037Y296611D01*
X415594Y296168D01*
X415354Y295589D01*
Y294962D01*
X415594Y294384D01*
X416037Y293940D01*
X416616Y293701D01*
X417242D01*
X417821Y293940D01*
X418264Y294384D01*
X418504Y294962D01*
Y295589D01*
X418264Y296168D01*
X417821Y296611D01*
X417242Y296850D01*
D02*
G37*
G36*
X478601Y295768D02*
X478092D01*
X477622Y295573D01*
X477262Y295213D01*
X477067Y294743D01*
Y294234D01*
X477262Y293763D01*
X477622Y293404D01*
X478092Y293209D01*
X478601D01*
X479071Y293404D01*
X479431Y293763D01*
X479626Y294234D01*
Y294743D01*
X479431Y295213D01*
X479071Y295573D01*
X478601Y295768D01*
D02*
G37*
G36*
X279782Y294193D02*
X279273D01*
X278803Y293998D01*
X278443Y293638D01*
X278248Y293168D01*
Y292659D01*
X278443Y292189D01*
X278803Y291829D01*
X279273Y291634D01*
X279782D01*
X280252Y291829D01*
X280612Y292189D01*
X280807Y292659D01*
Y293168D01*
X280612Y293638D01*
X280252Y293998D01*
X279782Y294193D01*
D02*
G37*
G36*
X255806Y291476D02*
X255297D01*
X254826Y291282D01*
X254466Y290922D01*
X254272Y290451D01*
Y289942D01*
X254466Y289472D01*
X254826Y289112D01*
X255297Y288917D01*
X255806D01*
X256276Y289112D01*
X256636Y289472D01*
X256831Y289942D01*
Y290451D01*
X256636Y290922D01*
X256276Y291282D01*
X255806Y291476D01*
D02*
G37*
G36*
X478995Y287500D02*
X478486D01*
X478015Y287305D01*
X477655Y286945D01*
X477461Y286475D01*
Y285966D01*
X477655Y285496D01*
X478015Y285136D01*
X478486Y284941D01*
X478995D01*
X479465Y285136D01*
X479825Y285496D01*
X480020Y285966D01*
Y286475D01*
X479825Y286945D01*
X479465Y287305D01*
X478995Y287500D01*
D02*
G37*
G36*
X165215Y286319D02*
X164706D01*
X164236Y286124D01*
X163876Y285764D01*
X163681Y285294D01*
Y284785D01*
X163876Y284315D01*
X164236Y283955D01*
X164706Y283760D01*
X165215D01*
X165685Y283955D01*
X166045Y284315D01*
X166240Y284785D01*
Y285294D01*
X166045Y285764D01*
X165685Y286124D01*
X165215Y286319D01*
D02*
G37*
G36*
X478601Y279626D02*
X478092D01*
X477622Y279431D01*
X477262Y279071D01*
X477067Y278601D01*
Y278092D01*
X477262Y277622D01*
X477622Y277262D01*
X478092Y277067D01*
X478601D01*
X479071Y277262D01*
X479431Y277622D01*
X479626Y278092D01*
Y278601D01*
X479431Y279071D01*
X479071Y279431D01*
X478601Y279626D01*
D02*
G37*
G36*
X316339Y283661D02*
X309646D01*
Y276969D01*
X316339D01*
Y283661D01*
D02*
G37*
G36*
X303433D02*
X302552D01*
X301700Y283433D01*
X300937Y282993D01*
X300314Y282370D01*
X299874Y281607D01*
X299646Y280755D01*
Y279874D01*
X299874Y279023D01*
X300314Y278260D01*
X300937Y277637D01*
X301700Y277197D01*
X302552Y276969D01*
X303433D01*
X304284Y277197D01*
X305047Y277637D01*
X305670Y278260D01*
X306111Y279023D01*
X306339Y279874D01*
Y280755D01*
X306111Y281607D01*
X305670Y282370D01*
X305047Y282993D01*
X304284Y283433D01*
X303433Y283661D01*
D02*
G37*
G36*
X151228Y279724D02*
X150347D01*
X149496Y279496D01*
X148733Y279056D01*
X148110Y278433D01*
X147669Y277670D01*
X147441Y276818D01*
Y275937D01*
X147669Y275086D01*
X148110Y274323D01*
X148733Y273700D01*
X149496Y273259D01*
X150347Y273031D01*
X151228D01*
X152079Y273259D01*
X152842Y273700D01*
X153465Y274323D01*
X153906Y275086D01*
X154134Y275937D01*
Y276818D01*
X153906Y277670D01*
X153465Y278433D01*
X152842Y279056D01*
X152079Y279496D01*
X151228Y279724D01*
D02*
G37*
G36*
X144134D02*
X137441D01*
Y273031D01*
X144134D01*
Y279724D01*
D02*
G37*
G36*
X-40690Y275295D02*
X-41199D01*
X-41670Y275100D01*
X-42030Y274741D01*
X-42224Y274270D01*
Y273761D01*
X-42030Y273291D01*
X-41670Y272931D01*
X-41199Y272736D01*
X-40690D01*
X-40220Y272931D01*
X-39860Y273291D01*
X-39665Y273761D01*
Y274270D01*
X-39860Y274741D01*
X-40220Y275100D01*
X-40690Y275295D01*
D02*
G37*
G36*
X313583Y274233D02*
Y270905D01*
X316910D01*
X316661Y271835D01*
X316143Y272732D01*
X315409Y273465D01*
X314512Y273984D01*
X313583Y274233D01*
D02*
G37*
G36*
X303583D02*
Y270905D01*
X306910D01*
X306661Y271835D01*
X306142Y272732D01*
X305410Y273465D01*
X304512Y273984D01*
X303583Y274233D01*
D02*
G37*
G36*
X302402Y274233D02*
X301472Y273984D01*
X300575Y273465D01*
X299842Y272732D01*
X299323Y271835D01*
X299075Y270905D01*
X302402D01*
Y274233D01*
D02*
G37*
G36*
X312402D02*
X311473Y273984D01*
X310575Y273465D01*
X309842Y272732D01*
X309323Y271835D01*
X309074Y270905D01*
X312402D01*
Y274233D01*
D02*
G37*
G36*
X478995Y271358D02*
X478486D01*
X478015Y271164D01*
X477655Y270803D01*
X477461Y270333D01*
Y269824D01*
X477655Y269354D01*
X478015Y268994D01*
X478486Y268799D01*
X478995D01*
X479465Y268994D01*
X479825Y269354D01*
X480020Y269824D01*
Y270333D01*
X479825Y270803D01*
X479465Y271164D01*
X478995Y271358D01*
D02*
G37*
G36*
X-40690Y268996D02*
X-41199D01*
X-41670Y268801D01*
X-42030Y268441D01*
X-42224Y267971D01*
Y267462D01*
X-42030Y266992D01*
X-41670Y266632D01*
X-41199Y266437D01*
X-40690D01*
X-40220Y266632D01*
X-39860Y266992D01*
X-39665Y267462D01*
Y267971D01*
X-39860Y268441D01*
X-40220Y268801D01*
X-40690Y268996D01*
D02*
G37*
G36*
X316910Y269724D02*
X313583D01*
Y266397D01*
X314512Y266646D01*
X315409Y267165D01*
X316143Y267898D01*
X316661Y268795D01*
X316910Y269724D01*
D02*
G37*
G36*
X306910D02*
X303583D01*
Y266397D01*
X304512Y266646D01*
X305410Y267165D01*
X306142Y267898D01*
X306661Y268795D01*
X306910Y269724D01*
D02*
G37*
G36*
X312402D02*
X309074D01*
X309323Y268795D01*
X309842Y267898D01*
X310575Y267165D01*
X311473Y266646D01*
X312402Y266397D01*
Y269724D01*
D02*
G37*
G36*
X302402D02*
X299075D01*
X299323Y268795D01*
X299842Y267898D01*
X300575Y267165D01*
X301472Y266646D01*
X302402Y266397D01*
Y269724D01*
D02*
G37*
G36*
X32538Y267421D02*
X32029D01*
X31559Y267227D01*
X31199Y266866D01*
X31004Y266396D01*
Y265887D01*
X31199Y265417D01*
X31559Y265057D01*
X32029Y264862D01*
X32538D01*
X33008Y265057D01*
X33368Y265417D01*
X33563Y265887D01*
Y266396D01*
X33368Y266866D01*
X33008Y267227D01*
X32538Y267421D01*
D02*
G37*
G36*
X28601D02*
X28092D01*
X27622Y267227D01*
X27262Y266866D01*
X27067Y266396D01*
Y265887D01*
X27262Y265417D01*
X27622Y265057D01*
X28092Y264862D01*
X28601D01*
X29071Y265057D01*
X29431Y265417D01*
X29626Y265887D01*
Y266396D01*
X29431Y266866D01*
X29071Y267227D01*
X28601Y267421D01*
D02*
G37*
G36*
X24664D02*
X24155D01*
X23685Y267227D01*
X23325Y266866D01*
X23130Y266396D01*
Y265887D01*
X23325Y265417D01*
X23685Y265057D01*
X24155Y264862D01*
X24664D01*
X25134Y265057D01*
X25494Y265417D01*
X25689Y265887D01*
Y266396D01*
X25494Y266866D01*
X25134Y267227D01*
X24664Y267421D01*
D02*
G37*
G36*
X519072Y283799D02*
X517149D01*
X515262Y283424D01*
X513485Y282688D01*
X511886Y281620D01*
X510526Y280259D01*
X509458Y278660D01*
X508722Y276883D01*
X508347Y274997D01*
Y273074D01*
X508722Y271187D01*
X509458Y269411D01*
X510526Y267811D01*
X511886Y266451D01*
X513485Y265383D01*
X515262Y264647D01*
X517149Y264272D01*
X519072D01*
X520958Y264647D01*
X522735Y265383D01*
X524334Y266451D01*
X525694Y267811D01*
X526763Y269411D01*
X527499Y271187D01*
X527874Y273074D01*
Y274997D01*
X527499Y276883D01*
X526763Y278660D01*
X525694Y280259D01*
X524334Y281620D01*
X522735Y282688D01*
X520958Y283424D01*
X519072Y283799D01*
D02*
G37*
G36*
X-40690Y262697D02*
X-41199D01*
X-41670Y262502D01*
X-42030Y262142D01*
X-42224Y261672D01*
Y261163D01*
X-42030Y260693D01*
X-41670Y260333D01*
X-41199Y260138D01*
X-40690D01*
X-40220Y260333D01*
X-39860Y260693D01*
X-39665Y261163D01*
Y261672D01*
X-39860Y262142D01*
X-40220Y262502D01*
X-40690Y262697D01*
D02*
G37*
G36*
X-37088Y256693D02*
X-37715D01*
X-38294Y256453D01*
X-38737Y256010D01*
X-38976Y255431D01*
Y254805D01*
X-38737Y254226D01*
X-38294Y253783D01*
X-37715Y253543D01*
X-37088D01*
X-36509Y253783D01*
X-36066Y254226D01*
X-35827Y254805D01*
Y255431D01*
X-36066Y256010D01*
X-36509Y256453D01*
X-37088Y256693D01*
D02*
G37*
G36*
Y250394D02*
X-37715D01*
X-38294Y250154D01*
X-38737Y249711D01*
X-38976Y249132D01*
Y248506D01*
X-38737Y247927D01*
X-38294Y247484D01*
X-37715Y247244D01*
X-37088D01*
X-36509Y247484D01*
X-36066Y247927D01*
X-35827Y248506D01*
Y249132D01*
X-36066Y249711D01*
X-36509Y250154D01*
X-37088Y250394D01*
D02*
G37*
G36*
X469546Y243799D02*
X469037D01*
X468567Y243604D01*
X468207Y243245D01*
X468012Y242774D01*
Y242265D01*
X468207Y241795D01*
X468567Y241435D01*
X469037Y241240D01*
X469546D01*
X470016Y241435D01*
X470376Y241795D01*
X470571Y242265D01*
Y242774D01*
X470376Y243245D01*
X470016Y243604D01*
X469546Y243799D01*
D02*
G37*
G36*
X-37088Y244094D02*
X-37715D01*
X-38294Y243855D01*
X-38737Y243412D01*
X-38976Y242833D01*
Y242206D01*
X-38737Y241628D01*
X-38294Y241185D01*
X-37715Y240945D01*
X-37088D01*
X-36509Y241185D01*
X-36066Y241628D01*
X-35827Y242206D01*
Y242833D01*
X-36066Y243412D01*
X-36509Y243855D01*
X-37088Y244094D01*
D02*
G37*
G36*
X384507Y243012D02*
X383998D01*
X383527Y242817D01*
X383167Y242457D01*
X382972Y241987D01*
Y241478D01*
X383167Y241007D01*
X383527Y240648D01*
X383998Y240453D01*
X384507D01*
X384977Y240648D01*
X385337Y241007D01*
X385531Y241478D01*
Y241987D01*
X385337Y242457D01*
X384977Y242817D01*
X384507Y243012D01*
D02*
G37*
G36*
X492567Y245945D02*
X491685D01*
X490834Y245717D01*
X490071Y245276D01*
X489448Y244653D01*
X489008Y243890D01*
X488779Y243039D01*
Y242158D01*
X489008Y241307D01*
X489448Y240544D01*
X490071Y239921D01*
X490834Y239480D01*
X491685Y239252D01*
X492567D01*
X493418Y239480D01*
X494181Y239921D01*
X494804Y240544D01*
X495244Y241307D01*
X495472Y242158D01*
Y243039D01*
X495244Y243890D01*
X494804Y244653D01*
X494181Y245276D01*
X493418Y245717D01*
X492567Y245945D01*
D02*
G37*
G36*
X192774Y241207D02*
X192265D01*
X191795Y241013D01*
X191435Y240653D01*
X191240Y240182D01*
Y239673D01*
X191435Y239203D01*
X191795Y238843D01*
X192265Y238648D01*
X192774D01*
X193245Y238843D01*
X193604Y239203D01*
X193799Y239673D01*
Y240182D01*
X193604Y240653D01*
X193245Y241013D01*
X192774Y241207D01*
D02*
G37*
G36*
X519072Y255807D02*
X517149D01*
X515262Y255432D01*
X513485Y254696D01*
X511886Y253627D01*
X510526Y252267D01*
X509458Y250668D01*
X508722Y248891D01*
X508347Y247005D01*
Y245082D01*
X508722Y243195D01*
X509458Y241418D01*
X510526Y239819D01*
X511886Y238459D01*
X513485Y237391D01*
X515262Y236655D01*
X517149Y236280D01*
X519072D01*
X520958Y236655D01*
X522735Y237391D01*
X524334Y238459D01*
X525694Y239819D01*
X526763Y241418D01*
X527499Y243195D01*
X527874Y245082D01*
Y247005D01*
X527499Y248891D01*
X526763Y250668D01*
X525694Y252267D01*
X524334Y253627D01*
X522735Y254696D01*
X520958Y255432D01*
X519072Y255807D01*
D02*
G37*
G36*
X379388Y237894D02*
X378879D01*
X378409Y237699D01*
X378049Y237339D01*
X377854Y236869D01*
Y236360D01*
X378049Y235889D01*
X378409Y235529D01*
X378879Y235335D01*
X379388D01*
X379859Y235529D01*
X380219Y235889D01*
X380413Y236360D01*
Y236869D01*
X380219Y237339D01*
X379859Y237699D01*
X379388Y237894D01*
D02*
G37*
G36*
X153685Y237694D02*
X153176D01*
X152706Y237499D01*
X152346Y237139D01*
X152151Y236669D01*
Y236160D01*
X152346Y235690D01*
X152706Y235330D01*
X153176Y235135D01*
X153685D01*
X154156Y235330D01*
X154516Y235690D01*
X154710Y236160D01*
Y236669D01*
X154516Y237139D01*
X154156Y237499D01*
X153685Y237694D01*
D02*
G37*
G36*
X-37088Y237795D02*
X-37715D01*
X-38294Y237556D01*
X-38737Y237112D01*
X-38976Y236534D01*
Y235907D01*
X-38737Y235328D01*
X-38294Y234885D01*
X-37715Y234646D01*
X-37088D01*
X-36509Y234885D01*
X-36066Y235328D01*
X-35827Y235907D01*
Y236534D01*
X-36066Y237112D01*
X-36509Y237556D01*
X-37088Y237795D01*
D02*
G37*
G36*
X192774Y236508D02*
X192265D01*
X191795Y236313D01*
X191435Y235953D01*
X191240Y235483D01*
Y234974D01*
X191435Y234504D01*
X191795Y234144D01*
X192265Y233949D01*
X192774D01*
X193245Y234144D01*
X193604Y234504D01*
X193799Y234974D01*
Y235483D01*
X193604Y235953D01*
X193245Y236313D01*
X192774Y236508D01*
D02*
G37*
G36*
X126239Y235925D02*
X125730D01*
X125259Y235730D01*
X124899Y235370D01*
X124705Y234900D01*
Y234391D01*
X124899Y233921D01*
X125259Y233561D01*
X125730Y233366D01*
X126239D01*
X126709Y233561D01*
X127069Y233921D01*
X127264Y234391D01*
Y234900D01*
X127069Y235370D01*
X126709Y235730D01*
X126239Y235925D01*
D02*
G37*
G36*
X492567Y235945D02*
X491685D01*
X490834Y235717D01*
X490071Y235276D01*
X489448Y234653D01*
X489008Y233890D01*
X488779Y233039D01*
Y232158D01*
X489008Y231307D01*
X489448Y230544D01*
X490071Y229921D01*
X490834Y229480D01*
X491685Y229252D01*
X492567D01*
X493418Y229480D01*
X494181Y229921D01*
X494804Y230544D01*
X495244Y231307D01*
X495472Y232158D01*
Y233039D01*
X495244Y233890D01*
X494804Y234653D01*
X494181Y235276D01*
X493418Y235717D01*
X492567Y235945D01*
D02*
G37*
G36*
X-37088Y231496D02*
X-37715D01*
X-38294Y231256D01*
X-38737Y230813D01*
X-38976Y230235D01*
Y229608D01*
X-38737Y229029D01*
X-38294Y228586D01*
X-37715Y228346D01*
X-37088D01*
X-36509Y228586D01*
X-36066Y229029D01*
X-35827Y229608D01*
Y230235D01*
X-36066Y230813D01*
X-36509Y231256D01*
X-37088Y231496D01*
D02*
G37*
G36*
Y225197D02*
X-37715D01*
X-38294Y224957D01*
X-38737Y224514D01*
X-38976Y223935D01*
Y223309D01*
X-38737Y222730D01*
X-38294Y222287D01*
X-37715Y222047D01*
X-37088D01*
X-36509Y222287D01*
X-36066Y222730D01*
X-35827Y223309D01*
Y223935D01*
X-36066Y224514D01*
X-36509Y224957D01*
X-37088Y225197D01*
D02*
G37*
G36*
X304641Y223259D02*
X304132D01*
X303661Y223064D01*
X303301Y222704D01*
X303107Y222234D01*
Y221725D01*
X303301Y221254D01*
X303661Y220895D01*
X304132Y220700D01*
X304641D01*
X305111Y220895D01*
X305471Y221254D01*
X305666Y221725D01*
Y222234D01*
X305471Y222704D01*
X305111Y223064D01*
X304641Y223259D01*
D02*
G37*
G36*
X384507Y222933D02*
X383998D01*
X383527Y222738D01*
X383167Y222378D01*
X382972Y221908D01*
Y221399D01*
X383167Y220929D01*
X383527Y220569D01*
X383998Y220374D01*
X384507D01*
X384977Y220569D01*
X385337Y220929D01*
X385531Y221399D01*
Y221908D01*
X385337Y222378D01*
X384977Y222738D01*
X384507Y222933D01*
D02*
G37*
G36*
X138837Y222539D02*
X138328D01*
X137858Y222345D01*
X137498Y221985D01*
X137303Y221514D01*
Y221005D01*
X137498Y220535D01*
X137858Y220175D01*
X138328Y219980D01*
X138837D01*
X139307Y220175D01*
X139667Y220535D01*
X139862Y221005D01*
Y221514D01*
X139667Y221985D01*
X139307Y222345D01*
X138837Y222539D01*
D02*
G37*
G36*
X492567Y225945D02*
X491685D01*
X490834Y225717D01*
X490071Y225276D01*
X489448Y224653D01*
X489008Y223890D01*
X488779Y223039D01*
Y222158D01*
X489008Y221307D01*
X489448Y220544D01*
X490071Y219921D01*
X490834Y219480D01*
X491685Y219252D01*
X492567D01*
X493418Y219480D01*
X494181Y219921D01*
X494804Y220544D01*
X495244Y221307D01*
X495472Y222158D01*
Y223039D01*
X495244Y223890D01*
X494804Y224653D01*
X494181Y225276D01*
X493418Y225717D01*
X492567Y225945D01*
D02*
G37*
G36*
X167971Y220571D02*
X167462D01*
X166992Y220376D01*
X166632Y220016D01*
X166437Y219546D01*
Y219037D01*
X166632Y218567D01*
X166992Y218207D01*
X167462Y218012D01*
X167971D01*
X168441Y218207D01*
X168801Y218567D01*
X168996Y219037D01*
Y219546D01*
X168801Y220016D01*
X168441Y220376D01*
X167971Y220571D01*
D02*
G37*
G36*
X150036Y219802D02*
X149527D01*
X149056Y219607D01*
X148696Y219248D01*
X148502Y218777D01*
Y218268D01*
X148696Y217798D01*
X149056Y217438D01*
X149527Y217243D01*
X150036D01*
X150506Y217438D01*
X150866Y217798D01*
X151061Y218268D01*
Y218777D01*
X150866Y219248D01*
X150506Y219607D01*
X150036Y219802D01*
D02*
G37*
G36*
X-37088Y218898D02*
X-37715D01*
X-38294Y218658D01*
X-38737Y218215D01*
X-38976Y217636D01*
Y217010D01*
X-38737Y216431D01*
X-38294Y215988D01*
X-37715Y215748D01*
X-37088D01*
X-36509Y215988D01*
X-36066Y216431D01*
X-35827Y217010D01*
Y217636D01*
X-36066Y218215D01*
X-36509Y218658D01*
X-37088Y218898D01*
D02*
G37*
G36*
X141593Y218209D02*
X141084D01*
X140614Y218014D01*
X140254Y217654D01*
X140059Y217184D01*
Y216675D01*
X140254Y216204D01*
X140614Y215844D01*
X141084Y215650D01*
X141593D01*
X142063Y215844D01*
X142423Y216204D01*
X142618Y216675D01*
Y217184D01*
X142423Y217654D01*
X142063Y218014D01*
X141593Y218209D01*
D02*
G37*
G36*
X516240Y222382D02*
X508799D01*
Y214941D01*
X516240D01*
Y222382D01*
D02*
G37*
G36*
X390806Y216634D02*
X390297D01*
X389826Y216439D01*
X389466Y216079D01*
X389272Y215609D01*
Y215100D01*
X389466Y214630D01*
X389826Y214270D01*
X390297Y214075D01*
X390806D01*
X391276Y214270D01*
X391636Y214630D01*
X391831Y215100D01*
Y215609D01*
X391636Y216079D01*
X391276Y216439D01*
X390806Y216634D01*
D02*
G37*
G36*
X134113Y214272D02*
X133604D01*
X133133Y214077D01*
X132773Y213717D01*
X132579Y213247D01*
Y212738D01*
X132773Y212267D01*
X133133Y211907D01*
X133604Y211713D01*
X134113D01*
X134583Y211907D01*
X134943Y212267D01*
X135138Y212738D01*
Y213247D01*
X134943Y213717D01*
X134583Y214077D01*
X134113Y214272D01*
D02*
G37*
G36*
X143266Y213623D02*
X142757D01*
X142287Y213429D01*
X141927Y213069D01*
X141732Y212598D01*
Y212089D01*
X141927Y211619D01*
X142287Y211259D01*
X142757Y211064D01*
X143266D01*
X143737Y211259D01*
X144097Y211619D01*
X144291Y212089D01*
Y212598D01*
X144097Y213069D01*
X143737Y213429D01*
X143266Y213623D01*
D02*
G37*
G36*
X524191Y216929D02*
X523211D01*
X522265Y216676D01*
X521416Y216186D01*
X520724Y215493D01*
X520234Y214645D01*
X519980Y213699D01*
Y212719D01*
X520234Y211773D01*
X520724Y210924D01*
X521416Y210232D01*
X522265Y209742D01*
X523211Y209488D01*
X524191D01*
X525137Y209742D01*
X525985Y210232D01*
X526678Y210924D01*
X527168Y211773D01*
X527421Y212719D01*
Y213699D01*
X527168Y214645D01*
X526678Y215493D01*
X525985Y216186D01*
X525137Y216676D01*
X524191Y216929D01*
D02*
G37*
G36*
X-37088Y212598D02*
X-37715D01*
X-38294Y212359D01*
X-38737Y211916D01*
X-38976Y211337D01*
Y210710D01*
X-38737Y210132D01*
X-38294Y209689D01*
X-37715Y209449D01*
X-37088D01*
X-36509Y209689D01*
X-36066Y210132D01*
X-35827Y210710D01*
Y211337D01*
X-36066Y211916D01*
X-36509Y212359D01*
X-37088Y212598D01*
D02*
G37*
G36*
X495472Y215945D02*
X488779D01*
Y209252D01*
X495472D01*
Y215945D01*
D02*
G37*
G36*
X234299Y214528D02*
X233418D01*
X232567Y214300D01*
X231803Y213859D01*
X231180Y213236D01*
X230740Y212473D01*
X230512Y211622D01*
Y210740D01*
X230740Y209889D01*
X231180Y209126D01*
X231803Y208503D01*
X232567Y208063D01*
X233418Y207835D01*
X234299D01*
X235150Y208063D01*
X235913Y208503D01*
X236536Y209126D01*
X236977Y209889D01*
X237205Y210740D01*
Y211622D01*
X236977Y212473D01*
X236536Y213236D01*
X235913Y213859D01*
X235150Y214300D01*
X234299Y214528D01*
D02*
G37*
G36*
X132442Y210037D02*
X131933D01*
X131462Y209842D01*
X131102Y209483D01*
X130908Y209012D01*
Y208503D01*
X131102Y208033D01*
X131462Y207673D01*
X131933Y207478D01*
X132442D01*
X132912Y207673D01*
X133272Y208033D01*
X133467Y208503D01*
Y209012D01*
X133272Y209483D01*
X132912Y209842D01*
X132442Y210037D01*
D02*
G37*
G36*
X103110Y213347D02*
X96417D01*
Y206653D01*
X103110D01*
Y213347D01*
D02*
G37*
G36*
X90204D02*
X89323D01*
X88472Y213118D01*
X87709Y212678D01*
X87086Y212055D01*
X86645Y211292D01*
X86417Y210441D01*
Y209559D01*
X86645Y208708D01*
X87086Y207945D01*
X87709Y207322D01*
X88472Y206882D01*
X89323Y206653D01*
X90204D01*
X91056Y206882D01*
X91819Y207322D01*
X92442Y207945D01*
X92882Y208708D01*
X93110Y209559D01*
Y210441D01*
X92882Y211292D01*
X92442Y212055D01*
X91819Y212678D01*
X91056Y213118D01*
X90204Y213347D01*
D02*
G37*
G36*
X513010Y211476D02*
X512030D01*
X511084Y211223D01*
X510235Y210733D01*
X509543Y210040D01*
X509053Y209192D01*
X508799Y208246D01*
Y207266D01*
X509053Y206320D01*
X509543Y205471D01*
X510235Y204779D01*
X511084Y204289D01*
X512030Y204035D01*
X513010D01*
X513956Y204289D01*
X514804Y204779D01*
X515497Y205471D01*
X515987Y206320D01*
X516240Y207266D01*
Y208246D01*
X515987Y209192D01*
X515497Y210040D01*
X514804Y210733D01*
X513956Y211223D01*
X513010Y211476D01*
D02*
G37*
G36*
X-37088Y206299D02*
X-37715D01*
X-38294Y206060D01*
X-38737Y205616D01*
X-38976Y205038D01*
Y204411D01*
X-38737Y203832D01*
X-38294Y203389D01*
X-37715Y203150D01*
X-37088D01*
X-36509Y203389D01*
X-36066Y203832D01*
X-35827Y204411D01*
Y205038D01*
X-36066Y205616D01*
X-36509Y206060D01*
X-37088Y206299D01*
D02*
G37*
G36*
X130963Y205610D02*
X130454D01*
X129984Y205415D01*
X129624Y205055D01*
X129429Y204585D01*
Y204076D01*
X129624Y203606D01*
X129984Y203246D01*
X130454Y203051D01*
X130963D01*
X131433Y203246D01*
X131793Y203606D01*
X131988Y204076D01*
Y204585D01*
X131793Y205055D01*
X131433Y205415D01*
X130963Y205610D01*
D02*
G37*
G36*
X90354Y203918D02*
Y200591D01*
X93681D01*
X93432Y201520D01*
X92914Y202417D01*
X92181Y203150D01*
X91283Y203669D01*
X90354Y203918D01*
D02*
G37*
G36*
X89173D02*
X88244Y203669D01*
X87346Y203150D01*
X86613Y202417D01*
X86095Y201520D01*
X85846Y200591D01*
X89173D01*
Y203918D01*
D02*
G37*
G36*
X524191Y206024D02*
X523211D01*
X522265Y205770D01*
X521416Y205280D01*
X520724Y204588D01*
X520234Y203739D01*
X519980Y202793D01*
Y201813D01*
X520234Y200867D01*
X520724Y200019D01*
X521416Y199326D01*
X522265Y198836D01*
X523211Y198583D01*
X524191D01*
X525137Y198836D01*
X525985Y199326D01*
X526678Y200019D01*
X527168Y200867D01*
X527421Y201813D01*
Y202793D01*
X527168Y203739D01*
X526678Y204588D01*
X525985Y205280D01*
X525137Y205770D01*
X524191Y206024D01*
D02*
G37*
G36*
X139428Y200593D02*
X138919D01*
X138448Y200398D01*
X138089Y200038D01*
X137894Y199568D01*
Y199059D01*
X138089Y198589D01*
X138448Y198229D01*
X138919Y198034D01*
X139428D01*
X139898Y198229D01*
X140258Y198589D01*
X140453Y199059D01*
Y199568D01*
X140258Y200038D01*
X139898Y200398D01*
X139428Y200593D01*
D02*
G37*
G36*
X237205Y204527D02*
X230512D01*
Y197835D01*
X237205D01*
Y204527D01*
D02*
G37*
G36*
X-30454Y199705D02*
X-30963D01*
X-31433Y199510D01*
X-31793Y199150D01*
X-31988Y198680D01*
Y198171D01*
X-31793Y197700D01*
X-31433Y197341D01*
X-30963Y197146D01*
X-30454D01*
X-29984Y197341D01*
X-29624Y197700D01*
X-29429Y198171D01*
Y198680D01*
X-29624Y199150D01*
X-29984Y199510D01*
X-30454Y199705D01*
D02*
G37*
G36*
X125254Y199508D02*
X124746D01*
X124275Y199313D01*
X123915Y198953D01*
X123721Y198483D01*
Y197974D01*
X123915Y197503D01*
X124275Y197144D01*
X124746Y196949D01*
X125254D01*
X125725Y197144D01*
X126085Y197503D01*
X126279Y197974D01*
Y198483D01*
X126085Y198953D01*
X125725Y199313D01*
X125254Y199508D01*
D02*
G37*
G36*
X100204Y203346D02*
X99323D01*
X98472Y203118D01*
X97709Y202678D01*
X97086Y202055D01*
X96645Y201292D01*
X96417Y200441D01*
Y199559D01*
X96645Y198708D01*
X97086Y197945D01*
X97709Y197322D01*
X98472Y196882D01*
X99323Y196653D01*
X100204D01*
X101056Y196882D01*
X101819Y197322D01*
X102442Y197945D01*
X102882Y198708D01*
X103110Y199559D01*
Y200441D01*
X102882Y201292D01*
X102442Y202055D01*
X101819Y202678D01*
X101056Y203118D01*
X100204Y203346D01*
D02*
G37*
G36*
X93681Y199409D02*
X90354D01*
Y196082D01*
X91283Y196331D01*
X92181Y196850D01*
X92914Y197583D01*
X93432Y198480D01*
X93681Y199409D01*
D02*
G37*
G36*
X89173D02*
X85846D01*
X86095Y198480D01*
X86613Y197583D01*
X87346Y196850D01*
X88244Y196331D01*
X89173Y196082D01*
Y199409D01*
D02*
G37*
G36*
X180067Y197343D02*
X179558D01*
X179088Y197148D01*
X178728Y196788D01*
X178533Y196318D01*
Y195808D01*
X178728Y195338D01*
X179088Y194978D01*
X179558Y194783D01*
X180067D01*
X180538Y194978D01*
X180898Y195338D01*
X181092Y195808D01*
Y196318D01*
X180898Y196788D01*
X180538Y197148D01*
X180067Y197343D01*
D02*
G37*
G36*
X126632Y196161D02*
X126123D01*
X125653Y195967D01*
X125293Y195607D01*
X125098Y195136D01*
Y194627D01*
X125293Y194157D01*
X125653Y193797D01*
X126123Y193602D01*
X126632D01*
X127103Y193797D01*
X127463Y194157D01*
X127657Y194627D01*
Y195136D01*
X127463Y195607D01*
X127103Y195967D01*
X126632Y196161D01*
D02*
G37*
G36*
X513010Y200571D02*
X512030D01*
X511084Y200317D01*
X510235Y199828D01*
X509543Y199135D01*
X509053Y198286D01*
X508799Y197340D01*
Y196361D01*
X509053Y195414D01*
X509543Y194566D01*
X510235Y193873D01*
X511084Y193384D01*
X512030Y193130D01*
X513010D01*
X513956Y193384D01*
X514804Y193873D01*
X515497Y194566D01*
X515987Y195414D01*
X516240Y196361D01*
Y197340D01*
X515987Y198286D01*
X515497Y199135D01*
X514804Y199828D01*
X513956Y200317D01*
X513010Y200571D01*
D02*
G37*
G36*
X30569Y194587D02*
X30060D01*
X29590Y194392D01*
X29230Y194032D01*
X29035Y193562D01*
Y193053D01*
X29230Y192582D01*
X29590Y192222D01*
X30060Y192028D01*
X30569D01*
X31040Y192222D01*
X31400Y192582D01*
X31594Y193053D01*
Y193562D01*
X31400Y194032D01*
X31040Y194392D01*
X30569Y194587D01*
D02*
G37*
G36*
X26632D02*
X26123D01*
X25653Y194392D01*
X25293Y194032D01*
X25098Y193562D01*
Y193053D01*
X25293Y192582D01*
X25653Y192222D01*
X26123Y192028D01*
X26632D01*
X27103Y192222D01*
X27463Y192582D01*
X27657Y193053D01*
Y193562D01*
X27463Y194032D01*
X27103Y194392D01*
X26632Y194587D01*
D02*
G37*
G36*
X22695D02*
X22186D01*
X21716Y194392D01*
X21356Y194032D01*
X21161Y193562D01*
Y193053D01*
X21356Y192582D01*
X21716Y192222D01*
X22186Y192028D01*
X22695D01*
X23166Y192222D01*
X23526Y192582D01*
X23720Y193053D01*
Y193562D01*
X23526Y194032D01*
X23166Y194392D01*
X22695Y194587D01*
D02*
G37*
G36*
X116003Y191839D02*
X115494D01*
X115023Y191644D01*
X114663Y191284D01*
X114469Y190814D01*
Y190305D01*
X114663Y189834D01*
X115023Y189474D01*
X115494Y189279D01*
X116003D01*
X116473Y189474D01*
X116833Y189834D01*
X117027Y190305D01*
Y190814D01*
X116833Y191284D01*
X116473Y191644D01*
X116003Y191839D01*
D02*
G37*
G36*
X409310Y190650D02*
X408801D01*
X408330Y190455D01*
X407970Y190095D01*
X407776Y189625D01*
Y189116D01*
X407970Y188645D01*
X408330Y188285D01*
X408801Y188091D01*
X409310D01*
X409780Y188285D01*
X410140Y188645D01*
X410335Y189116D01*
Y189625D01*
X410140Y190095D01*
X409780Y190455D01*
X409310Y190650D01*
D02*
G37*
G36*
X495472Y194685D02*
X488779D01*
Y187992D01*
X495472D01*
Y194685D01*
D02*
G37*
G36*
X299467Y190256D02*
X298958D01*
X298488Y190061D01*
X298128Y189701D01*
X297933Y189231D01*
Y188722D01*
X298128Y188252D01*
X298488Y187892D01*
X298958Y187697D01*
X299467D01*
X299937Y187892D01*
X300297Y188252D01*
X300492Y188722D01*
Y189231D01*
X300297Y189701D01*
X299937Y190061D01*
X299467Y190256D01*
D02*
G37*
G36*
X524191Y195118D02*
X523211D01*
X522265Y194865D01*
X521416Y194375D01*
X520724Y193682D01*
X520234Y192834D01*
X519980Y191887D01*
Y190908D01*
X520234Y189962D01*
X520724Y189113D01*
X521416Y188420D01*
X522265Y187931D01*
X523211Y187677D01*
X524191D01*
X525137Y187931D01*
X525985Y188420D01*
X526678Y189113D01*
X527168Y189962D01*
X527421Y190908D01*
Y191887D01*
X527168Y192834D01*
X526678Y193682D01*
X525985Y194375D01*
X525137Y194865D01*
X524191Y195118D01*
D02*
G37*
G36*
X332341Y187697D02*
X331832D01*
X331362Y187502D01*
X331002Y187142D01*
X330807Y186672D01*
Y186163D01*
X331002Y185693D01*
X331362Y185333D01*
X331832Y185138D01*
X332341D01*
X332811Y185333D01*
X333171Y185693D01*
X333366Y186163D01*
Y186672D01*
X333171Y187142D01*
X332811Y187502D01*
X332341Y187697D01*
D02*
G37*
G36*
X149467Y187106D02*
X148958D01*
X148488Y186911D01*
X148128Y186552D01*
X147933Y186081D01*
Y185572D01*
X148128Y185102D01*
X148488Y184742D01*
X148958Y184547D01*
X149467D01*
X149937Y184742D01*
X150297Y185102D01*
X150492Y185572D01*
Y186081D01*
X150297Y186552D01*
X149937Y186911D01*
X149467Y187106D01*
D02*
G37*
G36*
X181847Y190319D02*
X181338D01*
X180868Y190124D01*
X180508Y189764D01*
X180313Y189294D01*
Y188785D01*
X180508Y188314D01*
X180868Y187954D01*
X180976Y187909D01*
X181069Y187445D01*
X180942Y187318D01*
X180747Y186848D01*
Y186339D01*
X180942Y185869D01*
X181302Y185509D01*
X181487Y185432D01*
X181714Y184950D01*
X181693Y184900D01*
Y184391D01*
X181888Y183921D01*
X182248Y183561D01*
X182718Y183366D01*
X183227D01*
X183697Y183561D01*
X184057Y183921D01*
X184252Y184391D01*
Y184900D01*
X184057Y185371D01*
X183697Y185730D01*
X183512Y185807D01*
X183285Y186289D01*
X183306Y186339D01*
Y186848D01*
X183112Y187318D01*
X182752Y187678D01*
X182643Y187723D01*
X182551Y188188D01*
X182677Y188314D01*
X182872Y188785D01*
Y189294D01*
X182677Y189764D01*
X182317Y190124D01*
X181847Y190319D01*
D02*
G37*
G36*
X419546Y185866D02*
X419037D01*
X418567Y185671D01*
X418207Y185311D01*
X418012Y184841D01*
Y184332D01*
X418207Y183862D01*
X418567Y183502D01*
X419037Y183307D01*
X419546D01*
X420016Y183502D01*
X420376Y183862D01*
X420571Y184332D01*
Y184841D01*
X420376Y185311D01*
X420016Y185671D01*
X419546Y185866D01*
D02*
G37*
G36*
X356554Y185531D02*
X356045D01*
X355574Y185337D01*
X355215Y184977D01*
X355020Y184506D01*
Y183997D01*
X355215Y183527D01*
X355574Y183167D01*
X356045Y182973D01*
X356554D01*
X357024Y183167D01*
X357384Y183527D01*
X357579Y183997D01*
Y184506D01*
X357384Y184977D01*
X357024Y185337D01*
X356554Y185531D01*
D02*
G37*
G36*
X160067Y187873D02*
X159558D01*
X159087Y187678D01*
X158727Y187318D01*
X158533Y186848D01*
Y186339D01*
X158727Y185869D01*
X158913Y185683D01*
X159029Y185397D01*
X158912Y185169D01*
X158701Y184958D01*
X158507Y184488D01*
Y183979D01*
X158701Y183509D01*
X159061Y183149D01*
X159532Y182954D01*
X160041D01*
X160511Y183149D01*
X160871Y183509D01*
X161066Y183979D01*
Y184488D01*
X160871Y184958D01*
X160685Y185144D01*
X160569Y185431D01*
X160686Y185658D01*
X160897Y185869D01*
X161092Y186339D01*
Y186848D01*
X160897Y187318D01*
X160537Y187678D01*
X160067Y187873D01*
D02*
G37*
G36*
X372459Y185374D02*
X371950D01*
X371480Y185179D01*
X371120Y184819D01*
X370925Y184349D01*
Y183840D01*
X371120Y183370D01*
X371480Y183010D01*
X371950Y182815D01*
X372459D01*
X372930Y183010D01*
X373289Y183370D01*
X373484Y183840D01*
Y184349D01*
X373289Y184819D01*
X372930Y185179D01*
X372459Y185374D01*
D02*
G37*
G36*
X153010Y185138D02*
X152501D01*
X152031Y184943D01*
X151671Y184583D01*
X151476Y184113D01*
Y183604D01*
X151671Y183133D01*
X152031Y182773D01*
X152501Y182579D01*
X153010D01*
X153481Y182773D01*
X153841Y183133D01*
X154035Y183604D01*
Y184113D01*
X153841Y184583D01*
X153481Y184943D01*
X153010Y185138D01*
D02*
G37*
G36*
X513010Y189665D02*
X512030D01*
X511084Y189412D01*
X510235Y188922D01*
X509543Y188229D01*
X509053Y187381D01*
X508799Y186435D01*
Y185455D01*
X509053Y184509D01*
X509543Y183660D01*
X510235Y182968D01*
X511084Y182478D01*
X512030Y182224D01*
X513010D01*
X513956Y182478D01*
X514804Y182968D01*
X515497Y183660D01*
X515987Y184509D01*
X516240Y185455D01*
Y186435D01*
X515987Y187381D01*
X515497Y188229D01*
X514804Y188922D01*
X513956Y189412D01*
X513010Y189665D01*
D02*
G37*
G36*
X179388Y183169D02*
X178879D01*
X178409Y182975D01*
X178049Y182615D01*
X177854Y182144D01*
Y181635D01*
X178049Y181165D01*
X178409Y180805D01*
X178879Y180610D01*
X179388D01*
X179859Y180805D01*
X180219Y181165D01*
X180413Y181635D01*
Y182144D01*
X180219Y182615D01*
X179859Y182975D01*
X179388Y183169D01*
D02*
G37*
G36*
X286927Y182283D02*
X286301D01*
X285722Y182044D01*
X285279Y181601D01*
X285039Y181022D01*
Y180395D01*
X285279Y179817D01*
X285722Y179374D01*
X286301Y179134D01*
X286927D01*
X287506Y179374D01*
X287949Y179817D01*
X288189Y180395D01*
Y181022D01*
X287949Y181601D01*
X287506Y182044D01*
X286927Y182283D01*
D02*
G37*
G36*
X280235D02*
X279608D01*
X279029Y182044D01*
X278586Y181601D01*
X278346Y181022D01*
Y180395D01*
X278586Y179817D01*
X279029Y179374D01*
X279608Y179134D01*
X280235D01*
X280813Y179374D01*
X281256Y179817D01*
X281496Y180395D01*
Y181022D01*
X281256Y181601D01*
X280813Y182044D01*
X280235Y182283D01*
D02*
G37*
G36*
X144644Y180668D02*
X144135D01*
X143665Y180473D01*
X143305Y180113D01*
X143110Y179643D01*
Y179134D01*
X143305Y178664D01*
X143665Y178304D01*
X144135Y178109D01*
X144644D01*
X145115Y178304D01*
X145475Y178664D01*
X145669Y179134D01*
Y179643D01*
X145475Y180113D01*
X145115Y180473D01*
X144644Y180668D01*
D02*
G37*
G36*
X492567Y184685D02*
X491685D01*
X490834Y184457D01*
X490071Y184016D01*
X489448Y183393D01*
X489008Y182630D01*
X488779Y181779D01*
Y180898D01*
X489008Y180047D01*
X489448Y179284D01*
X490071Y178661D01*
X490834Y178220D01*
X491685Y177992D01*
X492567D01*
X493418Y178220D01*
X494181Y178661D01*
X494804Y179284D01*
X495244Y180047D01*
X495472Y180898D01*
Y181779D01*
X495244Y182630D01*
X494804Y183393D01*
X494181Y184016D01*
X493418Y184457D01*
X492567Y184685D01*
D02*
G37*
G36*
X-37088Y181102D02*
X-37715D01*
X-38294Y180863D01*
X-38737Y180420D01*
X-38976Y179841D01*
Y179214D01*
X-38737Y178636D01*
X-38294Y178192D01*
X-37715Y177953D01*
X-37088D01*
X-36509Y178192D01*
X-36066Y178636D01*
X-35827Y179214D01*
Y179841D01*
X-36066Y180420D01*
X-36509Y180863D01*
X-37088Y181102D01*
D02*
G37*
G36*
X377420Y180413D02*
X376911D01*
X376441Y180219D01*
X376081Y179859D01*
X375886Y179388D01*
Y178879D01*
X376081Y178409D01*
X376441Y178049D01*
X376911Y177854D01*
X377420D01*
X377890Y178049D01*
X378250Y178409D01*
X378445Y178879D01*
Y179388D01*
X378250Y179859D01*
X377890Y180219D01*
X377420Y180413D01*
D02*
G37*
G36*
X351575Y179437D02*
X351066D01*
X350595Y179242D01*
X350236Y178882D01*
X350041Y178412D01*
Y177903D01*
X350236Y177433D01*
X350595Y177073D01*
X351066Y176878D01*
X351575D01*
X352045Y177073D01*
X352405Y177433D01*
X352600Y177903D01*
Y178412D01*
X352405Y178882D01*
X352045Y179242D01*
X351575Y179437D01*
D02*
G37*
G36*
X524191Y184213D02*
X523211D01*
X522265Y183959D01*
X521416Y183469D01*
X520724Y182776D01*
X520234Y181928D01*
X519980Y180982D01*
Y180002D01*
X520234Y179056D01*
X520724Y178208D01*
X521416Y177515D01*
X522265Y177025D01*
X523211Y176772D01*
X524191D01*
X525137Y177025D01*
X525985Y177515D01*
X526678Y178208D01*
X527168Y179056D01*
X527421Y180002D01*
Y180982D01*
X527168Y181928D01*
X526678Y182776D01*
X525985Y183469D01*
X525137Y183959D01*
X524191Y184213D01*
D02*
G37*
G36*
X339142Y178886D02*
X338633D01*
X338163Y178691D01*
X337803Y178331D01*
X337608Y177861D01*
Y177352D01*
X337803Y176882D01*
X338163Y176522D01*
X338633Y176327D01*
X339142D01*
X339613Y176522D01*
X339973Y176882D01*
X340167Y177352D01*
Y177861D01*
X339973Y178331D01*
X339613Y178691D01*
X339142Y178886D01*
D02*
G37*
G36*
X409310Y178839D02*
X408801D01*
X408330Y178644D01*
X407970Y178284D01*
X407776Y177814D01*
Y177304D01*
X407970Y176834D01*
X408330Y176474D01*
X408801Y176279D01*
X409310D01*
X409780Y176474D01*
X410140Y176834D01*
X410335Y177304D01*
Y177814D01*
X410140Y178284D01*
X409780Y178644D01*
X409310Y178839D01*
D02*
G37*
G36*
X311278Y178051D02*
X310769D01*
X310299Y177856D01*
X309939Y177496D01*
X309744Y177026D01*
Y176517D01*
X309939Y176047D01*
X310299Y175687D01*
X310769Y175492D01*
X311278D01*
X311748Y175687D01*
X312108Y176047D01*
X312303Y176517D01*
Y177026D01*
X312108Y177496D01*
X311748Y177856D01*
X311278Y178051D01*
D02*
G37*
G36*
X147105D02*
X146596D01*
X146126Y177856D01*
X145766Y177496D01*
X145571Y177026D01*
Y176517D01*
X145766Y176047D01*
X146126Y175687D01*
X146596Y175492D01*
X147105D01*
X147575Y175687D01*
X147935Y176047D01*
X148130Y176517D01*
Y177026D01*
X147935Y177496D01*
X147575Y177856D01*
X147105Y178051D01*
D02*
G37*
G36*
X354585Y177657D02*
X354076D01*
X353606Y177463D01*
X353246Y177103D01*
X353051Y176632D01*
Y176123D01*
X353246Y175653D01*
X353606Y175293D01*
X354076Y175098D01*
X354585D01*
X355055Y175293D01*
X355415Y175653D01*
X355610Y176123D01*
Y176632D01*
X355415Y177103D01*
X355055Y177463D01*
X354585Y177657D01*
D02*
G37*
G36*
X-37088Y174803D02*
X-37715D01*
X-38294Y174563D01*
X-38737Y174120D01*
X-38976Y173542D01*
Y172915D01*
X-38737Y172336D01*
X-38294Y171893D01*
X-37715Y171653D01*
X-37088D01*
X-36509Y171893D01*
X-36066Y172336D01*
X-35827Y172915D01*
Y173542D01*
X-36066Y174120D01*
X-36509Y174563D01*
X-37088Y174803D01*
D02*
G37*
G36*
X513010Y178760D02*
X512030D01*
X511084Y178506D01*
X510235Y178016D01*
X509543Y177324D01*
X509053Y176475D01*
X508799Y175529D01*
Y174550D01*
X509053Y173603D01*
X509543Y172755D01*
X510235Y172062D01*
X511084Y171572D01*
X512030Y171319D01*
X513010D01*
X513956Y171572D01*
X514804Y172062D01*
X515497Y172755D01*
X515987Y173603D01*
X516240Y174550D01*
Y175529D01*
X515987Y176475D01*
X515497Y177324D01*
X514804Y178016D01*
X513956Y178506D01*
X513010Y178760D01*
D02*
G37*
G36*
X401829Y172146D02*
X401320D01*
X400850Y171951D01*
X400490Y171591D01*
X400295Y171121D01*
Y170612D01*
X400490Y170141D01*
X400850Y169781D01*
X401320Y169587D01*
X401829D01*
X402300Y169781D01*
X402660Y170141D01*
X402854Y170612D01*
Y171121D01*
X402660Y171591D01*
X402300Y171951D01*
X401829Y172146D01*
D02*
G37*
G36*
X178995Y170177D02*
X178486D01*
X178015Y169982D01*
X177655Y169622D01*
X177461Y169152D01*
Y168643D01*
X177655Y168173D01*
X178015Y167813D01*
X178486Y167618D01*
X178995D01*
X179465Y167813D01*
X179825Y168173D01*
X180020Y168643D01*
Y169152D01*
X179825Y169622D01*
X179465Y169982D01*
X178995Y170177D01*
D02*
G37*
G36*
X-37088Y168504D02*
X-37715D01*
X-38294Y168264D01*
X-38737Y167821D01*
X-38976Y167242D01*
Y166616D01*
X-38737Y166037D01*
X-38294Y165594D01*
X-37715Y165354D01*
X-37088D01*
X-36509Y165594D01*
X-36066Y166037D01*
X-35827Y166616D01*
Y167242D01*
X-36066Y167821D01*
X-36509Y168264D01*
X-37088Y168504D01*
D02*
G37*
G36*
X153404Y167815D02*
X152895D01*
X152425Y167620D01*
X152065Y167260D01*
X151870Y166790D01*
Y166281D01*
X152065Y165811D01*
X152425Y165451D01*
X152895Y165256D01*
X153404D01*
X153874Y165451D01*
X154234Y165811D01*
X154429Y166281D01*
Y166790D01*
X154234Y167260D01*
X153874Y167620D01*
X153404Y167815D01*
D02*
G37*
G36*
X262124Y168110D02*
X261498D01*
X260919Y167870D01*
X260476Y167428D01*
X260236Y166849D01*
Y166222D01*
X260476Y165643D01*
X260919Y165200D01*
X261498Y164961D01*
X262124D01*
X262703Y165200D01*
X263146Y165643D01*
X263386Y166222D01*
Y166849D01*
X263146Y167428D01*
X262703Y167870D01*
X262124Y168110D01*
D02*
G37*
G36*
X416849Y166929D02*
X416222D01*
X415643Y166689D01*
X415200Y166246D01*
X414961Y165668D01*
Y165041D01*
X415200Y164462D01*
X415643Y164019D01*
X416222Y163779D01*
X416849D01*
X417427Y164019D01*
X417871Y164462D01*
X418110Y165041D01*
Y165668D01*
X417871Y166246D01*
X417427Y166689D01*
X416849Y166929D01*
D02*
G37*
G36*
X478601Y165847D02*
X478092D01*
X477622Y165652D01*
X477262Y165292D01*
X477067Y164821D01*
Y164312D01*
X477262Y163842D01*
X477622Y163482D01*
X478092Y163287D01*
X478601D01*
X479071Y163482D01*
X479431Y163842D01*
X479626Y164312D01*
Y164821D01*
X479431Y165292D01*
X479071Y165652D01*
X478601Y165847D01*
D02*
G37*
G36*
X279782Y164272D02*
X279273D01*
X278803Y164077D01*
X278443Y163717D01*
X278248Y163247D01*
Y162738D01*
X278443Y162267D01*
X278803Y161907D01*
X279273Y161713D01*
X279782D01*
X280252Y161907D01*
X280612Y162267D01*
X280807Y162738D01*
Y163247D01*
X280612Y163717D01*
X280252Y164077D01*
X279782Y164272D01*
D02*
G37*
G36*
X-38269Y162205D02*
X-38896D01*
X-39475Y161965D01*
X-39918Y161522D01*
X-40157Y160943D01*
Y160317D01*
X-39918Y159738D01*
X-39475Y159295D01*
X-38896Y159055D01*
X-38269D01*
X-37691Y159295D01*
X-37248Y159738D01*
X-37008Y160317D01*
Y160943D01*
X-37248Y161522D01*
X-37691Y161965D01*
X-38269Y162205D01*
D02*
G37*
G36*
X255806Y161555D02*
X255297D01*
X254826Y161360D01*
X254466Y161000D01*
X254272Y160530D01*
Y160021D01*
X254466Y159551D01*
X254826Y159191D01*
X255297Y158996D01*
X255806D01*
X256276Y159191D01*
X256636Y159551D01*
X256831Y160021D01*
Y160530D01*
X256636Y161000D01*
X256276Y161360D01*
X255806Y161555D01*
D02*
G37*
G36*
X478995Y157579D02*
X478486D01*
X478015Y157384D01*
X477655Y157024D01*
X477461Y156554D01*
Y156045D01*
X477655Y155574D01*
X478015Y155215D01*
X478486Y155020D01*
X478995D01*
X479465Y155215D01*
X479825Y155574D01*
X480020Y156045D01*
Y156554D01*
X479825Y157024D01*
X479465Y157384D01*
X478995Y157579D01*
D02*
G37*
G36*
X165215Y156398D02*
X164706D01*
X164236Y156203D01*
X163876Y155843D01*
X163681Y155373D01*
Y154864D01*
X163876Y154393D01*
X164236Y154033D01*
X164706Y153839D01*
X165215D01*
X165685Y154033D01*
X166045Y154393D01*
X166240Y154864D01*
Y155373D01*
X166045Y155843D01*
X165685Y156203D01*
X165215Y156398D01*
D02*
G37*
G36*
X-39057Y155905D02*
X-39683D01*
X-40262Y155666D01*
X-40705Y155223D01*
X-40945Y154644D01*
Y154017D01*
X-40705Y153439D01*
X-40262Y152996D01*
X-39683Y152756D01*
X-39057D01*
X-38478Y152996D01*
X-38035Y153439D01*
X-37795Y154017D01*
Y154644D01*
X-38035Y155223D01*
X-38478Y155666D01*
X-39057Y155905D01*
D02*
G37*
G36*
X478601Y149705D02*
X478092D01*
X477622Y149510D01*
X477262Y149150D01*
X477067Y148680D01*
Y148171D01*
X477262Y147700D01*
X477622Y147341D01*
X478092Y147146D01*
X478601D01*
X479071Y147341D01*
X479431Y147700D01*
X479626Y148171D01*
Y148680D01*
X479431Y149150D01*
X479071Y149510D01*
X478601Y149705D01*
D02*
G37*
G36*
X316339Y153740D02*
X309646D01*
Y147047D01*
X316339D01*
Y153740D01*
D02*
G37*
G36*
X303433D02*
X302552D01*
X301700Y153512D01*
X300937Y153071D01*
X300314Y152448D01*
X299874Y151685D01*
X299646Y150834D01*
Y149953D01*
X299874Y149102D01*
X300314Y148339D01*
X300937Y147716D01*
X301700Y147275D01*
X302552Y147047D01*
X303433D01*
X304284Y147275D01*
X305047Y147716D01*
X305670Y148339D01*
X306111Y149102D01*
X306339Y149953D01*
Y150834D01*
X306111Y151685D01*
X305670Y152448D01*
X305047Y153071D01*
X304284Y153512D01*
X303433Y153740D01*
D02*
G37*
G36*
X151228Y149803D02*
X150347D01*
X149496Y149575D01*
X148733Y149135D01*
X148110Y148512D01*
X147669Y147748D01*
X147441Y146897D01*
Y146016D01*
X147669Y145165D01*
X148110Y144402D01*
X148733Y143779D01*
X149496Y143338D01*
X150347Y143110D01*
X151228D01*
X152079Y143338D01*
X152842Y143779D01*
X153465Y144402D01*
X153906Y145165D01*
X154134Y146016D01*
Y146897D01*
X153906Y147748D01*
X153465Y148512D01*
X152842Y149135D01*
X152079Y149575D01*
X151228Y149803D01*
D02*
G37*
G36*
X144134D02*
X137441D01*
Y143110D01*
X144134D01*
Y149803D01*
D02*
G37*
G36*
X303583Y144311D02*
Y140984D01*
X306910D01*
X306661Y141913D01*
X306142Y142811D01*
X305410Y143544D01*
X304512Y144062D01*
X303583Y144311D01*
D02*
G37*
G36*
X313583D02*
Y140984D01*
X316910D01*
X316661Y141913D01*
X316143Y142811D01*
X315409Y143544D01*
X314512Y144062D01*
X313583Y144311D01*
D02*
G37*
G36*
X302402Y144311D02*
X301472Y144062D01*
X300575Y143544D01*
X299842Y142811D01*
X299323Y141913D01*
X299075Y140984D01*
X302402D01*
Y144311D01*
D02*
G37*
G36*
X312402D02*
X311473Y144062D01*
X310575Y143544D01*
X309842Y142811D01*
X309323Y141913D01*
X309074Y140984D01*
X312402D01*
Y144311D01*
D02*
G37*
G36*
X478995Y141437D02*
X478486D01*
X478015Y141242D01*
X477655Y140882D01*
X477461Y140412D01*
Y139903D01*
X477655Y139433D01*
X478015Y139073D01*
X478486Y138878D01*
X478995D01*
X479465Y139073D01*
X479825Y139433D01*
X480020Y139903D01*
Y140412D01*
X479825Y140882D01*
X479465Y141242D01*
X478995Y141437D01*
D02*
G37*
G36*
X519072Y157421D02*
X517149D01*
X515262Y157046D01*
X513485Y156310D01*
X511886Y155242D01*
X510526Y153882D01*
X509458Y152282D01*
X508722Y150505D01*
X508347Y148619D01*
Y146696D01*
X508722Y144809D01*
X509458Y143033D01*
X510526Y141433D01*
X511886Y140074D01*
X513485Y139005D01*
X515262Y138269D01*
X517149Y137894D01*
X519072D01*
X520958Y138269D01*
X522735Y139005D01*
X524334Y140074D01*
X525694Y141433D01*
X526763Y143033D01*
X527499Y144809D01*
X527874Y146696D01*
Y148619D01*
X527499Y150505D01*
X526763Y152282D01*
X525694Y153882D01*
X524334Y155242D01*
X522735Y156310D01*
X520958Y157046D01*
X519072Y157421D01*
D02*
G37*
G36*
X316910Y139803D02*
X313583D01*
Y136476D01*
X314512Y136725D01*
X315409Y137243D01*
X316143Y137976D01*
X316661Y138874D01*
X316910Y139803D01*
D02*
G37*
G36*
X306910D02*
X303583D01*
Y136476D01*
X304512Y136725D01*
X305410Y137243D01*
X306142Y137976D01*
X306661Y138874D01*
X306910Y139803D01*
D02*
G37*
G36*
X312402D02*
X309074D01*
X309323Y138874D01*
X309842Y137976D01*
X310575Y137243D01*
X311473Y136725D01*
X312402Y136476D01*
Y139803D01*
D02*
G37*
G36*
X302402D02*
X299075D01*
X299323Y138874D01*
X299842Y137976D01*
X300575Y137243D01*
X301472Y136725D01*
X302402Y136476D01*
Y139803D01*
D02*
G37*
G36*
X-11537Y135630D02*
X-12085D01*
X-12592Y135420D01*
X-12979Y135032D01*
X-13189Y134526D01*
Y133978D01*
X-12979Y133471D01*
X-12592Y133084D01*
X-12085Y132874D01*
X-11537D01*
X-11030Y133084D01*
X-10643Y133471D01*
X-10433Y133978D01*
Y134526D01*
X-10643Y135032D01*
X-11030Y135420D01*
X-11537Y135630D01*
D02*
G37*
G36*
X-18230Y126772D02*
X-18778D01*
X-19285Y126562D01*
X-19672Y126174D01*
X-19882Y125668D01*
Y125120D01*
X-19672Y124613D01*
X-19285Y124225D01*
X-18778Y124016D01*
X-18230D01*
X-17723Y124225D01*
X-17336Y124613D01*
X-17126Y125120D01*
Y125668D01*
X-17336Y126174D01*
X-17723Y126562D01*
X-18230Y126772D01*
D02*
G37*
G36*
X33325Y125295D02*
X32816D01*
X32346Y125101D01*
X31986Y124741D01*
X31791Y124270D01*
Y123761D01*
X31986Y123291D01*
X32346Y122931D01*
X32816Y122736D01*
X33325D01*
X33796Y122931D01*
X34156Y123291D01*
X34350Y123761D01*
Y124270D01*
X34156Y124741D01*
X33796Y125101D01*
X33325Y125295D01*
D02*
G37*
G36*
X29782D02*
X29273D01*
X28803Y125101D01*
X28443Y124741D01*
X28248Y124270D01*
Y123761D01*
X28443Y123291D01*
X28803Y122931D01*
X29273Y122736D01*
X29782D01*
X30252Y122931D01*
X30612Y123291D01*
X30807Y123761D01*
Y124270D01*
X30612Y124741D01*
X30252Y125101D01*
X29782Y125295D01*
D02*
G37*
G36*
X26239D02*
X25730D01*
X25260Y125101D01*
X24900Y124741D01*
X24705Y124270D01*
Y123761D01*
X24900Y123291D01*
X25260Y122931D01*
X25730Y122736D01*
X26239D01*
X26709Y122931D01*
X27069Y123291D01*
X27264Y123761D01*
Y124270D01*
X27069Y124741D01*
X26709Y125101D01*
X26239Y125295D01*
D02*
G37*
G36*
X71967Y124409D02*
X71340D01*
X70762Y124170D01*
X70319Y123727D01*
X70079Y123148D01*
Y122521D01*
X70319Y121943D01*
X70762Y121500D01*
X71340Y121260D01*
X71967D01*
X72546Y121500D01*
X72989Y121943D01*
X73228Y122521D01*
Y123148D01*
X72989Y123727D01*
X72546Y124170D01*
X71967Y124409D01*
D02*
G37*
G36*
X-18230Y121063D02*
X-18778D01*
X-19285Y120853D01*
X-19672Y120466D01*
X-19882Y119959D01*
Y119411D01*
X-19672Y118904D01*
X-19285Y118517D01*
X-18778Y118307D01*
X-18230D01*
X-17723Y118517D01*
X-17336Y118904D01*
X-17126Y119411D01*
Y119959D01*
X-17336Y120466D01*
X-17723Y120853D01*
X-18230Y121063D01*
D02*
G37*
G36*
X-13505Y119291D02*
X-14054D01*
X-14560Y119082D01*
X-14948Y118694D01*
X-15157Y118187D01*
Y117639D01*
X-14948Y117133D01*
X-14560Y116745D01*
X-14054Y116535D01*
X-13505D01*
X-12999Y116745D01*
X-12611Y117133D01*
X-12402Y117639D01*
Y118187D01*
X-12611Y118694D01*
X-12999Y119082D01*
X-13505Y119291D01*
D02*
G37*
G36*
X-8781Y117126D02*
X-9329D01*
X-9836Y116916D01*
X-10223Y116529D01*
X-10433Y116022D01*
Y115474D01*
X-10223Y114968D01*
X-9836Y114580D01*
X-9329Y114370D01*
X-8781D01*
X-8275Y114580D01*
X-7887Y114968D01*
X-7677Y115474D01*
Y116022D01*
X-7887Y116529D01*
X-8275Y116916D01*
X-8781Y117126D01*
D02*
G37*
G36*
X42833Y117323D02*
X42206D01*
X41628Y117083D01*
X41185Y116640D01*
X40945Y116061D01*
Y115435D01*
X41185Y114856D01*
X41628Y114413D01*
X42206Y114173D01*
X42833D01*
X43412Y114413D01*
X43855Y114856D01*
X44094Y115435D01*
Y116061D01*
X43855Y116640D01*
X43412Y117083D01*
X42833Y117323D01*
D02*
G37*
G36*
X19291Y117362D02*
X15945D01*
Y114016D01*
X19291D01*
Y117362D01*
D02*
G37*
G36*
X14764D02*
X11417D01*
Y114016D01*
X14764D01*
Y117362D01*
D02*
G37*
G36*
X-33997Y116240D02*
X-34506D01*
X-34977Y116045D01*
X-35337Y115685D01*
X-35531Y115215D01*
Y114706D01*
X-35337Y114236D01*
X-34977Y113876D01*
X-34506Y113681D01*
X-33997D01*
X-33527Y113876D01*
X-33167Y114236D01*
X-32972Y114706D01*
Y115215D01*
X-33167Y115685D01*
X-33527Y116045D01*
X-33997Y116240D01*
D02*
G37*
G36*
X469546Y113878D02*
X469037D01*
X468567Y113683D01*
X468207Y113323D01*
X468012Y112853D01*
Y112344D01*
X468207Y111874D01*
X468567Y111514D01*
X469037Y111319D01*
X469546D01*
X470016Y111514D01*
X470376Y111874D01*
X470571Y112344D01*
Y112853D01*
X470376Y113323D01*
X470016Y113683D01*
X469546Y113878D01*
D02*
G37*
G36*
X384507Y113091D02*
X383998D01*
X383527Y112896D01*
X383167Y112536D01*
X382972Y112065D01*
Y111556D01*
X383167Y111086D01*
X383527Y110726D01*
X383998Y110531D01*
X384507D01*
X384977Y110726D01*
X385337Y111086D01*
X385531Y111556D01*
Y112065D01*
X385337Y112536D01*
X384977Y112896D01*
X384507Y113091D01*
D02*
G37*
G36*
X519072Y129429D02*
X517149D01*
X515262Y129054D01*
X513485Y128318D01*
X511886Y127249D01*
X510526Y125889D01*
X509458Y124290D01*
X508722Y122513D01*
X508347Y120627D01*
Y118704D01*
X508722Y116817D01*
X509458Y115041D01*
X510526Y113441D01*
X511886Y112081D01*
X513485Y111013D01*
X515262Y110277D01*
X517149Y109902D01*
X519072D01*
X520958Y110277D01*
X522735Y111013D01*
X524334Y112081D01*
X525694Y113441D01*
X526763Y115041D01*
X527499Y116817D01*
X527874Y118704D01*
Y120627D01*
X527499Y122513D01*
X526763Y124290D01*
X525694Y125889D01*
X524334Y127249D01*
X522735Y128318D01*
X520958Y129054D01*
X519072Y129429D01*
D02*
G37*
G36*
X19291Y112835D02*
X15945D01*
Y109488D01*
X19291D01*
Y112835D01*
D02*
G37*
G36*
X14764D02*
X11417D01*
Y109488D01*
X14764D01*
Y112835D01*
D02*
G37*
G36*
X492567Y116024D02*
X491685D01*
X490834Y115796D01*
X490071Y115355D01*
X489448Y114732D01*
X489008Y113969D01*
X488779Y113118D01*
Y112237D01*
X489008Y111386D01*
X489448Y110622D01*
X490071Y109999D01*
X490834Y109559D01*
X491685Y109331D01*
X492567D01*
X493418Y109559D01*
X494181Y109999D01*
X494804Y110622D01*
X495244Y111386D01*
X495472Y112237D01*
Y113118D01*
X495244Y113969D01*
X494804Y114732D01*
X494181Y115355D01*
X493418Y115796D01*
X492567Y116024D01*
D02*
G37*
G36*
X192774Y111286D02*
X192265D01*
X191795Y111091D01*
X191435Y110731D01*
X191240Y110261D01*
Y109752D01*
X191435Y109282D01*
X191795Y108922D01*
X192265Y108727D01*
X192774D01*
X193245Y108922D01*
X193604Y109282D01*
X193799Y109752D01*
Y110261D01*
X193604Y110731D01*
X193245Y111091D01*
X192774Y111286D01*
D02*
G37*
G36*
X379388Y107972D02*
X378879D01*
X378409Y107778D01*
X378049Y107418D01*
X377854Y106947D01*
Y106438D01*
X378049Y105968D01*
X378409Y105608D01*
X378879Y105413D01*
X379388D01*
X379859Y105608D01*
X380219Y105968D01*
X380413Y106438D01*
Y106947D01*
X380219Y107418D01*
X379859Y107778D01*
X379388Y107972D01*
D02*
G37*
G36*
X153685Y107773D02*
X153176D01*
X152706Y107578D01*
X152346Y107218D01*
X152151Y106748D01*
Y106239D01*
X152346Y105768D01*
X152706Y105408D01*
X153176Y105214D01*
X153685D01*
X154156Y105408D01*
X154516Y105768D01*
X154710Y106239D01*
Y106748D01*
X154516Y107218D01*
X154156Y107578D01*
X153685Y107773D01*
D02*
G37*
G36*
X192774Y106587D02*
X192265D01*
X191795Y106392D01*
X191435Y106032D01*
X191240Y105562D01*
Y105053D01*
X191435Y104582D01*
X191795Y104222D01*
X192265Y104028D01*
X192774D01*
X193245Y104222D01*
X193604Y104582D01*
X193799Y105053D01*
Y105562D01*
X193604Y106032D01*
X193245Y106392D01*
X192774Y106587D01*
D02*
G37*
G36*
X126239Y106004D02*
X125730D01*
X125259Y105809D01*
X124899Y105449D01*
X124705Y104979D01*
Y104470D01*
X124899Y104000D01*
X125259Y103640D01*
X125730Y103445D01*
X126239D01*
X126709Y103640D01*
X127069Y104000D01*
X127264Y104470D01*
Y104979D01*
X127069Y105449D01*
X126709Y105809D01*
X126239Y106004D01*
D02*
G37*
G36*
X15795Y106772D02*
X14914D01*
X14063Y106544D01*
X13300Y106103D01*
X12676Y105480D01*
X12236Y104717D01*
X12008Y103866D01*
Y102985D01*
X12236Y102134D01*
X12676Y101370D01*
X13300Y100747D01*
X14063Y100307D01*
X14914Y100079D01*
X15795D01*
X16646Y100307D01*
X17409Y100747D01*
X18032Y101370D01*
X18473Y102134D01*
X18701Y102985D01*
Y103866D01*
X18473Y104717D01*
X18032Y105480D01*
X17409Y106103D01*
X16646Y106544D01*
X15795Y106772D01*
D02*
G37*
G36*
X492567Y106024D02*
X491685D01*
X490834Y105796D01*
X490071Y105355D01*
X489448Y104732D01*
X489008Y103969D01*
X488779Y103118D01*
Y102237D01*
X489008Y101385D01*
X489448Y100622D01*
X490071Y99999D01*
X490834Y99559D01*
X491685Y99331D01*
X492567D01*
X493418Y99559D01*
X494181Y99999D01*
X494804Y100622D01*
X495244Y101385D01*
X495472Y102237D01*
Y103118D01*
X495244Y103969D01*
X494804Y104732D01*
X494181Y105355D01*
X493418Y105796D01*
X492567Y106024D01*
D02*
G37*
G36*
X304641Y93338D02*
X304132D01*
X303661Y93143D01*
X303301Y92783D01*
X303107Y92313D01*
Y91803D01*
X303301Y91333D01*
X303661Y90973D01*
X304132Y90778D01*
X304641D01*
X305111Y90973D01*
X305471Y91333D01*
X305666Y91803D01*
Y92313D01*
X305471Y92783D01*
X305111Y93143D01*
X304641Y93338D01*
D02*
G37*
G36*
X384507Y93012D02*
X383998D01*
X383527Y92817D01*
X383167Y92457D01*
X382972Y91987D01*
Y91478D01*
X383167Y91008D01*
X383527Y90648D01*
X383998Y90453D01*
X384507D01*
X384977Y90648D01*
X385337Y91008D01*
X385531Y91478D01*
Y91987D01*
X385337Y92457D01*
X384977Y92817D01*
X384507Y93012D01*
D02*
G37*
G36*
X15795Y96772D02*
X14914D01*
X14063Y96544D01*
X13300Y96103D01*
X12676Y95480D01*
X12236Y94717D01*
X12008Y93866D01*
Y92985D01*
X12236Y92133D01*
X12676Y91370D01*
X13300Y90747D01*
X14063Y90307D01*
X14914Y90079D01*
X15795D01*
X16646Y90307D01*
X17409Y90747D01*
X18032Y91370D01*
X18473Y92133D01*
X18701Y92985D01*
Y93866D01*
X18473Y94717D01*
X18032Y95480D01*
X17409Y96103D01*
X16646Y96544D01*
X15795Y96772D01*
D02*
G37*
G36*
X138837Y92618D02*
X138328D01*
X137858Y92423D01*
X137498Y92063D01*
X137303Y91593D01*
Y91084D01*
X137498Y90614D01*
X137858Y90254D01*
X138328Y90059D01*
X138837D01*
X139307Y90254D01*
X139667Y90614D01*
X139862Y91084D01*
Y91593D01*
X139667Y92063D01*
X139307Y92423D01*
X138837Y92618D01*
D02*
G37*
G36*
X492567Y96024D02*
X491685D01*
X490834Y95796D01*
X490071Y95355D01*
X489448Y94732D01*
X489008Y93969D01*
X488779Y93118D01*
Y92237D01*
X489008Y91386D01*
X489448Y90622D01*
X490071Y89999D01*
X490834Y89559D01*
X491685Y89331D01*
X492567D01*
X493418Y89559D01*
X494181Y89999D01*
X494804Y90622D01*
X495244Y91386D01*
X495472Y92237D01*
Y93118D01*
X495244Y93969D01*
X494804Y94732D01*
X494181Y95355D01*
X493418Y95796D01*
X492567Y96024D01*
D02*
G37*
G36*
X516240Y96004D02*
X508799D01*
Y88563D01*
X516240D01*
Y96004D01*
D02*
G37*
G36*
X167971Y90650D02*
X167462D01*
X166992Y90455D01*
X166632Y90095D01*
X166437Y89625D01*
Y89116D01*
X166632Y88645D01*
X166992Y88285D01*
X167462Y88091D01*
X167971D01*
X168441Y88285D01*
X168801Y88645D01*
X168996Y89116D01*
Y89625D01*
X168801Y90095D01*
X168441Y90455D01*
X167971Y90650D01*
D02*
G37*
G36*
X150036Y89881D02*
X149527D01*
X149056Y89686D01*
X148696Y89326D01*
X148502Y88856D01*
Y88347D01*
X148696Y87877D01*
X149056Y87517D01*
X149527Y87322D01*
X150036D01*
X150506Y87517D01*
X150866Y87877D01*
X151061Y88347D01*
Y88856D01*
X150866Y89326D01*
X150506Y89686D01*
X150036Y89881D01*
D02*
G37*
G36*
X141987Y88287D02*
X141478D01*
X141007Y88093D01*
X140648Y87733D01*
X140453Y87262D01*
Y86753D01*
X140648Y86283D01*
X141007Y85923D01*
X141478Y85728D01*
X141987D01*
X142457Y85923D01*
X142817Y86283D01*
X143012Y86753D01*
Y87262D01*
X142817Y87733D01*
X142457Y88093D01*
X141987Y88287D01*
D02*
G37*
G36*
X390806Y86713D02*
X390297D01*
X389826Y86518D01*
X389466Y86158D01*
X389272Y85688D01*
Y85179D01*
X389466Y84708D01*
X389826Y84348D01*
X390297Y84153D01*
X390806D01*
X391276Y84348D01*
X391636Y84708D01*
X391831Y85179D01*
Y85688D01*
X391636Y86158D01*
X391276Y86518D01*
X390806Y86713D01*
D02*
G37*
G36*
X524191Y90551D02*
X523211D01*
X522265Y90298D01*
X521416Y89808D01*
X520724Y89115D01*
X520234Y88267D01*
X519980Y87321D01*
Y86341D01*
X520234Y85395D01*
X520724Y84546D01*
X521416Y83854D01*
X522265Y83364D01*
X523211Y83110D01*
X524191D01*
X525137Y83364D01*
X525985Y83854D01*
X526678Y84546D01*
X527168Y85395D01*
X527421Y86341D01*
Y87321D01*
X527168Y88267D01*
X526678Y89115D01*
X525985Y89808D01*
X525137Y90298D01*
X524191Y90551D01*
D02*
G37*
G36*
X134113Y84350D02*
X133604D01*
X133133Y84156D01*
X132773Y83796D01*
X132579Y83325D01*
Y82816D01*
X132773Y82346D01*
X133133Y81986D01*
X133604Y81791D01*
X134113D01*
X134583Y81986D01*
X134943Y82346D01*
X135138Y82816D01*
Y83325D01*
X134943Y83796D01*
X134583Y84156D01*
X134113Y84350D01*
D02*
G37*
G36*
X143266Y83702D02*
X142757D01*
X142287Y83507D01*
X141927Y83148D01*
X141732Y82677D01*
Y82168D01*
X141927Y81698D01*
X142287Y81338D01*
X142757Y81143D01*
X143266D01*
X143737Y81338D01*
X144097Y81698D01*
X144291Y82168D01*
Y82677D01*
X144097Y83148D01*
X143737Y83507D01*
X143266Y83702D01*
D02*
G37*
G36*
X15795Y86772D02*
X14914D01*
X14063Y86544D01*
X13300Y86103D01*
X12676Y85480D01*
X12236Y84717D01*
X12008Y83866D01*
Y82985D01*
X12236Y82134D01*
X12676Y81370D01*
X13300Y80747D01*
X14063Y80307D01*
X14914Y80079D01*
X15795D01*
X16646Y80307D01*
X17409Y80747D01*
X18032Y81370D01*
X18473Y82134D01*
X18701Y82985D01*
Y83866D01*
X18473Y84717D01*
X18032Y85480D01*
X17409Y86103D01*
X16646Y86544D01*
X15795Y86772D01*
D02*
G37*
G36*
X45983Y82677D02*
X45356D01*
X44777Y82437D01*
X44334Y81994D01*
X44094Y81416D01*
Y80789D01*
X44334Y80210D01*
X44777Y79767D01*
X45356Y79528D01*
X45983D01*
X46561Y79767D01*
X47004Y80210D01*
X47244Y80789D01*
Y81416D01*
X47004Y81994D01*
X46561Y82437D01*
X45983Y82677D01*
D02*
G37*
G36*
X495472Y86024D02*
X488779D01*
Y79331D01*
X495472D01*
Y86024D01*
D02*
G37*
G36*
X234299Y84606D02*
X233418D01*
X232567Y84378D01*
X231803Y83938D01*
X231180Y83315D01*
X230740Y82551D01*
X230512Y81700D01*
Y80819D01*
X230740Y79968D01*
X231180Y79205D01*
X231803Y78582D01*
X232567Y78141D01*
X233418Y77913D01*
X234299D01*
X235150Y78141D01*
X235913Y78582D01*
X236536Y79205D01*
X236977Y79968D01*
X237205Y80819D01*
Y81700D01*
X236977Y82551D01*
X236536Y83315D01*
X235913Y83938D01*
X235150Y84378D01*
X234299Y84606D01*
D02*
G37*
G36*
X513010Y85098D02*
X512030D01*
X511084Y84845D01*
X510235Y84355D01*
X509543Y83662D01*
X509053Y82814D01*
X508799Y81868D01*
Y80888D01*
X509053Y79942D01*
X509543Y79093D01*
X510235Y78401D01*
X511084Y77911D01*
X512030Y77658D01*
X513010D01*
X513956Y77911D01*
X514804Y78401D01*
X515497Y79093D01*
X515987Y79942D01*
X516240Y80888D01*
Y81868D01*
X515987Y82814D01*
X515497Y83662D01*
X514804Y84355D01*
X513956Y84845D01*
X513010Y85098D01*
D02*
G37*
G36*
X132442Y80116D02*
X131933D01*
X131462Y79921D01*
X131102Y79561D01*
X130908Y79091D01*
Y78582D01*
X131102Y78112D01*
X131462Y77752D01*
X131933Y77557D01*
X132442D01*
X132912Y77752D01*
X133272Y78112D01*
X133467Y78582D01*
Y79091D01*
X133272Y79561D01*
X132912Y79921D01*
X132442Y80116D01*
D02*
G37*
G36*
X103110Y83425D02*
X96417D01*
Y76732D01*
X103110D01*
Y83425D01*
D02*
G37*
G36*
X90204D02*
X89323D01*
X88472Y83197D01*
X87709Y82757D01*
X87086Y82134D01*
X86645Y81370D01*
X86417Y80519D01*
Y79638D01*
X86645Y78787D01*
X87086Y78024D01*
X87709Y77401D01*
X88472Y76960D01*
X89323Y76732D01*
X90204D01*
X91056Y76960D01*
X91819Y77401D01*
X92442Y78024D01*
X92882Y78787D01*
X93110Y79638D01*
Y80519D01*
X92882Y81370D01*
X92442Y82134D01*
X91819Y82757D01*
X91056Y83197D01*
X90204Y83425D01*
D02*
G37*
G36*
X130963Y75689D02*
X130454D01*
X129984Y75494D01*
X129624Y75134D01*
X129429Y74664D01*
Y74155D01*
X129624Y73685D01*
X129984Y73325D01*
X130454Y73130D01*
X130963D01*
X131433Y73325D01*
X131793Y73685D01*
X131988Y74155D01*
Y74664D01*
X131793Y75134D01*
X131433Y75494D01*
X130963Y75689D01*
D02*
G37*
G36*
X524191Y79646D02*
X523211D01*
X522265Y79392D01*
X521416Y78902D01*
X520724Y78210D01*
X520234Y77361D01*
X519980Y76415D01*
Y75435D01*
X520234Y74489D01*
X520724Y73641D01*
X521416Y72948D01*
X522265Y72458D01*
X523211Y72205D01*
X524191D01*
X525137Y72458D01*
X525985Y72948D01*
X526678Y73641D01*
X527168Y74489D01*
X527421Y75435D01*
Y76415D01*
X527168Y77361D01*
X526678Y78210D01*
X525985Y78902D01*
X525137Y79392D01*
X524191Y79646D01*
D02*
G37*
G36*
X90354Y73996D02*
Y70669D01*
X93681D01*
X93432Y71598D01*
X92914Y72496D01*
X92181Y73229D01*
X91283Y73747D01*
X90354Y73996D01*
D02*
G37*
G36*
X89173D02*
X88244Y73747D01*
X87346Y73229D01*
X86613Y72496D01*
X86095Y71598D01*
X85846Y70669D01*
X89173D01*
Y73996D01*
D02*
G37*
G36*
X139428Y70672D02*
X138919D01*
X138448Y70477D01*
X138089Y70117D01*
X137894Y69647D01*
Y69138D01*
X138089Y68667D01*
X138448Y68307D01*
X138919Y68113D01*
X139428D01*
X139898Y68307D01*
X140258Y68667D01*
X140453Y69138D01*
Y69647D01*
X140258Y70117D01*
X139898Y70477D01*
X139428Y70672D01*
D02*
G37*
G36*
X237205Y74606D02*
X230512D01*
Y67913D01*
X237205D01*
Y74606D01*
D02*
G37*
G36*
X125254Y69587D02*
X124746D01*
X124275Y69392D01*
X123915Y69032D01*
X123721Y68562D01*
Y68053D01*
X123915Y67582D01*
X124275Y67222D01*
X124746Y67028D01*
X125254D01*
X125725Y67222D01*
X126085Y67582D01*
X126279Y68053D01*
Y68562D01*
X126085Y69032D01*
X125725Y69392D01*
X125254Y69587D01*
D02*
G37*
G36*
X513010Y74193D02*
X512030D01*
X511084Y73939D01*
X510235Y73450D01*
X509543Y72757D01*
X509053Y71908D01*
X508799Y70962D01*
Y69983D01*
X509053Y69036D01*
X509543Y68188D01*
X510235Y67495D01*
X511084Y67005D01*
X512030Y66752D01*
X513010D01*
X513956Y67005D01*
X514804Y67495D01*
X515497Y68188D01*
X515987Y69036D01*
X516240Y69983D01*
Y70962D01*
X515987Y71908D01*
X515497Y72757D01*
X514804Y73450D01*
X513956Y73939D01*
X513010Y74193D01*
D02*
G37*
G36*
X100204Y73425D02*
X99323D01*
X98472Y73197D01*
X97709Y72757D01*
X97086Y72133D01*
X96645Y71370D01*
X96417Y70519D01*
Y69638D01*
X96645Y68787D01*
X97086Y68024D01*
X97709Y67401D01*
X98472Y66960D01*
X99323Y66732D01*
X100204D01*
X101056Y66960D01*
X101819Y67401D01*
X102442Y68024D01*
X102882Y68787D01*
X103110Y69638D01*
Y70519D01*
X102882Y71370D01*
X102442Y72133D01*
X101819Y72757D01*
X101056Y73197D01*
X100204Y73425D01*
D02*
G37*
G36*
X93681Y69488D02*
X90354D01*
Y66161D01*
X91283Y66410D01*
X92181Y66928D01*
X92914Y67661D01*
X93432Y68559D01*
X93681Y69488D01*
D02*
G37*
G36*
X89173D02*
X85846D01*
X86095Y68559D01*
X86613Y67661D01*
X87346Y66928D01*
X88244Y66410D01*
X89173Y66161D01*
Y69488D01*
D02*
G37*
G36*
X180067Y67421D02*
X179558D01*
X179088Y67226D01*
X178728Y66866D01*
X178533Y66396D01*
Y65887D01*
X178728Y65417D01*
X179088Y65057D01*
X179558Y64862D01*
X180067D01*
X180538Y65057D01*
X180898Y65417D01*
X181092Y65887D01*
Y66396D01*
X180898Y66866D01*
X180538Y67226D01*
X180067Y67421D01*
D02*
G37*
G36*
X126632Y66240D02*
X126123D01*
X125653Y66045D01*
X125293Y65685D01*
X125098Y65215D01*
Y64706D01*
X125293Y64236D01*
X125653Y63876D01*
X126123Y63681D01*
X126632D01*
X127103Y63876D01*
X127463Y64236D01*
X127657Y64706D01*
Y65215D01*
X127463Y65685D01*
X127103Y66045D01*
X126632Y66240D01*
D02*
G37*
G36*
X524191Y68740D02*
X523211D01*
X522265Y68487D01*
X521416Y67997D01*
X520724Y67304D01*
X520234Y66456D01*
X519980Y65509D01*
Y64530D01*
X520234Y63584D01*
X520724Y62735D01*
X521416Y62043D01*
X522265Y61553D01*
X523211Y61299D01*
X524191D01*
X525137Y61553D01*
X525985Y62043D01*
X526678Y62735D01*
X527168Y63584D01*
X527421Y64530D01*
Y65509D01*
X527168Y66456D01*
X526678Y67304D01*
X525985Y67997D01*
X525137Y68487D01*
X524191Y68740D01*
D02*
G37*
G36*
X114034Y61909D02*
X113525D01*
X113055Y61715D01*
X112695Y61355D01*
X112500Y60884D01*
Y60375D01*
X112695Y59905D01*
X113055Y59545D01*
X113525Y59350D01*
X114034D01*
X114504Y59545D01*
X114864Y59905D01*
X115059Y60375D01*
Y60884D01*
X114864Y61355D01*
X114504Y61715D01*
X114034Y61909D01*
D02*
G37*
G36*
X409310Y60728D02*
X408801D01*
X408330Y60534D01*
X407970Y60174D01*
X407776Y59703D01*
Y59194D01*
X407970Y58724D01*
X408330Y58364D01*
X408801Y58169D01*
X409310D01*
X409780Y58364D01*
X410140Y58724D01*
X410335Y59194D01*
Y59703D01*
X410140Y60174D01*
X409780Y60534D01*
X409310Y60728D01*
D02*
G37*
G36*
X495472Y64764D02*
X488779D01*
Y58071D01*
X495472D01*
Y64764D01*
D02*
G37*
G36*
X299467Y60335D02*
X298958D01*
X298488Y60140D01*
X298128Y59780D01*
X297933Y59310D01*
Y58801D01*
X298128Y58330D01*
X298488Y57970D01*
X298958Y57776D01*
X299467D01*
X299937Y57970D01*
X300297Y58330D01*
X300492Y58801D01*
Y59310D01*
X300297Y59780D01*
X299937Y60140D01*
X299467Y60335D01*
D02*
G37*
G36*
X513010Y63287D02*
X512030D01*
X511084Y63034D01*
X510235Y62544D01*
X509543Y61851D01*
X509053Y61003D01*
X508799Y60057D01*
Y59077D01*
X509053Y58131D01*
X509543Y57283D01*
X510235Y56590D01*
X511084Y56100D01*
X512030Y55847D01*
X513010D01*
X513956Y56100D01*
X514804Y56590D01*
X515497Y57283D01*
X515987Y58131D01*
X516240Y59077D01*
Y60057D01*
X515987Y61003D01*
X515497Y61851D01*
X514804Y62544D01*
X513956Y63034D01*
X513010Y63287D01*
D02*
G37*
G36*
X332341Y57776D02*
X331832D01*
X331362Y57581D01*
X331002Y57221D01*
X330807Y56751D01*
Y56242D01*
X331002Y55771D01*
X331362Y55411D01*
X331832Y55216D01*
X332341D01*
X332811Y55411D01*
X333171Y55771D01*
X333366Y56242D01*
Y56751D01*
X333171Y57221D01*
X332811Y57581D01*
X332341Y57776D01*
D02*
G37*
G36*
X149467Y57185D02*
X148958D01*
X148488Y56990D01*
X148128Y56630D01*
X147933Y56160D01*
Y55651D01*
X148128Y55181D01*
X148488Y54821D01*
X148958Y54626D01*
X149467D01*
X149937Y54821D01*
X150297Y55181D01*
X150492Y55651D01*
Y56160D01*
X150297Y56630D01*
X149937Y56990D01*
X149467Y57185D01*
D02*
G37*
G36*
X181847Y60397D02*
X181338D01*
X180868Y60202D01*
X180508Y59842D01*
X180313Y59372D01*
Y58863D01*
X180508Y58393D01*
X180868Y58033D01*
X180976Y57988D01*
X181069Y57524D01*
X180942Y57397D01*
X180747Y56927D01*
Y56418D01*
X180942Y55948D01*
X181302Y55588D01*
X181487Y55511D01*
X181714Y55029D01*
X181693Y54979D01*
Y54470D01*
X181888Y54000D01*
X182248Y53640D01*
X182718Y53445D01*
X183227D01*
X183697Y53640D01*
X184057Y54000D01*
X184252Y54470D01*
Y54979D01*
X184057Y55449D01*
X183697Y55809D01*
X183512Y55886D01*
X183285Y56368D01*
X183306Y56418D01*
Y56927D01*
X183112Y57397D01*
X182752Y57757D01*
X182643Y57802D01*
X182551Y58266D01*
X182677Y58393D01*
X182872Y58863D01*
Y59372D01*
X182677Y59842D01*
X182317Y60202D01*
X181847Y60397D01*
D02*
G37*
G36*
X419546Y55945D02*
X419037D01*
X418567Y55750D01*
X418207Y55390D01*
X418012Y54920D01*
Y54411D01*
X418207Y53940D01*
X418567Y53581D01*
X419037Y53386D01*
X419546D01*
X420016Y53581D01*
X420376Y53940D01*
X420571Y54411D01*
Y54920D01*
X420376Y55390D01*
X420016Y55750D01*
X419546Y55945D01*
D02*
G37*
G36*
X356554Y55610D02*
X356045D01*
X355574Y55415D01*
X355215Y55055D01*
X355020Y54585D01*
Y54076D01*
X355215Y53606D01*
X355574Y53246D01*
X356045Y53051D01*
X356554D01*
X357024Y53246D01*
X357384Y53606D01*
X357579Y54076D01*
Y54585D01*
X357384Y55055D01*
X357024Y55415D01*
X356554Y55610D01*
D02*
G37*
G36*
X160067Y57952D02*
X159558D01*
X159087Y57757D01*
X158727Y57397D01*
X158533Y56927D01*
Y56418D01*
X158727Y55947D01*
X158913Y55762D01*
X159029Y55475D01*
X158912Y55248D01*
X158701Y55037D01*
X158507Y54567D01*
Y54058D01*
X158701Y53588D01*
X159061Y53228D01*
X159532Y53033D01*
X160041D01*
X160511Y53228D01*
X160871Y53588D01*
X161066Y54058D01*
Y54567D01*
X160871Y55037D01*
X160685Y55223D01*
X160569Y55509D01*
X160686Y55736D01*
X160897Y55947D01*
X161092Y56418D01*
Y56927D01*
X160897Y57397D01*
X160537Y57757D01*
X160067Y57952D01*
D02*
G37*
G36*
X372459Y55453D02*
X371950D01*
X371480Y55258D01*
X371120Y54898D01*
X370925Y54428D01*
Y53919D01*
X371120Y53448D01*
X371480Y53088D01*
X371950Y52894D01*
X372459D01*
X372930Y53088D01*
X373289Y53448D01*
X373484Y53919D01*
Y54428D01*
X373289Y54898D01*
X372930Y55258D01*
X372459Y55453D01*
D02*
G37*
G36*
X153010Y55216D02*
X152501D01*
X152031Y55022D01*
X151671Y54662D01*
X151476Y54191D01*
Y53683D01*
X151671Y53212D01*
X152031Y52852D01*
X152501Y52658D01*
X153010D01*
X153481Y52852D01*
X153841Y53212D01*
X154035Y53683D01*
Y54191D01*
X153841Y54662D01*
X153481Y55022D01*
X153010Y55216D01*
D02*
G37*
G36*
X179388Y53248D02*
X178879D01*
X178409Y53053D01*
X178049Y52693D01*
X177854Y52223D01*
Y51714D01*
X178049Y51244D01*
X178409Y50884D01*
X178879Y50689D01*
X179388D01*
X179859Y50884D01*
X180219Y51244D01*
X180413Y51714D01*
Y52223D01*
X180219Y52693D01*
X179859Y53053D01*
X179388Y53248D01*
D02*
G37*
G36*
X524191Y57835D02*
X523211D01*
X522265Y57581D01*
X521416Y57091D01*
X520724Y56399D01*
X520234Y55550D01*
X519980Y54604D01*
Y53624D01*
X520234Y52678D01*
X520724Y51830D01*
X521416Y51137D01*
X522265Y50647D01*
X523211Y50394D01*
X524191D01*
X525137Y50647D01*
X525985Y51137D01*
X526678Y51830D01*
X527168Y52678D01*
X527421Y53624D01*
Y54604D01*
X527168Y55550D01*
X526678Y56399D01*
X525985Y57091D01*
X525137Y57581D01*
X524191Y57835D01*
D02*
G37*
G36*
X286927Y52362D02*
X286301D01*
X285722Y52122D01*
X285279Y51679D01*
X285039Y51101D01*
Y50474D01*
X285279Y49895D01*
X285722Y49452D01*
X286301Y49213D01*
X286927D01*
X287506Y49452D01*
X287949Y49895D01*
X288189Y50474D01*
Y51101D01*
X287949Y51679D01*
X287506Y52122D01*
X286927Y52362D01*
D02*
G37*
G36*
X280235D02*
X279608D01*
X279029Y52122D01*
X278586Y51679D01*
X278346Y51101D01*
Y50474D01*
X278586Y49895D01*
X279029Y49452D01*
X279608Y49213D01*
X280235D01*
X280813Y49452D01*
X281256Y49895D01*
X281496Y50474D01*
Y51101D01*
X281256Y51679D01*
X280813Y52122D01*
X280235Y52362D01*
D02*
G37*
G36*
X144644Y50747D02*
X144135D01*
X143665Y50552D01*
X143305Y50192D01*
X143110Y49722D01*
Y49213D01*
X143305Y48742D01*
X143665Y48382D01*
X144135Y48188D01*
X144644D01*
X145115Y48382D01*
X145475Y48742D01*
X145669Y49213D01*
Y49722D01*
X145475Y50192D01*
X145115Y50552D01*
X144644Y50747D01*
D02*
G37*
G36*
X492567Y54764D02*
X491685D01*
X490834Y54536D01*
X490071Y54095D01*
X489448Y53472D01*
X489008Y52709D01*
X488779Y51858D01*
Y50977D01*
X489008Y50126D01*
X489448Y49362D01*
X490071Y48739D01*
X490834Y48299D01*
X491685Y48071D01*
X492567D01*
X493418Y48299D01*
X494181Y48739D01*
X494804Y49362D01*
X495244Y50126D01*
X495472Y50977D01*
Y51858D01*
X495244Y52709D01*
X494804Y53472D01*
X494181Y54095D01*
X493418Y54536D01*
X492567Y54764D01*
D02*
G37*
G36*
X377420Y50492D02*
X376911D01*
X376441Y50297D01*
X376081Y49937D01*
X375886Y49467D01*
Y48958D01*
X376081Y48488D01*
X376441Y48128D01*
X376911Y47933D01*
X377420D01*
X377890Y48128D01*
X378250Y48488D01*
X378445Y48958D01*
Y49467D01*
X378250Y49937D01*
X377890Y50297D01*
X377420Y50492D01*
D02*
G37*
G36*
X351575Y49516D02*
X351066D01*
X350595Y49321D01*
X350236Y48961D01*
X350041Y48491D01*
Y47982D01*
X350236Y47511D01*
X350595Y47151D01*
X351066Y46957D01*
X351575D01*
X352045Y47151D01*
X352405Y47511D01*
X352600Y47982D01*
Y48491D01*
X352405Y48961D01*
X352045Y49321D01*
X351575Y49516D01*
D02*
G37*
G36*
X339142Y48965D02*
X338633D01*
X338163Y48770D01*
X337803Y48410D01*
X337608Y47940D01*
Y47431D01*
X337803Y46961D01*
X338163Y46601D01*
X338633Y46406D01*
X339142D01*
X339613Y46601D01*
X339973Y46961D01*
X340167Y47431D01*
Y47940D01*
X339973Y48410D01*
X339613Y48770D01*
X339142Y48965D01*
D02*
G37*
G36*
X409310Y48917D02*
X408801D01*
X408330Y48722D01*
X407970Y48363D01*
X407776Y47892D01*
Y47383D01*
X407970Y46913D01*
X408330Y46553D01*
X408801Y46358D01*
X409310D01*
X409780Y46553D01*
X410140Y46913D01*
X410335Y47383D01*
Y47892D01*
X410140Y48363D01*
X409780Y48722D01*
X409310Y48917D01*
D02*
G37*
G36*
X311278Y48130D02*
X310769D01*
X310299Y47935D01*
X309939Y47575D01*
X309744Y47105D01*
Y46596D01*
X309939Y46126D01*
X310299Y45766D01*
X310769Y45571D01*
X311278D01*
X311748Y45766D01*
X312108Y46126D01*
X312303Y46596D01*
Y47105D01*
X312108Y47575D01*
X311748Y47935D01*
X311278Y48130D01*
D02*
G37*
G36*
X147105D02*
X146596D01*
X146126Y47935D01*
X145766Y47575D01*
X145571Y47105D01*
Y46596D01*
X145766Y46126D01*
X146126Y45766D01*
X146596Y45571D01*
X147105D01*
X147575Y45766D01*
X147935Y46126D01*
X148130Y46596D01*
Y47105D01*
X147935Y47575D01*
X147575Y47935D01*
X147105Y48130D01*
D02*
G37*
G36*
X354585Y47736D02*
X354076D01*
X353606Y47541D01*
X353246Y47181D01*
X353051Y46711D01*
Y46202D01*
X353246Y45732D01*
X353606Y45372D01*
X354076Y45177D01*
X354585D01*
X355055Y45372D01*
X355415Y45732D01*
X355610Y46202D01*
Y46711D01*
X355415Y47181D01*
X355055Y47541D01*
X354585Y47736D01*
D02*
G37*
G36*
X513010Y52382D02*
X512030D01*
X511084Y52128D01*
X510235Y51639D01*
X509543Y50946D01*
X509053Y50098D01*
X508799Y49151D01*
Y48172D01*
X509053Y47225D01*
X509543Y46377D01*
X510235Y45684D01*
X511084Y45195D01*
X512030Y44941D01*
X513010D01*
X513956Y45195D01*
X514804Y45684D01*
X515497Y46377D01*
X515987Y47225D01*
X516240Y48172D01*
Y49151D01*
X515987Y50098D01*
X515497Y50946D01*
X514804Y51639D01*
X513956Y52128D01*
X513010Y52382D01*
D02*
G37*
G36*
X401829Y42224D02*
X401320D01*
X400850Y42030D01*
X400490Y41670D01*
X400295Y41199D01*
Y40690D01*
X400490Y40220D01*
X400850Y39860D01*
X401320Y39665D01*
X401829D01*
X402300Y39860D01*
X402660Y40220D01*
X402854Y40690D01*
Y41199D01*
X402660Y41670D01*
X402300Y42030D01*
X401829Y42224D01*
D02*
G37*
G36*
X178995Y40256D02*
X178486D01*
X178015Y40061D01*
X177655Y39701D01*
X177461Y39231D01*
Y38722D01*
X177655Y38252D01*
X178015Y37892D01*
X178486Y37697D01*
X178995D01*
X179465Y37892D01*
X179825Y38252D01*
X180020Y38722D01*
Y39231D01*
X179825Y39701D01*
X179465Y40061D01*
X178995Y40256D01*
D02*
G37*
G36*
X153404Y37894D02*
X152895D01*
X152425Y37699D01*
X152065Y37339D01*
X151870Y36869D01*
Y36360D01*
X152065Y35889D01*
X152425Y35529D01*
X152895Y35335D01*
X153404D01*
X153874Y35529D01*
X154234Y35889D01*
X154429Y36360D01*
Y36869D01*
X154234Y37339D01*
X153874Y37699D01*
X153404Y37894D01*
D02*
G37*
G36*
X262124Y38189D02*
X261498D01*
X260919Y37949D01*
X260476Y37506D01*
X260236Y36927D01*
Y36301D01*
X260476Y35722D01*
X260919Y35279D01*
X261498Y35039D01*
X262124D01*
X262703Y35279D01*
X263146Y35722D01*
X263386Y36301D01*
Y36927D01*
X263146Y37506D01*
X262703Y37949D01*
X262124Y38189D01*
D02*
G37*
G36*
X416849Y37008D02*
X416222D01*
X415643Y36768D01*
X415200Y36325D01*
X414961Y35746D01*
Y35120D01*
X415200Y34541D01*
X415643Y34098D01*
X416222Y33858D01*
X416849D01*
X417427Y34098D01*
X417871Y34541D01*
X418110Y35120D01*
Y35746D01*
X417871Y36325D01*
X417427Y36768D01*
X416849Y37008D01*
D02*
G37*
G36*
X478601Y35925D02*
X478092D01*
X477622Y35730D01*
X477262Y35370D01*
X477067Y34900D01*
Y34391D01*
X477262Y33921D01*
X477622Y33561D01*
X478092Y33366D01*
X478601D01*
X479071Y33561D01*
X479431Y33921D01*
X479626Y34391D01*
Y34900D01*
X479431Y35370D01*
X479071Y35730D01*
X478601Y35925D01*
D02*
G37*
G36*
X279782Y34350D02*
X279273D01*
X278803Y34156D01*
X278443Y33796D01*
X278248Y33325D01*
Y32816D01*
X278443Y32346D01*
X278803Y31986D01*
X279273Y31791D01*
X279782D01*
X280252Y31986D01*
X280612Y32346D01*
X280807Y32816D01*
Y33325D01*
X280612Y33796D01*
X280252Y34156D01*
X279782Y34350D01*
D02*
G37*
G36*
X255806Y31634D02*
X255297D01*
X254826Y31439D01*
X254466Y31079D01*
X254272Y30609D01*
Y30100D01*
X254466Y29629D01*
X254826Y29270D01*
X255297Y29075D01*
X255806D01*
X256276Y29270D01*
X256636Y29629D01*
X256831Y30100D01*
Y30609D01*
X256636Y31079D01*
X256276Y31439D01*
X255806Y31634D01*
D02*
G37*
G36*
X478995Y27657D02*
X478486D01*
X478015Y27463D01*
X477655Y27103D01*
X477461Y26632D01*
Y26123D01*
X477655Y25653D01*
X478015Y25293D01*
X478486Y25098D01*
X478995D01*
X479465Y25293D01*
X479825Y25653D01*
X480020Y26123D01*
Y26632D01*
X479825Y27103D01*
X479465Y27463D01*
X478995Y27657D01*
D02*
G37*
G36*
X165215Y26476D02*
X164706D01*
X164236Y26282D01*
X163876Y25922D01*
X163681Y25451D01*
Y24942D01*
X163876Y24472D01*
X164236Y24112D01*
X164706Y23917D01*
X165215D01*
X165685Y24112D01*
X166045Y24472D01*
X166240Y24942D01*
Y25451D01*
X166045Y25922D01*
X165685Y26282D01*
X165215Y26476D01*
D02*
G37*
G36*
X478601Y19783D02*
X478092D01*
X477622Y19589D01*
X477262Y19229D01*
X477067Y18758D01*
Y18249D01*
X477262Y17779D01*
X477622Y17419D01*
X478092Y17224D01*
X478601D01*
X479071Y17419D01*
X479431Y17779D01*
X479626Y18249D01*
Y18758D01*
X479431Y19229D01*
X479071Y19589D01*
X478601Y19783D01*
D02*
G37*
G36*
X316339Y23819D02*
X309646D01*
Y17126D01*
X316339D01*
Y23819D01*
D02*
G37*
G36*
X303433D02*
X302552D01*
X301700Y23591D01*
X300937Y23150D01*
X300314Y22527D01*
X299874Y21764D01*
X299646Y20913D01*
Y20032D01*
X299874Y19181D01*
X300314Y18418D01*
X300937Y17795D01*
X301700Y17354D01*
X302552Y17126D01*
X303433D01*
X304284Y17354D01*
X305047Y17795D01*
X305670Y18418D01*
X306111Y19181D01*
X306339Y20032D01*
Y20913D01*
X306111Y21764D01*
X305670Y22527D01*
X305047Y23150D01*
X304284Y23591D01*
X303433Y23819D01*
D02*
G37*
G36*
X151228Y19882D02*
X150347D01*
X149496Y19654D01*
X148733Y19213D01*
X148110Y18590D01*
X147669Y17827D01*
X147441Y16976D01*
Y16095D01*
X147669Y15244D01*
X148110Y14481D01*
X148733Y13858D01*
X149496Y13417D01*
X150347Y13189D01*
X151228D01*
X152079Y13417D01*
X152842Y13858D01*
X153465Y14481D01*
X153906Y15244D01*
X154134Y16095D01*
Y16976D01*
X153906Y17827D01*
X153465Y18590D01*
X152842Y19213D01*
X152079Y19654D01*
X151228Y19882D01*
D02*
G37*
G36*
X144134D02*
X137441D01*
Y13189D01*
X144134D01*
Y19882D01*
D02*
G37*
G36*
X519072Y31043D02*
X517149D01*
X515262Y30668D01*
X513485Y29932D01*
X511886Y28863D01*
X510526Y27504D01*
X509458Y25904D01*
X508722Y24127D01*
X508347Y22241D01*
Y20318D01*
X508722Y18431D01*
X509458Y16655D01*
X510526Y15055D01*
X511886Y13695D01*
X513485Y12627D01*
X515262Y11891D01*
X517149Y11516D01*
X519072D01*
X520958Y11891D01*
X522735Y12627D01*
X524334Y13695D01*
X525694Y15055D01*
X526763Y16655D01*
X527499Y18431D01*
X527874Y20318D01*
Y22241D01*
X527499Y24127D01*
X526763Y25904D01*
X525694Y27504D01*
X524334Y28863D01*
X522735Y29932D01*
X520958Y30668D01*
X519072Y31043D01*
D02*
G37*
G36*
X313583Y14390D02*
Y11063D01*
X316910D01*
X316661Y11992D01*
X316143Y12890D01*
X315409Y13623D01*
X314512Y14141D01*
X313583Y14390D01*
D02*
G37*
G36*
X303583D02*
Y11063D01*
X306910D01*
X306661Y11992D01*
X306142Y12890D01*
X305410Y13623D01*
X304512Y14141D01*
X303583Y14390D01*
D02*
G37*
G36*
X312402Y14390D02*
X311473Y14141D01*
X310575Y13623D01*
X309842Y12890D01*
X309323Y11992D01*
X309074Y11063D01*
X312402D01*
Y14390D01*
D02*
G37*
G36*
X302402D02*
X301472Y14141D01*
X300575Y13623D01*
X299842Y12890D01*
X299323Y11992D01*
X299075Y11063D01*
X302402D01*
Y14390D01*
D02*
G37*
G36*
X478995Y11516D02*
X478486D01*
X478015Y11321D01*
X477655Y10961D01*
X477461Y10491D01*
Y9982D01*
X477655Y9511D01*
X478015Y9151D01*
X478486Y8957D01*
X478995D01*
X479465Y9151D01*
X479825Y9511D01*
X480020Y9982D01*
Y10491D01*
X479825Y10961D01*
X479465Y11321D01*
X478995Y11516D01*
D02*
G37*
G36*
X316910Y9882D02*
X313583D01*
Y6555D01*
X314512Y6804D01*
X315409Y7322D01*
X316143Y8055D01*
X316661Y8953D01*
X316910Y9882D01*
D02*
G37*
G36*
X306910D02*
X303583D01*
Y6555D01*
X304512Y6804D01*
X305410Y7322D01*
X306142Y8055D01*
X306661Y8953D01*
X306910Y9882D01*
D02*
G37*
G36*
X312402D02*
X309074D01*
X309323Y8953D01*
X309842Y8055D01*
X310575Y7322D01*
X311473Y6804D01*
X312402Y6555D01*
Y9882D01*
D02*
G37*
G36*
X302402D02*
X299075D01*
X299323Y8953D01*
X299842Y8055D01*
X300575Y7322D01*
X301472Y6804D01*
X302402Y6555D01*
Y9882D01*
D02*
G37*
%LPD*%
D69*
X15354Y113425D02*
D03*
D70*
X302992Y10472D02*
D03*
X312992D02*
D03*
Y140394D02*
D03*
X302992D02*
D03*
X89764Y200000D02*
D03*
Y70079D02*
D03*
X302992Y270315D02*
D03*
X312992D02*
D03*
X89764Y329921D02*
D03*
D75*
X66929Y89764D02*
D03*
X46457Y107087D02*
D03*
X18898Y279134D02*
D03*
X242520Y7480D02*
D03*
X428740Y102048D02*
D03*
Y91339D02*
D03*
Y123468D02*
D03*
Y112758D02*
D03*
Y361891D02*
D03*
Y351181D02*
D03*
Y383311D02*
D03*
Y372601D02*
D03*
X242913Y266929D02*
D03*
X15748Y261024D02*
D03*
X14567Y235827D02*
D03*
Y190157D02*
D03*
X15748Y196850D02*
D03*
X428740Y231970D02*
D03*
Y221260D02*
D03*
Y253389D02*
D03*
Y242680D02*
D03*
X242913Y137008D02*
D03*
D77*
X-19291Y112992D02*
D03*
X141106Y224490D02*
D03*
X115748Y54315D02*
D03*
Y314158D02*
D03*
X361811Y98819D02*
D03*
Y88189D02*
D03*
Y120472D02*
D03*
Y109843D02*
D03*
X311247Y91338D02*
D03*
X327559Y103937D02*
D03*
X288445Y101181D02*
D03*
Y114961D02*
D03*
X327559Y111811D02*
D03*
X389316Y102434D02*
D03*
X401921Y92724D02*
D03*
X389289Y122375D02*
D03*
X401968Y112992D02*
D03*
X307087Y111024D02*
D03*
X361811Y358661D02*
D03*
Y348031D02*
D03*
Y380315D02*
D03*
Y369685D02*
D03*
X311247Y351181D02*
D03*
X327559Y363779D02*
D03*
X288445Y361024D02*
D03*
Y374803D02*
D03*
X327559Y371654D02*
D03*
X389316Y362277D02*
D03*
X401921Y352567D02*
D03*
X389289Y382217D02*
D03*
X401968Y372835D02*
D03*
X307087Y370866D02*
D03*
X206299Y24409D02*
D03*
X208661D02*
D03*
X211024D02*
D03*
X206299Y284252D02*
D03*
X208661D02*
D03*
X211024D02*
D03*
X158268Y87795D02*
D03*
X188297Y94223D02*
D03*
X192520Y120472D02*
D03*
X168110Y38976D02*
D03*
X165354Y35827D02*
D03*
X153150Y23622D02*
D03*
X244882Y9843D02*
D03*
X268504Y33071D02*
D03*
X194488Y57087D02*
D03*
X198031Y53150D02*
D03*
X141106Y94569D02*
D03*
X153543Y104331D02*
D03*
X153320Y89109D02*
D03*
X158268Y347638D02*
D03*
X188297Y354065D02*
D03*
X192520Y380315D02*
D03*
X168110Y298819D02*
D03*
X165354Y295669D02*
D03*
X153150Y283465D02*
D03*
X244882Y269685D02*
D03*
X268504Y292913D02*
D03*
X194488Y316929D02*
D03*
X198031Y312992D02*
D03*
X141106Y354411D02*
D03*
X153543Y364173D02*
D03*
X153320Y348952D02*
D03*
Y219030D02*
D03*
X153543Y234252D02*
D03*
X198031Y183071D02*
D03*
X194488Y187008D02*
D03*
X288445Y231102D02*
D03*
X327559Y241732D02*
D03*
X288445Y244882D02*
D03*
X311247Y221259D02*
D03*
X327559Y233858D02*
D03*
X158268Y217717D02*
D03*
X188297Y224144D02*
D03*
X-41732Y182677D02*
D03*
X307087Y240945D02*
D03*
X115748Y184236D02*
D03*
X211024Y154331D02*
D03*
X208661D02*
D03*
X206299D02*
D03*
X165354Y165748D02*
D03*
X168110Y168898D02*
D03*
X153150Y153543D02*
D03*
X192520Y250394D02*
D03*
X268504Y162992D02*
D03*
X244882Y139764D02*
D03*
X217717Y20472D02*
D03*
Y280315D02*
D03*
X14567Y143307D02*
D03*
X18898Y153150D02*
D03*
X-41732Y163779D02*
D03*
X361811Y228740D02*
D03*
Y218110D02*
D03*
Y250394D02*
D03*
Y239764D02*
D03*
X389316Y232355D02*
D03*
X401921Y222645D02*
D03*
X389289Y252296D02*
D03*
X401968Y242913D02*
D03*
X-41339Y116535D02*
D03*
X-41732Y132283D02*
D03*
Y141732D02*
D03*
Y280315D02*
D03*
X-40850Y149237D02*
D03*
X-41888Y277109D02*
D03*
X-41972Y270866D02*
D03*
Y264567D02*
D03*
Y258268D02*
D03*
X-41972Y251969D02*
D03*
X-41972Y245669D02*
D03*
Y239370D02*
D03*
Y233071D02*
D03*
X-41972Y226772D02*
D03*
X-41972Y220472D02*
D03*
Y214173D02*
D03*
Y207874D02*
D03*
X-41972Y201575D02*
D03*
Y176378D02*
D03*
X-41972Y170079D02*
D03*
X-41972Y157480D02*
D03*
M02*
