G04*
G04 #@! TF.GenerationSoftware,Altium Limited,Altium Designer,24.0.1 (36)*
G04*
G04 Layer_Color=32896*
%FSLAX25Y25*%
%MOIN*%
G70*
G04*
G04 #@! TF.SameCoordinates,80364FB6-A3F5-494B-A990-E47E6091031E*
G04*
G04*
G04 #@! TF.FilePolarity,Positive*
G04*
G01*
G75*
%ADD12C,0.00787*%
%ADD76C,0.00027*%
G36*
X251285Y254221D02*
X252025Y253914D01*
X252659Y253427D01*
X252660Y253426D01*
X252660Y253426D01*
X253147Y252791D01*
X253454Y252051D01*
X253525Y251512D01*
X253558Y251257D01*
X253558Y250990D01*
Y208911D01*
X253536D01*
X253628Y208450D01*
X253889Y208058D01*
X254280Y207797D01*
X254742Y207705D01*
X254747Y207706D01*
X255008Y207727D01*
X284156D01*
Y207724D01*
X284599Y207636D01*
X284974Y207385D01*
X285115Y207175D01*
X285225Y207010D01*
X285313Y206567D01*
X285225Y206125D01*
X284974Y205750D01*
X284764Y205609D01*
X284599Y205499D01*
X284156Y205411D01*
Y205407D01*
X254306D01*
X254305Y205408D01*
X253521Y205511D01*
X252780Y205819D01*
X252332Y206161D01*
X252131Y206322D01*
X251655Y206943D01*
X251347Y207685D01*
X251243Y208480D01*
X251246Y208508D01*
X251243Y208508D01*
X251243Y208508D01*
Y250567D01*
X251266Y250827D01*
X251266Y250827D01*
X251173Y251290D01*
X250911Y251683D01*
X250518Y251946D01*
X250060Y252037D01*
X250060Y252016D01*
X250060Y252016D01*
X215460D01*
X215460Y252016D01*
X215460Y252037D01*
X215002Y251946D01*
X214609Y251683D01*
X214347Y251290D01*
X214255Y250827D01*
X214277Y250827D01*
Y208748D01*
X214277Y208480D01*
X214243Y208220D01*
X214173Y207685D01*
X213865Y206943D01*
X213377Y206307D01*
X212740Y205819D01*
X211999Y205511D01*
X211209Y205408D01*
Y205407D01*
X198663D01*
X198658Y205412D01*
X198658D01*
X198221Y205499D01*
X198046Y205615D01*
X197838Y205761D01*
X197595Y206125D01*
X197552Y206340D01*
X197509Y206578D01*
X197511Y206589D01*
X197557Y206840D01*
X197595Y207032D01*
X197846Y207407D01*
X198221Y207658D01*
X198658Y207745D01*
X198658Y207745D01*
Y207745D01*
X198663Y207750D01*
X210513D01*
X210773Y207729D01*
X210779Y207728D01*
X211240Y207819D01*
X211629Y208079D01*
X211631Y208081D01*
X211893Y208472D01*
X211984Y208933D01*
X211984Y208933D01*
X211962Y209193D01*
Y250990D01*
Y251257D01*
X211996Y251518D01*
X212066Y252051D01*
X212373Y252791D01*
X212860Y253426D01*
X212861Y253426D01*
X212861Y253427D01*
X213496Y253914D01*
X214235Y254221D01*
X215029Y254325D01*
X215030Y254325D01*
X250491D01*
X250491Y254325D01*
X251285Y254221D01*
D02*
G37*
G36*
X297552D02*
X298292Y253914D01*
X298926Y253427D01*
X298927Y253426D01*
X298928Y253426D01*
X299415Y252791D01*
X299721Y252051D01*
X299826Y251258D01*
X299825Y251257D01*
Y220707D01*
X299821D01*
X299733Y220264D01*
X299623Y220099D01*
X299483Y219889D01*
X299108Y219638D01*
X298918Y219601D01*
X298665Y219551D01*
Y219551D01*
X298225Y219638D01*
X297851Y219888D01*
X297602Y220261D01*
X297514Y220701D01*
X297515Y220707D01*
X297511Y220707D01*
X297511Y220707D01*
Y250821D01*
X297533Y250843D01*
X297441Y251307D01*
X297178Y251700D01*
X296785Y251962D01*
X296322Y252055D01*
Y252032D01*
X266228D01*
X265968Y252055D01*
X265964Y252057D01*
X265961Y252058D01*
X265716Y251956D01*
X265614Y251710D01*
X265615Y251708D01*
X265696Y251511D01*
X265861Y251303D01*
X297898Y207890D01*
X297898Y207885D01*
X297898Y207885D01*
X298065Y207773D01*
X298152Y207756D01*
X298156Y207755D01*
X331696D01*
X331956Y207734D01*
X331961Y207733D01*
X332423Y207825D01*
X332811Y208085D01*
X332811D01*
X332814Y208086D01*
X333075Y208477D01*
X333167Y208939D01*
Y208939D01*
X333145Y209198D01*
Y252935D01*
X333149Y252935D01*
X333237Y253378D01*
X333487Y253753D01*
X333862Y254004D01*
X334299Y254091D01*
Y254090D01*
X334558Y254040D01*
X334742Y254004D01*
X334907Y253893D01*
X335117Y253753D01*
X335368Y253378D01*
X335456Y252935D01*
X335459D01*
Y208748D01*
Y208480D01*
X335459D01*
X335426Y208220D01*
X335355Y207685D01*
X335048Y206943D01*
X334560Y206307D01*
X333923Y205819D01*
X333182Y205511D01*
X332392Y205408D01*
Y205407D01*
X298172D01*
X298157Y205422D01*
X298157D01*
X297556Y205501D01*
X296885Y205779D01*
X296310Y206221D01*
X296068Y206535D01*
X296068D01*
X296033Y206541D01*
X262528Y251887D01*
X262528Y251888D01*
X262546Y251903D01*
X262389Y252107D01*
X262242Y252462D01*
X262192Y252843D01*
X262242Y253224D01*
X262389Y253579D01*
X262623Y253883D01*
X262927Y254117D01*
X263282Y254264D01*
X263663Y254314D01*
X263755Y254302D01*
X263758Y254325D01*
X296758D01*
X296759Y254325D01*
X297552Y254221D01*
D02*
G37*
G36*
X235380Y191128D02*
X236975Y190811D01*
X238465Y190305D01*
X238468Y190299D01*
Y190299D01*
X238468Y190299D01*
X239629Y189727D01*
X240747Y188980D01*
X241758Y188093D01*
X242233Y187552D01*
X242233Y187553D01*
X242651Y187077D01*
X243554Y185725D01*
X244274Y184266D01*
X244645Y183172D01*
Y183172D01*
X244661Y183163D01*
X245119Y181335D01*
X245422Y179293D01*
X245523Y177231D01*
X245422Y175169D01*
X245119Y173127D01*
X244661Y171300D01*
X244644Y171291D01*
X244528Y170887D01*
X243979Y169561D01*
X243285Y168306D01*
X242455Y167136D01*
X242219Y166873D01*
X242216Y166876D01*
X241708Y166296D01*
X240719Y165429D01*
X239626Y164699D01*
X238485Y164136D01*
X238462Y164145D01*
X237979Y163944D01*
X236534Y163528D01*
X235052Y163277D01*
X233552Y163192D01*
X232051Y163277D01*
X230569Y163528D01*
X229124Y163944D01*
X228641Y164145D01*
X228641D01*
X228641D01*
X228641D01*
X228621Y164137D01*
X227492Y164694D01*
X226370Y165444D01*
X225354Y166335D01*
X224865Y166893D01*
X224860Y166889D01*
X224647Y167128D01*
X223825Y168286D01*
X223138Y169529D01*
X222595Y170841D01*
X222460Y171308D01*
X222460D01*
X222444Y171317D01*
X221996Y173103D01*
X221693Y175149D01*
X221591Y177214D01*
X221693Y179279D01*
X221996Y181325D01*
X222444Y183113D01*
X222458Y183121D01*
X222458D01*
X222458Y183121D01*
X222827Y184209D01*
X223549Y185673D01*
X224457Y187031D01*
X224875Y187508D01*
X224876Y187508D01*
X225377Y188080D01*
X226384Y188963D01*
X227498Y189707D01*
X228625Y190262D01*
X228648Y190254D01*
X229297Y190523D01*
X230651Y190913D01*
X232041Y191149D01*
X233342Y191222D01*
X233610Y191219D01*
X233878Y191227D01*
X235380Y191128D01*
D02*
G37*
G36*
X294665Y191215D02*
X294934Y191222D01*
X295655Y191190D01*
X295922Y191178D01*
X296593Y191146D01*
X296594Y191144D01*
X296961Y191126D01*
X297482Y191049D01*
X297748Y191014D01*
X298320Y190917D01*
X298320Y190917D01*
Y190917D01*
X298849Y190827D01*
X299109Y190760D01*
X299420Y190698D01*
X299846Y190554D01*
X299846Y190553D01*
X300284Y190404D01*
X300534Y190318D01*
X300567Y190307D01*
X300785Y190224D01*
X301167Y190036D01*
X301415Y189931D01*
X302080Y189524D01*
X302298Y189388D01*
X302503Y189224D01*
X303133Y188685D01*
X303810Y187893D01*
X304383Y186958D01*
X304582Y186476D01*
X304582D01*
X304685Y186229D01*
X304828Y185884D01*
X304816Y185857D01*
Y185857D01*
Y185857D01*
Y185857D01*
X304950Y185461D01*
X305016Y185201D01*
X305067Y184947D01*
X305245Y184052D01*
X305216Y183939D01*
X305070Y183784D01*
X302565D01*
X302523Y184208D01*
X302250Y185106D01*
X301808Y185933D01*
X301213Y186658D01*
X300551Y187202D01*
X300488Y187253D01*
X300327Y187341D01*
Y187341D01*
X299924Y187557D01*
X299931Y187570D01*
X299486Y187754D01*
Y187754D01*
X299018Y187948D01*
X299019Y187952D01*
X298972Y187971D01*
X298764Y188021D01*
X298517Y188080D01*
X298505Y188101D01*
X298199Y188162D01*
X297951Y188211D01*
X297948Y188212D01*
X297947Y188212D01*
X297702Y188260D01*
X297365Y188328D01*
X297354Y188320D01*
X297001Y188380D01*
X296799Y188414D01*
X296741Y188420D01*
Y188420D01*
X296344Y188443D01*
X296076Y188460D01*
X294902Y188518D01*
X294674Y188529D01*
X294638Y188527D01*
X294370Y188525D01*
X294210Y188535D01*
X292791Y188442D01*
X291397Y188165D01*
X290567Y187883D01*
X290563Y187892D01*
X290563Y187893D01*
X290426Y187852D01*
X290314Y187792D01*
X289561Y187389D01*
X288803Y186767D01*
X288482Y186376D01*
X288317Y186175D01*
X287920Y185528D01*
X287571Y184685D01*
X287374Y183864D01*
X287358Y183798D01*
X287342Y183598D01*
X287313Y183331D01*
X287206Y182524D01*
X287122Y180598D01*
X287118Y180505D01*
Y180505D01*
X287125Y180357D01*
X287143Y180348D01*
X287144Y180347D01*
X287154Y180343D01*
X287154Y180343D01*
X287154D01*
X290348Y180343D01*
Y180341D01*
X290367Y180341D01*
X291617Y180300D01*
X291885Y180292D01*
X292154Y180282D01*
X293078Y180249D01*
X293345Y180232D01*
X293611Y180220D01*
X293613Y180220D01*
X294458Y180120D01*
X294723Y180088D01*
X294990Y180057D01*
X296023Y179921D01*
X296025Y179919D01*
X296381Y179873D01*
X297244Y179681D01*
Y179681D01*
X297507Y179627D01*
X298387Y179406D01*
X298387Y179405D01*
Y179405D01*
X298806Y179300D01*
X299449Y179070D01*
X299705Y178991D01*
X300432Y178689D01*
X300680Y178586D01*
X301707Y178079D01*
X301945Y177920D01*
X302163Y177773D01*
X302805Y177380D01*
X303762Y176562D01*
X304580Y175604D01*
X305239Y174530D01*
X305721Y173366D01*
X306015Y172142D01*
X306109Y170943D01*
X306104Y170762D01*
X306097Y170676D01*
X306097D01*
X306096Y170408D01*
X306020Y169449D01*
X305756Y168347D01*
X305551Y167854D01*
X305450Y167609D01*
X305450D01*
X305323Y167302D01*
X304745Y166359D01*
X304027Y165519D01*
X303701Y165241D01*
X303701Y165241D01*
X303178Y164795D01*
X302128Y164152D01*
X301328Y163820D01*
X301074Y163733D01*
X300456Y163523D01*
X299171Y163268D01*
X298052Y163195D01*
X297787Y163188D01*
X297520Y163192D01*
X295877Y163273D01*
X295186Y163376D01*
X294919Y163405D01*
X293629Y163662D01*
X292851Y163926D01*
X292603Y164010D01*
X292351Y164101D01*
X291221Y164569D01*
X290183Y165143D01*
X289955Y165285D01*
X289955D01*
X289159Y165761D01*
X287676Y166861D01*
X287575Y166953D01*
X287391Y167120D01*
X287163Y167326D01*
X287127Y167308D01*
X287123Y167297D01*
X287123Y167000D01*
Y166753D01*
Y163866D01*
X284355D01*
Y181291D01*
X284355Y181292D01*
X284367Y181292D01*
X284357Y181461D01*
X284448Y183074D01*
X284718Y184666D01*
X284939Y185431D01*
X284932Y185433D01*
X284992Y185686D01*
X285451Y186793D01*
X286077Y187814D01*
X286712Y188558D01*
X286901Y188745D01*
X287689Y189418D01*
X288755Y190071D01*
X289879Y190537D01*
X289900Y190527D01*
X291090Y190870D01*
X292696Y191143D01*
X294322Y191234D01*
X294665Y191215D01*
D02*
G37*
G36*
X214858Y163866D02*
X212091D01*
Y183355D01*
X212087Y183364D01*
X212095Y183372D01*
X210961Y184624D01*
X209478Y185967D01*
X208058Y187021D01*
X207872Y187159D01*
X207840Y187178D01*
X207830Y187163D01*
X207038Y187649D01*
X205868Y188134D01*
X204637Y188429D01*
X203424Y188525D01*
Y188525D01*
X203192Y188533D01*
X203157Y188531D01*
X201833Y188426D01*
X200736Y188163D01*
X200506Y188108D01*
X200475Y188095D01*
X200225Y187997D01*
X200205Y187991D01*
X199419Y187570D01*
X198729Y187004D01*
X198529Y186760D01*
X198530Y186759D01*
X198361Y186553D01*
X198218Y186379D01*
X197716Y185440D01*
X197437Y184520D01*
X197437Y184520D01*
X197188Y183057D01*
X197104Y181558D01*
X197100Y181487D01*
X197111Y181291D01*
X197122Y181026D01*
Y163866D01*
X194355D01*
Y181532D01*
X194355Y181532D01*
X194359Y181532D01*
X194357Y181578D01*
X194432Y183109D01*
X194454Y183375D01*
X194454D01*
X194471Y183668D01*
X194656Y184759D01*
X194711Y185021D01*
X194826Y185597D01*
X195124Y186474D01*
X195210Y186728D01*
X195503Y187434D01*
X196052Y188330D01*
X196734Y189129D01*
X197534Y189812D01*
X198418Y190354D01*
X198420Y190353D01*
X198420Y190353D01*
Y190353D01*
X199408Y190762D01*
X199665Y190828D01*
X199923Y190901D01*
X201122Y191140D01*
X202379Y191222D01*
X202606Y191225D01*
X202646Y191222D01*
Y191222D01*
X202911Y191210D01*
X204045Y191146D01*
X204703Y191034D01*
X204967Y190989D01*
X205713Y190840D01*
X206745Y190490D01*
X206995Y190401D01*
X207234Y190288D01*
X208329Y189748D01*
X209454Y188997D01*
X209456Y188984D01*
X209817Y188728D01*
X211229Y187466D01*
X211641Y187005D01*
X211806Y186820D01*
X212031Y186569D01*
X212059Y186580D01*
X212059Y186579D01*
X212070Y186584D01*
X212074Y186594D01*
X212074Y186923D01*
Y186923D01*
X212075Y187171D01*
X212091Y201575D01*
X214858D01*
Y163866D01*
D02*
G37*
G36*
X174948Y191216D02*
Y191216D01*
X175216Y191209D01*
X176301Y191148D01*
X176833Y191058D01*
X176833Y191058D01*
X176833Y191058D01*
X176833D01*
X176853Y191071D01*
X178043Y190785D01*
X178910Y190426D01*
X178910D01*
X178911Y190426D01*
X179933Y189922D01*
X181224Y189059D01*
X181229Y189030D01*
Y189030D01*
X181708Y188675D01*
X183008Y187497D01*
X183455Y187004D01*
X183621Y186820D01*
X183621D01*
X183848Y186570D01*
X183875Y186580D01*
X183875Y186579D01*
X183875Y186579D01*
X183885Y186583D01*
X183886Y186584D01*
X183890Y186594D01*
Y186924D01*
X183890Y187172D01*
Y190545D01*
X186657D01*
Y163866D01*
X183890D01*
Y183288D01*
Y183288D01*
X183886Y183297D01*
X183890Y183300D01*
X183599Y183693D01*
X182310Y185115D01*
X180889Y186403D01*
X179891Y187143D01*
X179901Y187157D01*
X178966Y187730D01*
X177907Y188169D01*
X176792Y188436D01*
X175709Y188521D01*
Y188521D01*
X175512Y188527D01*
X175442Y188522D01*
X174464Y188445D01*
X173443Y188199D01*
X173432Y188195D01*
X173185Y188096D01*
X173064Y188059D01*
X172938Y187992D01*
X172424Y187717D01*
X171863Y187257D01*
X171499Y186812D01*
X171485Y186821D01*
X171485Y186821D01*
X171454Y186784D01*
X171350Y186588D01*
X170939Y185820D01*
X170639Y184831D01*
X170622Y184775D01*
X170602Y184567D01*
X170607Y184566D01*
X170418Y183289D01*
X170333Y181557D01*
X170331Y181528D01*
X170343Y181291D01*
X170353Y181026D01*
Y163855D01*
X167586D01*
Y183277D01*
X167582Y183286D01*
X167584Y183287D01*
X167248Y183740D01*
X166090Y185017D01*
X164813Y186174D01*
X163505Y187145D01*
X163500Y187138D01*
X162659Y187654D01*
X161510Y188129D01*
X160301Y188420D01*
X159413Y188490D01*
X159159Y188513D01*
Y188513D01*
X159151Y188513D01*
X158847Y188493D01*
X158579Y188477D01*
X158031Y188434D01*
Y188434D01*
X157809Y188415D01*
X157766Y188405D01*
X157519Y188345D01*
X157519Y188345D01*
X157039Y188230D01*
X157041Y188224D01*
X156789Y188147D01*
X156592Y188087D01*
X156518Y188063D01*
X156190Y187887D01*
X156190D01*
X156186Y187885D01*
X156186Y187885D01*
X155955Y187762D01*
X155808Y187683D01*
Y187683D01*
X155794Y187671D01*
X155614Y187524D01*
X155608Y187519D01*
X155601Y187513D01*
X155273Y187244D01*
X154919Y186813D01*
X154917Y186815D01*
X154917Y186815D01*
X154843Y186725D01*
X154696Y186450D01*
X154696Y186450D01*
X154696D01*
X154483Y186052D01*
X154490Y186048D01*
X154306Y185605D01*
X154305Y185605D01*
X154220Y185400D01*
X154214Y185376D01*
X154214Y185376D01*
X154209Y185357D01*
X154145Y185118D01*
X154109Y185011D01*
X154076Y184846D01*
X154024Y184585D01*
X153910Y184013D01*
X153910D01*
X153872Y183747D01*
X153856Y183656D01*
X153809Y183398D01*
X153787Y183005D01*
X153770Y182737D01*
X153712Y181556D01*
X153701Y181332D01*
X153703Y181291D01*
X153725Y181032D01*
Y163866D01*
X151147D01*
X150957Y164056D01*
X150990Y181532D01*
X150993Y181532D01*
X150990Y181590D01*
X151065Y183108D01*
X151084Y183375D01*
X151111Y183853D01*
X151265Y184759D01*
X151312Y185022D01*
X151364Y185284D01*
X151484Y185887D01*
X151684Y186475D01*
X151684Y186475D01*
X151684Y186475D01*
X151904Y187123D01*
X152204Y187732D01*
X152321Y187974D01*
X152732Y188645D01*
X153349Y189367D01*
X154072Y189985D01*
X154653Y190341D01*
X154653D01*
X154885Y190477D01*
X155520Y190740D01*
X155763Y190838D01*
X156012Y190898D01*
X156972Y191128D01*
X158181Y191223D01*
X158443Y191226D01*
X158448Y191225D01*
Y191225D01*
X158712Y191211D01*
X159858Y191147D01*
X160800Y190987D01*
X160801Y190985D01*
X161560Y190834D01*
X162853Y190395D01*
X163210Y190219D01*
X163209Y190217D01*
X164044Y189805D01*
X165286Y188975D01*
X165569Y188727D01*
X165567Y188725D01*
X166396Y187998D01*
X167469Y186774D01*
X167764Y186332D01*
X167825Y186345D01*
X167868Y186523D01*
X167893Y186587D01*
X167902Y186609D01*
X168277Y187514D01*
X168834Y188422D01*
X169525Y189232D01*
X170270Y189867D01*
X170495Y190011D01*
X170723Y190151D01*
X171081Y190370D01*
X172233Y190847D01*
X173445Y191138D01*
X174688Y191236D01*
X174948Y191216D01*
D02*
G37*
G36*
X276876Y198841D02*
X253466D01*
X253462Y198839D01*
X253457Y198838D01*
X253457Y198837D01*
X253457Y198837D01*
X253456Y198837D01*
X253454Y198832D01*
X253452Y198828D01*
X253452Y198827D01*
X253452Y198826D01*
X253453Y198822D01*
X253455Y198817D01*
X253656Y198572D01*
X253813Y198380D01*
X279136Y167499D01*
Y163866D01*
X249901D01*
Y166595D01*
X275766D01*
X276014Y166595D01*
X276331D01*
X276336Y166597D01*
X276341Y166598D01*
X276341Y166598D01*
X276341Y166599D01*
X276342Y166599D01*
X276343Y166604D01*
X276346Y166608D01*
X276346Y166608D01*
X276345Y166609D01*
X276346Y166609D01*
X276344Y166614D01*
X276343Y166619D01*
X276141Y166863D01*
Y166863D01*
X275984Y167055D01*
X250617Y197903D01*
Y201575D01*
X276876D01*
Y198841D01*
D02*
G37*
G36*
X336304Y190559D02*
X336308Y190549D01*
X336319Y190545D01*
X339744D01*
Y187817D01*
X336319D01*
X336308Y187812D01*
X336304Y187802D01*
Y171470D01*
X336304Y171470D01*
X336293Y171470D01*
X336303Y171224D01*
X336209Y168834D01*
X336107Y167973D01*
X336105Y167972D01*
X336071Y167534D01*
X335835Y166552D01*
X335493Y165727D01*
X335362Y165493D01*
X335362D01*
X335241Y165268D01*
X334807Y164739D01*
X334278Y164305D01*
X333719Y164006D01*
X333703Y164012D01*
X333256Y163827D01*
X332189Y163571D01*
X331096Y163485D01*
X330816Y163507D01*
X330559Y163487D01*
X330462Y163488D01*
X330343Y163490D01*
X330343D01*
X330257Y163492D01*
X329990Y163522D01*
X329990Y163522D01*
X329638Y163545D01*
X329368Y163540D01*
X329282Y163546D01*
X329046Y163566D01*
X328810Y163588D01*
X328469Y163624D01*
X328464Y165990D01*
X328567Y166122D01*
X328713Y166224D01*
X328722Y166225D01*
X328840Y166222D01*
X328841Y166222D01*
X328901Y166221D01*
X328902Y166221D01*
X328961Y166220D01*
X329075Y166220D01*
X329472D01*
X329735Y166205D01*
X329827Y166197D01*
X330004Y166211D01*
X331002Y166290D01*
X331097Y166313D01*
X331356Y166373D01*
X331491Y166391D01*
X331610Y166440D01*
X332026Y166612D01*
X332375Y166880D01*
X332486Y166965D01*
X332563Y167066D01*
X332559Y167070D01*
X332559Y167070D01*
X332559Y167070D01*
X332560Y167072D01*
X332794Y167356D01*
X333111Y167949D01*
X333305Y168589D01*
X333290Y168592D01*
X333465Y169474D01*
X333563Y170964D01*
X333545Y171235D01*
X333545Y171236D01*
X333545D01*
X333537Y171244D01*
Y187808D01*
X333532Y187818D01*
X333522Y187822D01*
X329123D01*
Y190551D01*
X333522D01*
X333532Y190555D01*
X333537Y190565D01*
Y197548D01*
X336304D01*
Y190559D01*
D02*
G37*
G36*
X387795Y179670D02*
X387794Y179307D01*
X387783Y179296D01*
X387749Y178165D01*
X387749D01*
X387741Y177896D01*
X387717Y177014D01*
X387717Y177014D01*
X387717D01*
X387733Y176997D01*
X387673Y175869D01*
X387648Y175846D01*
X387612Y175123D01*
X387331Y173224D01*
X387040Y172061D01*
X387040Y172061D01*
X387040D01*
X387041Y172060D01*
X386742Y171023D01*
X386138Y169565D01*
X385618Y168625D01*
X385618D01*
Y168625D01*
X385623Y168606D01*
X384975Y167636D01*
X384160Y166707D01*
X383314Y165966D01*
X383098Y165807D01*
X383098D01*
X382878Y165661D01*
X382053Y165109D01*
X380606Y164395D01*
X379119Y163891D01*
X379091Y163905D01*
X377782Y163577D01*
X375750Y163276D01*
X373698Y163175D01*
X373285Y163195D01*
X373283Y163200D01*
X372702Y163172D01*
X370794Y163266D01*
X368903Y163546D01*
X367049Y164011D01*
X366183Y164321D01*
X366182Y164317D01*
X365804Y164445D01*
X364609Y165035D01*
X363501Y165775D01*
X362499Y166654D01*
X361734Y167526D01*
X361736Y167537D01*
X361736Y167537D01*
X361736D01*
X361147Y168366D01*
X360459Y169612D01*
X359914Y170926D01*
X359521Y172293D01*
X359449Y172713D01*
X359452Y172714D01*
X359173Y174119D01*
X358868Y176697D01*
X358766Y179291D01*
X358780Y179664D01*
X358768Y179664D01*
X358768Y179664D01*
Y201575D01*
X361535D01*
Y179779D01*
X361532Y179776D01*
Y179776D01*
X361502Y179093D01*
X361602Y176798D01*
X361902Y174521D01*
X362290Y172774D01*
X362287Y172773D01*
X362325Y172581D01*
X362349Y172513D01*
X362741Y171358D01*
X363312Y170199D01*
X364030Y169124D01*
X364364Y168743D01*
X364537Y168546D01*
X364537Y168546D01*
X364537Y168546D01*
X364527Y168536D01*
X364598Y168453D01*
X364720Y168349D01*
X365502Y167681D01*
X366515Y167059D01*
X367614Y166604D01*
X368230Y166456D01*
X368230Y166456D01*
X368230Y166454D01*
X368936Y166277D01*
X370992Y165972D01*
X373001Y165874D01*
X373069Y165870D01*
X373268Y165880D01*
X373484Y165871D01*
X375502Y165970D01*
X377501Y166267D01*
X378254Y166455D01*
X378515Y166519D01*
X378834Y166596D01*
X379975Y167068D01*
X381028Y167713D01*
X381963Y168513D01*
X381950Y168527D01*
X382554Y169216D01*
X383257Y170269D01*
X383817Y171404D01*
X384188Y172496D01*
X384224Y172602D01*
X384255Y172756D01*
X384254Y172756D01*
X384665Y174610D01*
X384961Y176856D01*
X385060Y179119D01*
X385031Y179776D01*
X385031Y179776D01*
X385031D01*
X385028Y179779D01*
Y201575D01*
X387795D01*
Y179670D01*
D02*
G37*
G36*
X349029Y163866D02*
X346261D01*
Y201575D01*
X349029D01*
Y163866D01*
D02*
G37*
G36*
X311177Y191228D02*
X311177D01*
X312708Y191128D01*
X313013Y191067D01*
X313023Y191074D01*
X314249Y190780D01*
X315105Y190426D01*
X315105Y190425D01*
X316073Y189948D01*
X317124Y189246D01*
X317338Y189085D01*
X317617Y188887D01*
X318819Y187813D01*
X319282Y187294D01*
X319447Y187109D01*
X319676Y186853D01*
X319701Y186859D01*
X319701Y186859D01*
X319711Y186863D01*
X319716Y186874D01*
Y186880D01*
X319718Y186887D01*
X319716Y186890D01*
Y187212D01*
X319716Y187460D01*
Y190545D01*
X322483D01*
Y163866D01*
X319716D01*
Y182981D01*
X319713Y182988D01*
X319722Y182993D01*
X319621Y183177D01*
X319588Y183224D01*
X318739Y184420D01*
X318397Y184803D01*
X318218Y185004D01*
X318218Y185004D01*
X318217Y185005D01*
X318039Y185204D01*
X317644Y185646D01*
X316539Y186634D01*
X316353Y186775D01*
X316311Y186812D01*
X316135Y186930D01*
X315226Y187537D01*
X314224Y188031D01*
X314220Y188022D01*
X313692Y188241D01*
X312820Y188451D01*
X312176Y188501D01*
X311925Y188521D01*
X311915Y188520D01*
X311653Y188505D01*
X311164D01*
X310903Y188524D01*
X310873Y188527D01*
X310636Y188504D01*
X310284Y188469D01*
X310086Y188650D01*
X310112Y191184D01*
X310658Y191233D01*
X311172D01*
X311177Y191228D01*
D02*
G37*
%LPC*%
G36*
X233627Y188525D02*
X232272Y188437D01*
X230940Y188172D01*
X229866Y187807D01*
X229869Y187798D01*
X229312Y187567D01*
X228269Y186928D01*
X227339Y186133D01*
X227134Y185894D01*
X226959Y185692D01*
X226959D01*
Y185692D01*
X226668Y185360D01*
X225957Y184295D01*
X225390Y183146D01*
X225061Y182176D01*
X225060Y182176D01*
X224712Y180787D01*
X224450Y179023D01*
X224363Y177242D01*
X224450Y175461D01*
X224712Y173698D01*
X225060Y172309D01*
X225145Y172060D01*
X225400Y171308D01*
X225985Y170122D01*
X226719Y169024D01*
X226957Y168751D01*
X226961Y168752D01*
X226962Y168752D01*
X227398Y168241D01*
X228310Y167462D01*
X229333Y166836D01*
X229869Y166614D01*
X229863Y166598D01*
X230993Y166215D01*
X232229Y165969D01*
X233344Y165896D01*
X233487Y165886D01*
X233611Y165895D01*
X233749Y165886D01*
X235019Y165969D01*
X236267Y166218D01*
X237391Y166599D01*
X237385Y166614D01*
X237921Y166836D01*
X238944Y167462D01*
X239856Y168241D01*
X240292Y168752D01*
X240293Y168752D01*
X240295Y168753D01*
X240297Y168751D01*
X240528Y169016D01*
X241250Y170095D01*
X241824Y171259D01*
X242180Y172308D01*
X242174Y172310D01*
X242492Y173582D01*
X242762Y175403D01*
X242853Y177242D01*
X242762Y179081D01*
X242492Y180902D01*
X242174Y182174D01*
X242180Y182176D01*
X241834Y183195D01*
X241278Y184322D01*
X240580Y185367D01*
X240295Y185692D01*
X240120Y185894D01*
X240119Y185895D01*
X239915Y186133D01*
X238985Y186928D01*
X237942Y187567D01*
X237385Y187798D01*
X237389Y187807D01*
X236314Y188172D01*
X234982Y188437D01*
X233627Y188525D01*
D02*
G37*
G36*
X238462Y164145D02*
X238462D01*
X238462D01*
X238462D01*
D02*
G37*
G36*
X291396Y177637D02*
X291338Y177635D01*
X291077Y177615D01*
X287137D01*
X287127Y177610D01*
X287123Y177600D01*
Y170642D01*
X287127Y170632D01*
X287126Y170632D01*
X287617Y170091D01*
X288838Y168984D01*
X288848Y168985D01*
X289186Y168683D01*
X290555Y167711D01*
X291016Y167456D01*
X291017Y167457D01*
X291877Y166981D01*
X293204Y166432D01*
X293542Y166334D01*
Y166334D01*
X293542D01*
X293547Y166337D01*
X293977Y166191D01*
X295115Y165965D01*
X296273Y165889D01*
X296310Y165884D01*
X296317Y165884D01*
X296684Y165905D01*
X296950Y165920D01*
Y165920D01*
X297562Y165954D01*
X297829Y165975D01*
X298065Y165991D01*
X298149Y166008D01*
X298149Y166010D01*
X298441Y166068D01*
X298699Y166119D01*
X298700Y166119D01*
X298703Y166120D01*
Y166120D01*
X298703Y166120D01*
X298965Y166172D01*
X299235Y166226D01*
X299245Y166242D01*
X299718Y166356D01*
X300206Y166558D01*
X300206Y166558D01*
Y166558D01*
X300726Y166773D01*
X301465Y167226D01*
X301468Y167220D01*
X302104Y167742D01*
X302640Y168395D01*
X303039Y169141D01*
X303284Y169950D01*
X303367Y170792D01*
X303361Y170949D01*
X303370Y171046D01*
X303354Y171217D01*
X303266Y172110D01*
X302955Y173133D01*
X302451Y174076D01*
X301773Y174902D01*
X300946Y175581D01*
X300368Y175890D01*
X300368Y175891D01*
X299984Y176126D01*
X299745Y176225D01*
X299500Y176337D01*
X299311Y176430D01*
X299057Y176516D01*
X299057Y176518D01*
X298306Y176773D01*
X298305Y176771D01*
X297497Y177004D01*
X297497Y177006D01*
X297235Y177082D01*
X296636Y177183D01*
X296625Y177199D01*
X295689Y177338D01*
X295688Y177338D01*
X295688Y177339D01*
X294694Y177470D01*
Y177470D01*
X294686Y177464D01*
X294086Y177535D01*
X293904Y177542D01*
X293637Y177557D01*
X291604Y177629D01*
X291396Y177637D01*
D02*
G37*
%LPD*%
D12*
X-24542Y288582D02*
X-27165Y284646D01*
Y288582D02*
X-24542Y284646D01*
X-28477D02*
X-29789D01*
X-29133D01*
Y288582D01*
X-28477Y287926D01*
D76*
X387748Y177013D02*
G03*
X387789Y178163I-65642J2925D01*
G01*
X335474Y252935D02*
G03*
X335130Y253766I-1175J0D01*
G01*
X330815Y163471D02*
G03*
X333718Y163975I281J7003D01*
G01*
X331352Y166391D02*
G03*
X332549Y167079I-436J2143D01*
G01*
X332549Y167079D02*
G03*
X333276Y168595I-2607J2183D01*
G01*
X331956Y207770D02*
G03*
X332786Y208110I6J1169D01*
G01*
D02*
G03*
X333131Y208939I-825J829D01*
G01*
X334299Y254110D02*
G03*
X333131Y252935I6J-1175D01*
G01*
X329635Y163505D02*
G03*
X329988Y163486I817J11558D01*
G01*
X328449Y166268D02*
G03*
X328517Y166259I390J2670D01*
G01*
X328517D02*
G03*
X328650Y166246I357J2981D01*
G01*
X328650Y166246D02*
G03*
X328715Y166242I259J3440D01*
G01*
X317358Y189111D02*
G03*
X315120Y190459I-7343J-9657D01*
G01*
X310903Y188490D02*
G03*
X310070Y188423I-30J-4838D01*
G01*
X313017Y191096D02*
G03*
X311177Y191247I-1940J-12355D01*
G01*
X305299Y183769D02*
G03*
X305045Y185208I-10825J-1166D01*
G01*
X304854Y185870D02*
G03*
X304619Y186492I-7785J-2576D01*
G01*
X305045Y185208D02*
G03*
X304854Y185870I-8828J-2196D01*
G01*
X301087Y163695D02*
G03*
X303727Y165211I-2522J7449D01*
G01*
X302183Y177807D02*
G03*
X300448Y178725I-6349J-9900D01*
G01*
X302552Y183769D02*
G03*
X300315Y187321I-4723J-495D01*
G01*
X302312Y189407D02*
G03*
X301184Y190071I-4341J-6078D01*
G01*
X304022Y187619D02*
G03*
X302312Y189407I-5585J-3630D01*
G01*
X301184Y190072D02*
G03*
X300545Y190348I-3889J-8108D01*
G01*
X297561Y165974D02*
G03*
X298144Y166041I-1029J11668D01*
G01*
X296310Y165921D02*
G03*
X296949Y165935I7J15084D01*
G01*
X296949Y165935D02*
G03*
X297561Y165974I-557J13276D01*
G01*
X298700Y166133D02*
G03*
X299229Y166253I-1755J8998D01*
G01*
X299229Y166253D02*
G03*
X300201Y166571I-1913J7496D01*
G01*
X298300Y176756D02*
G03*
X297491Y176980I-4194J-13587D01*
G01*
D02*
G03*
X296619Y177169I-4048J-16514D01*
G01*
X299735Y176205D02*
G03*
X299048Y176497I-4253J-9017D01*
G01*
X299048Y176497D02*
G03*
X298300Y176756I-4254J-11102D01*
G01*
X298397Y179439D02*
G03*
X297253Y179720I-5405J-19567D01*
G01*
X297253Y179720D02*
G03*
X296030Y179949I-5024J-23398D01*
G01*
X299462Y179108D02*
G03*
X298397Y179439I-5654J-16287D01*
G01*
X298327Y190956D02*
G03*
X297487Y191084I-2889J-16079D01*
G01*
X297948Y188198D02*
G03*
X297361Y188303I-2406J-11725D01*
G01*
X297487Y191084D02*
G03*
X296597Y191176I-2395J-18929D01*
G01*
X297361Y188303D02*
G03*
X296737Y188385I-2146J-13951D01*
G01*
Y188385D02*
G03*
X296075Y188443I-1791J-16500D01*
G01*
X299117Y190790D02*
G03*
X298327Y190956I-3263J-13603D01*
G01*
X299856Y190588D02*
G03*
X299117Y190790I-3539J-11469D01*
G01*
X299481Y187742D02*
G03*
X299008Y187917I-2764J-6736D01*
G01*
X299008Y187917D02*
G03*
X298497Y188069I-2699J-8143D01*
G01*
X298497Y188069D02*
G03*
X297948Y188198I-2585J-9797D01*
G01*
X296036Y206511D02*
G03*
X298156Y205393I2239J1675D01*
G01*
X297910Y207898D02*
G03*
X298156Y207770I401J467D01*
G01*
X297836Y219877D02*
G03*
X298665Y219532I829J825D01*
G01*
X297496Y220707D02*
G03*
X297836Y219877I1169J-6D01*
G01*
X299496Y219876D02*
G03*
X299840Y220707I-831J831D01*
G01*
X298665Y219532D02*
G03*
X299496Y219876I0J1175D01*
G01*
X297496Y250843D02*
G03*
X297152Y251674I-1175J0D01*
G01*
X298937Y253436D02*
G03*
X296758Y254339I-2179J-2179D01*
G01*
X292591Y163975D02*
G03*
X295181Y163337I4219J11559D01*
G01*
X295686Y177324D02*
G03*
X294692Y177445I-3399J-23875D01*
G01*
X294692Y177445D02*
G03*
X293635Y177531I-2847J-28397D01*
G01*
X294728Y180128D02*
G03*
X293347Y180255I-3736J-32915D01*
G01*
X293347Y180255D02*
G03*
X291887Y180332I-2761J-38706D01*
G01*
X295656Y191230D02*
G03*
X294666Y191247I-950J-25879D01*
G01*
X288855Y169003D02*
G03*
X291025Y167471I9669J11389D01*
G01*
X284987Y205737D02*
G03*
X285331Y206567I-831J831D01*
G01*
X284987Y207398D02*
G03*
X284156Y207742I-831J-831D01*
G01*
X285331Y206567D02*
G03*
X284987Y207398I-1175J0D01*
G01*
X284156Y205393D02*
G03*
X284987Y205737I0J1175D01*
G01*
X265687Y251850D02*
G03*
X265715Y251526I274J-140D01*
G01*
X263758Y254339D02*
G03*
X262325Y253518I-95J-1496D01*
G01*
X253573Y208911D02*
G03*
X253917Y208082I1169J0D01*
G01*
X253917D02*
G03*
X254747Y207742I825J829D01*
G01*
X251229Y208508D02*
G03*
X252119Y206311I3087J-28D01*
G01*
X251229Y250827D02*
G03*
X250060Y252001I-1175J0D01*
G01*
X252670Y253436D02*
G03*
X250491Y254339I-2179J-2179D01*
G01*
X211209Y205393D02*
G03*
X214291Y208480I-6J3087D01*
G01*
X210773Y207764D02*
G03*
X211603Y208105I6J1169D01*
G01*
Y208105D02*
G03*
X211948Y208933I-825J829D01*
G01*
X209475Y189010D02*
G03*
X207003Y190420I-6829J-9106D01*
G01*
X204710Y191074D02*
G03*
X202646Y191247I-2112J-12775D01*
G01*
X198541Y186750D02*
G03*
X197467Y184513I4194J-3389D01*
G01*
X199656Y190859D02*
G03*
X198410Y190373I2062J-7129D01*
G01*
X197489Y206590D02*
G03*
X197823Y205747I1174J-22D01*
G01*
X198658Y207764D02*
G03*
X197489Y206590I6J-1175D01*
G01*
X197823Y205747D02*
G03*
X198658Y205393I840J821D01*
G01*
X195088Y186487D02*
G03*
X194673Y185030I10141J-3678D01*
G01*
X194673Y185030D02*
G03*
X194423Y183378I14130J-2976D01*
G01*
X178925Y190459D02*
G03*
X176839Y191096I-3554J-7895D01*
G01*
X175709Y188490D02*
G03*
X173192Y188076I-197J-6659D01*
G01*
X165591Y188753D02*
G03*
X163225Y190252I-7256J-8835D01*
G01*
X159159Y188479D02*
G03*
X158580Y188462I-8J-9729D01*
G01*
X154936Y186801D02*
G03*
X154709Y186443I3402J-2412D01*
G01*
Y186443D02*
G03*
X154505Y186042I4321J-2445D01*
G01*
X154505Y186042D02*
G03*
X154326Y185598I5460J-2467D01*
G01*
X158449Y191247D02*
G03*
X155757Y190859I-120J-8690D01*
G01*
X156196Y187875D02*
G03*
X155826Y187657I1793J-3469D01*
G01*
X155757Y190859D02*
G03*
X154635Y190373I1930J-5992D01*
G01*
X158034Y188412D02*
G03*
X157522Y188328I869J-6904D01*
G01*
X157522Y188328D02*
G03*
X157045Y188210I1172J-5791D01*
G01*
X157045Y188210D02*
G03*
X156603Y188059I1413J-4859D01*
G01*
X156603Y188059D02*
G03*
X156196Y187875I1612J-4092D01*
G01*
X153787Y182736D02*
G03*
X153739Y181291I20549J-1404D01*
G01*
X151273Y185030D02*
G03*
X151050Y183378I15654J-2958D01*
G01*
X154038Y184582D02*
G03*
X153930Y184009I10540J-2280D01*
G01*
X151646Y186487D02*
G03*
X151273Y185030I11142J-3629D01*
G01*
X154170Y185111D02*
G03*
X154038Y184582I8536J-2404D01*
G01*
X153930Y184009D02*
G03*
X153847Y183394I12900J-2070D01*
G01*
X387789Y178163D02*
G03*
X387808Y179296I-57425J1552D01*
G01*
X383117Y165781D02*
G03*
X385651Y168606I-5639J7607D01*
G01*
X384230Y172762D02*
G03*
X385013Y179776I-25133J6357D01*
G01*
X361550Y179776D02*
G03*
X362310Y172779I26279J-683D01*
G01*
X358753Y179664D02*
G03*
X359413Y172706I33076J-373D01*
G01*
X336145Y167968D02*
G03*
X336319Y171470I-30292J3255D01*
G01*
X335396Y165474D02*
G03*
X336145Y167968I-5685J3068D01*
G01*
X333276Y168595D02*
G03*
X333522Y171235I-11127J2369D01*
G01*
X319701Y182981D02*
G03*
X318208Y184994I-11590J-7035D01*
G01*
X316334Y186750D02*
G03*
X314214Y188009I-6095J-7851D01*
G01*
X305483Y167594D02*
G03*
X306126Y170676I-6594J2984D01*
G01*
X301450Y167247D02*
G03*
X303330Y170950I-2397J3545D01*
G01*
X298144Y166041D02*
G03*
X298700Y166133I-1424J10246D01*
G01*
X299917Y187543D02*
G03*
X299481Y187742I-2795J-5551D01*
G01*
X299840Y251257D02*
G03*
X298937Y253436I-3082J0D01*
G01*
X297152Y251674D02*
G03*
X296322Y252018I-831J-831D01*
G01*
X290572Y187869D02*
G03*
X288334Y186163I1770J-4641D01*
G01*
X286690Y188579D02*
G03*
X284900Y185442I5564J-5253D01*
G01*
X284900D02*
G03*
X284341Y181292I13859J-3981D01*
G01*
X287361Y183596D02*
G03*
X287154Y180358I22926J-3091D01*
G01*
X262325Y253518D02*
G03*
X262516Y251878I1338J-675D01*
G01*
X240283Y168763D02*
G03*
X242157Y172314I-7627J6294D01*
G01*
Y182170D02*
G03*
X240283Y185682I-9196J-2649D01*
G01*
X225081Y172314D02*
G03*
X226971Y168763I9653J2859D01*
G01*
X226971Y185682D02*
G03*
X225081Y182170I7468J-6284D01*
G01*
X212850Y253436D02*
G03*
X211948Y251257I2179J-2179D01*
G01*
X200487Y188059D02*
G03*
X198541Y186750I1459J-4272D01*
G01*
X194423Y183378D02*
G03*
X194340Y181532I19461J-1801D01*
G01*
X183875Y186594D02*
G03*
X181252Y189060I-13510J-11740D01*
G01*
X173192Y188076D02*
G03*
X171514Y186801I1288J-3436D01*
G01*
X170625Y184564D02*
G03*
X170368Y181291I17667J-3035D01*
G01*
X155826Y187657D02*
G03*
X154936Y186801I1876J-2840D01*
G01*
X152169Y187750D02*
G03*
X151646Y186487I7843J-3986D01*
G01*
X151050Y183378D02*
G03*
X150976Y181532I21618J-1788D01*
G01*
X153847Y183394D02*
G03*
X153787Y182736I15650J-1755D01*
G01*
X387077Y172052D02*
G03*
X387687Y175844I-18930J4988D01*
G01*
X381937Y168539D02*
G03*
X384230Y172762I-7060J6568D01*
G01*
X362310Y172779D02*
G03*
X364548Y168556I9557J2359D01*
G01*
X303330Y170950D02*
G03*
X300360Y175877I-5413J96D01*
G01*
X170474Y190045D02*
G03*
X167795Y186353I3851J-5613D01*
G01*
X244679Y171280D02*
G03*
X244679Y183182I-20194J5951D01*
G01*
X242157Y172314D02*
G03*
X242157Y182170I-18066J4928D01*
G01*
X225081D02*
G03*
X225081Y172314I17451J-4928D01*
G01*
X222424Y183132D02*
G03*
X222424Y171296I20239J-5918D01*
G01*
X379101Y163869D02*
G03*
X383117Y165781I-3218J11929D01*
G01*
X373284Y163164D02*
G03*
X379101Y163869I414J20943D01*
G01*
X378251Y166470D02*
G03*
X381937Y168539I-1848J7609D01*
G01*
X364548Y168556D02*
G03*
X368233Y166470I5407J5254D01*
G01*
X333718Y163975D02*
G03*
X335396Y165474I-1378J3231D01*
G01*
X329735Y166235D02*
G03*
X331352Y166391I92J7472D01*
G01*
X332392Y205393D02*
G03*
X335474Y208480I-6J3087D01*
G01*
X335130Y253766D02*
G03*
X334299Y254110I-831J-831D01*
G01*
X318208Y184994D02*
G03*
X316334Y186750I-9913J-8699D01*
G01*
X315120Y190459D02*
G03*
X313017Y191096I-3555J-7938D01*
G01*
X314214Y188009D02*
G03*
X311915Y188490I-2289J-5207D01*
G01*
X297787Y163164D02*
G03*
X301087Y163695I78J10028D01*
G01*
X289934Y165250D02*
G03*
X292591Y163975I7657J12547D01*
G01*
X295181Y163337D02*
G03*
X297787Y163164I2570J18955D01*
G01*
X291025Y167471D02*
G03*
X293547Y166352I6408J11045D01*
G01*
X300201Y166571D02*
G03*
X301450Y167247I-2273J5691D01*
G01*
X293635Y177531D02*
G03*
X291338Y177600I-2239J-36313D01*
G01*
X296619Y177169D02*
G03*
X295686Y177324I-3791J-19929D01*
G01*
X300360Y175877D02*
G03*
X299735Y176205I-4215J-7286D01*
G01*
X296030Y179949D02*
G03*
X294728Y180128I-4479J-27830D01*
G01*
X291887Y180332D02*
G03*
X290348Y180358I-1520J-45255D01*
G01*
X288334Y186163D02*
G03*
X287361Y183596I4767J-3275D01*
G01*
X300315Y187321D02*
G03*
X299917Y187543I-2808J-4565D01*
G01*
X289889Y190559D02*
G03*
X286690Y188579I2482J-7586D01*
G01*
X294666Y191247D02*
G03*
X289889Y190559I-344J-14538D01*
G01*
X294638Y188490D02*
G03*
X290572Y187869I-428J-10826D01*
G01*
X296597Y191176D02*
G03*
X295656Y191230I-1756J-22186D01*
G01*
X296075Y188443D02*
G03*
X294638Y188490I-1401J-20959D01*
G01*
X300545Y190348D02*
G03*
X299856Y190588I-3740J-9648D01*
G01*
X252119Y206311D02*
G03*
X254305Y205393I2197J2169D01*
G01*
X237380Y166626D02*
G03*
X240283Y168763I-2929J7020D01*
G01*
X226971Y168763D02*
G03*
X229874Y166626I5832J4883D01*
G01*
X233610Y191247D02*
G03*
X228632Y190291I-162J-12589D01*
G01*
X212076Y183355D02*
G03*
X207820Y187148I-15531J-13147D01*
G01*
X203424Y188490D02*
G03*
X200487Y188059I-231J-8650D01*
G01*
X202646Y191247D02*
G03*
X199656Y190859I-137J-10647D01*
G01*
X207003Y190420D02*
G03*
X204710Y191074I-3907J-9346D01*
G01*
X215460Y252001D02*
G03*
X214291Y250827I6J-1175D01*
G01*
X215030Y254339D02*
G03*
X212850Y253436I0J-3082D01*
G01*
X171514Y186801D02*
G03*
X170625Y184564I4573J-3113D01*
G01*
X174949Y191247D02*
G03*
X170474Y190045I-261J-7955D01*
G01*
X176839Y191096D02*
G03*
X174949Y191247I-1943J-12417D01*
G01*
X181252Y189060D02*
G03*
X178925Y190459I-7498J-9841D01*
G01*
X154325Y185598D02*
G03*
X154170Y185111I6854J-2460D01*
G01*
X160809Y191024D02*
G03*
X158449Y191247I-2389J-12641D01*
G01*
X154635Y190373D02*
G03*
X152169Y187750I2999J-5290D01*
G01*
X158580Y188462D02*
G03*
X158034Y188412I482J-8212D01*
G01*
X163225Y190252D02*
G03*
X160809Y191024I-4366J-9499D01*
G01*
X373267Y165910D02*
G03*
X378251Y166470I216J20554D01*
G01*
X385651Y168606D02*
G03*
X387077Y172052I-12190J7064D01*
G01*
X361706Y167515D02*
G03*
X366170Y164283I7997J6344D01*
G01*
X303727Y165211D02*
G03*
X305483Y167594I-4682J5290D01*
G01*
X304619Y186492D02*
G03*
X304022Y187619I-6688J-2821D01*
G01*
X287137Y167297D02*
G03*
X289934Y165250I12475J14108D01*
G01*
X293547Y166352D02*
G03*
X296310Y165921I2725J8406D01*
G01*
X287137Y170642D02*
G03*
X288855Y169003I14404J13373D01*
G01*
X300448Y178725D02*
G03*
X299462Y179108I-5806J-13503D01*
G01*
X253573Y251257D02*
G03*
X252670Y253436I-3082J0D01*
G01*
X265967Y252018D02*
G03*
X265687Y251850I-6J-308D01*
G01*
X238476Y164109D02*
G03*
X242246Y166850I-3875J9292D01*
G01*
X242246Y166850D02*
G03*
X244679Y171280I-9794J8263D01*
G01*
X240283Y185682D02*
G03*
X237380Y187785I-5880J-5061D01*
G01*
X244679Y183182D02*
G03*
X242263Y187578I-11891J-3673D01*
G01*
X229874Y166626D02*
G03*
X233610Y165921I3613J8898D01*
G01*
X224834Y166867D02*
G03*
X228627Y164109I7820J6768D01*
G01*
X222424Y171297D02*
G03*
X224834Y166867I12125J3728D01*
G01*
X224846Y187534D02*
G03*
X222424Y183132I9513J-8101D01*
G01*
X229874Y187785D02*
G03*
X226971Y185682I2977J-7164D01*
G01*
X212060Y186594D02*
G03*
X209475Y189010I-12769J-11066D01*
G01*
X207820Y187148D02*
G03*
X203424Y188490I-4446J-6689D01*
G01*
X197467Y184513D02*
G03*
X197137Y181291I13652J-3026D01*
G01*
X179882Y187131D02*
G03*
X175709Y188490I-4233J-5912D01*
G01*
X167795Y186353D02*
G03*
X165591Y188753I-10197J-7153D01*
G01*
X163488Y187120D02*
G03*
X159159Y188479I-4427J-6527D01*
G01*
X359413Y172706D02*
G03*
X361706Y167515I12477J2411D01*
G01*
X242263Y187578D02*
G03*
X238476Y190319I-7773J-6753D01*
G01*
X228632Y190291D02*
G03*
X224846Y187534I3986J-9452D01*
G01*
X198410Y190373D02*
G03*
X195088Y186487I3060J-5979D01*
G01*
X366170Y164283D02*
G03*
X373284Y163164I6533J18365D01*
G01*
X228627Y164109D02*
G03*
X238476Y164109I4925J12488D01*
G01*
X237380Y187785D02*
G03*
X229874Y187785I-3753J-9643D01*
G01*
X238476Y190319D02*
G03*
X233610Y191247I-4720J-11521D01*
G01*
X368233Y166470D02*
G03*
X373267Y165910I4835J20588D01*
G01*
X319701Y186874D02*
G03*
X317358Y189111I-11046J-9225D01*
G01*
X233610Y165921D02*
G03*
X237380Y166626I139J9692D01*
G01*
X167571Y183277D02*
G03*
X163488Y187120I-13900J-10680D01*
G01*
X183875Y183288D02*
G03*
X179882Y187131I-15390J-11999D01*
G01*
X306126Y170676D02*
G03*
X302183Y177807I-8040J210D01*
G01*
X387687Y175844D02*
X387748Y177013D01*
X387808Y179296D02*
X387810Y179669D01*
X339758Y187802D02*
Y190559D01*
X330697Y163472D02*
X330815Y163471D01*
X330579Y163472D02*
X330697Y163472D01*
X330461Y163473D02*
X330579Y163472D01*
X330225Y163478D02*
X330343Y163475D01*
X330106Y163481D02*
X330225Y163478D01*
X329988Y163486D02*
X330106Y163481D01*
X329517Y163514D02*
X329635Y163505D01*
X329281Y163532D02*
X329517Y163514D01*
X329045Y163552D02*
X329281Y163532D01*
X328808Y163574D02*
X329045Y163552D01*
X328454Y163611D02*
X328808Y163574D01*
X328715Y166242D02*
X328779Y166239D01*
X328841Y166237D01*
X328902Y166235D01*
X328961Y166235D01*
X329075Y166235D01*
X329735D01*
X329109Y187808D02*
Y190565D01*
X310657Y191247D02*
X311177D01*
X310070Y188423D02*
X310098Y191197D01*
X310657Y191247D01*
X310903Y188490D02*
X311915D01*
X284341Y163852D02*
X287137D01*
X194340D02*
X197137D01*
X167571Y163841D02*
X170368D01*
X150942Y163852D02*
X153739D01*
X336319Y190559D02*
Y197562D01*
X333522Y190565D02*
Y197562D01*
X328449Y166268D02*
X328454Y163611D01*
X287137Y163852D02*
Y167297D01*
X279150Y163852D02*
Y167504D01*
X276891Y198826D02*
Y201589D01*
X249886Y163852D02*
Y166609D01*
X250603Y197898D02*
Y201589D01*
X319701Y186874D02*
Y190559D01*
X287137Y170642D02*
Y177600D01*
X212060Y186594D02*
X212076Y201589D01*
X183875Y186594D02*
Y190559D01*
X387810Y179669D02*
Y201589D01*
X385013Y179776D02*
Y201589D01*
X361550Y179776D02*
Y201589D01*
X358753Y179664D02*
Y201589D01*
X349043Y163852D02*
Y201589D01*
X346247Y163852D02*
Y201589D01*
X335474Y208480D02*
Y252935D01*
X336319Y171470D02*
Y187802D01*
X333131Y208939D02*
Y252935D01*
X333522Y171235D02*
Y187808D01*
X322498Y163852D02*
Y190559D01*
X319701Y163852D02*
Y182981D01*
X297496Y220707D02*
Y250843D01*
X299840Y220707D02*
Y251257D01*
X284341Y163852D02*
Y181291D01*
X253573Y208911D02*
Y251257D01*
X251229Y208508D02*
Y250827D01*
X214873Y163852D02*
Y201589D01*
X211948Y208933D02*
Y251257D01*
X214291Y208480D02*
Y250827D01*
X212076Y163852D02*
Y183355D01*
X194340Y163852D02*
Y181532D01*
X197137Y163852D02*
Y181291D01*
X186672Y163852D02*
Y190559D01*
X183875Y163852D02*
Y183288D01*
X167571Y163841D02*
Y183277D01*
X170368Y163841D02*
Y181291D01*
X150942Y163852D02*
X150976Y181532D01*
X153739Y163852D02*
Y181291D01*
X385013Y201589D02*
X387810D01*
X358753D02*
X361550D01*
X346247Y163852D02*
X349043D01*
X346247Y201589D02*
X349043D01*
X319701Y163852D02*
X322498D01*
X330343Y163475D02*
X330461Y163473D01*
X329109Y190565D02*
X333522D01*
X329109Y187808D02*
X333522D01*
X319701Y190559D02*
X322498D01*
X333522Y197562D02*
X336319D01*
X302552Y183769D02*
X305299D01*
X287137Y177600D02*
X291338D01*
X287154Y180358D02*
X290348D01*
X212076Y163852D02*
X214873D01*
X212076Y201589D02*
X214873D01*
X183875Y163852D02*
X186672D01*
X183875Y190559D02*
X186672D01*
X336319D02*
X339758D01*
X336319Y187802D02*
X339758D01*
X298156Y207770D02*
X331956D01*
X298156Y205393D02*
X332392D01*
X249886Y166609D02*
X276331D01*
X215460Y252001D02*
X250060D01*
X215030Y254339D02*
X250491D01*
X250603Y197898D02*
X276331Y166609D01*
X249886Y163852D02*
X279150D01*
X253466Y198826D02*
X276891D01*
X250603Y201589D02*
X276891D01*
X254747Y207742D02*
X284156D01*
X254305Y205393D02*
X284156D01*
X198658Y207764D02*
X210773D01*
X198658Y205393D02*
X211209D01*
X263758Y254339D02*
X296758D01*
X265967Y252018D02*
X296322D01*
X262516Y251878D02*
X296036Y206511D01*
X265715Y251526D02*
X297910Y207898D01*
X253466Y198826D02*
X279150Y167504D01*
M02*
