G04*
G04 #@! TF.GenerationSoftware,Altium Limited,Altium Designer,24.0.1 (36)*
G04*
G04 Layer_Physical_Order=4*
G04 Layer_Color=16711680*
%FSLAX25Y25*%
%MOIN*%
G70*
G04*
G04 #@! TF.SameCoordinates,B301E655-177B-44F9-B968-0684169C9831*
G04*
G04*
G04 #@! TF.FilePolarity,Positive*
G04*
G01*
G75*
%ADD12C,0.00787*%
%ADD17C,0.01000*%
%ADD34R,0.11024X0.02165*%
%ADD67C,0.01968*%
%ADD68C,0.01181*%
%ADD69R,0.05906X0.05906*%
%ADD70C,0.05906*%
%ADD71R,0.05906X0.05906*%
%ADD72C,0.18740*%
%ADD73R,0.06653X0.06653*%
%ADD74C,0.06653*%
%ADD75C,0.02362*%
%ADD76C,0.01968*%
%ADD77C,0.01772*%
D12*
X42520Y84252D02*
Y115748D01*
Y84252D02*
X45669Y81102D01*
X28740Y134252D02*
X42520Y120472D01*
X-11811Y134252D02*
X28740D01*
X42520Y115748D02*
Y120472D01*
X-18504Y119685D02*
Y125394D01*
X-26772Y125197D02*
X-19488Y117913D01*
X-13780D01*
X-33858Y125197D02*
X-26772D01*
X-35827Y127165D02*
X-33858Y125197D01*
X-35827Y127165D02*
Y141339D01*
X-40945Y129134D02*
X-27559Y115748D01*
X-9055D01*
X-39370Y144882D02*
X-35827Y141339D01*
X-48819Y144882D02*
X-39370D01*
X-48819Y129134D02*
X-40945D01*
X64567Y115748D02*
X71653Y122835D01*
X42520Y115748D02*
X64567D01*
D17*
X138583Y91339D02*
X138681Y91240D01*
X149781D01*
X138681Y351083D02*
X149781D01*
X138583Y351181D02*
X138681Y351083D01*
Y221161D02*
X149781D01*
X138583Y221260D02*
X138681Y221161D01*
X113386Y64961D02*
Y90158D01*
Y64961D02*
X131496Y46850D01*
X146850D01*
X115354Y65748D02*
X131102Y50000D01*
X115354Y65748D02*
Y90945D01*
X131102Y50000D02*
X143857D01*
X144390Y49467D01*
X117717Y66142D02*
Y91339D01*
Y66142D02*
X131102Y52756D01*
X151575D01*
X152756Y53937D01*
X124409Y64961D02*
X126378D01*
X122441Y66929D02*
X124409Y64961D01*
X120079Y66535D02*
Y91732D01*
X122441Y66929D02*
Y92126D01*
X130709Y55905D02*
X149213D01*
X120079Y66535D02*
X130709Y55905D01*
X125000Y68307D02*
X125000Y68307D01*
Y92323D01*
X129134Y75984D02*
X130709Y74410D01*
X129134Y75984D02*
Y90945D01*
X131496Y79528D02*
X132187Y78837D01*
X131496Y79528D02*
Y91339D01*
X133858Y83071D02*
Y91732D01*
X105118Y268898D02*
X142913Y306693D01*
X1575Y268898D02*
X105118D01*
X142913Y306693D02*
X146850D01*
X142774Y309310D02*
X144390D01*
X394Y270866D02*
X104331D01*
X142774Y309310D01*
X143701Y315748D02*
X149213D01*
X-1969Y274803D02*
X102756D01*
X143701Y315748D01*
X144488Y313779D02*
X152756D01*
X103543Y272835D02*
X144488Y313779D01*
X-787Y272835D02*
X103543D01*
X66142Y276772D02*
X114173Y324803D01*
X-3150Y276772D02*
X66142D01*
X114173Y324803D02*
X126378D01*
X114764Y328150D02*
X125000D01*
X-394Y282283D02*
X68898D01*
X114764Y328150D01*
X118110Y334252D02*
X130709D01*
X68110Y284252D02*
X118110Y334252D01*
X-1969Y284252D02*
X68110D01*
X-3150Y286221D02*
X67323D01*
X-37402Y251969D02*
Y251969D01*
X67323Y286221D02*
X119781Y338679D01*
X-37402Y251969D02*
X-37402Y251969D01*
X119781Y338679D02*
X132187D01*
X-4331Y288189D02*
X66535D01*
X121260Y342913D02*
X133858D01*
X66535Y288189D02*
X121260Y342913D01*
X379134Y106693D02*
X384252Y111811D01*
X379134Y96850D02*
Y106693D01*
X304331D02*
X379134D01*
X221101D02*
X304331D01*
Y92126D02*
Y106693D01*
X304386Y92058D02*
Y92071D01*
X304331Y92126D02*
X304386Y92071D01*
X384252Y91732D02*
X390551Y85433D01*
X379134Y96850D02*
X384252Y91732D01*
X205648Y91240D02*
X221101Y106693D01*
X469291Y112598D02*
X490866D01*
X379134Y366535D02*
X384252Y371654D01*
X379134Y356693D02*
Y366535D01*
X304331D02*
X379134D01*
X221101D02*
X304331D01*
Y351969D02*
Y366535D01*
X304386Y351901D02*
Y351913D01*
X304331Y351969D02*
X304386Y351913D01*
X384252Y351575D02*
X390551Y345276D01*
X379134Y356693D02*
X384252Y351575D01*
X205648Y351083D02*
X221101Y366535D01*
X469291Y372441D02*
X490866D01*
X372205Y54173D02*
X377165Y49213D01*
X402362Y40945D02*
X409055Y47638D01*
X401575Y40945D02*
X402362D01*
X414508Y59449D02*
X419291Y54665D01*
X409055Y59449D02*
X414508D01*
X354305Y46431D02*
X354331Y46457D01*
X356170Y54202D02*
X356299Y54331D01*
X356170Y53086D02*
Y54202D01*
X351320Y48236D02*
X356170Y53086D01*
X299213Y59055D02*
X329528D01*
X332087Y56496D01*
X299213Y34252D02*
X312992Y20472D01*
X299213Y34252D02*
Y59055D01*
X372205Y314016D02*
X377165Y309055D01*
X402362Y300787D02*
X409055Y307480D01*
X401575Y300787D02*
X402362D01*
X414508Y319291D02*
X419291Y314508D01*
X409055Y319291D02*
X414508D01*
X354305Y306274D02*
X354331Y306299D01*
X356170Y314044D02*
X356299Y314173D01*
X356170Y312928D02*
Y314044D01*
X351320Y308079D02*
X356170Y312928D01*
X299213Y318898D02*
X329528D01*
X332087Y316339D01*
X299213Y294094D02*
X312992Y280315D01*
X299213Y294094D02*
Y318898D01*
X160769Y82423D02*
X167717Y89370D01*
X143012Y82423D02*
X160769D01*
X181592Y59118D02*
Y90577D01*
X180929Y91240D02*
X205648D01*
X149781D02*
X180929D01*
X181592Y90577D01*
X149781Y88601D02*
Y91240D01*
X179813Y65933D02*
Y66142D01*
X179134Y65254D02*
X179813Y65933D01*
X179134Y51968D02*
Y65254D01*
X160769Y342265D02*
X167717Y349213D01*
X143012Y342265D02*
X160769D01*
X181592Y318960D02*
Y350419D01*
X180929Y351083D02*
X205648D01*
X149781D02*
X180929D01*
X181592Y350419D01*
X149781Y348444D02*
Y351083D01*
X179813Y325775D02*
Y325984D01*
X179134Y325096D02*
X179813Y325775D01*
X179134Y311811D02*
Y325096D01*
X149781Y221161D02*
X180929D01*
X149781Y218523D02*
Y221161D01*
X40157Y185433D02*
X133858Y91732D01*
X-17717Y185433D02*
X40157D01*
X179134Y181890D02*
Y195175D01*
X179813Y195854D02*
Y196063D01*
X179134Y195175D02*
X179813Y195854D01*
X180929Y221161D02*
X181592Y220498D01*
Y189039D02*
Y220498D01*
X180929Y221161D02*
X205648D01*
X354305Y176353D02*
X354331Y176378D01*
X356170Y183007D02*
Y184123D01*
X356299Y184252D01*
X351320Y178157D02*
X356170Y183007D01*
X5118Y93661D02*
X15354Y83425D01*
X5118Y93661D02*
Y106299D01*
X7480Y101299D02*
X15354Y93425D01*
X7480Y101299D02*
Y107480D01*
X-42126Y160630D02*
X15079Y103425D01*
X15354D01*
X329528Y188976D02*
X332087Y186417D01*
X42913Y160630D02*
X113386Y90158D01*
X-38583Y160630D02*
X42913D01*
X42520Y163779D02*
X115354Y90945D01*
X41732Y170079D02*
X120079Y91732D01*
X42126Y166929D02*
X117717Y91339D01*
X40157Y182677D02*
X131496Y91339D01*
X40945Y176378D02*
X125000Y92323D01*
X41339Y173228D02*
X122441Y92126D01*
X40551Y179528D02*
X129134Y90945D01*
X-37795Y163779D02*
X42520D01*
X-37402Y166929D02*
X42126D01*
X-37402Y170079D02*
X41732D01*
X-37402Y173228D02*
X41339D01*
X-37402Y176378D02*
X40945D01*
X-37402Y179528D02*
X40551D01*
X-19291Y182677D02*
X40157D01*
X-40551Y179528D02*
X-37402Y176378D01*
X-40551Y173228D02*
X-37402Y170079D01*
X-35039Y198425D02*
X-19291Y182677D01*
X87402Y176772D02*
X146850D01*
X62598Y204724D02*
X87934Y179388D01*
X62598Y211024D02*
X84842Y188779D01*
X62598Y214173D02*
X81890Y194882D01*
X62598Y207874D02*
X83858Y186614D01*
X81890Y194882D02*
X126378D01*
X62599Y201575D02*
X87402Y176772D01*
X84842Y188779D02*
X146260D01*
X83858Y186614D02*
X145120D01*
X87934Y179388D02*
X144390D01*
X-30709Y198425D02*
X-17717Y185433D01*
X146260Y188779D02*
X149213Y185827D01*
X152501Y183604D02*
X152756Y183858D01*
X148130Y183604D02*
X152501D01*
X145120Y186614D02*
X148130Y183604D01*
X205648Y221161D02*
X221101Y236614D01*
X143012Y212344D02*
X160769D01*
X167717Y219291D01*
X299213Y164173D02*
X312992Y150394D01*
X299213Y164173D02*
Y188976D01*
X221101Y236614D02*
X304331D01*
Y222047D02*
X304386Y221992D01*
Y221979D02*
Y221992D01*
X304331Y222047D02*
Y236614D01*
X105905Y217323D02*
X125000Y198228D01*
X-40945Y166929D02*
X-37795Y163779D01*
X-48819Y198425D02*
X-35039D01*
X-48819Y173228D02*
X-40551D01*
X-48819Y179528D02*
X-40551D01*
X-37402Y214173D02*
X62598D01*
X-37402Y204724D02*
X62598D01*
X-37795Y201575D02*
X62599D01*
X-37402Y223622D02*
X117323D01*
X132187Y208758D01*
X114567Y220472D02*
X130709Y204331D01*
X-40945Y223622D02*
X-37795Y220472D01*
X114567D01*
X-38583Y207874D02*
X62598D01*
X-37402Y217323D02*
X105905D01*
X120079Y226772D02*
X133858Y212992D01*
X-37402Y229921D02*
X1575Y268898D01*
X-37402Y233071D02*
X394Y270866D01*
X-37402Y236221D02*
X-787Y272835D01*
X-37402Y239370D02*
X-1969Y274803D01*
X-37402Y242520D02*
X-3150Y276772D01*
X-40551Y248819D02*
X-37205Y245472D01*
X-37205D02*
X-394Y282283D01*
X-37402Y248819D02*
X-1969Y284252D01*
X-37402Y255118D02*
X-4331Y288189D01*
X-37402Y251969D02*
X-3150Y286221D01*
X372205Y184095D02*
X377165Y179134D01*
X402362Y170866D02*
X409055Y177559D01*
X401575Y170866D02*
X402362D01*
X414508Y189370D02*
X419291Y184587D01*
X409055Y189370D02*
X414508D01*
X299213Y188976D02*
X329528D01*
X304331Y236614D02*
X379134D01*
Y226772D02*
Y236614D01*
X384252Y221654D02*
X390551Y215354D01*
X469291Y242520D02*
X490866D01*
X379134Y236614D02*
X384252Y241732D01*
X379134Y226772D02*
X384252Y221654D01*
X-37402Y211024D02*
X62598D01*
X-37795Y226772D02*
X120079D01*
X-40551Y255118D02*
X-37402Y251969D01*
X-39370Y154331D02*
X7480Y107480D01*
X-42913Y154331D02*
X5118Y106299D01*
X-48819Y154331D02*
X-42913D01*
X-41732Y211024D02*
X-38583Y207874D01*
X-48819Y211024D02*
X-41732D01*
X-40945Y204724D02*
X-37795Y201575D01*
X-48819Y204724D02*
X-40945D01*
X-48819Y223622D02*
X-40945D01*
Y229921D02*
X-37795Y226772D01*
X-48819Y229921D02*
X-40945D01*
X-40551Y242520D02*
X-37402Y239370D01*
X-48819Y255118D02*
X-40551D01*
X-48819Y160630D02*
X-42126D01*
X-48819Y166929D02*
X-40945D01*
X-40551Y217323D02*
X-37402Y214173D01*
X-48819Y217323D02*
X-40551D01*
X-48819Y248819D02*
X-40551D01*
X-48819Y242520D02*
X-40551D01*
Y236221D02*
X-37402Y233071D01*
X-48819Y236221D02*
X-40551D01*
D34*
X-48819Y113386D02*
D03*
Y116535D02*
D03*
Y119685D02*
D03*
Y122835D02*
D03*
Y125984D02*
D03*
Y129134D02*
D03*
Y132283D02*
D03*
Y135433D02*
D03*
Y138583D02*
D03*
Y141732D02*
D03*
Y144882D02*
D03*
Y148031D02*
D03*
Y151181D02*
D03*
Y154331D02*
D03*
Y157480D02*
D03*
Y160630D02*
D03*
Y163779D02*
D03*
Y166929D02*
D03*
Y170079D02*
D03*
Y173228D02*
D03*
Y176378D02*
D03*
Y179528D02*
D03*
Y182677D02*
D03*
Y198425D02*
D03*
Y201575D02*
D03*
Y204724D02*
D03*
Y207874D02*
D03*
Y211024D02*
D03*
Y214173D02*
D03*
Y217323D02*
D03*
Y220472D02*
D03*
Y223622D02*
D03*
Y226772D02*
D03*
Y229921D02*
D03*
Y233071D02*
D03*
Y236221D02*
D03*
Y239370D02*
D03*
Y242520D02*
D03*
Y245669D02*
D03*
Y248819D02*
D03*
Y251969D02*
D03*
Y255118D02*
D03*
Y258268D02*
D03*
Y261417D02*
D03*
Y264567D02*
D03*
Y267717D02*
D03*
Y270866D02*
D03*
Y274016D02*
D03*
Y277165D02*
D03*
Y280315D02*
D03*
D67*
Y182677D02*
X-41732D01*
X-48819Y163779D02*
X-41732D01*
X-41732Y163779D01*
X-48819Y116535D02*
X-41339D01*
X-48819Y132283D02*
X-41732D01*
X-48819Y141732D02*
X-41732D01*
X-48819Y280315D02*
X-41732D01*
X-42794Y151181D02*
X-40850Y149237D01*
X-48819Y151181D02*
X-42794D01*
X-48819Y157480D02*
X-41972D01*
Y170079D02*
X-41972Y170079D01*
X-48819Y170079D02*
X-41972D01*
X-48819Y176378D02*
X-41972D01*
X-48819Y201575D02*
X-41972D01*
X-48819Y207874D02*
X-41972D01*
X-48819Y214173D02*
X-41972D01*
X-41972Y220472D02*
X-41972Y220472D01*
X-48819Y220472D02*
X-41972D01*
X-48819Y226772D02*
X-41972D01*
X-48819Y233071D02*
X-41972D01*
X-41972Y239370D02*
X-41972Y239370D01*
X-48819Y239370D02*
X-41972D01*
Y245669D02*
X-41972Y245669D01*
X-48819Y245669D02*
X-41972D01*
X-48819Y251969D02*
X-41972D01*
X-48819Y258268D02*
X-41972D01*
X-41972Y264567D02*
X-41972Y264567D01*
X-48819Y264567D02*
X-41972D01*
Y270866D02*
X-41972Y270866D01*
X-48819Y270866D02*
X-41972D01*
X-41945Y277165D02*
X-41888Y277109D01*
X-48819Y277165D02*
X-41945D01*
X-48819Y274016D02*
X-40945D01*
X-40945Y274016D01*
X-48819Y267717D02*
X-40945D01*
X-40945Y267717D01*
X-48819Y261417D02*
X-40945D01*
D68*
X-40157Y113386D02*
X-38583Y114961D01*
X-48819Y113386D02*
X-40157D01*
X-38583Y114961D02*
X-34252D01*
D69*
X15354Y113425D02*
D03*
X492126Y342520D02*
D03*
X233858Y71260D02*
D03*
X492126Y61417D02*
D03*
X233858Y201181D02*
D03*
X492126Y191339D02*
D03*
X233858Y331102D02*
D03*
X492126Y321260D02*
D03*
Y82677D02*
D03*
Y212598D02*
D03*
D70*
X15354Y103425D02*
D03*
Y93425D02*
D03*
Y83425D02*
D03*
X492126Y352520D02*
D03*
Y362520D02*
D03*
Y372520D02*
D03*
X302992Y10472D02*
D03*
Y20472D02*
D03*
X312992Y10472D02*
D03*
X233858Y81260D02*
D03*
X492126Y51417D02*
D03*
X233858Y211181D02*
D03*
X492126Y181339D02*
D03*
X312992Y140394D02*
D03*
X302992Y150394D02*
D03*
Y140394D02*
D03*
X150787Y16535D02*
D03*
Y146457D02*
D03*
X99764Y200000D02*
D03*
X89764Y210000D02*
D03*
Y200000D02*
D03*
X99764Y70079D02*
D03*
X89764Y80079D02*
D03*
Y70079D02*
D03*
X302992Y270315D02*
D03*
Y280315D02*
D03*
X312992Y270315D02*
D03*
X233858Y341102D02*
D03*
X492126Y311260D02*
D03*
X150787Y276378D02*
D03*
X492126Y112677D02*
D03*
Y102677D02*
D03*
Y92677D02*
D03*
Y242598D02*
D03*
Y232598D02*
D03*
Y222598D02*
D03*
X89764Y329921D02*
D03*
Y339921D02*
D03*
X99764Y329921D02*
D03*
D71*
X312992Y20472D02*
D03*
Y150394D02*
D03*
X140787Y16535D02*
D03*
Y146457D02*
D03*
X99764Y210000D02*
D03*
Y80079D02*
D03*
X312992Y280315D02*
D03*
X140787Y276378D02*
D03*
X99764Y339921D02*
D03*
D72*
X518110Y147658D02*
D03*
Y246043D02*
D03*
Y119665D02*
D03*
Y21280D02*
D03*
Y372421D02*
D03*
Y274035D02*
D03*
D73*
X512520Y218661D02*
D03*
Y92283D02*
D03*
Y345039D02*
D03*
D74*
X523701Y213209D02*
D03*
X512520Y207756D02*
D03*
X523701Y202303D02*
D03*
X512520Y196850D02*
D03*
X523701Y191398D02*
D03*
X512520Y185945D02*
D03*
X523701Y180492D02*
D03*
X512520Y175039D02*
D03*
Y48661D02*
D03*
X523701Y54114D02*
D03*
X512520Y59567D02*
D03*
X523701Y65020D02*
D03*
X512520Y70473D02*
D03*
X523701Y75925D02*
D03*
X512520Y81378D02*
D03*
X523701Y86831D02*
D03*
X512520Y301417D02*
D03*
X523701Y306870D02*
D03*
X512520Y312323D02*
D03*
X523701Y317776D02*
D03*
X512520Y323228D02*
D03*
X523701Y328681D02*
D03*
X512520Y334134D02*
D03*
X523701Y339587D02*
D03*
D75*
X45669Y81102D02*
D03*
X66929Y89764D02*
D03*
X46457Y107087D02*
D03*
X71653Y122835D02*
D03*
X42520Y115748D02*
D03*
X416929Y295276D02*
D03*
X18898Y279134D02*
D03*
X242520Y7480D02*
D03*
X428740Y102048D02*
D03*
Y91339D02*
D03*
Y123468D02*
D03*
Y112758D02*
D03*
Y361891D02*
D03*
Y351181D02*
D03*
Y383311D02*
D03*
Y372601D02*
D03*
X261811Y36614D02*
D03*
X286614Y50787D02*
D03*
X279921D02*
D03*
X261811Y296457D02*
D03*
X286614Y310630D02*
D03*
X279921D02*
D03*
X242913Y266929D02*
D03*
X416535Y35433D02*
D03*
X15748Y261024D02*
D03*
X279921Y180709D02*
D03*
X286614D02*
D03*
X14567Y235827D02*
D03*
Y190157D02*
D03*
X15748Y196850D02*
D03*
X261811Y166535D02*
D03*
X428740Y231970D02*
D03*
Y221260D02*
D03*
Y253389D02*
D03*
Y242680D02*
D03*
X242913Y137008D02*
D03*
X-37402Y211024D02*
D03*
Y217323D02*
D03*
Y223622D02*
D03*
Y204724D02*
D03*
X416535Y165354D02*
D03*
X-39370Y154331D02*
D03*
X-37402Y229921D02*
D03*
Y179528D02*
D03*
X-38583Y160630D02*
D03*
X-37402Y173228D02*
D03*
Y166929D02*
D03*
Y236221D02*
D03*
Y242520D02*
D03*
Y248819D02*
D03*
Y255118D02*
D03*
D76*
X-11811Y134252D02*
D03*
X-18504Y125394D02*
D03*
Y119685D02*
D03*
X-13780Y117913D02*
D03*
X-9055Y115748D02*
D03*
D77*
X-19291Y112992D02*
D03*
X138583Y91339D02*
D03*
Y351181D02*
D03*
Y221260D02*
D03*
X141106Y224490D02*
D03*
X141339Y346850D02*
D03*
Y216929D02*
D03*
X141732Y87008D02*
D03*
X115748Y54315D02*
D03*
X24409Y266142D02*
D03*
X113779Y60630D02*
D03*
X126378Y64961D02*
D03*
X125000Y68307D02*
D03*
X144390Y309310D02*
D03*
X146850Y306693D02*
D03*
X115748Y314158D02*
D03*
X361811Y98819D02*
D03*
Y88189D02*
D03*
Y120472D02*
D03*
Y109843D02*
D03*
X311247Y91338D02*
D03*
X327559Y103937D02*
D03*
X288445Y101181D02*
D03*
Y114961D02*
D03*
X327559Y111811D02*
D03*
X389316Y102434D02*
D03*
X401921Y92724D02*
D03*
X389289Y122375D02*
D03*
X401968Y112992D02*
D03*
X384252Y111811D02*
D03*
X379134Y106693D02*
D03*
X384252Y91732D02*
D03*
X390551Y85433D02*
D03*
X304386Y92058D02*
D03*
X307087Y111024D02*
D03*
X469291Y112598D02*
D03*
X361811Y358661D02*
D03*
Y348031D02*
D03*
Y380315D02*
D03*
Y369685D02*
D03*
X311247Y351181D02*
D03*
X327559Y363779D02*
D03*
X288445Y361024D02*
D03*
Y374803D02*
D03*
X327559Y371654D02*
D03*
X389316Y362277D02*
D03*
X401921Y352567D02*
D03*
X389289Y382217D02*
D03*
X401968Y372835D02*
D03*
X384252Y371654D02*
D03*
X379134Y366535D02*
D03*
X384252Y351575D02*
D03*
X390551Y345276D02*
D03*
X304386Y351901D02*
D03*
X307087Y370866D02*
D03*
X469291Y372441D02*
D03*
X206299Y24409D02*
D03*
X208661D02*
D03*
X211024D02*
D03*
X338888Y47686D02*
D03*
X311024Y46850D02*
D03*
X377165Y49213D02*
D03*
X372205Y54173D02*
D03*
X409055Y47638D02*
D03*
X401575Y40945D02*
D03*
X419291Y54665D02*
D03*
X409055Y59449D02*
D03*
X255551Y30354D02*
D03*
X354331Y46457D02*
D03*
X356299Y54331D02*
D03*
X351320Y48236D02*
D03*
X299213Y59055D02*
D03*
X332087Y56496D02*
D03*
X206299Y284252D02*
D03*
X208661D02*
D03*
X211024D02*
D03*
X338888Y307528D02*
D03*
X311024Y306693D02*
D03*
X377165Y309055D02*
D03*
X372205Y314016D02*
D03*
X409055Y307480D02*
D03*
X401575Y300787D02*
D03*
X419291Y314508D02*
D03*
X409055Y319291D02*
D03*
X255551Y290197D02*
D03*
X354331Y306299D02*
D03*
X356299Y314173D02*
D03*
X351320Y308079D02*
D03*
X299213Y318898D02*
D03*
X332087Y316339D02*
D03*
X158268Y87795D02*
D03*
X188297Y94223D02*
D03*
X192520Y110006D02*
D03*
Y120472D02*
D03*
Y105307D02*
D03*
X178740Y38976D02*
D03*
X168110D02*
D03*
X164961Y25197D02*
D03*
X165354Y35827D02*
D03*
X153150Y23622D02*
D03*
X182027Y56672D02*
D03*
X159812Y56672D02*
D03*
X182972Y54724D02*
D03*
X159786Y54312D02*
D03*
X152756Y53937D02*
D03*
X149213Y55905D02*
D03*
X153150Y36614D02*
D03*
X132187Y78837D02*
D03*
X139173Y69392D02*
D03*
X146850Y46850D02*
D03*
X133858Y83071D02*
D03*
X167717Y89370D02*
D03*
X143012Y82423D02*
D03*
X130709Y74410D02*
D03*
X144390Y49467D02*
D03*
X181592Y59118D02*
D03*
X149781Y88601D02*
D03*
X244882Y9843D02*
D03*
X478346Y18504D02*
D03*
Y34646D02*
D03*
X478740Y26378D02*
D03*
Y10236D02*
D03*
X279528Y33071D02*
D03*
X268504D02*
D03*
X194488Y57087D02*
D03*
X198031Y53150D02*
D03*
X179813Y66142D02*
D03*
X179134Y51968D02*
D03*
X141106Y94569D02*
D03*
X153543Y104331D02*
D03*
X153320Y89109D02*
D03*
X153431Y106493D02*
D03*
X125984Y104724D02*
D03*
X115748Y320480D02*
D03*
X158268Y347638D02*
D03*
X188297Y354065D02*
D03*
X192520Y369849D02*
D03*
Y380315D02*
D03*
Y365150D02*
D03*
X178740Y298819D02*
D03*
X168110D02*
D03*
X164961Y285039D02*
D03*
X165354Y295669D02*
D03*
X153150Y283465D02*
D03*
X182027Y316515D02*
D03*
X159812Y316515D02*
D03*
X182972Y314567D02*
D03*
X159786Y314155D02*
D03*
X152756Y313779D02*
D03*
X149213Y315748D02*
D03*
X153150Y296457D02*
D03*
X126378Y324803D02*
D03*
X125000Y328150D02*
D03*
X132187Y338679D02*
D03*
X139173Y329235D02*
D03*
X133858Y342913D02*
D03*
X167717Y349213D02*
D03*
X143012Y342265D02*
D03*
X130709Y334252D02*
D03*
X181592Y318960D02*
D03*
X149781Y348444D02*
D03*
X244882Y269685D02*
D03*
X478346Y278346D02*
D03*
Y294488D02*
D03*
X478740Y286221D02*
D03*
Y270079D02*
D03*
X279528Y292913D02*
D03*
X268504D02*
D03*
X194488Y316929D02*
D03*
X198031Y312992D02*
D03*
X179813Y325984D02*
D03*
X179134Y311811D02*
D03*
X141106Y354411D02*
D03*
X153543Y364173D02*
D03*
X153320Y348952D02*
D03*
X153431Y366336D02*
D03*
X125984Y364567D02*
D03*
X153320Y219030D02*
D03*
X125984Y234646D02*
D03*
X153543Y234252D02*
D03*
X153431Y236414D02*
D03*
X149781Y218523D02*
D03*
X338888Y177607D02*
D03*
X182972Y184646D02*
D03*
X182027Y186594D02*
D03*
X159786Y184234D02*
D03*
X159812Y186593D02*
D03*
X198031Y183071D02*
D03*
X194488Y187008D02*
D03*
X478740Y140157D02*
D03*
X478346Y164567D02*
D03*
Y148425D02*
D03*
X288445Y231102D02*
D03*
X327559Y241732D02*
D03*
X288445Y244882D02*
D03*
X311247Y221259D02*
D03*
X327559Y233858D02*
D03*
X179813Y196063D02*
D03*
X181592Y189039D02*
D03*
X179134Y181890D02*
D03*
X158268Y217717D02*
D03*
X478740Y156299D02*
D03*
X188297Y224144D02*
D03*
X351320Y178157D02*
D03*
X354331Y176378D02*
D03*
X-41732Y182677D02*
D03*
X332087Y186417D02*
D03*
X30315Y193307D02*
D03*
X22441D02*
D03*
X307087Y240945D02*
D03*
X356299Y184252D02*
D03*
X115748Y190559D02*
D03*
Y184236D02*
D03*
X153150Y166535D02*
D03*
X144390Y179388D02*
D03*
X152756Y183858D02*
D03*
X149213Y185827D02*
D03*
X211024Y154331D02*
D03*
X208661D02*
D03*
X206299D02*
D03*
X165354Y165748D02*
D03*
X178740Y168898D02*
D03*
X168110D02*
D03*
X153150Y153543D02*
D03*
X164961Y155118D02*
D03*
X139173Y199313D02*
D03*
X192520Y235228D02*
D03*
Y239928D02*
D03*
X143012Y212344D02*
D03*
X167717Y219291D02*
D03*
X192520Y250394D02*
D03*
X279528Y162992D02*
D03*
X268504D02*
D03*
X311024Y176772D02*
D03*
X255551Y160276D02*
D03*
X244882Y139764D02*
D03*
X217717Y20472D02*
D03*
Y280315D02*
D03*
X379134Y236614D02*
D03*
X384252Y221654D02*
D03*
Y241732D02*
D03*
X390551Y215354D02*
D03*
X304386Y221979D02*
D03*
X14567Y143307D02*
D03*
X125000Y198228D02*
D03*
X26378Y193307D02*
D03*
X28346Y266142D02*
D03*
X32283D02*
D03*
X-34252Y114961D02*
D03*
X18898Y153150D02*
D03*
X-30709Y198425D02*
D03*
X-41732Y163779D02*
D03*
X25984Y124016D02*
D03*
X29528D02*
D03*
X33071D02*
D03*
X132187Y208758D02*
D03*
X133858Y212992D02*
D03*
X130709Y204331D02*
D03*
X377165Y179134D02*
D03*
X372205Y184095D02*
D03*
X409055Y177559D02*
D03*
X401575Y170866D02*
D03*
X419291Y184587D02*
D03*
X409055Y189370D02*
D03*
X299213Y188976D02*
D03*
X361811Y228740D02*
D03*
Y218110D02*
D03*
Y250394D02*
D03*
Y239764D02*
D03*
X389316Y232355D02*
D03*
X401921Y222645D02*
D03*
X389289Y252296D02*
D03*
X401968Y242913D02*
D03*
X469291Y242520D02*
D03*
X126378Y194882D02*
D03*
X146850Y176772D02*
D03*
X-41339Y116535D02*
D03*
X-41732Y132283D02*
D03*
Y141732D02*
D03*
Y280315D02*
D03*
X-40850Y149237D02*
D03*
X-41888Y277109D02*
D03*
X-41972Y270866D02*
D03*
Y264567D02*
D03*
Y258268D02*
D03*
X-41972Y251969D02*
D03*
X-41972Y245669D02*
D03*
Y239370D02*
D03*
Y233071D02*
D03*
X-41972Y226772D02*
D03*
X-41972Y220472D02*
D03*
Y214173D02*
D03*
Y207874D02*
D03*
X-41972Y201575D02*
D03*
Y176378D02*
D03*
X-41972Y170079D02*
D03*
X-41972Y157480D02*
D03*
X-40945Y274016D02*
D03*
Y267717D02*
D03*
Y261417D02*
D03*
M02*
