G04*
G04 #@! TF.GenerationSoftware,Altium Limited,Altium Designer,24.0.1 (36)*
G04*
G04 Layer_Physical_Order=1*
G04 Layer_Color=255*
%FSLAX25Y25*%
%MOIN*%
G70*
G04*
G04 #@! TF.SameCoordinates,B301E655-177B-44F9-B968-0684169C9831*
G04*
G04*
G04 #@! TF.FilePolarity,Positive*
G04*
G01*
G75*
%ADD12C,0.00787*%
%ADD17C,0.01000*%
%ADD18C,0.00800*%
%ADD19R,0.03200X0.04000*%
%ADD20R,0.03347X0.03740*%
G04:AMPARAMS|DCode=21|XSize=23.62mil|YSize=57.09mil|CornerRadius=2.01mil|HoleSize=0mil|Usage=FLASHONLY|Rotation=180.000|XOffset=0mil|YOffset=0mil|HoleType=Round|Shape=RoundedRectangle|*
%AMROUNDEDRECTD21*
21,1,0.02362,0.05307,0,0,180.0*
21,1,0.01961,0.05709,0,0,180.0*
1,1,0.00402,-0.00980,0.02653*
1,1,0.00402,0.00980,0.02653*
1,1,0.00402,0.00980,-0.02653*
1,1,0.00402,-0.00980,-0.02653*
%
%ADD21ROUNDEDRECTD21*%
%ADD22R,0.03543X0.02756*%
%ADD23R,0.03740X0.03347*%
G04:AMPARAMS|DCode=24|XSize=9.84mil|YSize=49.21mil|CornerRadius=1.97mil|HoleSize=0mil|Usage=FLASHONLY|Rotation=0.000|XOffset=0mil|YOffset=0mil|HoleType=Round|Shape=RoundedRectangle|*
%AMROUNDEDRECTD24*
21,1,0.00984,0.04528,0,0,0.0*
21,1,0.00591,0.04921,0,0,0.0*
1,1,0.00394,0.00295,-0.02264*
1,1,0.00394,-0.00295,-0.02264*
1,1,0.00394,-0.00295,0.02264*
1,1,0.00394,0.00295,0.02264*
%
%ADD24ROUNDEDRECTD24*%
G04:AMPARAMS|DCode=25|XSize=9.84mil|YSize=49.21mil|CornerRadius=1.97mil|HoleSize=0mil|Usage=FLASHONLY|Rotation=270.000|XOffset=0mil|YOffset=0mil|HoleType=Round|Shape=RoundedRectangle|*
%AMROUNDEDRECTD25*
21,1,0.00984,0.04528,0,0,270.0*
21,1,0.00591,0.04921,0,0,270.0*
1,1,0.00394,-0.02264,-0.00295*
1,1,0.00394,-0.02264,0.00295*
1,1,0.00394,0.02264,0.00295*
1,1,0.00394,0.02264,-0.00295*
%
%ADD25ROUNDEDRECTD25*%
G04:AMPARAMS|DCode=26|XSize=39.37mil|YSize=51.58mil|CornerRadius=6.5mil|HoleSize=0mil|Usage=FLASHONLY|Rotation=0.000|XOffset=0mil|YOffset=0mil|HoleType=Round|Shape=RoundedRectangle|*
%AMROUNDEDRECTD26*
21,1,0.03937,0.03858,0,0,0.0*
21,1,0.02638,0.05158,0,0,0.0*
1,1,0.01299,0.01319,-0.01929*
1,1,0.01299,-0.01319,-0.01929*
1,1,0.01299,-0.01319,0.01929*
1,1,0.01299,0.01319,0.01929*
%
%ADD26ROUNDEDRECTD26*%
%ADD27R,0.04724X0.05512*%
%ADD28R,0.02756X0.03543*%
%ADD29R,0.08268X0.04724*%
%ADD30R,0.05118X0.02362*%
%ADD31O,0.02362X0.08661*%
%ADD32R,0.02362X0.05118*%
%ADD33R,0.03937X0.08268*%
%ADD34R,0.11024X0.02165*%
%ADD35R,0.03150X0.03150*%
%ADD36R,0.06614X0.12362*%
%ADD65C,0.03937*%
%ADD66C,0.01575*%
%ADD67C,0.01968*%
%ADD68C,0.01181*%
%ADD69R,0.05906X0.05906*%
%ADD70C,0.05906*%
%ADD71R,0.05906X0.05906*%
%ADD72C,0.18740*%
%ADD73R,0.06653X0.06653*%
%ADD74C,0.06653*%
%ADD75C,0.02362*%
%ADD76C,0.01968*%
%ADD77C,0.01772*%
G36*
X54593Y123228D02*
Y121228D01*
X51594D01*
X53593Y123228D01*
X51594Y125228D01*
X54593D01*
Y123228D01*
D02*
G37*
G36*
X52593D02*
X50594Y121228D01*
X49593D01*
Y125228D01*
X50594D01*
X52593Y123228D01*
D02*
G37*
D12*
X56299Y81102D02*
X62008D01*
X45669D02*
X56299D01*
X46850Y115748D02*
X48594Y117491D01*
Y123228D01*
X46457Y115748D02*
X46850D01*
X55344Y122828D02*
X57157Y121015D01*
Y115763D02*
Y121015D01*
X55344Y122828D02*
Y123228D01*
X52142Y115748D02*
X52157Y115763D01*
Y87984D02*
Y94306D01*
X50591Y86417D02*
X52157Y87984D01*
X50394Y86417D02*
X50591D01*
X56299D02*
X57157Y87275D01*
X56955Y101181D02*
X62157Y95979D01*
X40945Y101181D02*
X56955D01*
X62157Y94306D02*
Y95979D01*
Y86465D02*
Y94306D01*
Y86465D02*
X62205Y86417D01*
X62008Y81102D02*
X62205Y81299D01*
X-21220Y134252D02*
X-11811D01*
X-21831D02*
X-21220D01*
X-22212Y133871D02*
X-21831Y134252D01*
X52157Y94306D02*
Y95979D01*
X50256Y97880D02*
X52157Y95979D01*
X18262Y97880D02*
X50256D01*
X17323Y98819D02*
X18262Y97880D01*
X4269Y106299D02*
X11749Y98819D01*
X17323D01*
X-18504Y119685D02*
X-16929Y118110D01*
X-15748Y111024D02*
X-12205Y107480D01*
X-16929Y110534D02*
X-12694Y106299D01*
X-16929Y110534D02*
Y118110D01*
X-18754Y122441D02*
X-15748Y119435D01*
X-36220Y122441D02*
X-18754D01*
X-15748Y111024D02*
Y119435D01*
X-33858Y125197D02*
X-18701D01*
X-18504Y125394D01*
X-12205Y107480D02*
X32283D01*
X40157Y99606D01*
X53530D01*
X57157Y95979D01*
Y94306D02*
Y95979D01*
X-11716Y108661D02*
X33465D01*
X40945Y101181D01*
X-12694Y106299D02*
X4269D01*
X-13780Y110725D02*
X-11716Y108661D01*
X-13780Y110725D02*
Y117913D01*
X61811Y108268D02*
Y115417D01*
X62157Y115763D01*
X42913Y105118D02*
X58661D01*
X61811Y108268D01*
X37795Y110236D02*
X42913Y105118D01*
X37795Y110236D02*
Y115748D01*
X31496Y122047D02*
X37795Y115748D01*
X59775Y103869D02*
X67157Y111251D01*
Y115763D01*
X41800Y103869D02*
X59775D01*
X36220Y109449D02*
X41800Y103869D01*
X36220Y109449D02*
Y115354D01*
X31102Y120472D02*
X36220Y115354D01*
X4331Y120472D02*
X31102D01*
X-197Y115945D02*
X4331Y120472D01*
X-197Y115748D02*
Y115945D01*
X62795Y129134D02*
Y129331D01*
X-197Y122047D02*
X31496D01*
X-6890Y123622D02*
X-5315Y122047D01*
X-35827Y127165D02*
Y141339D01*
X-39370Y144882D02*
X-35827Y141339D01*
X-48819Y144882D02*
X-39370D01*
X-35827Y127165D02*
X-33858Y125197D01*
X-41732Y129134D02*
X-36220Y123622D01*
X-6890D01*
X-9055Y115748D02*
X-5315D01*
X-48819Y129134D02*
X-41732D01*
X-38976Y119685D02*
X-36220Y122441D01*
X-48819Y119685D02*
X-38976D01*
X67913Y122835D02*
X67913Y122835D01*
X71653D01*
X67913Y122835D02*
Y129134D01*
X57157Y87275D02*
Y94306D01*
X64075Y120518D02*
Y121555D01*
X62795Y122835D02*
X64075Y121555D01*
X67157Y115763D02*
Y117436D01*
X64075Y120518D02*
X67157Y117436D01*
X61696Y120177D02*
X62157Y119716D01*
X60335Y120638D02*
X60796Y120177D01*
X60335Y126476D02*
X62795Y128937D01*
X62157Y115763D02*
Y119716D01*
X60796Y120177D02*
X61696D01*
X60335Y120638D02*
Y126476D01*
X62795Y128937D02*
Y129134D01*
D17*
X-23622Y113583D02*
X-23031Y112992D01*
X-19291D01*
X46457Y107087D02*
Y110236D01*
X46457Y110236D01*
X67043Y94192D02*
X67157Y94306D01*
X67043Y89878D02*
Y94192D01*
X66929Y89764D02*
X67043Y89878D01*
X116431Y96929D02*
X122022Y91339D01*
X139517Y93118D02*
X145079Y87556D01*
X100079Y96929D02*
X116431D01*
X122022Y91339D02*
X138583D01*
X134047Y93118D02*
X139517D01*
X130315Y96850D02*
X134047Y93118D01*
X145079Y73721D02*
Y87556D01*
X116431Y356772D02*
X122022Y351181D01*
X130315Y356693D02*
X134047Y352961D01*
X139517D02*
X145079Y347398D01*
X122022Y351181D02*
X138583D01*
X134047Y352961D02*
X139517D01*
X100079Y356772D02*
X116431D01*
X145079Y333563D02*
Y347398D01*
X116628Y226850D02*
X122219Y221260D01*
X138583D01*
X130315Y226772D02*
X134047Y223039D01*
X139714D01*
X145079Y217674D01*
X140959Y224638D02*
Y225183D01*
Y224638D02*
X141106Y224490D01*
X138189Y227953D02*
X140959Y225183D01*
X138189Y228346D02*
Y228740D01*
Y227953D02*
Y228346D01*
X145079Y203642D02*
Y217674D01*
X100079Y226850D02*
X116628D01*
X136713Y83071D02*
X141142Y78642D01*
X138386Y346850D02*
X141339D01*
X138386Y216929D02*
X141339D01*
X138386Y87008D02*
X141732D01*
X422795Y328937D02*
X423937Y327795D01*
X434232D02*
X435394Y328957D01*
X344094Y331102D02*
X398602D01*
X332390Y314264D02*
Y314854D01*
X413386Y328937D02*
X422795D01*
X398602Y331102D02*
X401929Y327776D01*
X332087Y316339D02*
X332234Y316191D01*
X423937Y327795D02*
X434232D01*
X341319Y328327D02*
X344094Y331102D01*
X334736Y314264D02*
X335898D01*
X332234Y315010D02*
Y316191D01*
X412224Y327776D02*
X413386Y328937D01*
X341319Y317633D02*
Y319685D01*
X333858Y313386D02*
X334736Y314264D01*
X332234Y315010D02*
X332390Y314854D01*
X401929Y327776D02*
X412224D01*
X341319Y319685D02*
Y328327D01*
X340690Y317004D02*
X341319Y317633D01*
X333268Y313386D02*
X333858D01*
X332390Y314264D02*
X333268Y313386D01*
X338638Y317004D02*
X340690D01*
X335898Y314264D02*
X338638Y317004D01*
X510669Y61417D02*
X512520Y59567D01*
X492126Y112677D02*
X505827D01*
X492126Y102677D02*
X512520Y82284D01*
Y81378D02*
Y82284D01*
X508878Y75925D02*
X523701D01*
X482388Y91076D02*
X492126Y81339D01*
X504331Y70473D02*
X512520D01*
X492126Y82677D02*
X504331Y70473D01*
X492126Y311260D02*
X496516Y306870D01*
X503583Y321260D02*
X512520Y312323D01*
X492126Y321260D02*
X503583D01*
X504331Y342913D02*
X507657Y339587D01*
X504331Y342913D02*
Y360315D01*
X492126Y372520D02*
X504331Y360315D01*
X501575Y340158D02*
X507598Y334134D01*
X501575Y340158D02*
Y353071D01*
X492126Y362520D02*
X501575Y353071D01*
X498819Y339370D02*
Y345827D01*
X492126Y352520D02*
X498819Y345827D01*
Y339370D02*
X509508Y328681D01*
X504331Y217717D02*
X508839Y213209D01*
X504331Y217717D02*
Y230394D01*
X492126Y242598D02*
X504331Y230394D01*
X492126Y232598D02*
X501575Y223150D01*
Y215354D02*
X509173Y207756D01*
X501575Y215354D02*
Y223150D01*
X498819Y212598D02*
X509114Y202303D01*
X498819Y212598D02*
Y215905D01*
X492126Y222598D02*
X498819Y215905D01*
X481890Y231496D02*
X492126Y221260D01*
X450000Y231496D02*
Y232283D01*
X507657Y339587D02*
X523701D01*
X486811Y286352D02*
X509974D01*
X486811Y278215D02*
X504200D01*
X509508Y328681D02*
X523701D01*
X507598Y334134D02*
X512520D01*
X511417Y323228D02*
X512520D01*
X492126Y342520D02*
X511417Y323228D01*
X115805Y54372D02*
X119234D01*
X115748Y54315D02*
X115805Y54372D01*
X14173Y279134D02*
X18898D01*
X18898Y279134D01*
X242520Y7480D02*
X244882Y9843D01*
X242520Y7480D02*
Y7480D01*
X244882Y9843D02*
X246850Y11811D01*
X248111D01*
X255551Y13819D02*
Y19488D01*
X253543Y11811D02*
X255551Y13819D01*
X113779Y60630D02*
X113825Y60585D01*
X119238D01*
X125000Y68307D02*
X131791D01*
X132776Y84153D02*
Y87008D01*
X159153Y282579D02*
Y292913D01*
X132776Y343996D02*
Y346850D01*
X151484Y353634D02*
X152362Y352756D01*
X150787Y354220D02*
Y362598D01*
Y354220D02*
X151373Y353634D01*
X151484D01*
X428740Y102048D02*
X428820Y101969D01*
X432480D01*
X428740Y91339D02*
X432480D01*
X428740Y123468D02*
X428980Y123228D01*
X432480D01*
X428740Y112758D02*
X428900Y112598D01*
X432480D01*
X371949Y98950D02*
X372041Y98858D01*
X361942Y98950D02*
X365846D01*
X361811Y98819D02*
X361942Y98950D01*
X361811Y88189D02*
X365846D01*
X361811Y120472D02*
X361811Y120472D01*
X365846D01*
X371949Y109711D02*
X372566Y109095D01*
X361811Y109843D02*
X361942Y109711D01*
X365846D01*
X311395Y90968D02*
X313287Y89075D01*
Y88976D02*
Y89075D01*
X311247Y91338D02*
X311395Y91191D01*
Y90968D02*
Y91191D01*
X327953Y106693D02*
X333465Y101181D01*
X272441Y106693D02*
X327953D01*
X255906Y90158D02*
X272441Y106693D01*
X215509Y90158D02*
X255906D01*
X327559Y103937D02*
X327608Y103888D01*
Y101427D02*
Y103888D01*
X327559Y101378D02*
X327608Y101427D01*
X270079Y101181D02*
X279921D01*
X257087Y88189D02*
X270079Y101181D01*
X216437Y88189D02*
X257087D01*
X286024Y101181D02*
X288445D01*
X275197Y114961D02*
X279921D01*
X254331Y94095D02*
X275197Y114961D01*
X210630Y94095D02*
X254331D01*
X286024Y114961D02*
X288445D01*
X327165Y108268D02*
X333465Y114567D01*
X254865Y92126D02*
X271007Y108268D01*
X327165D01*
X211420Y92126D02*
X254865D01*
X327559Y114370D02*
X327608Y114321D01*
X327559Y111811D02*
X327608Y111860D01*
Y114321D01*
X384173Y102205D02*
X389316D01*
Y102434D01*
X372041Y98858D02*
X392441D01*
X401921Y92520D02*
Y92724D01*
X396798Y92520D02*
X401921D01*
X372907Y89147D02*
X405039D01*
X371949Y88189D02*
X372907Y89147D01*
X389265Y122351D02*
X389289Y122375D01*
X389265Y122152D02*
Y122351D01*
X384173Y122152D02*
X389265D01*
X371949Y120472D02*
X373616Y118806D01*
X392441D01*
X397323Y112992D02*
X401968D01*
X396929Y112598D02*
X397323Y112992D01*
X384173Y111890D02*
X384252Y111811D01*
X384173Y111890D02*
Y115066D01*
X380472Y105354D02*
X396772D01*
X379134Y106693D02*
X380472Y105354D01*
X304331Y92058D02*
X304386D01*
X384173Y91811D02*
X384252Y91732D01*
X384173Y91811D02*
Y95118D01*
X390577Y85407D02*
X396772D01*
X390551Y85433D02*
X390577Y85407D01*
X304331Y91831D02*
X307185Y88976D01*
X304331Y91831D02*
Y92058D01*
X372566Y109095D02*
X405039D01*
X392441Y98858D02*
X441181D01*
X443898Y101575D01*
X447638Y104724D02*
X450000Y102362D01*
X438583Y101969D02*
X441339Y104724D01*
X447638D01*
X450000Y101575D02*
Y102362D01*
X405997Y88189D02*
X441011D01*
X405039Y89147D02*
X405997Y88189D01*
X441011D02*
X443898Y91076D01*
X441339Y94095D02*
X447638D01*
X450000Y91732D01*
X438583Y91339D02*
X441339Y94095D01*
X450000Y91076D02*
Y91732D01*
X440879Y120079D02*
X443898Y123097D01*
X393714Y120079D02*
X440879D01*
X392441Y118806D02*
X393714Y120079D01*
X447638Y126378D02*
X450000Y124016D01*
X438583Y123228D02*
X441732Y126378D01*
X447638D01*
X450000Y123097D02*
Y124016D01*
X405039Y109095D02*
X440394D01*
X443898Y112598D01*
X450000D02*
Y113386D01*
X441732Y115748D02*
X447638D01*
X450000Y113386D01*
X438583Y112598D02*
X441732Y115748D01*
X333465Y96358D02*
X333760Y96063D01*
X339370D01*
X333465Y96358D02*
Y101181D01*
X339370Y96063D02*
X339370Y96063D01*
X279626Y100886D02*
X279921Y101181D01*
X279626Y96063D02*
Y100886D01*
X274016Y96063D02*
X279626D01*
Y120079D02*
X279921Y119783D01*
X274016Y120079D02*
X274016Y120079D01*
X279626D01*
X279921Y114961D02*
Y119783D01*
X333760Y119685D02*
X339370D01*
X333760Y119685D02*
X333760Y119685D01*
X333465Y119390D02*
X333760Y119685D01*
X333465Y114567D02*
Y119390D01*
X322087Y116929D02*
X324902D01*
X327658Y119685D01*
X317087Y116929D02*
X322087D01*
X314173Y123622D02*
X353937D01*
X363779Y113779D01*
X312087Y121535D02*
X314173Y123622D01*
X312087Y116929D02*
Y121535D01*
X363779Y113779D02*
X367881D01*
X371949Y109711D01*
X307087Y111024D02*
Y116929D01*
X305906Y125197D02*
X367224D01*
X371949Y120472D01*
X302087Y121378D02*
X305906Y125197D01*
X302087Y116929D02*
Y121378D01*
X292087Y116929D02*
X297087D01*
X285728Y120079D02*
X288937D01*
X292087Y116929D01*
X325689Y98032D02*
X327658Y96063D01*
X322087Y98032D02*
X325689D01*
X317087D02*
X322087D01*
X312648Y93651D02*
Y93952D01*
X312087Y94513D02*
Y98032D01*
Y94513D02*
X312648Y93952D01*
X365125Y92126D02*
X371949Y98950D01*
X314173Y92126D02*
X365125D01*
X312648Y93651D02*
X314173Y92126D01*
X307087Y98032D02*
X307185Y97933D01*
Y88976D02*
Y97933D01*
X301575Y94488D02*
X302087Y95000D01*
Y98032D01*
X301575Y87008D02*
Y94488D01*
X368799Y85039D02*
X371949Y88189D01*
X303543Y85039D02*
X368799D01*
X301575Y87008D02*
X303543Y85039D01*
X292087Y98032D02*
X297087D01*
X287697D02*
X292087D01*
X285728Y96063D02*
X287697Y98032D01*
X450000Y91076D02*
X482388D01*
X492126Y92677D02*
X508878Y75925D01*
X481890Y101575D02*
X492126Y91339D01*
X450000Y101575D02*
X481890D01*
X470367Y123097D02*
X492126Y101339D01*
X450000Y123097D02*
X470367D01*
X469291Y112598D02*
X469291Y112598D01*
X450000Y112598D02*
X469291D01*
X428740Y361891D02*
X428820Y361811D01*
X432480D01*
X428740Y351181D02*
X432480D01*
X428740Y383311D02*
X428980Y383071D01*
X432480D01*
X428740Y372601D02*
X428900Y372441D01*
X432480D01*
X371949Y358793D02*
X372041Y358701D01*
X361942Y358793D02*
X365846D01*
X361811Y358661D02*
X361942Y358793D01*
X361811Y348031D02*
X365846D01*
X361811Y380315D02*
X361811Y380315D01*
X365846D01*
X371949Y369554D02*
X372566Y368937D01*
X361811Y369685D02*
X361942Y369554D01*
X365846D01*
X311395Y350810D02*
X313287Y348917D01*
Y348819D02*
Y348917D01*
X311247Y351181D02*
X311395Y351033D01*
Y350810D02*
Y351033D01*
X327953Y366535D02*
X333465Y361024D01*
X272441Y366535D02*
X327953D01*
X255906Y350000D02*
X272441Y366535D01*
X215509Y350000D02*
X255906D01*
X327559Y363779D02*
X327608Y363730D01*
Y361270D02*
Y363730D01*
X327559Y361221D02*
X327608Y361270D01*
X270079Y361024D02*
X279921D01*
X257087Y348031D02*
X270079Y361024D01*
X216437Y348031D02*
X257087D01*
X286024Y361024D02*
X288445D01*
X275197Y374803D02*
X279921D01*
X254331Y353937D02*
X275197Y374803D01*
X210630Y353937D02*
X254331D01*
X286024Y374803D02*
X288445D01*
X327165Y368110D02*
X333465Y374410D01*
X254865Y351969D02*
X271007Y368110D01*
X327165D01*
X211420Y351969D02*
X254865D01*
X327559Y374213D02*
X327608Y374163D01*
X327559Y371654D02*
X327608Y371703D01*
Y374163D01*
X384173Y362047D02*
X389316D01*
Y362277D01*
X372041Y358701D02*
X392441D01*
X401921Y352362D02*
Y352567D01*
X396798Y352362D02*
X401921D01*
X372907Y348990D02*
X405039D01*
X371949Y348031D02*
X372907Y348990D01*
X389265Y382194D02*
X389289Y382217D01*
X389265Y381995D02*
Y382194D01*
X384173Y381995D02*
X389265D01*
X371949Y380315D02*
X373616Y378648D01*
X392441D01*
X397323Y372835D02*
X401968D01*
X396929Y372441D02*
X397323Y372835D01*
X384173Y371732D02*
X384252Y371654D01*
X384173Y371732D02*
Y374908D01*
X380472Y365197D02*
X396772D01*
X379134Y366535D02*
X380472Y365197D01*
X304331Y351901D02*
X304386D01*
X384173Y351654D02*
X384252Y351575D01*
X384173Y351654D02*
Y354961D01*
X390577Y345249D02*
X396772D01*
X390551Y345276D02*
X390577Y345249D01*
X304331Y351673D02*
X307185Y348819D01*
X304331Y351673D02*
Y351901D01*
X372566Y368937D02*
X405039D01*
X392441Y358701D02*
X441181D01*
X443898Y361417D01*
X447638Y364567D02*
X450000Y362205D01*
X438583Y361811D02*
X441339Y364567D01*
X447638D01*
X450000Y361417D02*
Y362205D01*
X405997Y348031D02*
X441011D01*
X405039Y348990D02*
X405997Y348031D01*
X441011D02*
X443898Y350919D01*
X441339Y353937D02*
X447638D01*
X450000Y351575D01*
X438583Y351181D02*
X441339Y353937D01*
X450000Y350919D02*
Y351575D01*
X440879Y379921D02*
X443898Y382940D01*
X393714Y379921D02*
X440879D01*
X392441Y378648D02*
X393714Y379921D01*
X447638Y386221D02*
X450000Y383858D01*
X438583Y383071D02*
X441732Y386221D01*
X447638D01*
X450000Y382940D02*
Y383858D01*
X405039Y368937D02*
X440394D01*
X443898Y372441D01*
X450000D02*
Y373228D01*
X441732Y375590D02*
X447638D01*
X450000Y373228D01*
X438583Y372441D02*
X441732Y375590D01*
X333465Y356201D02*
X333760Y355906D01*
X339370D01*
X333465Y356201D02*
Y361024D01*
X339370Y355906D02*
X339370Y355906D01*
X279626Y360728D02*
X279921Y361024D01*
X279626Y355906D02*
Y360728D01*
X274016Y355906D02*
X279626D01*
Y379921D02*
X279921Y379626D01*
X274016Y379921D02*
X274016Y379921D01*
X279626D01*
X279921Y374803D02*
Y379626D01*
X333760Y379528D02*
X339370D01*
X333760Y379528D02*
X333760Y379528D01*
X333465Y379232D02*
X333760Y379528D01*
X333465Y374410D02*
Y379232D01*
X322087Y376772D02*
X324902D01*
X327658Y379528D01*
X317087Y376772D02*
X322087D01*
X314173Y383465D02*
X353937D01*
X363779Y373622D01*
X312087Y381378D02*
X314173Y383465D01*
X312087Y376772D02*
Y381378D01*
X363779Y373622D02*
X367881D01*
X371949Y369554D01*
X307087Y370866D02*
Y376772D01*
X305906Y385039D02*
X367224D01*
X371949Y380315D01*
X302087Y381221D02*
X305906Y385039D01*
X302087Y376772D02*
Y381221D01*
X292087Y376772D02*
X297087D01*
X285728Y379921D02*
X288937D01*
X292087Y376772D01*
X325689Y357874D02*
X327658Y355906D01*
X322087Y357874D02*
X325689D01*
X317087D02*
X322087D01*
X312648Y353494D02*
Y353795D01*
X312087Y354356D02*
Y357874D01*
Y354356D02*
X312648Y353795D01*
X365125Y351969D02*
X371949Y358793D01*
X314173Y351969D02*
X365125D01*
X312648Y353494D02*
X314173Y351969D01*
X307087Y357874D02*
X307185Y357776D01*
Y348819D02*
Y357776D01*
X301575Y354331D02*
X302087Y354842D01*
Y357874D01*
X301575Y346850D02*
Y354331D01*
X368799Y344882D02*
X371949Y348031D01*
X303543Y344882D02*
X368799D01*
X301575Y346850D02*
X303543Y344882D01*
X292087Y357874D02*
X297087D01*
X287697D02*
X292087D01*
X285728Y355906D02*
X287697Y357874D01*
X482388Y350919D02*
X492126Y341181D01*
X450000Y350919D02*
X482388D01*
X481890Y361417D02*
X492126Y351181D01*
X450000Y361417D02*
X481890D01*
X470367Y382940D02*
X492126Y361181D01*
X450000Y382940D02*
X470367D01*
X469291Y372441D02*
X469291Y372441D01*
X450000Y372441D02*
X469291D01*
X333858Y47441D02*
X334128Y47711D01*
X338862D01*
X338888Y47686D01*
X272047Y46850D02*
X272047Y46850D01*
X272047Y58661D02*
X272342Y58957D01*
X328150Y55413D02*
X328248Y55512D01*
X304823Y57972D02*
X310236Y63386D01*
X304823Y57480D02*
Y57972D01*
X300689Y47244D02*
X310925Y57480D01*
X306988Y46850D02*
X311024D01*
X318996Y60630D02*
Y69193D01*
X310236Y77953D02*
X318996Y69193D01*
X325098Y60630D02*
X325197Y60728D01*
X314173Y51673D02*
X322146Y43701D01*
X310236Y70866D02*
X314173Y66929D01*
Y51673D02*
Y66929D01*
X331102Y60728D02*
X336221D01*
X325197D02*
X331102D01*
X322047Y55413D02*
X322146Y55512D01*
X322047Y49557D02*
Y55413D01*
X328248Y43701D02*
Y49459D01*
X328150Y49557D02*
Y55413D01*
Y49557D02*
X328248Y49459D01*
X434232Y67953D02*
X435394Y69114D01*
X423937Y67953D02*
X434232D01*
X434626Y63779D02*
X435394Y63012D01*
X423228Y63779D02*
X434626D01*
X420197Y60748D02*
X423228Y63779D01*
X420197Y59685D02*
Y60748D01*
X386516Y54856D02*
X415368D01*
X420197Y59685D01*
X377690Y54856D02*
X380413D01*
X369921Y47087D02*
X377690Y54856D01*
X366850Y47087D02*
X369921D01*
X406102Y41043D02*
Y42717D01*
X403937Y44882D02*
X406102Y42717D01*
X396752Y44882D02*
X403937D01*
X386516Y34646D02*
X396752Y44882D01*
X375453Y39606D02*
X380413Y34646D01*
X365669Y39606D02*
X375453D01*
X421732Y35453D02*
X424409Y32776D01*
X413346Y35453D02*
X421732D01*
X405039D02*
X413346D01*
X402362Y32776D02*
X405039Y35453D01*
X412835Y41043D02*
X413346Y41555D01*
X406102Y41043D02*
X412835D01*
X422795Y69095D02*
X423937Y67953D01*
X413386Y69095D02*
X422795D01*
X412224Y67933D02*
X413386Y69095D01*
X401929Y67933D02*
X412224D01*
X412205Y64173D02*
X413386Y62992D01*
X402697Y64173D02*
X412205D01*
X398189Y59665D02*
X402697Y64173D01*
X386516Y64961D02*
X392894D01*
X398189Y59665D01*
X377106Y61654D02*
X380413Y64961D01*
X366850Y61654D02*
X377106D01*
X424311Y44882D02*
X428150Y41043D01*
X407087Y44882D02*
X424311D01*
X393307D02*
X395669Y47244D01*
X404724D01*
X386516Y44882D02*
X393307D01*
X404724Y47244D02*
X407087Y44882D01*
X377165Y49213D02*
X380413Y45965D01*
Y44882D02*
Y45965D01*
X366850Y54173D02*
X372205D01*
X426988Y35354D02*
X435787D01*
X424409Y32776D02*
X426988Y35354D01*
X428150Y41043D02*
X435374D01*
X435787Y41457D01*
X438976Y65963D02*
X442224Y69211D01*
X438976Y60630D02*
Y65963D01*
X438031Y59685D02*
X438976Y60630D01*
X427677Y59685D02*
X438031D01*
X436399Y47638D02*
X442224Y53463D01*
X409055Y47638D02*
X436399D01*
X401476Y41043D02*
X401575Y40945D01*
X398622Y41043D02*
X401476D01*
X448327Y62894D02*
X451575Y66142D01*
Y71260D01*
X446850Y75984D02*
X451575Y71260D01*
X448327Y61337D02*
Y62894D01*
X330315Y75984D02*
X446850D01*
X321850Y67520D02*
X330315Y75984D01*
X419291Y54665D02*
X435553D01*
X442224Y61337D01*
X408839Y59665D02*
X409055Y59449D01*
X405669Y59665D02*
X408839D01*
X255551Y59252D02*
X256142Y58661D01*
X272047D01*
X261811Y36614D02*
X272047Y46850D01*
X255551Y19488D02*
Y30354D01*
X261811Y36614D01*
X351319Y56693D02*
Y59842D01*
X329085Y50492D02*
X345118D01*
X351319Y56693D01*
X328150Y49557D02*
X329085Y50492D01*
X363032Y57913D02*
X373937D01*
X356497Y65748D02*
X363032Y59214D01*
Y57913D02*
Y59214D01*
X349075Y65748D02*
X356497D01*
X346319Y62992D02*
X349075Y65748D01*
X346319Y59842D02*
Y62992D01*
X344094Y71260D02*
X398602D01*
X401929Y67933D01*
X341319Y68484D02*
X344094Y71260D01*
X341319Y59842D02*
Y68484D01*
X354331Y46270D02*
X356319Y44282D01*
X354331Y46270D02*
Y46457D01*
X356319Y40945D02*
Y44282D01*
X356309Y59833D02*
X356319Y59842D01*
X356309Y54340D02*
Y59833D01*
X356299Y54331D02*
X356309Y54340D01*
X351320Y48235D02*
X351320Y48236D01*
X351320Y40946D02*
Y48235D01*
X351319Y40945D02*
X351320Y40946D01*
X351319Y30453D02*
Y40945D01*
X347244Y26378D02*
X351319Y30453D01*
X303543Y26378D02*
X347244D01*
X300689Y29232D02*
Y47244D01*
Y29232D02*
X303543Y26378D01*
X346319Y36476D02*
Y40945D01*
X344094Y34252D02*
X346319Y36476D01*
X329134Y34252D02*
X344094D01*
X325197Y38189D02*
X329134Y34252D01*
X348441Y50016D02*
X355496D01*
X362165Y43347D01*
X342780Y44355D02*
X348441Y50016D01*
X362165Y43347D02*
X373937D01*
X341948Y44355D02*
X342780D01*
X341319Y43726D02*
X341948Y44355D01*
X341319Y40945D02*
Y43726D01*
X233858Y71260D02*
X309842D01*
X209451D02*
X233858D01*
X206693Y68502D02*
X209451Y71260D01*
X206693Y50379D02*
Y68502D01*
X204322Y48008D02*
X206693Y50379D01*
X233858Y81260D02*
X306929D01*
X310236Y77953D01*
X214724Y81260D02*
X233858D01*
X204331Y70866D02*
X214724Y81260D01*
X204331Y52362D02*
Y70866D01*
X464155Y61417D02*
X492126D01*
X510669D01*
X448327Y61337D02*
X460943D01*
X464075D02*
X464155Y61417D01*
X460943Y61337D02*
X464075D01*
X448327Y48720D02*
X460943Y61337D01*
X448327Y45589D02*
Y48720D01*
X341319Y57791D02*
Y59842D01*
X340690Y57161D02*
X341319Y57791D01*
X338638Y57161D02*
X340690D01*
X335898Y54421D02*
X338638Y57161D01*
X332390Y54421D02*
Y55012D01*
X334736Y54421D02*
X335898D01*
X333858Y53543D02*
X334736Y54421D01*
X333268Y53543D02*
X333858D01*
X332087Y56496D02*
X332234Y56348D01*
Y55167D02*
Y56348D01*
Y55167D02*
X332390Y55012D01*
Y54421D02*
X333268Y53543D01*
X303346Y58957D02*
X304823Y57480D01*
X272342Y58957D02*
X303346D01*
X284752Y46850D02*
X286614Y48713D01*
Y50787D01*
X279921Y48713D02*
X281784Y46850D01*
X279921Y48713D02*
Y50787D01*
X281784Y46850D02*
X283465D01*
X284752D01*
X272047D02*
X281784D01*
X333858Y307283D02*
X334128Y307553D01*
X338862D01*
X338888Y307528D01*
X272047Y306693D02*
X272047Y306693D01*
X272047Y318504D02*
X272342Y318799D01*
X328150Y315256D02*
X328248Y315354D01*
X304823Y317815D02*
X310236Y323228D01*
X304823Y317323D02*
Y317815D01*
X300689Y307087D02*
X310925Y317323D01*
X306988Y306693D02*
X311024D01*
X318996Y320472D02*
Y329035D01*
X310236Y337795D02*
X318996Y329035D01*
X325098Y320472D02*
X325197Y320571D01*
X314173Y311516D02*
X322146Y303543D01*
X310236Y330709D02*
X314173Y326772D01*
Y311516D02*
Y326772D01*
X331102Y320571D02*
X336221D01*
X325197D02*
X331102D01*
X322047Y315256D02*
X322146Y315354D01*
X322047Y309400D02*
Y315256D01*
X328248Y303543D02*
Y309301D01*
X328150Y309400D02*
Y315256D01*
Y309400D02*
X328248Y309301D01*
X434626Y323622D02*
X435394Y322854D01*
X423228Y323622D02*
X434626D01*
X420197Y320590D02*
X423228Y323622D01*
X420197Y319528D02*
Y320590D01*
X386516Y314698D02*
X415368D01*
X420197Y319528D01*
X377690Y314698D02*
X380413D01*
X369921Y306929D02*
X377690Y314698D01*
X366850Y306929D02*
X369921D01*
X406102Y300886D02*
Y302559D01*
X403937Y304724D02*
X406102Y302559D01*
X396752Y304724D02*
X403937D01*
X386516Y294488D02*
X396752Y304724D01*
X375453Y299449D02*
X380413Y294488D01*
X365669Y299449D02*
X375453D01*
X421732Y295295D02*
X424409Y292618D01*
X413346Y295295D02*
X421732D01*
X405039D02*
X413346D01*
X402362Y292618D02*
X405039Y295295D01*
X412835Y300886D02*
X413346Y301398D01*
X406102Y300886D02*
X412835D01*
X412205Y324016D02*
X413386Y322835D01*
X402697Y324016D02*
X412205D01*
X398189Y319508D02*
X402697Y324016D01*
X386516Y324803D02*
X392894D01*
X398189Y319508D01*
X377106Y321496D02*
X380413Y324803D01*
X366850Y321496D02*
X377106D01*
X424311Y304724D02*
X428150Y300886D01*
X407087Y304724D02*
X424311D01*
X393307D02*
X395669Y307087D01*
X404724D01*
X386516Y304724D02*
X393307D01*
X404724Y307087D02*
X407087Y304724D01*
X377165Y309055D02*
X380413Y305807D01*
Y304724D02*
Y305807D01*
X366850Y314016D02*
X372205D01*
X426988Y295197D02*
X435787D01*
X424409Y292618D02*
X426988Y295197D01*
X428150Y300886D02*
X435374D01*
X435787Y301299D01*
X438976Y325805D02*
X442224Y329053D01*
X438976Y320472D02*
Y325805D01*
X438031Y319528D02*
X438976Y320472D01*
X427677Y319528D02*
X438031D01*
X436399Y307480D02*
X442224Y313305D01*
X409055Y307480D02*
X436399D01*
X401476Y300886D02*
X401575Y300787D01*
X398622Y300886D02*
X401476D01*
X448327Y322736D02*
X451575Y325984D01*
Y331102D01*
X446850Y335827D02*
X451575Y331102D01*
X448327Y321179D02*
Y322736D01*
X330315Y335827D02*
X446850D01*
X321850Y327362D02*
X330315Y335827D01*
X419291Y314508D02*
X435553D01*
X442224Y321179D01*
X408839Y319508D02*
X409055Y319291D01*
X405669Y319508D02*
X408839D01*
X255551Y319094D02*
X256142Y318504D01*
X272047D01*
X261811Y296457D02*
X272047Y306693D01*
X255551Y279331D02*
Y290197D01*
X261811Y296457D01*
X255551Y270709D02*
Y279331D01*
X254528Y269685D02*
X255551Y270709D01*
X351319Y316535D02*
Y319685D01*
X329085Y310335D02*
X345118D01*
X351319Y316535D01*
X328150Y309400D02*
X329085Y310335D01*
X363032Y317756D02*
X373937D01*
X356497Y325590D02*
X363032Y319056D01*
Y317756D02*
Y319056D01*
X349075Y325590D02*
X356497D01*
X346319Y322835D02*
X349075Y325590D01*
X346319Y319685D02*
Y322835D01*
X354331Y306112D02*
X356319Y304124D01*
X354331Y306112D02*
Y306299D01*
X356319Y300787D02*
Y304124D01*
X356309Y319675D02*
X356319Y319685D01*
X356309Y314183D02*
Y319675D01*
X356299Y314173D02*
X356309Y314183D01*
X351320Y308078D02*
X351320Y308079D01*
X351320Y300788D02*
Y308078D01*
X351319Y300787D02*
X351320Y300788D01*
X351319Y290295D02*
Y300787D01*
X347244Y286221D02*
X351319Y290295D01*
X303543Y286221D02*
X347244D01*
X300689Y289075D02*
Y307087D01*
Y289075D02*
X303543Y286221D01*
X346319Y296319D02*
Y300787D01*
X344094Y294094D02*
X346319Y296319D01*
X329134Y294094D02*
X344094D01*
X325197Y298031D02*
X329134Y294094D01*
X348441Y309858D02*
X355496D01*
X362165Y303189D01*
X342780Y304198D02*
X348441Y309858D01*
X362165Y303189D02*
X373937D01*
X341948Y304198D02*
X342780D01*
X341319Y303568D02*
X341948Y304198D01*
X341319Y300787D02*
Y303568D01*
X233858Y331102D02*
X309842D01*
X209451D02*
X233858D01*
X206693Y328344D02*
X209451Y331102D01*
X206693Y310221D02*
Y328344D01*
X204322Y307850D02*
X206693Y310221D01*
X233858Y341102D02*
X306929D01*
X310236Y337795D01*
X214724Y341102D02*
X233858D01*
X204331Y330709D02*
X214724Y341102D01*
X204331Y312205D02*
Y330709D01*
X201370Y309244D02*
X204331Y312205D01*
X464155Y321260D02*
X492126D01*
X448327Y321179D02*
X460943D01*
X464075D02*
X464155Y321260D01*
X460943Y321179D02*
X464075D01*
X448327Y308563D02*
X460943Y321179D01*
X448327Y305431D02*
Y308563D01*
X303346Y318799D02*
X304823Y317323D01*
X272342Y318799D02*
X303346D01*
X284752Y306693D02*
X286614Y308555D01*
Y310630D01*
X279921Y308555D02*
X281784Y306693D01*
X279921Y308555D02*
Y310630D01*
X281784Y306693D02*
X283465D01*
X284752D01*
X272047D02*
X281784D01*
X233858Y71260D02*
X309842D01*
X310236Y70866D01*
X314173Y51673D02*
X322146Y43701D01*
X310236Y70866D02*
X314173Y66929D01*
Y51673D02*
Y66929D01*
X233858Y81260D02*
X306929D01*
X310236Y77953D01*
X318996Y60630D02*
Y69193D01*
X310236Y77953D02*
X318996Y69193D01*
X155512Y85827D02*
Y86221D01*
X149891Y86013D02*
Y87194D01*
X149705Y87008D02*
X149891Y87194D01*
X155807Y81496D02*
Y85827D01*
X149705Y81496D02*
Y87008D01*
X171260Y65248D02*
Y65354D01*
Y70079D01*
X177362Y65354D02*
Y70079D01*
X119234Y54372D02*
X119291Y54429D01*
X119238Y60585D02*
X119291Y60532D01*
X170892Y58457D02*
X171573Y57776D01*
X170687Y52559D02*
X170866Y52380D01*
X175984Y57776D02*
X176279Y57480D01*
X171573Y57776D02*
X175984D01*
X170866Y52380D02*
X175984D01*
X119291Y54429D02*
X124266D01*
X119291Y60532D02*
X125394D01*
X158268Y87795D02*
X160827D01*
X161024Y87992D01*
X158059Y87795D02*
X158268D01*
X157362Y87098D02*
X158059Y87795D01*
X156390Y87098D02*
X157362D01*
X155512Y86221D02*
X156390Y87098D01*
X188394Y95874D02*
X189764Y97244D01*
X188394Y94320D02*
Y95874D01*
X188297Y94223D02*
X188394Y94320D01*
X194980Y112369D02*
Y112467D01*
X193807Y111196D02*
X194980Y112369D01*
X192520Y110006D02*
X193709Y111196D01*
X193807D01*
X190059Y112467D02*
X192520Y110006D01*
X183957Y112467D02*
Y118110D01*
X192323Y120472D02*
X192520D01*
X190059Y118110D02*
X194980D01*
X190059D02*
Y118209D01*
X192323Y120472D01*
X189764Y97244D02*
X194980D01*
X192520Y105348D02*
X193709Y104159D01*
X192381Y105307D02*
X192520D01*
X193709Y104159D02*
X193807D01*
X190059Y102986D02*
X192381Y105307D01*
X193807Y104159D02*
X194980Y102986D01*
Y102887D02*
Y102986D01*
X190059Y102887D02*
Y102986D01*
X175984Y39155D02*
X176163Y38976D01*
X178740D01*
X196449Y46063D02*
X197244D01*
X195644Y45258D02*
X196449Y46063D01*
X170947Y45258D02*
X195644D01*
X170579Y45465D02*
X170866Y45177D01*
X170768Y38976D02*
X170866Y39075D01*
X168110Y38976D02*
X170768D01*
X164961Y27657D02*
X165256Y27953D01*
X164961Y25197D02*
Y27657D01*
X159153Y22736D02*
X161417Y20472D01*
X158858Y33366D02*
X159153Y33071D01*
Y22736D02*
Y33071D01*
X165354Y33169D02*
Y35827D01*
X165256Y33071D02*
X165354Y33169D01*
X153150Y27264D02*
X153150Y27264D01*
Y23622D02*
Y27264D01*
X196752Y92913D02*
X201083Y97244D01*
X189504Y92913D02*
X196752D01*
X179256Y82665D02*
X189504Y92913D01*
X166060Y69489D02*
X179236Y82665D01*
X179256D01*
X166060Y68315D02*
Y69489D01*
X166052Y68307D02*
X166060Y68315D01*
X164272Y68307D02*
X166052D01*
X170382Y64370D02*
X171260Y65248D01*
X164272Y64370D02*
X170382D01*
X178937Y62402D02*
X210630Y94095D01*
X164272Y62402D02*
X178937D01*
X164272Y60433D02*
X168206D01*
X179727D02*
X211420Y92126D01*
X168206Y60433D02*
X179727D01*
X164279Y58457D02*
X170892D01*
X164272Y58465D02*
X164279Y58457D01*
X182027Y56672D02*
Y56675D01*
X215509Y90158D01*
X160197Y56496D02*
X164272D01*
X159812Y56672D02*
X160021D01*
X160197Y56496D01*
X182972Y54724D02*
X216437Y88189D01*
X160210Y54528D02*
X164272D01*
X159995Y54312D02*
X160210Y54528D01*
X159786Y54312D02*
X159995D01*
X164272Y52559D02*
X170687D01*
X214724Y81260D02*
X233858D01*
X204331Y70866D02*
X214724Y81260D01*
X204331Y52362D02*
Y70866D01*
X164272Y50591D02*
X167339D01*
X201370Y49402D02*
X204331Y52362D01*
X168527Y49402D02*
X201370D01*
X167339Y50591D02*
X168527Y49402D01*
X209451Y71260D02*
X233858D01*
X206693Y68502D02*
X209451Y71260D01*
X206693Y50379D02*
Y68502D01*
X164272Y48622D02*
X164279Y48614D01*
X167344D01*
X204322Y48008D02*
X206693Y50379D01*
X167950Y48008D02*
X204322D01*
X167344Y48614D02*
X167950Y48008D01*
X166232Y46058D02*
X166826Y45465D01*
X170579D01*
X166224Y46654D02*
X166232Y46646D01*
Y46058D02*
Y46646D01*
X170866Y45177D02*
X170947Y45258D01*
X152756Y52756D02*
X158858Y46654D01*
X166224D01*
X152756Y52756D02*
Y53937D01*
X158858Y41240D02*
Y43898D01*
Y33366D02*
Y41240D01*
X149213Y53543D02*
Y55905D01*
Y53543D02*
X158858Y43898D01*
X152953Y36614D02*
Y41240D01*
X153150Y33366D02*
Y36614D01*
X153150Y33366D02*
X153150Y33366D01*
X126333Y56496D02*
X131791D01*
X124266Y54429D02*
X126333Y56496D01*
X127461Y58465D02*
X131791D01*
X125394Y60532D02*
X127461Y58465D01*
X132187Y78837D02*
X134943D01*
X137205Y73721D02*
Y76575D01*
X134943Y78837D02*
X137205Y76575D01*
X139173Y69392D02*
Y73721D01*
X133858Y83071D02*
X136713D01*
X132776Y84153D02*
X133858Y83071D01*
X141142Y73721D02*
Y78642D01*
X167717Y96227D02*
X183957Y112467D01*
X167717Y89370D02*
Y96227D01*
X143012Y82423D02*
X143102Y82332D01*
Y73728D02*
X143110Y73721D01*
X143102Y73728D02*
Y82332D01*
X149016Y73721D02*
Y80807D01*
X149705Y81496D01*
X150984Y76673D02*
X155807Y81496D01*
X150984Y73721D02*
Y76673D01*
X152953Y71063D02*
Y73721D01*
X137402Y67716D02*
X138332D01*
X140014D02*
X149606D01*
X152953Y71063D01*
X139910Y67613D02*
X140014Y67716D01*
X138332D02*
X138436Y67613D01*
X139910D01*
X130709Y74410D02*
X137402Y67716D01*
X160146Y82685D02*
X160236Y82776D01*
X157465Y76572D02*
X160146Y79253D01*
Y82685D01*
X157465Y76248D02*
Y76572D01*
X156898Y75681D02*
X157465Y76248D01*
X156890Y67126D02*
Y73721D01*
X144488Y49566D02*
Y54724D01*
X156890Y67126D01*
X144390Y49467D02*
X144488Y49566D01*
X183957Y93405D02*
Y97244D01*
X164272Y73721D02*
X183957Y93405D01*
X158858Y73721D02*
X164272D01*
X181493Y59118D02*
X181592D01*
X149891Y87194D02*
Y88492D01*
X149781Y88601D02*
X149891Y88492D01*
X99764Y96614D02*
X100079Y96929D01*
X95039D02*
X100079D01*
X179856Y57480D02*
X181493Y59118D01*
X176279Y57480D02*
X179856D01*
X99764Y80079D02*
Y96614D01*
X145079Y20827D02*
Y41240D01*
X140787Y16535D02*
X145079Y20827D01*
X147047Y20276D02*
X150787Y16535D01*
X147047Y20276D02*
Y41240D01*
X486811Y18373D02*
X497113D01*
X481562Y18504D02*
X481693Y18373D01*
X478346Y18504D02*
X481562D01*
X486811Y34646D02*
X498504D01*
X478346D02*
X481693D01*
X486811Y26509D02*
X502100D01*
X481562Y26378D02*
X481693Y26509D01*
Y34646D01*
Y18373D02*
Y26509D01*
X478740Y26378D02*
X481562D01*
X481693Y10236D02*
Y18373D01*
X481693Y10236D02*
X481693Y10236D01*
X478740Y10236D02*
X481693D01*
X486811D02*
X510610D01*
X279528Y33071D02*
X279528Y33071D01*
X276772Y33071D02*
X279528D01*
X268504Y33071D02*
X268504Y33071D01*
X271260D01*
X194488Y57087D02*
X194488Y57087D01*
Y53150D02*
Y57087D01*
Y53150D02*
X198031D01*
X177945Y66142D02*
X179813D01*
X186221Y51968D02*
X187402Y53150D01*
X179134Y51968D02*
X186221D01*
X177362Y65559D02*
X177945Y66142D01*
X176279Y51968D02*
X179134D01*
X138189Y98032D02*
Y98425D01*
Y98032D02*
X140959Y95262D01*
Y94717D02*
X141106Y94569D01*
X140959Y94717D02*
Y95262D01*
X147047Y73721D02*
Y92520D01*
X146850D02*
Y97244D01*
X145669Y98425D02*
X146850Y97244D01*
X153173Y89257D02*
X153320Y89109D01*
X153173Y89257D02*
Y91709D01*
X151969Y102756D02*
X153543Y104331D01*
X142126Y102756D02*
X150787D01*
X151969D01*
X138189Y98819D02*
X142126Y102756D01*
X138189Y98425D02*
Y98819D01*
X151373Y93791D02*
X151484D01*
X152362Y92913D01*
X150787Y94377D02*
X151373Y93791D01*
X152362Y92520D02*
X153173Y91709D01*
X152362Y92520D02*
Y92913D01*
X150787Y94377D02*
Y102756D01*
X153173Y88560D02*
X155512Y86221D01*
X150787Y108268D02*
X151181D01*
X152906Y106543D01*
X153381D02*
X153431Y106493D01*
X152906Y106543D02*
X153381D01*
X145669Y107874D02*
X146063Y108268D01*
X150787D01*
X125984Y104724D02*
Y107874D01*
X131102D02*
X138189D01*
X233858Y331102D02*
X309842D01*
X310236Y330709D01*
X314173Y311516D02*
X322146Y303543D01*
X310236Y330709D02*
X314173Y326772D01*
Y311516D02*
Y326772D01*
X233858Y341102D02*
X306929D01*
X310236Y337795D01*
X318996Y320472D02*
Y329035D01*
X310236Y337795D02*
X318996Y329035D01*
X155512Y345669D02*
Y346063D01*
X149891Y345855D02*
Y347036D01*
X149705Y346850D02*
X149891Y347036D01*
X155807Y341339D02*
Y345669D01*
X149705Y341339D02*
Y346850D01*
X171260Y325091D02*
Y325197D01*
Y329921D01*
X177362Y325197D02*
Y329921D01*
X119234Y314215D02*
X119291Y314272D01*
X115805Y314215D02*
X119234D01*
X115748Y314158D02*
X115805Y314215D01*
X115748Y320480D02*
X115801Y320427D01*
X119238D02*
X119291Y320374D01*
X115801Y320427D02*
X119238D01*
X170892Y318299D02*
X171573Y317618D01*
X170687Y312402D02*
X170866Y312223D01*
X175984Y317618D02*
X176279Y317323D01*
X171573Y317618D02*
X175984D01*
X170866Y312223D02*
X175984D01*
X119291Y314272D02*
X124266D01*
X119291Y320374D02*
X125394D01*
X158268Y347638D02*
X160827D01*
X161024Y347835D01*
X158059Y347638D02*
X158268D01*
X157362Y346941D02*
X158059Y347638D01*
X156390Y346941D02*
X157362D01*
X155512Y346063D02*
X156390Y346941D01*
X188394Y355716D02*
X189764Y357087D01*
X188394Y354162D02*
Y355716D01*
X188297Y354065D02*
X188394Y354162D01*
X194980Y372211D02*
Y372310D01*
X193807Y371038D02*
X194980Y372211D01*
X192520Y369849D02*
X193709Y371038D01*
X193807D01*
X190059Y372310D02*
X192520Y369849D01*
X183957Y372310D02*
Y377953D01*
X192323Y380315D02*
X192520D01*
X190059Y377953D02*
X194980D01*
X190059D02*
Y378051D01*
X192323Y380315D01*
X189764Y357087D02*
X194980D01*
X192520Y365190D02*
X193709Y364001D01*
X192381Y365150D02*
X192520D01*
X193709Y364001D02*
X193807D01*
X190059Y362828D02*
X192381Y365150D01*
X193807Y364001D02*
X194980Y362828D01*
Y362730D02*
Y362828D01*
X190059Y362730D02*
Y362828D01*
X175984Y298998D02*
X176163Y298819D01*
X178740D01*
X196449Y305906D02*
X197244D01*
X195644Y305100D02*
X196449Y305906D01*
X170947Y305100D02*
X195644D01*
X170579Y305307D02*
X170866Y305020D01*
X170768Y298819D02*
X170866Y298917D01*
X168110Y298819D02*
X170768D01*
X164961Y287500D02*
X165256Y287795D01*
X164961Y285039D02*
Y287500D01*
X159153Y282579D02*
X161417Y280315D01*
X158858Y293209D02*
X159153Y292913D01*
X165354Y293012D02*
Y295669D01*
X165256Y292913D02*
X165354Y293012D01*
X153150Y287106D02*
X153150Y287106D01*
Y283465D02*
Y287106D01*
X196752Y352756D02*
X201083Y357087D01*
X189504Y352756D02*
X196752D01*
X179256Y342508D02*
X189504Y352756D01*
X166060Y329331D02*
X179236Y342508D01*
X179256D01*
X166060Y328157D02*
Y329331D01*
X166052Y328150D02*
X166060Y328157D01*
X164272Y328150D02*
X166052D01*
X170382Y324213D02*
X171260Y325091D01*
X164272Y324213D02*
X170382D01*
X178937Y322244D02*
X210630Y353937D01*
X164272Y322244D02*
X178937D01*
X164272Y320276D02*
X168206D01*
X179727D02*
X211420Y351969D01*
X168206Y320276D02*
X179727D01*
X164279Y318299D02*
X170892D01*
X164272Y318307D02*
X164279Y318299D01*
X182027Y316515D02*
Y316518D01*
X215509Y350000D01*
X160197Y316339D02*
X164272D01*
X159812Y316515D02*
X160021D01*
X160197Y316339D01*
X182972Y314567D02*
X216437Y348031D01*
X160210Y314370D02*
X164272D01*
X159995Y314155D02*
X160210Y314370D01*
X159786Y314155D02*
X159995D01*
X164272Y312402D02*
X170687D01*
X214724Y341102D02*
X233858D01*
X204331Y330709D02*
X214724Y341102D01*
X204331Y312205D02*
Y330709D01*
X164272Y310433D02*
X167339D01*
X201370Y309244D02*
X204331Y312205D01*
X168527Y309244D02*
X201370D01*
X167339Y310433D02*
X168527Y309244D01*
X209451Y331102D02*
X233858D01*
X206693Y328344D02*
X209451Y331102D01*
X206693Y310221D02*
Y328344D01*
X164272Y308465D02*
X164279Y308457D01*
X167344D01*
X204322Y307850D02*
X206693Y310221D01*
X167950Y307850D02*
X204322D01*
X167344Y308457D02*
X167950Y307850D01*
X166232Y305901D02*
X166826Y305307D01*
X170579D01*
X166224Y306496D02*
X166232Y306488D01*
Y305901D02*
Y306488D01*
X170866Y305020D02*
X170947Y305100D01*
X152756Y312598D02*
X158858Y306496D01*
X166224D01*
X152756Y312598D02*
Y313779D01*
X158858Y301083D02*
Y303740D01*
Y293209D02*
Y301083D01*
X149213Y313386D02*
Y315748D01*
Y313386D02*
X158858Y303740D01*
X152953Y296457D02*
Y301083D01*
X153150Y293209D02*
Y296457D01*
X153150Y293209D02*
X153150Y293209D01*
X126333Y316339D02*
X131791D01*
X124266Y314272D02*
X126333Y316339D01*
X127461Y318307D02*
X131791D01*
X125394Y320374D02*
X127461Y318307D01*
X125000Y328150D02*
X131791D01*
X132187Y338679D02*
X134943D01*
X137205Y333563D02*
Y336417D01*
X134943Y338679D02*
X137205Y336417D01*
X139173Y329235D02*
Y333563D01*
X133858Y342913D02*
X136713D01*
X132776Y343996D02*
X133858Y342913D01*
X141142Y333563D02*
Y338484D01*
X136713Y342913D02*
X141142Y338484D01*
X167717Y356070D02*
X183957Y372310D01*
X167717Y349213D02*
Y356070D01*
X143012Y342265D02*
X143102Y342175D01*
Y333571D02*
X143110Y333563D01*
X143102Y333571D02*
Y342175D01*
X149016Y333563D02*
Y340650D01*
X149705Y341339D01*
X150984Y336516D02*
X155807Y341339D01*
X150984Y333563D02*
Y336516D01*
X152953Y330906D02*
Y333563D01*
X137402Y327559D02*
X138332D01*
X140014D02*
X149606D01*
X152953Y330906D01*
X139910Y327455D02*
X140014Y327559D01*
X138332D02*
X138436Y327455D01*
X139910D01*
X130709Y334252D02*
X137402Y327559D01*
X160146Y342528D02*
X160236Y342618D01*
X157465Y336415D02*
X160146Y339096D01*
Y342528D01*
X157465Y336091D02*
Y336415D01*
X156898Y335524D02*
X157465Y336091D01*
X156890Y326969D02*
Y333563D01*
X144488Y309408D02*
Y314567D01*
X156890Y326969D01*
X144390Y309310D02*
X144488Y309408D01*
X183957Y353248D02*
Y357087D01*
X164272Y333563D02*
X183957Y353248D01*
X158858Y333563D02*
X164272D01*
X181493Y318960D02*
X181592D01*
X149891Y347036D02*
Y348335D01*
X149781Y348444D02*
X149891Y348335D01*
X99764Y356457D02*
X100079Y356772D01*
X95039D02*
X100079D01*
X179856Y317323D02*
X181493Y318960D01*
X176279Y317323D02*
X179856D01*
X99764Y339921D02*
Y356457D01*
X245669Y269685D02*
X249410D01*
X242913Y266929D02*
X245669Y269685D01*
X145079Y280669D02*
Y301083D01*
X140787Y276378D02*
X145079Y280669D01*
X147047Y280118D02*
X150787Y276378D01*
X147047Y280118D02*
Y301083D01*
X481562Y278346D02*
X481693Y278215D01*
X478346Y278346D02*
X481562D01*
X486811Y294488D02*
X502047D01*
X478346D02*
X481693D01*
X481562Y286221D02*
X481693Y286352D01*
Y294488D01*
Y278215D02*
Y286352D01*
X478740Y286221D02*
X481562D01*
X481693Y270079D02*
Y278215D01*
X481693Y270079D02*
X481693Y270079D01*
X478740Y270079D02*
X481693D01*
X486811D02*
X510610D01*
X279528Y292913D02*
X279528Y292913D01*
X276772Y292913D02*
X279528D01*
X268504Y292913D02*
X268504Y292913D01*
X271260D01*
X194488Y316929D02*
X194488Y316929D01*
Y312992D02*
Y316929D01*
Y312992D02*
X198031D01*
X177945Y325984D02*
X179813D01*
X186221Y311811D02*
X187402Y312992D01*
X179134Y311811D02*
X186221D01*
X177362Y325402D02*
X177945Y325984D01*
X176279Y311811D02*
X179134D01*
X138189Y357874D02*
Y358268D01*
Y357874D02*
X140959Y355104D01*
Y354559D02*
X141106Y354411D01*
X140959Y354559D02*
Y355104D01*
X147047Y333563D02*
Y352362D01*
X146850D02*
Y357087D01*
X145669Y358268D02*
X146850Y357087D01*
X153173Y349099D02*
X153320Y348952D01*
X153173Y349099D02*
Y351552D01*
X151969Y362598D02*
X153543Y364173D01*
X142126Y362598D02*
X150787D01*
X151969D01*
X138189Y358661D02*
X142126Y362598D01*
X138189Y358268D02*
Y358661D01*
X152362Y352362D02*
X153173Y351552D01*
X152362Y352362D02*
Y352756D01*
X153173Y348402D02*
X155512Y346063D01*
X150787Y368110D02*
X151181D01*
X152906Y366386D01*
X153381D02*
X153431Y366336D01*
X152906Y366386D02*
X153381D01*
X145669Y367717D02*
X146063Y368110D01*
X150787D01*
X125984Y364567D02*
Y367717D01*
X131102D02*
X138189D01*
X151484Y223713D02*
X152362Y222835D01*
X150787Y224298D02*
X151373Y223713D01*
X152362Y222441D02*
Y222835D01*
X151373Y223713D02*
X151484D01*
X150787Y224298D02*
Y232677D01*
X152362Y222441D02*
X153173Y221631D01*
Y219178D02*
Y221631D01*
Y219178D02*
X153320Y219030D01*
X155807Y211417D02*
Y215748D01*
X153173Y218481D02*
X155512Y216142D01*
X304331Y221752D02*
Y221979D01*
X307185Y218898D02*
Y227854D01*
X149891Y217115D02*
Y218413D01*
Y215934D02*
Y217115D01*
X164279Y188378D02*
X170892D01*
X175984Y187697D02*
X176279Y187402D01*
X170892Y188378D02*
X171573Y187697D01*
X175984D01*
X149705Y211417D02*
Y216929D01*
X125984Y234646D02*
Y237795D01*
X131102D02*
X138189D01*
X153381Y236464D02*
X153431Y236414D01*
X151969Y232677D02*
X153543Y234252D01*
X150787Y232677D02*
X151969D01*
X150787Y238189D02*
X151181D01*
X152906Y236464D02*
X153381D01*
X151181Y238189D02*
X152906Y236464D01*
X146063Y238189D02*
X150787D01*
X145669Y237795D02*
X146063Y238189D01*
X138189Y228740D02*
X142126Y232677D01*
X150787D01*
X147047Y203642D02*
Y222441D01*
X145669Y228346D02*
X146850Y227165D01*
Y222441D02*
Y227165D01*
X158268Y217717D02*
X160827D01*
X161024Y217913D01*
X155512Y216142D02*
X156390Y217020D01*
X157362D01*
X158059Y217717D02*
X158268D01*
X155512Y215748D02*
Y216142D01*
X157362Y217020D02*
X158059Y217717D01*
X149781Y218523D02*
X149891Y218413D01*
X149705Y216929D02*
X149891Y217115D01*
X149016Y210728D02*
X149705Y211417D01*
X182972Y184646D02*
X216437Y218110D01*
X257087D01*
X333858Y177362D02*
X334128Y177632D01*
X338862D02*
X338888Y177607D01*
X334128Y177632D02*
X338862D01*
X182027Y186594D02*
Y186597D01*
X215509Y220079D01*
X159786Y184234D02*
X159995D01*
X160210Y184449D01*
X164272D01*
X160021Y186593D02*
X160197Y186417D01*
X164272D01*
X159812Y186593D02*
X160021D01*
X194488Y183071D02*
X198031D01*
X194488D02*
Y187008D01*
X194488Y187008D02*
X194488Y187008D01*
X186221Y181890D02*
X187402Y183071D01*
X179134Y181890D02*
X186221D01*
X201370Y179323D02*
X204331Y182283D01*
X168527Y179323D02*
X201370D01*
X204331Y182283D02*
Y200787D01*
X214724Y211181D01*
X204322Y177929D02*
X206693Y180300D01*
Y198423D01*
X167950Y177929D02*
X204322D01*
X206693Y198423D02*
X209451Y201181D01*
X176279Y181890D02*
X179134D01*
X286024Y231102D02*
X288445D01*
X327608Y241781D02*
Y244242D01*
X327559Y244291D02*
X327608Y244242D01*
X327559Y241732D02*
X327608Y241781D01*
X286024Y244882D02*
X288445D01*
X311247Y221259D02*
X311395Y221112D01*
Y220889D02*
Y221112D01*
Y220889D02*
X313287Y218996D01*
Y218898D02*
Y218996D01*
X327608Y231348D02*
Y233809D01*
X327559Y231299D02*
X327608Y231348D01*
X327559Y233858D02*
X327608Y233809D01*
X188394Y224241D02*
Y225795D01*
X188297Y224144D02*
X188394Y224241D01*
Y225795D02*
X189764Y227165D01*
X194980D01*
X15354Y260630D02*
X15748Y261024D01*
X15354Y255512D02*
Y260630D01*
X307087Y240945D02*
Y246850D01*
X124266Y184350D02*
X126333Y186417D01*
X119291Y184350D02*
X124266D01*
X126333Y186417D02*
X131791D01*
X115748Y184236D02*
X115805Y184293D01*
X119234D01*
X119291Y184350D01*
X165256Y162992D02*
X165354Y163091D01*
Y165748D01*
X170768Y168898D02*
X170866Y168996D01*
X168110Y168898D02*
X170768D01*
X153150Y157185D02*
X153150Y157185D01*
Y153543D02*
Y157185D01*
X190059Y248031D02*
Y248130D01*
X192323Y250394D02*
X192520D01*
X190059Y248130D02*
X192323Y250394D01*
X268504Y162992D02*
X268504Y162992D01*
X271260D01*
X14567Y137795D02*
Y143307D01*
Y230709D02*
Y235827D01*
X18898Y153150D02*
Y155905D01*
X14173Y160630D02*
X18898Y155905D01*
X15748Y196850D02*
X18504Y199606D01*
X14567Y184646D02*
Y190157D01*
X14567Y230709D02*
X14567Y230709D01*
X428820Y231890D02*
X432480D01*
X428740Y231970D02*
X428820Y231890D01*
X428740Y221260D02*
X432480D01*
X428740Y253389D02*
X428980Y253150D01*
X432480D01*
X428900Y242520D02*
X432480D01*
X428740Y242680D02*
X428900Y242520D01*
X361811Y228740D02*
X361942Y228871D01*
X365846D01*
X361811Y218110D02*
X365846D01*
X361811Y250394D02*
X361811Y250394D01*
X365846D01*
X361942Y239633D02*
X365846D01*
X361811Y239764D02*
X361942Y239633D01*
X389316Y232126D02*
Y232355D01*
X384173Y232126D02*
X389316D01*
X401921Y222441D02*
Y222645D01*
X396798Y222441D02*
X401921D01*
X389265Y252273D02*
X389289Y252296D01*
X384173Y252074D02*
X389265D01*
Y252273D01*
X396929Y242520D02*
X397323Y242913D01*
X401968D01*
X190059Y248031D02*
X194980D01*
X150984Y206594D02*
X155807Y211417D01*
X150984Y203642D02*
Y206594D01*
X245669Y139764D02*
X249410D01*
X242913Y137008D02*
X245669Y139764D01*
X-41972Y264567D02*
X-41972Y264567D01*
X-41972Y270866D02*
X-41972Y270866D01*
X14173Y208268D02*
X14567D01*
X18504Y204331D01*
Y199606D02*
Y204331D01*
X170866Y182301D02*
X175984D01*
X177362Y195276D02*
Y200000D01*
X176279Y187402D02*
X179856D01*
X181493Y189039D01*
X215509Y220079D02*
X255906D01*
X181493Y189039D02*
X181592D01*
X209451Y201181D02*
X233858D01*
X99764Y226535D02*
X100079Y226850D01*
X95039D02*
X100079D01*
X314173Y222047D02*
X365125D01*
X312087Y224435D02*
X312648Y223873D01*
Y223573D02*
X314173Y222047D01*
X312087Y224435D02*
Y227953D01*
X312648Y223573D02*
Y223873D01*
X166052Y198228D02*
X166060Y198236D01*
X164272Y198228D02*
X166052D01*
X166060Y198236D02*
Y199410D01*
X179236Y212587D01*
X164272Y192323D02*
X178937D01*
X210630Y224016D02*
X254331D01*
X178937Y192323D02*
X210630Y224016D01*
X177945Y196063D02*
X179813D01*
X177362Y195480D02*
X177945Y196063D01*
X211420Y222047D02*
X254865D01*
X168206Y190354D02*
X179727D01*
X164272D02*
X168206D01*
X179727D02*
X211420Y222047D01*
X170687Y182480D02*
X170866Y182301D01*
X164272Y182480D02*
X170687D01*
X478740Y140157D02*
X481693D01*
X478346Y164567D02*
X481693D01*
X478346Y148425D02*
X481562D01*
X481693Y148294D01*
X478740Y156299D02*
X481562D01*
X481693Y156430D01*
X321850Y197441D02*
X330315Y205906D01*
X179236Y212587D02*
X179256D01*
X189504Y222835D02*
X196752D01*
X179256Y212587D02*
X189504Y222835D01*
X325197Y168110D02*
X329134Y164173D01*
X344094D01*
X328248Y173622D02*
Y179380D01*
X328150Y179478D02*
X328248Y179380D01*
X342780Y174276D02*
X348441Y179937D01*
X341319Y173647D02*
X341948Y174276D01*
X342780D01*
X341319Y170866D02*
Y173647D01*
X348441Y179937D02*
X355496D01*
X362165Y173268D01*
X351320Y178157D02*
X351320Y178157D01*
X351320Y170867D02*
Y178157D01*
X351319Y170866D02*
X351320Y170867D01*
X351319Y160374D02*
Y170866D01*
X354331Y176191D02*
Y176378D01*
Y176191D02*
X356319Y174203D01*
Y170866D02*
Y174203D01*
X345118Y180413D02*
X351319Y186614D01*
X328150Y179478D02*
X329085Y180413D01*
X345118D01*
X335898Y184343D02*
X338638Y187083D01*
X340690D01*
X341319Y187712D02*
Y189764D01*
X333858Y183465D02*
X334736Y184343D01*
X335898D01*
X340690Y187083D02*
X341319Y187712D01*
X332390Y184343D02*
X333268Y183465D01*
X332234Y185089D02*
X332390Y184933D01*
X332234Y185089D02*
Y186270D01*
X333268Y183465D02*
X333858D01*
X332390Y184343D02*
Y184933D01*
X332087Y186417D02*
X332234Y186270D01*
X303543Y156299D02*
X347244D01*
X351319Y160374D01*
X512520Y345039D02*
X525039D01*
X532283Y337795D01*
X523701Y317776D02*
X529921Y311555D01*
Y306299D02*
Y311555D01*
X509974Y286352D02*
X529921Y306299D01*
X532283D02*
Y337795D01*
X504200Y278215D02*
X532283Y306299D01*
X496516Y306870D02*
X523701D01*
X502047Y294488D02*
X512520Y304961D01*
Y88268D02*
Y92283D01*
Y88268D02*
X519685Y81102D01*
X527165D01*
X532283Y75984D01*
Y47638D02*
Y75984D01*
X527165Y42520D02*
X532283Y47638D01*
X530315Y48819D02*
Y58406D01*
X526378Y44882D02*
X530315Y48819D01*
X523701Y65020D02*
X530315Y58406D01*
X520472Y44882D02*
X526378D01*
X523228Y87303D02*
X523701Y86831D01*
X523228Y87303D02*
Y95276D01*
X505827Y112677D02*
X523228Y95276D01*
X518110Y119665D02*
X534252Y103524D01*
Y33878D02*
Y103524D01*
X498504Y34646D02*
X512520Y48661D01*
X510610Y10236D02*
X534252Y33878D01*
X521260Y42520D02*
X527165D01*
X497113Y18373D02*
X521260Y42520D01*
X502100Y26509D02*
X520472Y44882D01*
X518110Y370079D02*
X534252Y353937D01*
Y293721D02*
Y353937D01*
X518110Y370079D02*
Y375965D01*
Y277579D02*
X534252Y293721D01*
X510610Y270079D02*
X518110Y277579D01*
X157465Y206169D02*
Y206493D01*
X160146Y209175D02*
Y212606D01*
X157465Y206493D02*
X160146Y209175D01*
X156898Y205602D02*
X157465Y206169D01*
X156890Y197047D02*
Y203642D01*
X333760Y249606D02*
X339370D01*
X275197Y244882D02*
X279921D01*
X283465Y176772D02*
X284752D01*
X281784D02*
X283465D01*
X272047D02*
X281784D01*
X279921Y178634D02*
X281784Y176772D01*
X279921Y178634D02*
Y180709D01*
X284752Y176772D02*
X286614Y178634D01*
Y180709D01*
X272047Y176772D02*
X272047Y176772D01*
X341319Y189764D02*
Y198406D01*
X346319Y189764D02*
Y192913D01*
X349075Y195669D01*
X363032Y187835D02*
Y189135D01*
X356497Y195669D02*
X363032Y189135D01*
X349075Y195669D02*
X356497D01*
X351319Y186614D02*
Y189764D01*
X356309Y184262D02*
Y189754D01*
X356319Y189764D01*
X356299Y184252D02*
X356309Y184262D01*
X132776Y214075D02*
Y216929D01*
Y214075D02*
X133858Y212992D01*
X119291Y190453D02*
X125394D01*
X127461Y188386D02*
X131791D01*
X125394Y190453D02*
X127461Y188386D01*
X115801Y190506D02*
X119238D01*
X119291Y190453D01*
X115748Y190559D02*
X115801Y190506D01*
X153150Y163287D02*
X153150Y163287D01*
X152953Y166535D02*
Y171161D01*
X153150Y163287D02*
Y166535D01*
X144390Y179388D02*
X144488Y179487D01*
Y184646D01*
X156890Y197047D01*
X158858Y176575D02*
X166224D01*
X152756Y182677D02*
X158858Y176575D01*
X152756Y182677D02*
Y183858D01*
X149213Y183465D02*
X158858Y173819D01*
Y171161D02*
Y173819D01*
X149213Y183465D02*
Y185827D01*
X158858Y163287D02*
Y171161D01*
X195644Y175179D02*
X196449Y175984D01*
X197244D01*
X175984Y175179D02*
X195644D01*
X214724Y211181D02*
X233858D01*
X164279Y178535D02*
X167344D01*
X167950Y177929D01*
X164272Y178543D02*
X164279Y178535D01*
X164272Y180512D02*
X167339D01*
X168527Y179323D01*
X257087Y218110D02*
X270079Y231102D01*
X254865Y222047D02*
X271007Y238189D01*
X255906Y220079D02*
X272441Y236614D01*
X254331Y224016D02*
X275197Y244882D01*
X233858Y211181D02*
X306929D01*
X233858Y201181D02*
X309842D01*
X164272Y188386D02*
X164279Y188378D01*
X171260Y195276D02*
Y200000D01*
X170382Y194291D02*
X171260Y195169D01*
Y195276D01*
X164272Y194291D02*
X170382D01*
X176163Y168898D02*
X178740D01*
X175984Y169077D02*
X176163Y168898D01*
X164961Y157579D02*
X165256Y157874D01*
X164961Y155118D02*
Y157579D01*
X134943Y208758D02*
X137205Y206496D01*
X132187Y208758D02*
X134943D01*
X137205Y203642D02*
Y206496D01*
X138332Y197638D02*
X138436Y197534D01*
X139910D01*
X140014Y197638D02*
X149606D01*
X137402D02*
X138332D01*
X139910Y197534D02*
X140014Y197638D01*
X130709Y204331D02*
X137402Y197638D01*
X149606D02*
X152953Y200984D01*
X139173Y199313D02*
Y203642D01*
X158858D02*
X164272D01*
X183957Y223327D02*
Y227165D01*
X164272Y203642D02*
X183957Y223327D01*
X192381Y235228D02*
X192520D01*
X190059Y232907D02*
X192381Y235228D01*
X190059Y242388D02*
X192520Y239928D01*
X190059Y232808D02*
Y232907D01*
X192520Y235269D02*
X193709Y234080D01*
X194980Y242290D02*
Y242388D01*
Y232808D02*
Y232907D01*
X193807Y234080D02*
X194980Y232907D01*
X193709Y234080D02*
X193807D01*
X193709Y241117D02*
X193807D01*
X192520Y239928D02*
X193709Y241117D01*
X193807D02*
X194980Y242290D01*
X196752Y222835D02*
X201083Y227165D01*
X170947Y175179D02*
X175984D01*
X170866Y175098D02*
X170947Y175179D01*
X166232Y175979D02*
Y176567D01*
Y175979D02*
X166826Y175386D01*
X170579D01*
X166224Y176575D02*
X166232Y176567D01*
X170579Y175386D02*
X170866Y175098D01*
X160146Y212606D02*
X160236Y212697D01*
X143102Y203650D02*
X143110Y203642D01*
X143102Y203650D02*
Y212253D01*
X143012Y212344D02*
X143102Y212253D01*
X167717Y226148D02*
X183957Y242388D01*
X167717Y219291D02*
Y226148D01*
X310236Y200787D02*
X314173Y196850D01*
Y181595D02*
Y196850D01*
X279528Y162992D02*
X279528Y162992D01*
X276772Y162992D02*
X279528D01*
X306988Y176772D02*
X311024D01*
X300689Y159153D02*
Y177165D01*
Y159153D02*
X303543Y156299D01*
X255551Y140787D02*
Y149409D01*
X254528Y139764D02*
X255551Y140787D01*
X310236Y207874D02*
X318996Y199114D01*
X390551Y215354D02*
X390577Y215328D01*
X396772D01*
X304331Y221979D02*
X304386D01*
X304331Y221752D02*
X307185Y218898D01*
X301575Y216929D02*
Y224410D01*
X271007Y238189D02*
X327165D01*
X333465Y244488D01*
X272441Y236614D02*
X327953D01*
X333465Y231102D01*
X183957Y242388D02*
Y248031D01*
X125000Y198228D02*
X131791D01*
X-30709Y198425D02*
X-30709Y198425D01*
X-48819Y198425D02*
X-30709D01*
X133858Y212992D02*
X136713D01*
X141142Y203642D02*
Y208563D01*
X152953Y200984D02*
Y203642D01*
X518110Y240158D02*
Y246043D01*
Y240158D02*
X534252Y224016D01*
Y163799D02*
Y224016D01*
X518110Y147658D02*
X534252Y163799D01*
X510610Y140157D02*
X518110Y147658D01*
X486811Y140157D02*
X510610D01*
X512520Y218661D02*
X526614D01*
X532283Y212992D01*
Y177559D02*
Y212992D01*
X527165Y172441D02*
X532283Y177559D01*
X521260Y172441D02*
X527165D01*
X497113Y148294D02*
X521260Y172441D01*
X486811Y148294D02*
X497113D01*
X523701Y191398D02*
X530315Y184783D01*
Y178740D02*
Y184783D01*
X526378Y174803D02*
X530315Y178740D01*
X520472Y174803D02*
X526378D01*
X502100Y156430D02*
X520472Y174803D01*
X486811Y156430D02*
X502100D01*
X486811Y164567D02*
X502047D01*
X512520Y175039D01*
X507126Y191339D02*
X512520Y185945D01*
X492126Y191339D02*
X507126D01*
X482388Y220997D02*
X492126Y211260D01*
X507874Y196850D02*
X512520D01*
X492126Y212598D02*
X507874Y196850D01*
X509114Y202303D02*
X523701D01*
X470367Y253018D02*
X492126Y231260D01*
X509173Y207756D02*
X512520D01*
X508839Y213209D02*
X523701D01*
X274016Y225984D02*
X279626D01*
X272047Y188583D02*
X272342Y188878D01*
X303346D01*
X304823Y187894D02*
X310236Y193307D01*
X304823Y187402D02*
Y187894D01*
X300689Y177165D02*
X310925Y187402D01*
X325098Y190551D02*
X325197Y190650D01*
X314173Y181595D02*
X322146Y173622D01*
X331102Y190650D02*
X336221D01*
X325197D02*
X331102D01*
X322047Y185335D02*
X322146Y185433D01*
X322047Y179478D02*
Y185335D01*
X328150D02*
X328248Y185433D01*
X328150Y179478D02*
Y185335D01*
X434626Y193701D02*
X435394Y192933D01*
X423228Y193701D02*
X434626D01*
X420197Y190669D02*
X423228Y193701D01*
X420197Y189606D02*
Y190669D01*
X434232Y197874D02*
X435394Y199035D01*
X423937Y197874D02*
X434232D01*
X386516Y184777D02*
X415368D01*
X420197Y189606D01*
X377690Y184777D02*
X380413D01*
X369921Y177008D02*
X377690Y184777D01*
X366850Y177008D02*
X369921D01*
X406102Y170965D02*
Y172638D01*
X403937Y174803D02*
X406102Y172638D01*
X396752Y174803D02*
X403937D01*
X386516Y164567D02*
X396752Y174803D01*
X375453Y169528D02*
X380413Y164567D01*
X365669Y169528D02*
X375453D01*
X413346Y165374D02*
X421732D01*
X424409Y162697D01*
X402362D02*
X405039Y165374D01*
X413346D01*
X412835Y170965D02*
X413346Y171476D01*
X406102Y170965D02*
X412835D01*
X422795Y199016D02*
X423937Y197874D01*
X413386Y199016D02*
X422795D01*
X412224Y197854D02*
X413386Y199016D01*
X401929Y197854D02*
X412224D01*
X412205Y194095D02*
X413386Y192913D01*
X402697Y194095D02*
X412205D01*
X398189Y189587D02*
X402697Y194095D01*
X386516Y194882D02*
X392894D01*
X398189Y189587D01*
X377106Y191575D02*
X380413Y194882D01*
X366850Y191575D02*
X377106D01*
X424311Y174803D02*
X428150Y170965D01*
X407087Y174803D02*
X424311D01*
X393307D02*
X395669Y177165D01*
X404724D01*
X386516Y174803D02*
X393307D01*
X404724Y177165D02*
X407087Y174803D01*
X377165Y179134D02*
X380413Y175886D01*
Y174803D02*
Y175886D01*
X366850Y184095D02*
X372205D01*
X428150Y170965D02*
X435374D01*
X435787Y171378D01*
X426988Y165276D02*
X435787D01*
X424409Y162697D02*
X426988Y165276D01*
X438976Y195884D02*
X442224Y199132D01*
X438976Y190551D02*
Y195884D01*
X438031Y189606D02*
X438976Y190551D01*
X427677Y189606D02*
X438031D01*
X436399Y177559D02*
X442224Y183384D01*
X409055Y177559D02*
X436399D01*
X401476Y170965D02*
X401575Y170866D01*
X398622Y170965D02*
X401476D01*
X451575Y196063D02*
Y201181D01*
X448327Y192815D02*
X451575Y196063D01*
X446850Y205906D02*
X451575Y201181D01*
X448327Y191258D02*
Y192815D01*
X330315Y205906D02*
X446850D01*
X419291Y184587D02*
X435553D01*
X442224Y191258D01*
X408839Y189587D02*
X409055Y189370D01*
X405669Y189587D02*
X408839D01*
X255551Y189173D02*
X256142Y188583D01*
X272047D01*
X261811Y166535D02*
X272047Y176772D01*
X255551Y160276D02*
X261811Y166535D01*
X255551Y149409D02*
Y160276D01*
X363032Y187835D02*
X373937D01*
X344094Y201181D02*
X398602D01*
X401929Y197854D01*
X341319Y198406D02*
X344094Y201181D01*
X346319Y166398D02*
Y170866D01*
X344094Y164173D02*
X346319Y166398D01*
X362165Y173268D02*
X373937D01*
X309842Y201181D02*
X310236Y200787D01*
X464155Y191339D02*
X492126D01*
X460943Y191258D02*
X464075D01*
X448327D02*
X460943D01*
X464075D02*
X464155Y191339D01*
X448327Y178642D02*
X460943Y191258D01*
X448327Y175510D02*
Y178642D01*
X303346Y188878D02*
X304823Y187402D01*
X371949Y228871D02*
X372041Y228780D01*
X371949Y239633D02*
X372566Y239016D01*
X270079Y231102D02*
X279921D01*
X372041Y228780D02*
X392441D01*
X372907Y219068D02*
X405039D01*
X371949Y218110D02*
X372907Y219068D01*
X371949Y250394D02*
X373616Y248727D01*
X392441D01*
X372566Y239016D02*
X405039D01*
X380472Y235276D02*
X396772D01*
X384173Y221732D02*
X384252Y221654D01*
X447638Y234646D02*
X450000Y232283D01*
X438583Y231890D02*
X441339Y234646D01*
X447638D01*
X450000Y231496D02*
X481890D01*
X441181Y228780D02*
X443898Y231496D01*
X392441Y228780D02*
X441181D01*
X450000Y220997D02*
X482388D01*
X441339Y224016D02*
X447638D01*
X450000Y221654D01*
X438583Y221260D02*
X441339Y224016D01*
X450000Y220997D02*
Y221654D01*
X405997Y218110D02*
X441011D01*
X405039Y219068D02*
X405997Y218110D01*
X441011D02*
X443898Y220997D01*
X447638Y256299D02*
X450000Y253937D01*
Y253018D02*
Y253937D01*
X438583Y253150D02*
X441732Y256299D01*
X447638D01*
X450000Y253018D02*
X470367D01*
X440879Y250000D02*
X443898Y253018D01*
X393714Y250000D02*
X440879D01*
X392441Y248727D02*
X393714Y250000D01*
X450000Y242520D02*
Y243307D01*
X447638Y245669D02*
X450000Y243307D01*
Y242520D02*
X469291D01*
X438583Y242520D02*
X441732Y245669D01*
X447638D01*
X469291Y242520D02*
X469291Y242520D01*
X405039Y239016D02*
X440394D01*
X443898Y242520D01*
X333465Y226280D02*
Y231102D01*
Y226280D02*
X333760Y225984D01*
X339370D01*
X339370Y225984D01*
X279626Y230807D02*
X279921Y231102D01*
X279626Y225984D02*
Y230807D01*
Y250000D02*
X279921Y249705D01*
X274016Y250000D02*
X274016Y250000D01*
X279626D01*
X279921Y244882D02*
Y249705D01*
X333760Y249606D02*
X333760Y249606D01*
X333465Y249311D02*
X333760Y249606D01*
X333465Y244488D02*
Y249311D01*
X287697Y227953D02*
X292087D01*
X285728Y225984D02*
X287697Y227953D01*
X292087D02*
X297087D01*
X301575Y224410D02*
X302087Y224921D01*
Y227953D01*
X368799Y214961D02*
X371949Y218110D01*
X303543Y214961D02*
X368799D01*
X301575Y216929D02*
X303543Y214961D01*
X307087Y227953D02*
X307185Y227854D01*
X365125Y222047D02*
X371949Y228871D01*
X325689Y227953D02*
X327658Y225984D01*
X322087Y227953D02*
X325689D01*
X317087D02*
X322087D01*
X285728Y250000D02*
X288937D01*
X292087Y246850D01*
X297087D01*
X305906Y255118D02*
X367224D01*
X371949Y250394D01*
X302087Y251299D02*
X305906Y255118D01*
X302087Y246850D02*
Y251299D01*
X314173Y253543D02*
X353937D01*
X363779Y243701D01*
X312087Y251457D02*
X314173Y253543D01*
X312087Y246850D02*
Y251457D01*
X363779Y243701D02*
X367881D01*
X371949Y239633D01*
X322087Y246850D02*
X324902D01*
X327658Y249606D01*
X317087Y246850D02*
X322087D01*
X306929Y211181D02*
X310236Y207874D01*
X318996Y190551D02*
Y199114D01*
X384173Y241811D02*
X384252Y241732D01*
X384173Y221732D02*
Y225039D01*
Y241811D02*
Y244987D01*
X379134Y236614D02*
X380472Y235276D01*
X159153Y152657D02*
X161417Y150394D01*
X159153Y152657D02*
Y157874D01*
X158858Y163287D02*
X159153Y162992D01*
Y157874D02*
Y162992D01*
X136713Y212992D02*
X141142Y208563D01*
X149016Y203642D02*
Y210728D01*
X99764Y210000D02*
Y226535D01*
X147047Y150197D02*
X150787Y146457D01*
X147047Y150197D02*
Y171161D01*
X145079Y150748D02*
Y171161D01*
X140787Y146457D02*
X145079Y150748D01*
X481693Y148294D02*
Y156430D01*
Y164567D01*
Y140157D02*
Y148294D01*
X481693Y140157D02*
X481693Y140157D01*
X-37402Y223622D02*
X-37402Y223622D01*
X13484Y154035D02*
X14173Y154724D01*
X6693Y154035D02*
X13484D01*
X-48819Y154331D02*
X-39370D01*
X-39370Y154331D01*
X-48819Y211024D02*
X-37402D01*
X-48819Y204724D02*
X-37402D01*
X-48819Y217323D02*
X-37402D01*
X-48819Y223622D02*
X-37402D01*
X-48819Y229921D02*
X-37402D01*
X-48819Y179528D02*
X-37402D01*
X-48819Y160630D02*
X-38583D01*
X-48819Y166929D02*
X-37402D01*
X-37402Y173228D02*
X-37402Y173228D01*
X-48819Y173228D02*
X-37402D01*
X-48819Y236221D02*
X-37402D01*
X-37402Y242520D02*
X-37402Y242520D01*
X-48819Y242520D02*
X-37402D01*
D18*
X492126Y51417D02*
X494823Y54114D01*
X523701D01*
X321955Y55702D02*
X322146Y55512D01*
X324606Y60630D02*
X324852Y60384D01*
X331102Y66831D02*
X336221D01*
X443916Y73622D02*
X448327Y69211D01*
X343012Y73622D02*
X443916D01*
X336221Y66831D02*
X343012Y73622D01*
X321955Y55702D02*
Y67415D01*
X321850Y67520D02*
X321906Y67464D01*
X321850Y67520D02*
X321850D01*
X321906Y67464D02*
X321955Y67415D01*
X442224Y40650D02*
Y45589D01*
X431621Y38313D02*
X439888D01*
X442224Y40650D01*
X430315Y37008D02*
X431621Y38313D01*
X420669Y41043D02*
X421848D01*
X425883Y37008D02*
X430315D01*
X421848Y41043D02*
X425883Y37008D01*
X324852Y60384D02*
X325197Y60039D01*
Y38189D02*
Y60039D01*
X464409Y51417D02*
X492126D01*
X445276Y52756D02*
Y66160D01*
X445983Y53463D02*
X448327D01*
X452756Y39764D02*
X464409Y51417D01*
X447244Y39764D02*
X452756D01*
X445276Y66160D02*
X448327Y69211D01*
X445276Y41732D02*
Y52756D01*
X445983Y53463D01*
X445276Y41732D02*
X447244Y39764D01*
X321955Y315545D02*
X322146Y315354D01*
X324606Y320472D02*
X324852Y320226D01*
X331102Y326673D02*
X336221D01*
X443916Y333465D02*
X448327Y329053D01*
X343012Y333465D02*
X443916D01*
X336221Y326673D02*
X343012Y333465D01*
X321955Y315545D02*
Y327257D01*
X321850Y327362D02*
X321906Y327307D01*
X321850Y327362D02*
X321850D01*
X321906Y327307D02*
X321955Y327257D01*
X442224Y300492D02*
Y305431D01*
X431621Y298156D02*
X439888D01*
X442224Y300492D01*
X430315Y296850D02*
X431621Y298156D01*
X420669Y300886D02*
X421848D01*
X425883Y296850D02*
X430315D01*
X421848Y300886D02*
X425883Y296850D01*
X324852Y320226D02*
X325197Y319882D01*
Y298031D02*
Y319882D01*
X464409Y311260D02*
X492126D01*
X445276Y312598D02*
Y326002D01*
X445983Y313305D02*
X448327D01*
X452756Y299606D02*
X464409Y311260D01*
X447244Y299606D02*
X452756D01*
X445276Y326002D02*
X448327Y329053D01*
X445276Y301575D02*
Y312598D01*
X445983Y313305D01*
X445276Y301575D02*
X447244Y299606D01*
X201083Y112369D02*
Y112467D01*
Y118110D01*
X180709Y107087D02*
X195801D01*
X201083Y112369D01*
X169685Y96063D02*
X180709Y107087D01*
X166823Y85327D02*
X169685Y88189D01*
Y96063D01*
X163575Y85327D02*
X166823D01*
X158177Y85343D02*
X163559D01*
X158079Y85244D02*
X158177Y85343D01*
X163559D02*
X163575Y85327D01*
X158079Y79157D02*
Y85244D01*
X155496Y76575D02*
X158079Y79157D01*
X155496Y76248D02*
Y76575D01*
X154921Y75673D02*
X155496Y76248D01*
X154921Y73721D02*
Y75673D01*
X201083Y372211D02*
Y372310D01*
Y377953D01*
X180709Y366929D02*
X195801D01*
X201083Y372211D01*
X169685Y355906D02*
X180709Y366929D01*
X166823Y345169D02*
X169685Y348031D01*
Y355906D01*
X163575Y345169D02*
X166823D01*
X158177Y345185D02*
X163559D01*
X158079Y345087D02*
X158177Y345185D01*
X163559D02*
X163575Y345169D01*
X158079Y339000D02*
Y345087D01*
X155496Y336417D02*
X158079Y339000D01*
X155496Y336091D02*
Y336417D01*
X154921Y335516D02*
X155496Y336091D01*
X154921Y333563D02*
Y335516D01*
X431621Y168235D02*
X439888D01*
X442224Y170571D01*
Y175510D01*
X430315Y166929D02*
X431621Y168235D01*
X321850Y197441D02*
X321906Y197386D01*
X321850Y197441D02*
X321850D01*
X321955Y185624D02*
Y197336D01*
Y185624D02*
X322146Y185433D01*
X321906Y197386D02*
X321955Y197336D01*
X158079Y209079D02*
Y215165D01*
X158177Y215264D01*
X163559D01*
X324606Y190551D02*
X324852Y190305D01*
X325197Y168110D02*
Y189961D01*
X324852Y190305D02*
X325197Y189961D01*
X201083Y242388D02*
Y248031D01*
X195801Y237008D02*
X201083Y242290D01*
X180709Y237008D02*
X195801D01*
X201083Y242290D02*
Y242388D01*
X166823Y215248D02*
X169685Y218110D01*
X163575Y215248D02*
X166823D01*
X163559Y215264D02*
X163575Y215248D01*
X155496Y206496D02*
X158079Y209079D01*
X154921Y205594D02*
X155496Y206169D01*
X154921Y203642D02*
Y205594D01*
X155496Y206169D02*
Y206496D01*
X169685Y218110D02*
Y225984D01*
X180709Y237008D01*
X492126Y181339D02*
X492972Y180492D01*
X523701D01*
X331102Y196752D02*
X336221D01*
X443916Y203543D02*
X448327Y199132D01*
X343012Y203543D02*
X443916D01*
X336221Y196752D02*
X343012Y203543D01*
X420669Y170965D02*
X421848D01*
X425883Y166929D02*
X430315D01*
X421848Y170965D02*
X425883Y166929D01*
X464409Y181339D02*
X492126D01*
X452756Y169685D02*
X464409Y181339D01*
X447244Y169685D02*
X452756D01*
X445276Y196081D02*
X448327Y199132D01*
X445983Y183384D02*
X448327D01*
X445276Y182677D02*
X445983Y183384D01*
X445276Y171653D02*
X447244Y169685D01*
X445276Y182677D02*
Y196081D01*
Y171653D02*
Y182677D01*
D19*
X48594Y123228D02*
D03*
X55344D02*
D03*
D20*
X-5315Y115748D02*
D03*
X-197D02*
D03*
X-197Y122047D02*
D03*
X-5315D02*
D03*
X62795Y129134D02*
D03*
X67913D02*
D03*
X62795Y122835D02*
D03*
X67913D02*
D03*
X126181Y108268D02*
D03*
X131299D02*
D03*
X125984Y367717D02*
D03*
X131102D02*
D03*
Y237795D02*
D03*
X125984D02*
D03*
X310433Y57480D02*
D03*
X305315D02*
D03*
X310433Y187402D02*
D03*
X305315D02*
D03*
X310433Y317323D02*
D03*
X305315D02*
D03*
X327756Y49557D02*
D03*
X322638D02*
D03*
X327756Y179478D02*
D03*
X322638D02*
D03*
X327756Y309400D02*
D03*
X322638D02*
D03*
X447835Y45589D02*
D03*
X442717D02*
D03*
X447835Y175510D02*
D03*
X442717D02*
D03*
X447835Y305431D02*
D03*
X442717D02*
D03*
X442717Y61337D02*
D03*
X447835D02*
D03*
X442717Y191258D02*
D03*
X447835D02*
D03*
X442717Y321179D02*
D03*
X447835D02*
D03*
X447835Y53463D02*
D03*
X442717D02*
D03*
X447835Y183384D02*
D03*
X442717D02*
D03*
X447835Y313305D02*
D03*
X442717D02*
D03*
X442717Y69211D02*
D03*
X447835D02*
D03*
X442717Y199132D02*
D03*
X447835D02*
D03*
X442717Y329053D02*
D03*
X447835D02*
D03*
X380906Y44882D02*
D03*
X386024D02*
D03*
X380906Y174803D02*
D03*
X386024D02*
D03*
X380906Y304724D02*
D03*
X386024D02*
D03*
X380906Y64961D02*
D03*
X386024D02*
D03*
X380906Y194882D02*
D03*
X386024D02*
D03*
X380906Y324803D02*
D03*
X386024D02*
D03*
X380906Y34646D02*
D03*
X386024D02*
D03*
X380906Y164567D02*
D03*
X386024D02*
D03*
X380906Y294488D02*
D03*
X386024D02*
D03*
X380906Y54856D02*
D03*
X386024D02*
D03*
X380906Y184777D02*
D03*
X386024D02*
D03*
X380906Y314698D02*
D03*
X386024D02*
D03*
X328150Y119685D02*
D03*
X333268D02*
D03*
X328150Y249606D02*
D03*
X333268D02*
D03*
X328150Y379528D02*
D03*
X333268D02*
D03*
X285236Y120079D02*
D03*
X280118D02*
D03*
X285236Y250000D02*
D03*
X280118D02*
D03*
X285236Y379921D02*
D03*
X280118D02*
D03*
X285236Y96063D02*
D03*
X280118D02*
D03*
X285236Y225984D02*
D03*
X280118D02*
D03*
X285236Y355906D02*
D03*
X280118D02*
D03*
X328150Y96063D02*
D03*
X333268D02*
D03*
X328150Y225984D02*
D03*
X333268D02*
D03*
X328150Y355906D02*
D03*
X333268D02*
D03*
X449508Y112598D02*
D03*
X444390D02*
D03*
X449508Y242520D02*
D03*
X444390D02*
D03*
X449508Y372441D02*
D03*
X444390D02*
D03*
X449508Y123097D02*
D03*
X444390D02*
D03*
X449508Y253018D02*
D03*
X444390D02*
D03*
X449508Y382940D02*
D03*
X444390D02*
D03*
X449508Y91076D02*
D03*
X444390D02*
D03*
X449508Y220997D02*
D03*
X444390D02*
D03*
X449508Y350919D02*
D03*
X444390D02*
D03*
X449508Y101575D02*
D03*
X444390D02*
D03*
X449508Y231496D02*
D03*
X444390D02*
D03*
X449508Y361417D02*
D03*
X444390D02*
D03*
X327756Y43701D02*
D03*
X322638D02*
D03*
X327756Y173622D02*
D03*
X322638D02*
D03*
X327756Y303543D02*
D03*
X322638D02*
D03*
X324606Y60630D02*
D03*
X319488D02*
D03*
X324606Y190551D02*
D03*
X319488D02*
D03*
X324606Y320472D02*
D03*
X319488D02*
D03*
X306496Y46850D02*
D03*
X301378D02*
D03*
X306496Y176772D02*
D03*
X301378D02*
D03*
X306496Y306693D02*
D03*
X301378D02*
D03*
X164764Y33071D02*
D03*
X159646D02*
D03*
X164764Y162992D02*
D03*
X159646D02*
D03*
X164764Y292913D02*
D03*
X159646D02*
D03*
X159646Y27953D02*
D03*
X164764D02*
D03*
X159646Y157874D02*
D03*
X164764D02*
D03*
X159646Y287795D02*
D03*
X164764D02*
D03*
X200591Y102887D02*
D03*
X195473D02*
D03*
X200591Y232808D02*
D03*
X195473D02*
D03*
X200591Y362730D02*
D03*
X195473D02*
D03*
X195473Y97244D02*
D03*
X200591D02*
D03*
X195473Y227165D02*
D03*
X200591D02*
D03*
X195473Y357087D02*
D03*
X200591D02*
D03*
X133268Y87008D02*
D03*
X138386D02*
D03*
X133268Y216929D02*
D03*
X138386D02*
D03*
X133268Y346850D02*
D03*
X138386D02*
D03*
X184449Y102887D02*
D03*
X189567D02*
D03*
X184449Y232808D02*
D03*
X189567D02*
D03*
X184449Y362730D02*
D03*
X189567D02*
D03*
X189567Y118110D02*
D03*
X184449D02*
D03*
X189567Y248031D02*
D03*
X184449D02*
D03*
X189567Y377953D02*
D03*
X184449D02*
D03*
X184449Y112467D02*
D03*
X189567D02*
D03*
X184449Y242388D02*
D03*
X189567D02*
D03*
X184449Y372310D02*
D03*
X189567D02*
D03*
X189567Y97244D02*
D03*
X184449D02*
D03*
X189567Y227165D02*
D03*
X184449D02*
D03*
X189567Y357087D02*
D03*
X184449D02*
D03*
X200591Y112467D02*
D03*
X195473D02*
D03*
X200591Y242388D02*
D03*
X195473D02*
D03*
X200591Y372310D02*
D03*
X195473D02*
D03*
X195473Y118110D02*
D03*
X200591D02*
D03*
X195473Y248031D02*
D03*
X200591D02*
D03*
X195473Y377953D02*
D03*
X200591D02*
D03*
X248228Y11811D02*
D03*
X253346D02*
D03*
X481693Y18373D02*
D03*
X486811D02*
D03*
X481693Y34646D02*
D03*
X486811D02*
D03*
X481693Y26509D02*
D03*
X486811D02*
D03*
X486811Y10236D02*
D03*
X481693D02*
D03*
X481693Y148294D02*
D03*
X486811D02*
D03*
X481693Y164567D02*
D03*
X486811D02*
D03*
X481693Y156430D02*
D03*
X486811D02*
D03*
X486811Y140157D02*
D03*
X481693D02*
D03*
X248228Y139764D02*
D03*
X253346D02*
D03*
X486811Y278215D02*
D03*
X481693D02*
D03*
X486811Y286352D02*
D03*
X481693D02*
D03*
X486811Y294488D02*
D03*
X481693D02*
D03*
X481693Y270079D02*
D03*
X486811D02*
D03*
X253346Y269685D02*
D03*
X248228D02*
D03*
D21*
X52157Y94306D02*
D03*
X57157D02*
D03*
X62157D02*
D03*
X67157D02*
D03*
X52157Y115763D02*
D03*
X57157D02*
D03*
X62157D02*
D03*
X67157D02*
D03*
D22*
X46457Y110236D02*
D03*
Y115748D02*
D03*
X150787Y108268D02*
D03*
Y102756D02*
D03*
Y238189D02*
D03*
Y232677D02*
D03*
Y368110D02*
D03*
Y362598D02*
D03*
X336221Y66535D02*
D03*
Y61024D02*
D03*
Y196457D02*
D03*
Y190945D02*
D03*
Y326378D02*
D03*
Y320866D02*
D03*
X334646Y47736D02*
D03*
Y53248D02*
D03*
Y177657D02*
D03*
Y183169D02*
D03*
Y307579D02*
D03*
Y313090D02*
D03*
X175984Y181890D02*
D03*
Y187402D02*
D03*
X170866Y181890D02*
D03*
Y187402D02*
D03*
Y51968D02*
D03*
Y57480D02*
D03*
Y311811D02*
D03*
Y317323D02*
D03*
X119291Y60236D02*
D03*
Y54724D02*
D03*
Y190157D02*
D03*
Y184646D02*
D03*
Y320079D02*
D03*
Y314567D02*
D03*
X175984Y51968D02*
D03*
Y57480D02*
D03*
Y311811D02*
D03*
Y317323D02*
D03*
X124803Y60236D02*
D03*
Y54724D02*
D03*
Y190157D02*
D03*
Y184646D02*
D03*
Y320079D02*
D03*
Y314567D02*
D03*
D23*
X50394Y86417D02*
D03*
Y81299D02*
D03*
X56299Y86417D02*
D03*
Y81299D02*
D03*
X62205Y86417D02*
D03*
Y81299D02*
D03*
X6693Y273031D02*
D03*
Y278150D02*
D03*
X6693Y131693D02*
D03*
Y136811D02*
D03*
Y178543D02*
D03*
Y183661D02*
D03*
X7087Y225000D02*
D03*
Y230118D02*
D03*
X6693Y154527D02*
D03*
Y159646D02*
D03*
Y202165D02*
D03*
Y207283D02*
D03*
X8268Y249803D02*
D03*
Y254921D02*
D03*
X331102Y61221D02*
D03*
Y66339D02*
D03*
Y191142D02*
D03*
Y196260D02*
D03*
Y321063D02*
D03*
Y326181D02*
D03*
X435787Y40965D02*
D03*
Y35846D02*
D03*
Y170886D02*
D03*
Y165768D02*
D03*
Y300807D02*
D03*
Y295689D02*
D03*
X413386Y63484D02*
D03*
Y68602D02*
D03*
Y193405D02*
D03*
Y198524D02*
D03*
Y323327D02*
D03*
Y328445D02*
D03*
X413346Y41063D02*
D03*
Y35945D02*
D03*
Y170984D02*
D03*
Y165866D02*
D03*
Y300905D02*
D03*
Y295787D02*
D03*
X435394Y63504D02*
D03*
Y68622D02*
D03*
Y193425D02*
D03*
Y198543D02*
D03*
Y323346D02*
D03*
Y328465D02*
D03*
X-29921Y119095D02*
D03*
Y113976D02*
D03*
X-23622Y113976D02*
D03*
Y119095D02*
D03*
X153150Y32874D02*
D03*
Y27756D02*
D03*
Y162795D02*
D03*
Y157677D02*
D03*
Y292717D02*
D03*
Y287598D02*
D03*
X170866Y39567D02*
D03*
Y44685D02*
D03*
Y169488D02*
D03*
Y174606D02*
D03*
Y299409D02*
D03*
Y304528D02*
D03*
X175984Y44765D02*
D03*
Y39647D02*
D03*
Y174687D02*
D03*
Y169569D02*
D03*
Y304608D02*
D03*
Y299490D02*
D03*
X161024Y82874D02*
D03*
Y87992D02*
D03*
Y212795D02*
D03*
Y217913D02*
D03*
Y342717D02*
D03*
Y347835D02*
D03*
D24*
X158858Y333563D02*
D03*
X156890D02*
D03*
X154921D02*
D03*
X152953D02*
D03*
X150984D02*
D03*
X149016D02*
D03*
X147047D02*
D03*
X145079D02*
D03*
X143110D02*
D03*
X141142D02*
D03*
X139173D02*
D03*
X137205D02*
D03*
Y301083D02*
D03*
X139173D02*
D03*
X141142D02*
D03*
X143110D02*
D03*
X145079D02*
D03*
X147047D02*
D03*
X149016D02*
D03*
X150984D02*
D03*
X152953D02*
D03*
X154921D02*
D03*
X156890D02*
D03*
X158858D02*
D03*
Y203642D02*
D03*
X156890D02*
D03*
X154921D02*
D03*
X152953D02*
D03*
X150984D02*
D03*
X149016D02*
D03*
X147047D02*
D03*
X145079D02*
D03*
X143110D02*
D03*
X141142D02*
D03*
X139173D02*
D03*
X137205D02*
D03*
Y171161D02*
D03*
X139173D02*
D03*
X141142D02*
D03*
X143110D02*
D03*
X145079D02*
D03*
X147047D02*
D03*
X149016D02*
D03*
X150984D02*
D03*
X152953D02*
D03*
X154921D02*
D03*
X156890D02*
D03*
X158858D02*
D03*
Y73721D02*
D03*
X156890D02*
D03*
X154921D02*
D03*
X152953D02*
D03*
X150984D02*
D03*
X149016D02*
D03*
X147047D02*
D03*
X145079D02*
D03*
X143110D02*
D03*
X141142D02*
D03*
X139173D02*
D03*
X137205D02*
D03*
Y41240D02*
D03*
X139173D02*
D03*
X141142D02*
D03*
X143110D02*
D03*
X145079D02*
D03*
X147047D02*
D03*
X149016D02*
D03*
X150984D02*
D03*
X152953D02*
D03*
X154921D02*
D03*
X156890D02*
D03*
X158858D02*
D03*
D25*
X131791Y328150D02*
D03*
Y326181D02*
D03*
Y324213D02*
D03*
Y322244D02*
D03*
Y320276D02*
D03*
Y318307D02*
D03*
Y316339D02*
D03*
Y314370D02*
D03*
Y312402D02*
D03*
Y310433D02*
D03*
Y308465D02*
D03*
Y306496D02*
D03*
X164272D02*
D03*
Y308465D02*
D03*
Y310433D02*
D03*
Y312402D02*
D03*
Y314370D02*
D03*
Y316339D02*
D03*
Y318307D02*
D03*
Y320276D02*
D03*
Y322244D02*
D03*
Y324213D02*
D03*
Y326181D02*
D03*
Y328150D02*
D03*
X131791Y198228D02*
D03*
Y196260D02*
D03*
Y194291D02*
D03*
Y192323D02*
D03*
Y190354D02*
D03*
Y188386D02*
D03*
Y186417D02*
D03*
Y184449D02*
D03*
Y182480D02*
D03*
Y180512D02*
D03*
Y178543D02*
D03*
Y176575D02*
D03*
X164272D02*
D03*
Y178543D02*
D03*
Y180512D02*
D03*
Y182480D02*
D03*
Y184449D02*
D03*
Y186417D02*
D03*
Y188386D02*
D03*
Y190354D02*
D03*
Y192323D02*
D03*
Y194291D02*
D03*
Y196260D02*
D03*
Y198228D02*
D03*
X131791Y68307D02*
D03*
Y66339D02*
D03*
Y64370D02*
D03*
Y62402D02*
D03*
Y60433D02*
D03*
Y58465D02*
D03*
Y56496D02*
D03*
Y54528D02*
D03*
Y52559D02*
D03*
Y50591D02*
D03*
Y48622D02*
D03*
Y46654D02*
D03*
X164272D02*
D03*
Y48622D02*
D03*
Y50591D02*
D03*
Y52559D02*
D03*
Y54528D02*
D03*
Y56496D02*
D03*
Y58465D02*
D03*
Y60433D02*
D03*
Y62402D02*
D03*
Y64370D02*
D03*
Y66339D02*
D03*
Y68307D02*
D03*
D26*
X194488Y53150D02*
D03*
X187402D02*
D03*
X194488Y312992D02*
D03*
X187402D02*
D03*
Y183071D02*
D03*
X194488D02*
D03*
X95039Y357087D02*
D03*
X87953D02*
D03*
X95039Y226850D02*
D03*
X87953D02*
D03*
X95039Y96614D02*
D03*
X87953D02*
D03*
D27*
X138189Y107874D02*
D03*
Y98425D02*
D03*
X145669D02*
D03*
Y107874D02*
D03*
X138189Y367717D02*
D03*
Y358268D02*
D03*
X145669D02*
D03*
Y367717D02*
D03*
Y237795D02*
D03*
Y228346D02*
D03*
X138189D02*
D03*
Y237795D02*
D03*
D28*
X322441Y55512D02*
D03*
X327953D02*
D03*
X322441Y185433D02*
D03*
X327953D02*
D03*
X322441Y315354D02*
D03*
X327953D02*
D03*
X327658Y114567D02*
D03*
X333169D02*
D03*
X327658Y244488D02*
D03*
X333169D02*
D03*
X327658Y374410D02*
D03*
X333169D02*
D03*
X285728Y114961D02*
D03*
X280217D02*
D03*
X285728Y244882D02*
D03*
X280217D02*
D03*
X285728Y374803D02*
D03*
X280217D02*
D03*
X285728Y101181D02*
D03*
X280217D02*
D03*
X285728Y231102D02*
D03*
X280217D02*
D03*
X285728Y361024D02*
D03*
X280217D02*
D03*
X327658Y101181D02*
D03*
X333169D02*
D03*
X327658Y231102D02*
D03*
X333169D02*
D03*
X327658Y361024D02*
D03*
X333169D02*
D03*
X366142Y109711D02*
D03*
X371654D02*
D03*
X366142Y239633D02*
D03*
X371654D02*
D03*
X366142Y369554D02*
D03*
X371654D02*
D03*
X366142Y120472D02*
D03*
X371654D02*
D03*
X366142Y250394D02*
D03*
X371654D02*
D03*
X366142Y380315D02*
D03*
X371654D02*
D03*
X366142Y88189D02*
D03*
X371654D02*
D03*
X366142Y218110D02*
D03*
X371654D02*
D03*
X366142Y348031D02*
D03*
X371654D02*
D03*
X366142Y98950D02*
D03*
X371654D02*
D03*
X366142Y228871D02*
D03*
X371654D02*
D03*
X366142Y358793D02*
D03*
X371654D02*
D03*
X312992Y88976D02*
D03*
X307480D02*
D03*
X312992Y218898D02*
D03*
X307480D02*
D03*
X312992Y348819D02*
D03*
X307480D02*
D03*
X432776Y112598D02*
D03*
X438287D02*
D03*
X432776Y242520D02*
D03*
X438287D02*
D03*
X432776Y372441D02*
D03*
X438287D02*
D03*
X432776Y123228D02*
D03*
X438287D02*
D03*
X432776Y253150D02*
D03*
X438287D02*
D03*
X432776Y383071D02*
D03*
X438287D02*
D03*
X432776Y91339D02*
D03*
X438287D02*
D03*
X432776Y221260D02*
D03*
X438287D02*
D03*
X432776Y351181D02*
D03*
X438287D02*
D03*
X432776Y101969D02*
D03*
X438287D02*
D03*
X432776Y231890D02*
D03*
X438287D02*
D03*
X432776Y361811D02*
D03*
X438287D02*
D03*
X171555Y200000D02*
D03*
X177067D02*
D03*
X171555Y70079D02*
D03*
X177067D02*
D03*
X171555Y329921D02*
D03*
X177067D02*
D03*
X177067Y65354D02*
D03*
X171555D02*
D03*
X177067Y195276D02*
D03*
X171555D02*
D03*
X177067Y325197D02*
D03*
X171555D02*
D03*
X150000Y81496D02*
D03*
X155512D02*
D03*
X150000Y211417D02*
D03*
X155512D02*
D03*
X150000Y341339D02*
D03*
X155512D02*
D03*
X150000Y85827D02*
D03*
X155512D02*
D03*
X150000Y215748D02*
D03*
X155512D02*
D03*
X150000Y345669D02*
D03*
X155512D02*
D03*
X271260Y292913D02*
D03*
X276772D02*
D03*
X271260Y162992D02*
D03*
X276772D02*
D03*
X271260Y33071D02*
D03*
X276772D02*
D03*
D29*
X283465Y46850D02*
D03*
Y58661D02*
D03*
Y176772D02*
D03*
Y188583D02*
D03*
Y306693D02*
D03*
Y318504D02*
D03*
X272047Y46850D02*
D03*
Y58661D02*
D03*
X208661Y20472D02*
D03*
Y32283D02*
D03*
Y162205D02*
D03*
Y150394D02*
D03*
X272047Y188583D02*
D03*
Y176772D02*
D03*
Y318504D02*
D03*
Y306693D02*
D03*
X208661Y292126D02*
D03*
Y280315D02*
D03*
D30*
X384173Y362441D02*
D03*
Y354961D02*
D03*
X392441Y358701D02*
D03*
X405039Y368937D02*
D03*
X396772Y365197D02*
D03*
Y372677D02*
D03*
X384173Y382388D02*
D03*
Y374908D02*
D03*
X392441Y378648D02*
D03*
X365669Y61654D02*
D03*
Y54173D02*
D03*
X373937Y57913D02*
D03*
X384173Y122546D02*
D03*
Y115066D02*
D03*
X392441Y118806D02*
D03*
X396772Y112835D02*
D03*
Y105354D02*
D03*
X405039Y109095D02*
D03*
X396772Y92887D02*
D03*
Y85407D02*
D03*
X405039Y89147D02*
D03*
X384173Y102598D02*
D03*
Y95118D02*
D03*
X392441Y98858D02*
D03*
X365669Y47087D02*
D03*
Y39606D02*
D03*
X373937Y43347D02*
D03*
X405039Y348990D02*
D03*
X396772Y345249D02*
D03*
Y352730D02*
D03*
X405039Y239016D02*
D03*
X396772Y235276D02*
D03*
Y242756D02*
D03*
X392441Y248727D02*
D03*
X384173Y244987D02*
D03*
Y252467D02*
D03*
X405039Y219068D02*
D03*
X396772Y215328D02*
D03*
Y222808D02*
D03*
X392441Y228780D02*
D03*
X384173Y225039D02*
D03*
Y232520D02*
D03*
X373937Y173268D02*
D03*
X365669Y169528D02*
D03*
Y177008D02*
D03*
X373937Y187835D02*
D03*
X365669Y184095D02*
D03*
Y191575D02*
D03*
X373937Y317756D02*
D03*
X365669Y314016D02*
D03*
Y321496D02*
D03*
X373937Y303189D02*
D03*
X365669Y299449D02*
D03*
Y306929D02*
D03*
D31*
X322087Y376772D02*
D03*
X317087D02*
D03*
X312087D02*
D03*
X307087D02*
D03*
X302087D02*
D03*
X297087D02*
D03*
X292087D02*
D03*
X322087Y357874D02*
D03*
X317087D02*
D03*
X312087D02*
D03*
X307087D02*
D03*
X302087D02*
D03*
X297087D02*
D03*
X292087D02*
D03*
X356319Y59842D02*
D03*
X351319D02*
D03*
X346319D02*
D03*
X341319D02*
D03*
X356319Y40945D02*
D03*
X351319D02*
D03*
X346319D02*
D03*
X341319D02*
D03*
X322087Y116929D02*
D03*
X317087D02*
D03*
X312087D02*
D03*
X307087D02*
D03*
X302087D02*
D03*
X297087D02*
D03*
X292087D02*
D03*
X322087Y98032D02*
D03*
X317087D02*
D03*
X312087D02*
D03*
X307087D02*
D03*
X302087D02*
D03*
X297087D02*
D03*
X292087D02*
D03*
Y227953D02*
D03*
X297087D02*
D03*
X302087D02*
D03*
X307087D02*
D03*
X312087D02*
D03*
X317087D02*
D03*
X322087D02*
D03*
X292087Y246850D02*
D03*
X297087D02*
D03*
X302087D02*
D03*
X307087D02*
D03*
X312087D02*
D03*
X317087D02*
D03*
X322087D02*
D03*
X341319Y170866D02*
D03*
X346319D02*
D03*
X351319D02*
D03*
X356319D02*
D03*
X341319Y189764D02*
D03*
X346319D02*
D03*
X351319D02*
D03*
X356319D02*
D03*
X341319Y300787D02*
D03*
X346319D02*
D03*
X351319D02*
D03*
X356319D02*
D03*
X341319Y319685D02*
D03*
X346319D02*
D03*
X351319D02*
D03*
X356319D02*
D03*
D32*
X398189Y59665D02*
D03*
X405669D02*
D03*
X401929Y67933D02*
D03*
X420197Y59685D02*
D03*
X427677D02*
D03*
X423937Y67953D02*
D03*
X406102Y41043D02*
D03*
X398622D02*
D03*
X402362Y32776D02*
D03*
X428150Y41043D02*
D03*
X420669D02*
D03*
X424409Y32776D02*
D03*
X423937Y197874D02*
D03*
X427677Y189606D02*
D03*
X420197D02*
D03*
X402362Y162697D02*
D03*
X398622Y170965D02*
D03*
X406102D02*
D03*
X401929Y197854D02*
D03*
X405669Y189587D02*
D03*
X398189D02*
D03*
X424409Y162697D02*
D03*
X420669Y170965D02*
D03*
X428150D02*
D03*
X402362Y292618D02*
D03*
X398622Y300886D02*
D03*
X406102D02*
D03*
X401929Y327776D02*
D03*
X405669Y319508D02*
D03*
X398189D02*
D03*
X423937Y327795D02*
D03*
X427677Y319528D02*
D03*
X420197D02*
D03*
X424409Y292618D02*
D03*
X420669Y300886D02*
D03*
X428150D02*
D03*
D33*
X225551Y59252D02*
D03*
X255551D02*
D03*
Y19488D02*
D03*
X235551D02*
D03*
X225551D02*
D03*
Y149409D02*
D03*
X235551D02*
D03*
X255551D02*
D03*
Y189173D02*
D03*
X225551D02*
D03*
Y279331D02*
D03*
X235551D02*
D03*
X255551D02*
D03*
Y319094D02*
D03*
X225551D02*
D03*
D34*
X-48819Y113386D02*
D03*
Y116535D02*
D03*
Y119685D02*
D03*
Y122835D02*
D03*
Y125984D02*
D03*
Y129134D02*
D03*
Y132283D02*
D03*
Y135433D02*
D03*
Y138583D02*
D03*
Y141732D02*
D03*
Y144882D02*
D03*
Y148031D02*
D03*
Y151181D02*
D03*
Y154331D02*
D03*
Y157480D02*
D03*
Y160630D02*
D03*
Y163779D02*
D03*
Y166929D02*
D03*
Y170079D02*
D03*
Y173228D02*
D03*
Y176378D02*
D03*
Y179528D02*
D03*
Y182677D02*
D03*
Y198425D02*
D03*
Y201575D02*
D03*
Y204724D02*
D03*
Y207874D02*
D03*
Y211024D02*
D03*
Y214173D02*
D03*
Y217323D02*
D03*
Y220472D02*
D03*
Y223622D02*
D03*
Y226772D02*
D03*
Y229921D02*
D03*
Y233071D02*
D03*
Y236221D02*
D03*
Y239370D02*
D03*
Y242520D02*
D03*
Y245669D02*
D03*
Y248819D02*
D03*
Y251969D02*
D03*
Y255118D02*
D03*
Y258268D02*
D03*
Y261417D02*
D03*
Y264567D02*
D03*
Y267717D02*
D03*
Y270866D02*
D03*
Y274016D02*
D03*
Y277165D02*
D03*
Y280315D02*
D03*
D35*
X14567Y137795D02*
D03*
Y131496D02*
D03*
X14173Y160630D02*
D03*
Y154331D02*
D03*
X14567Y184646D02*
D03*
Y178347D02*
D03*
X14173Y208268D02*
D03*
Y201969D02*
D03*
X14567Y230709D02*
D03*
Y224410D02*
D03*
X15354Y255512D02*
D03*
Y249213D02*
D03*
X14173Y279134D02*
D03*
Y272835D02*
D03*
D36*
X-2402Y158268D02*
D03*
X-21220D02*
D03*
X-2402Y181890D02*
D03*
X-21220D02*
D03*
X-2402Y134252D02*
D03*
X-21220D02*
D03*
X-2402Y205118D02*
D03*
X-21220D02*
D03*
X-2008Y228740D02*
D03*
X-20827D02*
D03*
X-2008Y252362D02*
D03*
X-20827D02*
D03*
X-1614Y276378D02*
D03*
X-20433D02*
D03*
D65*
X130315Y96850D02*
D03*
Y356693D02*
D03*
Y226772D02*
D03*
X197244Y174803D02*
D03*
X161417Y20472D02*
D03*
X197244Y44882D02*
D03*
X310236Y63386D02*
D03*
Y70866D02*
D03*
X310236Y77953D02*
D03*
X274016Y120079D02*
D03*
Y96063D02*
D03*
X339370Y96063D02*
D03*
Y119685D02*
D03*
X161417Y150394D02*
D03*
X310236Y193307D02*
D03*
Y200787D02*
D03*
X310236Y207874D02*
D03*
X339370Y225984D02*
D03*
Y249606D02*
D03*
X274016Y225984D02*
D03*
Y250000D02*
D03*
X310236Y337795D02*
D03*
X310236Y330709D02*
D03*
Y323228D02*
D03*
X197244Y304724D02*
D03*
X161417Y280315D02*
D03*
X274016Y379921D02*
D03*
Y355906D02*
D03*
X339370Y355906D02*
D03*
Y379528D02*
D03*
D66*
X46850Y115748D02*
X52142D01*
X42520D02*
X46457D01*
X42520Y115748D02*
X42520Y115748D01*
D67*
X61417Y149606D02*
X87953Y123071D01*
Y96614D02*
Y123071D01*
X0Y149606D02*
X61417D01*
X59449Y146063D02*
X84252Y121260D01*
Y88583D02*
Y121260D01*
X22441Y127559D02*
X25984Y124016D01*
X29528D01*
X33071D01*
X-2402Y134252D02*
X4291Y127559D01*
X22441D01*
X99764Y41181D02*
Y70079D01*
Y41181D02*
X131496Y9449D01*
X99606Y70079D02*
X99764D01*
X94882Y74803D02*
X99606Y70079D01*
X94882Y74803D02*
Y83071D01*
X91339Y86614D02*
X94882Y83071D01*
X86221Y86614D02*
X91339D01*
X84252Y88583D02*
X86221Y86614D01*
X99764Y328504D02*
Y329921D01*
X94488Y323228D02*
X99764Y328504D01*
X77559Y323228D02*
X94488D01*
X23622Y269291D02*
X77559Y323228D01*
X19685Y265354D02*
X23622Y269291D01*
X24409Y266142D02*
X32283D01*
X8268Y259449D02*
X20866Y272047D01*
X78347Y329528D01*
Y349606D01*
X211024Y22835D02*
Y24409D01*
X208661Y21457D02*
Y24409D01*
X206299Y21850D02*
Y24409D01*
Y21850D02*
X207677Y20472D01*
X208661D02*
X211024Y22835D01*
X207677Y20472D02*
X208661D01*
X207677D02*
X208661Y21457D01*
X198819Y32283D02*
X208661D01*
X222756D01*
X235551Y19488D01*
X225551D02*
Y19488D01*
X224567Y20472D02*
X225551Y19488D01*
X208661Y20472D02*
X224567D01*
X211024Y282677D02*
Y284252D01*
X208661Y281299D02*
Y284252D01*
X206299Y281693D02*
Y284252D01*
Y281693D02*
X207677Y280315D01*
X208661D02*
X211024Y282677D01*
X207677Y280315D02*
X208661D01*
X207677D02*
X208661Y281299D01*
X198819Y292126D02*
X208661D01*
X222756D01*
X235551Y279331D01*
X225551D02*
Y279331D01*
X224567Y280315D02*
X225551Y279331D01*
X208661Y280315D02*
X224567D01*
X175984Y9449D02*
X198819Y32283D01*
X131496Y9449D02*
X175984D01*
Y269291D02*
X198819Y292126D01*
X23622Y269291D02*
X175984D01*
X-48819Y182677D02*
X-41732D01*
X207677Y150394D02*
X208661Y151378D01*
X211024Y152756D02*
Y154331D01*
X208661Y150394D02*
X211024Y152756D01*
X207677Y150394D02*
X208661D01*
X208661D02*
X224567D01*
X225551Y149409D01*
X208661Y151378D02*
Y154331D01*
X225551Y149409D02*
Y149409D01*
X206299Y151772D02*
X207677Y150394D01*
X206299Y151772D02*
Y154331D01*
X-48819Y116535D02*
X-41339D01*
X-48819Y163779D02*
X-41732D01*
X-41732Y163779D01*
X-48819Y132283D02*
X-41732D01*
X-48819Y141732D02*
X-41732D01*
X-48819Y280315D02*
X-41732D01*
X-42794Y151181D02*
X-40850Y149237D01*
X-48819Y151181D02*
X-42794D01*
X-41972Y245669D02*
X-41972Y245669D01*
X-48819Y245669D02*
X-41972D01*
Y239370D02*
X-41972Y239370D01*
X-48819Y239370D02*
X-41972D01*
X-48819Y233071D02*
X-41972D01*
X-48819Y226772D02*
X-41972D01*
Y220472D02*
X-41972Y220472D01*
X-48819Y220472D02*
X-41972D01*
X-48819Y214173D02*
X-41972D01*
X-48819Y207874D02*
X-41972D01*
X-48819Y201575D02*
X-41972D01*
X-48819Y176378D02*
X-41972D01*
Y170079D02*
X-41972Y170079D01*
X-48819Y170079D02*
X-41972D01*
X-48819Y157480D02*
X-41972D01*
X-48819Y251969D02*
X-41972D01*
X-48819Y258268D02*
X-41972D01*
X-48819Y264567D02*
X-41972D01*
X-48819Y270866D02*
X-41972D01*
X-41945Y277165D02*
X-41888Y277109D01*
X-48819Y277165D02*
X-41945D01*
X26378Y193307D02*
X30315D01*
X22441D02*
X26378D01*
X11811D02*
X22441D01*
X5217Y252362D02*
X8268Y255413D01*
X-2008Y252362D02*
X5217D01*
X-9449Y243701D02*
Y268543D01*
Y173228D02*
Y243701D01*
X17717D01*
X19685Y245669D01*
Y265354D01*
X8268Y255413D02*
Y259449D01*
X175984Y139370D02*
X198819Y162205D01*
X72992Y173228D02*
X97638D01*
X131496Y139370D01*
X175984D01*
X-3543Y146063D02*
X59449D01*
X-9449Y151969D02*
X-3543Y146063D01*
X-2402Y152008D02*
X0Y149606D01*
X-9449Y151969D02*
Y173228D01*
X72992D02*
X99764Y200000D01*
X-9449Y173228D02*
X72992D01*
X22441Y264173D02*
X24409Y266142D01*
X22441Y244488D02*
Y264173D01*
X18504Y240551D02*
X22441Y244488D01*
X2362Y240551D02*
X18504D01*
X-2008Y236181D02*
X2362Y240551D01*
X-2008Y228740D02*
Y236181D01*
Y228740D02*
X-138Y230610D01*
X7087D01*
X-2402Y152008D02*
Y158268D01*
X-27370Y228740D02*
X-27370Y181890D01*
X-27370Y228740D02*
Y257874D01*
X-9449Y268543D02*
X-1614Y276378D01*
X-13780Y165315D02*
Y205118D01*
X76063Y214961D02*
X87953Y226850D01*
X13878Y214961D02*
X76063D01*
X6693Y207776D02*
X13878Y214961D01*
X6693Y188189D02*
X11811Y193307D01*
X6693Y184153D02*
Y188189D01*
X85827Y357087D02*
X87953D01*
X78347Y349606D02*
X85827Y357087D01*
X198819Y162205D02*
X208661D01*
X222756D01*
X235551Y149409D01*
X3642Y134252D02*
X6693Y137303D01*
X-2402Y134252D02*
X3642D01*
X4823Y158268D02*
X6693Y160138D01*
X-2402Y158268D02*
X4823D01*
X4429Y181890D02*
X6693Y184153D01*
X-2402Y181890D02*
X4429D01*
X4035Y205118D02*
X6693Y207776D01*
X-2402Y205118D02*
X4035D01*
X-40945Y274016D02*
X-40945Y274016D01*
X-48819Y274016D02*
X-40945D01*
X-22795Y274016D02*
X-22795Y274016D01*
X-40945Y274016D02*
X-22795D01*
X-48819Y267717D02*
X-40945D01*
X-40945Y267717D01*
X-21260D02*
X-13780Y260236D01*
X-40945Y267717D02*
X-21260D01*
X-48819Y261417D02*
X-40945D01*
X-30913D01*
X15256Y249311D02*
X15354Y249213D01*
X-20434Y252363D02*
X-13780D01*
X-13780Y252362D01*
Y260236D01*
Y205118D02*
Y252362D01*
X13878Y272539D02*
X14173Y272835D01*
X6693Y272539D02*
X13878D01*
X4429Y276378D02*
X6693Y278642D01*
X-1614Y276378D02*
X4429D01*
X-27370Y139028D02*
X-22212Y133871D01*
X-30913Y261417D02*
X-27370Y257874D01*
X-22212Y133871D02*
X-21220D01*
X-27357Y181902D02*
X-21024D01*
X-27370Y139028D02*
Y181890D01*
Y228740D02*
X-20827D01*
X-27370Y181890D02*
X-27357Y181902D01*
X-21220Y205118D02*
X-13780D01*
X-21220Y157874D02*
X-13780Y165315D01*
X-22795Y274016D02*
X-20433Y276378D01*
D68*
X183957Y97244D02*
Y102887D01*
X201083Y97244D02*
Y102887D01*
X183957Y357087D02*
Y362730D01*
X201083Y357087D02*
Y362730D01*
X-34252Y114961D02*
X-32874Y113583D01*
X-29921D01*
X-48819Y113386D02*
X-40157D01*
X-34055Y119488D02*
X-29921D01*
X-40157Y113386D02*
X-34055Y119488D01*
X-23622D02*
X-23622Y119488D01*
X-29921Y119488D02*
X-23622D01*
X183957Y227165D02*
Y232808D01*
X201083Y227165D02*
Y232808D01*
X14272Y131201D02*
X14567Y131496D01*
X6693Y131201D02*
X14272D01*
Y178051D02*
X14567Y178347D01*
X6693Y178051D02*
X14272D01*
X8268Y249311D02*
X15256D01*
X13484Y201279D02*
X14173Y201969D01*
X6693Y201279D02*
X13484D01*
X14272Y224114D02*
X14567Y224410D01*
X6693Y224114D02*
X14272D01*
X-48819Y255118D02*
X-37402D01*
X-37402Y248819D02*
X-37402Y248819D01*
X-48819Y248819D02*
X-37402D01*
D69*
X15354Y113425D02*
D03*
X492126Y342520D02*
D03*
X233858Y71260D02*
D03*
X492126Y61417D02*
D03*
X233858Y201181D02*
D03*
X492126Y191339D02*
D03*
X233858Y331102D02*
D03*
X492126Y321260D02*
D03*
Y82677D02*
D03*
Y212598D02*
D03*
D70*
X15354Y103425D02*
D03*
Y93425D02*
D03*
Y83425D02*
D03*
X492126Y352520D02*
D03*
Y362520D02*
D03*
Y372520D02*
D03*
X302992Y10472D02*
D03*
Y20472D02*
D03*
X312992Y10472D02*
D03*
X233858Y81260D02*
D03*
X492126Y51417D02*
D03*
X233858Y211181D02*
D03*
X492126Y181339D02*
D03*
X312992Y140394D02*
D03*
X302992Y150394D02*
D03*
Y140394D02*
D03*
X150787Y16535D02*
D03*
Y146457D02*
D03*
X99764Y200000D02*
D03*
X89764Y210000D02*
D03*
Y200000D02*
D03*
X99764Y70079D02*
D03*
X89764Y80079D02*
D03*
Y70079D02*
D03*
X302992Y270315D02*
D03*
Y280315D02*
D03*
X312992Y270315D02*
D03*
X233858Y341102D02*
D03*
X492126Y311260D02*
D03*
X150787Y276378D02*
D03*
X492126Y112677D02*
D03*
Y102677D02*
D03*
Y92677D02*
D03*
Y242598D02*
D03*
Y232598D02*
D03*
Y222598D02*
D03*
X89764Y329921D02*
D03*
Y339921D02*
D03*
X99764Y329921D02*
D03*
D71*
X312992Y20472D02*
D03*
Y150394D02*
D03*
X140787Y16535D02*
D03*
Y146457D02*
D03*
X99764Y210000D02*
D03*
Y80079D02*
D03*
X312992Y280315D02*
D03*
X140787Y276378D02*
D03*
X99764Y339921D02*
D03*
D72*
X518110Y147658D02*
D03*
Y246043D02*
D03*
Y119665D02*
D03*
Y21280D02*
D03*
Y372421D02*
D03*
Y274035D02*
D03*
D73*
X512520Y218661D02*
D03*
Y92283D02*
D03*
Y345039D02*
D03*
D74*
X523701Y213209D02*
D03*
X512520Y207756D02*
D03*
X523701Y202303D02*
D03*
X512520Y196850D02*
D03*
X523701Y191398D02*
D03*
X512520Y185945D02*
D03*
X523701Y180492D02*
D03*
X512520Y175039D02*
D03*
Y48661D02*
D03*
X523701Y54114D02*
D03*
X512520Y59567D02*
D03*
X523701Y65020D02*
D03*
X512520Y70473D02*
D03*
X523701Y75925D02*
D03*
X512520Y81378D02*
D03*
X523701Y86831D02*
D03*
X512520Y301417D02*
D03*
X523701Y306870D02*
D03*
X512520Y312323D02*
D03*
X523701Y317776D02*
D03*
X512520Y323228D02*
D03*
X523701Y328681D02*
D03*
X512520Y334134D02*
D03*
X523701Y339587D02*
D03*
D75*
X45669Y81102D02*
D03*
X66929Y89764D02*
D03*
X46457Y107087D02*
D03*
X71653Y122835D02*
D03*
X42520Y115748D02*
D03*
X416929Y295276D02*
D03*
X18898Y279134D02*
D03*
X242520Y7480D02*
D03*
X428740Y102048D02*
D03*
Y91339D02*
D03*
Y123468D02*
D03*
Y112758D02*
D03*
Y361891D02*
D03*
Y351181D02*
D03*
Y383311D02*
D03*
Y372601D02*
D03*
X261811Y36614D02*
D03*
X286614Y50787D02*
D03*
X279921D02*
D03*
X261811Y296457D02*
D03*
X286614Y310630D02*
D03*
X279921D02*
D03*
X242913Y266929D02*
D03*
X416535Y35433D02*
D03*
X15748Y261024D02*
D03*
X279921Y180709D02*
D03*
X286614D02*
D03*
X14567Y235827D02*
D03*
Y190157D02*
D03*
X15748Y196850D02*
D03*
X261811Y166535D02*
D03*
X428740Y231970D02*
D03*
Y221260D02*
D03*
Y253389D02*
D03*
Y242680D02*
D03*
X242913Y137008D02*
D03*
X-37402Y211024D02*
D03*
Y217323D02*
D03*
Y223622D02*
D03*
Y204724D02*
D03*
X416535Y165354D02*
D03*
X-39370Y154331D02*
D03*
X-37402Y229921D02*
D03*
Y179528D02*
D03*
X-38583Y160630D02*
D03*
X-37402Y173228D02*
D03*
Y166929D02*
D03*
Y236221D02*
D03*
Y242520D02*
D03*
Y248819D02*
D03*
Y255118D02*
D03*
D76*
X-11811Y134252D02*
D03*
X-18504Y125394D02*
D03*
Y119685D02*
D03*
X-13780Y117913D02*
D03*
X-9055Y115748D02*
D03*
D77*
X-19291Y112992D02*
D03*
X138583Y91339D02*
D03*
Y351181D02*
D03*
Y221260D02*
D03*
X141106Y224490D02*
D03*
X141339Y346850D02*
D03*
Y216929D02*
D03*
X141732Y87008D02*
D03*
X115748Y54315D02*
D03*
X24409Y266142D02*
D03*
X113779Y60630D02*
D03*
X126378Y64961D02*
D03*
X125000Y68307D02*
D03*
X144390Y309310D02*
D03*
X146850Y306693D02*
D03*
X115748Y314158D02*
D03*
X361811Y98819D02*
D03*
Y88189D02*
D03*
Y120472D02*
D03*
Y109843D02*
D03*
X311247Y91338D02*
D03*
X327559Y103937D02*
D03*
X288445Y101181D02*
D03*
Y114961D02*
D03*
X327559Y111811D02*
D03*
X389316Y102434D02*
D03*
X401921Y92724D02*
D03*
X389289Y122375D02*
D03*
X401968Y112992D02*
D03*
X384252Y111811D02*
D03*
X379134Y106693D02*
D03*
X384252Y91732D02*
D03*
X390551Y85433D02*
D03*
X304386Y92058D02*
D03*
X307087Y111024D02*
D03*
X469291Y112598D02*
D03*
X361811Y358661D02*
D03*
Y348031D02*
D03*
Y380315D02*
D03*
Y369685D02*
D03*
X311247Y351181D02*
D03*
X327559Y363779D02*
D03*
X288445Y361024D02*
D03*
Y374803D02*
D03*
X327559Y371654D02*
D03*
X389316Y362277D02*
D03*
X401921Y352567D02*
D03*
X389289Y382217D02*
D03*
X401968Y372835D02*
D03*
X384252Y371654D02*
D03*
X379134Y366535D02*
D03*
X384252Y351575D02*
D03*
X390551Y345276D02*
D03*
X304386Y351901D02*
D03*
X307087Y370866D02*
D03*
X469291Y372441D02*
D03*
X206299Y24409D02*
D03*
X208661D02*
D03*
X211024D02*
D03*
X338888Y47686D02*
D03*
X311024Y46850D02*
D03*
X377165Y49213D02*
D03*
X372205Y54173D02*
D03*
X409055Y47638D02*
D03*
X401575Y40945D02*
D03*
X419291Y54665D02*
D03*
X409055Y59449D02*
D03*
X255551Y30354D02*
D03*
X354331Y46457D02*
D03*
X356299Y54331D02*
D03*
X351320Y48236D02*
D03*
X299213Y59055D02*
D03*
X332087Y56496D02*
D03*
X206299Y284252D02*
D03*
X208661D02*
D03*
X211024D02*
D03*
X338888Y307528D02*
D03*
X311024Y306693D02*
D03*
X377165Y309055D02*
D03*
X372205Y314016D02*
D03*
X409055Y307480D02*
D03*
X401575Y300787D02*
D03*
X419291Y314508D02*
D03*
X409055Y319291D02*
D03*
X255551Y290197D02*
D03*
X354331Y306299D02*
D03*
X356299Y314173D02*
D03*
X351320Y308079D02*
D03*
X299213Y318898D02*
D03*
X332087Y316339D02*
D03*
X158268Y87795D02*
D03*
X188297Y94223D02*
D03*
X192520Y110006D02*
D03*
Y120472D02*
D03*
Y105307D02*
D03*
X178740Y38976D02*
D03*
X168110D02*
D03*
X164961Y25197D02*
D03*
X165354Y35827D02*
D03*
X153150Y23622D02*
D03*
X182027Y56672D02*
D03*
X159812Y56672D02*
D03*
X182972Y54724D02*
D03*
X159786Y54312D02*
D03*
X152756Y53937D02*
D03*
X149213Y55905D02*
D03*
X153150Y36614D02*
D03*
X132187Y78837D02*
D03*
X139173Y69392D02*
D03*
X146850Y46850D02*
D03*
X133858Y83071D02*
D03*
X167717Y89370D02*
D03*
X143012Y82423D02*
D03*
X130709Y74410D02*
D03*
X144390Y49467D02*
D03*
X181592Y59118D02*
D03*
X149781Y88601D02*
D03*
X244882Y9843D02*
D03*
X478346Y18504D02*
D03*
Y34646D02*
D03*
X478740Y26378D02*
D03*
Y10236D02*
D03*
X279528Y33071D02*
D03*
X268504D02*
D03*
X194488Y57087D02*
D03*
X198031Y53150D02*
D03*
X179813Y66142D02*
D03*
X179134Y51968D02*
D03*
X141106Y94569D02*
D03*
X153543Y104331D02*
D03*
X153320Y89109D02*
D03*
X153431Y106493D02*
D03*
X125984Y104724D02*
D03*
X115748Y320480D02*
D03*
X158268Y347638D02*
D03*
X188297Y354065D02*
D03*
X192520Y369849D02*
D03*
Y380315D02*
D03*
Y365150D02*
D03*
X178740Y298819D02*
D03*
X168110D02*
D03*
X164961Y285039D02*
D03*
X165354Y295669D02*
D03*
X153150Y283465D02*
D03*
X182027Y316515D02*
D03*
X159812Y316515D02*
D03*
X182972Y314567D02*
D03*
X159786Y314155D02*
D03*
X152756Y313779D02*
D03*
X149213Y315748D02*
D03*
X153150Y296457D02*
D03*
X126378Y324803D02*
D03*
X125000Y328150D02*
D03*
X132187Y338679D02*
D03*
X139173Y329235D02*
D03*
X133858Y342913D02*
D03*
X167717Y349213D02*
D03*
X143012Y342265D02*
D03*
X130709Y334252D02*
D03*
X181592Y318960D02*
D03*
X149781Y348444D02*
D03*
X244882Y269685D02*
D03*
X478346Y278346D02*
D03*
Y294488D02*
D03*
X478740Y286221D02*
D03*
Y270079D02*
D03*
X279528Y292913D02*
D03*
X268504D02*
D03*
X194488Y316929D02*
D03*
X198031Y312992D02*
D03*
X179813Y325984D02*
D03*
X179134Y311811D02*
D03*
X141106Y354411D02*
D03*
X153543Y364173D02*
D03*
X153320Y348952D02*
D03*
X153431Y366336D02*
D03*
X125984Y364567D02*
D03*
X153320Y219030D02*
D03*
X125984Y234646D02*
D03*
X153543Y234252D02*
D03*
X153431Y236414D02*
D03*
X149781Y218523D02*
D03*
X338888Y177607D02*
D03*
X182972Y184646D02*
D03*
X182027Y186594D02*
D03*
X159786Y184234D02*
D03*
X159812Y186593D02*
D03*
X198031Y183071D02*
D03*
X194488Y187008D02*
D03*
X478740Y140157D02*
D03*
X478346Y164567D02*
D03*
Y148425D02*
D03*
X288445Y231102D02*
D03*
X327559Y241732D02*
D03*
X288445Y244882D02*
D03*
X311247Y221259D02*
D03*
X327559Y233858D02*
D03*
X179813Y196063D02*
D03*
X181592Y189039D02*
D03*
X179134Y181890D02*
D03*
X158268Y217717D02*
D03*
X478740Y156299D02*
D03*
X188297Y224144D02*
D03*
X351320Y178157D02*
D03*
X354331Y176378D02*
D03*
X-41732Y182677D02*
D03*
X332087Y186417D02*
D03*
X30315Y193307D02*
D03*
X22441D02*
D03*
X307087Y240945D02*
D03*
X356299Y184252D02*
D03*
X115748Y190559D02*
D03*
Y184236D02*
D03*
X153150Y166535D02*
D03*
X144390Y179388D02*
D03*
X152756Y183858D02*
D03*
X149213Y185827D02*
D03*
X211024Y154331D02*
D03*
X208661D02*
D03*
X206299D02*
D03*
X165354Y165748D02*
D03*
X178740Y168898D02*
D03*
X168110D02*
D03*
X153150Y153543D02*
D03*
X164961Y155118D02*
D03*
X139173Y199313D02*
D03*
X192520Y235228D02*
D03*
Y239928D02*
D03*
X143012Y212344D02*
D03*
X167717Y219291D02*
D03*
X192520Y250394D02*
D03*
X279528Y162992D02*
D03*
X268504D02*
D03*
X311024Y176772D02*
D03*
X255551Y160276D02*
D03*
X244882Y139764D02*
D03*
X217717Y20472D02*
D03*
Y280315D02*
D03*
X379134Y236614D02*
D03*
X384252Y221654D02*
D03*
Y241732D02*
D03*
X390551Y215354D02*
D03*
X304386Y221979D02*
D03*
X14567Y143307D02*
D03*
X125000Y198228D02*
D03*
X26378Y193307D02*
D03*
X28346Y266142D02*
D03*
X32283D02*
D03*
X-34252Y114961D02*
D03*
X18898Y153150D02*
D03*
X-30709Y198425D02*
D03*
X-41732Y163779D02*
D03*
X25984Y124016D02*
D03*
X29528D02*
D03*
X33071D02*
D03*
X132187Y208758D02*
D03*
X133858Y212992D02*
D03*
X130709Y204331D02*
D03*
X377165Y179134D02*
D03*
X372205Y184095D02*
D03*
X409055Y177559D02*
D03*
X401575Y170866D02*
D03*
X419291Y184587D02*
D03*
X409055Y189370D02*
D03*
X299213Y188976D02*
D03*
X361811Y228740D02*
D03*
Y218110D02*
D03*
Y250394D02*
D03*
Y239764D02*
D03*
X389316Y232355D02*
D03*
X401921Y222645D02*
D03*
X389289Y252296D02*
D03*
X401968Y242913D02*
D03*
X469291Y242520D02*
D03*
X126378Y194882D02*
D03*
X146850Y176772D02*
D03*
X-41339Y116535D02*
D03*
X-41732Y132283D02*
D03*
Y141732D02*
D03*
Y280315D02*
D03*
X-40850Y149237D02*
D03*
X-41888Y277109D02*
D03*
X-41972Y270866D02*
D03*
Y264567D02*
D03*
Y258268D02*
D03*
X-41972Y251969D02*
D03*
X-41972Y245669D02*
D03*
Y239370D02*
D03*
Y233071D02*
D03*
X-41972Y226772D02*
D03*
X-41972Y220472D02*
D03*
Y214173D02*
D03*
Y207874D02*
D03*
X-41972Y201575D02*
D03*
Y176378D02*
D03*
X-41972Y170079D02*
D03*
X-41972Y157480D02*
D03*
X-40945Y274016D02*
D03*
Y267717D02*
D03*
Y261417D02*
D03*
M02*
