G04*
G04 #@! TF.GenerationSoftware,Altium Limited,Altium Designer,24.0.1 (36)*
G04*
G04 Layer_Physical_Order=3*
G04 Layer_Color=16440176*
%FSLAX25Y25*%
%MOIN*%
G70*
G04*
G04 #@! TF.SameCoordinates,B301E655-177B-44F9-B968-0684169C9831*
G04*
G04*
G04 #@! TF.FilePolarity,Positive*
G04*
G01*
G75*
%ADD17C,0.01000*%
%ADD70C,0.05906*%
%ADD75C,0.02362*%
%ADD77C,0.01772*%
G36*
X511811Y379930D02*
X510526Y378645D01*
X509458Y377046D01*
X508722Y375269D01*
X508347Y373383D01*
Y371460D01*
X508722Y369573D01*
X509458Y367796D01*
X510526Y366197D01*
X511811Y364912D01*
Y348760D01*
X508799D01*
Y344527D01*
X495472D01*
Y345866D01*
X488779D01*
Y344527D01*
X392052D01*
X391789Y344920D01*
X391831Y345021D01*
Y345530D01*
X391636Y346000D01*
X391276Y346360D01*
X390806Y346555D01*
X390297D01*
X389826Y346360D01*
X389466Y346000D01*
X389272Y345530D01*
Y345021D01*
X389313Y344920D01*
X389050Y344527D01*
X251969D01*
X251200Y344374D01*
X250549Y343939D01*
X250114Y343288D01*
X249961Y342520D01*
Y263779D01*
X19685D01*
Y277755D01*
X19790Y277799D01*
X20233Y278242D01*
X20472Y278821D01*
Y279447D01*
X20233Y280026D01*
X19790Y280469D01*
X19685Y280512D01*
Y389764D01*
X511811D01*
Y379930D01*
D02*
G37*
G36*
X508799Y341319D02*
X511811D01*
Y337796D01*
X511084Y337601D01*
X510235Y337111D01*
X509543Y336418D01*
X509053Y335570D01*
X508799Y334624D01*
Y333644D01*
X509053Y332698D01*
X509543Y331849D01*
X510235Y331157D01*
X511084Y330667D01*
X511811Y330472D01*
Y326890D01*
X511084Y326695D01*
X510235Y326205D01*
X509543Y325513D01*
X509053Y324664D01*
X508799Y323718D01*
Y322739D01*
X509053Y321792D01*
X509543Y320944D01*
X510235Y320251D01*
X511084Y319761D01*
X511811Y319566D01*
Y315985D01*
X511084Y315790D01*
X510235Y315300D01*
X509543Y314607D01*
X509053Y313759D01*
X508799Y312813D01*
Y311833D01*
X509053Y310887D01*
X509543Y310038D01*
X510235Y309346D01*
X511084Y308856D01*
X511811Y308661D01*
Y305079D01*
X511084Y304884D01*
X510235Y304395D01*
X509543Y303702D01*
X509053Y302853D01*
X508799Y301907D01*
Y300927D01*
X509053Y299981D01*
X509543Y299133D01*
X510235Y298440D01*
X511084Y297950D01*
X511811Y297756D01*
Y281544D01*
X510526Y280259D01*
X509458Y278660D01*
X508722Y276883D01*
X508347Y274997D01*
Y273074D01*
X508722Y271187D01*
X509458Y269411D01*
X510526Y267811D01*
X511811Y266527D01*
Y263779D01*
X251969D01*
Y342520D01*
X488779D01*
Y339173D01*
X495472D01*
Y342520D01*
X508799D01*
Y341319D01*
D02*
G37*
G36*
X511811Y253552D02*
X510526Y252267D01*
X509458Y250668D01*
X508722Y248891D01*
X508347Y247005D01*
Y245082D01*
X508722Y243195D01*
X509458Y241418D01*
X510526Y239819D01*
X511811Y238534D01*
Y222382D01*
X508799D01*
Y214941D01*
X511811D01*
Y214605D01*
X495472D01*
Y215945D01*
X488779D01*
Y214605D01*
X391612D01*
X391636Y214630D01*
X391831Y215100D01*
Y215609D01*
X391636Y216079D01*
X391276Y216439D01*
X390806Y216634D01*
X390297D01*
X389826Y216439D01*
X389466Y216079D01*
X389272Y215609D01*
Y215100D01*
X389466Y214630D01*
X389491Y214605D01*
X251969D01*
X251200Y214453D01*
X250549Y214018D01*
X250114Y213367D01*
X249961Y212598D01*
Y133858D01*
X19685D01*
Y152128D01*
X19982Y152425D01*
X20177Y152895D01*
Y153404D01*
X19982Y153874D01*
X19685Y154172D01*
Y255906D01*
X511811D01*
Y253552D01*
D02*
G37*
G36*
Y211418D02*
X511084Y211223D01*
X510235Y210733D01*
X509543Y210040D01*
X509053Y209192D01*
X508799Y208246D01*
Y207266D01*
X509053Y206320D01*
X509543Y205471D01*
X510235Y204779D01*
X511084Y204289D01*
X511811Y204094D01*
Y200512D01*
X511084Y200317D01*
X510235Y199828D01*
X509543Y199135D01*
X509053Y198286D01*
X508799Y197340D01*
Y196361D01*
X509053Y195414D01*
X509543Y194566D01*
X510235Y193873D01*
X511084Y193384D01*
X511811Y193189D01*
Y189607D01*
X511084Y189412D01*
X510235Y188922D01*
X509543Y188229D01*
X509053Y187381D01*
X508799Y186435D01*
Y185455D01*
X509053Y184509D01*
X509543Y183660D01*
X510235Y182968D01*
X511084Y182478D01*
X511811Y182283D01*
Y178701D01*
X511084Y178506D01*
X510235Y178016D01*
X509543Y177324D01*
X509053Y176475D01*
X508799Y175529D01*
Y174550D01*
X509053Y173603D01*
X509543Y172755D01*
X510235Y172062D01*
X511084Y171572D01*
X511811Y171378D01*
Y155166D01*
X510526Y153882D01*
X509458Y152282D01*
X508722Y150505D01*
X508347Y148619D01*
Y146696D01*
X508722Y144809D01*
X509458Y143033D01*
X510526Y141433D01*
X511811Y140149D01*
Y133858D01*
X251969D01*
Y212598D01*
X488779D01*
Y209252D01*
X495472D01*
Y212598D01*
X511811D01*
Y211418D01*
D02*
G37*
G36*
X510326Y125591D02*
X509458Y124290D01*
X508722Y122513D01*
X508347Y120627D01*
Y118704D01*
X508722Y116817D01*
X509458Y115041D01*
X510526Y113441D01*
X511811Y112156D01*
Y96004D01*
X508799D01*
Y88563D01*
X511811D01*
Y85040D01*
X511084Y84845D01*
X510235Y84355D01*
X510031Y84151D01*
X509894Y84242D01*
X509696Y84415D01*
X509571Y84458D01*
X509461Y84531D01*
X509203Y84583D01*
X508955Y84667D01*
X508823Y84658D01*
X508693Y84684D01*
X495472D01*
Y86024D01*
X488779D01*
Y84684D01*
X392052D01*
X391789Y85078D01*
X391831Y85179D01*
Y85688D01*
X391636Y86158D01*
X391276Y86518D01*
X390806Y86713D01*
X390297D01*
X389826Y86518D01*
X389466Y86158D01*
X389272Y85688D01*
Y85179D01*
X389313Y85078D01*
X389050Y84684D01*
X251969D01*
X251200Y84531D01*
X250549Y84096D01*
X250114Y83445D01*
X249961Y82677D01*
Y3937D01*
X19685D01*
Y125984D01*
X510116D01*
X510326Y125591D01*
D02*
G37*
G36*
X508932Y82365D02*
X508799Y81868D01*
Y80888D01*
X509053Y79942D01*
X509543Y79093D01*
X510235Y78401D01*
X511084Y77911D01*
X511811Y77716D01*
Y74134D01*
X511084Y73939D01*
X510235Y73450D01*
X509543Y72757D01*
X509053Y71908D01*
X508799Y70962D01*
Y69983D01*
X509053Y69036D01*
X509543Y68188D01*
X510235Y67495D01*
X511084Y67005D01*
X511811Y66811D01*
Y63229D01*
X511084Y63034D01*
X510235Y62544D01*
X509543Y61851D01*
X509053Y61003D01*
X508799Y60057D01*
Y59077D01*
X509053Y58131D01*
X509543Y57283D01*
X510235Y56590D01*
X511084Y56100D01*
X511811Y55905D01*
Y52323D01*
X511084Y52128D01*
X510235Y51639D01*
X509543Y50946D01*
X509053Y50098D01*
X508799Y49151D01*
Y48172D01*
X509053Y47225D01*
X509543Y46377D01*
X510235Y45684D01*
X511084Y45195D01*
X511811Y45000D01*
Y28788D01*
X510526Y27504D01*
X509458Y25904D01*
X508722Y24127D01*
X508347Y22241D01*
Y20318D01*
X508722Y18431D01*
X509458Y16655D01*
X510526Y15055D01*
X511811Y13771D01*
Y3937D01*
X251969D01*
Y82677D01*
X488779D01*
Y79331D01*
X495472D01*
Y82677D01*
X508693D01*
X508932Y82365D01*
D02*
G37*
%LPC*%
G36*
X429053Y384885D02*
X428427D01*
X427848Y384646D01*
X427405Y384203D01*
X427165Y383624D01*
Y382997D01*
X427405Y382418D01*
X427848Y381976D01*
X428427Y381736D01*
X429053D01*
X429632Y381976D01*
X430075Y382418D01*
X430315Y382997D01*
Y383624D01*
X430075Y384203D01*
X429632Y384646D01*
X429053Y384885D01*
D02*
G37*
G36*
X389543Y383497D02*
X389034D01*
X388564Y383302D01*
X388204Y382942D01*
X388009Y382472D01*
Y381963D01*
X388204Y381493D01*
X388564Y381133D01*
X389034Y380938D01*
X389543D01*
X390014Y381133D01*
X390373Y381493D01*
X390568Y381963D01*
Y382472D01*
X390373Y382942D01*
X390014Y383302D01*
X389543Y383497D01*
D02*
G37*
G36*
X362066Y381594D02*
X361557D01*
X361086Y381400D01*
X360726Y381040D01*
X360531Y380570D01*
Y380060D01*
X360726Y379590D01*
X361086Y379230D01*
X361557Y379035D01*
X362066D01*
X362536Y379230D01*
X362896Y379590D01*
X363090Y380060D01*
Y380570D01*
X362896Y381040D01*
X362536Y381400D01*
X362066Y381594D01*
D02*
G37*
G36*
X192774D02*
X192265D01*
X191795Y381400D01*
X191435Y381040D01*
X191240Y380570D01*
Y380060D01*
X191435Y379590D01*
X191795Y379230D01*
X192265Y379035D01*
X192774D01*
X193245Y379230D01*
X193604Y379590D01*
X193799Y380060D01*
Y380570D01*
X193604Y381040D01*
X193245Y381400D01*
X192774Y381594D01*
D02*
G37*
G36*
X288699Y376083D02*
X288190D01*
X287720Y375888D01*
X287360Y375528D01*
X287165Y375058D01*
Y374549D01*
X287360Y374078D01*
X287720Y373718D01*
X288190Y373524D01*
X288699D01*
X289170Y373718D01*
X289530Y374078D01*
X289724Y374549D01*
Y375058D01*
X289530Y375528D01*
X289170Y375888D01*
X288699Y376083D01*
D02*
G37*
G36*
X402223Y374114D02*
X401714D01*
X401244Y373919D01*
X400884Y373559D01*
X400689Y373089D01*
Y372580D01*
X400884Y372110D01*
X401244Y371750D01*
X401714Y371555D01*
X402223D01*
X402693Y371750D01*
X403053Y372110D01*
X403248Y372580D01*
Y373089D01*
X403053Y373559D01*
X402693Y373919D01*
X402223Y374114D01*
D02*
G37*
G36*
X469546Y373721D02*
X469037D01*
X468567Y373526D01*
X468207Y373166D01*
X468012Y372695D01*
Y372186D01*
X468207Y371716D01*
X468567Y371356D01*
X469037Y371161D01*
X469546D01*
X470016Y371356D01*
X470376Y371716D01*
X470571Y372186D01*
Y372695D01*
X470376Y373166D01*
X470016Y373526D01*
X469546Y373721D01*
D02*
G37*
G36*
X429053Y374176D02*
X428427D01*
X427848Y373936D01*
X427405Y373493D01*
X427165Y372914D01*
Y372288D01*
X427405Y371709D01*
X427848Y371266D01*
X428427Y371026D01*
X429053D01*
X429632Y371266D01*
X430075Y371709D01*
X430315Y372288D01*
Y372914D01*
X430075Y373493D01*
X429632Y373936D01*
X429053Y374176D01*
D02*
G37*
G36*
X384507Y372933D02*
X383998D01*
X383527Y372738D01*
X383167Y372378D01*
X382972Y371908D01*
Y371399D01*
X383167Y370929D01*
X383527Y370569D01*
X383998Y370374D01*
X384507D01*
X384977Y370569D01*
X385337Y370929D01*
X385531Y371399D01*
Y371908D01*
X385337Y372378D01*
X384977Y372738D01*
X384507Y372933D01*
D02*
G37*
G36*
X327814D02*
X327305D01*
X326834Y372738D01*
X326474Y372378D01*
X326279Y371908D01*
Y371399D01*
X326474Y370929D01*
X326834Y370569D01*
X327305Y370374D01*
X327814D01*
X328284Y370569D01*
X328644Y370929D01*
X328839Y371399D01*
Y371908D01*
X328644Y372378D01*
X328284Y372738D01*
X327814Y372933D01*
D02*
G37*
G36*
X307341Y372146D02*
X306832D01*
X306362Y371951D01*
X306002Y371591D01*
X305807Y371121D01*
Y370612D01*
X306002Y370141D01*
X306362Y369781D01*
X306832Y369587D01*
X307341D01*
X307811Y369781D01*
X308171Y370141D01*
X308366Y370612D01*
Y371121D01*
X308171Y371591D01*
X307811Y371951D01*
X307341Y372146D01*
D02*
G37*
G36*
X492567Y375866D02*
X491685D01*
X490834Y375638D01*
X490071Y375198D01*
X489448Y374574D01*
X489008Y373811D01*
X488779Y372960D01*
Y372079D01*
X489008Y371228D01*
X489448Y370465D01*
X490071Y369842D01*
X490834Y369401D01*
X491685Y369173D01*
X492567D01*
X493418Y369401D01*
X494181Y369842D01*
X494804Y370465D01*
X495244Y371228D01*
X495472Y372079D01*
Y372960D01*
X495244Y373811D01*
X494804Y374574D01*
X494181Y375198D01*
X493418Y375638D01*
X492567Y375866D01*
D02*
G37*
G36*
X362066Y370965D02*
X361557D01*
X361086Y370770D01*
X360726Y370410D01*
X360531Y369939D01*
Y369430D01*
X360726Y368960D01*
X361086Y368600D01*
X361557Y368406D01*
X362066D01*
X362536Y368600D01*
X362896Y368960D01*
X363090Y369430D01*
Y369939D01*
X362896Y370410D01*
X362536Y370770D01*
X362066Y370965D01*
D02*
G37*
G36*
X379388Y367815D02*
X378879D01*
X378409Y367620D01*
X378049Y367260D01*
X377854Y366790D01*
Y366281D01*
X378049Y365811D01*
X378409Y365451D01*
X378879Y365256D01*
X379388D01*
X379859Y365451D01*
X380219Y365811D01*
X380413Y366281D01*
Y366790D01*
X380219Y367260D01*
X379859Y367620D01*
X379388Y367815D01*
D02*
G37*
G36*
X153798Y365453D02*
X153289D01*
X152819Y365258D01*
X152459Y364898D01*
X152264Y364428D01*
Y363919D01*
X152459Y363448D01*
X152819Y363088D01*
X153289Y362894D01*
X153798D01*
X154268Y363088D01*
X154628Y363448D01*
X154823Y363919D01*
Y364428D01*
X154628Y364898D01*
X154268Y365258D01*
X153798Y365453D01*
D02*
G37*
G36*
X327814Y365059D02*
X327305D01*
X326834Y364864D01*
X326474Y364504D01*
X326279Y364034D01*
Y363525D01*
X326474Y363055D01*
X326834Y362695D01*
X327305Y362500D01*
X327814D01*
X328284Y362695D01*
X328644Y363055D01*
X328839Y363525D01*
Y364034D01*
X328644Y364504D01*
X328284Y364864D01*
X327814Y365059D01*
D02*
G37*
G36*
X389570Y363556D02*
X389061D01*
X388591Y363361D01*
X388231Y363001D01*
X388036Y362531D01*
Y362022D01*
X388231Y361552D01*
X388591Y361192D01*
X389061Y360997D01*
X389570D01*
X390041Y361192D01*
X390401Y361552D01*
X390595Y362022D01*
Y362531D01*
X390401Y363001D01*
X390041Y363361D01*
X389570Y363556D01*
D02*
G37*
G36*
X429053Y363466D02*
X428427D01*
X427848Y363226D01*
X427405Y362783D01*
X427165Y362204D01*
Y361578D01*
X427405Y360999D01*
X427848Y360556D01*
X428427Y360316D01*
X429053D01*
X429632Y360556D01*
X430075Y360999D01*
X430315Y361578D01*
Y362204D01*
X430075Y362783D01*
X429632Y363226D01*
X429053Y363466D01*
D02*
G37*
G36*
X288699Y362303D02*
X288190D01*
X287720Y362108D01*
X287360Y361748D01*
X287165Y361278D01*
Y360769D01*
X287360Y360299D01*
X287720Y359939D01*
X288190Y359744D01*
X288699D01*
X289170Y359939D01*
X289530Y360299D01*
X289724Y360769D01*
Y361278D01*
X289530Y361748D01*
X289170Y362108D01*
X288699Y362303D01*
D02*
G37*
G36*
X492567Y365866D02*
X491685D01*
X490834Y365638D01*
X490071Y365197D01*
X489448Y364575D01*
X489008Y363811D01*
X488779Y362960D01*
Y362079D01*
X489008Y361228D01*
X489448Y360465D01*
X490071Y359842D01*
X490834Y359401D01*
X491685Y359173D01*
X492567D01*
X493418Y359401D01*
X494181Y359842D01*
X494804Y360465D01*
X495244Y361228D01*
X495472Y362079D01*
Y362960D01*
X495244Y363811D01*
X494804Y364575D01*
X494181Y365197D01*
X493418Y365638D01*
X492567Y365866D01*
D02*
G37*
G36*
X362066Y359941D02*
X361557D01*
X361086Y359746D01*
X360726Y359386D01*
X360531Y358916D01*
Y358407D01*
X360726Y357937D01*
X361086Y357577D01*
X361557Y357382D01*
X362066D01*
X362536Y357577D01*
X362896Y357937D01*
X363090Y358407D01*
Y358916D01*
X362896Y359386D01*
X362536Y359746D01*
X362066Y359941D01*
D02*
G37*
G36*
X141361Y355691D02*
X140852D01*
X140381Y355496D01*
X140022Y355136D01*
X139827Y354666D01*
Y354157D01*
X140022Y353687D01*
X140381Y353327D01*
X140852Y353132D01*
X141361D01*
X141831Y353327D01*
X142191Y353687D01*
X142386Y354157D01*
Y354666D01*
X142191Y355136D01*
X141831Y355496D01*
X141361Y355691D01*
D02*
G37*
G36*
X188551Y355345D02*
X188042D01*
X187572Y355150D01*
X187212Y354790D01*
X187017Y354320D01*
Y353811D01*
X187212Y353341D01*
X187572Y352980D01*
X188042Y352786D01*
X188551D01*
X189022Y352980D01*
X189381Y353341D01*
X189576Y353811D01*
Y354320D01*
X189381Y354790D01*
X189022Y355150D01*
X188551Y355345D01*
D02*
G37*
G36*
X402175Y353846D02*
X401666D01*
X401196Y353651D01*
X400836Y353292D01*
X400641Y352821D01*
Y352312D01*
X400836Y351842D01*
X401196Y351482D01*
X401666Y351287D01*
X402175D01*
X402645Y351482D01*
X403006Y351842D01*
X403200Y352312D01*
Y352821D01*
X403006Y353292D01*
X402645Y353651D01*
X402175Y353846D01*
D02*
G37*
G36*
X304641Y353180D02*
X304132D01*
X303661Y352985D01*
X303301Y352625D01*
X303107Y352155D01*
Y351646D01*
X303301Y351176D01*
X303661Y350816D01*
X304132Y350621D01*
X304641D01*
X305111Y350816D01*
X305471Y351176D01*
X305666Y351646D01*
Y352155D01*
X305471Y352625D01*
X305111Y352985D01*
X304641Y353180D01*
D02*
G37*
G36*
X384507Y352854D02*
X383998D01*
X383527Y352660D01*
X383167Y352300D01*
X382972Y351829D01*
Y351320D01*
X383167Y350850D01*
X383527Y350490D01*
X383998Y350295D01*
X384507D01*
X384977Y350490D01*
X385337Y350850D01*
X385531Y351320D01*
Y351829D01*
X385337Y352300D01*
X384977Y352660D01*
X384507Y352854D01*
D02*
G37*
G36*
X138837Y352461D02*
X138328D01*
X137858Y352266D01*
X137498Y351906D01*
X137303Y351436D01*
Y350927D01*
X137498Y350456D01*
X137858Y350096D01*
X138328Y349902D01*
X138837D01*
X139307Y350096D01*
X139667Y350456D01*
X139862Y350927D01*
Y351436D01*
X139667Y351906D01*
X139307Y352266D01*
X138837Y352461D01*
D02*
G37*
G36*
X311502Y352460D02*
X310993D01*
X310522Y352266D01*
X310162Y351906D01*
X309967Y351435D01*
Y350926D01*
X310162Y350456D01*
X310522Y350096D01*
X310993Y349901D01*
X311502D01*
X311972Y350096D01*
X312332Y350456D01*
X312527Y350926D01*
Y351435D01*
X312332Y351906D01*
X311972Y352266D01*
X311502Y352460D01*
D02*
G37*
G36*
X429053Y352756D02*
X428427D01*
X427848Y352516D01*
X427405Y352073D01*
X427165Y351494D01*
Y350868D01*
X427405Y350289D01*
X427848Y349846D01*
X428427Y349606D01*
X429053D01*
X429632Y349846D01*
X430075Y350289D01*
X430315Y350868D01*
Y351494D01*
X430075Y352073D01*
X429632Y352516D01*
X429053Y352756D01*
D02*
G37*
G36*
X492567Y355866D02*
X491685D01*
X490834Y355638D01*
X490071Y355198D01*
X489448Y354574D01*
X489008Y353811D01*
X488779Y352960D01*
Y352079D01*
X489008Y351228D01*
X489448Y350465D01*
X490071Y349842D01*
X490834Y349401D01*
X491685Y349173D01*
X492567D01*
X493418Y349401D01*
X494181Y349842D01*
X494804Y350465D01*
X495244Y351228D01*
X495472Y352079D01*
Y352960D01*
X495244Y353811D01*
X494804Y354574D01*
X494181Y355198D01*
X493418Y355638D01*
X492567Y355866D01*
D02*
G37*
G36*
X167971Y350492D02*
X167462D01*
X166992Y350297D01*
X166632Y349937D01*
X166437Y349467D01*
Y348958D01*
X166632Y348488D01*
X166992Y348128D01*
X167462Y347933D01*
X167971D01*
X168441Y348128D01*
X168801Y348488D01*
X168996Y348958D01*
Y349467D01*
X168801Y349937D01*
X168441Y350297D01*
X167971Y350492D01*
D02*
G37*
G36*
X153575Y350231D02*
X153066D01*
X152595Y350036D01*
X152235Y349676D01*
X152041Y349206D01*
Y348697D01*
X152235Y348227D01*
X152595Y347867D01*
X153066Y347672D01*
X153575D01*
X154045Y347867D01*
X154405Y348227D01*
X154600Y348697D01*
Y349206D01*
X154405Y349676D01*
X154045Y350036D01*
X153575Y350231D01*
D02*
G37*
G36*
X150036Y349724D02*
X149527D01*
X149056Y349529D01*
X148696Y349169D01*
X148502Y348699D01*
Y348189D01*
X148696Y347719D01*
X149056Y347359D01*
X149527Y347165D01*
X150036D01*
X150506Y347359D01*
X150866Y347719D01*
X151061Y348189D01*
Y348699D01*
X150866Y349169D01*
X150506Y349529D01*
X150036Y349724D01*
D02*
G37*
G36*
X362066Y349311D02*
X361557D01*
X361086Y349116D01*
X360726Y348756D01*
X360531Y348286D01*
Y347777D01*
X360726Y347307D01*
X361086Y346947D01*
X361557Y346752D01*
X362066D01*
X362536Y346947D01*
X362896Y347307D01*
X363090Y347777D01*
Y348286D01*
X362896Y348756D01*
X362536Y349116D01*
X362066Y349311D01*
D02*
G37*
G36*
X158522Y348917D02*
X158013D01*
X157543Y348723D01*
X157183Y348363D01*
X156988Y347892D01*
Y347383D01*
X157183Y346913D01*
X157543Y346553D01*
X158013Y346358D01*
X158522D01*
X158993Y346553D01*
X159352Y346913D01*
X159547Y347383D01*
Y347892D01*
X159352Y348363D01*
X158993Y348723D01*
X158522Y348917D01*
D02*
G37*
G36*
X134113Y344193D02*
X133604D01*
X133133Y343998D01*
X132773Y343638D01*
X132579Y343168D01*
Y342659D01*
X132773Y342189D01*
X133133Y341829D01*
X133604Y341634D01*
X134113D01*
X134583Y341829D01*
X134943Y342189D01*
X135138Y342659D01*
Y343168D01*
X134943Y343638D01*
X134583Y343998D01*
X134113Y344193D01*
D02*
G37*
G36*
X143266Y343545D02*
X142757D01*
X142287Y343350D01*
X141927Y342990D01*
X141732Y342520D01*
Y342011D01*
X141927Y341540D01*
X142287Y341180D01*
X142757Y340986D01*
X143266D01*
X143737Y341180D01*
X144097Y341540D01*
X144291Y342011D01*
Y342520D01*
X144097Y342990D01*
X143737Y343350D01*
X143266Y343545D01*
D02*
G37*
G36*
X90354Y343839D02*
Y340512D01*
X93681D01*
X93432Y341441D01*
X92914Y342339D01*
X92181Y343072D01*
X91283Y343590D01*
X90354Y343839D01*
D02*
G37*
G36*
X89173D02*
X88244Y343590D01*
X87346Y343072D01*
X86613Y342339D01*
X86095Y341441D01*
X85846Y340512D01*
X89173D01*
Y343839D01*
D02*
G37*
G36*
X234299Y344449D02*
X233418D01*
X232567Y344221D01*
X231803Y343780D01*
X231180Y343157D01*
X230740Y342394D01*
X230512Y341543D01*
Y340662D01*
X230740Y339811D01*
X231180Y339048D01*
X231803Y338424D01*
X232567Y337984D01*
X233418Y337756D01*
X234299D01*
X235150Y337984D01*
X235913Y338424D01*
X236536Y339048D01*
X236977Y339811D01*
X237205Y340662D01*
Y341543D01*
X236977Y342394D01*
X236536Y343157D01*
X235913Y343780D01*
X235150Y344221D01*
X234299Y344449D01*
D02*
G37*
G36*
X132442Y339959D02*
X131933D01*
X131462Y339764D01*
X131102Y339404D01*
X130908Y338934D01*
Y338424D01*
X131102Y337954D01*
X131462Y337594D01*
X131933Y337400D01*
X132442D01*
X132912Y337594D01*
X133272Y337954D01*
X133467Y338424D01*
Y338934D01*
X133272Y339404D01*
X132912Y339764D01*
X132442Y339959D01*
D02*
G37*
G36*
X103110Y343268D02*
X96417D01*
Y336575D01*
X103110D01*
Y343268D01*
D02*
G37*
G36*
X93681Y339331D02*
X90354D01*
Y336004D01*
X91283Y336253D01*
X92181Y336771D01*
X92914Y337504D01*
X93432Y338402D01*
X93681Y339331D01*
D02*
G37*
G36*
X89173D02*
X85846D01*
X86095Y338402D01*
X86613Y337504D01*
X87346Y336771D01*
X88244Y336253D01*
X89173Y336004D01*
Y339331D01*
D02*
G37*
G36*
X130963Y335531D02*
X130454D01*
X129984Y335337D01*
X129624Y334977D01*
X129429Y334507D01*
Y333998D01*
X129624Y333527D01*
X129984Y333167D01*
X130454Y332972D01*
X130963D01*
X131433Y333167D01*
X131793Y333527D01*
X131988Y333998D01*
Y334507D01*
X131793Y334977D01*
X131433Y335337D01*
X130963Y335531D01*
D02*
G37*
G36*
X237205Y334449D02*
X230512D01*
Y327756D01*
X237205D01*
Y334449D01*
D02*
G37*
G36*
X125254Y329429D02*
X124746D01*
X124275Y329234D01*
X123915Y328874D01*
X123721Y328404D01*
Y327895D01*
X123915Y327425D01*
X124275Y327065D01*
X124746Y326870D01*
X125254D01*
X125725Y327065D01*
X126085Y327425D01*
X126279Y327895D01*
Y328404D01*
X126085Y328874D01*
X125725Y329234D01*
X125254Y329429D01*
D02*
G37*
G36*
X100204Y333268D02*
X99323D01*
X98472Y333040D01*
X97709Y332599D01*
X97086Y331976D01*
X96645Y331213D01*
X96417Y330362D01*
Y329481D01*
X96645Y328630D01*
X97086Y327867D01*
X97709Y327243D01*
X98472Y326803D01*
X99323Y326575D01*
X100204D01*
X101056Y326803D01*
X101819Y327243D01*
X102442Y327867D01*
X102882Y328630D01*
X103110Y329481D01*
Y330362D01*
X102882Y331213D01*
X102442Y331976D01*
X101819Y332599D01*
X101056Y333040D01*
X100204Y333268D01*
D02*
G37*
G36*
X90204D02*
X89323D01*
X88472Y333040D01*
X87709Y332599D01*
X87086Y331976D01*
X86645Y331213D01*
X86417Y330362D01*
Y329481D01*
X86645Y328630D01*
X87086Y327867D01*
X87709Y327243D01*
X88472Y326803D01*
X89323Y326575D01*
X90204D01*
X91056Y326803D01*
X91819Y327243D01*
X92442Y327867D01*
X92882Y328630D01*
X93110Y329481D01*
Y330362D01*
X92882Y331213D01*
X92442Y331976D01*
X91819Y332599D01*
X91056Y333040D01*
X90204Y333268D01*
D02*
G37*
G36*
X180067Y327264D02*
X179558D01*
X179088Y327069D01*
X178728Y326709D01*
X178533Y326239D01*
Y325730D01*
X178728Y325259D01*
X179088Y324900D01*
X179558Y324705D01*
X180067D01*
X180538Y324900D01*
X180898Y325259D01*
X181092Y325730D01*
Y326239D01*
X180898Y326709D01*
X180538Y327069D01*
X180067Y327264D01*
D02*
G37*
G36*
X181847Y320240D02*
X181338D01*
X180868Y320045D01*
X180508Y319685D01*
X180313Y319215D01*
Y318706D01*
X180508Y318235D01*
X180868Y317876D01*
X180976Y317831D01*
X181069Y317366D01*
X180942Y317240D01*
X180747Y316769D01*
Y316659D01*
X161161D01*
X161092Y316729D01*
Y316769D01*
X160897Y317239D01*
X160537Y317600D01*
X160067Y317794D01*
X159558D01*
X159087Y317600D01*
X158727Y317239D01*
X158533Y316769D01*
Y316260D01*
X158727Y315790D01*
X158913Y315604D01*
X159029Y315318D01*
X158912Y315091D01*
X158701Y314880D01*
X158507Y314409D01*
Y313900D01*
X158701Y313430D01*
X159061Y313070D01*
X159532Y312875D01*
X160041D01*
X160511Y313070D01*
X160723Y313283D01*
X178314D01*
X178401Y312927D01*
X178402Y312889D01*
X178049Y312536D01*
X177854Y312066D01*
Y311557D01*
X178049Y311086D01*
X178409Y310726D01*
X178879Y310531D01*
X179388D01*
X179859Y310726D01*
X180219Y311086D01*
X180413Y311557D01*
Y312066D01*
X180219Y312536D01*
X179865Y312889D01*
X179866Y312927D01*
X179953Y313283D01*
X182391D01*
X182619Y313328D01*
X182718Y313287D01*
X183227D01*
X183697Y313482D01*
X184057Y313842D01*
X184252Y314312D01*
Y314821D01*
X184057Y315292D01*
X183697Y315652D01*
X183512Y315728D01*
X183285Y316210D01*
X183306Y316260D01*
Y316769D01*
X183112Y317240D01*
X182752Y317600D01*
X182643Y317645D01*
X182551Y318109D01*
X182677Y318235D01*
X182872Y318706D01*
Y319215D01*
X182677Y319685D01*
X182317Y320045D01*
X181847Y320240D01*
D02*
G37*
G36*
X194743Y318209D02*
X194234D01*
X193763Y318014D01*
X193403Y317654D01*
X193209Y317184D01*
Y316675D01*
X193403Y316204D01*
X193763Y315844D01*
X194234Y315650D01*
X194743D01*
X195213Y315844D01*
X195573Y316204D01*
X195768Y316675D01*
Y317184D01*
X195573Y317654D01*
X195213Y318014D01*
X194743Y318209D01*
D02*
G37*
G36*
X139428Y330514D02*
X138919D01*
X138448Y330319D01*
X138089Y329959D01*
X137894Y329489D01*
Y328980D01*
X138089Y328510D01*
X138448Y328150D01*
X138919Y327955D01*
X139164D01*
X145939Y321180D01*
Y309941D01*
X145545Y309863D01*
X145475Y310034D01*
X145115Y310394D01*
X144644Y310589D01*
X144135D01*
X143665Y310394D01*
X143305Y310034D01*
X143110Y309564D01*
Y309055D01*
X143305Y308585D01*
X143665Y308225D01*
X144135Y308030D01*
X144644D01*
X145115Y308225D01*
X145475Y308585D01*
X145545Y308756D01*
X145939Y308678D01*
Y307591D01*
X145766Y307418D01*
X145571Y306947D01*
Y306438D01*
X145766Y305968D01*
X146126Y305608D01*
X146596Y305413D01*
X147105D01*
X147575Y305608D01*
X147935Y305968D01*
X148130Y306438D01*
Y306947D01*
X147935Y307418D01*
X147762Y307591D01*
Y314879D01*
X148026Y314983D01*
X148155Y314996D01*
X148488Y314663D01*
X148958Y314469D01*
X149467D01*
X149937Y314663D01*
X150297Y315023D01*
X150492Y315493D01*
Y316002D01*
X150297Y316473D01*
X149937Y316833D01*
X149467Y317028D01*
X148958D01*
X148488Y316833D01*
X148155Y316500D01*
X148026Y316513D01*
X147762Y316617D01*
Y321557D01*
X147692Y321906D01*
X147495Y322202D01*
X140453Y329244D01*
Y329489D01*
X140258Y329959D01*
X139898Y330319D01*
X139428Y330514D01*
D02*
G37*
G36*
X116003Y315437D02*
X115494D01*
X115023Y315242D01*
X114663Y314882D01*
X114469Y314412D01*
Y313903D01*
X114663Y313433D01*
X115023Y313073D01*
X115494Y312878D01*
X116003D01*
X116473Y313073D01*
X116833Y313433D01*
X117027Y313903D01*
Y314412D01*
X116833Y314882D01*
X116473Y315242D01*
X116003Y315437D01*
D02*
G37*
G36*
X153010Y315059D02*
X152501D01*
X152031Y314864D01*
X151671Y314504D01*
X151476Y314034D01*
Y313525D01*
X151671Y313055D01*
X152031Y312695D01*
X152501Y312500D01*
X153010D01*
X153481Y312695D01*
X153841Y313055D01*
X154035Y313525D01*
Y314034D01*
X153841Y314504D01*
X153481Y314864D01*
X153010Y315059D01*
D02*
G37*
G36*
X198286Y314272D02*
X197777D01*
X197307Y314077D01*
X196947Y313717D01*
X196752Y313247D01*
Y312738D01*
X196947Y312267D01*
X197307Y311907D01*
X197777Y311713D01*
X198286D01*
X198756Y311907D01*
X199116Y312267D01*
X199311Y312738D01*
Y313247D01*
X199116Y313717D01*
X198756Y314077D01*
X198286Y314272D01*
D02*
G37*
G36*
X168365Y300098D02*
X167856D01*
X167385Y299904D01*
X167025Y299544D01*
X166831Y299073D01*
Y298564D01*
X167025Y298094D01*
X167385Y297734D01*
X167856Y297539D01*
X168365D01*
X168835Y297734D01*
X169195Y298094D01*
X169390Y298564D01*
Y299073D01*
X169195Y299544D01*
X168835Y299904D01*
X168365Y300098D01*
D02*
G37*
G36*
X126632Y326083D02*
X126123D01*
X125653Y325888D01*
X125293Y325528D01*
X125098Y325058D01*
Y324549D01*
X125293Y324078D01*
X125467Y323905D01*
Y319685D01*
X125536Y319336D01*
X125734Y319041D01*
X148962Y295812D01*
X149258Y295615D01*
X149606Y295546D01*
X152251D01*
X152425Y295372D01*
X152895Y295177D01*
X153404D01*
X153874Y295372D01*
X154234Y295732D01*
X154429Y296202D01*
Y296711D01*
X154234Y297182D01*
X153874Y297541D01*
X153404Y297736D01*
X152895D01*
X152425Y297541D01*
X152251Y297368D01*
X149984D01*
X127289Y320062D01*
Y323905D01*
X127463Y324078D01*
X127657Y324549D01*
Y325058D01*
X127463Y325528D01*
X127103Y325888D01*
X126632Y326083D01*
D02*
G37*
G36*
X165609Y296949D02*
X165100D01*
X164629Y296754D01*
X164270Y296394D01*
X164075Y295924D01*
Y295415D01*
X164270Y294945D01*
X164629Y294585D01*
X165100Y294390D01*
X165609D01*
X166079Y294585D01*
X166439Y294945D01*
X166634Y295415D01*
Y295924D01*
X166439Y296394D01*
X166079Y296754D01*
X165609Y296949D01*
D02*
G37*
G36*
X211278Y285531D02*
X210769D01*
X210299Y285337D01*
X210100Y285138D01*
X209842Y285021D01*
X209585Y285138D01*
X209386Y285337D01*
X208916Y285531D01*
X208407D01*
X207937Y285337D01*
X207737Y285138D01*
X207480Y285021D01*
X207223Y285138D01*
X207024Y285337D01*
X206554Y285531D01*
X206045D01*
X205574Y285337D01*
X205215Y284977D01*
X205020Y284507D01*
Y283998D01*
X205215Y283527D01*
X205574Y283167D01*
X206045Y282972D01*
X206554D01*
X207024Y283167D01*
X207223Y283366D01*
X207480Y283483D01*
X207737Y283366D01*
X207937Y283167D01*
X208407Y282972D01*
X208916D01*
X209386Y283167D01*
X209585Y283366D01*
X209842Y283483D01*
X210100Y283366D01*
X210299Y283167D01*
X210769Y282972D01*
X211278D01*
X211748Y283167D01*
X212108Y283527D01*
X212303Y283998D01*
Y284507D01*
X212108Y284977D01*
X211748Y285337D01*
X211278Y285531D01*
D02*
G37*
G36*
X153404Y284744D02*
X152895D01*
X152425Y284549D01*
X152065Y284189D01*
X151870Y283719D01*
Y283210D01*
X152065Y282740D01*
X152425Y282380D01*
X152895Y282185D01*
X153404D01*
X153874Y282380D01*
X154234Y282740D01*
X154429Y283210D01*
Y283719D01*
X154234Y284189D01*
X153874Y284549D01*
X153404Y284744D01*
D02*
G37*
G36*
X217971Y281594D02*
X217462D01*
X216992Y281400D01*
X216632Y281040D01*
X216437Y280570D01*
Y280060D01*
X216632Y279590D01*
X216992Y279230D01*
X217462Y279035D01*
X217971D01*
X218441Y279230D01*
X218801Y279590D01*
X218996Y280060D01*
Y280570D01*
X218801Y281040D01*
X218441Y281400D01*
X217971Y281594D01*
D02*
G37*
G36*
X151228Y279724D02*
X150347D01*
X149496Y279496D01*
X148733Y279056D01*
X148110Y278433D01*
X147669Y277670D01*
X147441Y276818D01*
Y275937D01*
X147669Y275086D01*
X148110Y274323D01*
X148733Y273700D01*
X149496Y273259D01*
X150347Y273031D01*
X151228D01*
X152079Y273259D01*
X152842Y273700D01*
X153465Y274323D01*
X153906Y275086D01*
X154134Y275937D01*
Y276818D01*
X153906Y277670D01*
X153465Y278433D01*
X152842Y279056D01*
X152079Y279496D01*
X151228Y279724D01*
D02*
G37*
G36*
X144134D02*
X137441D01*
Y273031D01*
X144134D01*
Y279724D01*
D02*
G37*
G36*
X245136Y270965D02*
X244627D01*
X244157Y270770D01*
X243797Y270410D01*
X243602Y269940D01*
Y269430D01*
X243797Y268960D01*
X244157Y268600D01*
X244627Y268406D01*
X245136D01*
X245607Y268600D01*
X245967Y268960D01*
X246161Y269430D01*
Y269940D01*
X245967Y270410D01*
X245607Y270770D01*
X245136Y270965D01*
D02*
G37*
G36*
X243227Y268504D02*
X242600D01*
X242021Y268264D01*
X241578Y267821D01*
X241339Y267242D01*
Y266616D01*
X241578Y266037D01*
X242021Y265594D01*
X242600Y265354D01*
X243227D01*
X243805Y265594D01*
X244248Y266037D01*
X244488Y266616D01*
Y267242D01*
X244248Y267821D01*
X243805Y268264D01*
X243227Y268504D01*
D02*
G37*
G36*
X409310Y320571D02*
X408801D01*
X408330Y320376D01*
X407970Y320016D01*
X407776Y319546D01*
Y319037D01*
X407970Y318567D01*
X408330Y318207D01*
X408801Y318012D01*
X409310D01*
X409780Y318207D01*
X410140Y318567D01*
X410335Y319037D01*
Y319546D01*
X410140Y320016D01*
X409780Y320376D01*
X409310Y320571D01*
D02*
G37*
G36*
X495472Y324606D02*
X488779D01*
Y317913D01*
X495472D01*
Y324606D01*
D02*
G37*
G36*
X299467Y320177D02*
X298958D01*
X298488Y319982D01*
X298128Y319622D01*
X297933Y319152D01*
Y318643D01*
X298128Y318173D01*
X298488Y317813D01*
X298958Y317618D01*
X299467D01*
X299937Y317813D01*
X300297Y318173D01*
X300492Y318643D01*
Y319152D01*
X300297Y319622D01*
X299937Y319982D01*
X299467Y320177D01*
D02*
G37*
G36*
X332341Y317618D02*
X331832D01*
X331362Y317423D01*
X331002Y317063D01*
X330807Y316593D01*
Y316084D01*
X331002Y315614D01*
X331362Y315254D01*
X331832Y315059D01*
X332341D01*
X332811Y315254D01*
X333171Y315614D01*
X333366Y316084D01*
Y316593D01*
X333171Y317063D01*
X332811Y317423D01*
X332341Y317618D01*
D02*
G37*
G36*
X419546Y315787D02*
X419037D01*
X418567Y315593D01*
X418207Y315233D01*
X418012Y314762D01*
Y314253D01*
X418207Y313783D01*
X418567Y313423D01*
X419037Y313228D01*
X419546D01*
X420016Y313423D01*
X420376Y313783D01*
X420571Y314253D01*
Y314762D01*
X420376Y315233D01*
X420016Y315593D01*
X419546Y315787D01*
D02*
G37*
G36*
X356554Y315453D02*
X356045D01*
X355574Y315258D01*
X355215Y314898D01*
X355020Y314428D01*
Y313919D01*
X355215Y313448D01*
X355574Y313088D01*
X356045Y312894D01*
X356554D01*
X357024Y313088D01*
X357384Y313448D01*
X357579Y313919D01*
Y314428D01*
X357384Y314898D01*
X357024Y315258D01*
X356554Y315453D01*
D02*
G37*
G36*
X372459Y315295D02*
X371950D01*
X371480Y315101D01*
X371120Y314740D01*
X370925Y314270D01*
Y313761D01*
X371120Y313291D01*
X371480Y312931D01*
X371950Y312736D01*
X372459D01*
X372930Y312931D01*
X373289Y313291D01*
X373484Y313761D01*
Y314270D01*
X373289Y314740D01*
X372930Y315101D01*
X372459Y315295D01*
D02*
G37*
G36*
X492567Y314606D02*
X491685D01*
X490834Y314378D01*
X490071Y313938D01*
X489448Y313315D01*
X489008Y312551D01*
X488779Y311700D01*
Y310819D01*
X489008Y309968D01*
X489448Y309205D01*
X490071Y308582D01*
X490834Y308141D01*
X491685Y307913D01*
X492567D01*
X493418Y308141D01*
X494181Y308582D01*
X494804Y309205D01*
X495244Y309968D01*
X495472Y310819D01*
Y311700D01*
X495244Y312551D01*
X494804Y313315D01*
X494181Y313938D01*
X493418Y314378D01*
X492567Y314606D01*
D02*
G37*
G36*
X377420Y310335D02*
X376911D01*
X376441Y310140D01*
X376081Y309780D01*
X375886Y309310D01*
Y308801D01*
X376081Y308330D01*
X376441Y307970D01*
X376911Y307776D01*
X377420D01*
X377890Y307970D01*
X378250Y308330D01*
X378445Y308801D01*
Y309310D01*
X378250Y309780D01*
X377890Y310140D01*
X377420Y310335D01*
D02*
G37*
G36*
X351575Y309358D02*
X351066D01*
X350595Y309163D01*
X350236Y308804D01*
X350041Y308333D01*
Y307824D01*
X350236Y307354D01*
X350595Y306994D01*
X351066Y306799D01*
X351575D01*
X352045Y306994D01*
X352405Y307354D01*
X352600Y307824D01*
Y308333D01*
X352405Y308804D01*
X352045Y309163D01*
X351575Y309358D01*
D02*
G37*
G36*
X409310Y308760D02*
X408801D01*
X408330Y308565D01*
X407970Y308205D01*
X407776Y307735D01*
Y307226D01*
X407970Y306755D01*
X408330Y306396D01*
X408801Y306201D01*
X409310D01*
X409780Y306396D01*
X410140Y306755D01*
X410335Y307226D01*
Y307735D01*
X410140Y308205D01*
X409780Y308565D01*
X409310Y308760D01*
D02*
G37*
G36*
X401829Y302067D02*
X401320D01*
X400850Y301872D01*
X400490Y301512D01*
X400295Y301042D01*
Y300533D01*
X400490Y300063D01*
X400850Y299703D01*
X401320Y299508D01*
X401829D01*
X402300Y299703D01*
X402660Y300063D01*
X402854Y300533D01*
Y301042D01*
X402660Y301512D01*
X402300Y301872D01*
X401829Y302067D01*
D02*
G37*
G36*
X268758Y294193D02*
X268249D01*
X267779Y293998D01*
X267419Y293638D01*
X267224Y293168D01*
Y292659D01*
X267419Y292189D01*
X267779Y291829D01*
X268249Y291634D01*
X268758D01*
X269229Y291829D01*
X269589Y292189D01*
X269783Y292659D01*
Y293168D01*
X269589Y293638D01*
X269229Y293998D01*
X268758Y294193D01*
D02*
G37*
G36*
X303583Y284233D02*
Y280906D01*
X306910D01*
X306661Y281835D01*
X306142Y282732D01*
X305410Y283465D01*
X304512Y283984D01*
X303583Y284233D01*
D02*
G37*
G36*
X302402Y284233D02*
X301472Y283984D01*
X300575Y283465D01*
X299842Y282732D01*
X299323Y281835D01*
X299075Y280906D01*
X302402D01*
Y284233D01*
D02*
G37*
G36*
X316339Y283661D02*
X309646D01*
Y276969D01*
X316339D01*
Y283661D01*
D02*
G37*
G36*
X306910Y279724D02*
X303583D01*
Y276397D01*
X304512Y276646D01*
X305410Y277165D01*
X306142Y277898D01*
X306661Y278795D01*
X306910Y279724D01*
D02*
G37*
G36*
X302402D02*
X299075D01*
X299323Y278795D01*
X299842Y277898D01*
X300575Y277165D01*
X301472Y276646D01*
X302402Y276397D01*
Y279724D01*
D02*
G37*
G36*
X313433Y273661D02*
X312552D01*
X311701Y273433D01*
X310937Y272993D01*
X310314Y272370D01*
X309874Y271607D01*
X309646Y270756D01*
Y269874D01*
X309874Y269023D01*
X310314Y268260D01*
X310937Y267637D01*
X311701Y267197D01*
X312552Y266968D01*
X313433D01*
X314284Y267197D01*
X315047Y267637D01*
X315670Y268260D01*
X316110Y269023D01*
X316339Y269874D01*
Y270756D01*
X316110Y271607D01*
X315670Y272370D01*
X315047Y272993D01*
X314284Y273433D01*
X313433Y273661D01*
D02*
G37*
G36*
X303433D02*
X302552D01*
X301700Y273433D01*
X300937Y272993D01*
X300314Y272370D01*
X299874Y271607D01*
X299646Y270756D01*
Y269874D01*
X299874Y269023D01*
X300314Y268260D01*
X300937Y267637D01*
X301700Y267197D01*
X302552Y266968D01*
X303433D01*
X304284Y267197D01*
X305047Y267637D01*
X305670Y268260D01*
X306111Y269023D01*
X306339Y269874D01*
Y270756D01*
X306111Y271607D01*
X305670Y272370D01*
X305047Y272993D01*
X304284Y273433D01*
X303433Y273661D01*
D02*
G37*
G36*
X429053Y254964D02*
X428427D01*
X427848Y254724D01*
X427405Y254281D01*
X427165Y253703D01*
Y253076D01*
X427405Y252497D01*
X427848Y252054D01*
X428427Y251815D01*
X429053D01*
X429632Y252054D01*
X430075Y252497D01*
X430315Y253076D01*
Y253703D01*
X430075Y254281D01*
X429632Y254724D01*
X429053Y254964D01*
D02*
G37*
G36*
X389543Y253576D02*
X389034D01*
X388564Y253381D01*
X388204Y253021D01*
X388009Y252551D01*
Y252042D01*
X388204Y251571D01*
X388564Y251211D01*
X389034Y251017D01*
X389543D01*
X390014Y251211D01*
X390373Y251571D01*
X390568Y252042D01*
Y252551D01*
X390373Y253021D01*
X390014Y253381D01*
X389543Y253576D01*
D02*
G37*
G36*
X362066Y251673D02*
X361557D01*
X361086Y251478D01*
X360726Y251118D01*
X360531Y250648D01*
Y250139D01*
X360726Y249669D01*
X361086Y249309D01*
X361557Y249114D01*
X362066D01*
X362536Y249309D01*
X362896Y249669D01*
X363090Y250139D01*
Y250648D01*
X362896Y251118D01*
X362536Y251478D01*
X362066Y251673D01*
D02*
G37*
G36*
X192774D02*
X192265D01*
X191795Y251478D01*
X191435Y251118D01*
X191240Y250648D01*
Y250139D01*
X191435Y249669D01*
X191795Y249309D01*
X192265Y249114D01*
X192774D01*
X193245Y249309D01*
X193604Y249669D01*
X193799Y250139D01*
Y250648D01*
X193604Y251118D01*
X193245Y251478D01*
X192774Y251673D01*
D02*
G37*
G36*
X288699Y246161D02*
X288190D01*
X287720Y245967D01*
X287360Y245607D01*
X287165Y245136D01*
Y244627D01*
X287360Y244157D01*
X287720Y243797D01*
X288190Y243602D01*
X288699D01*
X289170Y243797D01*
X289530Y244157D01*
X289724Y244627D01*
Y245136D01*
X289530Y245607D01*
X289170Y245967D01*
X288699Y246161D01*
D02*
G37*
G36*
X402223Y244193D02*
X401714D01*
X401244Y243998D01*
X400884Y243638D01*
X400689Y243168D01*
Y242659D01*
X400884Y242189D01*
X401244Y241829D01*
X401714Y241634D01*
X402223D01*
X402693Y241829D01*
X403053Y242189D01*
X403248Y242659D01*
Y243168D01*
X403053Y243638D01*
X402693Y243998D01*
X402223Y244193D01*
D02*
G37*
G36*
X469546Y243799D02*
X469037D01*
X468567Y243604D01*
X468207Y243245D01*
X468012Y242774D01*
Y242265D01*
X468207Y241795D01*
X468567Y241435D01*
X469037Y241240D01*
X469546D01*
X470016Y241435D01*
X470376Y241795D01*
X470571Y242265D01*
Y242774D01*
X470376Y243245D01*
X470016Y243604D01*
X469546Y243799D01*
D02*
G37*
G36*
X429053Y244254D02*
X428427D01*
X427848Y244015D01*
X427405Y243571D01*
X427165Y242993D01*
Y242366D01*
X427405Y241787D01*
X427848Y241344D01*
X428427Y241105D01*
X429053D01*
X429632Y241344D01*
X430075Y241787D01*
X430315Y242366D01*
Y242993D01*
X430075Y243571D01*
X429632Y244015D01*
X429053Y244254D01*
D02*
G37*
G36*
X384507Y243012D02*
X383998D01*
X383527Y242817D01*
X383167Y242457D01*
X382972Y241987D01*
Y241478D01*
X383167Y241007D01*
X383527Y240648D01*
X383998Y240453D01*
X384507D01*
X384977Y240648D01*
X385337Y241007D01*
X385531Y241478D01*
Y241987D01*
X385337Y242457D01*
X384977Y242817D01*
X384507Y243012D01*
D02*
G37*
G36*
X327814D02*
X327305D01*
X326834Y242817D01*
X326474Y242457D01*
X326279Y241987D01*
Y241478D01*
X326474Y241007D01*
X326834Y240648D01*
X327305Y240453D01*
X327814D01*
X328284Y240648D01*
X328644Y241007D01*
X328839Y241478D01*
Y241987D01*
X328644Y242457D01*
X328284Y242817D01*
X327814Y243012D01*
D02*
G37*
G36*
X307341Y242224D02*
X306832D01*
X306362Y242030D01*
X306002Y241670D01*
X305807Y241199D01*
Y240690D01*
X306002Y240220D01*
X306362Y239860D01*
X306832Y239665D01*
X307341D01*
X307811Y239860D01*
X308171Y240220D01*
X308366Y240690D01*
Y241199D01*
X308171Y241670D01*
X307811Y242030D01*
X307341Y242224D01*
D02*
G37*
G36*
X492567Y245945D02*
X491685D01*
X490834Y245717D01*
X490071Y245276D01*
X489448Y244653D01*
X489008Y243890D01*
X488779Y243039D01*
Y242158D01*
X489008Y241307D01*
X489448Y240544D01*
X490071Y239921D01*
X490834Y239480D01*
X491685Y239252D01*
X492567D01*
X493418Y239480D01*
X494181Y239921D01*
X494804Y240544D01*
X495244Y241307D01*
X495472Y242158D01*
Y243039D01*
X495244Y243890D01*
X494804Y244653D01*
X494181Y245276D01*
X493418Y245717D01*
X492567Y245945D01*
D02*
G37*
G36*
X362066Y241043D02*
X361557D01*
X361086Y240848D01*
X360726Y240489D01*
X360531Y240018D01*
Y239509D01*
X360726Y239039D01*
X361086Y238679D01*
X361557Y238484D01*
X362066D01*
X362536Y238679D01*
X362896Y239039D01*
X363090Y239509D01*
Y240018D01*
X362896Y240489D01*
X362536Y240848D01*
X362066Y241043D01*
D02*
G37*
G36*
X379388Y237894D02*
X378879D01*
X378409Y237699D01*
X378049Y237339D01*
X377854Y236869D01*
Y236360D01*
X378049Y235889D01*
X378409Y235529D01*
X378879Y235335D01*
X379388D01*
X379859Y235529D01*
X380219Y235889D01*
X380413Y236360D01*
Y236869D01*
X380219Y237339D01*
X379859Y237699D01*
X379388Y237894D01*
D02*
G37*
G36*
X153798Y235531D02*
X153289D01*
X152819Y235337D01*
X152459Y234977D01*
X152264Y234507D01*
Y233998D01*
X152459Y233527D01*
X152819Y233167D01*
X153289Y232972D01*
X153798D01*
X154268Y233167D01*
X154628Y233527D01*
X154823Y233998D01*
Y234507D01*
X154628Y234977D01*
X154268Y235337D01*
X153798Y235531D01*
D02*
G37*
G36*
X327814Y235138D02*
X327305D01*
X326834Y234943D01*
X326474Y234583D01*
X326279Y234113D01*
Y233604D01*
X326474Y233134D01*
X326834Y232773D01*
X327305Y232579D01*
X327814D01*
X328284Y232773D01*
X328644Y233134D01*
X328839Y233604D01*
Y234113D01*
X328644Y234583D01*
X328284Y234943D01*
X327814Y235138D01*
D02*
G37*
G36*
X389570Y233635D02*
X389061D01*
X388591Y233440D01*
X388231Y233080D01*
X388036Y232610D01*
Y232101D01*
X388231Y231630D01*
X388591Y231271D01*
X389061Y231076D01*
X389570D01*
X390041Y231271D01*
X390401Y231630D01*
X390595Y232101D01*
Y232610D01*
X390401Y233080D01*
X390041Y233440D01*
X389570Y233635D01*
D02*
G37*
G36*
X429053Y233544D02*
X428427D01*
X427848Y233305D01*
X427405Y232862D01*
X427165Y232283D01*
Y231656D01*
X427405Y231078D01*
X427848Y230635D01*
X428427Y230395D01*
X429053D01*
X429632Y230635D01*
X430075Y231078D01*
X430315Y231656D01*
Y232283D01*
X430075Y232862D01*
X429632Y233305D01*
X429053Y233544D01*
D02*
G37*
G36*
X288699Y232382D02*
X288190D01*
X287720Y232187D01*
X287360Y231827D01*
X287165Y231357D01*
Y230848D01*
X287360Y230378D01*
X287720Y230018D01*
X288190Y229823D01*
X288699D01*
X289170Y230018D01*
X289530Y230378D01*
X289724Y230848D01*
Y231357D01*
X289530Y231827D01*
X289170Y232187D01*
X288699Y232382D01*
D02*
G37*
G36*
X492567Y235945D02*
X491685D01*
X490834Y235717D01*
X490071Y235276D01*
X489448Y234653D01*
X489008Y233890D01*
X488779Y233039D01*
Y232158D01*
X489008Y231307D01*
X489448Y230544D01*
X490071Y229921D01*
X490834Y229480D01*
X491685Y229252D01*
X492567D01*
X493418Y229480D01*
X494181Y229921D01*
X494804Y230544D01*
X495244Y231307D01*
X495472Y232158D01*
Y233039D01*
X495244Y233890D01*
X494804Y234653D01*
X494181Y235276D01*
X493418Y235717D01*
X492567Y235945D01*
D02*
G37*
G36*
X362066Y230020D02*
X361557D01*
X361086Y229825D01*
X360726Y229465D01*
X360531Y228995D01*
Y228486D01*
X360726Y228015D01*
X361086Y227655D01*
X361557Y227461D01*
X362066D01*
X362536Y227655D01*
X362896Y228015D01*
X363090Y228486D01*
Y228995D01*
X362896Y229465D01*
X362536Y229825D01*
X362066Y230020D01*
D02*
G37*
G36*
X141361Y225770D02*
X140852D01*
X140381Y225575D01*
X140022Y225215D01*
X139827Y224745D01*
Y224236D01*
X140022Y223765D01*
X140381Y223405D01*
X140852Y223211D01*
X141361D01*
X141831Y223405D01*
X142191Y223765D01*
X142386Y224236D01*
Y224745D01*
X142191Y225215D01*
X141831Y225575D01*
X141361Y225770D01*
D02*
G37*
G36*
X188551Y225424D02*
X188042D01*
X187572Y225229D01*
X187212Y224869D01*
X187017Y224398D01*
Y223889D01*
X187212Y223419D01*
X187572Y223059D01*
X188042Y222865D01*
X188551D01*
X189022Y223059D01*
X189381Y223419D01*
X189576Y223889D01*
Y224398D01*
X189381Y224869D01*
X189022Y225229D01*
X188551Y225424D01*
D02*
G37*
G36*
X402175Y223925D02*
X401666D01*
X401196Y223730D01*
X400836Y223370D01*
X400641Y222900D01*
Y222391D01*
X400836Y221921D01*
X401196Y221561D01*
X401666Y221366D01*
X402175D01*
X402645Y221561D01*
X403006Y221921D01*
X403200Y222391D01*
Y222900D01*
X403006Y223370D01*
X402645Y223730D01*
X402175Y223925D01*
D02*
G37*
G36*
X304641Y223259D02*
X304132D01*
X303661Y223064D01*
X303301Y222704D01*
X303107Y222234D01*
Y221725D01*
X303301Y221254D01*
X303661Y220895D01*
X304132Y220700D01*
X304641D01*
X305111Y220895D01*
X305471Y221254D01*
X305666Y221725D01*
Y222234D01*
X305471Y222704D01*
X305111Y223064D01*
X304641Y223259D01*
D02*
G37*
G36*
X384507Y222933D02*
X383998D01*
X383527Y222738D01*
X383167Y222378D01*
X382972Y221908D01*
Y221399D01*
X383167Y220929D01*
X383527Y220569D01*
X383998Y220374D01*
X384507D01*
X384977Y220569D01*
X385337Y220929D01*
X385531Y221399D01*
Y221908D01*
X385337Y222378D01*
X384977Y222738D01*
X384507Y222933D01*
D02*
G37*
G36*
X138837Y222539D02*
X138328D01*
X137858Y222345D01*
X137498Y221985D01*
X137303Y221514D01*
Y221005D01*
X137498Y220535D01*
X137858Y220175D01*
X138328Y219980D01*
X138837D01*
X139307Y220175D01*
X139667Y220535D01*
X139862Y221005D01*
Y221514D01*
X139667Y221985D01*
X139307Y222345D01*
X138837Y222539D01*
D02*
G37*
G36*
X311502Y222539D02*
X310993D01*
X310522Y222344D01*
X310162Y221984D01*
X309967Y221514D01*
Y221005D01*
X310162Y220535D01*
X310522Y220175D01*
X310993Y219980D01*
X311502D01*
X311972Y220175D01*
X312332Y220535D01*
X312527Y221005D01*
Y221514D01*
X312332Y221984D01*
X311972Y222344D01*
X311502Y222539D01*
D02*
G37*
G36*
X429053Y222835D02*
X428427D01*
X427848Y222595D01*
X427405Y222152D01*
X427165Y221573D01*
Y220947D01*
X427405Y220368D01*
X427848Y219925D01*
X428427Y219685D01*
X429053D01*
X429632Y219925D01*
X430075Y220368D01*
X430315Y220947D01*
Y221573D01*
X430075Y222152D01*
X429632Y222595D01*
X429053Y222835D01*
D02*
G37*
G36*
X492567Y225945D02*
X491685D01*
X490834Y225717D01*
X490071Y225276D01*
X489448Y224653D01*
X489008Y223890D01*
X488779Y223039D01*
Y222158D01*
X489008Y221307D01*
X489448Y220544D01*
X490071Y219921D01*
X490834Y219480D01*
X491685Y219252D01*
X492567D01*
X493418Y219480D01*
X494181Y219921D01*
X494804Y220544D01*
X495244Y221307D01*
X495472Y222158D01*
Y223039D01*
X495244Y223890D01*
X494804Y224653D01*
X494181Y225276D01*
X493418Y225717D01*
X492567Y225945D01*
D02*
G37*
G36*
X167971Y220571D02*
X167462D01*
X166992Y220376D01*
X166632Y220016D01*
X166437Y219546D01*
Y219037D01*
X166632Y218567D01*
X166992Y218207D01*
X167462Y218012D01*
X167971D01*
X168441Y218207D01*
X168801Y218567D01*
X168996Y219037D01*
Y219546D01*
X168801Y220016D01*
X168441Y220376D01*
X167971Y220571D01*
D02*
G37*
G36*
X153575Y220310D02*
X153066D01*
X152595Y220115D01*
X152235Y219755D01*
X152041Y219285D01*
Y218776D01*
X152235Y218306D01*
X152595Y217946D01*
X153066Y217751D01*
X153575D01*
X154045Y217946D01*
X154405Y218306D01*
X154600Y218776D01*
Y219285D01*
X154405Y219755D01*
X154045Y220115D01*
X153575Y220310D01*
D02*
G37*
G36*
X150036Y219802D02*
X149527D01*
X149056Y219607D01*
X148696Y219248D01*
X148502Y218777D01*
Y218268D01*
X148696Y217798D01*
X149056Y217438D01*
X149527Y217243D01*
X150036D01*
X150506Y217438D01*
X150866Y217798D01*
X151061Y218268D01*
Y218777D01*
X150866Y219248D01*
X150506Y219607D01*
X150036Y219802D01*
D02*
G37*
G36*
X362066Y219390D02*
X361557D01*
X361086Y219195D01*
X360726Y218835D01*
X360531Y218365D01*
Y217856D01*
X360726Y217385D01*
X361086Y217025D01*
X361557Y216831D01*
X362066D01*
X362536Y217025D01*
X362896Y217385D01*
X363090Y217856D01*
Y218365D01*
X362896Y218835D01*
X362536Y219195D01*
X362066Y219390D01*
D02*
G37*
G36*
X158522Y218996D02*
X158013D01*
X157543Y218801D01*
X157183Y218441D01*
X156988Y217971D01*
Y217462D01*
X157183Y216992D01*
X157543Y216632D01*
X158013Y216437D01*
X158522D01*
X158993Y216632D01*
X159352Y216992D01*
X159547Y217462D01*
Y217971D01*
X159352Y218441D01*
X158993Y218801D01*
X158522Y218996D01*
D02*
G37*
G36*
X134113Y214272D02*
X133604D01*
X133133Y214077D01*
X132773Y213717D01*
X132579Y213247D01*
Y212738D01*
X132773Y212267D01*
X133133Y211907D01*
X133604Y211713D01*
X134113D01*
X134583Y211907D01*
X134943Y212267D01*
X135138Y212738D01*
Y213247D01*
X134943Y213717D01*
X134583Y214077D01*
X134113Y214272D01*
D02*
G37*
G36*
X143266Y213623D02*
X142757D01*
X142287Y213429D01*
X141927Y213069D01*
X141732Y212598D01*
Y212089D01*
X141927Y211619D01*
X142287Y211259D01*
X142757Y211064D01*
X143266D01*
X143737Y211259D01*
X144097Y211619D01*
X144291Y212089D01*
Y212598D01*
X144097Y213069D01*
X143737Y213429D01*
X143266Y213623D01*
D02*
G37*
G36*
X90354Y213918D02*
Y210591D01*
X93681D01*
X93432Y211520D01*
X92914Y212417D01*
X92181Y213150D01*
X91283Y213669D01*
X90354Y213918D01*
D02*
G37*
G36*
X89173D02*
X88244Y213669D01*
X87346Y213150D01*
X86613Y212417D01*
X86095Y211520D01*
X85846Y210591D01*
X89173D01*
Y213918D01*
D02*
G37*
G36*
X234299Y214528D02*
X233418D01*
X232567Y214300D01*
X231803Y213859D01*
X231180Y213236D01*
X230740Y212473D01*
X230512Y211622D01*
Y210740D01*
X230740Y209889D01*
X231180Y209126D01*
X231803Y208503D01*
X232567Y208063D01*
X233418Y207835D01*
X234299D01*
X235150Y208063D01*
X235913Y208503D01*
X236536Y209126D01*
X236977Y209889D01*
X237205Y210740D01*
Y211622D01*
X236977Y212473D01*
X236536Y213236D01*
X235913Y213859D01*
X235150Y214300D01*
X234299Y214528D01*
D02*
G37*
G36*
X132442Y210037D02*
X131933D01*
X131462Y209842D01*
X131102Y209483D01*
X130908Y209012D01*
Y208503D01*
X131102Y208033D01*
X131462Y207673D01*
X131933Y207478D01*
X132442D01*
X132912Y207673D01*
X133272Y208033D01*
X133467Y208503D01*
Y209012D01*
X133272Y209483D01*
X132912Y209842D01*
X132442Y210037D01*
D02*
G37*
G36*
X103110Y213347D02*
X96417D01*
Y206653D01*
X103110D01*
Y213347D01*
D02*
G37*
G36*
X93681Y209409D02*
X90354D01*
Y206082D01*
X91283Y206331D01*
X92181Y206850D01*
X92914Y207583D01*
X93432Y208480D01*
X93681Y209409D01*
D02*
G37*
G36*
X89173D02*
X85846D01*
X86095Y208480D01*
X86613Y207583D01*
X87346Y206850D01*
X88244Y206331D01*
X89173Y206082D01*
Y209409D01*
D02*
G37*
G36*
X130963Y205610D02*
X130454D01*
X129984Y205415D01*
X129624Y205055D01*
X129429Y204585D01*
Y204076D01*
X129624Y203606D01*
X129984Y203246D01*
X130454Y203051D01*
X130963D01*
X131433Y203246D01*
X131793Y203606D01*
X131988Y204076D01*
Y204585D01*
X131793Y205055D01*
X131433Y205415D01*
X130963Y205610D01*
D02*
G37*
G36*
X237205Y204527D02*
X230512D01*
Y197835D01*
X237205D01*
Y204527D01*
D02*
G37*
G36*
X125254Y199508D02*
X124746D01*
X124275Y199313D01*
X123915Y198953D01*
X123721Y198483D01*
Y197974D01*
X123915Y197503D01*
X124275Y197144D01*
X124746Y196949D01*
X125254D01*
X125725Y197144D01*
X126085Y197503D01*
X126279Y197974D01*
Y198483D01*
X126085Y198953D01*
X125725Y199313D01*
X125254Y199508D01*
D02*
G37*
G36*
X100204Y203346D02*
X99323D01*
X98472Y203118D01*
X97709Y202678D01*
X97086Y202055D01*
X96645Y201292D01*
X96417Y200441D01*
Y199559D01*
X96645Y198708D01*
X97086Y197945D01*
X97709Y197322D01*
X98472Y196882D01*
X99323Y196653D01*
X100204D01*
X101056Y196882D01*
X101819Y197322D01*
X102442Y197945D01*
X102882Y198708D01*
X103110Y199559D01*
Y200441D01*
X102882Y201292D01*
X102442Y202055D01*
X101819Y202678D01*
X101056Y203118D01*
X100204Y203346D01*
D02*
G37*
G36*
X90204D02*
X89323D01*
X88472Y203118D01*
X87709Y202678D01*
X87086Y202055D01*
X86645Y201292D01*
X86417Y200441D01*
Y199559D01*
X86645Y198708D01*
X87086Y197945D01*
X87709Y197322D01*
X88472Y196882D01*
X89323Y196653D01*
X90204D01*
X91056Y196882D01*
X91819Y197322D01*
X92442Y197945D01*
X92882Y198708D01*
X93110Y199559D01*
Y200441D01*
X92882Y201292D01*
X92442Y202055D01*
X91819Y202678D01*
X91056Y203118D01*
X90204Y203346D01*
D02*
G37*
G36*
X180067Y197343D02*
X179558D01*
X179088Y197148D01*
X178728Y196788D01*
X178533Y196318D01*
Y195808D01*
X178728Y195338D01*
X179088Y194978D01*
X179558Y194783D01*
X180067D01*
X180538Y194978D01*
X180898Y195338D01*
X181092Y195808D01*
Y196318D01*
X180898Y196788D01*
X180538Y197148D01*
X180067Y197343D01*
D02*
G37*
G36*
X181847Y190319D02*
X181338D01*
X180868Y190124D01*
X180508Y189764D01*
X180313Y189294D01*
Y188785D01*
X180508Y188314D01*
X180868Y187954D01*
X181338Y187759D01*
X181498D01*
X181302Y187678D01*
X180942Y187318D01*
X180747Y186848D01*
Y186738D01*
X161161D01*
X161092Y186808D01*
Y186848D01*
X160897Y187318D01*
X160537Y187678D01*
X160067Y187873D01*
X159558D01*
X159087Y187678D01*
X158727Y187318D01*
X158533Y186848D01*
Y186339D01*
X158727Y185869D01*
X159087Y185509D01*
X159304Y185419D01*
X159061Y185318D01*
X158701Y184958D01*
X158507Y184488D01*
Y183979D01*
X158701Y183509D01*
X159061Y183149D01*
X159532Y182954D01*
X160041D01*
X160511Y183149D01*
X160723Y183361D01*
X182391D01*
X182619Y183407D01*
X182718Y183366D01*
X183227D01*
X183697Y183561D01*
X184057Y183921D01*
X184252Y184391D01*
Y184900D01*
X184057Y185371D01*
X183697Y185730D01*
X183227Y185925D01*
X183135D01*
X183306Y186339D01*
Y186848D01*
X183112Y187318D01*
X182752Y187678D01*
X182281Y187873D01*
X182121D01*
X182317Y187954D01*
X182677Y188314D01*
X182872Y188785D01*
Y189294D01*
X182677Y189764D01*
X182317Y190124D01*
X181847Y190319D01*
D02*
G37*
G36*
X194743Y188287D02*
X194234D01*
X193763Y188093D01*
X193403Y187733D01*
X193209Y187262D01*
Y186753D01*
X193403Y186283D01*
X193763Y185923D01*
X194234Y185728D01*
X194743D01*
X195213Y185923D01*
X195573Y186283D01*
X195768Y186753D01*
Y187262D01*
X195573Y187733D01*
X195213Y188093D01*
X194743Y188287D01*
D02*
G37*
G36*
X149467Y187106D02*
X148958D01*
X148488Y186911D01*
X148128Y186552D01*
X147933Y186081D01*
Y185572D01*
X148128Y185102D01*
X148488Y184742D01*
X148958Y184547D01*
X149467D01*
X149937Y184742D01*
X150297Y185102D01*
X150492Y185572D01*
Y186081D01*
X150297Y186552D01*
X149937Y186911D01*
X149467Y187106D01*
D02*
G37*
G36*
X116003Y185516D02*
X115494D01*
X115023Y185321D01*
X114663Y184961D01*
X114469Y184491D01*
Y183982D01*
X114663Y183511D01*
X115023Y183151D01*
X115494Y182957D01*
X116003D01*
X116473Y183151D01*
X116833Y183511D01*
X117027Y183982D01*
Y184491D01*
X116833Y184961D01*
X116473Y185321D01*
X116003Y185516D01*
D02*
G37*
G36*
X153010Y185138D02*
X152501D01*
X152031Y184943D01*
X151671Y184583D01*
X151476Y184113D01*
Y183604D01*
X151671Y183133D01*
X152031Y182773D01*
X152501Y182579D01*
X153010D01*
X153481Y182773D01*
X153841Y183133D01*
X154035Y183604D01*
Y184113D01*
X153841Y184583D01*
X153481Y184943D01*
X153010Y185138D01*
D02*
G37*
G36*
X198286Y184350D02*
X197777D01*
X197307Y184156D01*
X196947Y183796D01*
X196752Y183325D01*
Y182816D01*
X196947Y182346D01*
X197307Y181986D01*
X197777Y181791D01*
X198286D01*
X198756Y181986D01*
X199116Y182346D01*
X199311Y182816D01*
Y183325D01*
X199116Y183796D01*
X198756Y184156D01*
X198286Y184350D01*
D02*
G37*
G36*
X179388Y183169D02*
X178879D01*
X178409Y182975D01*
X178049Y182615D01*
X177854Y182144D01*
Y181635D01*
X178049Y181165D01*
X178409Y180805D01*
X178879Y180610D01*
X179388D01*
X179859Y180805D01*
X180219Y181165D01*
X180413Y181635D01*
Y182144D01*
X180219Y182615D01*
X179859Y182975D01*
X179388Y183169D01*
D02*
G37*
G36*
X144644Y180668D02*
X144135D01*
X143665Y180473D01*
X143305Y180113D01*
X143110Y179643D01*
Y179134D01*
X143305Y178664D01*
X143665Y178304D01*
X144135Y178109D01*
X144644D01*
X145115Y178304D01*
X145475Y178664D01*
X145669Y179134D01*
Y179643D01*
X145475Y180113D01*
X145115Y180473D01*
X144644Y180668D01*
D02*
G37*
G36*
X139428Y200593D02*
X138919D01*
X138448Y200398D01*
X138089Y200038D01*
X137894Y199568D01*
Y199059D01*
X138089Y198589D01*
X138448Y198229D01*
X138919Y198034D01*
X139164D01*
X145939Y191259D01*
Y177670D01*
X145766Y177496D01*
X145571Y177026D01*
Y176517D01*
X145766Y176047D01*
X146126Y175687D01*
X146596Y175492D01*
X147105D01*
X147575Y175687D01*
X147935Y176047D01*
X148130Y176517D01*
Y177026D01*
X147935Y177496D01*
X147762Y177670D01*
Y191636D01*
X147692Y191985D01*
X147495Y192280D01*
X140453Y199322D01*
Y199568D01*
X140258Y200038D01*
X139898Y200398D01*
X139428Y200593D01*
D02*
G37*
G36*
X168365Y170177D02*
X167856D01*
X167385Y169982D01*
X167025Y169622D01*
X166831Y169152D01*
Y168643D01*
X167025Y168173D01*
X167385Y167813D01*
X167856Y167618D01*
X168365D01*
X168835Y167813D01*
X169195Y168173D01*
X169390Y168643D01*
Y169152D01*
X169195Y169622D01*
X168835Y169982D01*
X168365Y170177D01*
D02*
G37*
G36*
X126632Y196161D02*
X126123D01*
X125653Y195967D01*
X125293Y195607D01*
X125098Y195136D01*
Y194627D01*
X125293Y194157D01*
X125467Y193984D01*
Y189764D01*
X125536Y189415D01*
X125734Y189120D01*
X148962Y165891D01*
X149160Y165759D01*
X149258Y165694D01*
X149606Y165624D01*
X152251D01*
X152425Y165451D01*
X152895Y165256D01*
X153404D01*
X153874Y165451D01*
X154234Y165811D01*
X154429Y166281D01*
Y166790D01*
X154234Y167260D01*
X153874Y167620D01*
X153404Y167815D01*
X152895D01*
X152425Y167620D01*
X152251Y167447D01*
X149984D01*
X127289Y190141D01*
Y193984D01*
X127463Y194157D01*
X127657Y194627D01*
Y195136D01*
X127463Y195607D01*
X127103Y195967D01*
X126632Y196161D01*
D02*
G37*
G36*
X165609Y167027D02*
X165100D01*
X164629Y166833D01*
X164270Y166473D01*
X164075Y166003D01*
Y165494D01*
X164270Y165023D01*
X164629Y164663D01*
X165100Y164469D01*
X165609D01*
X166079Y164663D01*
X166439Y165023D01*
X166634Y165494D01*
Y166003D01*
X166439Y166473D01*
X166079Y166833D01*
X165609Y167027D01*
D02*
G37*
G36*
X211278Y155610D02*
X210769D01*
X210299Y155415D01*
X209939Y155055D01*
X209842Y154823D01*
X209746Y155055D01*
X209386Y155415D01*
X208916Y155610D01*
X208407D01*
X207937Y155415D01*
X207577Y155055D01*
X207480Y154823D01*
X207384Y155055D01*
X207024Y155415D01*
X206554Y155610D01*
X206045D01*
X205574Y155415D01*
X205215Y155055D01*
X205020Y154585D01*
Y154076D01*
X205215Y153606D01*
X205574Y153246D01*
X206045Y153051D01*
X206554D01*
X207024Y153246D01*
X207384Y153606D01*
X207480Y153839D01*
X207577Y153606D01*
X207937Y153246D01*
X208407Y153051D01*
X208916D01*
X209386Y153246D01*
X209746Y153606D01*
X209842Y153839D01*
X209939Y153606D01*
X210299Y153246D01*
X210769Y153051D01*
X211278D01*
X211748Y153246D01*
X212108Y153606D01*
X212303Y154076D01*
Y154585D01*
X212108Y155055D01*
X211748Y155415D01*
X211278Y155610D01*
D02*
G37*
G36*
X153404Y154823D02*
X152895D01*
X152425Y154628D01*
X152065Y154268D01*
X151870Y153798D01*
Y153289D01*
X152065Y152819D01*
X152425Y152459D01*
X152895Y152264D01*
X153404D01*
X153874Y152459D01*
X154234Y152819D01*
X154429Y153289D01*
Y153798D01*
X154234Y154268D01*
X153874Y154628D01*
X153404Y154823D01*
D02*
G37*
G36*
X151228Y149803D02*
X150347D01*
X149496Y149575D01*
X148733Y149135D01*
X148110Y148512D01*
X147669Y147748D01*
X147441Y146897D01*
Y146016D01*
X147669Y145165D01*
X148110Y144402D01*
X148733Y143779D01*
X149496Y143338D01*
X150347Y143110D01*
X151228D01*
X152079Y143338D01*
X152842Y143779D01*
X153465Y144402D01*
X153906Y145165D01*
X154134Y146016D01*
Y146897D01*
X153906Y147748D01*
X153465Y148512D01*
X152842Y149135D01*
X152079Y149575D01*
X151228Y149803D01*
D02*
G37*
G36*
X144134D02*
X137441D01*
Y143110D01*
X144134D01*
Y149803D01*
D02*
G37*
G36*
X245136Y141043D02*
X244627D01*
X244157Y140849D01*
X243797Y140489D01*
X243602Y140018D01*
Y139509D01*
X243797Y139039D01*
X244157Y138679D01*
X244627Y138484D01*
X245136D01*
X245607Y138679D01*
X245967Y139039D01*
X246161Y139509D01*
Y140018D01*
X245967Y140489D01*
X245607Y140849D01*
X245136Y141043D01*
D02*
G37*
G36*
X243227Y138583D02*
X242600D01*
X242021Y138343D01*
X241578Y137900D01*
X241339Y137321D01*
Y136695D01*
X241578Y136116D01*
X242021Y135673D01*
X242600Y135433D01*
X243227D01*
X243805Y135673D01*
X244248Y136116D01*
X244488Y136695D01*
Y137321D01*
X244248Y137900D01*
X243805Y138343D01*
X243227Y138583D01*
D02*
G37*
G36*
X409310Y190650D02*
X408801D01*
X408330Y190455D01*
X407970Y190095D01*
X407776Y189625D01*
Y189116D01*
X407970Y188645D01*
X408330Y188285D01*
X408801Y188091D01*
X409310D01*
X409780Y188285D01*
X410140Y188645D01*
X410335Y189116D01*
Y189625D01*
X410140Y190095D01*
X409780Y190455D01*
X409310Y190650D01*
D02*
G37*
G36*
X495472Y194685D02*
X488779D01*
Y187992D01*
X495472D01*
Y194685D01*
D02*
G37*
G36*
X299467Y190256D02*
X298958D01*
X298488Y190061D01*
X298128Y189701D01*
X297933Y189231D01*
Y188722D01*
X298128Y188252D01*
X298488Y187892D01*
X298958Y187697D01*
X299467D01*
X299937Y187892D01*
X300297Y188252D01*
X300492Y188722D01*
Y189231D01*
X300297Y189701D01*
X299937Y190061D01*
X299467Y190256D01*
D02*
G37*
G36*
X332341Y187697D02*
X331832D01*
X331362Y187502D01*
X331002Y187142D01*
X330807Y186672D01*
Y186163D01*
X331002Y185693D01*
X331362Y185333D01*
X331832Y185138D01*
X332341D01*
X332811Y185333D01*
X333171Y185693D01*
X333366Y186163D01*
Y186672D01*
X333171Y187142D01*
X332811Y187502D01*
X332341Y187697D01*
D02*
G37*
G36*
X419546Y185866D02*
X419037D01*
X418567Y185671D01*
X418207Y185311D01*
X418012Y184841D01*
Y184332D01*
X418207Y183862D01*
X418567Y183502D01*
X419037Y183307D01*
X419546D01*
X420016Y183502D01*
X420376Y183862D01*
X420571Y184332D01*
Y184841D01*
X420376Y185311D01*
X420016Y185671D01*
X419546Y185866D01*
D02*
G37*
G36*
X356554Y185531D02*
X356045D01*
X355574Y185337D01*
X355215Y184977D01*
X355020Y184506D01*
Y183997D01*
X355215Y183527D01*
X355574Y183167D01*
X356045Y182973D01*
X356554D01*
X357024Y183167D01*
X357384Y183527D01*
X357579Y183997D01*
Y184506D01*
X357384Y184977D01*
X357024Y185337D01*
X356554Y185531D01*
D02*
G37*
G36*
X372459Y185374D02*
X371950D01*
X371480Y185179D01*
X371120Y184819D01*
X370925Y184349D01*
Y183840D01*
X371120Y183370D01*
X371480Y183010D01*
X371950Y182815D01*
X372459D01*
X372930Y183010D01*
X373289Y183370D01*
X373484Y183840D01*
Y184349D01*
X373289Y184819D01*
X372930Y185179D01*
X372459Y185374D01*
D02*
G37*
G36*
X492567Y184685D02*
X491685D01*
X490834Y184457D01*
X490071Y184016D01*
X489448Y183393D01*
X489008Y182630D01*
X488779Y181779D01*
Y180898D01*
X489008Y180047D01*
X489448Y179284D01*
X490071Y178661D01*
X490834Y178220D01*
X491685Y177992D01*
X492567D01*
X493418Y178220D01*
X494181Y178661D01*
X494804Y179284D01*
X495244Y180047D01*
X495472Y180898D01*
Y181779D01*
X495244Y182630D01*
X494804Y183393D01*
X494181Y184016D01*
X493418Y184457D01*
X492567Y184685D01*
D02*
G37*
G36*
X377420Y180413D02*
X376911D01*
X376441Y180219D01*
X376081Y179859D01*
X375886Y179388D01*
Y178879D01*
X376081Y178409D01*
X376441Y178049D01*
X376911Y177854D01*
X377420D01*
X377890Y178049D01*
X378250Y178409D01*
X378445Y178879D01*
Y179388D01*
X378250Y179859D01*
X377890Y180219D01*
X377420Y180413D01*
D02*
G37*
G36*
X351575Y179437D02*
X351066D01*
X350595Y179242D01*
X350236Y178882D01*
X350041Y178412D01*
Y177903D01*
X350236Y177433D01*
X350595Y177073D01*
X351066Y176878D01*
X351575D01*
X352045Y177073D01*
X352405Y177433D01*
X352600Y177903D01*
Y178412D01*
X352405Y178882D01*
X352045Y179242D01*
X351575Y179437D01*
D02*
G37*
G36*
X409310Y178839D02*
X408801D01*
X408330Y178644D01*
X407970Y178284D01*
X407776Y177814D01*
Y177304D01*
X407970Y176834D01*
X408330Y176474D01*
X408801Y176279D01*
X409310D01*
X409780Y176474D01*
X410140Y176834D01*
X410335Y177304D01*
Y177814D01*
X410140Y178284D01*
X409780Y178644D01*
X409310Y178839D01*
D02*
G37*
G36*
X401829Y172146D02*
X401320D01*
X400850Y171951D01*
X400490Y171591D01*
X400295Y171121D01*
Y170612D01*
X400490Y170141D01*
X400850Y169781D01*
X401320Y169587D01*
X401829D01*
X402300Y169781D01*
X402660Y170141D01*
X402854Y170612D01*
Y171121D01*
X402660Y171591D01*
X402300Y171951D01*
X401829Y172146D01*
D02*
G37*
G36*
X268758Y164272D02*
X268249D01*
X267779Y164077D01*
X267419Y163717D01*
X267224Y163247D01*
Y162738D01*
X267419Y162267D01*
X267779Y161907D01*
X268249Y161713D01*
X268758D01*
X269229Y161907D01*
X269589Y162267D01*
X269783Y162738D01*
Y163247D01*
X269589Y163717D01*
X269229Y164077D01*
X268758Y164272D01*
D02*
G37*
G36*
X303583Y154311D02*
Y150984D01*
X306910D01*
X306661Y151913D01*
X306142Y152811D01*
X305410Y153544D01*
X304512Y154062D01*
X303583Y154311D01*
D02*
G37*
G36*
X302402Y154311D02*
X301472Y154062D01*
X300575Y153544D01*
X299842Y152811D01*
X299323Y151913D01*
X299075Y150984D01*
X302402D01*
Y154311D01*
D02*
G37*
G36*
X316339Y153740D02*
X309646D01*
Y147047D01*
X316339D01*
Y153740D01*
D02*
G37*
G36*
X306910Y149803D02*
X303583D01*
Y146476D01*
X304512Y146725D01*
X305410Y147243D01*
X306142Y147976D01*
X306661Y148874D01*
X306910Y149803D01*
D02*
G37*
G36*
X302402D02*
X299075D01*
X299323Y148874D01*
X299842Y147976D01*
X300575Y147243D01*
X301472Y146725D01*
X302402Y146476D01*
Y149803D01*
D02*
G37*
G36*
X313433Y143740D02*
X312552D01*
X311701Y143512D01*
X310937Y143071D01*
X310314Y142448D01*
X309874Y141685D01*
X309646Y140834D01*
Y139953D01*
X309874Y139102D01*
X310314Y138339D01*
X310937Y137716D01*
X311701Y137275D01*
X312552Y137047D01*
X313433D01*
X314284Y137275D01*
X315047Y137716D01*
X315670Y138339D01*
X316110Y139102D01*
X316339Y139953D01*
Y140834D01*
X316110Y141685D01*
X315670Y142448D01*
X315047Y143071D01*
X314284Y143512D01*
X313433Y143740D01*
D02*
G37*
G36*
X303433D02*
X302552D01*
X301700Y143512D01*
X300937Y143071D01*
X300314Y142448D01*
X299874Y141685D01*
X299646Y140834D01*
Y139953D01*
X299874Y139102D01*
X300314Y138339D01*
X300937Y137716D01*
X301700Y137275D01*
X302552Y137047D01*
X303433D01*
X304284Y137275D01*
X305047Y137716D01*
X305670Y138339D01*
X306111Y139102D01*
X306339Y139953D01*
Y140834D01*
X306111Y141685D01*
X305670Y142448D01*
X305047Y143071D01*
X304284Y143512D01*
X303433Y143740D01*
D02*
G37*
G36*
X429053Y125043D02*
X428427D01*
X427848Y124803D01*
X427405Y124360D01*
X427165Y123781D01*
Y123155D01*
X427405Y122576D01*
X427848Y122133D01*
X428427Y121893D01*
X429053D01*
X429632Y122133D01*
X430075Y122576D01*
X430315Y123155D01*
Y123781D01*
X430075Y124360D01*
X429632Y124803D01*
X429053Y125043D01*
D02*
G37*
G36*
X71967Y124409D02*
X71340D01*
X70762Y124170D01*
X70319Y123727D01*
X70079Y123148D01*
Y122521D01*
X70319Y121943D01*
X70762Y121500D01*
X71340Y121260D01*
X71967D01*
X72546Y121500D01*
X72989Y121943D01*
X73228Y122521D01*
Y123148D01*
X72989Y123727D01*
X72546Y124170D01*
X71967Y124409D01*
D02*
G37*
G36*
X389543Y123654D02*
X389034D01*
X388564Y123460D01*
X388204Y123100D01*
X388009Y122629D01*
Y122120D01*
X388204Y121650D01*
X388564Y121290D01*
X389034Y121095D01*
X389543D01*
X390014Y121290D01*
X390373Y121650D01*
X390568Y122120D01*
Y122629D01*
X390373Y123100D01*
X390014Y123460D01*
X389543Y123654D01*
D02*
G37*
G36*
X362066Y121752D02*
X361557D01*
X361086Y121557D01*
X360726Y121197D01*
X360531Y120727D01*
Y120218D01*
X360726Y119748D01*
X361086Y119388D01*
X361557Y119193D01*
X362066D01*
X362536Y119388D01*
X362896Y119748D01*
X363090Y120218D01*
Y120727D01*
X362896Y121197D01*
X362536Y121557D01*
X362066Y121752D01*
D02*
G37*
G36*
X192774D02*
X192265D01*
X191795Y121557D01*
X191435Y121197D01*
X191240Y120727D01*
Y120218D01*
X191435Y119748D01*
X191795Y119388D01*
X192265Y119193D01*
X192774D01*
X193245Y119388D01*
X193604Y119748D01*
X193799Y120218D01*
Y120727D01*
X193604Y121197D01*
X193245Y121557D01*
X192774Y121752D01*
D02*
G37*
G36*
X42833Y117323D02*
X42206D01*
X41628Y117083D01*
X41185Y116640D01*
X40945Y116061D01*
Y115435D01*
X41185Y114856D01*
X41628Y114413D01*
X42206Y114173D01*
X42833D01*
X43412Y114413D01*
X43855Y114856D01*
X44094Y115435D01*
Y116061D01*
X43855Y116640D01*
X43412Y117083D01*
X42833Y117323D01*
D02*
G37*
G36*
X288699Y116240D02*
X288190D01*
X287720Y116045D01*
X287360Y115685D01*
X287165Y115215D01*
Y114706D01*
X287360Y114236D01*
X287720Y113876D01*
X288190Y113681D01*
X288699D01*
X289170Y113876D01*
X289530Y114236D01*
X289724Y114706D01*
Y115215D01*
X289530Y115685D01*
X289170Y116045D01*
X288699Y116240D01*
D02*
G37*
G36*
X402223Y114272D02*
X401714D01*
X401244Y114077D01*
X400884Y113717D01*
X400689Y113247D01*
Y112738D01*
X400884Y112267D01*
X401244Y111907D01*
X401714Y111713D01*
X402223D01*
X402693Y111907D01*
X403053Y112267D01*
X403248Y112738D01*
Y113247D01*
X403053Y113717D01*
X402693Y114077D01*
X402223Y114272D01*
D02*
G37*
G36*
X469546Y113878D02*
X469037D01*
X468567Y113683D01*
X468207Y113323D01*
X468012Y112853D01*
Y112344D01*
X468207Y111874D01*
X468567Y111514D01*
X469037Y111319D01*
X469546D01*
X470016Y111514D01*
X470376Y111874D01*
X470571Y112344D01*
Y112853D01*
X470376Y113323D01*
X470016Y113683D01*
X469546Y113878D01*
D02*
G37*
G36*
X429053Y114333D02*
X428427D01*
X427848Y114093D01*
X427405Y113650D01*
X427165Y113072D01*
Y112445D01*
X427405Y111866D01*
X427848Y111423D01*
X428427Y111183D01*
X429053D01*
X429632Y111423D01*
X430075Y111866D01*
X430315Y112445D01*
Y113072D01*
X430075Y113650D01*
X429632Y114093D01*
X429053Y114333D01*
D02*
G37*
G36*
X384507Y113091D02*
X383998D01*
X383527Y112896D01*
X383167Y112536D01*
X382972Y112065D01*
Y111556D01*
X383167Y111086D01*
X383527Y110726D01*
X383998Y110531D01*
X384507D01*
X384977Y110726D01*
X385337Y111086D01*
X385531Y111556D01*
Y112065D01*
X385337Y112536D01*
X384977Y112896D01*
X384507Y113091D01*
D02*
G37*
G36*
X327814D02*
X327305D01*
X326834Y112896D01*
X326474Y112536D01*
X326279Y112065D01*
Y111556D01*
X326474Y111086D01*
X326834Y110726D01*
X327305Y110531D01*
X327814D01*
X328284Y110726D01*
X328644Y111086D01*
X328839Y111556D01*
Y112065D01*
X328644Y112536D01*
X328284Y112896D01*
X327814Y113091D01*
D02*
G37*
G36*
X307341Y112303D02*
X306832D01*
X306362Y112108D01*
X306002Y111748D01*
X305807Y111278D01*
Y110769D01*
X306002Y110299D01*
X306362Y109939D01*
X306832Y109744D01*
X307341D01*
X307811Y109939D01*
X308171Y110299D01*
X308366Y110769D01*
Y111278D01*
X308171Y111748D01*
X307811Y112108D01*
X307341Y112303D01*
D02*
G37*
G36*
X492567Y116024D02*
X491685D01*
X490834Y115796D01*
X490071Y115355D01*
X489448Y114732D01*
X489008Y113969D01*
X488779Y113118D01*
Y112237D01*
X489008Y111386D01*
X489448Y110622D01*
X490071Y109999D01*
X490834Y109559D01*
X491685Y109331D01*
X492567D01*
X493418Y109559D01*
X494181Y109999D01*
X494804Y110622D01*
X495244Y111386D01*
X495472Y112237D01*
Y113118D01*
X495244Y113969D01*
X494804Y114732D01*
X494181Y115355D01*
X493418Y115796D01*
X492567Y116024D01*
D02*
G37*
G36*
X362066Y111122D02*
X361557D01*
X361086Y110927D01*
X360726Y110567D01*
X360531Y110097D01*
Y109588D01*
X360726Y109118D01*
X361086Y108758D01*
X361557Y108563D01*
X362066D01*
X362536Y108758D01*
X362896Y109118D01*
X363090Y109588D01*
Y110097D01*
X362896Y110567D01*
X362536Y110927D01*
X362066Y111122D01*
D02*
G37*
G36*
X46770Y108661D02*
X46143D01*
X45565Y108422D01*
X45122Y107979D01*
X44882Y107400D01*
Y106773D01*
X45122Y106195D01*
X45565Y105752D01*
X46143Y105512D01*
X46770D01*
X47349Y105752D01*
X47792Y106195D01*
X48031Y106773D01*
Y107400D01*
X47792Y107979D01*
X47349Y108422D01*
X46770Y108661D01*
D02*
G37*
G36*
X379388Y107972D02*
X378879D01*
X378409Y107778D01*
X378049Y107418D01*
X377854Y106947D01*
Y106438D01*
X378049Y105968D01*
X378409Y105608D01*
X378879Y105413D01*
X379388D01*
X379859Y105608D01*
X380219Y105968D01*
X380413Y106438D01*
Y106947D01*
X380219Y107418D01*
X379859Y107778D01*
X379388Y107972D01*
D02*
G37*
G36*
X153798Y105610D02*
X153289D01*
X152819Y105415D01*
X152459Y105055D01*
X152264Y104585D01*
Y104076D01*
X152459Y103606D01*
X152819Y103246D01*
X153289Y103051D01*
X153798D01*
X154268Y103246D01*
X154628Y103606D01*
X154823Y104076D01*
Y104585D01*
X154628Y105055D01*
X154268Y105415D01*
X153798Y105610D01*
D02*
G37*
G36*
X327814Y105217D02*
X327305D01*
X326834Y105022D01*
X326474Y104662D01*
X326279Y104192D01*
Y103682D01*
X326474Y103212D01*
X326834Y102852D01*
X327305Y102657D01*
X327814D01*
X328284Y102852D01*
X328644Y103212D01*
X328839Y103682D01*
Y104192D01*
X328644Y104662D01*
X328284Y105022D01*
X327814Y105217D01*
D02*
G37*
G36*
X389570Y103714D02*
X389061D01*
X388591Y103519D01*
X388231Y103159D01*
X388036Y102689D01*
Y102180D01*
X388231Y101709D01*
X388591Y101349D01*
X389061Y101154D01*
X389570D01*
X390041Y101349D01*
X390401Y101709D01*
X390595Y102180D01*
Y102689D01*
X390401Y103159D01*
X390041Y103519D01*
X389570Y103714D01*
D02*
G37*
G36*
X429053Y103623D02*
X428427D01*
X427848Y103384D01*
X427405Y102940D01*
X427165Y102362D01*
Y101735D01*
X427405Y101156D01*
X427848Y100713D01*
X428427Y100474D01*
X429053D01*
X429632Y100713D01*
X430075Y101156D01*
X430315Y101735D01*
Y102362D01*
X430075Y102940D01*
X429632Y103384D01*
X429053Y103623D01*
D02*
G37*
G36*
X288699Y102461D02*
X288190D01*
X287720Y102266D01*
X287360Y101906D01*
X287165Y101436D01*
Y100927D01*
X287360Y100456D01*
X287720Y100096D01*
X288190Y99902D01*
X288699D01*
X289170Y100096D01*
X289530Y100456D01*
X289724Y100927D01*
Y101436D01*
X289530Y101906D01*
X289170Y102266D01*
X288699Y102461D01*
D02*
G37*
G36*
X492567Y106024D02*
X491685D01*
X490834Y105796D01*
X490071Y105355D01*
X489448Y104732D01*
X489008Y103969D01*
X488779Y103118D01*
Y102237D01*
X489008Y101385D01*
X489448Y100622D01*
X490071Y99999D01*
X490834Y99559D01*
X491685Y99331D01*
X492567D01*
X493418Y99559D01*
X494181Y99999D01*
X494804Y100622D01*
X495244Y101385D01*
X495472Y102237D01*
Y103118D01*
X495244Y103969D01*
X494804Y104732D01*
X494181Y105355D01*
X493418Y105796D01*
X492567Y106024D01*
D02*
G37*
G36*
X362066Y100098D02*
X361557D01*
X361086Y99904D01*
X360726Y99544D01*
X360531Y99073D01*
Y98564D01*
X360726Y98094D01*
X361086Y97734D01*
X361557Y97539D01*
X362066D01*
X362536Y97734D01*
X362896Y98094D01*
X363090Y98564D01*
Y99073D01*
X362896Y99544D01*
X362536Y99904D01*
X362066Y100098D01*
D02*
G37*
G36*
X141361Y95848D02*
X140852D01*
X140381Y95654D01*
X140022Y95294D01*
X139827Y94823D01*
Y94314D01*
X140022Y93844D01*
X140381Y93484D01*
X140852Y93289D01*
X141361D01*
X141831Y93484D01*
X142191Y93844D01*
X142386Y94314D01*
Y94823D01*
X142191Y95294D01*
X141831Y95654D01*
X141361Y95848D01*
D02*
G37*
G36*
X188551Y95502D02*
X188042D01*
X187572Y95307D01*
X187212Y94947D01*
X187017Y94477D01*
Y93968D01*
X187212Y93498D01*
X187572Y93138D01*
X188042Y92943D01*
X188551D01*
X189022Y93138D01*
X189381Y93498D01*
X189576Y93968D01*
Y94477D01*
X189381Y94947D01*
X189022Y95307D01*
X188551Y95502D01*
D02*
G37*
G36*
X402175Y94004D02*
X401666D01*
X401196Y93809D01*
X400836Y93449D01*
X400641Y92979D01*
Y92470D01*
X400836Y91999D01*
X401196Y91640D01*
X401666Y91445D01*
X402175D01*
X402645Y91640D01*
X403006Y91999D01*
X403200Y92470D01*
Y92979D01*
X403006Y93449D01*
X402645Y93809D01*
X402175Y94004D01*
D02*
G37*
G36*
X304641Y93338D02*
X304132D01*
X303661Y93143D01*
X303301Y92783D01*
X303107Y92313D01*
Y91803D01*
X303301Y91333D01*
X303661Y90973D01*
X304132Y90778D01*
X304641D01*
X305111Y90973D01*
X305471Y91333D01*
X305666Y91803D01*
Y92313D01*
X305471Y92783D01*
X305111Y93143D01*
X304641Y93338D01*
D02*
G37*
G36*
X384507Y93012D02*
X383998D01*
X383527Y92817D01*
X383167Y92457D01*
X382972Y91987D01*
Y91478D01*
X383167Y91008D01*
X383527Y90648D01*
X383998Y90453D01*
X384507D01*
X384977Y90648D01*
X385337Y91008D01*
X385531Y91478D01*
Y91987D01*
X385337Y92457D01*
X384977Y92817D01*
X384507Y93012D01*
D02*
G37*
G36*
X138837Y92618D02*
X138328D01*
X137858Y92423D01*
X137498Y92063D01*
X137303Y91593D01*
Y91084D01*
X137498Y90614D01*
X137858Y90254D01*
X138328Y90059D01*
X138837D01*
X139307Y90254D01*
X139667Y90614D01*
X139862Y91084D01*
Y91593D01*
X139667Y92063D01*
X139307Y92423D01*
X138837Y92618D01*
D02*
G37*
G36*
X311502Y92618D02*
X310993D01*
X310522Y92423D01*
X310162Y92063D01*
X309967Y91593D01*
Y91084D01*
X310162Y90614D01*
X310522Y90254D01*
X310993Y90059D01*
X311502D01*
X311972Y90254D01*
X312332Y90614D01*
X312527Y91084D01*
Y91593D01*
X312332Y92063D01*
X311972Y92423D01*
X311502Y92618D01*
D02*
G37*
G36*
X429053Y92913D02*
X428427D01*
X427848Y92674D01*
X427405Y92231D01*
X427165Y91652D01*
Y91025D01*
X427405Y90447D01*
X427848Y90004D01*
X428427Y89764D01*
X429053D01*
X429632Y90004D01*
X430075Y90447D01*
X430315Y91025D01*
Y91652D01*
X430075Y92231D01*
X429632Y92674D01*
X429053Y92913D01*
D02*
G37*
G36*
X492567Y96024D02*
X491685D01*
X490834Y95796D01*
X490071Y95355D01*
X489448Y94732D01*
X489008Y93969D01*
X488779Y93118D01*
Y92237D01*
X489008Y91386D01*
X489448Y90622D01*
X490071Y89999D01*
X490834Y89559D01*
X491685Y89331D01*
X492567D01*
X493418Y89559D01*
X494181Y89999D01*
X494804Y90622D01*
X495244Y91386D01*
X495472Y92237D01*
Y93118D01*
X495244Y93969D01*
X494804Y94732D01*
X494181Y95355D01*
X493418Y95796D01*
X492567Y96024D01*
D02*
G37*
G36*
X67242Y91339D02*
X66616D01*
X66037Y91099D01*
X65594Y90656D01*
X65354Y90077D01*
Y89451D01*
X65594Y88872D01*
X66037Y88429D01*
X66616Y88189D01*
X67242D01*
X67821Y88429D01*
X68264Y88872D01*
X68504Y89451D01*
Y90077D01*
X68264Y90656D01*
X67821Y91099D01*
X67242Y91339D01*
D02*
G37*
G36*
X167971Y90650D02*
X167462D01*
X166992Y90455D01*
X166632Y90095D01*
X166437Y89625D01*
Y89116D01*
X166632Y88645D01*
X166992Y88285D01*
X167462Y88091D01*
X167971D01*
X168441Y88285D01*
X168801Y88645D01*
X168996Y89116D01*
Y89625D01*
X168801Y90095D01*
X168441Y90455D01*
X167971Y90650D01*
D02*
G37*
G36*
X153575Y90389D02*
X153066D01*
X152595Y90194D01*
X152235Y89834D01*
X152041Y89364D01*
Y88855D01*
X152235Y88384D01*
X152595Y88024D01*
X153066Y87830D01*
X153575D01*
X154045Y88024D01*
X154405Y88384D01*
X154600Y88855D01*
Y89364D01*
X154405Y89834D01*
X154045Y90194D01*
X153575Y90389D01*
D02*
G37*
G36*
X150036Y89881D02*
X149527D01*
X149056Y89686D01*
X148696Y89326D01*
X148502Y88856D01*
Y88347D01*
X148696Y87877D01*
X149056Y87517D01*
X149527Y87322D01*
X150036D01*
X150506Y87517D01*
X150866Y87877D01*
X151061Y88347D01*
Y88856D01*
X150866Y89326D01*
X150506Y89686D01*
X150036Y89881D01*
D02*
G37*
G36*
X362066Y89468D02*
X361557D01*
X361086Y89274D01*
X360726Y88914D01*
X360531Y88443D01*
Y87934D01*
X360726Y87464D01*
X361086Y87104D01*
X361557Y86910D01*
X362066D01*
X362536Y87104D01*
X362896Y87464D01*
X363090Y87934D01*
Y88443D01*
X362896Y88914D01*
X362536Y89274D01*
X362066Y89468D01*
D02*
G37*
G36*
X158522Y89075D02*
X158013D01*
X157543Y88880D01*
X157183Y88520D01*
X156988Y88050D01*
Y87541D01*
X157183Y87071D01*
X157543Y86711D01*
X158013Y86516D01*
X158522D01*
X158993Y86711D01*
X159352Y87071D01*
X159547Y87541D01*
Y88050D01*
X159352Y88520D01*
X158993Y88880D01*
X158522Y89075D01*
D02*
G37*
G36*
X134113Y84350D02*
X133604D01*
X133133Y84156D01*
X132773Y83796D01*
X132579Y83325D01*
Y82816D01*
X132773Y82346D01*
X133133Y81986D01*
X133604Y81791D01*
X134113D01*
X134583Y81986D01*
X134943Y82346D01*
X135138Y82816D01*
Y83325D01*
X134943Y83796D01*
X134583Y84156D01*
X134113Y84350D01*
D02*
G37*
G36*
X143266Y83702D02*
X142757D01*
X142287Y83507D01*
X141927Y83148D01*
X141732Y82677D01*
Y82168D01*
X141927Y81698D01*
X142287Y81338D01*
X142757Y81143D01*
X143266D01*
X143737Y81338D01*
X144097Y81698D01*
X144291Y82168D01*
Y82677D01*
X144097Y83148D01*
X143737Y83507D01*
X143266Y83702D01*
D02*
G37*
G36*
X90354Y83996D02*
Y80669D01*
X93681D01*
X93432Y81598D01*
X92914Y82496D01*
X92181Y83229D01*
X91283Y83747D01*
X90354Y83996D01*
D02*
G37*
G36*
X89173D02*
X88244Y83747D01*
X87346Y83229D01*
X86613Y82496D01*
X86095Y81598D01*
X85846Y80669D01*
X89173D01*
Y83996D01*
D02*
G37*
G36*
X45983Y82677D02*
X45356D01*
X44777Y82437D01*
X44334Y81994D01*
X44094Y81416D01*
Y80789D01*
X44334Y80210D01*
X44777Y79767D01*
X45356Y79528D01*
X45983D01*
X46561Y79767D01*
X47004Y80210D01*
X47244Y80789D01*
Y81416D01*
X47004Y81994D01*
X46561Y82437D01*
X45983Y82677D01*
D02*
G37*
G36*
X234299Y84606D02*
X233418D01*
X232567Y84378D01*
X231803Y83938D01*
X231180Y83315D01*
X230740Y82551D01*
X230512Y81700D01*
Y80819D01*
X230740Y79968D01*
X231180Y79205D01*
X231803Y78582D01*
X232567Y78141D01*
X233418Y77913D01*
X234299D01*
X235150Y78141D01*
X235913Y78582D01*
X236536Y79205D01*
X236977Y79968D01*
X237205Y80819D01*
Y81700D01*
X236977Y82551D01*
X236536Y83315D01*
X235913Y83938D01*
X235150Y84378D01*
X234299Y84606D01*
D02*
G37*
G36*
X132442Y80116D02*
X131933D01*
X131462Y79921D01*
X131102Y79561D01*
X130908Y79091D01*
Y78582D01*
X131102Y78112D01*
X131462Y77752D01*
X131933Y77557D01*
X132442D01*
X132912Y77752D01*
X133272Y78112D01*
X133467Y78582D01*
Y79091D01*
X133272Y79561D01*
X132912Y79921D01*
X132442Y80116D01*
D02*
G37*
G36*
X103110Y83425D02*
X96417D01*
Y76732D01*
X103110D01*
Y83425D01*
D02*
G37*
G36*
X93681Y79488D02*
X90354D01*
Y76161D01*
X91283Y76410D01*
X92181Y76928D01*
X92914Y77661D01*
X93432Y78559D01*
X93681Y79488D01*
D02*
G37*
G36*
X89173D02*
X85846D01*
X86095Y78559D01*
X86613Y77661D01*
X87346Y76928D01*
X88244Y76410D01*
X89173Y76161D01*
Y79488D01*
D02*
G37*
G36*
X130963Y75689D02*
X130454D01*
X129984Y75494D01*
X129624Y75134D01*
X129429Y74664D01*
Y74155D01*
X129624Y73685D01*
X129984Y73325D01*
X130454Y73130D01*
X130963D01*
X131433Y73325D01*
X131793Y73685D01*
X131988Y74155D01*
Y74664D01*
X131793Y75134D01*
X131433Y75494D01*
X130963Y75689D01*
D02*
G37*
G36*
X237205Y74606D02*
X230512D01*
Y67913D01*
X237205D01*
Y74606D01*
D02*
G37*
G36*
X125254Y69587D02*
X124746D01*
X124275Y69392D01*
X123915Y69032D01*
X123721Y68562D01*
Y68053D01*
X123915Y67582D01*
X124275Y67222D01*
X124746Y67028D01*
X125254D01*
X125725Y67222D01*
X126085Y67582D01*
X126279Y68053D01*
Y68562D01*
X126085Y69032D01*
X125725Y69392D01*
X125254Y69587D01*
D02*
G37*
G36*
X100204Y73425D02*
X99323D01*
X98472Y73197D01*
X97709Y72757D01*
X97086Y72133D01*
X96645Y71370D01*
X96417Y70519D01*
Y69638D01*
X96645Y68787D01*
X97086Y68024D01*
X97709Y67401D01*
X98472Y66960D01*
X99323Y66732D01*
X100204D01*
X101056Y66960D01*
X101819Y67401D01*
X102442Y68024D01*
X102882Y68787D01*
X103110Y69638D01*
Y70519D01*
X102882Y71370D01*
X102442Y72133D01*
X101819Y72757D01*
X101056Y73197D01*
X100204Y73425D01*
D02*
G37*
G36*
X90204D02*
X89323D01*
X88472Y73197D01*
X87709Y72757D01*
X87086Y72133D01*
X86645Y71370D01*
X86417Y70519D01*
Y69638D01*
X86645Y68787D01*
X87086Y68024D01*
X87709Y67401D01*
X88472Y66960D01*
X89323Y66732D01*
X90204D01*
X91056Y66960D01*
X91819Y67401D01*
X92442Y68024D01*
X92882Y68787D01*
X93110Y69638D01*
Y70519D01*
X92882Y71370D01*
X92442Y72133D01*
X91819Y72757D01*
X91056Y73197D01*
X90204Y73425D01*
D02*
G37*
G36*
X180067Y67421D02*
X179558D01*
X179088Y67226D01*
X178728Y66866D01*
X178533Y66396D01*
Y65887D01*
X178728Y65417D01*
X179088Y65057D01*
X179558Y64862D01*
X180067D01*
X180538Y65057D01*
X180898Y65417D01*
X181092Y65887D01*
Y66396D01*
X180898Y66866D01*
X180538Y67226D01*
X180067Y67421D01*
D02*
G37*
G36*
X181847Y60397D02*
X181338D01*
X180868Y60202D01*
X180508Y59842D01*
X180313Y59372D01*
Y58863D01*
X180508Y58393D01*
X180868Y58033D01*
X180976Y57988D01*
X181069Y57524D01*
X180942Y57397D01*
X180747Y56927D01*
Y56817D01*
X161161D01*
X161092Y56886D01*
Y56927D01*
X160897Y57397D01*
X160537Y57757D01*
X160067Y57952D01*
X159558D01*
X159087Y57757D01*
X158727Y57397D01*
X158533Y56927D01*
Y56418D01*
X158727Y55947D01*
X158913Y55762D01*
X159029Y55475D01*
X158912Y55248D01*
X158701Y55037D01*
X158507Y54567D01*
Y54058D01*
X158701Y53588D01*
X159061Y53228D01*
X159532Y53033D01*
X160041D01*
X160511Y53228D01*
X160723Y53440D01*
X178314D01*
X178401Y53085D01*
X178402Y53047D01*
X178049Y52693D01*
X177854Y52223D01*
Y51714D01*
X178049Y51244D01*
X178409Y50884D01*
X178879Y50689D01*
X179388D01*
X179859Y50884D01*
X180219Y51244D01*
X180413Y51714D01*
Y52223D01*
X180219Y52693D01*
X179865Y53047D01*
X179866Y53085D01*
X179953Y53440D01*
X182391D01*
X182619Y53486D01*
X182718Y53445D01*
X183227D01*
X183697Y53640D01*
X184057Y54000D01*
X184252Y54470D01*
Y54979D01*
X184057Y55449D01*
X183697Y55809D01*
X183512Y55886D01*
X183285Y56368D01*
X183306Y56418D01*
Y56927D01*
X183112Y57397D01*
X182752Y57757D01*
X182643Y57802D01*
X182551Y58266D01*
X182677Y58393D01*
X182872Y58863D01*
Y59372D01*
X182677Y59842D01*
X182317Y60202D01*
X181847Y60397D01*
D02*
G37*
G36*
X194743Y58366D02*
X194234D01*
X193763Y58171D01*
X193403Y57811D01*
X193209Y57341D01*
Y56832D01*
X193403Y56362D01*
X193763Y56002D01*
X194234Y55807D01*
X194743D01*
X195213Y56002D01*
X195573Y56362D01*
X195768Y56832D01*
Y57341D01*
X195573Y57811D01*
X195213Y58171D01*
X194743Y58366D01*
D02*
G37*
G36*
X139428Y70672D02*
X138919D01*
X138448Y70477D01*
X138089Y70117D01*
X137894Y69647D01*
Y69138D01*
X138089Y68667D01*
X138448Y68307D01*
X138919Y68113D01*
X139164D01*
X145939Y61338D01*
Y50099D01*
X145545Y50020D01*
X145475Y50192D01*
X145115Y50552D01*
X144644Y50747D01*
X144135D01*
X143665Y50552D01*
X143305Y50192D01*
X143110Y49722D01*
Y49213D01*
X143305Y48742D01*
X143665Y48382D01*
X144135Y48188D01*
X144644D01*
X145115Y48382D01*
X145475Y48742D01*
X145545Y48914D01*
X145939Y48835D01*
Y47749D01*
X145766Y47575D01*
X145571Y47105D01*
Y46596D01*
X145766Y46126D01*
X146126Y45766D01*
X146596Y45571D01*
X147105D01*
X147575Y45766D01*
X147935Y46126D01*
X148130Y46596D01*
Y47105D01*
X147935Y47575D01*
X147762Y47749D01*
Y55036D01*
X148026Y55141D01*
X148155Y55153D01*
X148488Y54821D01*
X148958Y54626D01*
X149467D01*
X149937Y54821D01*
X150297Y55181D01*
X150492Y55651D01*
Y56160D01*
X150297Y56630D01*
X149937Y56990D01*
X149467Y57185D01*
X148958D01*
X148488Y56990D01*
X148155Y56658D01*
X148026Y56670D01*
X147762Y56775D01*
Y61715D01*
X147692Y62064D01*
X147495Y62359D01*
X140453Y69401D01*
Y69647D01*
X140258Y70117D01*
X139898Y70477D01*
X139428Y70672D01*
D02*
G37*
G36*
X116003Y55594D02*
X115494D01*
X115023Y55400D01*
X114663Y55040D01*
X114469Y54570D01*
Y54060D01*
X114663Y53590D01*
X115023Y53230D01*
X115494Y53035D01*
X116003D01*
X116473Y53230D01*
X116833Y53590D01*
X117027Y54060D01*
Y54570D01*
X116833Y55040D01*
X116473Y55400D01*
X116003Y55594D01*
D02*
G37*
G36*
X153010Y55216D02*
X152501D01*
X152031Y55022D01*
X151671Y54662D01*
X151476Y54191D01*
Y53683D01*
X151671Y53212D01*
X152031Y52852D01*
X152501Y52658D01*
X153010D01*
X153481Y52852D01*
X153841Y53212D01*
X154035Y53683D01*
Y54191D01*
X153841Y54662D01*
X153481Y55022D01*
X153010Y55216D01*
D02*
G37*
G36*
X198286Y54429D02*
X197777D01*
X197307Y54234D01*
X196947Y53874D01*
X196752Y53404D01*
Y52895D01*
X196947Y52425D01*
X197307Y52065D01*
X197777Y51870D01*
X198286D01*
X198756Y52065D01*
X199116Y52425D01*
X199311Y52895D01*
Y53404D01*
X199116Y53874D01*
X198756Y54234D01*
X198286Y54429D01*
D02*
G37*
G36*
X168365Y40256D02*
X167856D01*
X167385Y40061D01*
X167025Y39701D01*
X166831Y39231D01*
Y38722D01*
X167025Y38252D01*
X167385Y37892D01*
X167856Y37697D01*
X168365D01*
X168835Y37892D01*
X169195Y38252D01*
X169390Y38722D01*
Y39231D01*
X169195Y39701D01*
X168835Y40061D01*
X168365Y40256D01*
D02*
G37*
G36*
X126632Y66240D02*
X126123D01*
X125653Y66045D01*
X125293Y65685D01*
X125098Y65215D01*
Y64706D01*
X125293Y64236D01*
X125467Y64062D01*
Y59842D01*
X125536Y59494D01*
X125734Y59198D01*
X148962Y35970D01*
X149258Y35772D01*
X149606Y35703D01*
X152251D01*
X152425Y35529D01*
X152895Y35335D01*
X153404D01*
X153874Y35529D01*
X154234Y35889D01*
X154429Y36360D01*
Y36869D01*
X154234Y37339D01*
X153874Y37699D01*
X153404Y37894D01*
X152895D01*
X152425Y37699D01*
X152251Y37525D01*
X149984D01*
X127289Y60220D01*
Y64062D01*
X127463Y64236D01*
X127657Y64706D01*
Y65215D01*
X127463Y65685D01*
X127103Y66045D01*
X126632Y66240D01*
D02*
G37*
G36*
X165609Y37106D02*
X165100D01*
X164629Y36911D01*
X164270Y36552D01*
X164075Y36081D01*
Y35572D01*
X164270Y35102D01*
X164629Y34742D01*
X165100Y34547D01*
X165609D01*
X166079Y34742D01*
X166439Y35102D01*
X166634Y35572D01*
Y36081D01*
X166439Y36552D01*
X166079Y36911D01*
X165609Y37106D01*
D02*
G37*
G36*
X211278Y25689D02*
X210769D01*
X210299Y25494D01*
X210100Y25295D01*
X209842Y25178D01*
X209585Y25295D01*
X209386Y25494D01*
X208916Y25689D01*
X208407D01*
X207937Y25494D01*
X207737Y25295D01*
X207480Y25178D01*
X207223Y25295D01*
X207024Y25494D01*
X206554Y25689D01*
X206045D01*
X205574Y25494D01*
X205215Y25134D01*
X205020Y24664D01*
Y24155D01*
X205215Y23685D01*
X205574Y23325D01*
X206045Y23130D01*
X206554D01*
X207024Y23325D01*
X207223Y23524D01*
X207480Y23641D01*
X207737Y23524D01*
X207937Y23325D01*
X208407Y23130D01*
X208916D01*
X209386Y23325D01*
X209585Y23524D01*
X209842Y23641D01*
X210100Y23524D01*
X210299Y23325D01*
X210769Y23130D01*
X211278D01*
X211748Y23325D01*
X212108Y23685D01*
X212303Y24155D01*
Y24664D01*
X212108Y25134D01*
X211748Y25494D01*
X211278Y25689D01*
D02*
G37*
G36*
X153404Y24902D02*
X152895D01*
X152425Y24707D01*
X152065Y24347D01*
X151870Y23877D01*
Y23368D01*
X152065Y22897D01*
X152425Y22537D01*
X152895Y22343D01*
X153404D01*
X153874Y22537D01*
X154234Y22897D01*
X154429Y23368D01*
Y23877D01*
X154234Y24347D01*
X153874Y24707D01*
X153404Y24902D01*
D02*
G37*
G36*
X217971Y21752D02*
X217462D01*
X216992Y21557D01*
X216632Y21197D01*
X216437Y20727D01*
Y20218D01*
X216632Y19748D01*
X216992Y19388D01*
X217462Y19193D01*
X217971D01*
X218441Y19388D01*
X218801Y19748D01*
X218996Y20218D01*
Y20727D01*
X218801Y21197D01*
X218441Y21557D01*
X217971Y21752D01*
D02*
G37*
G36*
X151228Y19882D02*
X150347D01*
X149496Y19654D01*
X148733Y19213D01*
X148110Y18590D01*
X147669Y17827D01*
X147441Y16976D01*
Y16095D01*
X147669Y15244D01*
X148110Y14481D01*
X148733Y13858D01*
X149496Y13417D01*
X150347Y13189D01*
X151228D01*
X152079Y13417D01*
X152842Y13858D01*
X153465Y14481D01*
X153906Y15244D01*
X154134Y16095D01*
Y16976D01*
X153906Y17827D01*
X153465Y18590D01*
X152842Y19213D01*
X152079Y19654D01*
X151228Y19882D01*
D02*
G37*
G36*
X144134D02*
X137441D01*
Y13189D01*
X144134D01*
Y19882D01*
D02*
G37*
G36*
X245136Y11122D02*
X244627D01*
X244157Y10927D01*
X243797Y10567D01*
X243602Y10097D01*
Y9588D01*
X243797Y9118D01*
X244157Y8758D01*
X244627Y8563D01*
X245136D01*
X245607Y8758D01*
X245967Y9118D01*
X246161Y9588D01*
Y10097D01*
X245967Y10567D01*
X245607Y10927D01*
X245136Y11122D01*
D02*
G37*
G36*
X242833Y9055D02*
X242206D01*
X241628Y8815D01*
X241185Y8372D01*
X240945Y7794D01*
Y7167D01*
X241185Y6588D01*
X241628Y6145D01*
X242206Y5906D01*
X242833D01*
X243412Y6145D01*
X243855Y6588D01*
X244094Y7167D01*
Y7794D01*
X243855Y8372D01*
X243412Y8815D01*
X242833Y9055D01*
D02*
G37*
G36*
X409310Y60728D02*
X408801D01*
X408330Y60534D01*
X407970Y60174D01*
X407776Y59703D01*
Y59194D01*
X407970Y58724D01*
X408330Y58364D01*
X408801Y58169D01*
X409310D01*
X409780Y58364D01*
X410140Y58724D01*
X410335Y59194D01*
Y59703D01*
X410140Y60174D01*
X409780Y60534D01*
X409310Y60728D01*
D02*
G37*
G36*
X495472Y64764D02*
X488779D01*
Y58071D01*
X495472D01*
Y64764D01*
D02*
G37*
G36*
X299467Y60335D02*
X298958D01*
X298488Y60140D01*
X298128Y59780D01*
X297933Y59310D01*
Y58801D01*
X298128Y58330D01*
X298488Y57970D01*
X298958Y57776D01*
X299467D01*
X299937Y57970D01*
X300297Y58330D01*
X300492Y58801D01*
Y59310D01*
X300297Y59780D01*
X299937Y60140D01*
X299467Y60335D01*
D02*
G37*
G36*
X332341Y57776D02*
X331832D01*
X331362Y57581D01*
X331002Y57221D01*
X330807Y56751D01*
Y56242D01*
X331002Y55771D01*
X331362Y55411D01*
X331832Y55216D01*
X332341D01*
X332811Y55411D01*
X333171Y55771D01*
X333366Y56242D01*
Y56751D01*
X333171Y57221D01*
X332811Y57581D01*
X332341Y57776D01*
D02*
G37*
G36*
X419546Y55945D02*
X419037D01*
X418567Y55750D01*
X418207Y55390D01*
X418012Y54920D01*
Y54411D01*
X418207Y53940D01*
X418567Y53581D01*
X419037Y53386D01*
X419546D01*
X420016Y53581D01*
X420376Y53940D01*
X420571Y54411D01*
Y54920D01*
X420376Y55390D01*
X420016Y55750D01*
X419546Y55945D01*
D02*
G37*
G36*
X356554Y55610D02*
X356045D01*
X355574Y55415D01*
X355215Y55055D01*
X355020Y54585D01*
Y54076D01*
X355215Y53606D01*
X355574Y53246D01*
X356045Y53051D01*
X356554D01*
X357024Y53246D01*
X357384Y53606D01*
X357579Y54076D01*
Y54585D01*
X357384Y55055D01*
X357024Y55415D01*
X356554Y55610D01*
D02*
G37*
G36*
X372459Y55453D02*
X371950D01*
X371480Y55258D01*
X371120Y54898D01*
X370925Y54428D01*
Y53919D01*
X371120Y53448D01*
X371480Y53088D01*
X371950Y52894D01*
X372459D01*
X372930Y53088D01*
X373289Y53448D01*
X373484Y53919D01*
Y54428D01*
X373289Y54898D01*
X372930Y55258D01*
X372459Y55453D01*
D02*
G37*
G36*
X492567Y54764D02*
X491685D01*
X490834Y54536D01*
X490071Y54095D01*
X489448Y53472D01*
X489008Y52709D01*
X488779Y51858D01*
Y50977D01*
X489008Y50126D01*
X489448Y49362D01*
X490071Y48739D01*
X490834Y48299D01*
X491685Y48071D01*
X492567D01*
X493418Y48299D01*
X494181Y48739D01*
X494804Y49362D01*
X495244Y50126D01*
X495472Y50977D01*
Y51858D01*
X495244Y52709D01*
X494804Y53472D01*
X494181Y54095D01*
X493418Y54536D01*
X492567Y54764D01*
D02*
G37*
G36*
X377420Y50492D02*
X376911D01*
X376441Y50297D01*
X376081Y49937D01*
X375886Y49467D01*
Y48958D01*
X376081Y48488D01*
X376441Y48128D01*
X376911Y47933D01*
X377420D01*
X377890Y48128D01*
X378250Y48488D01*
X378445Y48958D01*
Y49467D01*
X378250Y49937D01*
X377890Y50297D01*
X377420Y50492D01*
D02*
G37*
G36*
X351575Y49516D02*
X351066D01*
X350595Y49321D01*
X350236Y48961D01*
X350041Y48491D01*
Y47982D01*
X350236Y47511D01*
X350595Y47151D01*
X351066Y46957D01*
X351575D01*
X352045Y47151D01*
X352405Y47511D01*
X352600Y47982D01*
Y48491D01*
X352405Y48961D01*
X352045Y49321D01*
X351575Y49516D01*
D02*
G37*
G36*
X409310Y48917D02*
X408801D01*
X408330Y48722D01*
X407970Y48363D01*
X407776Y47892D01*
Y47383D01*
X407970Y46913D01*
X408330Y46553D01*
X408801Y46358D01*
X409310D01*
X409780Y46553D01*
X410140Y46913D01*
X410335Y47383D01*
Y47892D01*
X410140Y48363D01*
X409780Y48722D01*
X409310Y48917D01*
D02*
G37*
G36*
X401829Y42224D02*
X401320D01*
X400850Y42030D01*
X400490Y41670D01*
X400295Y41199D01*
Y40690D01*
X400490Y40220D01*
X400850Y39860D01*
X401320Y39665D01*
X401829D01*
X402300Y39860D01*
X402660Y40220D01*
X402854Y40690D01*
Y41199D01*
X402660Y41670D01*
X402300Y42030D01*
X401829Y42224D01*
D02*
G37*
G36*
X268758Y34350D02*
X268249D01*
X267779Y34156D01*
X267419Y33796D01*
X267224Y33325D01*
Y32816D01*
X267419Y32346D01*
X267779Y31986D01*
X268249Y31791D01*
X268758D01*
X269229Y31986D01*
X269589Y32346D01*
X269783Y32816D01*
Y33325D01*
X269589Y33796D01*
X269229Y34156D01*
X268758Y34350D01*
D02*
G37*
G36*
X303583Y24390D02*
Y21063D01*
X306910D01*
X306661Y21992D01*
X306142Y22890D01*
X305410Y23623D01*
X304512Y24141D01*
X303583Y24390D01*
D02*
G37*
G36*
X302402Y24390D02*
X301472Y24141D01*
X300575Y23623D01*
X299842Y22890D01*
X299323Y21992D01*
X299075Y21063D01*
X302402D01*
Y24390D01*
D02*
G37*
G36*
X316339Y23819D02*
X309646D01*
Y17126D01*
X316339D01*
Y23819D01*
D02*
G37*
G36*
X306910Y19882D02*
X303583D01*
Y16555D01*
X304512Y16804D01*
X305410Y17322D01*
X306142Y18055D01*
X306661Y18953D01*
X306910Y19882D01*
D02*
G37*
G36*
X302402D02*
X299075D01*
X299323Y18953D01*
X299842Y18055D01*
X300575Y17322D01*
X301472Y16804D01*
X302402Y16555D01*
Y19882D01*
D02*
G37*
G36*
X313433Y13819D02*
X312552D01*
X311701Y13591D01*
X310937Y13150D01*
X310314Y12527D01*
X309874Y11764D01*
X309646Y10913D01*
Y10032D01*
X309874Y9181D01*
X310314Y8418D01*
X310937Y7795D01*
X311701Y7354D01*
X312552Y7126D01*
X313433D01*
X314284Y7354D01*
X315047Y7795D01*
X315670Y8418D01*
X316110Y9181D01*
X316339Y10032D01*
Y10913D01*
X316110Y11764D01*
X315670Y12527D01*
X315047Y13150D01*
X314284Y13591D01*
X313433Y13819D01*
D02*
G37*
G36*
X303433D02*
X302552D01*
X301700Y13591D01*
X300937Y13150D01*
X300314Y12527D01*
X299874Y11764D01*
X299646Y10913D01*
Y10032D01*
X299874Y9181D01*
X300314Y8418D01*
X300937Y7795D01*
X301700Y7354D01*
X302552Y7126D01*
X303433D01*
X304284Y7354D01*
X305047Y7795D01*
X305670Y8418D01*
X306111Y9181D01*
X306339Y10032D01*
Y10913D01*
X306111Y11764D01*
X305670Y12527D01*
X305047Y13150D01*
X304284Y13591D01*
X303433Y13819D01*
D02*
G37*
%LPD*%
D17*
X126378Y59842D02*
Y64961D01*
X146850Y306693D02*
Y321557D01*
X181938Y56672D02*
X182027D01*
X159812Y56672D02*
X160017D01*
X181172Y55905D02*
X181938Y56672D01*
X160784Y55905D02*
X181172D01*
X160017Y56672D02*
X160784Y55905D01*
X182391Y54351D02*
X182764Y54724D01*
X182972D01*
X159825Y54351D02*
X182391D01*
X159786Y54312D02*
X159825Y54351D01*
X149606Y36614D02*
X153150D01*
X126378Y59842D02*
X149606Y36614D01*
X146850Y46850D02*
Y61715D01*
X139173Y69392D02*
X146850Y61715D01*
X181938Y316515D02*
X182027D01*
X159812Y316515D02*
X160017D01*
X181172Y315748D02*
X181938Y316515D01*
X160784Y315748D02*
X181172D01*
X160017Y316515D02*
X160784Y315748D01*
X182391Y314194D02*
X182764Y314567D01*
X182972D01*
X159825Y314194D02*
X182391D01*
X159786Y314155D02*
X159825Y314194D01*
X149606Y296457D02*
X153150D01*
X126378Y319685D02*
X149606Y296457D01*
X126378Y319685D02*
Y324803D01*
X139173Y329235D02*
X146850Y321557D01*
X182391Y184273D02*
X182764Y184646D01*
X181938Y186594D02*
X182027D01*
X159825Y184273D02*
X182391D01*
X182764Y184646D02*
X182972D01*
X181172Y185827D02*
X181938Y186594D01*
X159786Y184234D02*
X159825Y184273D01*
X160784Y185827D02*
X181172D01*
X159812Y186593D02*
X160017D01*
X160784Y185827D01*
X126378Y189764D02*
X149606Y166535D01*
X153150D01*
X139173Y199313D02*
X146850Y191636D01*
Y176772D02*
Y191636D01*
X126378Y189764D02*
Y194882D01*
D70*
X302992Y20472D02*
D03*
Y150394D02*
D03*
X89764Y210000D02*
D03*
Y80079D02*
D03*
X302992Y280315D02*
D03*
X89764Y339921D02*
D03*
D75*
X416929Y295276D02*
D03*
X261811Y36614D02*
D03*
X286614Y50787D02*
D03*
X279921D02*
D03*
X261811Y296457D02*
D03*
X286614Y310630D02*
D03*
X279921D02*
D03*
X416535Y35433D02*
D03*
X279921Y180709D02*
D03*
X286614D02*
D03*
X261811Y166535D02*
D03*
X416535Y165354D02*
D03*
D77*
X141339Y346850D02*
D03*
Y216929D02*
D03*
X141732Y87008D02*
D03*
X24409Y266142D02*
D03*
X113779Y60630D02*
D03*
X126378Y64961D02*
D03*
X146850Y306693D02*
D03*
X338888Y47686D02*
D03*
X311024Y46850D02*
D03*
X255551Y30354D02*
D03*
X354331Y46457D02*
D03*
X338888Y307528D02*
D03*
X311024Y306693D02*
D03*
X255551Y290197D02*
D03*
X354331Y306299D02*
D03*
X192520Y110006D02*
D03*
Y105307D02*
D03*
X178740Y38976D02*
D03*
X164961Y25197D02*
D03*
X182027Y56672D02*
D03*
X159812Y56672D02*
D03*
X182972Y54724D02*
D03*
X159786Y54312D02*
D03*
X153150Y36614D02*
D03*
X139173Y69392D02*
D03*
X146850Y46850D02*
D03*
X478346Y18504D02*
D03*
Y34646D02*
D03*
X478740Y26378D02*
D03*
Y10236D02*
D03*
X279528Y33071D02*
D03*
X153431Y106493D02*
D03*
X125984Y104724D02*
D03*
X115748Y320480D02*
D03*
X192520Y369849D02*
D03*
Y365150D02*
D03*
X178740Y298819D02*
D03*
X164961Y285039D02*
D03*
X182027Y316515D02*
D03*
X159812Y316515D02*
D03*
X182972Y314567D02*
D03*
X159786Y314155D02*
D03*
X153150Y296457D02*
D03*
X126378Y324803D02*
D03*
X139173Y329235D02*
D03*
X478346Y278346D02*
D03*
Y294488D02*
D03*
X478740Y286221D02*
D03*
Y270079D02*
D03*
X279528Y292913D02*
D03*
X153431Y366336D02*
D03*
X125984Y364567D02*
D03*
Y234646D02*
D03*
X153431Y236414D02*
D03*
X338888Y177607D02*
D03*
X182972Y184646D02*
D03*
X182027Y186594D02*
D03*
X159786Y184234D02*
D03*
X159812Y186593D02*
D03*
X478740Y140157D02*
D03*
X478346Y164567D02*
D03*
Y148425D02*
D03*
X478740Y156299D02*
D03*
X354331Y176378D02*
D03*
X30315Y193307D02*
D03*
X22441D02*
D03*
X115748Y190559D02*
D03*
X153150Y166535D02*
D03*
X178740Y168898D02*
D03*
X164961Y155118D02*
D03*
X139173Y199313D02*
D03*
X192520Y235228D02*
D03*
Y239928D02*
D03*
X279528Y162992D02*
D03*
X311024Y176772D02*
D03*
X255551Y160276D02*
D03*
X26378Y193307D02*
D03*
X28346Y266142D02*
D03*
X32283D02*
D03*
X25984Y124016D02*
D03*
X29528D02*
D03*
X33071D02*
D03*
X126378Y194882D02*
D03*
X146850Y176772D02*
D03*
M02*
