M48
;Layer_Color=9474304
;FILE_FORMAT=2:5
INCH,TZ
;TYPE=PLATED
T1F00S00C0.01181
T2F00S00C0.03543
T3F00S00C0.04291
T4F00S00C0.12835
%
T01
X56299Y39370
X72835Y43216
X86221Y39764
X116142Y39370
Y46457
X131496Y48819
X138189
X141339
X146457Y40157
X151279Y43012
X173228Y51968
X176772Y33071
Y28740
X198819Y32283
X200000Y20472
X255551Y30354
X307480Y26378
X316831Y38878
X327165Y31890
X333071Y32283
X338189Y34252
Y22835
X364961Y36909
X381890Y41339
Y48819
X414589Y44488
X440945Y41339
X455512Y40945
Y58661
X461811Y59842
X455512Y170866
Y188583
X461811Y189764
X440945Y171260
X414589Y174409
X413583Y188779
X414567Y203150
X381890Y186614
Y178740
Y171260
X364961Y166831
X338189Y164173
X333071Y162205
X327165Y161811
X316831Y168799
X307480Y156299
X338189Y152756
X344094Y125984
X328740Y121653
X327953Y95669
X322835Y99606
X344094Y101575
X364961Y97638
X362598Y91437
X363484Y115059
X364961Y121653
X364173Y67323
X343701Y60630
X314961
X381890Y56693
X413583Y58858
X414567Y73228
Y94095
X414173Y104724
Y115748
X414567Y127559
X364173Y197244
X343701Y190551
X314961
X255551Y160276
X257480Y127559
X252362Y117717
X269443Y116799
X273228Y119291
X279921Y100787
X283071Y96457
X286417Y102953
X263386Y84252
X257480
X252362Y83465
X235039Y100787
X212992Y100394
X210630Y90945
X195669
X188189
X178529Y90734
X180318Y87405
X182536Y84111
X182677Y79528
X182283Y61024
X179134Y57087
X165748
X196850Y72835
X209238Y70289
X172635Y101375
X171050Y104908
X149213Y111417
X138189
X135039Y127559
X146457Y157480
Y167610
Y172441
X150394Y172835
X146850Y176772
X141339Y178740
X138189
X131496
X131299Y182480
X155512Y164961
X176772Y162992
Y158661
X198819Y162205
X200000Y150394
X196850Y202756
X187795Y201575
X173228Y194882
X178347Y185039
X209309Y200787
X149213Y88583
X138189Y88583
Y79921
X120571Y70374
X108268Y69291
X127953Y59449
X119685Y90945
X107973Y104823
X107874Y108268
X123721Y115059
X88583Y124016
X76772Y108268
X48031Y117717
X50000Y124016
X47244Y94095
X51575Y88976
Y70472
X80709Y67323
X85905Y59764
X86221Y169685
X72835Y173138
X56299Y169291
X20472Y181890
X15748Y196850
X26772Y204724
X85905Y189685
X111811Y198425
X120571Y200295
X116142Y176378
Y169291
X19685Y133858
X-16616Y118110
X-37402Y132283
Y141732
X-39370Y154331
X-38583Y160630
X-37402Y166929
Y173228
Y179528
Y204724
X-30315Y198425
X-37402Y211024
Y217323
Y223622
Y229921
Y236221
Y242520
Y248819
Y255118
Y280315
X12992Y284252
X15354Y260630
X32677Y253543
X22835Y232677
X24016Y211024
X75197Y223622
X83071Y224016
X76772Y238189
X107874
X107973Y234744
X119685Y220866
X123721Y244980
X104724Y263386
X81102Y265748
X84252Y284646
X86221Y299606
X72835Y303059
X56299Y299213
X32677Y294488
X66929Y276772
X85905Y319606
X107874Y309842
X116142Y306299
X113386Y293701
X127559Y292126
X120571Y330217
X119685Y350787
X107973Y364665
X138189Y348425
Y339764
X149213Y348425
X178529Y350576
X180318Y347247
X182536Y343953
X182677Y339370
X188189Y333071
X196850Y332677
X211153Y329792
X210630Y350787
X212992Y360236
X235039Y360630
X252362Y343307
X257480Y344094
X263386
X283071Y356299
X279921Y360630
X286417Y362795
X195669Y350787
X188189
X172635Y361218
X171050Y364751
X176772Y292913
Y288583
X185039Y294094
Y281496
X200394Y279921
X198819Y292126
X196720Y304988
X200787Y307087
X218504Y280315
X255551Y290197
X257480Y257480
X252362Y247638
X269443Y246720
X273228Y249213
X279921Y230709
X283071Y226378
X286417Y232874
X263386Y214173
X257480
X252362Y213386
X235039Y230709
X212992Y230315
X210630Y220866
X195669
X188189
X178529Y220655
X180318Y217326
X182536Y214032
X182677Y209449
X172635Y231297
X171050Y234830
X149213Y241339
X138189
X133858Y257480
X138189Y218504
Y209842
X149213Y218504
Y300787
X144882
X141339Y308661
X138189
X131496
X131299Y312402
X158661Y292126
X307480Y286221
X316831Y298721
X327165Y291732
X333071Y292126
X338189Y294094
Y282677
X344094Y255118
X328740Y251575
X327953Y225590
X322835Y229528
X344094Y231496
X364961Y227165
X362598Y221358
X363484Y244980
X364961Y251181
Y296752
X381890Y301181
Y308661
Y316535
X364173Y327165
X362598Y351279
X366142Y357087
X344094Y361811
X327953Y355512
X322835Y359449
X314961Y320472
X343701
X413583Y318701
X414567Y333071
Y353937
X414173Y364567
X414589Y304331
X440945Y301181
X414567Y257480
X414173Y245669
Y234646
X414567Y224016
X455512Y300787
Y318504
X461811Y319685
X414173Y375590
X413675Y386067
X366142Y381102
X363484Y374902
X344094Y385433
X328740Y381496
X273228Y379134
X269443Y376641
X252362Y377559
X257480Y387402
X134646Y387402
X138189Y371260
X149213
X114173Y374410
X107874Y368110
X76772
T02
X20315Y27480
Y37480
Y47480
X30315
Y37480
Y27480
Y57480
Y67480
Y77480
X20315
Y67480
Y57480
X20709Y313543
X30709
Y323543
X20709
Y333543
X30709
Y343543
X20709
Y353543
X30709
Y363543
X20709
T03
X512520Y48661
Y59567
Y70473
Y81378
Y92283
X523701Y86831
Y75925
Y65020
Y54114
Y180492
Y191398
Y202303
X512520Y207756
Y196850
Y185945
Y175039
Y218661
X523701Y213209
Y306870
Y317776
Y328681
Y339587
X512520Y345039
Y334134
Y323228
Y312323
Y301417
T04
X518110Y21280
Y119665
Y147658
Y246043
Y274035
Y372421
M30
